<svg id="Layer_1" data-name="Layer 1" xmlns="http://www.w3.org/2000/svg" viewBox="0 0 42.34 42.34"><defs><style>.cls-1{fill:#fff;}</style></defs><title>CONTACT US</title><g id="Facebook"><path class="cls-1" d="M21.17,0A21.17,21.17,0,1,0,42.34,21.17,21.17,21.17,0,0,0,21.17,0Zm10.3,30.12c0,.63-.31,1.29-.93,1.29H25.34V23.6H28l.4-3.35h-3v-2c0-.89.24-1.35,1.52-1.35h1.82V14c-.56,0-1.42-.12-2.55-.12A3.85,3.85,0,0,0,22,18v2.3H19.2V23.6H22v7.81H12.33c-.62,0-.94-.66-.94-1.29V11.91c0-.62.31-1.13.94-1.13H30.54c.62,0,.93.51.93,1.13Z"/></g></svg>