<svg id="Layer_1" data-name="Layer 1" xmlns="http://www.w3.org/2000/svg" viewBox="0 0 267.78 210.52"><defs><style>.cls-1{fill:#fff;}</style></defs><title>CONTACT US</title><path class="cls-1" d="M96.17,171.66c2.86,0,5.73-.18,8.57,0a303.36,303.36,0,0,0,50.21-.74,204.43,204.43,0,0,0,33-5.73A139.31,139.31,0,0,0,223.56,151c14.3-8.4,26.06-19.37,34-34.13,7.14-13.27,9.19-27.43,7.06-42.21A69.23,69.23,0,0,0,250.1,41c-7.49-9.46-16.91-16.5-27.4-22.24A110.35,110.35,0,0,0,197,8.54c-7-1.79-14.17-3.07-21.32-4.28a131.11,131.11,0,0,0-32.12-1.54,263,263,0,0,0-27.36,3.35A133.19,133.19,0,0,0,67.66,24.93C54.61,33.37,43.89,44,37.14,58.26a68,68,0,0,0-6.56,28.56,96,96,0,0,0,5.89,33.45c4.38,12.48,10.64,24,17.83,35,1.18,1.81.7,3.45,0,5.1-2.76,6.44-7.15,11.8-11.69,17C33.72,187.59,24,196.92,12.78,204.58c-1.33.91-2.7,1.76-4.06,2.63L9,208c3.25-.75,6.57-1.3,9.75-2.29,17.23-5.36,32.68-14.2,47.32-24.57,1.18-.84,2.33-1.73,3.65-2.72l1.61,2c-2.63,1.9-5.1,3.76-7.65,5.52A182.23,182.23,0,0,1,31.83,203.6c-8.59,3.67-17.39,6.77-26.92,6.91a18.7,18.7,0,0,1-3.59-.17,2,2,0,0,1-1.3-1.2c-.1-.36.47-1.21.9-1.36,10.58-3.63,18.49-11.12,26.51-18.4a140.46,140.46,0,0,0,20.5-22.79,73.65,73.65,0,0,0,3.9-6.48,3.87,3.87,0,0,0-.33-4.43,163,163,0,0,1-18-36.11c-4.59-13.42-6.71-27.24-4.84-41.37,2.12-16.07,9.21-29.86,20.53-41.47A105.64,105.64,0,0,1,77.9,16.21a143.73,143.73,0,0,1,27.82-10.4A180,180,0,0,1,147.25.06a174.32,174.32,0,0,1,32.53,2.08c18.62,3,36.36,8.68,52.28,19.15,13.48,8.86,24,20.29,30.27,35.35,4.31,10.4,5.78,21.28,5.39,32.49-.52,15.08-6.15,28.23-15.14,40-10,13.15-23.11,22.37-38,29.28a156.53,156.53,0,0,1-31,10.43,232,232,0,0,1-48.42,5.73c-10.93.17-21.88-.31-32.82-.58-.76,0-1.48-.79-2.25-1.14a7,7,0,0,0-1.7-.57c-.77-.14-1.56-.14-2.34-.21Z"/><path class="cls-1" d="M100.13,114.3c-.09-1.07-.24-2.14-.27-3.21-.15-6.22-.33-12.44-.37-18.66,0-2.66-1-3.58-4.1-2.91a17.75,17.75,0,0,1-5.46.36c-6.13-.58-4.15,17.68-4.76,19.59-.68,2.13.9,5.63-3,5.39-3.23-.19-4.2-1-4.13-4.09.32-15.91.62-31.82,1.06-47.73a2.82,2.82,0,0,1,0-.33,2.86,2.86,0,0,1,4.27-1.94c1.35.78,2.54,1.57,2.59,2.43A174.16,174.16,0,0,1,85.7,84c-.19,3.24-.22,3.68,3.13,3.72,2.42,0,4.86-.15,7.27,0,2.65.17,3.53-1,3.53-3.52,0-7.17.09-14.34.21-21.51a16.93,16.93,0,0,1,.54-2.88l.81.13v54.27Z"/><path class="cls-1" d="M222,85.52c0,9.86-2.31,18.87-8.89,26.56-5.12,6-13.53,3.31-16.22-1.83a37,37,0,0,1-3.38-25.36c.82-3.9,1.53-7.82,2.53-11.68a28.16,28.16,0,0,1,8.55-14c3.58-3.24,8.34-2.44,11,1.71C220.41,68.4,222,76.76,222,85.52Zm-.75-.21c-.26-8.11-1.64-15.88-5.82-22.95-1.71-2.89-2.9-3.1-5.42-.95a23.5,23.5,0,0,0-7.88,13.94c-.82,4.32-1.3,8.7-2.21,13-1.7,8.11,0,15.59,4,22.6,2,3.47,4.44,3.71,7.46,1.08a18.1,18.1,0,0,0,2.15-2.3C219.34,102.58,220.89,94.12,221.26,85.3Z"/><path class="cls-1" d="M158.28,114.71c-6.23.33-12.46.77-18.69.88-.8,0-2.32-1.63-2.35-2.55q-.78-23.8-1.17-47.61s0-.09,0-.14c0-3.7,5.6-3.92,5.9-.23v.08c.57,7.95,1.18,15.9,1.44,23.87.23,7.15.16,14.33-.08,21.48-.11,3.27,1.23,3.91,4.1,3.74,3.59-.21,7.21-.05,10.81-.05Z"/><path class="cls-1" d="M189.36,114.61c-3.33,0-6.68-.14-10,0-3.13.17-6.24.63-9.35,1-2.33.3-3.71,0-3.68-3,.14-15.28,0-30.57.11-45.86,0-.72.05-1.44.13-2.16.34-3.28,5.21-3.14,5.3.15v.09c.3,14.53.87,29.06,1.22,43.59.14,5.7,0,5.62,5.9,5.31,3.44-.18,6.89,0,10.34,0Z"/><path class="cls-1" d="M129.2,60.81c-4.15,0-8.3.15-12.44-.05-2.68-.13-3.19,1-3,3.35.44,6.91.87,13.83,1,20.75,0,2.91,1.34,3.7,3.81,3.71h5.28l0,.94c-1.94,0-3.88,0-5.82,0-2.24-.07-3.26.86-3.23,3.18.08,5.9.08,11.8,0,17.7,0,2.2,1.06,3,3.1,3a48,48,0,0,1,10,.69,10.84,10.84,0,0,1-2.25.45c-4.95,0-9.9-.05-14.83-.34a3.13,3.13,0,0,1-2.07-2.25q-.14-16,.06-31.91c.07-5.68.45-11.37.52-17.05,0-2.54,1.15-3.83,3.56-3.7,5.43.28,10.85.75,16.28,1.14Z"/><path class="cls-1" d="M87,172.75c-5.32-1.23-9.08,1.19-12.33,4.85-1.5,1.69-2.25.76-2.94-.67,2.32-2.17,4.54-4.32,6.86-6.36a3.34,3.34,0,0,1,2-.64c.58,0,2.43.3,2.76.27A3.09,3.09,0,0,1,87,172.75Z"/><polygon class="cls-1" points="69.71 178.38 71.74 176.94 74.44 177.88 71.31 180.36 69.08 179.48 69.71 178.38"/><polygon class="cls-1" points="84.61 170.23 101.59 171.58 102.99 172.72 102.36 174.04 87.01 172.75 84.61 170.23"/></svg>