<svg id="Layer_1" data-name="Layer 1" xmlns="http://www.w3.org/2000/svg" viewBox="0 0 42.34 42.34"><defs><style>.cls-1{fill:#fff;}</style></defs><title>CONTACT US</title><g id="Twitter"><path class="cls-1" d="M21.17,0A21.17,21.17,0,1,0,42.34,21.17,21.17,21.17,0,0,0,21.17,0Zm8,16.68c0,.19,0,.38,0,.57,0,5.8-4.31,12.5-12.19,12.5a11.94,11.94,0,0,1-6.57-2,8.79,8.79,0,0,0,1,.06A8.49,8.49,0,0,0,16.82,26a4.31,4.31,0,0,1-4-3.05,4.21,4.21,0,0,0,.8.08,4.49,4.49,0,0,0,1.18-.16,4.33,4.33,0,0,1-3.4-4.31v0a4,4,0,0,0,1.9.55,4.48,4.48,0,0,1-1.36-5.87,12.05,12.05,0,0,0,8.83,4.59,4.25,4.25,0,0,1-.11-1,4.34,4.34,0,0,1,4.28-4.39,4.23,4.23,0,0,1,3.13,1.38,8.32,8.32,0,0,0,2.72-1.06,4.36,4.36,0,0,1-1.89,2.43,8.22,8.22,0,0,0,2.46-.69A8.74,8.74,0,0,1,29.22,16.68Z"/></g></svg>