<svg id="Layer_1" data-name="Layer 1" xmlns="http://www.w3.org/2000/svg" viewBox="0 0 72.05 84.11"><defs><style>.cls-1{fill:currentColor;}</style></defs><title>Untitled-3</title><path class="cls-1" d="M61.18,35.6c.37-.23.58.15.82.34,1.06.84,2,1.79,3,2.69.68.61,1.48,1,2.33.22a19.46,19.46,0,0,0,4.68-5.78v-.56c-.43-.63-.5-1.47-1.14-2C69.45,29.39,68.2,28,66.8,26.76,62,22.58,57.42,18.25,52.74,14c-3.61-3.29-7.19-6.63-10.86-9.86-1.7-1.5-3-3.55-5.44-4.12h-.56A13.26,13.26,0,0,0,33,1.7C29.53,4.86,26,7.95,22.55,11c-.3.27-.59.71-1.06.47s-.3-.65-.31-1c0-1.4,0-2.8,0-4.2s-.29-1.63-1.66-1.66c-2.29,0-4.57,0-6.86,0-1.62,0-1.82.23-1.83,1.88,0,4.11-.06,8.21,0,12.32A5.27,5.27,0,0,1,8.7,23.46C7.18,24.63,5.86,26,4.44,27.29,2.84,28.72,1,29.92,0,32v.84c1,2.46,3.07,4.1,4.73,6.06.52.61,1,.38,1.59,0,1.17-.8,2-1.92,3.16-2.76.78-.59,1.18-.41,1.28.56a23,23,0,0,1,0,2.8c0,2.12-.62,2.52-2.59,1.81s-4-1.53-6.07-2.18C.91,38.7.65,38.92.63,40.24.54,45.79.51,51.35.61,56.91a1.58,1.58,0,0,0,1.12,1.62c1.15.51,2.35.91,3.53,1.35,1.38.51,2.8.94,4.39,1.68-2.24.88-4.25,1.59-6.24,2.34C.32,65.06.57,64.64.58,68.08c0,.08,0,.16,0,.25-.08,4.72,0,9.45-.06,14.18,0,1,.22,1.53,1.4,1.2.44-.12.94-.18,1.41-.28a50.3,50.3,0,0,0,5.56-1.89c1.52-.52,1.92-.29,2.17,1.28a1.86,1.86,0,0,0,.7,1.29h48.5A1.88,1.88,0,0,0,61,82.55c.11-1.78.47-2,2.19-1.41,1.89.62,3.74,1.37,5.63,2a4.83,4.83,0,0,0,3.24.4V65.33c-3.56-.91-6.88-2.47-10.73-3.77,3.84-1.36,7.18-2.86,10.73-3.8V39.53c-.4-.57-.88-.47-1.45-.27-2.55.92-5.07,1.9-7.63,2.8-1.42.5-1.92.16-2-1.33s0-2.9,0-4.34C61,36.11,60.93,35.76,61.18,35.6ZM41,32.51c2.66,0,5.32,0,8,0,.73,0,1,.28,1,1,0,1.4,0,2.8,0,4.2s0,2.71,0,4.06c0,.8-.31,1.07-1.07,1.06q-3.92,0-7.84,0c-.84,0-1.16-.34-1.15-1.17q0-4,0-8C39.84,32.88,40.07,32.5,41,32.51ZM22.38,37.64c0-1.35,0-2.7,0-4.05,0-.76.26-1.08,1.05-1.07,2.61,0,5.22,0,7.82,0,.89,0,1.11.4,1.11,1.18q0,4,0,8c0,.82-.3,1.18-1.15,1.17q-3.84,0-7.68,0c-.82,0-1.18-.29-1.16-1.14C22.41,40.34,22.38,39,22.38,37.64Zm5.88,33L5.8,78.82c-1.73.63-1.8.61-1.82-1.19,0-3,0-6,0-9A1.37,1.37,0,0,1,5,67.15c3.38-1.2,6.74-2.46,10.11-3.69a2.32,2.32,0,0,1,1.74-.14c4.89,1.83,9.8,3.61,14.7,5.41.12,0,.2.16.47.38C30.72,69.64,29.5,70.13,28.25,70.59ZM67.82,67a1.89,1.89,0,0,1,1.54,2.22c-.1,1.39,0,2.8,0,4.2s0,2.8,0,4.2c0,1.86,0,1.86-1.71,1.24L38.35,68.12C27.32,64.07,16.3,60,5.25,56a1.69,1.69,0,0,1-1.3-1.93C4,51,4,48,4,45c0-1,.3-1.26,1.33-.88q24.86,9.17,49.75,18.28C59.32,63.91,63.55,65.5,67.82,67Zm0-22.82c1.51-.55,1.52-.55,1.53,1.09,0,3,0,6,0,9A1.54,1.54,0,0,1,68.17,56c-3.39,1.18-6.74,2.45-10.11,3.68a2.15,2.15,0,0,1-1.61.14c-4.76-1.77-9.53-3.5-14.3-5.26a.9.9,0,0,1-.74-.67l11-4.06Z"/><path class="cls-1" d="M11.92,50.65a1.77,1.77,0,0,0-1.86,1.83,1.84,1.84,0,0,0,1.86,1.87,1.86,1.86,0,0,0,1.87-1.88A1.78,1.78,0,0,0,11.92,50.65Z"/><path class="cls-1" d="M60.18,72.35A1.64,1.64,0,0,0,62,70.56a1.62,1.62,0,0,0-1.74-1.86,1.67,1.67,0,0,0-1.9,1.86A1.63,1.63,0,0,0,60.18,72.35Z"/><path class="cls-1" d="M12,68.7a1.78,1.78,0,0,0-1.91,1.88A1.75,1.75,0,0,0,12,72.34a1.82,1.82,0,1,0,0-3.64Z"/><path class="cls-1" d="M60.24,54.37A1.73,1.73,0,0,0,62,52.48a1.66,1.66,0,0,0-1.79-1.83,1.7,1.7,0,0,0-1.86,1.78A1.81,1.81,0,0,0,60.24,54.37Z"/></svg>
