<svg id="Layer_1" data-name="Layer 1" xmlns="http://www.w3.org/2000/svg" viewBox="0 0 77.68 80"><defs><style>.cls-1{fill:currentColor;}</style></defs><title>Untitled-3</title><path class="cls-1" d="M62.91,25.7V60.15H10.69V29c-6.34,4.66-8.3,10.87-8.3,17.69,0,5.43,2.37,10.48,6.43,14.66C10.46,63-1.89,78.57.25,79.94c1.57,1,17.52-12.08,19.31-11.27A50,50,0,0,0,40,72.89c20.79,0,37.64-11.75,37.64-26.23C77.68,38.09,71.79,30.49,62.91,25.7Z"/><polygon class="cls-1" points="17.59 54.35 17.59 3.15 45.95 3.15 46.13 3.15 46.08 0 13.21 0 13.21 44.96 13.21 46.94 13.21 54.35 16.07 54.35 17.59 54.35"/><path class="cls-1" d="M18.71,4.26V57.5H60.08v-38H46.23a1.39,1.39,0,0,1-1.39-1.39V4.26ZM27,16.7h9.88a.84.84,0,1,1,0,1.67H27a.84.84,0,0,1,0-1.67Zm0,17.79h24.7a.84.84,0,1,1,0,1.67H27a.84.84,0,0,1,0-1.67Zm-.84-5.09a.84.84,0,0,1,.84-.84h24.7a.84.84,0,1,1,0,1.67H27A.84.84,0,0,1,26.21,29.4ZM27,40.09h24.7a.84.84,0,1,1,0,1.67H27a.84.84,0,0,1,0-1.67ZM22.69,51.66A1.24,1.24,0,0,1,23.5,51a.28.28,0,0,1,.31.24.28.28,0,0,1-.24.31c-.16,0-.3.23-.41.4a1.85,1.85,0,0,0-.37,1.4.41.41,0,0,0,.13.2c.12.08.34,0,.5-.09a3.24,3.24,0,0,0,.6-.58,3.53,3.53,0,0,1,.75-.7.79.79,0,0,1,.4-.14.69.69,0,0,1,.62.39,1.07,1.07,0,0,1,.1.27l.07,0a17.6,17.6,0,0,1,4.9-.22.28.28,0,1,1,0,.55,17.47,17.47,0,0,0-4.61.17,1,1,0,0,1-.62.1.28.28,0,0,1-.21-.24,1.06,1.06,0,0,0-.08-.35.16.16,0,0,0-.11-.1l-.12.05a3,3,0,0,0-.63.6,3.71,3.71,0,0,1-.71.68,1.26,1.26,0,0,1-.67.22A.77.77,0,0,1,22.6,54a.93.93,0,0,1-.33-.48A2.32,2.32,0,0,1,22.69,51.66Zm31,1.39a12.77,12.77,0,0,0,2.7,0,.28.28,0,0,1,.1.55,13,13,0,0,1-2.84,0l-1.2-.07a3.68,3.68,0,0,1-.16.42,1.52,1.52,0,0,1-.27.4.86.86,0,0,1-.11.12,1,1,0,0,1-.6.18,1.93,1.93,0,0,1-.67-.14,2.36,2.36,0,0,1-.34-.16,1.1,1.1,0,0,1-.45-.45,1.22,1.22,0,0,1-.1-.72A1.85,1.85,0,0,1,50.34,52a6.39,6.39,0,0,1-.1-1.73,1.15,1.15,0,0,1,.23-.69.94.94,0,0,1,1.28-.06,1.92,1.92,0,0,1,.58,1A5.52,5.52,0,0,1,52.56,53ZM51.75,22.64a.84.84,0,0,1,0,1.67H27a.84.84,0,0,1,0-1.67Z"/><polygon class="cls-1" points="46.13 18.21 58.17 18.21 60.08 18.21 58.17 16.3 46.13 4.26 46.13 18.21"/><path class="cls-1" d="M51.4,50c-.14-.11-.4-.15-.51,0a.7.7,0,0,0-.1.37,5.82,5.82,0,0,0,.06,1.42,1.18,1.18,0,0,1,.28,0h0a.77.77,0,0,1,.64.29.8.8,0,0,1-.1,1H52a4.92,4.92,0,0,0-.2-2.29A1.44,1.44,0,0,0,51.4,50Z"/><path class="cls-1" d="M50.93,53.58a.28.28,0,0,1-.27-.45l0,0a.28.28,0,0,1-.07-.11c0-.11-.08-.23-.12-.34a1.36,1.36,0,0,0-.22.6.71.71,0,0,0,0,.4.92.92,0,0,0,.49.34.86.86,0,0,0,.74,0,.78.78,0,0,0,.21-.3l.08-.2h0A5.09,5.09,0,0,0,50.93,53.58Z"/><path class="cls-1" d="M51.33,52.32a.26.26,0,0,0-.2-.06l-.16,0q.06.23.14.46l.12-.11C51.32,52.53,51.38,52.38,51.33,52.32Z"/></svg>
