<?xml version="1.0" encoding="UTF-8"?> <svg xmlns="http://www.w3.org/2000/svg" id="Layer_1" data-name="Layer 1" viewBox="0 0 100 100"><defs><style>.cls-1{fill:#00b0a7;}.cls-2{fill:#d6d6d6;}.cls-3{fill:#fff;}</style></defs><title>Notice to Owner</title><circle class="cls-1" cx="50" cy="50" r="50"></circle><path class="cls-2" d="M71.36,57.33A13,13,0,0,0,68.08,55v.39l-4.15,6.28c0,.78,0,1.57,0,2.35,0,1,0,1.92,0,2.88a1.46,1.46,0,1,1-2.92,0c0-.27,0-.54,0-.81L54,76.61A13,13,0,0,0,71.36,57.33ZM62.46,74.2a1.46,1.46,0,1,1,1.47-1.49A1.47,1.47,0,0,1,62.46,74.2Z"></path><path class="cls-3" d="M61,66.84a1.46,1.46,0,1,0,2.92,0c0-1,0-1.92,0-2.88,0-.78,0-1.57,0-2.35L61,66C61,66.3,61,66.57,61,66.84Z"></path><path class="cls-3" d="M62.45,71.29a1.46,1.46,0,1,0,1.47,1.43A1.47,1.47,0,0,0,62.45,71.29Z"></path><path class="cls-3" d="M49.2,66.51A13,13,0,0,1,68.08,55V19.36H35.19V29.48H25.06V76.61H54a13.12,13.12,0,0,1-1-.91A12.9,12.9,0,0,1,49.2,66.51Z"></path><path class="cls-2" d="M61,61a1.46,1.46,0,1,1,2.92,0c0,.19,0,.38,0,.57l4.15-6.28V55A13,13,0,0,0,53,75.7a13.12,13.12,0,0,0,1,.91L61,66Q61,63.54,61,61Z"></path><path class="cls-3" d="M62.42,59.58A1.37,1.37,0,0,0,61,61q0,2.49,0,5l2.92-4.41c0-.19,0-.38,0-.57A1.38,1.38,0,0,0,62.42,59.58Z"></path><polygon class="cls-2" points="35.19 19.36 25.06 29.48 35.19 29.48 35.19 19.36"></polygon></svg> 