<?xml version="1.0" encoding="UTF-8"?> <svg xmlns="http://www.w3.org/2000/svg" id="Layer_1" data-name="Layer 1" viewBox="0 0 100 100"><defs><style>.cls-1{fill:#001871;}.cls-2{fill:#fff;}</style></defs><title>SOL</title><circle class="cls-1" cx="50" cy="50" r="50"></circle><path class="cls-2" d="M74.1,74.5V55.22h-18V74.51H44.61a.7.7,0,0,1-.44-.18c-.82-.81-1.63-1.63-2.45-2.44a.6.6,0,0,0-.36-.15c-.4,0-.8,0-1.21,0V31.27h3.71a8.7,8.7,0,0,1,.81-4.68H40.15V25.28H63.47c.18,0,.23.07.22.23s0,.42,0,.66h.71c0,.11,0,.19,0,.27q0,5.33,0,10.66c0,.11-.1.22-.15.33l-.09,0c.08.36.17.73.26,1.09,0,0,.06.13.09.13.29,0,.26.23.27.42,0,.59,0,.59.53.8l.08,0a.71.71,0,0,1,.45.66.73.73,0,0,1-.43.68.88.88,0,0,1-.87-.15,3.92,3.92,0,0,1-.24-.54,1.28,1.28,0,0,0-.21-.24c-.08.09-.23.17-.23.26a1.38,1.38,0,0,0,.15.6,5.63,5.63,0,0,0,.53.68L60.65,47a.67.67,0,0,1-.25.2L57.79,48.4l-1.55.69,0,0H73.95a1,1,0,0,0-.31-.2l-3.82-1.69a.79.79,0,0,1-.3-.23L66.1,42.46c-.1-.13-.22-.24-.33-.37h0l-.2-.39c1-.73,1-1.61,0-2.34a.54.54,0,0,1,0-.74.4.4,0,0,0,.17-.2c.08-.28.15-.57.22-.85a.4.4,0,0,0,0-.19c-.27-.06-.16-.27-.16-.42q0-5.2,0-10.41v-.41h.7v-.87h2a1.07,1.07,0,0,0-.35-1.15,5.89,5.89,0,0,1-.73-.73,12.7,12.7,0,0,1-2.64-3.05.29.29,0,0,0-.21-.11l-5.14-.37-6.11-.44L47.87,19l-5.56-.41h-.13l-.24,0h0l-.68,0-4.9-.34a5.78,5.78,0,0,0-1.66,0c-2.64.63-5.27,1.32-7.9,2a.62.62,0,0,0-.43.33,4.5,4.5,0,0,1-.61,1c-.87.91-1.77,1.81-2.7,2.67a1.15,1.15,0,0,0-.34,1.15h1v0l-.35,0a.41.41,0,0,0,0,.1c0,1.1,0,2.2,0,3.3,0,.21.12.22.27.22h4.83l.17,0V25.34l-.5,0h6.23V71.72c-.4,0-.79,0-1.17,0a.59.59,0,0,0-.48.2l-2.41,2.39a.65.65,0,0,1-.5.21H22.71v3.36h54V74.5ZM42.22,26.91h1.94l-.44,1.49c-.17.56-.17.56-.74.56h-.77Zm-1.78,0h1.32v2H40.44Zm25.16,15c0,.06.11.09.17.14.14.22.27.46.43.67l3.06,4.11.14.22L66.87,46c-.49-.22-1-.43-1.46-.66a.68.68,0,0,0-.63,0l-3.65,1.62-.34.13L62,45.41l2.61-3.5c.1-.14.2-.21.37-.15a.28.28,0,0,0,.18,0A.32.32,0,0,1,65.6,41.95ZM25.8,22.48l1.94,2H23.87Zm-1.68,2.84v0H27.8v0Zm2.57-3.15h3.78l-1.88,1.91Zm2.68,2.3,2-2,1.92,2Zm5,0c-.78-.77-1.54-1.43-2.2-2.19a2.28,2.28,0,0,0-2.09-.87c-.88.07-1.78,0-2.67,0a.36.36,0,0,1-.38-.22c-.14-.27-.3-.53-.47-.83l7.58-1.95a4.35,4.35,0,0,0-.27.69,1.08,1.08,0,0,0,.34,1,.45.45,0,0,1,.15.27C34.39,21.71,34.38,23,34.38,24.42Zm6.64.07,2-1.92,1.88,1.92Zm2.7-2.32h3.9L45.7,24.11Zm2.74,2.31,2-1.91,1.95,1.91Zm2.79-2.33h4l-2.06,2Zm2.93,2.32,1.94-1.95L56,24.49Zm2.76-2.31h4.12l-2.06,2ZM58,24.49l2-1.91,1.89,1.91Zm4.59-.41-1.9-1.89h3.82ZM65.7,37.23c-.47-.44-.76-.44-1.17,0V26.35a1,1,0,0,0,1.17,0Zm-.32-14.69,1.94,1.95H63.46ZM41,18.62c.35,0,.7.06,1.06.08h0l5.08.38,6.29.46,6.32.45,4.51.33.36,0c-.18.32-.34.62-.52.9a.42.42,0,0,1-.31.11H59.42c-1.43,0-2.85,0-4.28,0a.46.46,0,0,1-.49-.29,3.25,3.25,0,0,1-.18-.31c-.16-.52-.56-.58-1-.63-2.28-.24-4.56-.51-6.84-.76l-4.32-.49-2.86-.32s-.05,0-.08-.07Zm-.07.24,1.58.19,3.21.36L51,20l3.09.36c-.2.34-.37.66-.56,1,0,.06-.19.08-.3.08h-5c-1.64,0-3.28,0-4.92,0a.83.83,0,0,0-.66.28c-.75.77-1.51,1.53-2.26,2.29l-.22.21L36,20c.34-.7.31-1-.22-1.73Zm-5,31.39,3-3v6.16Zm2.48,4.34-2.85,2.79V51.79ZM39,28.49l-3-3.14h3Zm0,2.3V36.5L36.2,33.61Zm-.55-1.12-2.86,2.76V26.81Zm-2.85,5.11,2.83,2.85-2.83,2.78ZM39,38.86v6l-3-3ZM35.54,21.4l2.8,2.77h-2.8Zm0,21.79L38.34,46l-2.8,2.8Zm0,16.87,2.81,2.82-2.81,2.75Zm0,10.5V68.09l2.53,2.47Zm3.4-.85L36.2,66.8,39,64Zm0-8.07-2.9-3,2.9-3Zm28.56-3.85H69.4v1.16H67.53ZM60.38,71.3H58.5v-3h1.88Zm-1.89-9V59.23h1.89v3.06Zm1.9,5.53a.25.25,0,0,1-.17.18c-.57,0-1.13,0-1.72,0V66.82h1.9C60.4,67.17,60.41,67.49,60.39,67.81Zm0-9.41c0,.18,0,.36,0,.56H58.49V57.77h1.32C60.43,57.77,60.43,57.77,60.4,58.4Zm2.14,12.89H60.67V66.82h1.87Zm0-9H60.67v-4.5h1.88Zm5-3H69.4v3H67.53Zm3.76,15.26H67.92V68.32h3.37Zm.28-12.21H69.69v-4.5h1.88Z"></path></svg> 