<?xml version="1.0" encoding="UTF-8"?> <svg xmlns="http://www.w3.org/2000/svg" id="Layer_1" data-name="Layer 1" viewBox="0 0 100 100"><defs><style>.cls-1{fill:#943cbb;}.cls-2{fill:#fff;}</style></defs><title>SOL</title><circle class="cls-1" cx="50" cy="50" r="50"></circle><path class="cls-2" d="M66.44,23.53,71.91,29c-1.23-.32-2.51-.66-3.8-1a.84.84,0,0,1-.76-.7C67.05,26,66.72,24.68,66.44,23.53Z"></path><path class="cls-2" d="M73.55,31.78c0-1-.31-1.33-1.18-1.51-1.56-.33-3.09-.76-4.65-1.11a1.63,1.63,0,0,1-1.46-1.45c-.3-1.6-.84-3.16-1.16-4.76-.18-.9-.58-1.1-1.44-1.1q-16.5,0-33,0c-1.07,0-1.31.28-1.3,1.32,0,9,0,18,0,26.93s0,18,0,26.93c0,1.08.21,1.41,1.36,1.41q20.8-.07,41.6,0c1,0,1.23-.3,1.23-1.27,0-8.72,0-17.45,0-26.17C73.53,44.59,73.5,38.18,73.55,31.78Zm-39.87-.39c2.94.07,21.87,0,24.82,0s5.72,0,8.58,0c.78,0,1.11.14,1.08,1s-.06,1.2-1,1.19c-5.81,0-27.6,0-33.41,0-.79,0-1.13-.16-1.09-1S32.68,31.36,33.68,31.38Zm34.5,11.3c0,1-.34,1.17-1.24,1.17-5.48,0-11,0-16.44,0s-10.87,0-16.31,0c-.79,0-1.34,0-1.33-1.08s.38-1.15,1.25-1.14q16.44,0,32.87,0C67.8,41.62,68.17,41.72,68.18,42.69ZM33.79,36.57c2.91,0,21.8,0,24.71,0s5.65,0,8.47,0c.83,0,1.21.14,1.18,1.08S68,38.84,67,38.83c-5.77,0-27.53,0-33.3,0-.92,0-1.1-.31-1.13-1.16S33,36.56,33.79,36.57ZM34,46.83q16.54,0,33.08,0c.93,0,1.1.33,1.11,1.17s-.28,1-1.09,1C61.55,49,56,49,50.44,49S39.5,49,34,49c-.83,0-1.19-.15-1.18-1.09S33.14,46.82,34,46.83ZM34,52c5.52,0,11,0,16.55,0s11,0,16.55,0c.85,0,1.18.2,1.17,1.11s-.29,1.14-1.16,1.13q-16.55,0-33.1,0c-1,0-1.05-.4-1.07-1.19S33.15,52,34,52Zm0,5.24c5.56,0,11.11,0,16.67,0s10.94,0,16.41,0c.86,0,1.17.18,1.16,1.1s-.34,1-1.11,1q-16.6,0-33.21,0c-.91,0-1-.35-1-1.1S33.2,57.23,34,57.23ZM67.22,75q-16.48,0-33,0c-.91,0-1.26-.2-1.26-1.18s.43-1.07,1.23-1.07c5.47,0,10.95,0,16.42,0s11,0,16.55,0c.92,0,1.22.2,1.21,1.17S68.06,75,67.22,75Zm-.14-5.31c-5.47,0-10.95,0-16.42,0s-10.87,0-16.3,0c-.76,0-1.22,0-1.23-1s.53-1,1.25-1H67.11c.64,0,1.31-.22,1.3.93S67.87,69.68,67.08,69.68Zm1.29-5.5c-.22.66-.77.38-1.18.38-5.51,0-11,0-16.54,0s-10.94,0-16.41,0c-.86,0-1.28-.11-1.3-1.14s.53-1.08,1.32-1.08q16.41,0,32.83,0C68.29,62.38,68.75,63,68.37,64.18Z"></path></svg> 