<?xml version="1.0" encoding="UTF-8"?> <svg xmlns="http://www.w3.org/2000/svg" id="Layer_1" data-name="Layer 1" viewBox="0 0 100 100"><defs><style>.cls-1{fill:#00b0a7;}.cls-2{fill:none;}.cls-3{fill:#fff;}.cls-4{fill:#d6d6d6;}</style></defs><title>SOL</title><circle class="cls-1" cx="50" cy="50" r="50"></circle><path class="cls-2" d="M62.21,64c-2.45,2.45.38,5.92.38,9.39s-4.07.36-1.62,2.81c.32.32-7.3.11-6.95.4H53.5c.05.16.16.18.49.23a64,64,0,0,0,8.07.51h.64c1,0,2.08,0,3.11-.07a56.9,56.9,0,0,0,5.68-.46.41.41,0,0,0,.42-.43c0-.51.07-1,.1-1.52a15.61,15.61,0,0,0-.54-5.23,8.76,8.76,0,0,0-5.05-5.93c-.3-.13-.3-.15,0-.36A6.06,6.06,0,0,0,68,54.92a12.93,12.93,0,0,0-5.83-1.39C58.7,53.53,64.66,61.56,62.21,64Z"></path><path class="cls-3" d="M53.29,68.49a9.68,9.68,0,0,1,4.18-5.1,7,7,0,0,1-1.92-6.85,7.35,7.35,0,0,1,6.25-5.33,8,8,0,0,1,.87,0h0a7.47,7.47,0,0,1,5.42,2.25v-34H35.19V29.48H25.06V76.61H52.5c0-.08,0-.15,0-.24A17.52,17.52,0,0,1,53.29,68.49Z"></path><path class="cls-3" d="M72.05,69.19a7.94,7.94,0,0,0-4.58-5.37c-.27-.12-.27-.14,0-.32a5.49,5.49,0,0,0,1.46-7.65,5.83,5.83,0,0,0-4.85-2.5,6.33,6.33,0,0,0-.69,0,5.72,5.72,0,0,0-4.88,4.16,5.52,5.52,0,0,0,2.24,6c.27.19.27.21,0,.34a7.87,7.87,0,0,0-4.29,4.62,15.16,15.16,0,0,0-.71,6.74,1.39,1.39,0,0,0,0,.3c0,.14.14.17.45.21a58,58,0,0,0,7.32.47h.58c.94,0,1.88,0,2.82-.06a51.56,51.56,0,0,0,5.15-.42.37.37,0,0,0,.38-.39c0-.46.07-.92.09-1.38A14.14,14.14,0,0,0,72.05,69.19Z"></path><polygon class="cls-4" points="35.19 19.36 25.06 29.48 35.19 29.48 35.19 19.36"></polygon></svg> 