<?xml version="1.0" encoding="UTF-8"?> <svg xmlns="http://www.w3.org/2000/svg" id="Layer_1" data-name="Layer 1" viewBox="0 0 100 100"><defs><style>.cls-1{fill:#ffb40f;}.cls-2{fill:#fff;}</style></defs><title>SOL</title><circle class="cls-1" cx="50" cy="50" r="50"></circle><path class="cls-2" d="M59.25,41.74q0,7.5,0,15c0,.19-.06.41,0,.56s.32.59.56.66.55-.21.67-.42A15.78,15.78,0,0,0,61.15,56c1.26-3,2.48-6,3.81-9a3.12,3.12,0,0,1,4.28-1.61c1.71.75,2.25,2,1.62,3.83-1.17,3.42-2.37,6.83-3.55,10.25-.86,2.47-1.75,4.93-2.57,7.42a14.31,14.31,0,0,1-9.15,9.3c-4.58,1.68-9.28,2.1-13.93.28a14,14,0,0,1-8.39-9.09c-1.73-5.13-1.91-10.43-1.76-15.77.18-6.27.31-12.53.47-18.8a2.54,2.54,0,0,1,2.44-2.62,2.79,2.79,0,0,1,3.16,2.36,20.18,20.18,0,0,1,.05,2.27q0,5.11,0,10.22c0,.19,0,.42,0,.56s.38.54.58.54a.93.93,0,0,0,.64-.48,1.81,1.81,0,0,0,.05-.8q0-8.55,0-17.11A2.63,2.63,0,0,1,40.82,25a3,3,0,0,1,3.54,1.08,3.42,3.42,0,0,1,.45,1.67c0,5.32,0,10.65,0,16,0,.24-.06.54.05.71a1,1,0,0,0,.66.43c.18,0,.43-.27.53-.48a1.79,1.79,0,0,0,0-.72c0-6.73.06-13.46,0-20.19,0-2.93,2.87-3.68,4.77-2.71A2,2,0,0,1,52,22.61c0,1.46,0,2.92,0,4.38q0,8.39,0,16.78c0,.05,0,.11,0,.16,0,.49,0,1.09.67,1.08s.66-.59.66-1.09q0-8.23,0-16.46c0-.38,0-.76,0-1.13a2.81,2.81,0,0,1,3.07-2.67,2.78,2.78,0,0,1,2.79,2.93Q59.25,34.16,59.25,41.74Z"></path></svg> 