<svg xmlns="http://www.w3.org/2000/svg" xmlns:xlink="http://www.w3.org/1999/xlink" viewBox="0 0 1920 680"><defs><style>.cls-1{fill:none;}.cls-2{isolation:isolate;}.cls-3{fill:#0373b9;}.cls-4{clip-path:url(#clip-path);}.cls-5{opacity:0.32;mix-blend-mode:multiply;}.cls-6{fill:#231f20;}.cls-7{fill:#0087cd;}</style><clipPath id="clip-path"><rect class="cls-1" width="1920" height="680"/></clipPath></defs><title>New York</title><g class="cls-2"><g id="Layer_1" data-name="Layer 1"><rect class="cls-3" width="1920" height="680"/><g class="cls-4"><g class="cls-5"><polygon class="cls-3" points="1433.3 628.53 1433.3 614.97 1440.59 622.24 1434.29 628.53 1433.3 628.53"/><polygon class="cls-3" points="1442.09 620.74 1435.59 614.24 1448.6 614.24 1442.09 620.74"/><polygon class="cls-3" points="1449.86 615.98 1449.86 628.49 1443.6 622.24 1449.86 615.98"/><polygon class="cls-3" points="1437.3 628.53 1442.09 623.74 1446.89 628.53 1437.3 628.53"/><polygon class="cls-3" points="1452 628.53 1452 614.96 1459.29 622.24 1452.99 628.53 1452 628.53"/><polygon class="cls-3" points="1460.79 620.74 1454.29 614.24 1467.29 614.24 1460.79 620.74"/><polygon class="cls-3" points="1468.57 615.97 1468.57 628.5 1462.29 622.24 1468.57 615.97"/><polygon class="cls-3" points="1456 628.53 1460.79 623.74 1465.58 628.53 1456 628.53"/><polygon class="cls-3" points="1470.7 628.53 1470.7 614.97 1477.98 622.24 1471.69 628.53 1470.7 628.53"/><polygon class="cls-3" points="1479.49 620.73 1473 614.24 1485.98 614.24 1479.49 620.73"/><polygon class="cls-3" points="1487.28 615.96 1487.28 628.52 1480.99 622.24 1487.28 615.96"/><polygon class="cls-3" points="1474.7 628.53 1479.49 623.75 1484.27 628.53 1474.7 628.53"/><path class="cls-3" d="M1430.71,613.34l48.06-3.8h-8.47a2.56,2.56,0,0,0,.15-.9c0-1.53-.07-2.49-.07-2.49v-2.87l4.17-3.91a1.87,1.87,0,0,0,.7-1.66c-.06-1.15.31-5.81.31-5.81l.51.13,1,1.41s1,.19,1.09-.26a14.27,14.27,0,0,0,.25-1.41l.45-3.9a11,11,0,0,0-.45-3.13,8.29,8.29,0,0,0-1.46-1.54l-.39-2.11s-.19-1-.83-.38V582h-.7l-.19-2.24s-.19-2.94-1.21-3.83a27,27,0,0,0-1.35-2.94,19.44,19.44,0,0,0-2.37-2.94s.84-6.14-1.21-8.12c-1.15-1.15-6-5-10.94.83a22.57,22.57,0,0,0-1.29,1.92l-.26.07a14.55,14.55,0,0,0-8.31,2.94c-1.73,1.79-4,4.15-5,4.54a27.83,27.83,0,0,0-2.81,2.81l-3.06,4.2a2.64,2.64,0,0,0-.09,2.78c.86,1.44,2.4,4.13,2.64,4.56s3.83,4.07,5.9,6.18a5.42,5.42,0,0,1,1.87,2c0,.29,1,2.21,1.44,2.35,0,0,.43,1.11-.29,1.44a1.66,1.66,0,0,0-.24.77c0,.14-1,3.64-1,3.64l-.7,1.2s-.77,3.24.46,5.44h-16.26m27.78-3.42a.71.71,0,0,1-.58-.39l.05-1.3.38-.43.72-1.11.77-1.39a7.16,7.16,0,0,0,.86-1,2.75,2.75,0,0,0,.58-1.48,17.51,17.51,0,0,0,1.73-2,6.82,6.82,0,0,1,.76-.82l.88.82s-1.06,3-1.3,3.5-.2.53-.2.53l.34,1.43V603c-1.15.86-3.36,3-3.36,3S1458.89,606.12,1458.51,606.12Zm6,2.33a3,3,0,0,0-.21,1.09h-2.76c1.3-.76,3.17-2,3.17-2Z"/><polyline class="cls-3" points="910.6 626.58 913.29 623.89 915.99 626.58"/><polyline class="cls-3" points="918.76 626.58 914.68 622.5 920.45 616.74 920.45 626.58"/><polygon class="cls-3" points="919.27 615.15 913.3 621.12 907.32 615.15 919.27 615.15"/><polyline class="cls-3" points="905.22 626.58 905.22 615.82 911.91 622.51 907.83 626.58"/><polyline class="cls-3" points="927.82 626.58 930.52 623.89 933.22 626.58"/><polyline class="cls-3" points="935.99 626.58 931.9 622.5 937.67 616.74 937.67 626.58"/><polygon class="cls-3" points="936.5 615.15 930.52 621.12 924.54 615.15 936.5 615.15"/><polyline class="cls-3" points="922.44 626.58 922.44 615.82 929.14 622.51 925.05 626.58"/><polyline class="cls-3" points="945.04 626.58 947.74 623.89 950.44 626.58"/><polyline class="cls-3" points="953.21 626.58 949.13 622.5 954.89 616.74 954.89 626.58"/><polygon class="cls-3" points="953.72 615.15 947.74 621.12 941.77 615.15 953.72 615.15"/><polyline class="cls-3" points="939.66 626.58 939.66 615.82 946.36 622.51 942.28 626.58"/><polyline class="cls-3" points="962.27 626.58 964.97 623.89 967.67 626.58"/><polyline class="cls-3" points="970.43 626.58 966.35 622.5 972.12 616.74 972.12 626.58"/><polygon class="cls-3" points="970.94 615.15 964.97 621.12 958.99 615.15 970.94 615.15"/><polyline class="cls-3" points="956.89 626.58 956.89 615.82 963.58 622.51 959.5 626.58"/><polyline class="cls-3" points="979.49 626.58 982.19 623.89 984.89 626.58"/><polyline class="cls-3" points="987.66 626.58 983.58 622.5 989.34 616.74 989.34 626.58"/><polygon class="cls-3" points="988.17 615.15 982.19 621.12 976.22 615.15 988.17 615.15"/><polyline class="cls-3" points="974.11 626.58 974.11 615.82 980.81 622.51 976.73 626.58"/><polyline class="cls-3" points="996.72 626.58 999.41 623.89 1002.11 626.58"/><polyline class="cls-3" points="1004.88 626.58 1000.8 622.5 1006.57 616.74 1006.57 626.58"/><polygon class="cls-3" points="1005.39 615.15 999.42 621.12 993.44 615.15 1005.39 615.15"/><polyline class="cls-3" points="991.34 626.58 991.34 615.82 998.03 622.51 993.95 626.58"/><polyline class="cls-3" points="1013.94 626.58 1016.64 623.89 1019.34 626.58"/><polyline class="cls-3" points="1022.11 626.58 1018.02 622.5 1023.79 616.74 1023.79 626.58"/><polygon class="cls-3" points="1022.62 615.15 1016.64 621.12 1010.66 615.15 1022.62 615.15"/><polyline class="cls-3" points="1008.56 626.58 1008.56 615.82 1015.25 622.51 1011.17 626.58"/><polyline class="cls-3" points="1031.16 626.58 1033.86 623.89 1036.56 626.58"/><polyline class="cls-3" points="1039.33 626.58 1035.25 622.5 1041.01 616.74 1041.01 626.58"/><polygon class="cls-3" points="1039.84 615.15 1033.86 621.12 1027.89 615.15 1039.84 615.15"/><polyline class="cls-3" points="1025.78 626.58 1025.78 615.82 1032.48 622.51 1028.4 626.58"/><polyline class="cls-3" points="1048.39 626.58 1051.09 623.89 1053.79 626.58"/><polyline class="cls-3" points="1056.56 626.58 1052.47 622.5 1058.24 616.74 1058.24 626.58"/><polygon class="cls-3" points="1057.06 615.15 1051.09 621.12 1045.11 615.15 1057.06 615.15"/><polyline class="cls-3" points="1043.01 626.58 1043.01 615.82 1049.7 622.51 1045.62 626.58"/><polyline class="cls-3" points="1065.61 626.58 1068.31 623.89 1071.01 626.58"/><polyline class="cls-3" points="1073.78 626.58 1069.7 622.5 1075.46 616.74 1075.46 626.58"/><polygon class="cls-3" points="1074.29 615.15 1068.31 621.12 1062.34 615.15 1074.29 615.15"/><polyline class="cls-3" points="1060.23 626.58 1060.23 615.82 1066.93 622.51 1062.85 626.58"/><polyline class="cls-3" points="738.97 626.58 741.67 623.89 744.37 626.58"/><polyline class="cls-3" points="747.14 626.58 743.06 622.5 748.82 616.74 748.82 626.58"/><polygon class="cls-3" points="747.65 615.15 741.67 621.12 735.7 615.15 747.65 615.15"/><polyline class="cls-3" points="733.59 626.58 733.59 615.82 740.29 622.51 736.2 626.58"/><polyline class="cls-3" points="756.2 626.58 758.89 623.89 761.59 626.58"/><polyline class="cls-3" points="764.36 626.58 760.28 622.5 766.04 616.74 766.04 626.58"/><polygon class="cls-3" points="764.87 615.15 758.89 621.12 752.92 615.15 764.87 615.15"/><polyline class="cls-3" points="750.82 626.58 750.82 615.82 757.51 622.51 753.43 626.58"/><polyline class="cls-3" points="773.42 626.58 776.12 623.89 778.82 626.58"/><polyline class="cls-3" points="781.59 626.58 777.5 622.5 783.27 616.74 783.27 626.58"/><polygon class="cls-3" points="782.1 615.15 776.12 621.12 770.14 615.15 782.1 615.15"/><polyline class="cls-3" points="768.04 626.58 768.04 615.82 774.73 622.51 770.65 626.58"/><polyline class="cls-3" points="790.64 626.58 793.34 623.89 796.04 626.58"/><polyline class="cls-3" points="798.81 626.58 794.73 622.5 800.49 616.74 800.49 626.58"/><polygon class="cls-3" points="799.32 615.15 793.34 621.12 787.37 615.15 799.32 615.15"/><polyline class="cls-3" points="785.26 626.58 785.26 615.82 791.96 622.51 787.88 626.58"/><polyline class="cls-3" points="807.87 626.58 810.56 623.89 813.26 626.58"/><polyline class="cls-3" points="816.03 626.58 811.95 622.5 817.72 616.74 817.72 626.58"/><polygon class="cls-3" points="816.54 615.15 810.57 621.12 804.59 615.15 816.54 615.15"/><polyline class="cls-3" points="802.49 626.58 802.49 615.82 809.18 622.51 805.1 626.58"/><polyline class="cls-3" points="825.09 626.58 827.79 623.89 830.49 626.58"/><polyline class="cls-3" points="833.26 626.58 829.18 622.5 834.94 616.74 834.94 626.58"/><polygon class="cls-3" points="833.77 615.15 827.79 621.12 821.82 615.15 833.77 615.15"/><polyline class="cls-3" points="819.71 626.58 819.71 615.82 826.41 622.51 822.32 626.58"/><polyline class="cls-3" points="842.31 626.58 845.01 623.89 847.71 626.58"/><polyline class="cls-3" points="850.48 626.58 846.4 622.5 852.16 616.74 852.16 626.58"/><polygon class="cls-3" points="850.99 615.15 845.01 621.12 839.04 615.15 850.99 615.15"/><polyline class="cls-3" points="836.93 626.58 836.93 615.82 843.63 622.51 839.55 626.58"/><polyline class="cls-3" points="859.54 626.58 862.24 623.89 864.94 626.58"/><polyline class="cls-3" points="867.71 626.58 863.62 622.5 869.39 616.74 869.39 626.58"/><polygon class="cls-3" points="868.22 615.15 862.24 621.12 856.26 615.15 868.22 615.15"/><polyline class="cls-3" points="854.16 626.58 854.16 615.82 860.85 622.51 856.77 626.58"/><polyline class="cls-3" points="876.76 626.58 879.46 623.89 882.16 626.58"/><polyline class="cls-3" points="884.93 626.58 880.85 622.5 886.61 616.74 886.61 626.58"/><polygon class="cls-3" points="885.44 615.15 879.46 621.12 873.49 615.15 885.44 615.15"/><polyline class="cls-3" points="871.38 626.58 871.38 615.82 878.08 622.51 874 626.58"/><polyline class="cls-3" points="893.99 626.58 896.68 623.89 899.38 626.58"/><polyline class="cls-3" points="902.15 626.58 898.07 622.5 903.84 616.74 903.84 626.58"/><polygon class="cls-3" points="902.66 615.15 896.69 621.12 890.71 615.15 902.66 615.15"/><polyline class="cls-3" points="888.61 626.58 888.61 615.82 895.3 622.51 891.22 626.58"/><polyline class="cls-3" points="1232.52 626.58 1235.21 623.89 1237.91 626.58"/><polyline class="cls-3" points="1240.68 626.58 1236.6 622.5 1242.37 616.74 1242.37 626.58"/><polygon class="cls-3" points="1241.19 615.15 1235.22 621.12 1229.24 615.15 1241.19 615.15"/><polyline class="cls-3" points="1227.14 626.58 1227.14 615.82 1233.83 622.51 1229.75 626.58"/><polyline class="cls-3" points="1249.74 626.58 1252.44 623.89 1255.14 626.58"/><polyline class="cls-3" points="1257.91 626.58 1253.83 622.5 1259.59 616.74 1259.59 626.58"/><polygon class="cls-3" points="1258.42 615.15 1252.44 621.12 1246.46 615.15 1258.42 615.15"/><polyline class="cls-3" points="1244.36 626.58 1244.36 615.82 1251.06 622.51 1246.97 626.58"/><polyline class="cls-3" points="1266.96 626.58 1269.66 623.89 1272.36 626.58"/><polyline class="cls-3" points="1275.13 626.58 1271.05 622.5 1276.81 616.74 1276.81 626.58"/><polygon class="cls-3" points="1275.64 615.15 1269.66 621.12 1263.69 615.15 1275.64 615.15"/><polyline class="cls-3" points="1261.58 626.58 1261.58 615.82 1268.28 622.51 1264.2 626.58"/><polyline class="cls-3" points="1284.19 626.58 1286.88 623.89 1289.59 626.58"/><polyline class="cls-3" points="1292.36 626.58 1288.27 622.5 1294.04 616.74 1294.04 626.58"/><polygon class="cls-3" points="1292.86 615.15 1286.89 621.12 1280.91 615.15 1292.86 615.15"/><polyline class="cls-3" points="1278.81 626.58 1278.81 615.82 1285.5 622.51 1281.42 626.58"/><polyline class="cls-3" points="1301.41 626.58 1304.11 623.89 1306.81 626.58"/><polyline class="cls-3" points="1309.58 626.58 1305.5 622.5 1311.26 616.74 1311.26 626.58"/><polygon class="cls-3" points="1310.09 615.15 1304.11 621.12 1298.14 615.15 1310.09 615.15"/><polyline class="cls-3" points="1296.03 626.58 1296.03 615.82 1302.73 622.51 1298.64 626.58"/><polyline class="cls-3" points="1318.63 626.58 1321.33 623.89 1324.03 626.58"/><polyline class="cls-3" points="1326.8 626.58 1322.72 622.5 1328.49 616.74 1328.49 626.58"/><polygon class="cls-3" points="1327.31 615.15 1321.34 621.12 1315.36 615.15 1327.31 615.15"/><polyline class="cls-3" points="1313.26 626.58 1313.26 615.82 1319.95 622.51 1315.87 626.58"/><polyline class="cls-3" points="1335.86 626.58 1338.56 623.89 1341.26 626.58"/><polyline class="cls-3" points="1344.03 626.58 1339.94 622.5 1345.71 616.74 1345.71 626.58"/><polygon class="cls-3" points="1344.54 615.15 1338.56 621.12 1332.58 615.15 1344.54 615.15"/><polyline class="cls-3" points="1330.48 626.58 1330.48 615.82 1337.17 622.51 1333.09 626.58"/><polyline class="cls-3" points="1353.08 626.58 1355.78 623.89 1358.48 626.58"/><polyline class="cls-3" points="1361.25 626.58 1357.17 622.5 1362.93 616.74 1362.93 626.58"/><polygon class="cls-3" points="1361.76 615.15 1355.78 621.12 1349.81 615.15 1361.76 615.15"/><polyline class="cls-3" points="1347.7 626.58 1347.7 615.82 1354.4 622.51 1350.32 626.58"/><polyline class="cls-3" points="1370.31 626.58 1373.01 623.89 1375.7 626.58"/><polyline class="cls-3" points="1378.47 626.58 1374.39 622.5 1380.16 616.74 1380.16 626.58"/><polygon class="cls-3" points="1378.98 615.15 1373.01 621.12 1367.03 615.15 1378.98 615.15"/><polyline class="cls-3" points="1364.93 626.58 1364.93 615.82 1371.62 622.51 1367.54 626.58"/><polyline class="cls-3" points="1387.53 626.58 1390.23 623.89 1392.93 626.58"/><polyline class="cls-3" points="1395.7 626.58 1391.62 622.5 1397.38 616.74 1397.38 626.58"/><polygon class="cls-3" points="1396.21 615.15 1390.23 621.12 1384.26 615.15 1396.21 615.15"/><polyline class="cls-3" points="1382.15 626.58 1382.15 615.82 1388.85 622.51 1384.76 626.58"/><path class="cls-3" d="M1129.81,614.91l-6.5,6.49-4.37-4.36a4,4,0,0,0,1.64-2.13Z"/><path class="cls-3" d="M1138.41,614.91a67.46,67.46,0,0,0,5,5.06l-1.44,1.44-6.5-6.49Z"/><polyline class="cls-3" points="1137.22 629.2 1142.01 624.42 1146.8 629.2"/><path class="cls-3" d="M1149.8,629.19l-6.29-6.28,1.53-1.53c1.53,1.29,3.12,2.5,4.75,3.64v4.17"/><polyline class="cls-3" points="1133.23 629.2 1133.23 615.64 1140.51 622.91 1134.21 629.2"/><path class="cls-3" d="M1095.83,629.2v-9.29a3.47,3.47,0,0,0,3.59-.69l3.7,3.7-6.29,6.29"/><path class="cls-3" d="M1103.51,614.91a23.59,23.59,0,0,0,5.47,1.63l.44.07-4.8,4.8-4.23-4.22c0-.19.1-.36.14-.57l.79-1.47,0-.23Z"/><path class="cls-3" d="M1112.39,629.17l-6.27-6.26,5.79-5.78.47.12v11.92"/><polyline class="cls-3" points="1099.83 629.2 1104.62 624.41 1109.41 629.2"/><path class="cls-3" d="M1114.53,629.2V617.89l.71.25a9.06,9.06,0,0,0,1.58-.21l5,5-6.29,6.29"/><polyline class="cls-3" points="1118.53 629.2 1123.31 624.42 1128.1 629.2"/><polyline class="cls-3" points="1131.09 629.17 1124.82 622.91 1131.09 616.65 1131.09 629.17"/><path class="cls-3" d="M1093.7,629.17l-6.26-6.26,4.77-4.77a13.94,13.94,0,0,0,1.49.9v10.12"/><polyline class="cls-3" points="1081.14 629.2 1085.93 624.42 1090.71 629.2"/><path class="cls-3" d="M1122.49,586.72l-3,.48-1.71-.89-1-1.69c-.31-.55-5.13-5.64-5.13-5.64l1.23-1.41.07-.51-4.84-7s-1.46-4.77-10.68-5.32l-1.21.23.14-1s1.71,0,.95-1.19a15,15,0,0,1,.34-2.56s-.1-4.32-2.07-6.15l-.3-.69s3.08-1.56.85-1.46l-1.47.2s-1.3-3-6.11-3.29c-1.87.29-7.32,3-4.68,9.72-.16.23-1.18,3-.22,2.71a7.4,7.4,0,0,0,1.51-.58l1.34,1.74,1.38,2.4-1.07,1.17s-2.36,1-4.16,1.81-4.9,4.45-5.29,7.4a42.27,42.27,0,0,1-2,7.31s-.67,1.09,2.18,1.33v2.88s-.26,3,1.59,2.82c.81-.16,3.87,2.46,3.87,2.46l.16,4.73s-2.51,5.15,1,6.85a1.24,1.24,0,0,0-.09.19,3.17,3.17,0,0,0,.68,2.83,4.24,4.24,0,0,1,.83,2.65l-.65,1.92,6.32,14.91,60.22.58C1144.92,621.61,1120.42,579.74,1122.49,586.72Zm-34,24.41.76-1.49,1.41,1.49Zm22.36-23-2.1.1-2.29.48.1-.76a21.84,21.84,0,0,0-.62-4.27,4.56,4.56,0,0,1,.27-3l1.45.85,3.72,5.58Zm9.32,23c-1.5-3.75-2.35-5.38-2.35-5.38a12.63,12.63,0,0,0-5.54-5.64s1.68-.89,1.84-2a10.15,10.15,0,0,0-.07-2.5l1.69-1,.57-.31.65,0a2.76,2.76,0,0,0,1.72,1.78c1.4.44,3.48-.59,3.51-1.76a10.39,10.39,0,0,0-.14-2l-1.26-1.34a1.52,1.52,0,0,1,1.09-.38,17.5,17.5,0,0,0,2.13-.32,73.2,73.2,0,0,0,11.19,20.85Z"/><polygon class="cls-3" points="1091.65 614.91 1091.75 615.59 1085.93 621.4 1079.43 614.91 1091.65 614.91"/><polyline class="cls-3" points="1077.14 629.2 1077.14 615.64 1084.42 622.91 1078.13 629.2"/><line class="cls-3" x1="1075" y1="629.17" x2="1068.73" y2="622.91"/><path class="cls-3" d="M500.39,626.87H527.8V582.64a2.74,2.74,0,0,1,.42.3l.84,1.69-1,1.24,1.93,1.8-.5.88s-.18.43.25.5a10.2,10.2,0,0,1,2.05,1.49,2.46,2.46,0,0,1,1,.87,23.51,23.51,0,0,0,1.81,2.24s.75.62,1.18.13a13.19,13.19,0,0,1,2-1.43l1.07-.75a2.2,2.2,0,0,0,1.3.68s.94,2.62,1.62,4.24,1.69,1.56,1.69,2.43-.75,3.3.81,3.74l-1.62,1.68a3.9,3.9,0,0,0-.69,2.06v1.12l-2.11,2.87-.57.94a2.82,2.82,0,0,0-1.18,1.74c-.13.75-.37.87-.37.87s-.75,1.75-1.12,2.49-2.68,4-2.68,4l-1.18,2.37-1.06.56s-1.12,1.19-1.06,1.93l-.32.13a2.18,2.18,0,0,0-2.11.81,5.92,5.92,0,0,0-.33.63h9.29l2.07-2.07,3.68-4.61a10.4,10.4,0,0,0,2.18,1.87l-.31,1.19s-1.12.55-1.37,1.06c-.5,0-2.86-.25-3.49.81-.06.62-.13,1.37-.13,1.37a.62.62,0,0,0,.14.39h12.85a1.43,1.43,0,0,0,0-.63,11.82,11.82,0,0,0-.56-2.18,19.52,19.52,0,0,0-1.06-3.25c-.31-.31-.25-1.23-.25-1.23a2.2,2.2,0,0,0-.31-2.37,17.4,17.4,0,0,1-.49-3.8s1-1.25,2.18-2.5,3.62-3.73,6.17-4.55c1.75-.31,5.61-2.06,6.42-6-.05-2.62-.31-5.67-.31-5.67a4.44,4.44,0,0,0-.74-1.94,35.81,35.81,0,0,1-1.62-3.61s-.19-1.37-.81-1.5c-.68-.31-.75-1.31-.93-1.44s-.75-.75-1.06-.93-1.24-.88-1.24-.88-1.81-1.67-2.31-2.18-2.37-2.49-2.37-2.49a8.77,8.77,0,0,0-2.69-1.56,26.91,26.91,0,0,0-3.12-1.93,3.55,3.55,0,0,1-1.31-.81,4.22,4.22,0,0,0-1.37-.44c-.68-.06-.5-1.42-.5-1.42a25.08,25.08,0,0,0-.5-3.12s1-2-.93-2.19c-.62-.68-1.69-2.55-6.18-2-.87.25-4.55,1.93-3.93,7.23a16.89,16.89,0,0,0,.56,1.81s-1.49,1.93-.87,2.43a4.65,4.65,0,0,0,3,.43l.31.74.12.57a.3.3,0,0,0,.53,0l.22-.18.34.59a6.88,6.88,0,0,0-.71,1.68c-.06.53-.6,2.3-.6,2.3s-.74,2-1.24,1.83a8.8,8.8,0,0,1-2.56-2.39,18.15,18.15,0,0,0-1.78-2.16,8.64,8.64,0,0,0-.31-2.36c-.06-.63.31-1.09-1-2-.34-.09-1.4-.19-1.21.43h-.05v-12a81.76,81.76,0,0,1,.94-12.76"/><rect class="cls-1" x="191.51" y="571.55" width="6.82" height="9.99"/><rect class="cls-1" x="191.51" y="582.67" width="6.82" height="1.14"/><rect class="cls-1" x="191.51" y="584.92" width="6.82" height="9.99"/><rect class="cls-1" x="191.51" y="609.37" width="6.82" height="1.15"/><rect class="cls-1" x="191.51" y="596.02" width="6.82" height="1.15"/><rect class="cls-1" x="191.51" y="569.29" width="6.82" height="1.15"/><rect class="cls-1" x="191.51" y="598.28" width="6.82" height="9.99"/><path class="cls-1" d="M235.37,600.57h4.35l.32-1.16h-4.67Z"/><rect class="cls-1" x="191.51" y="611.63" width="6.82" height="9.99"/><path class="cls-1" d="M241.82,586.05h-6.44v1.15h6.36C241.76,586.82,241.78,586.44,241.82,586.05Z"/><polygon class="cls-1" points="215.57 372.83 213.09 374.76 212.27 376.95 212.97 380.37 216.54 377.8 215.57 372.83"/><path class="cls-1" d="M241.66,590.47c0-.52,0-1.29,0-2.15h-6.31v10h5a22.78,22.78,0,0,1,1.12-3.15S241.66,592.14,241.66,590.47Z"/><path class="cls-1" d="M235.37,611.67H237c.25-1.07.5-2.13.68-2.84.28-1.08,1-4.14,1.79-7.16h-4.05Z"/><path class="cls-1" d="M235.37,619.78a1.33,1.33,0,0,0,.08-.15c.09-.28.52-3.76.52-3.76l.19-.83h-.79Z"/><path class="cls-1" d="M235.37,613.92h1.05l.27-1.15h-1.32Z"/><polygon class="cls-1" points="214.7 370.44 215.06 370.19 214.97 369.75 214.7 370.44"/><polygon class="cls-1" points="221.01 353.62 217.46 363.11 218.61 369.43 218.34 367.88 223.25 363.89 225.03 358.5 223.35 351.09 221.01 353.62"/><polygon class="cls-1" points="219.6 374.92 221.62 368.83 218.85 370.78 219.6 374.92"/><polygon class="cls-1" points="226.41 347.8 227.4 351.37 228.71 347.38 227.22 346.93 226.41 347.8"/><polygon class="cls-1" points="222.4 346.84 221.25 349.21 221.9 348.61 222.46 347.13 222.4 346.84"/><path class="cls-1" d="M235.37,584.94h6.57a13.11,13.11,0,0,1,.25-1.33v-.91l-.54.17.54-1.46v-6.46h-6.82Z"/><rect class="cls-1" x="191.51" y="622.75" width="6.82" height="1.14"/><polygon class="cls-1" points="214.85 389.45 217.62 381.4 213.66 383.72 214.85 389.45"/><polygon class="cls-1" points="216.6 358.39 217.13 361.31 219.34 355.44 216.6 358.39"/><path class="cls-1" d="M131.32,585.5l-3.9,9.31,1.2-.44,5-5.63,7.25-14.14Z"/><polygon class="cls-1" points="225.66 345.05 231.42 339.6 239.88 313.82 236.93 311.72 238.62 312.93 227.81 335.55 225.06 342.85 225.66 345.05"/><path class="cls-1" d="M158.38,487.61l-1.94-1.14-20.22,23.68c1.21,1.24,2,2.63,1.33,3.84h.08l-.19.21a2.12,2.12,0,0,1-.26.35h-.08l-13,13.49,13,25.87Z"/><rect class="cls-1" x="191.51" y="625" width="6.82" height="0.12"/><path class="cls-1" d="M132.17,507.33l.1,0,21-24.4s-2.47-6.09,4.75-6.94a3.88,3.88,0,0,1,3.7,1.26l32.9-82.82.51.2.82-2.36-.33-.14,25.68-57L82.86,519.69a7.2,7.2,0,0,1,.52.8l29.45-.34a30.65,30.65,0,0,1,3.11.78c6.3-7,11.49-12.82,12.14-13.55C128.48,506.85,129.54,506.19,132.17,507.33Z"/><path class="cls-1" d="M227.5,321.33,79.95,517.75a4.19,4.19,0,0,1,2.3,1.21L223,331.23Z"/><path class="cls-1" d="M241.72,623.19c-.4.24-1,.86-1,1.06s0,.44,0,.78h1.45v-2.32A2.59,2.59,0,0,1,241.72,623.19Z"/><rect class="cls-1" x="278.86" y="528.64" width="6.82" height="10"/><rect class="cls-1" x="278.86" y="542" width="6.82" height="9.99"/><rect class="cls-1" x="278.86" y="539.74" width="6.82" height="1.15"/><path class="cls-1" d="M278.86,554.25h.29c.16-.25.56-.46,1.57-.26a.89.89,0,0,1,.3.26h4.67v-1.15h-6.82Z"/><path class="cls-1" d="M281.5,558.49s-.25,1.79-.25,2.25l.43.76s-.18.94-.43,2.44a6,6,0,0,1-.53,1.42h5v-10h-4.21A6.77,6.77,0,0,1,281.5,558.49Z"/><rect class="cls-1" x="278.86" y="568.73" width="6.82" height="9.99"/><path class="cls-1" d="M279.42,567.61h6.26v-1.15h-5.56C279.87,566.89,279.63,567.29,279.42,567.61Z"/><path class="cls-1" d="M457,617.11c-1.31-1.12-2.57-2.3-3.78-3.51h-4.3l5.8,5.79Z"/><polygon class="cls-1" points="334.89 625.12 340.96 625.12 337.93 622.08 334.89 625.12"/><path class="cls-1" d="M341,619l-1.74,1.74,4.38,4.38h2.11v-.71a31.16,31.16,0,0,1-2.37-2.3A30.46,30.46,0,0,1,341,619Z"/><rect class="cls-1" x="278.86" y="579.83" width="6.82" height="1.15"/><path class="cls-1" d="M340,617.33A37.46,37.46,0,0,1,338,613.6h-5.92l5.8,5.79Z"/><rect class="cls-1" x="278.86" y="526.39" width="6.82" height="1.14"/><polygon class="cls-1" points="330.99 615.15 330.99 625.12 332.19 625.12 336.58 620.74 330.99 615.15"/><rect class="cls-1" x="235.37" y="545.97" width="6.82" height="1.14"/><rect class="cls-1" x="235.37" y="572.69" width="6.82" height="1.14"/><rect class="cls-1" x="278.86" y="582.09" width="6.82" height="9.99"/><path class="cls-1" d="M275.65,569.93c-2.27-.93-5.85-2.34-5.85-2.34l-1.49,6.65a34.88,34.88,0,0,0-2,10.22,29.9,29.9,0,0,0,1.75,4.12s.26,2-1.57,1.59l3,6.1a12.38,12.38,0,0,1,1.14,3.38c0,1-.26,4.12-.26,4.12a26.47,26.47,0,0,0-.17,3.66c.08,1.4.25,5.71-.53,8.07-.15,1.56.2,3.87-.56,4.55l-.76.19.58,3a5.26,5.26,0,0,0,1.22.51c.27,0,2.4-.4,2.65,1.37h4.74v-2.94h-1.23v-1.12h1.23v-1.14h-1.23V618.8h1.23v-10h-1.23V607.7h1.23v-1.15h-1.23v-1.11h1.23v-10h-1.23v-1.11h1.23v-1.15h-1.23v-1.11h1.23v-10h-1.23V581h1.23v-1.15h-1.23v-1.1h1.23V569.9A2.17,2.17,0,0,1,275.65,569.93Z"/><path class="cls-1" d="M257.57,602.5c-.59-1.19-2-4.58-2-4.58s-.12-.11-.58.58a49.17,49.17,0,0,1-3.73,5.31c-.93,1.51-2.68,4.19-3.15,6.38s-3.73,9.25-3.73,9.25-.51.82-.87,1.41V625h1.79v.09H260c.11-.52.21-.93.21-.93l.18-2.45a5.43,5.43,0,0,1,0-1.63c.1-1.11.34-2.8.34-3.93s-.81-5.88-1-7.88C259,607,258.14,603.68,257.57,602.5Z"/><rect class="cls-1" x="235.37" y="548.23" width="6.82" height="9.98"/><rect class="cls-1" x="235.37" y="561.59" width="6.82" height="9.99"/><rect class="cls-1" x="235.37" y="559.33" width="6.82" height="1.14"/><path class="cls-1" d="M243.47,574.95v3c.37-1,.76-2,1.15-3Z"/><rect class="cls-1" x="278.86" y="606.56" width="6.82" height="1.15"/><rect class="cls-1" x="278.86" y="595.45" width="6.82" height="9.99"/><rect class="cls-1" x="278.86" y="593.19" width="6.82" height="1.15"/><rect class="cls-1" x="278.86" y="622.18" width="6.82" height="2.94"/><rect class="cls-1" x="278.86" y="619.92" width="6.82" height="1.14"/><rect class="cls-1" x="278.86" y="608.82" width="6.82" height="9.98"/><polygon class="cls-1" points="185.15 446.55 183.91 447.27 184.37 448.64 185.15 446.55"/><path class="cls-1" d="M267.88,414.88a2.63,2.63,0,0,1,2.36-1.15,2.51,2.51,0,0,1,.45,0l.23-.09a5.31,5.31,0,0,1,1.38-2.45l0,0,1.31-.69.22-.44-9.95-5.2h0a2.37,2.37,0,0,1-.88,0l-18.18,13.21,22.37-1.64A5.4,5.4,0,0,1,267.88,414.88Z"/><path class="cls-1" d="M282.56,414.62l-1.15-.6-1.48,1.47,2.57-.19v0S282.52,415,282.56,414.62Z"/><polygon class="cls-1" points="1528.12 282.88 1530.44 267.77 1521.73 274.17 1528.12 282.88"/><path class="cls-1" d="M275.89,468.71c-7.26,6.41-17.17,1.26-17.17,1.26l.81-9.18-18.08-15.43,2.61,35.5,47.83-3.51-2.49-33.89L275,460.33Z"/><polygon class="cls-1" points="1532.5 269.17 1530.5 282.17 1538.01 276.67 1532.5 269.17"/><polygon class="cls-1" points="153.65 521.32 153.53 526.47 156.69 524.58 157.86 521.7 156.65 513.65 153.65 521.32"/><path class="cls-1" d="M1753.6,552.23a14.8,14.8,0,0,1,1.25-1.92l-4.7.83A14.3,14.3,0,0,1,1753.6,552.23Z"/><path class="cls-1" d="M151.83,597.19l-3.6-.63a11.08,11.08,0,0,1,1,1.47A10.69,10.69,0,0,1,151.83,597.19Z"/><path class="cls-1" d="M46.47,538.64c-.15-1.2.7-2.5,1-3.7s-1-2.36-1-2.36v-13a27.65,27.65,0,0,0-.56-5.78,16.75,16.75,0,0,1-2-5.13c-.42-4.87-.56-8.29-.56-8.29s-2.94-7-3.51-8.43-.56-2-1.26-2.24c-1.26-.13-1.83,2.5-1.83,2.5s-.28,5.93-.28,7-2,5-2,6.18A41.26,41.26,0,0,1,33,511.25L32.44,523a50.08,50.08,0,0,0,.13,6.18,6,6,0,0,1-.65,3l4.66,3a4.21,4.21,0,0,1,1.53,2.58c.16.92.63,3.2,1,5.09l8.42-.54-.11-.91A9.91,9.91,0,0,1,46.47,538.64Z"/><polygon class="cls-1" points="139.35 557.74 141.63 561.79 149.88 541.39 150.07 532.1 149.25 532.53 139.35 557.74"/><polygon class="cls-1" points="153.39 532.72 154.63 529.68 153.44 530.31 153.39 532.72"/><path class="cls-1" d="M31.56,537.36s0,.06,0,.09c.28.93-.55,2.91-.55,2.91v3l4-.26-.64-3.82Z"/><path class="cls-1" d="M286.65,407.64l-2.75,3.44,2.36,1.23.9,0a5.16,5.16,0,0,1,1.67-1.27l.33-1.26A12.93,12.93,0,0,1,286.65,407.64Z"/><path class="cls-1" d="M265.42,393.57l1,6.25c0,.12.1.38.15.73a7.85,7.85,0,0,1,.06,1.55l9,4.7c.87-1.23,2.51-3.58,2.84-4.24.46-.94,1.4-3.13,1.41-3.13l0-.07.05,0h0a.5.5,0,0,0,.09-.11,2.37,2.37,0,0,0,.27-.83,3.71,3.71,0,0,1,1.54-2.31l.7-1.16,2.64-3.56V390a5.07,5.07,0,0,1,.92-2.73l1.84-1.91a2.28,2.28,0,0,1-1.1-2.29c0-1,.23-2,.23-2.51s-.24-.67-.67-1.07a5.18,5.18,0,0,1-1.43-1.93c-.78-1.83-1.8-4.65-2-5.24a3,3,0,0,1-1.53-.8l-1.22.87s-.49.29-1,.66a8.69,8.69,0,0,0-1.44,1.1.89.89,0,0,1-.69.32A2.06,2.06,0,0,1,276,374a33.39,33.39,0,0,1-2.31-2.87,2.39,2.39,0,0,0-.72-.75,2.44,2.44,0,0,0-.45-.27h0l0,0s-.51-.45-1.09-.91a5.67,5.67,0,0,0-1.42-.94.56.56,0,0,1-.53-.57.94.94,0,0,1,.07-.35l.56-1L267.62,364l1.26-1.62c-.08-.19-.33-.68-1-2a2.08,2.08,0,0,0-1.26-.58l-.09,0,3.77,22.49-5.7,1L266,393.48Z"/><polygon class="cls-1" points="251.12 298.18 250.98 298.62 251.22 299.11 251.12 298.18"/><polygon class="cls-1" points="1539.33 278.47 1531.56 284.17 1541.74 285.73 1540.46 280 1539.33 278.47"/><polygon class="cls-1" points="1474.27 260.22 1472.27 273.24 1479.78 267.73 1474.27 260.22"/><polygon class="cls-1" points="1509.25 263.33 1494.94 261.13 1501 269.38 1509.25 263.33"/><polygon class="cls-1" points="1489.86 260.35 1475.52 258.15 1481.59 266.41 1489.86 260.35"/><polygon class="cls-1" points="1528.67 266.31 1514.35 264.11 1520.41 272.37 1528.67 266.31"/><polygon class="cls-1" points="1537.71 267.7 1533.75 267.09 1539.25 274.58 1537.71 267.7"/><path class="cls-1" d="M394.11,608.22l-.11-.9-.55.07a26.16,26.16,0,0,1-6.52,2.14,25.32,25.32,0,0,0-3.33.7h7.22a37.17,37.17,0,0,0,3.92-.82Z"/><path class="cls-1" d="M387.13,583l2.14.45-.09-.71a20.41,20.41,0,0,1,.57-4,4.24,4.24,0,0,0-.25-2.78l-1.36.79L384.67,582l.49.92Z"/><polygon class="cls-1" points="1473.34 275.23 1486.8 277.3 1481.11 269.54 1473.34 275.23"/><polygon class="cls-1" points="1492.74 278.21 1506.21 280.27 1500.51 272.52 1492.74 278.21"/><polygon class="cls-1" points="1508.72 279.9 1511.04 264.8 1502.32 271.19 1508.72 279.9"/><polygon class="cls-1" points="1513.09 266.19 1511.09 279.2 1518.6 273.69 1513.09 266.19"/><polygon class="cls-1" points="1493.68 263.22 1491.68 276.22 1499.19 270.71 1493.68 263.22"/><polygon class="cls-1" points="1512.16 281.19 1525.63 283.26 1519.92 275.49 1512.16 281.19"/><polygon class="cls-1" points="1489.31 276.92 1491.64 261.82 1482.92 268.21 1489.31 276.92"/><polygon class="cls-1" points="175.78 463.55 173.51 469.64 174.76 473.85 174.95 473.75 179.64 461.24 175.78 463.55"/><polygon class="cls-1" points="196.44 416.47 197.42 413.84 195.96 414.75 196.44 416.47"/><polygon class="cls-1" points="196.86 417.99 197.72 421.07 201.16 418.87 199.46 412.57 198.73 413.02 196.86 417.99"/><polygon class="cls-1" points="191.1 450.95 194.98 440.82 189.13 444.23 191.1 450.95"/><polygon class="cls-1" points="200.74 405 202.74 399.67 198.84 398.26 200.74 405"/><polygon class="cls-1" points="205.19 393.13 207.32 387.47 200.82 391.31 205.19 393.13"/><polygon class="cls-1" points="193.33 427.4 188.21 441.06 188.33 441.46 196.51 436.85 198.16 432.5 196.13 425.57 193.33 427.4"/><polygon class="cls-1" points="195.08 422.76 195.28 422.64 195.21 422.42 195.08 422.76"/><polygon class="cls-1" points="209.93 380.5 209.35 377.65 208.7 378.16 204.95 386.14 208.88 383.31 209.93 380.5"/><polygon class="cls-1" points="208.59 386.73 206.06 393.5 212.52 396.21 212.9 395.15 210.91 385.36 208.59 386.73"/><polygon class="cls-1" points="201.17 406.52 201.58 407.94 210.11 402.67 210.24 402.35 203.63 399.98 201.17 406.52"/><polygon class="cls-1" points="162.58 486.4 157.69 499.5 157.93 500.92 158.5 500.61 163.67 486.93 162.58 486.4"/><polygon class="cls-1" points="210.25 382.33 210.29 382.29 210.28 382.23 210.25 382.33"/><polygon class="cls-1" points="198.53 424.01 199.74 428.39 202.08 422.31 201.94 421.78 198.53 424.01"/><polygon class="cls-1" points="204.25 417.38 208.38 406.99 202.38 410.75 204.25 417.38"/><polygon class="cls-1" points="195.41 411.75 198.7 409.72 197.72 406.09 195.41 411.75"/><polygon class="cls-1" points="182.94 444.38 182.98 444.48 184.85 443.43 184.2 441.04 182.94 444.38"/><polygon class="cls-1" points="214.63 368 214.28 366.29 211.35 372.53 211.41 372.85 213.32 371.44 214.63 368"/><polygon class="cls-1" points="443.83 613.6 432.23 613.6 438.03 619.39 443.83 613.6"/><polygon class="cls-1" points="170.1 482.99 174.56 484.93 172.5 478.24 170.1 482.99"/><polygon class="cls-1" points="159.04 507.58 160.85 518.37 171.93 496.1 160.98 502.62 159.04 507.58"/><polygon class="cls-1" points="183.4 455.66 183.09 454.69 182.55 456.14 183.4 455.66"/><polygon class="cls-1" points="187.11 456.77 187.77 458.77 188.47 456.9 188.25 456.08 187.11 456.77"/><polygon class="cls-1" points="162.69 498.25 173.86 492.02 166.57 488.38 162.69 498.25"/><polygon class="cls-1" points="187.77 439.56 192 428.28 185.68 432.4 187.77 439.56"/><polygon class="cls-1" points="194.77 420.92 193.47 416.51 189.44 426.37 193.76 423.6 194.77 420.92"/><polygon class="cls-1" points="185.89 447.27 184.85 450.03 186.19 454.09 187.51 453.34 185.89 447.27"/><polygon class="cls-1" points="180.93 460.47 176.24 472.95 184.28 468.01 185.97 463.57 184.31 458.45 180.93 460.47"/><polygon class="cls-1" points="177.99 484.67 182.48 472.79 175.65 476.83 177.99 484.67"/><polygon class="cls-1" points="177.48 459 181.28 456.85 182.63 453.27 181.24 448.96 177.48 459"/><path class="cls-1" d="M1769.37,442.77a2.89,2.89,0,0,1-.34-.45l-.26-.26h.1c-.83-1.59.17-3.42,1.75-5.06l-26.51-31-2.54,1.5,27.89,86.91,17.09-33.92-17.07-17.69Z"/><polygon class="cls-1" points="1660.56 286.56 1650.2 284.97 1656.27 293.23 1661.47 289.41 1660.56 286.56"/><polygon class="cls-1" points="1657.2 303.46 1661.48 304.11 1658.89 300.58 1657.2 303.46"/><polygon class="cls-1" points="1663.33 295.24 1662.88 293.82 1660.13 298.49 1663.99 303.75 1664.78 298.61 1664.51 297.95 1664.93 297.64 1664.98 297.31 1664.08 294.7 1663.33 295.24"/><polygon class="cls-1" points="1641.66 296.8 1645.31 295.99 1646.9 285.66 1638.18 292.05 1641.66 296.8"/><polygon class="cls-1" points="1647.65 295.47 1654.08 294.03 1648.95 287.05 1647.65 295.47"/><polygon class="cls-1" points="1628.61 299.07 1631.8 299.56 1632.14 298.93 1639.28 297.33 1636.38 293.37 1628.61 299.07"/><polygon class="cls-1" points="1666.35 303.04 1666.51 302.93 1666.41 302.69 1666.35 303.04"/><polygon class="cls-1" points="1669.85 259.55 1666.6 257.02 1665.32 263.53 1670.01 266.9 1670.94 262.42 1669.85 259.55"/><polygon class="cls-1" points="1681.44 315.41 1682.59 311.37 1679.65 310.92 1681.44 315.41"/><polygon class="cls-1" points="1677.84 302.94 1676.01 301.8 1677.94 306.64 1680.89 307.09 1677.84 302.94"/><polygon class="cls-1" points="1683.39 306.73 1683.44 306.43 1682.95 306.12 1683.39 306.73"/><polygon class="cls-1" points="1679.07 284.11 1675.75 275.23 1672.7 273.45 1670.55 284.07 1676.86 285.04 1679.07 284.11"/><polygon class="cls-1" points="1674.95 295.22 1675.67 296.21 1678.99 293.78 1674.95 295.22"/><polygon class="cls-1" points="1682.72 293.81 1677 298.01 1677.17 298.25 1684.04 302.49 1684.61 298.84 1682.72 293.81"/><polygon class="cls-1" points="1667.55 278.81 1669.1 271.31 1663.92 268.25 1667.55 278.81"/><line class="cls-1" x1="1629.83" y1="303.27" x2="1571.42" y2="294.31"/><polygon class="cls-1" points="1588.72 291.12 1596.23 285.61 1590.73 278.11 1588.72 291.12"/><path class="cls-1" d="M1599.68,293.35a8.64,8.64,0,0,1,.22-1l.24-1.46-2.58-3.51-7.77,5.69,9.76,1.5A10.92,10.92,0,0,1,1599.68,293.35Z"/><polygon class="cls-1" points="1578.15 284.44 1570.47 290.06 1570.49 290.15 1583.85 292.19 1578.15 284.44"/><path class="cls-1" d="M1602.09,293.74A7.73,7.73,0,0,0,1602,295l1.25.19-1.14-1.55Z"/><path class="cls-1" d="M1594.4,279.32a1.16,1.16,0,0,1-.15-.73,9.34,9.34,0,0,1,.58-2.13L1592,276Z"/><polygon class="cls-1" points="1601.16 284.77 1599.36 286.09 1600.65 287.84 1601.16 284.77"/><path class="cls-1" d="M1588.5,249.4v1.25l2.35,3.18.63,1a3.15,3.15,0,0,1,1.31,1.94c.14.83.41,1,.41,1s.83,1.94,1.26,2.77c.19.38.84,1.36,1.49,2.29l5.43-32.33,2.41.4,1.36-8.15a1.79,1.79,0,0,0-1.35.56l-.93,1.87,1.06,1.39-2.14,2,.56,1s.21.48-.27.55a11.16,11.16,0,0,0-2.29,1.66,2.67,2.67,0,0,0-1.11,1,27.14,27.14,0,0,1-2,2.49s-.82.7-1.31.14a14.58,14.58,0,0,0-2.22-1.59l-1.18-.83a2.44,2.44,0,0,1-1.45.76s-1,2.91-1.8,4.7-1.87,1.73-1.87,2.69.83,3.67-.9,4.16l1.8,1.86A4.35,4.35,0,0,1,1588.5,249.4Z"/><path class="cls-1" d="M1600.7,282.33l.33-2.4a12.24,12.24,0,0,0-1.24.11l-3.19.28a3.56,3.56,0,0,1-2-.68l3.41,4.65Z"/><polygon class="cls-1" points="1566.46 272.11 1566.64 272.89 1567.49 272.27 1566.46 272.11"/><polygon class="cls-1" points="1568.27 280.19 1569.26 273.74 1567.17 275.27 1568.27 280.19"/><polygon class="cls-1" points="1571.31 275.14 1569.61 286.19 1569.94 287.67 1576.82 282.63 1571.31 275.14"/><polygon class="cls-1" points="1586.89 275.25 1572.57 273.05 1578.63 281.3 1586.89 275.25"/><polygon class="cls-1" points="1586.35 291.81 1588.68 276.72 1579.96 283.11 1586.35 291.81"/><path class="cls-1" d="M1586.91,269.25c.56,0,3.19-.28,3.88.9.07.69.14,1.53.14,1.53a.85.85,0,0,1,0,.16l3.18.49-2.52-2.52-4.08-5.12a11.62,11.62,0,0,1-2.43,2.07l.35,1.31S1586.64,268.7,1586.91,269.25Z"/><path class="cls-1" d="M1912.66,383.82a2.08,2.08,0,0,0,0-1.81c-.22-.5-.77-3.33-.77-3.33-.55.9-2.44,1.41-2.44,1.41v1a12,12,0,0,1-.55,2.72l2.76.2S1912.33,384.22,1912.66,383.82Z"/><path class="cls-1" d="M1724.62,313.81h.06l-.6,3.93-18.26-2.8,31.39,79a5.12,5.12,0,0,1,4.85-1.64c9.48,1.11,6.23,9.1,6.23,9.1l27.49,32,.13-.07c3.47-1.5,4.85-.62,5.38.07.86.95,7.65,8.55,15.91,17.76a38.93,38.93,0,0,1,4.08-1l38.61.45a9.5,9.5,0,0,1,.68-1L1727,298.15Z"/><path class="cls-1" d="M1656.81,202.5l67.36,89.81,3.72.57-.56,3.65,114,152.05a5.58,5.58,0,0,1,3-1.6L1651,189.5Z"/><path class="cls-1" d="M1764.53,521.51l9.5,18.54,6.56,7.39,1.56.57L1777,535.8Z"/><path class="cls-1" d="M1885.54,412.55a.12.12,0,0,0,0-.09C1885.52,412.55,1885.54,412.6,1885.54,412.55Z"/><polygon class="cls-1" points="1747.78 451.67 1743.83 441.62 1742.25 452.18 1743.78 455.93 1747.93 458.42 1747.78 451.67"/><polygon class="cls-1" points="1753.55 466.37 1752.47 465.8 1752.71 478 1763.53 504.72 1766.52 499.4 1753.55 466.37"/><polygon class="cls-1" points="1746.49 462.63 1748.11 466.63 1748.04 463.44 1746.49 462.63"/><path class="cls-1" d="M1604.28,284.71l-.6-.1-1,6,2.7,3.68.47,0,2.2-14.34-.37,0-3,2.18Z"/><polygon class="cls-1" points="427.14 613.6 415.55 613.6 421.35 619.39 427.14 613.6"/><path class="cls-1" d="M1885.31,398.74a19.48,19.48,0,0,1-2.54,2.82l-1.56-.31.11,2.62s1.21,6.06,1.88,6.76a3.66,3.66,0,0,0,1.21.9,4.32,4.32,0,0,1,1.08.92,10.77,10.77,0,0,1-.08-3.44,7,7,0,0,0,.78-2.43,34.71,34.71,0,0,0,.45-8.46S1885.54,398.14,1885.31,398.74Z"/><polygon class="cls-1" points="1684.3 321.89 1687.34 329.86 1688.94 324.1 1684.48 321.19 1684.3 321.89"/><polygon class="cls-1" points="1903.48 480.25 1903.48 478.68 1903.22 480.23 1903.48 480.25"/><path class="cls-1" d="M1902.27,462.32l-.48-10.33a37.16,37.16,0,0,1-1.32-5.23c0-1-1.68-4.53-1.68-5.46s-.24-6.16-.24-6.16-.48-2.32-1.56-2.2c-.6.23-.6.7-1.09,2s-3,7.44-3,7.44-.1,3-.48,7.3a14.66,14.66,0,0,1-1.68,4.53,25.85,25.85,0,0,0-.48,5.11v11.5s-1.09,1.05-.85,2.09,1,2.2.85,3.26a9.17,9.17,0,0,1-.85,2.42l-.1.77,8.56.55c.53-2.48,1.15-5.49,1.37-6.69a5.54,5.54,0,0,1,2-3.39l1-.67a3.08,3.08,0,0,1-.11-1.37A47.22,47.22,0,0,0,1902.27,462.32Z"/><polygon class="cls-1" points="1736.07 405.88 1734.64 406.59 1741.41 424.51 1742.17 424.94 1742.48 423.07 1736.07 405.88"/><polygon class="cls-1" points="1708.76 365.6 1709.9 366.23 1709.18 364.34 1708.76 365.6"/><polygon class="cls-1" points="1716.52 369.97 1711.61 356.83 1709.78 362.47 1711.55 367.17 1716.52 369.97"/><polygon class="cls-1" points="1705.52 354.6 1703.38 362.56 1705.11 363.54 1706.88 358.23 1705.52 354.6"/><polygon class="cls-1" points="1702.47 346.45 1695.75 328.56 1692.08 326.16 1689.41 335.25 1691.59 340.94 1702.31 346.98 1702.47 346.45"/><polygon class="cls-1" points="1702.11 367.24 1703.05 369.69 1703.92 367.06 1702.41 366.15 1702.11 367.24"/><polygon class="cls-1" points="1706.88 349.56 1709.32 350.94 1709.36 350.81 1707.73 346.43 1706.88 349.56"/><polygon class="cls-1" points="1698.67 359.43 1701.25 350.62 1693.59 346.15 1698.67 359.43"/><polygon class="cls-1" points="1730.82 408.49 1721.28 413.26 1735.92 421.44 1730.82 408.49"/><polygon class="cls-1" points="1718.77 375.95 1713.7 372.91 1719.86 389.31 1720.09 389.45 1721.74 383.92 1718.77 375.95"/><polygon class="cls-1" points="1723.06 395.2 1720.36 403.97 1726.21 401.42 1723.06 395.2"/><polygon class="cls-1" points="1723.81 418.61 1738.33 447.79 1740.71 433.66 1738.15 427.17 1723.81 418.61"/><polygon class="cls-1" points="1715.87 403.64 1718.93 393.34 1709.99 388.06 1715.87 403.64"/><polygon class="cls-1" points="1712.01 371.9 1707.58 369.25 1705.41 375.97 1707.62 381.8 1718.15 388.26 1712.01 371.9"/><polygon class="cls-1" points="1707.5 356.39 1708.11 354.6 1706.47 353.66 1707.5 356.39"/><polygon class="cls-1" points="1714.84 302.21 1723.09 296.16 1708.77 293.96 1714.84 302.21"/><rect class="cls-1" x="1669.57" y="581.9" width="5.98" height="8.77"/><rect class="cls-1" x="1669.57" y="593.62" width="5.98" height="7.17"/><rect class="cls-1" x="1669.57" y="591.64" width="5.98" height="1.01"/><rect class="cls-1" x="1620.55" y="579.92" width="5.98" height="1.01"/><rect class="cls-1" x="1620.55" y="593.62" width="5.98" height="7.17"/><rect class="cls-1" x="1620.55" y="591.64" width="5.98" height="1.01"/><rect class="cls-1" x="1620.55" y="581.9" width="5.98" height="8.77"/><polygon class="cls-1" points="1698.54 296.64 1703.34 293.12 1696.75 292.11 1698.54 296.64"/><polygon class="cls-1" points="1621.98 165.41 1619.35 164.56 1612.63 220.6 1615.97 221.18 1614.01 232.93 1618.3 233.85 1611.42 272.27 1606.51 271.45 1606.05 274.17 1659.22 282.33 1621.98 165.41"/><path class="cls-1" d="M468.36,625.12h.55l-.35-.19Z"/><polygon class="cls-1" points="1620 159.15 1619.86 160.38 1620.19 159.75 1620 159.15"/><polygon class="cls-1" points="1651.11 228.89 1652.38 224.21 1651.34 223.05 1649.38 223.66 1651.11 228.89"/><rect class="cls-1" x="1669.57" y="579.92" width="5.98" height="1.01"/><polygon class="cls-1" points="1653.38 220.6 1654.16 217.73 1650.57 208.15 1636.38 178.5 1634.72 179.67 1645.82 213.47 1653.38 220.6"/><polygon class="cls-1" points="410.46 613.6 398.86 613.6 404.66 619.39 410.46 613.6"/><polygon class="cls-1" points="410.38 625.12 412.51 625.12 412.51 614.24 406 620.74 410.38 625.12"/><polygon class="cls-1" points="401.62 625.12 407.7 625.12 404.66 622.08 401.62 625.12"/><polygon class="cls-1" points="418.31 625.12 424.39 625.12 421.35 622.08 418.31 625.12"/><polygon class="cls-1" points="414.4 615.14 414.4 625.12 415.62 625.12 420 620.74 414.4 615.14"/><polygon class="cls-1" points="1627.5 282.66 1618.77 289.06 1625.17 297.78 1627.5 282.66"/><polygon class="cls-1" points="1705.12 294.6 1699.4 298.79 1703.06 308 1705.12 294.6"/><polygon class="cls-1" points="397.72 615.14 397.72 625.12 398.94 625.12 403.32 620.74 397.72 615.14"/><polygon class="cls-1" points="443.75 625.12 445.87 625.12 445.87 614.25 439.37 620.74 443.75 625.12"/><polygon class="cls-1" points="451.68 625.12 457.76 625.12 454.72 622.08 451.68 625.12"/><path class="cls-1" d="M464.46,625.12h1.21l1.16-1.16q-1.2-.68-2.37-1.41Z"/><polygon class="cls-1" points="427.07 625.12 429.19 625.12 429.19 614.24 422.69 620.74 427.07 625.12"/><path class="cls-1" d="M456.06,620.74l4.38,4.38h2.13v-3.78c-1.41-1-2.76-2-4.08-3Z"/><polygon class="cls-1" points="435 625.12 441.07 625.12 438.03 622.08 435 625.12"/><polygon class="cls-1" points="431.1 615.15 431.1 625.12 432.31 625.12 436.69 620.74 431.1 615.15"/><polygon class="cls-1" points="447.78 615.14 447.78 625.12 448.99 625.12 453.37 620.74 447.78 615.14"/><polygon class="cls-1" points="1665.25 238.1 1661.65 234.23 1664.55 241.93 1665.25 238.1"/><polygon class="cls-1" points="1657.58 223.32 1658.3 225.26 1659.15 226.06 1657.66 222.95 1657.58 223.32"/><polygon class="cls-1" points="1690 300.62 1689.23 303.47 1690.72 302.38 1690 300.62"/><polygon class="cls-1" points="1662.36 292.19 1662.19 291.65 1661.06 292.48 1662.36 292.19"/><polygon class="cls-1" points="1667.74 253.89 1667.39 252.98 1667.27 253.57 1667.74 253.89"/><polygon class="cls-1" points="1673.58 269.48 1673.53 269.35 1673.52 269.42 1673.58 269.48"/><polygon class="cls-1" points="1669.54 255.2 1672.05 257.03 1672.13 256.61 1668.29 248.44 1667.84 250.69 1669.54 255.2"/><polygon class="cls-1" points="1654.2 238.24 1656.53 245.31 1662.96 250.53 1662.62 252.56 1664.13 244.28 1659.46 231.84 1656.39 228.53 1654.2 238.24"/><polygon class="cls-1" points="1661.31 259.76 1662.3 254.33 1658.67 251.78 1661.31 259.76"/><polygon class="cls-1" points="1625.71 281.21 1611.37 279.01 1617.45 287.27 1625.71 281.21"/><polygon class="cls-1" points="1616.96 290.39 1609.18 296.08 1622.66 298.15 1616.96 290.39"/><polygon class="cls-1" points="1608.13 294.1 1615.64 288.59 1610.13 281.09 1608.13 294.1"/><polygon class="cls-1" points="1627.53 297.09 1635.05 291.57 1629.54 284.07 1627.53 297.09"/><polygon class="cls-1" points="1645.12 284.19 1630.79 281.99 1636.86 290.25 1645.12 284.19"/><polygon class="cls-1" points="1692.77 282.38 1692.34 282.57 1693.43 285.66 1694.08 285.4 1695.05 287.83 1722.45 292.04 1659.12 207.61 1692.77 282.38"/><polygon class="cls-1" points="1693.87 320.05 1695.19 323.59 1700.85 327.21 1695.58 314.28 1693.87 320.05"/><polygon class="cls-1" points="1693.2 322.31 1693.47 322.48 1693.3 322.01 1693.2 322.31"/><polygon class="cls-1" points="1685.94 281.25 1677.42 276.22 1680.2 283.64 1685.94 281.25"/><polygon class="cls-1" points="1707.22 295.63 1705.11 309.35 1713.03 303.54 1707.22 295.63"/><polygon class="cls-1" points="1724.85 297.65 1716.16 304.02 1722.54 312.7 1724.85 297.65"/><polygon class="cls-1" points="1714.35 305.34 1706.58 311.04 1720.05 313.11 1714.35 305.34"/><polygon class="cls-1" points="1691.59 304.51 1689.63 305.95 1693.03 308.04 1691.59 304.51"/><polygon class="cls-1" points="1705.78 335.12 1697.49 329.69 1703.04 344.5 1705.78 335.12"/><polygon class="cls-1" points="1687.73 293.22 1687.79 293.04 1687.77 293.02 1687.73 293.22"/><polygon class="cls-1" points="1692.07 312.83 1691.11 312.68 1691.68 314.22 1692.07 312.83"/><polygon class="cls-1" points="1685.71 291.62 1683.74 293.07 1684.98 296.38 1685.71 291.62"/><polygon class="cls-1" points="1691.12 316.22 1689.71 312.47 1686.93 312.04 1685.5 317.37 1690 320.25 1691.12 316.22"/><polygon class="cls-1" points="1674.75 263.34 1673.99 267.08 1675.37 270.76 1680.53 274.47 1675.61 264 1674.75 263.34"/><path class="cls-3" d="M1658.3,306.51l14,2.15,41.8,104.45.92-.73.65,1-.81.77,47.37,100.41,12.52,25-.3,1.28-24.14.47s-19.68.74-20.5,20.42c.65,3.53.94,18.47,17.59,22.8,8.49.51,14.88.68,19.69.65a28.59,28.59,0,0,0-10.31,17.26,27.42,27.42,0,0,0,1,12.94l0,.07.05.08c1.56,2.36,4.32,5.9,6.78,8.95h-80.52V600.15h-4.21V593H1681v-1h-1.07v-1H1681v-1h-1.07v-8.77H1681v-1h-1.07v-1H1681v-1h-1.07V573h-1.12v5.28h-6V573h-1.12v5.28h-1.57v1h1.57v1h-1.57v1h1.57V590h-1.57v1h1.57v1h-1.57v1h1.57v7.17h-6.07v24.33h-30.52V600.15h-4.21V593H1632v-1h-1.07v-1H1632v-1h-1.07v-8.77H1632v-1h-1.07v-1H1632v-1h-1.07V573h-1.12v5.28h-6V573h-1.12v5.28h-1.57v1h1.57v1h-1.57v1h1.57V590h-1.57v1h1.57v1h-1.57v1h1.57v7.17h-6.07v24.33h-13.73l.24,1.19H531.07V609.6H332.39v1.11h0v13.77H290.23v-2.94H292v-1.12h-1.79v-1.14H292v-1.12h-1.79v-10H292v-1.11h-1.79v-1.15H292v-1.11h-1.79v-10H292v-1.11h-1.79v-1.15H292v-1.11h-1.79v-10H292v-1.11h-1.79v-1.15H292v-1.1h-1.79v-10H292V567h-1.79v-1.15H292v-1.11h-1.79v-10H292v-1.11h-1.79v-1.15H292v-1.12h-1.79v-10H292v-1.12h-1.79v-1.15H292V538h-1.79V528H292v-1.12h-1.79v-1.14H292v-1.12h-1.79v-6H289v6h-6.82v-6h-1.27v6h-1.23v1.12h1.23v1.14h-1.23V528h1.23v10h-1.23v1.1h1.23v1.15h-1.23v1.12h1.23v10h-1.23v1.12h1.23v1.15h-1.23v1.11h1.23v.72a2.92,2.92,0,0,1-.63,1,1.13,1.13,0,0,0-.08,1.4,1.86,1.86,0,0,1,.44,1.4,2,2,0,0,1-1,1.6s-4.89-1.78-5.76-2.16-2.36-2.63-2.36-2.63l.35-.47c.62-.1,2.28-3.18,2.28-3.18l1.23.66c2.88,0-.53-3-.53-3v-.37c-.44-4.8-3.84-5.81-4.8-6.1-6.21-.19-6.47,3.75-6.47,3.75-1.57,1.78-.61,2.72-.61,2.72l-.26,1L258.21,553c-4.54,1.88-7.86,7.22-9,8.72a13.79,13.79,0,0,0-2.27,5,5.59,5.59,0,0,0,.79,2.44l1.4,2.06c-.25.62-.52,1.31-.8,2h-1.58v-1.14h1.79v-1.11h-1.79V561h1.79v-1.11h-1.79V558.7h1.79v-1.12h-1.79v-10h1.79v-1.11h-1.79v-1.14h1.79v-1.12h-1.79v-6h-1.27v6h-6.82v-6h-1.27v6h-1.23v1.12h1.23v1.14h-1.23v1.11h1.23v10h-1.23v1.12h1.23v1.14h-1.23V561h1.23v10h-1.23v1.11h1.23v1.14h-1.23v1.11h1.23v10h-1.23v1.12h1.23v1.15h-1.23v1.11h1.23v10h-1.23v1.11h1.23v1.16h-1.23V601h1.23v10h-1.23v1.11h1.23v1.15h-1.23v1.12h1.23v6.4l0,0c-.79,1,0,3.38,0,3.38l0,.16h-1.21v.09H202.87v-.12h1.8v-1.11h-1.8v-1.14h1.8V621h-1.8V611h1.8v-1.11h-1.8v-1.15h1.8v-1.1h-1.8v-10h1.8v-1.12h-1.8v-1.15h1.8v-1.11h-1.8v-10h1.8v-1.12h-1.8V582h1.8V580.9h-1.8v-10h1.8v-1.11h-1.8v-1.15h1.8v-1.11h-1.8v-6H201.6v6h-6.82v-6h-1.27v6h-1.23v1.11h1.23v1.15h-1.23v1.11h1.23v10h-1.23V582h1.23v1.14h-1.23v1.12h1.23v10h-1.23v1.11h1.23v1.15h-1.23v1.12h1.23v10h-1.23v1.1h1.23v1.15h-1.23V611h1.23v10h-1.23v1.12h1.23v1.14h-1.23v1.11h1.23v.12H146.32a19.3,19.3,0,0,0-1.65-1.48c3.67,0,8.55-.1,15-.49,12.71-3.31,12.92-14.68,13.42-17.38-.63-15-15.63-15.59-15.63-15.59L139,589.19l-.22-1,9.55-19,36.14-76.6-.62-.59.49-.78.71.56,35.35-88.34-.42-.31.75-2.18.58.42,31.53-99.05,2-.63L260,344.42l-2.55.43,1.5,9-3.27.71,5.24,29.31,3.76-.62,1.7,10.12.46-.08,1,6.14-.46-.63-1.1.8-.13-.07-.14.26-1.24.9-.66,0c0,.15,0,.28,0,.42L241,418l-5.59.41a.95.95,0,1,0,.14,1.89l.95-.07,1.38,18.69L240.4,441l3.19,43.45h.06v.05L299,480.47v-.06l.42,0-3.07-41.94,3.17-3.73L298.27,417l.26-.49.32,0a5.62,5.62,0,0,0,2.21-.37c.77-.13,1.59-.43,1.57-1.51a3.1,3.1,0,0,0,0-.35,15.45,15.45,0,0,0-.72-2.79s-.23-.91-.51-1.89c-.14-.49-.3-1-.45-1.39a2.81,2.81,0,0,0-.42-.88,2.07,2.07,0,0,1-.27-1.19,1.33,1.33,0,0,1,0-.18,2.45,2.45,0,0,0,.26-1.12,3.66,3.66,0,0,0-.67-2,22.65,22.65,0,0,1-.61-4.65c.24-.29,1.37-1.69,2.7-3.08,1.49-1.57,4.55-4.69,7.72-5.69,2.23-.4,7.18-2.63,8.24-7.78v0c-.08-3.3-.39-7.17-.39-7.17a5.78,5.78,0,0,0-1-2.54,47.06,47.06,0,0,1-2-4.49,5,5,0,0,0-.22-.9,1.6,1.6,0,0,0-.93-1.13,1.68,1.68,0,0,1-.71-.88c-.17-.38-.17-.7-.42-.9s-.91-.92-1.34-1.19-1.55-1.09-1.56-1.09-2.28-2.12-2.89-2.75-3-3.13-3-3.13a10.88,10.88,0,0,0-3.44-2c-1.48-.86-3-2.18-4-2.44a3.45,3.45,0,0,1-1.09-.57,4.84,4.84,0,0,1-.48-.4h0l0,0a5.47,5.47,0,0,0-1.81-.57c-.19,0-.29-.13-.38-.36a2.67,2.67,0,0,1-.11-.76,2.77,2.77,0,0,1,0-.47v0a34,34,0,0,0-.63-3.9,3.54,3.54,0,0,0,.31-1.34,1.57,1.57,0,0,0-1.6-1.62c-.68-.78-2-2.72-6.11-2.71a15.19,15.19,0,0,0-1.81.11h0c-1.07.3-5.19,2.2-5.19,7.84a12.62,12.62,0,0,0,.09,1.5,21.21,21.21,0,0,0,.69,2.23,6,6,0,0,0-1.28,2.63.77.77,0,0,0,.27.61,5.39,5.39,0,0,0,2.91.69,4.44,4.44,0,0,0,.88-.07l.33.78.16.72v0a.65.65,0,0,0,.51.35.67.67,0,0,0,.48-.27l.07-.06.26.45a8.14,8.14,0,0,0-.88,2.09c-.07.62-.74,2.86-.74,2.88s-.22.56-.51,1.13a2.56,2.56,0,0,1-.79,1.06A10.84,10.84,0,0,1,276.4,360a22,22,0,0,0-2.22-2.69,10.65,10.65,0,0,0-.4-3c0-.05,0-.1,0-.16s0-.34,0-.53c0-.54-.2-1.16-1.31-1.91l0,0h0a2.92,2.92,0,0,0-.76-.09,1.71,1.71,0,0,0-.67.1.58.58,0,0,0-.38.55v0l-.3.07a1.08,1.08,0,0,0-.72-.32,1,1,0,0,0-.55.17h0l0,0c-.09.12-.2.22-.29.36l-.1-.62-1.84.32-1.47-8.75-4.35.73-5.15-42.88,2.59-.83-2.79-.86-.52-4.3,1-3.2,0,.63,8.17-6.34-1-5.74s-4.41-3.76-6.29-5.09-3.3-1.35-7-1a12.63,12.63,0,0,0-6.11,7.42l.17,5.17L236.23,303l1.92,1.27-5.65,12.54L82.09,517.07h0c-1.75,0-4.78.69-5.67,3.59-2.86,1.56-9.6,5.32-11.28,7.08a3.55,3.55,0,0,0-.84,1.35c-1.95,2.37-3.37,6.75-4.42,11.61v-.86s.57-2.38.15-3.29a5.36,5.36,0,0,1-.42-2s.28-18.18-.14-21.33-1.26-6.31-1.12-6.71-.85-12.63,0-19.88c0-7-1.12-17.9-1.55-21.72a1.72,1.72,0,0,1,.84-.92,6.67,6.67,0,0,0,1.55-2.1L65,470s.57-8.82,1.41-9.48a4,4,0,0,1,2.25.39,4,4,0,0,0,2.11-.13c.7-.39,2.1-1.31,2.1-1.31a1.92,1.92,0,0,0,1.4-1.06c.43-.92,2.25-2.49.28-5.53a14,14,0,0,0,1-3.42c0-1.06.29-10.79.29-10.79l-6.18,3.16L65.6,435s-.14-3.56-6.6-6.84-6.59-4-6.59-4-.56-.78-1.13-.66a8.1,8.1,0,0,1-1.53.14l.27-2.37s3.66-3.56,3.93-7l2.52-.27s4.22-.91-.14-3.55c0,0,2.81-10.4-7.72-11.71-1.4-.27-7.71-.14-10,7.23-1.12.26-4.5.66-2.39,3.29a12.38,12.38,0,0,0,1.68,1A5.6,5.6,0,0,0,39.07,416a4.46,4.46,0,0,1,.42,1.45l-.14,4.09s-3.08,1.31-3.36,3.29l-8.85,3.42a20.1,20.1,0,0,0-5.48,4.87c-2.24,3-8.56,11-8.56,11l-4.21.26L.33,438.76s-3.92-2.89-5.89-2.63c-1.82.52-8.85,7.52-8.85,7.52l4.81.15,4.19.76a15.38,15.38,0,0,0,4.21,2.1l6.45,11.18,16.47-4.74s-.63,8-1.41,16.95c-1.91,7.53,4.09,5,6.13,4.77,0,0-1.39,13.3-.56,17.9s-.42,13.16-.42,16.2-1.55,4.08-.29,6.18c.14,2.24.71,10.53.14,12.24s-2.25,4.49-1.55,5.26,2.11,1.45,2.11,2.37a10,10,0,0,1-1,2.89L21.66,542l-3.37,3.42s-1.18,1.28-1.05,2.33A24.8,24.8,0,0,0,14,550.37c-1.38,1.18-7.26,6.58-7.58,12.15.92,3.64.33,3.88.33,3.88l-4,.37s-3.2,1.64-3.35,8.28S-1.07,597.19,2.47,607l26.43,1.09L14.65,618.81H1.2v5.67H-4V680H1947V624.48h-5.93a25.31,25.31,0,0,0,7.65-14.33,33.28,33.28,0,0,0,.39-4v-.07l0-.08c-1.21-6.34-4-12.87-11.45-17.32l.61-8.43-5.61-15.2,20.82-.87c4.64-12.84,4.33-33.16,4.14-41.87s-4.38-10.86-4.38-10.86L1948,511s-.76-.33.45-5.09c-.44-7.29-8.14-14.38-9.95-15.91a36,36,0,0,0-19.42-9.44l-1.47-1.54-2.77-3.6a9.15,9.15,0,0,1-.84-2.56c0-.81,1.2-1.39,1.81-2.1s-.85-3.12-1.32-4.65,0-8.82.11-10.79c1.08-1.86-.24-2.78-.24-5.46s-1.09-10.23-.36-14.29c.39-2.13.22-6.43,0-10l-.68-1.44h2c.66,0,1.1-1.61,1.1-1.61s-.89-18.35-.89-19.16a13.44,13.44,0,0,1,1.45-3.32s1.87-2.62,1.87-3.33,1.11-1.82,1.11-1.82l1.11-1.81a6.64,6.64,0,0,1,.85-2.72c0-.54.29-5.12.29-5.12l.3-1.74a33.09,33.09,0,0,0-2.81-10.9c-1.18-2-3.39-8.87-3.39-8.87v-1.88a9.57,9.57,0,0,0-.21-2.35c-.3-1.75-2.59-1.42-2.59-1.42l-.8.24a9.21,9.21,0,0,0-1.86.56c-1.19,1-1,2-.44,3.37s3.09,2.56,3.09,2.56l.29,1.49s.74,3.89.45,3.48a3.72,3.72,0,0,0-2.21-1.22c-10.48-1.6-11.52,5.52-11.52,5.52s-.3.13-1,.4c-2.66,3.63.88,4.17.88,4.17l.16,4.3s1.33.26-1.77.4-8.71,3.23-8.71,3.23-6.95,4.7-9.9,6.3-1.92,3.91-1.92,3.91,3,9,3.26,10.21a49.69,49.69,0,0,1,1.17,5.24,10,10,0,0,0,.74,2.56s2.22,3.49,2.66,4.43,1.18.4,1.18.4l-.14-1.74.73,2.56-.73,4.42c-.13,2.24-1,4.87-1,6.73.72,6.38.06,15.78.19,16.13s-.6,3.14-1,5.91-.12,18.83-.12,18.83a5.05,5.05,0,0,1-.35,1.74,6.75,6.75,0,0,0,.11,2.89v1.08L1881,478l-2.59-.2c-1.39-6.57-3.3-12.52-5.91-15.71a4.86,4.86,0,0,0-1.11-1.77c-2.19-2.31-11-7.23-14.78-9.29-1.17-3.78-5.14-4.65-7.43-4.71h-.05L1652,183.8l-7.4-16.45,2.51-1.67-10.2-20.62.21-6.79a16.49,16.49,0,0,0-8-9.7c-4.89-.51-6.75-.51-9.22,1.25s-8.25,6.67-8.25,6.67l-1.27,7.54,10.71,8.31,0-.83,1.33,4.2-.67,5.64-3.67,1.12,3.39,1.08-6.74,56.21-4.11-.68a2.38,2.38,0,0,0-.47-1l-.75-1c0-.49-.18-.49-.39-.77a.74.74,0,0,0-1,.17l-.52-.1c.21-.69-1-.59-1.35-.49-1.42,1-1,1.49-1.08,2.18a9.82,9.82,0,0,0-.34,2.63,20.74,20.74,0,0,0-2,2.39,9.73,9.73,0,0,1-2.84,2.66c-.56.14-1.39-2-1.39-2s-.59-2-.65-2.56a8,8,0,0,0-.8-1.87l.37-.65.24.21a.33.33,0,0,0,.59,0l.14-.63.35-.83a5.15,5.15,0,0,0,3.33-.49c.69-.55-1-2.69-1-2.69a18.5,18.5,0,0,0,.62-2c.7-5.88-3.39-7.75-4.35-8-5-.55-6.17,1.53-6.87,2.28-2.14.21-1,2.42-1,2.42a28.06,28.06,0,0,0-.55,3.47s.2,1.51-.56,1.59a4.64,4.64,0,0,0-1.52.49,4,4,0,0,1-1.45.9,28.67,28.67,0,0,0-3.46,2.14,9.56,9.56,0,0,0-3,1.73s-2.08,2.21-2.64,2.77-2.56,2.42-2.56,2.42-1,.77-1.38,1-1,.9-1.18,1-.28,1.25-1,1.59c-.69.14-.9,1.66-.9,1.66a40.64,40.64,0,0,1-1.8,4,4.85,4.85,0,0,0-.83,2.15s-.28,3.39-.35,6.3c.91,4.42,5.19,6.36,7.14,6.71,2.83.9,5.54,3.67,6.85,5.05s2.42,2.77,2.42,2.77a19.29,19.29,0,0,1-.55,4.22,2.42,2.42,0,0,0-.35,2.63s.07,1-.28,1.38a22,22,0,0,0-1.17,3.6s-.11.3-.23.71l-11.32-1.74-32-19.08L1540,262.9l-63.73-9.79-.11.68h0l-3.51,22.89h0l-.2,1.3,73.44,11.28m-5-22.2,1.54,6.88-5.5-7.49Zm-9-1.39-8.26,6.06-6.06-8.26Zm-19.42-3-8.26,6.06-6.06-8.25Zm-19.39-3-8.27,6.06-6.07-8.26Zm-15.59-.13,5.51,7.51-7.51,5.5Zm-.94,15,7.77-5.69,5.7,7.76Zm16,1.69-6.4-8.71,8.72-6.39Zm4.37-13.7,5.5,7.5-7.51,5.51Zm-.94,15,7.77-5.69,5.7,7.76Zm16,1.69-6.4-8.71,8.72-6.39Zm4.37-13.71,5.51,7.5-7.51,5.51Zm-.93,15,7.76-5.7,5.7,7.76Zm16,1.69-6.39-8.71,8.71-6.39Zm4.38-13.71,5.51,7.51-7.51,5.5Zm-.94,15,7.77-5.7,1.13,1.53,1.28,5.73Zm222,268.07a14.3,14.3,0,0,0-3.45-1.08l4.7-.83A14.8,14.8,0,0,0,1756.87,551.6Zm-1601.76,45a10.69,10.69,0,0,0-2.63.84,11.08,11.08,0,0,0-1-1.47ZM266.28,404.22a2.37,2.37,0,0,0,.88,0h0l9.95,5.2-.22.44-1.31.69,0,0A5.31,5.31,0,0,0,274.2,413l-.23.09a2.51,2.51,0,0,0-.45,0,2.63,2.63,0,0,0-2.36,1.15,5.4,5.4,0,0,0-.68,1.54l-22.37,1.64Zm26.38,38.61,2.49,33.89-47.83,3.51-2.61-35.5,18.08,15.43-.81,9.18s9.91,5.15,17.17-1.26l-.85-8.38Zm-9.46-28,1.48-1.47,1.15.6c0,.38-.05.66-.05.66v0Zm9.22-5.67-.33,1.26a5.16,5.16,0,0,0-1.67,1.27l-.9,0-2.36-1.23,2.75-3.44A12.93,12.93,0,0,0,292.42,409.19Zm-18.84-27.48-3.77-22.49.09,0a2.08,2.08,0,0,1,1.26.58c.65,1.3.9,1.8,1,2l-1.26,1.62,2.47,2.29-.56,1a.94.94,0,0,0-.07.35.56.56,0,0,0,.53.57,5.67,5.67,0,0,1,1.42.94c.58.46,1.09.91,1.09.91l0,0h0a2.44,2.44,0,0,1,.45.27,2.39,2.39,0,0,1,.72.75,33.39,33.39,0,0,0,2.31,2.87,2.06,2.06,0,0,0,1.1.47.89.89,0,0,0,.69-.32,8.69,8.69,0,0,1,1.44-1.1c.55-.37,1-.66,1-.66l1.22-.87a3,3,0,0,0,1.53.8c.21.59,1.23,3.41,2,5.24a5.18,5.18,0,0,0,1.43,1.93c.43.4.67.61.67,1.07s-.22,1.53-.23,2.51a2.28,2.28,0,0,0,1.1,2.29l-1.84,1.91a5.07,5.07,0,0,0-.92,2.73v1.36l-2.64,3.56-.7,1.16a3.71,3.71,0,0,0-1.54,2.31,2.37,2.37,0,0,1-.27.83.5.5,0,0,1-.09.11h0l-.05,0,0,.07s-.95,2.2-1.41,3.13c-.33.66-2,3-2.84,4.24l-9-4.7a7.85,7.85,0,0,0-.06-1.55c-.05-.34-.13-.61-.15-.73l-1-6.25.61-.09-1.41-10.18Zm-19.2-84.17.11.94-.25-.49ZM34.3,542.74v-3s.83-2,.55-2.91c0,0,0-.06,0-.09l2.87,1.94.64,3.82Zm8.12-.53c-.4-1.89-.88-4.18-1-5.09a4.21,4.21,0,0,0-1.53-2.58l-4.66-3a6,6,0,0,0,.65-3,50.08,50.08,0,0,1-.13-6.18l.56-11.72a41.26,41.26,0,0,0,1.54-5.93c0-1.17,2-5.12,2-6.18s.28-7,.28-7,.56-2.63,1.83-2.5c.69.26.69.79,1.26,2.24s3.51,8.43,3.51,8.43.15,3.42.56,8.29a16.75,16.75,0,0,0,2,5.13,27.65,27.65,0,0,1,.56,5.78v13s1.26,1.19,1,2.36-1.13,2.5-1,3.7a9.91,9.91,0,0,0,1,2.75l.11.91Zm110.73-1.45-8.25,20.4-2.28-4,9.9-25.21.82-.43Zm3.51-8.67,0-2.41,1.19-.63Zm3.3-8.14-3.16,1.89.12-5.15,3-7.67,1.21,8.05Zm1.24-23.65-.24-1.42,4.89-13.11,1.09.53L161.78,500Zm2.92,17.45-1.81-10.79,1.94-5,10.95-6.52ZM166,497.62l3.88-9.87,7.29,3.64Zm7.4-15.26,2.4-4.75,2.07,6.69Zm4.67-9.14L176.78,469l2.28-6.09,3.85-2.31-4.69,12.51Zm8.22-29.37,0-.1,1.25-3.34.65,2.39Zm2.17,2.07-.78,2.09-.46-1.37Zm-2.06,8.14.3,1-.84.48Zm-1.81,2.16-3.8,2.15,3.76-10,1.39,4.31ZM181.26,484l-2.34-7.84,6.84-4Zm6.29-16.66-8,4.94,4.69-12.48,3.38-2,1.67,5.12Zm.57-18,1-2.76,1.62,6.07-1.32.75Zm7.16-21.75L191,438.93,189,431.77Zm-2.57-1.91,4-9.86,1.3,4.41L197,423ZM191,458.14l-.66-2,1.15-.69.22.82Zm3.33-7.82-2-6.72,5.84-3.41Zm5.41-14.1-8.18,4.61-.12-.4,5.12-13.65,2.79-1.83,2,6.93Zm-1.43-14.09.13-.34.07.23Zm12.24-35.29-2.13,5.66-4.37-1.82Zm-2.37-1.33,3.74-8,.66-.51.58,2.85-1.05,2.81ZM206,399l-2,5.33-1.9-6.74Zm-3.28,12.91,1.7,6.29L201,420.44l-.86-3.09,1.87-5Zm-3,3.89-.48-1.71,1.46-.91Zm-1-4.71,2.31-5.67,1,3.64ZM203,427.76l-1.21-4.38,3.41-2.22.14.53Zm4.51-11-1.88-6.63,6-3.77Zm5.86-14.7-8.54,5.27-.41-1.42,2.46-6.54,6.62,2.37Zm2.41-6.46-6.46-2.71,2.53-6.78,2.32-1.36,2,9.78Zm-2.27-13.88,0-.1v.06Zm1.1-9.8,2.93-6.24.34,1.72-1.3,3.44-1.91,1.4Zm.92,4.42.82-2.19,2.49-1.93,1,5-3.57,2.57Zm2.43-6.5.27-.69.09.44Zm.15,19-1.19-5.73,4-2.32Zm1.74-31.06,2.74-3-2.21,5.87Zm3,16.52-.76-4.13,2.77-2Zm3.64-11-4.9,4,.26,1.55-1.15-6.31,3.55-9.49,2.34-2.53,1.68,7.41Zm-2-14.68,1.14-2.37.07.29-.56,1.48Zm6.14,2.16-1-3.57.81-.87,1.49.46Zm11.23-38.44-1.7-1.21,3,2.1L234.69,339l-5.76,5.45-.6-2.19,2.75-7.3ZM83.22,517.12,230.77,320.69l-4.46,9.91L85.52,518.33A4.19,4.19,0,0,0,83.22,517.12Zm32.88,2.39-29.45.34a7.2,7.2,0,0,0-.52-.8L224.55,334.51l-25.68,57,.33.14-.82,2.36-.51-.2L165,476.67a3.88,3.88,0,0,0-3.7-1.26c-7.22.85-4.75,6.94-4.75,6.94l-21,24.4-.1,0c-2.63-1.14-3.7-.48-4.1,0-.65.72-5.84,6.53-12.14,13.55A30.65,30.65,0,0,0,116.1,519.51Zm24.26-5.61h.08a2.12,2.12,0,0,0,.26-.35l.19-.21h-.08c.64-1.21-.12-2.6-1.33-3.84l20.22-23.68,1.94,1.14-21.28,66.29-13-25.87Zm-8.46,79.83-1.2.44,3.9-9.31,9.54-10.9-7.25,14.14Zm69.71,30.74h-6.82v-.12h6.82Zm0-1.23h-6.82v-1.14h6.82Zm0-2.26h-6.82V611h6.82Zm0-11.11h-6.82v-1.15h6.82Zm0-2.25h-6.82v-10h6.82Zm0-11.1h-6.82v-1.15h6.82Zm0-2.26h-6.82v-10h6.82Zm0-11.1h-6.82V582h6.82Zm0-2.27h-6.82v-10h6.82Zm0-11.1h-6.82v-1.15h6.82Zm37,15.61h6.44c0,.39-.06.77-.08,1.15h-6.36Zm.6,29.82s-.43,3.47-.52,3.76a1.33,1.33,0,0,1-.08.15v-4.73h.79Zm.45-1.94h-1.05v-1.15H240Zm1.21-5.09c-.18.71-.43,1.76-.68,2.84h-1.58V601h4.05C241.91,604.06,241.19,607.12,240.91,608.2Zm2.08-8.27h-4.35v-1.16h4.67Zm-4.35-2.27v-10H245c0,.86,0,1.64,0,2.15,0,1.68-.18,4.68-.18,4.68a22.78,22.78,0,0,0-1.12,3.15Zm6.82,26.73H244c0-.34,0-.71,0-.78s.59-.81,1-1.06a2.59,2.59,0,0,0,.48-.48Zm0-43.62-.54,1.46.54-.17V583a13.11,13.11,0,0,0-.25,1.33h-6.57v-10h6.82Zm0-7.57h-6.82v-1.14h6.82Zm0-2.26h-6.82V561h6.82Zm0-11.1h-6.82V558.7h6.82Zm0-2.27h-6.82v-10h6.82Zm0-11.1h-6.82v-1.14h6.82Zm1.27,27.84h1.15c-.39,1-.79,2.06-1.15,3Zm17,45.16a5.43,5.43,0,0,0,0,1.63l-.18,2.45s-.1.41-.21.93H248.54v-.09h-1.79v-4.19c.36-.6.87-1.41.87-1.41s3.26-7.06,3.73-9.25,2.22-4.87,3.15-6.38a49.17,49.17,0,0,0,3.73-5.31c.47-.69.58-.58.58-.58s1.46,3.39,2,4.58,1.46,4.49,2.22,5.81c.17,2,1,6.75,1,7.88S263.8,618.37,263.69,619.48Zm17.16-41.39h-1.23v1.1h1.23v1.15h-1.23v1.11h1.23v10h-1.23v1.11h1.23v1.15h-1.23v1.11h1.23v10h-1.23v1.11h1.23v1.15h-1.23v1.11h1.23v10h-1.23v1.12h1.23v1.14h-1.23v1.12h1.23v2.94h-4.74c-.25-1.77-2.38-1.37-2.65-1.37a5.26,5.26,0,0,1-1.22-.51l-.58-3,.76-.19c.76-.68.41-3,.56-4.55.78-2.36.61-6.67.53-8.07a26.47,26.47,0,0,1,.17-3.66s.26-3.1.26-4.12a12.38,12.38,0,0,0-1.14-3.38l-3-6.1c1.83.37,1.57-1.59,1.57-1.59a29.9,29.9,0,0,1-1.75-4.12,34.88,34.88,0,0,1,2-10.22l1.49-6.65s3.57,1.4,5.85,2.34a2.17,2.17,0,0,0,1.94,0ZM289,624.48h-6.82v-2.94H289Zm0-4.06h-6.82v-1.14H289Zm0-2.26h-6.82v-10H289Zm0-11.1h-6.82v-1.15H289Zm0-2.26h-6.82v-10H289Zm0-11.1h-6.82v-1.15H289Zm0-2.26h-6.82v-10H289Zm0-11.1h-6.82v-1.15H289Zm0-2.26h-6.82v-10H289ZM289,567h-6.26c.21-.33.45-.72.7-1.15H289Zm0-2.26h-5a6,6,0,0,0,.53-1.42c.25-1.51.43-2.44.43-2.44l-.43-.76c0-.46.25-2.25.25-2.25a6.77,6.77,0,0,0,0-3.13H289Zm0-11.1h-4.67a.89.89,0,0,0-.3-.26c-1-.2-1.41,0-1.57.26h-.29v-1.15H289Zm0-2.26h-6.82v-10H289Zm0-11.1h-6.82v-1.15H289Zm0-2.25h-6.82V528H289Zm0-11.11h-6.82v-1.14H289ZM341.31,613a37.46,37.46,0,0,0,1.95,3.73l-2.07,2.07L335.4,613Zm-7.05,11.52v-10l5.59,5.58-4.39,4.38Zm3.9,0,3-3,3,3Zm10.88,0h-2.11l-4.38-4.38,1.74-1.74a30.46,30.46,0,0,0,2.39,3.11,31.16,31.16,0,0,0,2.37,2.3ZM456.48,613c1.22,1.22,2.47,2.4,3.78,3.51L458,618.76l-5.8-5.79Zm-9.38,0-5.8,5.79L435.5,613Zm-16.69,0-5.8,5.79-5.8-5.79Zm-16.69,0-5.8,5.79-5.8-5.79ZM401,624.48v-10l5.6,5.59-4.38,4.38Zm3.9,0,3-3,3,3Zm10.89,0h-2.12l-4.38-4.38,6.5-6.5Zm1.89,0v-10l5.6,5.59-4.38,4.38Zm3.9,0,3-3,3,3Zm10.89,0h-2.12L426,620.11l6.5-6.5Zm1.9,0v-10L440,620.1l-4.38,4.38Zm3.9,0,3-3,3,3Zm10.88,0H447l-4.38-4.38,6.5-6.49Zm1.9,0v-10l5.6,5.59-4.38,4.38Zm3.9,0,3-3,3,3Zm10.89,0h-2.13l-4.38-4.38,2.42-2.42c1.32,1.05,2.67,2.07,4.08,3Zm3.11,0h-1.21v-2.57q1.17.73,2.37,1.41Zm2.69,0,.19-.19.35.19ZM1629.8,600.15h-6V593h6Zm0-8.14h-6v-1h6Zm0-2h-6v-8.77h6Zm0-9.74h-6v-1h6Zm49,19.86h-6V593h6Zm0-8.14h-6v-1h6Zm0-2h-6v-8.77h6Zm0-9.74h-6v-1h6Zm-39.17-402.42,14.19,29.65,3.6,9.58-.79,2.87-7.55-7.13L1638,179Zm16,45.7-1.28,4.68-1.73-5.23,2-.61Zm-32.38-65.06.19.6-.33.63Zm-13.5,112.3,4.92.82,6.88-38.42-4.29-.93,2-11.75-3.34-.57,6.72-56,2.63.85,37.24,116.92-53.17-8.16Zm92,25.19-1.8-4.53,6.59,1Zm6.58-2-2.06,13.4-3.66-9.21Zm-4.27,32.61-5.66-3.62-1.33-3.54,1.71-5.77Zm4.93,7.92-2.74,9.37-5.55-14.81Zm-.68-25.77,2.11-13.72,5.81,7.91Zm9.24-4,5.7,7.77-13.48-2.07Zm1.81-1.32,8.69-6.37-2.31,15.05Zm-1.32-1.8-6.06-8.26,14.32,2.2Zm-19.79-14.38-1-2.43-.65.26-1.09-3.09.43-.19L1662.39,207l63.33,84.43Zm-1.58,34.64-.27-.16.1-.3Zm-7.53-41.23-5.74,2.39-2.78-7.42Zm-10.57-10.49-1.38-3.68.76-3.74.86.67,4.92,10.47ZM1689,291l-.73,4.76-1.24-3.31Zm1.21,20.42,2.78.43,1.41,3.75-1.12,4-4.5-2.88Zm.8-18.82,0-.2,0,0Zm3.37,19.46,1,.15-.38,1.39Zm-1.47-6.74,2-1.43,1.44,3.53Zm-.41-2.47.77-2.85.72,1.76Zm-15.65-34-.06-.06v-.07ZM1675.4,256l-.08.41-2.51-1.83-1.7-4.51.45-2.24Zm-4.39-2.72-.47-.33.12-.58Zm-2.49-15.79-.7,3.83-2.9-7.7Zm-6.1-12-.85-.8-.72-1.93.08-.38Zm.32,5.78,4.66,12.45-1.51,8.28.34-2-6.42-5.22-2.33-7.07,2.19-9.72Zm2.89,60.35-1.3.29,1.13-.83Zm-1-32.43-2.64-8,3.63,2.55Zm-30.52,22.23,14.33,2.2-8.27,6.06Zm4.26,9.59-7.52,5.52,2-13Zm-19.41-3-7.51,5.51,2-13Zm-4.27-9.58,14.33,2.2-8.26,6.06Zm5.59,11.38,5.7,7.77-13.48-2.07Zm1.81-1.32,8.73-6.4-2.33,15.12Zm-11.09-9.07.37,0-2.2,14.34-.47,0-2.7-3.68,1-6,.6.1.43-2.54Zm-4.42,15.18-1.25-.19a7.73,7.73,0,0,1,.08-1.24l0-.12Zm-16.41-54.08c0-1,1.11-1,1.87-2.69s1.8-4.7,1.8-4.7a2.44,2.44,0,0,0,1.45-.76l1.18.83a14.58,14.58,0,0,1,2.22,1.59c.49.56,1.31-.14,1.31-.14a27.14,27.14,0,0,0,2-2.49,2.67,2.67,0,0,1,1.11-1,11.16,11.16,0,0,1,2.29-1.66c.48-.07.27-.55.27-.55l-.56-1,2.14-2-1.06-1.39.93-1.87a1.79,1.79,0,0,1,1.35-.56l-1.36,8.15-2.41-.4-5.43,32.33c-.64-.94-1.29-1.91-1.49-2.29-.42-.83-1.26-2.77-1.26-2.77s-.27-.14-.41-1a3.15,3.15,0,0,0-1.31-1.94l-.63-1-2.35-3.18v-1.25a4.35,4.35,0,0,0-.76-2.28l-1.8-1.86C1590.95,244.13,1590.11,241.43,1590.11,240.46Zm7.41,37.5a1.16,1.16,0,0,0,.15.73l-2.42-3.3,2.86.44A9.34,9.34,0,0,0,1597.52,278Zm2.36,1.72,3.19-.28a12.24,12.24,0,0,1,1.24-.11l-.33,2.4-2.66,2L1597.9,279A3.56,3.56,0,0,0,1599.88,279.69Zm-.37,5.29-7.51,5.51,2-13Zm1.33,1.8,2.58,3.51-.24,1.46a8.64,8.64,0,0,0-.22,1,10.92,10.92,0,0,0-.13,1.26l-9.76-1.5Zm1.8-1.32,1.8-1.32-.51,3.07Zm-11.89-21.4,4.08,5.12,2.52,2.52-3.18-.49a.85.85,0,0,0,0-.16s-.07-.83-.14-1.53c-.69-1.18-3.32-.9-3.88-.9-.27-.55-1.52-1.18-1.52-1.18l-.35-1.31A11.62,11.62,0,0,0,1590.74,264.05Zm1.21,12-2.33,15.09-6.39-8.7Zm-1.79-1.47-8.26,6.05-6.06-8.25Zm-20.43-3.13,1,.16-.85.63Zm1.81,8.08-1.1-4.92,2.09-1.53Zm1.34,6,1.7-11.06,5.51,7.49-6.88,5Zm.87,3.87,7.67-5.63,5.7,7.76-13.35-2Zm.95,4.24,58.41,9m2.31-4.35-.34.63-3.19-.49,7.77-5.69,2.91,4Zm13.17-2.94-3.64.81-3.49-4.75,8.72-6.39Zm2.35-.52,1.29-8.42,5.13,7Zm2.55-10.5,10.36,1.59.91,2.85-5.2,3.82Zm7,18.49,1.69-2.87,2.59,3.53Zm7.73-5.81-.41.31.27.66-.79,5.13-3.86-5.26,2.75-4.67.45,1.42.75-.54.9,2.61Zm1.43,5.4.05-.36.1.24Zm1.19-24.23-3.63-10.56,5.18,3.06Zm-2.23-15.28,1.28-6.52,3.26,2.53,1.08,2.87-.92,4.48Zm7.39,9.91,3,1.79,3.32,8.88-2.22.93-6.31-1Zm2.25,21.77,4-1.44-3.31,2.43Zm1.06,6.58,1.83,1.14,3.05,4.16-2.95-.45Zm5.43,13.62-1.79-4.49,2.94.45Zm2-8.69-.44-.6.49.3Zm-6.22-8.48-.18-.24,5.72-4.2,1.88,5-.56,3.65Zm10.17,31.61-3-8,.18-.7,4.47,2.91Zm2.07,5.39,2.67-9.08,3.67,2.39,6.72,17.9-.15.52-10.73-6Zm9.26,24.18-5.07-13.27,7.66,4.47Zm4.38,10.26-.94-2.45.3-1.09,1.52.91Zm.33-7.12,2.14-8,1.36,3.63-1.77,5.31Zm6.52,3.67L1712,365l.42-1.26Zm-.12-3.76,1.83-5.64,4.91,13.14-5-2.8Zm-.46-11.53-2.44-1.38.85-3.13,1.63,4.39Zm-1.21,3.66-.6,1.79-1-2.72Zm-2.7,21.37,2.17-6.72,4.43,2.66,6.13,16.36-10.53-6.46ZM1719.14,403l-5.88-15.58,8.94,5.29Zm4-14.33-6.16-16.4,5.07,3,3,8-1.65,5.53Zm3.2,5.89,3.16,6.22-5.85,2.54Zm7.77,13.29,5.09,12.95-14.64-8.17Zm7.51,39.3L1727.08,418l14.35,8.56L1744,433Zm3.08-23.28L1737.91,406l1.43-.71,6.42,17.19-.31,1.87Zm.84,27.67L1747.1,441,1751,451l.15,6.75-4.15-2.49Zm4.24,10.45,1.55.81.07,3.18Zm6.22,15.36-.24-12.2,1.08.57,13,33-3,5.32Zm27.88,69.45-6.56-7.39-9.5-18.54,12.5,14.28,5.11,12.22Zm-11.13-53.05-27.89-86.91,2.54-1.5,26.51,31c-1.58,1.63-2.58,3.47-1.75,5.06h-.1l.26.26a2.89,2.89,0,0,0,.34.45h.11l17.07,17.69Zm70.44-43.81-38.61-.45a38.93,38.93,0,0,0-4.08,1c-8.27-9.21-15.06-16.81-15.91-17.76-.53-.69-1.91-1.56-5.38-.07l-.13.07-27.49-32s3.24-8-6.23-9.1a5.12,5.12,0,0,0-4.85,1.64l-31.39-79,18.26,2.8.6-3.93h-.06l2.41-15.66L1843.85,448.9A9.5,9.5,0,0,0,1843.17,449.95Zm1.48-2-114-152.05.56-3.65-3.72-.57-67.36-89.81-5.84-13,193.41,257.47A5.58,5.58,0,0,0,1844.65,447.94Zm44.82-42a7,7,0,0,1-.78,2.43,10.77,10.77,0,0,0,.08,3.44.12.12,0,0,1,0,.09c0,.05,0,0,0-.09a4.32,4.32,0,0,0-1.08-.92,3.66,3.66,0,0,1-1.21-.9c-.67-.7-1.88-6.76-1.88-6.76l-.11-2.62,1.56.31a19.48,19.48,0,0,0,2.54-2.82c.22-.61,1.33-.61,1.33-.61A34.71,34.71,0,0,1,1889.47,406Zm16.07,62.55-1,.67a5.54,5.54,0,0,0-2,3.39c-.21,1.2-.84,4.21-1.37,6.69l-8.56-.55.1-.77a9.17,9.17,0,0,0,.85-2.42c.11-1.06-.6-2.22-.85-3.26s.85-2.09.85-2.09v-11.5a25.85,25.85,0,0,1,.48-5.11,14.66,14.66,0,0,0,1.68-4.53c.37-4.28.48-7.3.48-7.3s2.53-6.18,3-7.44.49-1.74,1.09-2c1.08-.12,1.56,2.2,1.56,2.2s.24,5.24.24,6.16,1.68,4.42,1.68,5.46a37.16,37.16,0,0,0,1.32,5.23l.48,10.33a47.22,47.22,0,0,1-.11,5.45A3.08,3.08,0,0,0,1905.54,468.51Zm1.21,11.1-.26,0,.26-1.55Zm6-99.15v-1s1.89-.51,2.44-1.41c0,0,.55,2.83.77,3.33a2.08,2.08,0,0,1,0,1.81c-.33.4-1,.2-1,.2l-2.76-.2A12,12,0,0,0,1912.72,380.46Z"/><path class="cls-3" d="M386.93,609.53a26.16,26.16,0,0,0,6.52-2.14l.55-.07.11.9.63,1.18a37.17,37.17,0,0,1-3.92.82h12l.76-5.28,1.78-1.88,1.23,2.41c.86,3.74,2.72-.17,2.72-.17l-.89-2.63a4,4,0,0,1,.77-2.48,3,3,0,0,0,.63-2.65,1.14,1.14,0,0,0-.09-.18c3.28-1.59.93-6.42.93-6.42l.15-4.43s2.86-2.46,3.62-2.31c1.73.13,1.49-2.64,1.49-2.64v-2.7c2.67-.23,2-1.25,2-1.25a39.71,39.71,0,0,1-1.88-6.85,11.11,11.11,0,0,0-5-6.93c-1.69-.76-3.9-1.7-3.9-1.7l-1-1.1,1.29-2.24,1.26-1.63a7.07,7.07,0,0,0,1.42.54c.89.26-.05-2.32-.21-2.53,2.47-6.32-2.63-8.83-4.38-9.1-4.49.23-5.71,3.08-5.71,3.08l-1.38-.19c-2.09-.09.79,1.36.79,1.36l-.28.65c-1.85,1.72-1.95,5.76-1.95,5.76a13.88,13.88,0,0,1,.32,2.4c-.71,1.07.88,1.11.88,1.11l.13,1-1.13-.22c-8.63.51-10,5-10,5l-4.53,6.59.06.48,1.15,1.32s-4.52,4.76-4.81,5.28l-.9,1.58-1.6.83L370,581l-.63,2.67,2.59,1.1a27,27,0,0,0,2.88.48,1.41,1.41,0,0,1,1,.35l-1.17,1.26a9.58,9.58,0,0,0-.13,1.85c0,1.1,2,2.06,3.29,1.65a2.57,2.57,0,0,0,1.61-1.67l.61,0,.53.29,1.58.9a9.44,9.44,0,0,0-.06,2.33c.15,1.08,1.72,1.91,1.72,1.91a11.84,11.84,0,0,0-5.18,5.28,71.52,71.52,0,0,0-2.81,6.6,4,4,0,0,0,2.16,4.2h5.62A25.32,25.32,0,0,1,386.93,609.53Zm1.22-32.76,1.36-.79a4.24,4.24,0,0,1,.25,2.78,20.41,20.41,0,0,0-.57,4l.09.71-2.14-.45-2-.1-.49-.92Z"/><path class="cls-6" d="M1319.57,625.12h.63l-.41-.23Z"/><path class="cls-6" d="M1391,625.12h1.8v-1c-.61.34-1.22.67-1.84,1Z"/><polygon class="cls-6" points="842.27 625.12 842.27 623.54 840.69 625.12 842.27 625.12"/><path class="cls-6" d="M1319.57,625.12l.23-.23.41.23Zm73.25,0H1391l0,0c.62-.32,1.23-.65,1.84-1Zm-550.55,0h-1.57l1.57-1.57Z"/><polygon class="cls-3" points="1150.6 627.89 1170.15 627.89 1170.15 557.1 1150.6 559.13 1150.6 627.89"/><rect class="cls-3" x="1147.34" y="563.56" width="26.07" height="4.95"/><rect class="cls-3" x="1147.34" y="578.67" width="26.07" height="4.95"/><rect class="cls-3" x="1147.34" y="593.77" width="26.07" height="4.95"/><rect class="cls-3" x="1147.34" y="608.88" width="26.07" height="4.95"/><rect class="cls-3" x="1147.34" y="623.98" width="26.07" height="4.95"/><rect class="cls-3" x="1164.17" y="520.93" width="0.85" height="42.63"/><rect class="cls-3" x="1162.43" y="526.49" width="0.85" height="35.42"/><rect class="cls-3" x="1159.95" y="520.93" width="0.85" height="38.37"/><rect class="cls-3" x="1152" y="521.98" width="0.85" height="45.49"/><rect class="cls-3" x="1154.44" y="528.75" width="0.85" height="30.56"/><rect class="cls-3" x="1156.87" y="531.87" width="0.85" height="30.04"/><rect class="cls-3" x="1167.82" y="524.93" width="0.85" height="35.77"/><rect class="cls-3" x="1166.08" y="533.09" width="0.85" height="28.82"/><rect class="cls-3" x="1158.26" y="528.75" width="0.85" height="33.68"/><rect class="cls-3" x="1158.68" y="554.02" width="10.43" height="0.85"/><rect class="cls-3" x="1152.02" y="554.54" width="6.7" height="0.85" transform="translate(-72.21 186.3) rotate(-8.94)"/><rect class="cls-3" x="1160.28" y="554.9" width="8.3" height="0.85" transform="translate(-91.26 259.5) rotate(-12.24)"/><rect class="cls-3" x="1155.79" y="551.67" width="0.85" height="8.34" transform="translate(503.02 1659.99) rotate(-85.07)"/><path class="cls-3" d="M633.55,580.9l-.08.85s-3.51.45-3.8.37-1-.75-1.13-.72a2,2,0,0,0-.39.25,3.17,3.17,0,0,0-.55.59,1.6,1.6,0,0,1-.12.22l-31.2,4-1.48-.87-.49.44h-1.4l.25,66.6s1.42.33,1.55,0-.1-19.15-.1-19.15h2.24s2.5.63,2.94-1.51l-.11-40.13.76-.48,25.39-1.9.49.19-.19,44.07a2.83,2.83,0,0,0,2.25,3.18c2.6.49,4.23.87,4.23.87V648.4l-.16,12.38a1.71,1.71,0,0,0,1.88,0l1-79.87S634.11,580.51,633.55,580.9Zm-39,7.65.16-.31,4.08-.62v13.11l-.4.37h-3.67l-.16-.22Zm0,13.55.4-.28h3.64l.31.28.16,14.78-.28.4H595l-.5-.4Zm4.51,29c0,.09-.22,1.2-.8,1.42l-3.55-.28-.16-.31V618.18a4.29,4.29,0,0,1,.46-.4l3.33.2.71.35S599.07,631,599,631.12Zm12.55-41.54a.53.53,0,0,1-.2.22s-10.73.9-10.73.9h-.53l-.31-.2v-2.85l.6-.29s10.92-1.2,10.92-1.2l.25.17Zm14.56-1.6a.8.8,0,0,0,0,.28l-.87.34-12.21,1h-.59l-.14-3.32.43-.26,13.1-1.5s.29.39.28.45S626.18,587.93,626.15,588Zm6.64,48.11a3.44,3.44,0,0,1-.55.22l-3.4-.31a3.53,3.53,0,0,1-1.58-1.48c-.25-.74-.28-15.12-.28-15.12a3.2,3.2,0,0,1,.43-.28l5.28.14.25.14Zm.25-17.94h-5.19l-.62-.31V601l.12-.31c.76-.35,5.66-.41,5.66-.41l.25.29Zm.31-19.09-1.08.52h-4.65l-.38-.37.18-14.07.2-.76,5.45-.51h.43Z"/><path class="cls-3" d="M666.79,589l-.07.74s-3,.39-3.29.32-.87-.66-1-.63a1.56,1.56,0,0,0-.34.21,3.16,3.16,0,0,0-.48.51,1,1,0,0,1-.11.19l-27,3.48-1.28-.75-.43.37h-1.21l.22,57.69s1.23.29,1.34,0-.09-16.59-.09-16.59H635s2.17.55,2.54-1.31l-.09-34.77.66-.42,22-1.64.43.16-.16,38.18a2.45,2.45,0,0,0,2,2.75c2.25.43,3.67.75,3.67.75v9.22l-.14,10.72a1.47,1.47,0,0,0,1.63,0l.91-69.19S667.27,588.71,666.79,589ZM633,595.68l.13-.27,3.53-.54v11.36l-.35.32h-3.18l-.13-.18Zm0,11.73.35-.24h3.16l.27.24.14,12.81-.24.35h-3.24l-.43-.35Zm3.91,25.13c0,.08-.19,1-.7,1.23l-3.08-.24-.13-.27V621.34a3.56,3.56,0,0,1,.4-.34l2.89.17.62.31S636.92,632.46,636.89,632.55Zm10.88-36s-.14.17-.17.19-9.3.77-9.3.77h-.46l-.27-.17v-2.47l.52-.25,9.46-1,.21.15Zm12.62-1.39a.69.69,0,0,0,0,.24l-.75.3-10.58.85h-.51l-.12-2.87.37-.23,11.35-1.3s.25.33.24.39S660.41,595.13,660.38,595.17Zm5.76,41.68a3.07,3.07,0,0,1-.48.19l-2.94-.26a3.06,3.06,0,0,1-1.36-1.29c-.21-.64-.24-13.1-.24-13.1a2.56,2.56,0,0,1,.38-.24l4.57.12.22.12Zm.21-15.54h-4.49l-.54-.26V606.48l.1-.27a31.69,31.69,0,0,1,4.91-.36l.21.25Zm.27-16.54-.94.46h-4l-.33-.32.16-12.19.17-.66,4.72-.44h.37Z"/><path class="cls-3" d="M658.27,590.18c-1.24-.12-1.15.25-1.73-.08s-25.37-6.92-25.37-6.92l-1.49-1.06a8,8,0,0,0-1.06,1.85c0,.31.7.66.74.82s.21.41.37.25a1.67,1.67,0,0,1,.49-.29l.32.25a.49.49,0,0,0,.46.12c.25-.08,5.23,1,5.23,1l-27.39,3-9-1.52a12.24,12.24,0,0,0-1.68-.29c-.45,0-2.39.08-2.39.08l-.62.27a8,8,0,0,0,.7,1.15c.06,0,.72.12.84.12l2.59-.1,32.51,5.64,1.52-.66-1.93-.57-1.11-.25,23.06-2.47,1.4.16.45.38.48,0,3.56,0S659.5,590.3,658.27,590.18Zm-32,2.06-14.91-2.45,25.75-2.28a13.93,13.93,0,0,0,1.73-.33l.54-.25,11.53,2.86Z"/><path class="cls-3" d="M594.33,594.75h.89s.12,0,.21.17a3.77,3.77,0,0,1,.14.39l.22.16.6.82,35.5,37.12s.35.88.24.82-.55-.45-.55-.45l-18-18.76s-17.44-18.21-17.61-18.23-.29,0-.47-.14-.16-.35-.33-.49-.23-.31-.33-.31-.54.39-.6.08A4.73,4.73,0,0,1,594.33,594.75Z"/><path class="cls-3" d="M631.61,600.92l-37.22,42s-.15.9-.2,1.07-.32.41,0,.37a.8.8,0,0,0,.51-.41s.43-.21.43-.08-.08.79.21.49.49-.46.41-.66a4.28,4.28,0,0,1-.17-.62l36.24-41.52.33-.66Z"/><path class="cls-3" d="M666.92,597.66l-34.77,51.61H631s-.16-.41-.16,0V650l.37-.17.54-.12v.62h.36s1,.66,1,0a18.38,18.38,0,0,1,1.14-3.25l32-47.57.67-.33.4-.82Z"/><path class="cls-3" d="M633.84,594.75c-.15-.21-1.9-.33-1.69,0s-.83.56,0,.74l.83.19.86.63,30.55,42.4a2.9,2.9,0,0,0,0,.64c0,.06,0,0,.12.1s.15.11.28,0,.19,0,.19-.13,0-.17,0-.17l.58,0s.29.27.33.28.59.59.52,0,0-.93,0-.93-.62-.15-.79,0a3.41,3.41,0,0,1-.44.22s-.4-.31-.4-.31l-29.9-42.59S633.95,594.89,633.84,594.75Z"/><path class="cls-3" d="M633.55,515.33l-.08.85s-3.51.45-3.8.37-1-.76-1.13-.72a1.86,1.86,0,0,0-.39.25,3.34,3.34,0,0,0-.55.59,1.44,1.44,0,0,1-.12.21l-31.2,4L594.8,520l-.49.43h-1.4l.25,66.6s1.42.33,1.55,0-.1-19.15-.1-19.15h2.24s2.5.63,2.94-1.51l-.11-40.14.76-.48,25.39-1.9.49.18-.19,44.07a2.83,2.83,0,0,0,2.25,3.18c2.6.5,4.23.87,4.23.87v10.65l-.16,12.38a1.71,1.71,0,0,0,1.88,0l1-79.87S634.11,514.94,633.55,515.33Zm-39,7.66.16-.31,4.08-.62v13.12l-.4.37h-3.67l-.16-.21Zm0,13.55.4-.28h3.64l.31.28.16,14.78-.28.4H595l-.5-.4Zm4.51,29c0,.09-.22,1.2-.8,1.42l-3.55-.28-.16-.31V552.61a4,4,0,0,1,.46-.4l3.33.2.71.36S599.07,565.45,599,565.54ZM611.59,524s-.15.2-.2.22-10.73.9-10.73.9h-.53l-.31-.2v-2.86l.6-.29,10.92-1.2.25.17Zm14.56-1.6a.8.8,0,0,0,0,.28l-.87.34-12.21,1h-.59l-.14-3.32.43-.26,13.1-1.49a2.15,2.15,0,0,1,.28.44C626.14,519.44,626.18,522.35,626.15,522.4Zm6.64,48.11a3.42,3.42,0,0,1-.55.22l-3.4-.31a3.5,3.5,0,0,1-1.58-1.48c-.25-.74-.28-15.12-.28-15.12a3.39,3.39,0,0,1,.43-.28l5.28.14.25.14Zm.25-17.94h-5.19l-.62-.31V535.46l.12-.31c.76-.35,5.66-.41,5.66-.41l.25.29Zm.31-19.09-1.08.53h-4.65l-.38-.37.18-14.08.2-.76,5.45-.51h.43Z"/><path class="cls-3" d="M666.79,523.48l-.07.73s-3,.39-3.29.32-.87-.65-1-.63a1.56,1.56,0,0,0-.34.21,3,3,0,0,0-.48.51,1,1,0,0,1-.11.19l-27,3.47-1.28-.75-.43.37h-1.21l.22,57.69s1.23.28,1.34,0S633,569,633,569H635s2.17.55,2.54-1.31l-.09-34.77.66-.41,22-1.65.43.16-.16,38.18a2.45,2.45,0,0,0,2,2.75c2.25.43,3.67.75,3.67.75v9.22l-.14,10.72a1.48,1.48,0,0,0,1.63,0l.91-69.19S667.27,523.13,666.79,523.48ZM633,530.11l.13-.27,3.53-.54v11.36l-.35.32h-3.18l-.13-.19Zm0,11.74.35-.24h3.16l.27.24.14,12.8-.24.35h-3.24l-.43-.35ZM636.89,567c0,.09-.19,1-.7,1.23l-3.08-.24-.13-.27V555.77a3.37,3.37,0,0,1,.4-.35l2.89.17.62.31S636.92,566.89,636.89,567Zm10.88-36s-.14.17-.17.19l-9.3.77h-.46l-.27-.17V529.3l.52-.26,9.46-1,.21.15Zm12.62-1.39a.69.69,0,0,0,0,.24l-.75.29L649,531h-.51l-.12-2.88.37-.23,11.35-1.3s.25.33.24.39S660.41,529.56,660.38,529.6Zm5.76,41.68a3.1,3.1,0,0,1-.48.18l-2.94-.27a3,3,0,0,1-1.36-1.28c-.21-.64-.24-13.1-.24-13.1a2.63,2.63,0,0,1,.38-.24l4.57.12.22.12Zm.21-15.55h-4.49l-.54-.26V540.91l.1-.27a31.09,31.09,0,0,1,4.91-.36l.21.25Zm.27-16.53-.94.45h-4l-.33-.32.16-12.19.17-.66,4.72-.44h.37Z"/><path class="cls-3" d="M658.27,524.61c-1.24-.12-1.15.25-1.73-.08s-25.37-6.92-25.37-6.92l-1.49-1.06a8,8,0,0,0-1.06,1.85c0,.31.7.66.74.82s.21.41.37.25a1.66,1.66,0,0,1,.49-.29l.32.25a.5.5,0,0,0,.46.12c.25-.08,5.23,1,5.23,1l-27.39,3-9-1.52a12.35,12.35,0,0,0-1.68-.29c-.45,0-2.39.08-2.39.08l-.62.27a8.28,8.28,0,0,0,.7,1.15,7.87,7.87,0,0,0,.84.13l2.59-.1,32.51,5.64,1.52-.66-1.93-.58-1.11-.25L653.32,525l1.4.17.45.38.48,0,3.56,0S659.5,524.74,658.27,524.61Zm-32,2.06-14.91-2.45,25.75-2.28a13.07,13.07,0,0,0,1.73-.33c.25-.12.54-.25.54-.25l11.53,2.86Z"/><path class="cls-3" d="M594.33,529.18h.89s.12,0,.21.16a3.77,3.77,0,0,1,.14.39l.22.17.6.82,35.5,37.11s.35.89.24.82-.55-.45-.55-.45l-18-18.77s-17.44-18.21-17.61-18.22-.29,0-.47-.15-.16-.35-.33-.49-.23-.31-.33-.31-.54.39-.6.08A4.71,4.71,0,0,1,594.33,529.18Z"/><path class="cls-3" d="M631.61,535.35l-37.22,42s-.15.91-.2,1.07-.32.41,0,.37a.79.79,0,0,0,.51-.41s.43-.21.43-.08-.08.79.21.5.49-.46.41-.66a4.37,4.37,0,0,1-.17-.62L631.83,536l.33-.66Z"/><path class="cls-3" d="M666.92,532.09,632.15,583.7H631s-.16-.41-.16,0v.74l.37-.17.54-.12v.62h.36s1,.66,1,0a18.35,18.35,0,0,1,1.14-3.25l32-47.57.67-.33.4-.82Z"/><path class="cls-3" d="M633.84,529.18c-.15-.22-1.9-.33-1.69,0s-.83.55,0,.74l.83.19.86.64,30.55,56.17a3,3,0,0,0,0,.64c0,.06,0,0,.13.1s.15.11.28,0,.19,0,.19-.12,0-.17,0-.17l.58,0s.3.27.33.29.59.58.52,0,0-.93,0-.92-.62-.15-.79,0a3.39,3.39,0,0,1-.44.22s-.4-.31-.4-.31l-29.91-56.36S633.95,529.32,633.84,529.18Z"/><path class="cls-3" d="M602,521.59c.75-.08,35.49,6.31,35.49,6.31l18.76-1.7s-34.33-8.12-35.19-7.38S602,521.59,602,521.59Z"/><path class="cls-3" d="M628.37,522.95c0,.15.88.74,1,.75s3.8-.14,4.43-.28a1.32,1.32,0,0,0,.92-.69c.08-.15-1.34-1-1.43-1.17s-1-.36-1-.48a4.71,4.71,0,0,1-.34-1.36,12.59,12.59,0,0,1,1.11-4.17c.63-1,1.57-5.77,1.57-5.77a6,6,0,0,0,.63,0,2,2,0,0,0,.73-.27s.29-.61.48-1a5.77,5.77,0,0,0,.48-1.2c.21-.65.15-.52.55-.9s-.42-2.64-.42-2.64l1.18,1c.15.13,1.49,2.27,1.78,2.83a16.8,16.8,0,0,0,1,1.45c0,.1-.06.34.1.55s.4.19.48.76,2.6,7.46,2.6,7.46l-.08.23a14.3,14.3,0,0,0-.1,1.47c0,.13.17,2.66.17,2.66V523s.63.44.82.61a10.56,10.56,0,0,0,2.29,0c.08,0,4.36-.44,4.72-.92s-.86-1.32-1.36-1.32-3.65-3.52-3.65-3.52l0-.55-.71-8.26.31-.13,1.49,5.53c1.11.65,5.54,0,5.54,0l-.08-.63.88-5.37h.21a.64.64,0,0,1,.42-.57c.41-.13.4-.25.52-.49s-.52-.15-.52-.15a3.36,3.36,0,0,0-.22.48c-.06.21-.27-.19-.27-.19a20,20,0,0,0-.44-3.06c-.1-.57-1.43-1.68-1.53-1.81s.13-.5.13-.57-.25-.23-.25-.48a6.81,6.81,0,0,0-.86-1.41s-.88-.76-.88-1-.69-.88-.76-1.38-.69-1.45-.69-1.76a6.57,6.57,0,0,1,1.51-2.2,10.11,10.11,0,0,0,1.38-1.13,4,4,0,0,0,.47.47c.1.05.27.38.48.44a1.5,1.5,0,0,0,.57,0,9,9,0,0,0,1.1-.22.27.27,0,0,1,.32.1,1.21,1.21,0,0,0,.81.18c.28,0,.76-.8.76-.77a4.34,4.34,0,0,0,1.3,1.35c.63.32,1.35-1.73,1.35-1.73,4.37-5.37-2.18-7.55-2.18-7.55a6,6,0,0,0-3.59,1.09,1.39,1.39,0,0,0,.15.74l-1,.3s-.95-.8-1.39-1.07a39.5,39.5,0,0,0-4.09-1.09,16.23,16.23,0,0,0-1.76-.63c-.84-.23-7.53,2.08-7.7,1.95s-1.11,1.83-2.06,2.1-1.21.44-1.64.53-.46,1.76-.55,1.93a13.37,13.37,0,0,0-.78,2,3.37,3.37,0,0,1-.44,1l-.57,3.09a5.54,5.54,0,0,0-.44,2.45c.13,1.19.5,3,.5,3s-.06.27-.21,1.2a17.38,17.38,0,0,0-.27,2.43,11.67,11.67,0,0,1-.23,1.61,7.12,7.12,0,0,0,.17,1.3c-.8.73-2.1,9-2.1,9v1.32s-.46.4-.44.59a17.14,17.14,0,0,1-.29,2A7.23,7.23,0,0,0,628.37,522.95Zm21.39-18.73a4.56,4.56,0,0,1,.25-.4s-.1.2.38.21.54,0,.63-.1.1-.17.25-.1a1.44,1.44,0,0,0,.6,0l.08-.12s.64,0,.46-.29a7.77,7.77,0,0,1,1.09,1.19c0,.17.64,2.46.64,2.53s-.09.79-.09.79-.07.21-.13.2-.61-.22-.65-.36a.58.58,0,0,0-.5-.25c-.2,0-.37.09-.47-.16a2.92,2.92,0,0,0-.35-.76c-.2-.25-.23-.66-.7-.71s-1-.67-1.09-.77-.23-.18-.29-.42A2.14,2.14,0,0,1,649.75,504.21Zm-3.84-1.29,1,1.86-.2,1s.2.8.1.61-.41-.77-.52-1,0-.65-.17-1.15S645.91,502.92,645.91,502.92ZM644.83,499a9.26,9.26,0,0,1,.31-1.25s.56-2.3,1.24-2.76a12.86,12.86,0,0,1-.67,2.52s1.13,1.64,1.3,2,1.43,1.43,1.3,1.51.2.51.08.71-.14.34,0,.43.83.41.63.49-.64.42-.7.45l-.26.16s-1-1-1.05-1.1S644.87,499.11,644.83,499Z"/><path class="cls-3" d="M616.17,581.53s0,0,0,0Z"/><path class="cls-3" d="M630.85,556.31a12.31,12.31,0,0,0-.41-1.41c-.11-.49-.63-1.9-.68-2.12s-.3-.41-.46-.76a18.73,18.73,0,0,1-.49-1.9,23.5,23.5,0,0,0-1.9-3.88c-.35-.3,0-.3,0-.54s-.38-.44-.38-.57a2.47,2.47,0,0,0-.19-.79c-.16-.46-.41-.49-.57-1s-.32-1.46-.38-1.63-1.38-3-1.5-3.25-.31-.47-.35-.57a16.94,16.94,0,0,0-1.79-.77,4.9,4.9,0,0,0,.14-.69c0-.16.1-.73.1-.73s.2-.22.26-.22.39-.14.39-.2a3.1,3.1,0,0,0-.41-.47l-.24-.65c.1-1.18-1.65-2.18-1.65-2.18l-.29-.31a2.61,2.61,0,0,0-3.09.57c-1.47.36-1.52,3.19-1.52,3.19l.34.06v.63a1.1,1.1,0,0,1-.38.23,1.8,1.8,0,0,0-.52.25,3,3,0,0,1-.73.25c-.34.1-1.53.49-1.53.49l-1,.3a6.34,6.34,0,0,0-1.14.44,1.85,1.85,0,0,0-.73.49c-.35.3-.27.38-.68.81s-.27.54-.27.54a2.7,2.7,0,0,1-1,.41c-.81.25,0,0-.27.3a2.26,2.26,0,0,1-.32.33,2.84,2.84,0,0,1-.6.3c-.46.19-.46.11-.6.27s-.52.25-.84.44a3,3,0,0,1-.84.24,4.14,4.14,0,0,1-.68.22,4,4,0,0,0-.81.27c-.33.13-.73.27-1.52.57s-.57.16-.73.24a.24.24,0,0,0-.11.27l-2.69.68c-.41.11-1.19.05-1.55.11s-1.71.24-2,.35.16-.08-.81.16-1.87.71-2.31.79c0,0-.3,0-.3.11s.27.52.08.73a.87.87,0,0,0-.22.41,2.24,2.24,0,0,0,.22.87,1.46,1.46,0,0,0,.43.65c.22.13.25.33.66.35s.19.22.41.3.62-.3.68-.38,1.3-.76,1.38-.87a4.16,4.16,0,0,1,.76-.43c.3-.17.84-.49,1-.57a2,2,0,0,1,.6-.27l1.09-.17c.19,0,2.8-.32,2.93-.38a3.57,3.57,0,0,1,.79,0l.79.19,1.27-.24,1-.19a3,3,0,0,1,.62-.24c.14,0,1,0,1.17-.3a1.31,1.31,0,0,1,1-.38,1.66,1.66,0,0,0,.95-.35,2.45,2.45,0,0,0,1-1c.3-.49,2.31-.95,2.25-.57a15.7,15.7,0,0,0,.27,2.6,11.81,11.81,0,0,1,.46,2c-.05.38.79,3.06.76,3.72s.71,1.68.49,1.84-.38.9-.57,1.3.68.44.41.76,0,1.09-.22,1.66a17.54,17.54,0,0,0-.19,2.63c-.08.9-.14,3.42-.19,3.77a4,4,0,0,0,.92,2.09c.52.57.33,4.26.41,4.69s.82,3.39.82,3.39.16,1.06.22,1.9,0,.95.11,1.22.35,1.19.65,1.84a5.66,5.66,0,0,1,.44,1,5,5,0,0,1,0,1.44,2.39,2.39,0,0,1-.07.51.18.18,0,0,1,0,.06c.05.25.19.38.08.46s-.35.27-.62.46-.19.24-.41.43-.32.25-.35.33a5.62,5.62,0,0,1-1.33.57c-.57.19-.35.3-.38.49a9.17,9.17,0,0,0,2.53.28c.35,0,4,.16,4.21.13s.35,0,.35.17.43.11.62.16,5.59.22,5.67.22.16-.17.16-.55.33-.41-.71-.68-.79-.35-.9-.46-.87-.71-1.19-.93-.27-.27-.24-.38a2.14,2.14,0,0,0,0-.84,5.23,5.23,0,0,1-.19-.92c0-.14.11-1.68.11-1.68a5.4,5.4,0,0,1,.14-1,3.47,3.47,0,0,0,.05-1c0-.49-.08-2.17-.08-2.06s.27-2.93.27-2.93l-.08-.52a3.92,3.92,0,0,0,.24-1.6c-.05-.9.14-.57,0-.87s.05-.87.33-1.28a20.85,20.85,0,0,0,.49-3.66,12.53,12.53,0,0,1,0-1.33,25.79,25.79,0,0,0-.16-2.61,7.55,7.55,0,0,0,.33-1.46,11.61,11.61,0,0,0-.68-3.88c-.19-.49.14-.73.19-1a3.67,3.67,0,0,0-.57-1.38,7.79,7.79,0,0,1-.38-2,12.07,12.07,0,0,1-.05-2.22c0-.92-.22-2.28-.22-2.36s.3.81.51,1.14a3.63,3.63,0,0,1,.54,1.27,8.59,8.59,0,0,0,.92,1.77,9.94,9.94,0,0,0,1.14,1.68s.32.32.62.65a3.6,3.6,0,0,1,.65.84c0,.14.43,1.92.43,2a4.62,4.62,0,0,1-.14,1c-.11.35-.35-.27-.3,1.11s.63.43.63.43.27-.38.38-.38.16.55.19.73a.79.79,0,0,1-.14.44,2.73,2.73,0,0,0-.3.22c-.16.13,0,.16.24.22s0,0-.08.08a1.34,1.34,0,0,1-.35.22c-.24.14.06.33.27.38a1.47,1.47,0,0,0,1-.1,2.51,2.51,0,0,0,.46-.63c.14-.19.87-1.36.79-1.63A3.56,3.56,0,0,1,630.85,556.31Zm-10.72,17.12a3.06,3.06,0,0,0,.11,1.43c.19.49-.07.93,0,1.38a2.55,2.55,0,0,1,0,.81c0,.2-.45.45-.49.29a2.82,2.82,0,0,0-.29-.53l-.28-.69a1.69,1.69,0,0,1-.21-.57c0-.21,0-1.06-.08-1.43a10.16,10.16,0,0,0-.21-1,10.88,10.88,0,0,1-.49-2.36,1.74,1.74,0,0,0,.09-1.26.54.54,0,0,1,0-.61v-.65l.2-1.14.29-1.18s.33-1,.41-1.38l.14-.61s.19,1.46.19,2.2a4.37,4.37,0,0,0,.33,1.55c.12.41,0,.41-.08.85s-.24.65-.12,1.06a6.52,6.52,0,0,0,.71,1.59c.35.53-.22.77-.22,1.26S620.17,573.1,620.13,573.43Z"/><path class="cls-3" d="M725.92,583.1l0,.5s-2.08.27-2.25.22-.59-.45-.67-.43a1.2,1.2,0,0,0-.23.15,2.12,2.12,0,0,0-.33.35.82.82,0,0,1-.07.13l-18.48,2.38-.88-.51-.29.25h-.83l.15,39.44s.84.2.92,0-.06-11.34-.06-11.34h1.33s1.48.38,1.74-.9l-.06-23.77.45-.28,15-1.12.29.11-.11,26.1a1.68,1.68,0,0,0,1.34,1.88c1.54.29,2.51.51,2.51.51v6.31l-.09,7.33a1,1,0,0,0,1.12,0l.62-47.3S726.25,582.86,725.92,583.1Zm-23.11,4.53.09-.18,2.41-.37v7.77l-.24.22H702.9l-.09-.13Zm0,8,.24-.16h2.16l.18.16.09,8.75-.17.24H703.1l-.29-.24Zm2.67,17.18c0,.06-.13.71-.48.84l-2.1-.16-.09-.18v-8.15a2.37,2.37,0,0,1,.28-.24l2,.12.42.21S705.5,612.78,705.48,612.83Zm7.44-24.6s-.09.12-.12.13l-6.36.53h-.31l-.18-.12v-1.69l.36-.17,6.47-.71.15.1Zm8.62-1a.52.52,0,0,0,0,.17l-.51.2-7.23.59h-.35l-.08-2,.26-.16,7.76-.89s.17.23.16.27S721.56,587.26,721.54,587.28Zm3.93,28.49a2.06,2.06,0,0,1-.33.13l-2-.18a2.07,2.07,0,0,1-.93-.88c-.15-.44-.17-9-.17-9a1.78,1.78,0,0,1,.26-.16l3.13.08.15.08Zm.15-10.63h-3.07l-.37-.18V595l.07-.18a21.41,21.41,0,0,1,3.35-.24l.15.17Zm.18-11.31-.64.31h-2.75l-.23-.22.11-8.33.12-.45,3.23-.3h.26Z"/><path class="cls-3" d="M745.61,587.92l0,.44s-1.8.23-1.95.19-.51-.39-.58-.37a1,1,0,0,0-.2.13,1.7,1.7,0,0,0-.29.3.58.58,0,0,1-.06.11l-16,2.06-.76-.44-.25.22h-.72l.13,34.17s.73.17.79,0-.05-9.82-.05-9.82h1.15s1.28.32,1.51-.78l-.06-20.59.39-.25,13-1,.25.1L741.8,615a1.45,1.45,0,0,0,1.16,1.63c1.33.25,2.17.44,2.17.44v5.46L745,628.9a.87.87,0,0,0,1,0l.54-41S745.89,587.72,745.61,587.92Zm-20,3.93.08-.16,2.09-.32v6.73l-.21.19h-1.89l-.08-.11Zm0,7,.21-.14h1.87l.16.14.08,7.58-.14.21h-1.92l-.25-.21Zm2.31,14.88s-.11.62-.41.73l-1.82-.14-.08-.16V607a2,2,0,0,1,.24-.21l1.71.1.36.18S727.91,613.63,727.9,613.68Zm6.44-21.31a.28.28,0,0,1-.1.11l-5.51.46h-.27l-.16-.1v-1.46l.31-.15,5.6-.62.13.09Zm7.47-.82a.46.46,0,0,0,0,.14l-.44.17-6.27.51h-.3l-.07-1.7.22-.13,6.72-.77s.15.2.14.23S741.83,591.52,741.81,591.55Zm3.41,24.69a1.82,1.82,0,0,1-.29.11l-1.74-.16a1.8,1.8,0,0,1-.81-.76c-.13-.38-.14-7.76-.14-7.76a1.64,1.64,0,0,1,.22-.14l2.71.07.13.07Zm.13-9.2h-2.66l-.32-.16v-8.62l.06-.16a18.59,18.59,0,0,1,2.91-.21l.13.15Zm.16-9.8-.55.27h-2.39l-.2-.19.1-7.22.1-.39,2.8-.26h.22Z"/><path class="cls-3" d="M740.56,588.59c-.73-.07-.68.15-1,0s-15-4.09-15-4.09l-.88-.63a4.73,4.73,0,0,0-.63,1.09c0,.18.41.39.44.49s.12.24.22.15a1,1,0,0,1,.29-.17l.19.15a.3.3,0,0,0,.27.07c.15,0,3.1.61,3.1.61L711.29,588l-5.34-.9a7.23,7.23,0,0,0-1-.17l-1.41,0-.37.16a4.76,4.76,0,0,0,.41.68,5,5,0,0,0,.5.07l1.54-.06,19.26,3.34.9-.39-1.15-.34-.66-.15,13.66-1.46.83.1.27.22.28,0,2.11,0S741.29,588.67,740.56,588.59Zm-18.93,1.22-8.83-1.45L728,587a8,8,0,0,0,1-.2l.32-.14,6.83,1.69Z"/><path class="cls-3" d="M702.69,591.3h.52s.07,0,.12.1a1.94,1.94,0,0,1,.08.23l.14.1.35.49,21,22s.21.53.15.49-.33-.27-.33-.27L714.07,603.3s-10.33-10.79-10.43-10.8-.17,0-.28-.08-.1-.21-.19-.29-.13-.18-.19-.18-.32.23-.35,0A2.87,2.87,0,0,1,702.69,591.3Z"/><path class="cls-3" d="M724.77,595l-22,24.88s-.09.54-.12.63-.19.24,0,.22a.47.47,0,0,0,.3-.24s.25-.12.25,0,0,.47.12.3.29-.27.24-.39a2.68,2.68,0,0,1-.1-.37l21.46-24.59.19-.39Z"/><path class="cls-3" d="M745.69,593l-20.59,30.56h-.66s-.1-.24-.1,0V624l.22-.1.32-.07v.37h.21s.59.39.6,0a10.87,10.87,0,0,1,.67-1.93l18.93-28.17.4-.19.24-.49Z"/><path class="cls-3" d="M726.09,591.3c-.09-.13-1.12-.2-1,0s-.49.33,0,.44l.49.11.51.38,18.09,33.27a1.77,1.77,0,0,0,0,.38s0,0,.07.06.09.06.16,0,.12,0,.12-.08,0-.1,0-.1l.34,0,.2.17s.35.35.31,0,0-.55,0-.55-.37-.09-.47,0l-.26.13s-.24-.18-.24-.18L726.7,592S726.16,591.38,726.09,591.3Z"/><path class="cls-3" d="M707.22,586.8c.44,0,21,3.74,21,3.74l11.11-1s-20.33-4.81-20.84-4.37S707.22,586.8,707.22,586.8Z"/><path class="cls-3" d="M1416,583.1l0,.5s-2.08.27-2.25.22-.59-.45-.67-.43a1.2,1.2,0,0,0-.23.15,2.12,2.12,0,0,0-.33.35.82.82,0,0,1-.07.13l-18.48,2.38-.88-.51-.29.25h-.83l.15,39.44s.84.2.92,0-.06-11.34-.06-11.34h1.33s1.48.38,1.74-.9l-.06-23.77.45-.28,15-1.12.29.11-.11,26.1a1.68,1.68,0,0,0,1.34,1.88c1.54.29,2.51.51,2.51.51v6.31l-.09,7.33a1,1,0,0,0,1.12,0l.62-47.3S1416.3,582.86,1416,583.1Zm-23.11,4.53.09-.18,2.41-.37v7.77l-.24.22H1393l-.09-.13Zm0,8,.24-.16h2.16l.18.16.09,8.75-.17.24h-2.21l-.29-.24Zm2.67,17.18c0,.06-.13.71-.48.84l-2.1-.16-.09-.18v-8.15a2.37,2.37,0,0,1,.28-.24l2,.12.42.21S1395.55,612.78,1395.53,612.83Zm7.44-24.6s-.09.12-.12.13l-6.36.53h-.31l-.18-.12v-1.69l.36-.17,6.47-.71.15.1Zm8.62-1a.52.52,0,0,0,0,.17l-.51.2-7.23.59h-.35l-.08-2,.26-.16,7.76-.89s.17.23.16.27S1411.61,587.26,1411.59,587.28Zm3.93,28.49a2.06,2.06,0,0,1-.33.13l-2-.18a2.07,2.07,0,0,1-.93-.88c-.15-.44-.17-9-.17-9a1.78,1.78,0,0,1,.26-.16l3.13.08.15.08Zm.15-10.63h-3.07l-.37-.18V595l.07-.18a21.41,21.41,0,0,1,3.35-.24l.15.17Zm.18-11.31-.64.31h-2.75l-.23-.22.11-8.33.12-.45,3.23-.3h.26Z"/><path class="cls-3" d="M1435.66,587.92l0,.44s-1.8.23-1.95.19-.51-.39-.58-.37a1,1,0,0,0-.2.13,1.7,1.7,0,0,0-.29.3.58.58,0,0,1-.06.11l-16,2.06-.76-.44-.25.22h-.72l.13,34.17s.73.17.79,0-.05-9.82-.05-9.82h1.15s1.28.32,1.51-.78l-.06-20.59.39-.25,13-1,.25.1-.09,22.61a1.45,1.45,0,0,0,1.16,1.63c1.33.25,2.17.44,2.17.44v5.46l-.08,6.35a.87.87,0,0,0,1,0l.54-41S1435.94,587.72,1435.66,587.92Zm-20,3.93.08-.16,2.09-.32v6.73l-.21.19h-1.89l-.08-.11Zm0,7,.21-.14h1.87l.16.14.08,7.58-.14.21h-1.92l-.25-.21Zm2.31,14.88s-.11.62-.41.73l-1.82-.14-.08-.16V607a2,2,0,0,1,.24-.21l1.71.1.36.18S1418,613.63,1417.95,613.68Zm6.44-21.31a.28.28,0,0,1-.1.11l-5.51.46h-.27l-.16-.1v-1.46l.31-.15,5.6-.62.13.09Zm7.47-.82a.46.46,0,0,0,0,.14l-.44.17-6.27.51h-.3l-.07-1.7.22-.13,6.72-.77s.15.2.14.23S1431.88,591.52,1431.86,591.55Zm3.41,24.69a1.82,1.82,0,0,1-.29.11l-1.74-.16a1.8,1.8,0,0,1-.81-.76c-.13-.38-.14-7.76-.14-7.76a1.64,1.64,0,0,1,.22-.14l2.71.07.13.07Zm.13-9.2h-2.66l-.32-.16v-8.62l.06-.16a18.59,18.59,0,0,1,2.91-.21l.13.15Zm.16-9.8-.55.27h-2.39l-.2-.19.1-7.22.1-.39,2.8-.26h.22Z"/><path class="cls-3" d="M1430.61,588.59c-.73-.07-.68.15-1,0s-15-4.09-15-4.09l-.88-.63a4.73,4.73,0,0,0-.63,1.09c0,.18.41.39.44.49s.12.24.22.15a1,1,0,0,1,.29-.17l.19.15a.3.3,0,0,0,.27.07c.15,0,3.1.61,3.1.61L1401.34,588l-5.34-.9a7.23,7.23,0,0,0-1-.17l-1.41,0-.37.16a4.76,4.76,0,0,0,.41.68,5,5,0,0,0,.5.07l1.54-.06,19.26,3.34.9-.39-1.15-.34-.66-.15,13.66-1.46.83.1.27.22.28,0,2.11,0S1431.34,588.67,1430.61,588.59Zm-18.93,1.22-8.83-1.45L1418.1,587a8,8,0,0,0,1-.2l.32-.14,6.83,1.69Z"/><path class="cls-3" d="M1392.74,591.3h.52s.07,0,.12.1a1.94,1.94,0,0,1,.08.23l.14.1.35.49,21,22s.21.53.15.49-.33-.27-.33-.27l-10.68-11.11s-10.33-10.79-10.43-10.8-.17,0-.28-.08-.1-.21-.19-.29-.13-.18-.19-.18-.32.23-.35,0A2.87,2.87,0,0,1,1392.74,591.3Z"/><path class="cls-3" d="M1414.82,595l-22,24.88s-.09.54-.12.63-.19.24,0,.22a.47.47,0,0,0,.3-.24s.25-.12.25,0,0,.47.12.3.29-.27.24-.39a2.68,2.68,0,0,1-.1-.37l21.46-24.59.19-.39Z"/><path class="cls-3" d="M1435.74,593l-20.59,30.56h-.66s-.1-.24-.1,0V624l.22-.1.32-.07v.37h.21s.59.39.6,0a10.87,10.87,0,0,1,.67-1.93l18.93-28.17.4-.19.24-.49Z"/><path class="cls-3" d="M1416.14,591.3c-.09-.13-1.12-.2-1,0s-.49.33,0,.44l.49.11.51.38,18.09,33.27a1.77,1.77,0,0,0,0,.38s0,0,.07.06.09.06.16,0,.12,0,.12-.08,0-.1,0-.1l.34,0,.2.17s.35.35.31,0,0-.55,0-.55-.37-.09-.47,0l-.26.13s-.24-.18-.24-.18L1416.75,592S1416.21,591.38,1416.14,591.3Z"/><path class="cls-3" d="M1397.27,586.8c.44,0,21,3.74,21,3.74l11.11-1s-20.33-4.81-20.84-4.37S1397.27,586.8,1397.27,586.8Z"/></g></g><path class="cls-7" d="M1148.27,300.72l0-1.55.27-.83.08-.25.47-.88.32-.91h0l.16-1.41,0-.68,0-.48-.41-9.72-.36-1.89h0l0,0,5.35-.95,10.16-4.05,8.52-1.5,5.11-2.52,24.41-3.77,12.08,1.76,9.51-1.53,28.24,5.37,2,1,0,1.15,1.77.48.39.19,5.64,5.17,3.28,1.53,3.58,0,9.9-3.67,3.61-.77,30.28,1.47-.39,1.08-.19.41.54.8.62.54.74.22.8-.1.74-.25.12-.22,0-.32.3-.67.12-.54-.09-.67,0-.8.48-1,.41-.32,8.15-1.72,5.08-2.36.42-.45.5-1.21,1.11.29,1.91,1.34,3.53-6.81,2.75-2.78,3-2.21,8.25-4,1.5-1.22,4.1-4.2,1.41-.26,3.28,1.28,2,.38,5.31-1.12,1.61-.77,3.08-3.81,1.52-1.44-2.15-1.6.39-2.41,3.34-4.91-1-.64-.86.32-.74,1-.68,1.51-.56-2.5-.3-2.63.12-2.48.74-2.12-.54-1.35-.69-3-1.07-2.12-.11-.84V224l-.26-.8-.39-.52-1-.81-.45-.52-1.23-1.16-1.17-.55-.47-.77.9-1.74,1.05-1,3.89-1.9-.72,2.22-.41.71,2.16,1.55.87-1.55,3.44-2.93,1.22-1.71.33-1.35.09-1.36.56-1.65,1.05-1.07,2.6-.45,1.2-.65.92-1.32.19-1.23-.57-.9-1.32-.36-1.26.45-2.16,2.07-1.47.48h-4.9l-.48-.61.81-1.26,1.35-1.29,2.07-1.07,1.11-1.13.92-1.45.48-1.42-.77.06-.71.29-.66.49-.6.65.33-1.42.21-.36.59-.55-1.13-1.2-3.14.58-.68-1.49-5.14,2.59-.74,1.46-.27,1.26-.6.52-.72-.1-.57-.61-.12-.87.3-.71.21-.84-.39-1.26-1.41-1.36-1.38-.42-1.08-.78-.44-2.36.69-1.55,13.72-10.08,10.24-4.7,10.27-9.06.75-1,.42-.72,4.13-1.72.29-.2.32-.55.11-.72.08-.62.1-.36,5.1-3.42.84-1.53-.17-2-.54-2.05-1-1.57,0,0,1.55-1.83,1.34-1.58,4.33-6,9.59-8.85,9.65-8.91,9-8.34,5.65-5.23,11.09-6.84,4.27-1.15,1.32-.62,2-1.64,1.43-1.15.48-.27.8-.44,4.61-1.71,2.87-1.95,1.37-.47,1.43-.08,10,1.26,2.25,0,1.35.14,7.88-.05,7.88-.06,7.88-.05,7.86-.06,7.87-.05,7.88-.06,7.88-.05,7.88-.06,5.8,0,2.07,0,7.86-.05,7.87-.05,7.88-.06,7.88-.05h.72l3.05,0h0l.32,1.3L1600,96l.41,1.63.08.75,0,.88-.29,1.47-.29.92-.35.73-1.31,2.2-.3.65-.45,1.39-.13.67-.12,1.29,0,.69.14.74.36,1,.36.63.36.52,1.49,1.66.24.5.17.5.09.55,0,.76-.06.94-.27,1.59-.24,1-.74,2.27-.27,1.35-.11,2.5-.15,1.3-1.29,4.24-.14.67-.08.64.12,2.44.59,4,.24.95,1.11,2.43,3.35,5.74.77,1.76.47,1.62.08.66,0,1,0,1-.24,1.62-.39,1.84-.48,1.32-1.52,2.91-.26.62-.2.66,0,.79,0,.89,1.1,4.95L1602,171l0,2.16-.26,2.36-.3,1.18-.41.79-.86.64-.92.55-.87.66-.8.8-.33.51-.27.55-.15.62-.24,2.33-.32,1.48-2.72,8.85-.93,1.6-.19.67v.76l.35,1,.36.61,1,1.37.24.48.18.72.11,1-.09,3,.09,1.67.74,4.78.35,1.38.33.93.6.92.23.46.16.53.08.69,0,.85-.18,1.44-.47,1.71-.08.66.09.66,1.44,2.65.21.51.12.88,0,1.14-.15,2.29-.24,1.19-4.13,10.83-.23,1-.14,1.22,0,2.36.12,1.34.44,1.25.57,1.09.16.25.15.05.32-.08.87-.4.87-.65.38-.43.33-.49.22-.6.36-1.9.24-.56.33-.5.41-.36.47-.24.53-.14.56,0,.6,0,1.25.28.59.27.45.48.35.61,1.13,3.92.63.95.41.28.75.72.59.88,0,2.38,0,.81,0,2.26-.08,3.51-.09,4.56-.12,5.39-.12,6-.14,6.42-.14,6.63-.14,6.62-.12,6.4-.14,6-.11,5.36-.09,4.52-.08,3.48,0,2.24,0,.79,0,1.17-.23,1.75-.86,3.81-.63,1.58.95,5.52.84.05-.35,1.12-.68,2.53L1603,351l-2.07,7.75-2.06,7.74-2.06,7.73-2.07,7.71-2.06,7.71-2.07,7.7-2.06,7.69-1.05,3.91-.5,1.94,2.12,2.6-.32,4.91-.3,4.91-.32,4.92-.3,4.9-.32,4.92-.3,4.9-.32,4.9-.3,4.88-.32,4.9-.3,4.88-.32,4.88-.3,4.87-.32,4.88-.32,4.87-.3,4.87-.3,4.87-.14,2,1.46,2.59,1.1,1.94,1,1.82,1.19,1.74-1.25.95-3.85,2.4-4.78,3-4.39,2.74-3.47,2.16-1.11.75.44.75,1.89,3,1.92,3.08.27.3.36.26.18.18.27.33.39.9.23.72.36,1.17-.59.47h0l.14.35,0,.14-.23.57-.18.47-.28.42-1.38,2-.21.42h-1.71l-.95.18-.77.63-3.47,3.86h0l0,0-1,1.64h0l-.44,1.88-.09.11-.33.35h-.13l-.8,0-.92.12-.42.95-.24,2.39,0,0,1.14,1.34.59,1.35-2.52.24-2.87-.11-2.19.83-2.6-.09-.44-1.35v-.81l.51-1.1.11-.26.72-1.91.51-1.23,0-.06L1555,537l-.72-.54,1.88-4.57.68-4.36.32-1.2.8-3.1.16-1.41.09-.72h0l0-1.65,0-6.91-.3-4h0l-.83-3.61-.51-1.07-.27-.57-.21-.24-.72-.83-2.6-2.37-1.31-2.28.29-1.77.66-1.71-.13-1.68,0-.42-1.47,1.14-.59.63-.19.21-.11.21-.38.68-.23,1.49,0,.18.17.71.32.74,0,.12.22,1.37.36,2.19.38.93.2.47.83,1.68,0,0,1.58,1.16,1.14,1.55.09,1.88-.32,4.58,1.13,9,0,1.5,0,1.16-7.8-4.76-7.81-4.78-7.82-4.79-7.82-4.78-7.82-4.79-7.82-4.79-7.82-4.81-7.8-4.79-.44-2.09-1.22-2.27-.69-1-.62-1.71-.41-.81-.6-.35-.89.24-.78.38-.83,0-1-.93-1.53-1L1480,478l-1.91-.41-1.11-1-.78-1.17-1-1-3.52-.87-1.35-1.2-1.07-1.64-4-8.66-1-1-.23-1.08.5-5.46v-2.18l-1.07-4,.24-1,1.08-.9.24-1-.36-2.32-.95-1-1.38-.5-1.62-.9,1.82-2.28.32-1-1-.41-.75-.45-1.13-2-2.15-.8-1.73-1.49-1-.35-4.36.72-1.31-1-.45-2.34-.18-2.66-.47-2-1.67-1.17-2.46-1.17-1.89-1.47,0-1.41h-1l-1.76,0h-10.73l-10.73,0h-10.75l-10.73,0H1386l-10.73,0h-10.73l-10.75,0H1343l-10.75,0-10.73,0h-10.73l-10.75,0h-10.75l-10.73,0-10.73,0h-10.75l-10.73,0h-10.73l-10.75,0h-10.73l-10.75,0h-10.73l-10.75,0h-10.73l-10.75,0-10.73,0H1139l-10.75,0h-10.73l-10.75,0h-13.6v-12.9l0-3.1v-12.6l.89-.37,1.61-1.32,2.21-1.07,5.92-4.74,5.4-2.07,1.37-1.26,1.26-1.48,4.42-2.48,3.71-5.07,2.34-1.2.8-.88.68-1,.56-.69.81-.5,3.92-1.64,4.15-2.74,1.62-2.3,5.22-1.58,1-.57.42-.44.95-1.58,1.31-2.91.35-.44,1.68-.79,1.28-1.86,1.65-4,2.21-2.75,2.95-1.83,6.16-2.82,1.58-1.11,1.22-1.39.77-1.9.26-2.6v-2.5l-.15-.95-.44-1.36-1.67-3.23-.44-1.17-.59-4.76-.35-.6-1.47-1.4-.33-1,.66-2.41,2.75-3,.41-2.38-2.13-2.7-8.78-1.08-3.08-2.08v0"/></g></g></svg>