<svg xmlns="http://www.w3.org/2000/svg" xmlns:xlink="http://www.w3.org/1999/xlink" viewBox="0 0 1920 680"><defs><style>.cls-1{fill:none;}.cls-2{isolation:isolate;}.cls-3{fill:#0373b9;}.cls-4{clip-path:url(#clip-path);}.cls-5{opacity:0.32;mix-blend-mode:multiply;}.cls-6{fill:#231f20;}.cls-7{fill:#0087cd;}</style><clipPath id="clip-path"><rect class="cls-1" y="-0.28" width="1920" height="680.56"/></clipPath></defs><title>Washington</title><g class="cls-2"><g id="Layer_1" data-name="Layer 1"><rect class="cls-3" y="-0.28" width="1920" height="680"/><g class="cls-4"><g class="cls-5"><polygon class="cls-3" points="1433.3 628.77 1433.3 615.19 1440.59 622.47 1434.29 628.77 1433.3 628.77"/><polygon class="cls-3" points="1442.09 620.97 1435.59 614.47 1448.6 614.47 1442.09 620.97"/><polygon class="cls-3" points="1449.86 616.21 1449.86 628.73 1443.6 622.47 1449.86 616.21"/><polygon class="cls-3" points="1437.3 628.77 1442.09 623.98 1446.89 628.77 1437.3 628.77"/><polygon class="cls-3" points="1452 628.77 1452 615.18 1459.29 622.47 1452.99 628.77 1452 628.77"/><polygon class="cls-3" points="1460.79 620.97 1454.29 614.47 1467.29 614.47 1460.79 620.97"/><polygon class="cls-3" points="1468.57 616.2 1468.57 628.74 1462.29 622.47 1468.57 616.2"/><polygon class="cls-3" points="1456 628.77 1460.79 623.98 1465.58 628.77 1456 628.77"/><polygon class="cls-3" points="1470.7 628.77 1470.7 615.2 1477.98 622.47 1471.69 628.77 1470.7 628.77"/><polygon class="cls-3" points="1479.49 620.96 1473 614.47 1485.98 614.47 1479.49 620.96"/><polygon class="cls-3" points="1487.28 616.18 1487.28 628.76 1480.99 622.47 1487.28 616.18"/><polygon class="cls-3" points="1474.7 628.77 1479.49 623.98 1484.27 628.77 1474.7 628.77"/><path class="cls-3" d="M1430.71,613.56l48.06-3.8h-8.47a2.56,2.56,0,0,0,.15-.9c0-1.53-.07-2.49-.07-2.49v-2.87l4.17-3.91a1.88,1.88,0,0,0,.7-1.66c-.06-1.15.31-5.82.31-5.82l.51.13,1,1.41s1,.19,1.09-.26a14.29,14.29,0,0,0,.25-1.41l.45-3.9a11,11,0,0,0-.45-3.13,8.3,8.3,0,0,0-1.46-1.54l-.39-2.11s-.19-1-.83-.38v1.28h-.7l-.19-2.24s-.19-2.94-1.21-3.84a27,27,0,0,0-1.35-2.95,19.46,19.46,0,0,0-2.37-2.94s.84-6.14-1.21-8.13c-1.15-1.15-6-5-10.94.83a22.59,22.59,0,0,0-1.29,1.92l-.26.07a14.55,14.55,0,0,0-8.31,2.94c-1.73,1.79-4,4.16-5,4.54a27.84,27.84,0,0,0-2.81,2.81l-3.06,4.2a2.64,2.64,0,0,0-.09,2.78c.86,1.44,2.4,4.13,2.64,4.56s3.83,4.08,5.9,6.19a5.42,5.42,0,0,1,1.87,2c0,.29,1,2.21,1.44,2.35,0,0,.43,1.11-.29,1.44a1.67,1.67,0,0,0-.24.77c0,.14-1,3.64-1,3.64l-.7,1.2s-.77,3.24.46,5.44h-16.26m27.78-3.42a.71.71,0,0,1-.58-.39l.05-1.3.38-.43.72-1.11.77-1.39a7.17,7.17,0,0,0,.86-1,2.75,2.75,0,0,0,.58-1.49,17.52,17.52,0,0,0,1.73-2,6.82,6.82,0,0,1,.76-.82l.88.82s-1.06,3-1.3,3.5-.2.53-.2.53l.34,1.44v.48c-1.15.86-3.36,3-3.36,3S1458.89,606.34,1458.51,606.34Zm6,2.34a3,3,0,0,0-.21,1.09h-2.76c1.3-.76,3.17-2,3.17-2Z"/><polyline class="cls-3" points="910.6 626.82 913.29 624.12 915.99 626.82"/><polyline class="cls-3" points="918.76 626.82 914.68 622.74 920.45 616.97 920.45 626.82"/><polygon class="cls-3" points="919.27 615.38 913.3 621.35 907.32 615.38 919.27 615.38"/><polyline class="cls-3" points="905.22 626.82 905.22 616.04 911.91 622.74 907.83 626.82"/><polyline class="cls-3" points="927.82 626.82 930.52 624.12 933.22 626.82"/><polyline class="cls-3" points="935.99 626.82 931.9 622.74 937.67 616.97 937.67 626.82"/><polygon class="cls-3" points="936.5 615.38 930.52 621.35 924.54 615.38 936.5 615.38"/><polyline class="cls-3" points="922.44 626.82 922.44 616.04 929.14 622.74 925.05 626.82"/><polyline class="cls-3" points="945.04 626.82 947.74 624.12 950.44 626.82"/><polyline class="cls-3" points="953.21 626.82 949.13 622.74 954.89 616.97 954.89 626.82"/><polygon class="cls-3" points="953.72 615.38 947.74 621.35 941.77 615.38 953.72 615.38"/><polyline class="cls-3" points="939.66 626.82 939.66 616.04 946.36 622.74 942.28 626.82"/><polyline class="cls-3" points="962.27 626.82 964.97 624.12 967.67 626.82"/><polyline class="cls-3" points="970.43 626.82 966.35 622.74 972.12 616.97 972.12 626.82"/><polygon class="cls-3" points="970.94 615.38 964.97 621.35 958.99 615.38 970.94 615.38"/><polyline class="cls-3" points="956.89 626.82 956.89 616.04 963.58 622.74 959.5 626.82"/><polyline class="cls-3" points="979.49 626.82 982.19 624.12 984.89 626.82"/><polyline class="cls-3" points="987.66 626.82 983.58 622.74 989.34 616.97 989.34 626.82"/><polygon class="cls-3" points="988.17 615.38 982.19 621.35 976.22 615.38 988.17 615.38"/><polyline class="cls-3" points="974.11 626.82 974.11 616.04 980.81 622.74 976.73 626.82"/><polyline class="cls-3" points="996.72 626.82 999.41 624.12 1002.11 626.82"/><polyline class="cls-3" points="1004.88 626.82 1000.8 622.74 1006.57 616.97 1006.57 626.82"/><polygon class="cls-3" points="1005.39 615.38 999.42 621.35 993.44 615.38 1005.39 615.38"/><polyline class="cls-3" points="991.34 626.82 991.34 616.04 998.03 622.74 993.95 626.82"/><polyline class="cls-3" points="1013.94 626.82 1016.64 624.12 1019.34 626.82"/><polyline class="cls-3" points="1022.11 626.82 1018.02 622.74 1023.79 616.97 1023.79 626.82"/><polygon class="cls-3" points="1022.62 615.38 1016.64 621.35 1010.66 615.38 1022.62 615.38"/><polyline class="cls-3" points="1008.56 626.82 1008.56 616.04 1015.25 622.74 1011.17 626.82"/><polyline class="cls-3" points="1031.16 626.82 1033.86 624.12 1036.56 626.82"/><polyline class="cls-3" points="1039.33 626.82 1035.25 622.74 1041.01 616.97 1041.01 626.82"/><polygon class="cls-3" points="1039.84 615.38 1033.86 621.35 1027.89 615.38 1039.84 615.38"/><polyline class="cls-3" points="1025.78 626.82 1025.78 616.04 1032.48 622.74 1028.4 626.82"/><polyline class="cls-3" points="1048.39 626.82 1051.09 624.12 1053.79 626.82"/><polyline class="cls-3" points="1056.56 626.82 1052.47 622.74 1058.24 616.97 1058.24 626.82"/><polygon class="cls-3" points="1057.06 615.38 1051.09 621.35 1045.11 615.38 1057.06 615.38"/><polyline class="cls-3" points="1043.01 626.82 1043.01 616.04 1049.7 622.74 1045.62 626.82"/><polyline class="cls-3" points="1065.61 626.82 1068.31 624.12 1071.01 626.82"/><polyline class="cls-3" points="1073.78 626.82 1069.7 622.74 1075.46 616.97 1075.46 626.82"/><polygon class="cls-3" points="1074.29 615.38 1068.31 621.35 1062.34 615.38 1074.29 615.38"/><polyline class="cls-3" points="1060.23 626.82 1060.23 616.04 1066.93 622.74 1062.85 626.82"/><polyline class="cls-3" points="738.97 626.82 741.67 624.12 744.37 626.82"/><polyline class="cls-3" points="747.14 626.82 743.06 622.74 748.82 616.97 748.82 626.82"/><polygon class="cls-3" points="747.65 615.38 741.67 621.35 735.7 615.38 747.65 615.38"/><polyline class="cls-3" points="733.59 626.82 733.59 616.04 740.29 622.74 736.2 626.82"/><polyline class="cls-3" points="756.2 626.82 758.89 624.12 761.59 626.82"/><polyline class="cls-3" points="764.36 626.82 760.28 622.74 766.04 616.97 766.04 626.82"/><polygon class="cls-3" points="764.87 615.38 758.89 621.35 752.92 615.38 764.87 615.38"/><polyline class="cls-3" points="750.82 626.82 750.82 616.04 757.51 622.74 753.43 626.82"/><polyline class="cls-3" points="773.42 626.82 776.12 624.12 778.82 626.82"/><polyline class="cls-3" points="781.59 626.82 777.5 622.74 783.27 616.97 783.27 626.82"/><polygon class="cls-3" points="782.1 615.38 776.12 621.35 770.14 615.38 782.1 615.38"/><polyline class="cls-3" points="768.04 626.82 768.04 616.04 774.73 622.74 770.65 626.82"/><polyline class="cls-3" points="790.64 626.82 793.34 624.12 796.04 626.82"/><polyline class="cls-3" points="798.81 626.82 794.73 622.74 800.49 616.97 800.49 626.82"/><polygon class="cls-3" points="799.32 615.38 793.34 621.35 787.37 615.38 799.32 615.38"/><polyline class="cls-3" points="785.26 626.82 785.26 616.04 791.96 622.74 787.88 626.82"/><polyline class="cls-3" points="807.87 626.82 810.56 624.12 813.26 626.82"/><polyline class="cls-3" points="816.03 626.82 811.95 622.74 817.72 616.97 817.72 626.82"/><polygon class="cls-3" points="816.54 615.38 810.57 621.35 804.59 615.38 816.54 615.38"/><polyline class="cls-3" points="802.49 626.82 802.49 616.04 809.18 622.74 805.1 626.82"/><polyline class="cls-3" points="825.09 626.82 827.79 624.12 830.49 626.82"/><polyline class="cls-3" points="833.26 626.82 829.18 622.74 834.94 616.97 834.94 626.82"/><polygon class="cls-3" points="833.77 615.38 827.79 621.35 821.82 615.38 833.77 615.38"/><polyline class="cls-3" points="819.71 626.82 819.71 616.04 826.41 622.74 822.32 626.82"/><polyline class="cls-3" points="842.31 626.82 845.01 624.12 847.71 626.82"/><polyline class="cls-3" points="850.48 626.82 846.4 622.74 852.16 616.97 852.16 626.82"/><polygon class="cls-3" points="850.99 615.38 845.01 621.35 839.04 615.38 850.99 615.38"/><polyline class="cls-3" points="836.93 626.82 836.93 616.04 843.63 622.74 839.55 626.82"/><polyline class="cls-3" points="859.54 626.82 862.24 624.12 864.94 626.82"/><polyline class="cls-3" points="867.71 626.82 863.62 622.74 869.39 616.97 869.39 626.82"/><polygon class="cls-3" points="868.22 615.38 862.24 621.35 856.26 615.38 868.22 615.38"/><polyline class="cls-3" points="854.16 626.82 854.16 616.04 860.85 622.74 856.77 626.82"/><polyline class="cls-3" points="876.76 626.82 879.46 624.12 882.16 626.82"/><polyline class="cls-3" points="884.93 626.82 880.85 622.74 886.61 616.97 886.61 626.82"/><polygon class="cls-3" points="885.44 615.38 879.46 621.35 873.49 615.38 885.44 615.38"/><polyline class="cls-3" points="871.38 626.82 871.38 616.04 878.08 622.74 874 626.82"/><polyline class="cls-3" points="893.99 626.82 896.68 624.12 899.38 626.82"/><polyline class="cls-3" points="902.15 626.82 898.07 622.74 903.84 616.97 903.84 626.82"/><polygon class="cls-3" points="902.66 615.38 896.69 621.35 890.71 615.38 902.66 615.38"/><polyline class="cls-3" points="888.61 626.82 888.61 616.04 895.3 622.74 891.22 626.82"/><polyline class="cls-3" points="1232.52 626.82 1235.21 624.12 1237.91 626.82"/><polyline class="cls-3" points="1240.68 626.82 1236.6 622.74 1242.37 616.97 1242.37 626.82"/><polygon class="cls-3" points="1241.19 615.38 1235.22 621.35 1229.24 615.38 1241.19 615.38"/><polyline class="cls-3" points="1227.14 626.82 1227.14 616.04 1233.83 622.74 1229.75 626.82"/><polyline class="cls-3" points="1249.74 626.82 1252.44 624.12 1255.14 626.82"/><polyline class="cls-3" points="1257.91 626.82 1253.83 622.74 1259.59 616.97 1259.59 626.82"/><polygon class="cls-3" points="1258.42 615.38 1252.44 621.35 1246.46 615.38 1258.42 615.38"/><polyline class="cls-3" points="1244.36 626.82 1244.36 616.04 1251.06 622.74 1246.97 626.82"/><polyline class="cls-3" points="1266.96 626.82 1269.66 624.12 1272.36 626.82"/><polyline class="cls-3" points="1275.13 626.82 1271.05 622.74 1276.81 616.97 1276.81 626.82"/><polygon class="cls-3" points="1275.64 615.38 1269.66 621.35 1263.69 615.38 1275.64 615.38"/><polyline class="cls-3" points="1261.58 626.82 1261.58 616.04 1268.28 622.74 1264.2 626.82"/><polyline class="cls-3" points="1284.19 626.82 1286.88 624.12 1289.59 626.82"/><polyline class="cls-3" points="1292.36 626.82 1288.27 622.74 1294.04 616.97 1294.04 626.82"/><polygon class="cls-3" points="1292.86 615.38 1286.89 621.35 1280.91 615.38 1292.86 615.38"/><polyline class="cls-3" points="1278.81 626.82 1278.81 616.04 1285.5 622.74 1281.42 626.82"/><polyline class="cls-3" points="1301.41 626.82 1304.11 624.12 1306.81 626.82"/><polyline class="cls-3" points="1309.58 626.82 1305.5 622.74 1311.26 616.97 1311.26 626.82"/><polygon class="cls-3" points="1310.09 615.38 1304.11 621.35 1298.14 615.38 1310.09 615.38"/><polyline class="cls-3" points="1296.03 626.82 1296.03 616.04 1302.73 622.74 1298.64 626.82"/><polyline class="cls-3" points="1318.63 626.82 1321.33 624.12 1324.03 626.82"/><polyline class="cls-3" points="1326.8 626.82 1322.72 622.74 1328.49 616.97 1328.49 626.82"/><polygon class="cls-3" points="1327.31 615.38 1321.34 621.35 1315.36 615.38 1327.31 615.38"/><polyline class="cls-3" points="1313.26 626.82 1313.26 616.04 1319.95 622.74 1315.87 626.82"/><polyline class="cls-3" points="1335.86 626.82 1338.56 624.12 1341.26 626.82"/><polyline class="cls-3" points="1344.03 626.82 1339.94 622.74 1345.71 616.97 1345.71 626.82"/><polygon class="cls-3" points="1344.54 615.38 1338.56 621.35 1332.58 615.38 1344.54 615.38"/><polyline class="cls-3" points="1330.48 626.82 1330.48 616.04 1337.17 622.74 1333.09 626.82"/><polyline class="cls-3" points="1353.08 626.82 1355.78 624.12 1358.48 626.82"/><polyline class="cls-3" points="1361.25 626.82 1357.17 622.74 1362.93 616.97 1362.93 626.82"/><polygon class="cls-3" points="1361.76 615.38 1355.78 621.35 1349.81 615.38 1361.76 615.38"/><polyline class="cls-3" points="1347.7 626.82 1347.7 616.04 1354.4 622.74 1350.32 626.82"/><polyline class="cls-3" points="1370.31 626.82 1373.01 624.12 1375.7 626.82"/><polyline class="cls-3" points="1378.47 626.82 1374.39 622.74 1380.16 616.97 1380.16 626.82"/><polygon class="cls-3" points="1378.98 615.38 1373.01 621.35 1367.03 615.38 1378.98 615.38"/><polyline class="cls-3" points="1364.93 626.82 1364.93 616.04 1371.62 622.74 1367.54 626.82"/><polyline class="cls-3" points="1387.53 626.82 1390.23 624.12 1392.93 626.82"/><polyline class="cls-3" points="1395.7 626.82 1391.62 622.74 1397.38 616.97 1397.38 626.82"/><polygon class="cls-3" points="1396.21 615.38 1390.23 621.35 1384.26 615.38 1396.21 615.38"/><polyline class="cls-3" points="1382.15 626.82 1382.15 616.04 1388.85 622.74 1384.76 626.82"/><path class="cls-3" d="M1129.81,615.14l-6.5,6.5-4.37-4.37a4,4,0,0,0,1.64-2.13Z"/><path class="cls-3" d="M1138.41,615.14a67.48,67.48,0,0,0,5,5.06l-1.44,1.44-6.5-6.5Z"/><polyline class="cls-3" points="1137.22 629.44 1142.01 624.65 1146.8 629.44"/><path class="cls-3" d="M1149.8,629.43l-6.29-6.29,1.53-1.53c1.53,1.29,3.12,2.5,4.75,3.65v4.17"/><polyline class="cls-3" points="1133.23 629.44 1133.23 615.87 1140.51 623.15 1134.21 629.44"/><path class="cls-3" d="M1095.83,629.44v-9.3a3.46,3.46,0,0,0,3.59-.69l3.7,3.7-6.29,6.29"/><path class="cls-3" d="M1103.51,615.14a23.57,23.57,0,0,0,5.47,1.63l.44.07-4.8,4.8-4.23-4.23c0-.19.1-.36.14-.57l.79-1.47,0-.23Z"/><path class="cls-3" d="M1112.39,629.41l-6.27-6.26,5.79-5.79.47.12v11.93"/><polyline class="cls-3" points="1099.83 629.44 1104.62 624.65 1109.41 629.44"/><path class="cls-3" d="M1114.53,629.44V618.12l.71.25a9.06,9.06,0,0,0,1.58-.21l5,5-6.29,6.29"/><polyline class="cls-3" points="1118.53 629.44 1123.31 624.65 1128.1 629.44"/><polyline class="cls-3" points="1131.09 629.4 1124.82 623.14 1131.09 616.88 1131.09 629.4"/><path class="cls-3" d="M1093.7,629.4l-6.26-6.26,4.77-4.77a13.93,13.93,0,0,0,1.49.9V629.4"/><polyline class="cls-3" points="1081.14 629.44 1085.93 624.65 1090.71 629.44"/><path class="cls-3" d="M1122.49,586.92l-3,.48-1.71-.89-1-1.69c-.31-.56-5.13-5.64-5.13-5.64l1.23-1.41.07-.51-4.84-7s-1.46-4.77-10.68-5.32l-1.21.23.14-1s1.71,0,.95-1.19a15,15,0,0,1,.34-2.57s-.1-4.32-2.07-6.15l-.3-.69s3.08-1.56.85-1.46l-1.47.2s-1.3-3-6.11-3.29c-1.87.29-7.32,3-4.68,9.72-.16.23-1.18,3-.22,2.71a7.39,7.39,0,0,0,1.51-.58l1.34,1.74,1.38,2.4-1.07,1.17s-2.36,1-4.16,1.81-4.9,4.45-5.29,7.41a42.33,42.33,0,0,1-2,7.32s-.67,1.09,2.18,1.34v2.88s-.26,3,1.59,2.83c.81-.16,3.87,2.46,3.87,2.46l.16,4.74s-2.51,5.16,1,6.86a1.24,1.24,0,0,0-.09.19,3.17,3.17,0,0,0,.68,2.83,4.25,4.25,0,0,1,.83,2.65l-.65,1.92,6.32,14.92,60.22.58C1144.92,621.84,1120.42,579.94,1122.49,586.92Zm-34,24.43.76-1.49,1.41,1.49Zm22.36-23-2.1.1-2.29.48.1-.76a21.87,21.87,0,0,0-.62-4.27,4.57,4.57,0,0,1,.27-3l1.45.85,3.72,5.59Zm9.32,23c-1.5-3.76-2.35-5.38-2.35-5.38a12.64,12.64,0,0,0-5.54-5.64s1.68-.89,1.84-2a10.17,10.17,0,0,0-.07-2.5l1.69-1,.57-.31.65,0a2.76,2.76,0,0,0,1.72,1.79c1.4.44,3.48-.59,3.51-1.76a10.4,10.4,0,0,0-.14-2l-1.26-1.34a1.52,1.52,0,0,1,1.09-.38,17.49,17.49,0,0,0,2.13-.32,73.27,73.27,0,0,0,11.19,20.87Z"/><polygon class="cls-3" points="1091.65 615.14 1091.75 615.82 1085.93 621.63 1079.43 615.14 1091.65 615.14"/><polyline class="cls-3" points="1077.14 629.44 1077.14 615.87 1084.42 623.15 1078.13 629.44"/><line class="cls-3" x1="1075" y1="629.4" x2="1068.73" y2="623.14"/><path class="cls-3" d="M500.39,627.11H527.8V582.84a2.74,2.74,0,0,1,.42.3l.84,1.69-1,1.24,1.93,1.81-.5.88s-.18.43.25.5a10.21,10.21,0,0,1,2.05,1.49,2.46,2.46,0,0,1,1,.87,23.53,23.53,0,0,0,1.81,2.25s.75.62,1.18.13a13.19,13.19,0,0,1,2-1.43l1.07-.75a2.2,2.2,0,0,0,1.3.68s.94,2.63,1.62,4.25,1.69,1.56,1.69,2.43-.75,3.3.81,3.74l-1.62,1.69a3.91,3.91,0,0,0-.69,2.06v1.12l-2.11,2.87-.57.94a2.82,2.82,0,0,0-1.18,1.74c-.13.75-.37.88-.37.88s-.75,1.75-1.12,2.49-2.68,4-2.68,4L532.78,623l-1.06.56s-1.12,1.19-1.06,1.93l-.32.13a2.18,2.18,0,0,0-2.11.81,5.93,5.93,0,0,0-.33.63h9.29l2.07-2.07,3.68-4.61a10.4,10.4,0,0,0,2.18,1.87l-.31,1.19s-1.12.55-1.37,1.06c-.5,0-2.86-.25-3.49.81-.06.62-.13,1.37-.13,1.37a.62.62,0,0,0,.14.39h12.85a1.43,1.43,0,0,0,0-.63,11.84,11.84,0,0,0-.56-2.18,19.55,19.55,0,0,0-1.06-3.25c-.31-.31-.25-1.23-.25-1.23a2.2,2.2,0,0,0-.31-2.37,17.43,17.43,0,0,1-.49-3.8s1-1.25,2.18-2.5,3.62-3.74,6.17-4.55c1.75-.31,5.61-2.06,6.42-6-.05-2.62-.31-5.68-.31-5.68a4.44,4.44,0,0,0-.74-1.94,35.86,35.86,0,0,1-1.62-3.61s-.19-1.37-.81-1.5c-.68-.31-.75-1.31-.93-1.44s-.75-.75-1.06-.93-1.24-.88-1.24-.88-1.81-1.67-2.31-2.18-2.37-2.49-2.37-2.49a8.77,8.77,0,0,0-2.69-1.56,26.91,26.91,0,0,0-3.12-1.93,3.55,3.55,0,0,1-1.31-.81,4.22,4.22,0,0,0-1.37-.44c-.68-.06-.5-1.42-.5-1.42a25.12,25.12,0,0,0-.5-3.12s1-2-.93-2.19c-.62-.68-1.69-2.55-6.18-2-.87.25-4.55,1.93-3.93,7.23a16.91,16.91,0,0,0,.56,1.81s-1.49,1.93-.87,2.43a4.65,4.65,0,0,0,3,.43l.31.74.12.57a.3.3,0,0,0,.53,0l.22-.18.34.59a6.89,6.89,0,0,0-.71,1.68c-.06.53-.6,2.31-.6,2.31s-.74,2-1.24,1.84a8.8,8.8,0,0,1-2.56-2.39,18.16,18.16,0,0,0-1.78-2.16,8.65,8.65,0,0,0-.31-2.36c-.06-.63.31-1.09-1-2-.34-.09-1.4-.19-1.21.44h-.05v-12a81.9,81.9,0,0,1,.94-12.77"/><rect class="cls-1" x="191.51" y="571.74" width="6.82" height="10"/><rect class="cls-1" x="191.51" y="582.86" width="6.82" height="1.14"/><rect class="cls-1" x="191.51" y="585.12" width="6.82" height="10"/><rect class="cls-1" x="191.51" y="609.59" width="6.82" height="1.15"/><rect class="cls-1" x="191.51" y="596.23" width="6.82" height="1.15"/><rect class="cls-1" x="191.51" y="569.48" width="6.82" height="1.15"/><rect class="cls-1" x="191.51" y="598.49" width="6.82" height="10"/><path class="cls-1" d="M235.37,600.78h4.35l.32-1.16h-4.67Z"/><rect class="cls-1" x="191.51" y="611.86" width="6.82" height="10"/><path class="cls-1" d="M241.82,586.25h-6.44v1.15h6.36C241.76,587,241.78,586.64,241.82,586.25Z"/><polygon class="cls-1" points="215.57 372.86 213.09 374.79 212.27 376.98 212.97 380.4 216.54 377.83 215.57 372.86"/><path class="cls-1" d="M241.66,590.67c0-.52,0-1.29,0-2.16h-6.31v10h5a22.81,22.81,0,0,1,1.12-3.15S241.66,592.35,241.66,590.67Z"/><path class="cls-1" d="M235.37,611.89H237c.25-1.07.5-2.13.68-2.84.28-1.08,1-4.15,1.79-7.16h-4.05Z"/><path class="cls-1" d="M235.37,620a1.33,1.33,0,0,0,.08-.15c.09-.28.52-3.76.52-3.76l.19-.83h-.79Z"/><path class="cls-1" d="M235.37,614.15h1.05l.27-1.15h-1.32Z"/><polygon class="cls-1" points="214.7 370.47 215.06 370.22 214.97 369.77 214.7 370.47"/><polygon class="cls-1" points="221.01 353.63 217.46 363.13 218.61 369.45 218.34 367.9 223.25 363.91 225.03 358.52 223.35 351.1 221.01 353.63"/><polygon class="cls-1" points="219.6 374.95 221.62 368.85 218.85 370.81 219.6 374.95"/><polygon class="cls-1" points="226.41 347.81 227.4 351.38 228.71 347.39 227.22 346.93 226.41 347.81"/><polygon class="cls-1" points="222.4 346.85 221.25 349.22 221.9 348.61 222.46 347.13 222.4 346.85"/><path class="cls-1" d="M235.37,585.14h6.57a13.13,13.13,0,0,1,.25-1.33v-.91l-.54.17.54-1.46v-6.46h-6.82Z"/><rect class="cls-1" x="191.51" y="622.98" width="6.82" height="1.14"/><polygon class="cls-1" points="214.85 389.49 217.62 381.43 213.66 383.76 214.85 389.49"/><polygon class="cls-1" points="216.6 358.41 217.13 361.33 219.34 355.45 216.6 358.41"/><path class="cls-1" d="M131.32,585.7l-3.9,9.32,1.2-.44,5-5.63,7.25-14.16Z"/><polygon class="cls-1" points="225.66 345.05 231.42 339.6 239.88 313.8 236.93 311.69 238.62 312.91 227.81 335.55 225.06 342.86 225.66 345.05"/><path class="cls-1" d="M158.38,487.73l-1.94-1.14-20.22,23.7c1.21,1.24,2,2.64,1.33,3.84h.08l-.19.21a2.12,2.12,0,0,1-.26.35h-.08l-13,13.5,13,25.89Z"/><rect class="cls-1" x="191.51" y="625.23" width="6.82" height="0.12"/><path class="cls-1" d="M132.17,507.47l.1,0,21-24.42s-2.47-6.09,4.75-6.94a3.87,3.87,0,0,1,3.7,1.26l32.9-82.89.51.2.82-2.36-.33-.14,25.68-57.09L82.86,519.84a7.21,7.21,0,0,1,.52.8l29.45-.34a30.63,30.63,0,0,1,3.11.78c6.3-7,11.49-12.83,12.14-13.56C128.48,507,129.54,506.33,132.17,507.47Z"/><path class="cls-1" d="M227.5,321.31,79.95,517.9a4.19,4.19,0,0,1,2.3,1.21L223,331.23Z"/><path class="cls-1" d="M241.72,623.42c-.4.24-1,.86-1,1.06s0,.44,0,.78h1.45v-2.32A2.59,2.59,0,0,1,241.72,623.42Z"/><rect class="cls-1" x="278.86" y="528.8" width="6.82" height="10"/><rect class="cls-1" x="278.86" y="542.17" width="6.82" height="9.99"/><rect class="cls-1" x="278.86" y="539.9" width="6.82" height="1.15"/><path class="cls-1" d="M278.86,554.43h.29c.16-.25.56-.46,1.57-.26a.89.89,0,0,1,.3.26h4.67v-1.15h-6.82Z"/><path class="cls-1" d="M281.5,558.67s-.25,1.79-.25,2.25l.43.76s-.18.94-.43,2.45a6,6,0,0,1-.53,1.42h5v-10h-4.21A6.78,6.78,0,0,1,281.5,558.67Z"/><rect class="cls-1" x="278.86" y="568.92" width="6.82" height="10"/><path class="cls-1" d="M279.42,567.8h6.26v-1.15h-5.56C279.87,567.08,279.63,567.47,279.42,567.8Z"/><path class="cls-1" d="M457,617.34c-1.31-1.12-2.57-2.3-3.78-3.52h-4.3l5.8,5.8Z"/><polygon class="cls-1" points="334.89 625.35 340.96 625.35 337.93 622.31 334.89 625.35"/><path class="cls-1" d="M341,619.23,339.27,621l4.38,4.38h2.11v-.71a31.17,31.17,0,0,1-2.37-2.3A30.48,30.48,0,0,1,341,619.23Z"/><rect class="cls-1" x="278.86" y="580.02" width="6.82" height="1.15"/><path class="cls-1" d="M340,617.55a37.5,37.5,0,0,1-1.95-3.73h-5.92l5.8,5.8Z"/><rect class="cls-1" x="278.86" y="526.54" width="6.82" height="1.14"/><polygon class="cls-1" points="330.99 615.38 330.99 625.35 332.19 625.35 336.58 620.97 330.99 615.38"/><rect class="cls-1" x="235.37" y="546.14" width="6.82" height="1.14"/><rect class="cls-1" x="235.37" y="572.88" width="6.82" height="1.15"/><rect class="cls-1" x="278.86" y="582.29" width="6.82" height="10"/><path class="cls-1" d="M275.65,570.12c-2.27-.94-5.85-2.34-5.85-2.34l-1.49,6.65a34.94,34.94,0,0,0-2,10.23,29.94,29.94,0,0,0,1.75,4.13s.26,2-1.57,1.59l3,6.11a12.4,12.4,0,0,1,1.14,3.38c0,1-.26,4.13-.26,4.13a26.52,26.52,0,0,0-.17,3.66c.08,1.4.25,5.72-.53,8.08-.15,1.56.2,3.87-.56,4.55l-.76.19.58,3a5.26,5.26,0,0,0,1.22.51c.27,0,2.4-.4,2.65,1.37h4.74v-2.94h-1.23v-1.12h1.23v-1.14h-1.23V619h1.23V609h-1.23v-1.11h1.23v-1.15h-1.23v-1.12h1.23v-10h-1.23v-1.11h1.23V593.4h-1.23v-1.11h1.23v-10h-1.23v-1.11h1.23V580h-1.23v-1.11h1.23v-8.83A2.17,2.17,0,0,1,275.65,570.12Z"/><path class="cls-1" d="M257.57,602.71c-.59-1.2-2-4.59-2-4.59s-.12-.11-.58.58a49.21,49.21,0,0,1-3.73,5.31c-.93,1.51-2.68,4.2-3.15,6.39s-3.73,9.25-3.73,9.25-.51.82-.87,1.41v4.19h1.79v.09H260c.11-.52.21-.93.21-.93l.18-2.45a5.43,5.43,0,0,1,0-1.63c.1-1.11.34-2.81.34-3.93s-.81-5.88-1-7.89C259,607.21,258.14,603.89,257.57,602.71Z"/><rect class="cls-1" x="235.37" y="548.4" width="6.82" height="9.99"/><rect class="cls-1" x="235.37" y="561.77" width="6.82" height="10"/><rect class="cls-1" x="235.37" y="559.51" width="6.82" height="1.14"/><path class="cls-1" d="M243.47,575.14v3c.37-1,.76-2,1.15-3Z"/><rect class="cls-1" x="278.86" y="606.77" width="6.82" height="1.15"/><rect class="cls-1" x="278.86" y="595.66" width="6.82" height="10"/><rect class="cls-1" x="278.86" y="593.4" width="6.82" height="1.15"/><rect class="cls-1" x="278.86" y="622.41" width="6.82" height="2.94"/><rect class="cls-1" x="278.86" y="620.15" width="6.82" height="1.14"/><rect class="cls-1" x="278.86" y="609.04" width="6.82" height="9.99"/><polygon class="cls-1" points="185.15 446.64 183.91 447.36 184.37 448.73 185.15 446.64"/><path class="cls-1" d="M267.88,414.94a2.63,2.63,0,0,1,2.36-1.15,2.51,2.51,0,0,1,.45,0l.23-.09a5.31,5.31,0,0,1,1.38-2.46l0,0,1.31-.69.22-.44-9.95-5.2h0a2.36,2.36,0,0,1-.88,0l-18.18,13.22,22.37-1.64A5.41,5.41,0,0,1,267.88,414.94Z"/><path class="cls-1" d="M282.56,414.68l-1.15-.6-1.48,1.48,2.57-.19v0S282.52,415.06,282.56,414.68Z"/><polygon class="cls-1" points="1528.12 282.83 1530.44 267.72 1521.73 274.11 1528.12 282.83"/><path class="cls-1" d="M275.89,468.81c-7.26,6.42-17.17,1.26-17.17,1.26l.81-9.18-18.08-15.45L244.06,481l47.83-3.51-2.49-33.92L275,460.42Z"/><polygon class="cls-1" points="1532.5 269.11 1530.5 282.12 1538.01 276.62 1532.5 269.11"/><polygon class="cls-1" points="153.65 521.46 153.53 526.62 156.69 524.73 157.86 521.85 156.65 513.79 153.65 521.46"/><path class="cls-1" d="M1753.6,552.41a14.81,14.81,0,0,1,1.25-1.92l-4.7.83A14.29,14.29,0,0,1,1753.6,552.41Z"/><path class="cls-1" d="M151.83,597.41l-3.6-.63a11.09,11.09,0,0,1,1,1.47A10.68,10.68,0,0,1,151.83,597.41Z"/><path class="cls-1" d="M46.47,538.8c-.15-1.2.7-2.51,1-3.7s-1-2.37-1-2.37v-13a27.69,27.69,0,0,0-.56-5.79,16.77,16.77,0,0,1-2-5.14c-.42-4.88-.56-8.3-.56-8.3s-2.94-7-3.51-8.43-.56-2-1.26-2.24c-1.26-.13-1.83,2.5-1.83,2.5s-.28,5.93-.28,7-2,5-2,6.19A41.32,41.32,0,0,1,33,511.4l-.56,11.73a50.16,50.16,0,0,0,.13,6.19,6,6,0,0,1-.65,3l4.66,3a4.21,4.21,0,0,1,1.53,2.58c.16.92.63,3.2,1,5.1l8.42-.54-.11-.91A9.92,9.92,0,0,1,46.47,538.8Z"/><polygon class="cls-1" points="139.35 557.92 141.63 561.97 149.88 541.56 150.07 532.26 149.25 532.69 139.35 557.92"/><polygon class="cls-1" points="153.39 532.88 154.63 529.84 153.44 530.47 153.39 532.88"/><path class="cls-1" d="M31.56,537.52s0,.06,0,.09c.28.93-.55,2.91-.55,2.91v3l4-.26-.64-3.82Z"/><path class="cls-1" d="M286.65,407.7l-2.75,3.45,2.36,1.24.9,0a5.16,5.16,0,0,1,1.67-1.27l.33-1.26A12.93,12.93,0,0,1,286.65,407.7Z"/><path class="cls-1" d="M265.42,393.61l1,6.25c0,.12.1.38.15.73a7.87,7.87,0,0,1,.06,1.55l9,4.7c.87-1.23,2.51-3.58,2.84-4.24.46-.94,1.4-3.13,1.41-3.14l0-.07.05,0h0a.5.5,0,0,0,.09-.11,2.38,2.38,0,0,0,.27-.83,3.72,3.72,0,0,1,1.54-2.31l.7-1.17,2.64-3.56V390a5.08,5.08,0,0,1,.92-2.73l1.84-1.91a2.29,2.29,0,0,1-1.1-2.29c0-1,.23-2,.23-2.51s-.24-.67-.67-1.07a5.18,5.18,0,0,1-1.43-1.93c-.78-1.83-1.8-4.66-2-5.25a3,3,0,0,1-1.53-.8l-1.22.87s-.49.29-1,.66a8.69,8.69,0,0,0-1.44,1.11.89.89,0,0,1-.69.32A2.06,2.06,0,0,1,276,374a33.41,33.41,0,0,1-2.31-2.87,2.39,2.39,0,0,0-.72-.75,2.44,2.44,0,0,0-.45-.27h0l0,0s-.51-.45-1.09-.91a5.67,5.67,0,0,0-1.42-.94.56.56,0,0,1-.53-.57,1,1,0,0,1,.07-.35l.56-1L267.62,364l1.26-1.62c-.08-.19-.33-.68-1-2a2.08,2.08,0,0,0-1.26-.58l-.09,0,3.77,22.51-5.7,1L266,393.52Z"/><polygon class="cls-1" points="251.12 298.14 250.98 298.59 251.22 299.08 251.12 298.14"/><polygon class="cls-1" points="1539.33 278.42 1531.56 284.12 1541.74 285.69 1540.46 279.95 1539.33 278.42"/><polygon class="cls-1" points="1474.27 260.16 1472.27 273.18 1479.78 267.67 1474.27 260.16"/><polygon class="cls-1" points="1509.25 263.26 1494.94 261.06 1501 269.33 1509.25 263.26"/><polygon class="cls-1" points="1489.86 260.29 1475.52 258.08 1481.59 266.35 1489.86 260.29"/><polygon class="cls-1" points="1528.67 266.25 1514.35 264.05 1520.41 272.31 1528.67 266.25"/><polygon class="cls-1" points="1537.71 267.64 1533.75 267.03 1539.25 274.52 1537.71 267.64"/><path class="cls-1" d="M394.11,608.44l-.11-.9-.55.07a26.15,26.15,0,0,1-6.52,2.14,25.3,25.3,0,0,0-3.33.7h7.22a37.15,37.15,0,0,0,3.92-.82Z"/><path class="cls-1" d="M387.13,583.21l2.14.45-.09-.71a20.44,20.44,0,0,1,.57-4,4.25,4.25,0,0,0-.25-2.78l-1.36.8-3.48,5.23.49.92Z"/><polygon class="cls-1" points="1473.34 275.18 1486.8 277.25 1481.11 269.48 1473.34 275.18"/><polygon class="cls-1" points="1492.74 278.16 1506.21 280.23 1500.51 272.46 1492.74 278.16"/><polygon class="cls-1" points="1508.72 279.85 1511.04 264.74 1502.32 271.13 1508.72 279.85"/><polygon class="cls-1" points="1513.09 266.13 1511.09 279.15 1518.6 273.64 1513.09 266.13"/><polygon class="cls-1" points="1493.68 263.15 1491.68 276.17 1499.19 270.65 1493.68 263.15"/><polygon class="cls-1" points="1512.16 281.14 1525.63 283.21 1519.92 275.44 1512.16 281.14"/><polygon class="cls-1" points="1489.31 276.87 1491.64 261.76 1482.92 268.15 1489.31 276.87"/><polygon class="cls-1" points="175.78 463.65 173.51 469.74 174.76 473.96 174.95 473.86 179.64 461.34 175.78 463.65"/><polygon class="cls-1" points="196.44 416.53 197.42 413.9 195.96 414.81 196.44 416.53"/><polygon class="cls-1" points="196.86 418.05 197.72 421.14 201.16 418.93 199.46 412.63 198.73 413.08 196.86 418.05"/><polygon class="cls-1" points="191.1 451.04 194.98 440.91 189.13 444.32 191.1 451.04"/><polygon class="cls-1" points="200.74 405.06 202.74 399.72 198.84 398.31 200.74 405.06"/><polygon class="cls-1" points="205.19 393.18 207.32 387.51 200.82 391.35 205.19 393.18"/><polygon class="cls-1" points="193.33 427.48 188.21 441.14 188.33 441.54 196.51 436.93 198.16 432.58 196.13 425.64 193.33 427.48"/><polygon class="cls-1" points="195.08 422.83 195.28 422.71 195.21 422.49 195.08 422.83"/><polygon class="cls-1" points="209.93 380.54 209.35 377.68 208.7 378.19 204.95 386.18 208.88 383.35 209.93 380.54"/><polygon class="cls-1" points="208.59 386.76 206.06 393.55 212.52 396.26 212.9 395.19 210.91 385.4 208.59 386.76"/><polygon class="cls-1" points="201.17 406.57 201.58 408 210.11 402.73 210.24 402.4 203.63 400.03 201.17 406.57"/><polygon class="cls-1" points="162.58 486.52 157.69 499.63 157.93 501.06 158.5 500.74 163.67 487.05 162.58 486.52"/><polygon class="cls-1" points="210.25 382.36 210.29 382.33 210.28 382.27 210.25 382.36"/><polygon class="cls-1" points="198.53 424.07 199.74 428.46 202.08 422.38 201.94 421.85 198.53 424.07"/><polygon class="cls-1" points="204.25 417.44 208.38 407.04 202.38 410.81 204.25 417.44"/><polygon class="cls-1" points="195.41 411.81 198.7 409.78 197.72 406.14 195.41 411.81"/><polygon class="cls-1" points="182.94 444.47 182.98 444.56 184.85 443.51 184.2 441.12 182.94 444.47"/><polygon class="cls-1" points="214.63 368.03 214.28 366.31 211.35 372.55 211.41 372.87 213.32 371.47 214.63 368.03"/><polygon class="cls-1" points="443.83 613.83 432.23 613.83 438.03 619.62 443.83 613.83"/><polygon class="cls-1" points="170.1 483.11 174.56 485.05 172.5 478.36 170.1 483.11"/><polygon class="cls-1" points="159.04 507.72 160.85 518.52 171.93 496.23 160.98 502.75 159.04 507.72"/><polygon class="cls-1" points="183.4 455.75 183.09 454.79 182.55 456.24 183.4 455.75"/><polygon class="cls-1" points="187.11 456.87 187.77 458.87 188.47 457 188.25 456.18 187.11 456.87"/><polygon class="cls-1" points="162.69 498.38 173.86 492.15 166.57 488.5 162.69 498.38"/><polygon class="cls-1" points="187.77 439.64 192 428.35 185.68 432.48 187.77 439.64"/><polygon class="cls-1" points="194.77 420.98 193.47 416.57 189.44 426.44 193.76 423.67 194.77 420.98"/><polygon class="cls-1" points="185.89 447.36 184.85 450.12 186.19 454.18 187.51 453.43 185.89 447.36"/><polygon class="cls-1" points="180.93 460.57 176.24 473.06 184.28 468.12 185.97 463.67 184.31 458.55 180.93 460.57"/><polygon class="cls-1" points="177.99 484.79 182.48 472.9 175.65 476.94 177.99 484.79"/><polygon class="cls-1" points="177.48 459.1 181.28 456.95 182.63 453.37 181.24 449.05 177.48 459.1"/><path class="cls-1" d="M1769.37,442.85a2.9,2.9,0,0,1-.34-.45l-.26-.26h.1c-.83-1.59.17-3.42,1.75-5.06l-26.51-31-2.54,1.5,27.89,87,17.09-33.95-17.07-17.71Z"/><polygon class="cls-1" points="1660.56 286.51 1650.2 284.92 1656.27 293.19 1661.47 289.37 1660.56 286.51"/><polygon class="cls-1" points="1657.2 303.43 1661.48 304.08 1658.89 300.55 1657.2 303.43"/><polygon class="cls-1" points="1663.33 295.2 1662.88 293.78 1660.13 298.45 1663.99 303.71 1664.78 298.58 1664.51 297.92 1664.93 297.61 1664.98 297.27 1664.08 294.66 1663.33 295.2"/><polygon class="cls-1" points="1641.66 296.77 1645.31 295.95 1646.9 285.61 1638.18 292.01 1641.66 296.77"/><polygon class="cls-1" points="1647.65 295.43 1654.08 294 1648.95 287 1647.65 295.43"/><polygon class="cls-1" points="1628.61 299.04 1631.8 299.53 1632.14 298.89 1639.28 297.3 1636.38 293.33 1628.61 299.04"/><polygon class="cls-1" points="1666.35 303.01 1666.51 302.9 1666.41 302.66 1666.35 303.01"/><polygon class="cls-1" points="1669.85 259.48 1666.6 256.95 1665.32 263.47 1670.01 266.84 1670.94 262.35 1669.85 259.48"/><polygon class="cls-1" points="1681.44 315.39 1682.59 311.35 1679.65 310.9 1681.44 315.39"/><polygon class="cls-1" points="1677.84 302.9 1676.01 301.77 1677.94 306.61 1680.89 307.07 1677.84 302.9"/><polygon class="cls-1" points="1683.39 306.7 1683.44 306.4 1682.95 306.1 1683.39 306.7"/><polygon class="cls-1" points="1679.07 284.06 1675.75 275.18 1672.7 273.39 1670.55 284.03 1676.86 284.99 1679.07 284.06"/><polygon class="cls-1" points="1674.95 295.19 1675.67 296.17 1678.99 293.74 1674.95 295.19"/><polygon class="cls-1" points="1682.72 293.78 1677 297.98 1677.17 298.21 1684.04 302.46 1684.61 298.81 1682.72 293.78"/><polygon class="cls-1" points="1667.55 278.76 1669.1 271.25 1663.92 268.19 1667.55 278.76"/><line class="cls-1" x1="1629.83" y1="303.24" x2="1571.42" y2="294.27"/><polygon class="cls-1" points="1588.72 291.08 1596.23 285.56 1590.73 278.06 1588.72 291.08"/><path class="cls-1" d="M1599.68,293.31a8.65,8.65,0,0,1,.22-1l.24-1.46-2.58-3.51-7.77,5.7,9.76,1.5A10.93,10.93,0,0,1,1599.68,293.31Z"/><polygon class="cls-1" points="1578.15 284.39 1570.47 290.02 1570.49 290.11 1583.85 292.15 1578.15 284.39"/><path class="cls-1" d="M1602.09,293.7a7.74,7.74,0,0,0-.08,1.24l1.25.19-1.14-1.56Z"/><path class="cls-1" d="M1594.4,279.27a1.16,1.16,0,0,1-.15-.73,9.36,9.36,0,0,1,.58-2.13L1592,276Z"/><polygon class="cls-1" points="1601.16 284.73 1599.36 286.05 1600.65 287.8 1601.16 284.73"/><path class="cls-1" d="M1588.5,249.32v1.25l2.35,3.18.63,1a3.15,3.15,0,0,1,1.31,1.94c.14.83.41,1,.41,1s.83,1.94,1.26,2.77c.19.38.84,1.36,1.49,2.3l5.43-32.36,2.41.4,1.36-8.15a1.79,1.79,0,0,0-1.35.56l-.93,1.87,1.06,1.39-2.14,2,.56,1s.21.48-.27.56a11.16,11.16,0,0,0-2.29,1.66,2.67,2.67,0,0,0-1.11,1,27.16,27.16,0,0,1-2,2.49s-.82.7-1.31.14a14.58,14.58,0,0,0-2.22-1.59l-1.18-.83a2.44,2.44,0,0,1-1.45.76s-1,2.91-1.8,4.71-1.87,1.73-1.87,2.7.83,3.67-.9,4.16l1.8,1.87A4.36,4.36,0,0,1,1588.5,249.32Z"/><path class="cls-1" d="M1600.7,282.28l.33-2.41a12.23,12.23,0,0,0-1.24.11l-3.19.28a3.56,3.56,0,0,1-2-.68l3.41,4.65Z"/><polygon class="cls-1" points="1566.46 272.06 1566.64 272.84 1567.49 272.21 1566.46 272.06"/><polygon class="cls-1" points="1568.27 280.14 1569.26 273.69 1567.17 275.22 1568.27 280.14"/><polygon class="cls-1" points="1571.31 275.08 1569.61 286.15 1569.94 287.63 1576.82 282.58 1571.31 275.08"/><polygon class="cls-1" points="1586.89 275.19 1572.57 272.99 1578.63 281.25 1586.89 275.19"/><polygon class="cls-1" points="1586.35 291.77 1588.68 276.67 1579.96 283.06 1586.35 291.77"/><path class="cls-1" d="M1586.91,269.2c.56,0,3.19-.28,3.88.9.07.69.14,1.53.14,1.53a.86.86,0,0,1,0,.16l3.18.49-2.52-2.52-4.08-5.12a11.62,11.62,0,0,1-2.43,2.08l.35,1.32S1586.64,268.64,1586.91,269.2Z"/><path class="cls-1" d="M1912.66,383.86a2.09,2.09,0,0,0,0-1.81c-.22-.5-.77-3.33-.77-3.33-.55.9-2.44,1.41-2.44,1.41v1a12,12,0,0,1-.55,2.72l2.76.2S1912.33,384.26,1912.66,383.86Z"/><path class="cls-1" d="M1724.62,313.79h.06l-.6,3.93-18.26-2.81L1737.21,394a5.12,5.12,0,0,1,4.85-1.64c9.48,1.11,6.23,9.11,6.23,9.11l27.49,32,.13-.07c3.47-1.5,4.85-.62,5.38.07.86.95,7.65,8.56,15.91,17.77a38.9,38.9,0,0,1,4.08-1l38.61.45a9.51,9.51,0,0,1,.68-1.05L1727,298.11Z"/><path class="cls-1" d="M1656.81,202.38l67.36,89.88,3.72.57-.56,3.65,114,152.18a5.58,5.58,0,0,1,3-1.6L1651,189.38Z"/><path class="cls-1" d="M1764.53,521.66l9.5,18.55,6.56,7.4,1.56.57L1777,536Z"/><path class="cls-1" d="M1885.54,412.61a.12.12,0,0,0,0-.09C1885.52,412.61,1885.54,412.66,1885.54,412.61Z"/><polygon class="cls-1" points="1747.78 451.76 1743.83 441.7 1742.25 452.27 1743.78 456.02 1747.93 458.52 1747.78 451.76"/><polygon class="cls-1" points="1753.55 466.48 1752.47 465.9 1752.71 478.11 1763.53 504.86 1766.52 499.53 1753.55 466.48"/><polygon class="cls-1" points="1746.49 462.73 1748.11 466.73 1748.04 463.55 1746.49 462.73"/><path class="cls-1" d="M1604.28,284.67l-.6-.1-1,6,2.7,3.68.47,0,2.2-14.36-.37,0-3,2.18Z"/><polygon class="cls-1" points="427.14 613.83 415.55 613.83 421.35 619.62 427.14 613.83"/><path class="cls-1" d="M1885.31,398.79a19.49,19.49,0,0,1-2.54,2.82l-1.56-.31.11,2.63s1.21,6.06,1.88,6.77a3.66,3.66,0,0,0,1.21.9,4.32,4.32,0,0,1,1.08.92,10.79,10.79,0,0,1-.08-3.44,7,7,0,0,0,.78-2.43,34.77,34.77,0,0,0,.45-8.47S1885.54,398.19,1885.31,398.79Z"/><polygon class="cls-1" points="1684.3 321.87 1687.34 329.85 1688.94 324.09 1684.48 321.18 1684.3 321.87"/><polygon class="cls-1" points="1903.48 480.36 1903.48 478.8 1903.22 480.35 1903.48 480.36"/><path class="cls-1" d="M1902.27,462.42l-.48-10.34a37.22,37.22,0,0,1-1.32-5.23c0-1-1.68-4.54-1.68-5.46s-.24-6.17-.24-6.17-.48-2.32-1.56-2.2c-.6.23-.6.7-1.09,2s-3,7.45-3,7.45-.1,3-.48,7.3a14.68,14.68,0,0,1-1.68,4.54,25.89,25.89,0,0,0-.48,5.11v11.5s-1.09,1.05-.85,2.09,1,2.2.85,3.26a9.18,9.18,0,0,1-.85,2.43l-.1.77,8.56.55c.53-2.48,1.15-5.49,1.37-6.7a5.55,5.55,0,0,1,2-3.39l1-.67a3.09,3.09,0,0,1-.11-1.37A47.3,47.3,0,0,0,1902.27,462.42Z"/><polygon class="cls-1" points="1736.07 405.93 1734.64 406.65 1741.41 424.58 1742.17 425.01 1742.48 423.14 1736.07 405.93"/><polygon class="cls-1" points="1708.76 365.62 1709.9 366.25 1709.18 364.36 1708.76 365.62"/><polygon class="cls-1" points="1716.52 369.99 1711.61 356.84 1709.78 362.49 1711.55 367.19 1716.52 369.99"/><polygon class="cls-1" points="1705.52 354.61 1703.38 362.58 1705.11 363.56 1706.88 358.24 1705.52 354.61"/><polygon class="cls-1" points="1702.47 346.46 1695.75 328.55 1692.08 326.15 1689.41 335.24 1691.59 340.94 1702.31 346.98 1702.47 346.46"/><polygon class="cls-1" points="1702.11 367.26 1703.05 369.71 1703.92 367.08 1702.41 366.17 1702.11 367.26"/><polygon class="cls-1" points="1706.88 349.57 1709.32 350.95 1709.36 350.82 1707.73 346.43 1706.88 349.57"/><polygon class="cls-1" points="1698.67 359.44 1701.25 350.63 1693.59 346.16 1698.67 359.44"/><polygon class="cls-1" points="1730.82 408.55 1721.28 413.32 1735.92 421.51 1730.82 408.55"/><polygon class="cls-1" points="1718.77 375.98 1713.7 372.93 1719.86 389.35 1720.09 389.49 1721.74 383.96 1718.77 375.98"/><polygon class="cls-1" points="1723.06 395.25 1720.36 404.02 1726.21 401.47 1723.06 395.25"/><polygon class="cls-1" points="1723.81 418.67 1738.33 447.88 1740.71 433.74 1738.15 427.24 1723.81 418.67"/><polygon class="cls-1" points="1715.87 403.69 1718.93 393.39 1709.99 388.1 1715.87 403.69"/><polygon class="cls-1" points="1712.01 371.93 1707.58 369.27 1705.41 376 1707.62 381.83 1718.15 388.3 1712.01 371.93"/><polygon class="cls-1" points="1707.5 356.4 1708.11 354.61 1706.47 353.68 1707.5 356.4"/><polygon class="cls-1" points="1714.84 302.18 1723.09 296.12 1708.77 293.92 1714.84 302.18"/><rect class="cls-1" x="1669.57" y="582.09" width="5.98" height="8.78"/><rect class="cls-1" x="1669.57" y="593.82" width="5.98" height="7.17"/><rect class="cls-1" x="1669.57" y="591.84" width="5.98" height="1.01"/><rect class="cls-1" x="1620.55" y="580.12" width="5.98" height="1.01"/><rect class="cls-1" x="1620.55" y="593.82" width="5.98" height="7.17"/><rect class="cls-1" x="1620.55" y="591.84" width="5.98" height="1.01"/><rect class="cls-1" x="1620.55" y="582.09" width="5.98" height="8.78"/><polygon class="cls-1" points="1698.54 296.6 1703.34 293.08 1696.75 292.07 1698.54 296.6"/><polygon class="cls-1" points="1621.98 165.26 1619.35 164.41 1612.63 220.51 1615.97 221.08 1614.01 232.84 1618.3 233.77 1611.42 272.22 1606.51 271.39 1606.05 274.11 1659.22 282.28 1621.98 165.26"/><path class="cls-1" d="M468.36,625.35h.55l-.35-.19Z"/><polygon class="cls-1" points="1620 159 1619.86 160.24 1620.19 159.6 1620 159"/><polygon class="cls-1" points="1651.11 228.8 1652.38 224.11 1651.34 222.96 1649.38 223.56 1651.11 228.8"/><rect class="cls-1" x="1669.57" y="580.12" width="5.98" height="1.01"/><polygon class="cls-1" points="1653.38 220.5 1654.16 217.63 1650.57 208.04 1636.38 178.37 1634.72 179.54 1645.82 213.36 1653.38 220.5"/><polygon class="cls-1" points="410.46 613.83 398.86 613.83 404.66 619.62 410.46 613.83"/><polygon class="cls-1" points="410.38 625.35 412.51 625.35 412.51 614.47 406 620.97 410.38 625.35"/><polygon class="cls-1" points="401.62 625.35 407.7 625.35 404.66 622.31 401.62 625.35"/><polygon class="cls-1" points="418.31 625.35 424.39 625.35 421.35 622.31 418.31 625.35"/><polygon class="cls-1" points="414.4 615.37 414.4 625.35 415.62 625.35 420 620.97 414.4 615.37"/><polygon class="cls-1" points="1627.5 282.62 1618.77 289.02 1625.17 297.75 1627.5 282.62"/><polygon class="cls-1" points="1705.12 294.56 1699.4 298.76 1703.06 307.97 1705.12 294.56"/><polygon class="cls-1" points="397.72 615.37 397.72 625.35 398.94 625.35 403.32 620.97 397.72 615.37"/><polygon class="cls-1" points="443.75 625.35 445.87 625.35 445.87 614.47 439.37 620.97 443.75 625.35"/><polygon class="cls-1" points="451.68 625.35 457.76 625.35 454.72 622.31 451.68 625.35"/><path class="cls-1" d="M464.46,625.35h1.21l1.16-1.16q-1.2-.68-2.37-1.41Z"/><polygon class="cls-1" points="427.07 625.35 429.19 625.35 429.19 614.47 422.69 620.97 427.07 625.35"/><path class="cls-1" d="M456.06,621l4.38,4.38h2.13v-3.78c-1.41-1-2.76-2-4.08-3Z"/><polygon class="cls-1" points="435 625.35 441.07 625.35 438.03 622.31 435 625.35"/><polygon class="cls-1" points="431.1 615.37 431.1 625.35 432.31 625.35 436.69 620.97 431.1 615.37"/><polygon class="cls-1" points="447.78 615.37 447.78 625.35 448.99 625.35 453.37 620.97 447.78 615.37"/><polygon class="cls-1" points="1665.25 238.02 1661.65 234.14 1664.55 241.85 1665.25 238.02"/><polygon class="cls-1" points="1657.58 223.23 1658.3 225.16 1659.15 225.97 1657.66 222.85 1657.58 223.23"/><polygon class="cls-1" points="1690 300.59 1689.23 303.44 1690.72 302.35 1690 300.59"/><polygon class="cls-1" points="1662.36 292.15 1662.19 291.61 1661.06 292.44 1662.36 292.15"/><polygon class="cls-1" points="1667.74 253.82 1667.39 252.91 1667.27 253.5 1667.74 253.82"/><polygon class="cls-1" points="1673.58 269.42 1673.53 269.3 1673.52 269.36 1673.58 269.42"/><polygon class="cls-1" points="1669.54 255.13 1672.05 256.96 1672.13 256.55 1668.29 248.37 1667.84 250.62 1669.54 255.13"/><polygon class="cls-1" points="1654.2 238.16 1656.53 245.23 1662.96 250.46 1662.62 252.49 1664.13 244.21 1659.46 231.75 1656.39 228.44 1654.2 238.16"/><polygon class="cls-1" points="1661.31 259.69 1662.3 254.26 1658.67 251.71 1661.31 259.69"/><polygon class="cls-1" points="1625.71 281.16 1611.37 278.96 1617.45 287.22 1625.71 281.16"/><polygon class="cls-1" points="1616.96 290.35 1609.18 296.05 1622.66 298.12 1616.96 290.35"/><polygon class="cls-1" points="1608.13 294.06 1615.64 288.55 1610.13 281.04 1608.13 294.06"/><polygon class="cls-1" points="1627.53 297.05 1635.05 291.53 1629.54 284.02 1627.53 297.05"/><polygon class="cls-1" points="1645.12 284.14 1630.79 281.94 1636.86 290.21 1645.12 284.14"/><polygon class="cls-1" points="1692.77 282.34 1692.34 282.52 1693.43 285.61 1694.08 285.36 1695.05 287.79 1722.45 292 1659.12 207.5 1692.77 282.34"/><polygon class="cls-1" points="1693.87 320.04 1695.19 323.57 1700.85 327.2 1695.58 314.26 1693.87 320.04"/><polygon class="cls-1" points="1693.2 322.3 1693.47 322.46 1693.3 322 1693.2 322.3"/><polygon class="cls-1" points="1685.94 281.2 1677.42 276.17 1680.2 283.59 1685.94 281.2"/><polygon class="cls-1" points="1707.22 295.59 1705.11 309.32 1713.03 303.51 1707.22 295.59"/><polygon class="cls-1" points="1724.85 297.62 1716.16 303.99 1722.54 312.68 1724.85 297.62"/><polygon class="cls-1" points="1714.35 305.31 1706.58 311.01 1720.05 313.08 1714.35 305.31"/><polygon class="cls-1" points="1691.59 304.49 1689.63 305.92 1693.03 308.02 1691.59 304.49"/><polygon class="cls-1" points="1705.78 335.12 1697.49 329.68 1703.04 344.5 1705.78 335.12"/><polygon class="cls-1" points="1687.73 293.18 1687.79 293 1687.77 292.98 1687.73 293.18"/><polygon class="cls-1" points="1692.07 312.81 1691.11 312.66 1691.68 314.2 1692.07 312.81"/><polygon class="cls-1" points="1685.71 291.58 1683.74 293.03 1684.98 296.34 1685.71 291.58"/><polygon class="cls-1" points="1691.12 316.2 1689.71 312.45 1686.93 312.02 1685.5 317.35 1690 320.23 1691.12 316.2"/><polygon class="cls-1" points="1674.75 263.27 1673.99 267.02 1675.37 270.7 1680.53 274.42 1675.61 263.94 1674.75 263.27"/><path class="cls-3" d="M1658.3,306.48l14,2.16,41.8,104.53.92-.73.65,1-.81.77,47.37,100.5,12.52,25-.3,1.28-24.14.47s-19.68.74-20.5,20.44c.65,3.53.94,18.49,17.59,22.82,8.49.51,14.88.68,19.69.65a28.61,28.61,0,0,0-10.31,17.28,27.47,27.47,0,0,0,1,12.95l0,.07.05.08c1.56,2.36,4.32,5.9,6.78,9h-80.52V600.37h-4.21v-7.17H1681v-1h-1.07v-1H1681v-1h-1.07v-8.78H1681v-1h-1.07v-1H1681v-1h-1.07v-5.29h-1.12v5.29h-6v-5.29h-1.12v5.29h-1.57v1h1.57v1h-1.57v1h1.57v8.78h-1.57v1h1.57v1h-1.57v1h1.57v7.17h-6.07v24.35h-30.52V600.37h-4.21v-7.17H1632v-1h-1.07v-1H1632v-1h-1.07v-8.78H1632v-1h-1.07v-1H1632v-1h-1.07v-5.29h-1.12v5.29h-6v-5.29h-1.12v5.29h-1.57v1h1.57v1h-1.57v1h1.57v8.78h-1.57v1h1.57v1h-1.57v1h1.57v7.17h-6.07v24.35h-13.73l.24,1.19H531.07V609.82H332.39v1.11h0v13.78H290.23v-2.94H292v-1.12h-1.79v-1.14H292V618.4h-1.79v-10H292v-1.11h-1.79v-1.15H292V605h-1.79V595H292v-1.11h-1.79v-1.15H292v-1.11h-1.79v-10H292v-1.11h-1.79v-1.15H292v-1.11h-1.79v-10H292v-1.12h-1.79V566H292v-1.11h-1.79v-10H292V553.8h-1.79v-1.15H292v-1.12h-1.79v-10H292v-1.12h-1.79v-1.15H292v-1.1h-1.79v-10H292V527h-1.79v-1.14H292v-1.12h-1.79v-6H289v6h-6.82v-6h-1.27v6h-1.23v1.12h1.23V527h-1.23v1.12h1.23v10h-1.23v1.1h1.23v1.15h-1.23v1.12h1.23v10h-1.23v1.12h1.23v1.15h-1.23v1.11h1.23v.73a2.93,2.93,0,0,1-.63,1,1.13,1.13,0,0,0-.08,1.4,1.86,1.86,0,0,1,.44,1.41,2,2,0,0,1-1,1.6s-4.89-1.79-5.76-2.16-2.36-2.63-2.36-2.63l.35-.47c.62-.1,2.28-3.19,2.28-3.19l1.23.66c2.88,0-.53-3-.53-3v-.37c-.44-4.8-3.84-5.82-4.8-6.1-6.21-.19-6.47,3.76-6.47,3.76-1.57,1.79-.61,2.72-.61,2.72l-.26,1-4.46,1.87c-4.54,1.89-7.86,7.22-9,8.73a13.81,13.81,0,0,0-2.27,5,5.6,5.6,0,0,0,.79,2.44l1.4,2.06c-.25.62-.52,1.31-.8,2h-1.58v-1.15h1.79v-1.11h-1.79v-10h1.79V560h-1.79v-1.14h1.79v-1.12h-1.79v-10h1.79v-1.12h-1.79V545.5h1.79v-1.12h-1.79v-6h-1.27v6h-6.82v-6h-1.27v6h-1.23v1.12h1.23v1.14h-1.23v1.12h1.23v10h-1.23v1.12h1.23V560h-1.23v1.12h1.23v10h-1.23v1.11h1.23v1.15h-1.23v1.11h1.23v10h-1.23v1.12h1.23v1.15h-1.23v1.11h1.23v10h-1.23V599h1.23v1.16h-1.23v1.11h1.23v10h-1.23v1.11h1.23v1.15h-1.23v1.12h1.23V621l0,0c-.79,1,0,3.38,0,3.38l0,.16h-1.21v.09H202.87v-.12h1.8v-1.11h-1.8v-1.14h1.8v-1.12h-1.8v-10h1.8v-1.11h-1.8V609h1.8v-1.11h-1.8v-10h1.8v-1.12h-1.8v-1.15h1.8v-1.11h-1.8v-10h1.8v-1.12h-1.8v-1.14h1.8V581.1h-1.8v-10h1.8V570h-1.8v-1.15h1.8v-1.11h-1.8v-6H201.6v6h-6.82v-6h-1.27v6h-1.23v1.11h1.23V570h-1.23v1.11h1.23v10h-1.23v1.13h1.23v1.14h-1.23v1.12h1.23v10h-1.23v1.11h1.23v1.15h-1.23v1.12h1.23v10h-1.23V609h1.23v1.15h-1.23v1.11h1.23v10h-1.23v1.12h1.23v1.14h-1.23v1.11h1.23v.12H146.32a19.31,19.31,0,0,0-1.65-1.48c3.67,0,8.55-.1,15-.49,12.71-3.31,12.92-14.69,13.42-17.39-.63-15-15.63-15.6-15.63-15.6L139,589.39l-.22-1,9.55-19.07,36.14-76.66-.62-.59.49-.78.71.56,35.35-88.41-.42-.31.75-2.18.58.42,31.53-99.13,2-.63L260,344.42l-2.55.43,1.5,9-3.27.71,5.24,29.33,3.76-.62,1.7,10.13.46-.08,1,6.14-.46-.63-1.1.8-.13-.07-.14.26-1.24.9-.66,0c0,.15,0,.28,0,.42L241,418l-5.59.41a1,1,0,1,0,.14,1.9l.95-.07L237.87,439l2.53,2.16,3.19,43.48h.06v.05L299,480.59v-.06l.42,0-3.07-42,3.17-3.73-1.3-17.7.26-.49.32,0a5.62,5.62,0,0,0,2.21-.37c.77-.13,1.59-.43,1.57-1.52a3.11,3.11,0,0,0,0-.35,15.47,15.47,0,0,0-.72-2.8s-.23-.91-.51-1.89c-.14-.49-.3-1-.45-1.4a2.82,2.82,0,0,0-.42-.88,2.07,2.07,0,0,1-.27-1.19,1.33,1.33,0,0,1,0-.18,2.45,2.45,0,0,0,.26-1.12,3.66,3.66,0,0,0-.67-2,22.69,22.69,0,0,1-.61-4.66c.24-.29,1.37-1.69,2.7-3.09,1.49-1.57,4.55-4.69,7.72-5.69,2.23-.4,7.18-2.63,8.24-7.78v0c-.08-3.31-.39-7.17-.39-7.17a5.78,5.78,0,0,0-1-2.54,47.12,47.12,0,0,1-2-4.5,5,5,0,0,0-.22-.9,1.6,1.6,0,0,0-.93-1.13,1.68,1.68,0,0,1-.71-.88c-.17-.38-.17-.7-.42-.9s-.91-.92-1.34-1.19-1.55-1.09-1.56-1.09-2.28-2.12-2.89-2.75-3-3.13-3-3.13a10.88,10.88,0,0,0-3.44-2c-1.48-.86-3-2.18-4-2.45a3.45,3.45,0,0,1-1.09-.57,4.84,4.84,0,0,1-.48-.4h0l0,0a5.47,5.47,0,0,0-1.81-.57c-.19,0-.29-.13-.38-.36a2.67,2.67,0,0,1-.11-.76,2.78,2.78,0,0,1,0-.47v0a34,34,0,0,0-.63-3.9,3.55,3.55,0,0,0,.31-1.34,1.57,1.57,0,0,0-1.6-1.62c-.68-.79-2-2.72-6.11-2.71a15.17,15.17,0,0,0-1.81.11h0c-1.07.3-5.19,2.2-5.19,7.85a12.64,12.64,0,0,0,.09,1.5,21.24,21.24,0,0,0,.69,2.23,6,6,0,0,0-1.28,2.63.78.78,0,0,0,.27.62,5.39,5.39,0,0,0,2.91.7,4.44,4.44,0,0,0,.88-.07l.33.78.16.72v0a.65.65,0,0,0,.51.35.67.67,0,0,0,.48-.27l.07-.06.26.45a8.15,8.15,0,0,0-.88,2.1c-.07.62-.74,2.86-.74,2.88s-.22.56-.51,1.13a2.56,2.56,0,0,1-.79,1.06A10.84,10.84,0,0,1,276.4,360a22,22,0,0,0-2.22-2.7,10.67,10.67,0,0,0-.4-3c0-.05,0-.1,0-.16s0-.34,0-.53c0-.54-.2-1.16-1.31-1.91l0,0h0a2.92,2.92,0,0,0-.76-.09,1.71,1.71,0,0,0-.67.1.58.58,0,0,0-.38.55v0l-.3.07a1.08,1.08,0,0,0-.72-.32,1,1,0,0,0-.55.17h0l0,0c-.09.12-.2.22-.29.36l-.1-.62-1.84.32-1.47-8.75-4.35.73-5.15-42.91,2.59-.83-2.79-.86-.52-4.3,1-3.2,0,.63,8.17-6.34-1-5.75s-4.41-3.76-6.29-5.1-3.3-1.35-7-1a12.64,12.64,0,0,0-6.11,7.42l.17,5.17L236.23,303l1.92,1.27-5.65,12.55L82.09,517.21h0c-1.75,0-4.78.69-5.67,3.6-2.86,1.56-9.6,5.32-11.28,7.09a3.56,3.56,0,0,0-.84,1.35c-1.95,2.37-3.37,6.75-4.42,11.62V540s.57-2.38.15-3.3a5.36,5.36,0,0,1-.42-2s.28-18.19-.14-21.35-1.26-6.31-1.12-6.71-.85-12.64,0-19.89c0-7-1.12-17.91-1.55-21.73a1.72,1.72,0,0,1,.84-.92,6.68,6.68,0,0,0,1.55-2.1l5.89,8s.57-8.82,1.41-9.48a4,4,0,0,1,2.25.39,4,4,0,0,0,2.11-.13c.7-.39,2.1-1.31,2.1-1.31a1.91,1.91,0,0,0,1.4-1.06c.43-.92,2.25-2.49.28-5.53a14,14,0,0,0,1-3.42c0-1.06.29-10.8.29-10.8l-6.18,3.16L65.6,435s-.14-3.56-6.6-6.84-6.59-4-6.59-4-.56-.78-1.13-.66a8.09,8.09,0,0,1-1.53.14l.27-2.38s3.66-3.56,3.93-7l2.52-.27s4.22-.91-.14-3.55c0,0,2.81-10.41-7.72-11.72-1.4-.27-7.71-.14-10,7.24-1.12.26-4.5.66-2.39,3.3a12.38,12.38,0,0,0,1.68,1,5.61,5.61,0,0,0,1.12,5.67,4.46,4.46,0,0,1,.42,1.45l-.14,4.09s-3.08,1.31-3.36,3.29l-8.85,3.42a20.1,20.1,0,0,0-5.48,4.88c-2.24,3-8.56,11.06-8.56,11.06l-4.21.26L.33,438.84s-3.92-2.9-5.89-2.63c-1.82.53-8.85,7.53-8.85,7.53l4.81.15,4.19.76a15.37,15.37,0,0,0,4.21,2.1l6.45,11.19,16.47-4.75s-.63,8-1.41,17c-1.91,7.54,4.09,5,6.13,4.77,0,0-1.39,13.31-.56,17.91s-.42,13.17-.42,16.21-1.55,4.08-.29,6.19c.14,2.24.71,10.54.14,12.25s-2.25,4.49-1.55,5.27,2.11,1.45,2.11,2.38a10,10,0,0,1-1,2.89l-3.23,4.09-3.37,3.42s-1.18,1.28-1.05,2.33A24.8,24.8,0,0,0,14,550.55c-1.38,1.18-7.26,6.58-7.58,12.16.92,3.64.33,3.88.33,3.88l-4,.37s-3.2,1.64-3.35,8.29-.38,22.15,3.16,32l26.43,1.09L14.65,619H1.2v5.68H-4v55H1947v-55h-5.93a25.34,25.34,0,0,0,7.65-14.34,33.34,33.34,0,0,0,.39-4v-.07l0-.08c-1.21-6.34-4-12.88-11.45-17.33l.61-8.44-5.61-15.21,20.82-.87c4.64-12.85,4.33-33.18,4.14-41.9s-4.38-10.87-4.38-10.87l-5.31-.48s-.76-.33.45-5.1c-.44-7.3-8.14-14.39-9.95-15.93a36,36,0,0,0-19.42-9.45l-1.47-1.54-2.77-3.6a9.16,9.16,0,0,1-.84-2.56c0-.81,1.2-1.39,1.81-2.1s-.85-3.12-1.32-4.65,0-8.83.11-10.79c1.08-1.86-.24-2.78-.24-5.46s-1.09-10.24-.36-14.31c.39-2.13.22-6.43,0-10l-.68-1.44h2c.66,0,1.1-1.61,1.1-1.61s-.89-18.37-.89-19.18a13.45,13.45,0,0,1,1.45-3.32s1.87-2.63,1.87-3.33,1.11-1.82,1.11-1.82l1.11-1.81a6.65,6.65,0,0,1,.85-2.72c0-.54.29-5.12.29-5.12l.3-1.74a33.14,33.14,0,0,0-2.81-10.91c-1.18-2-3.39-8.87-3.39-8.87v-1.88a9.59,9.59,0,0,0-.21-2.35c-.3-1.76-2.59-1.42-2.59-1.42l-.8.24a9.21,9.21,0,0,0-1.86.56c-1.19,1-1,2-.44,3.37s3.09,2.56,3.09,2.56l.29,1.49s.74,3.89.45,3.49a3.72,3.72,0,0,0-2.21-1.22c-10.48-1.6-11.52,5.53-11.52,5.53s-.3.13-1,.4c-2.66,3.63.88,4.17.88,4.17l.16,4.31s1.33.26-1.77.4-8.71,3.24-8.71,3.24-6.95,4.7-9.9,6.31-1.92,3.91-1.92,3.91,3,9,3.26,10.21a49.76,49.76,0,0,1,1.17,5.25,10.06,10.06,0,0,0,.74,2.56s2.22,3.5,2.66,4.43,1.18.4,1.18.4L1887,418l.73,2.56L1887,425c-.13,2.24-1,4.87-1,6.74.72,6.38.06,15.8.19,16.15s-.6,3.14-1,5.92-.12,18.84-.12,18.84a5.06,5.06,0,0,1-.35,1.75,6.76,6.76,0,0,0,.11,2.89v1.08l-3.84-.25-2.59-.2c-1.39-6.57-3.3-12.53-5.91-15.72a4.86,4.86,0,0,0-1.11-1.77c-2.19-2.31-11-7.24-14.78-9.3-1.17-3.78-5.14-4.66-7.43-4.72h-.05L1652,183.67l-7.4-16.46,2.51-1.67-10.2-20.63.21-6.8a16.5,16.5,0,0,0-8-9.71c-4.89-.51-6.75-.51-9.22,1.25s-8.25,6.68-8.25,6.68l-1.27,7.54,10.71,8.32,0-.83,1.33,4.2-.67,5.65-3.67,1.12,3.39,1.08-6.74,56.25-4.11-.68a2.38,2.38,0,0,0-.47-1l-.75-1c0-.49-.18-.49-.39-.77a.74.74,0,0,0-1,.18l-.52-.1c.21-.69-1-.59-1.35-.49-1.42,1-1,1.49-1.08,2.18a9.83,9.83,0,0,0-.34,2.63,20.75,20.75,0,0,0-2,2.39,9.74,9.74,0,0,1-2.84,2.66c-.56.14-1.39-2-1.39-2s-.59-2-.65-2.56a8,8,0,0,0-.8-1.87l.37-.65.24.21a.33.33,0,0,0,.59,0l.14-.63.35-.83a5.15,5.15,0,0,0,3.33-.49c.69-.55-1-2.7-1-2.7a18.52,18.52,0,0,0,.62-2c.7-5.88-3.39-7.75-4.35-8-5-.55-6.17,1.53-6.87,2.28-2.14.21-1,2.42-1,2.42a28.1,28.1,0,0,0-.55,3.47s.2,1.52-.56,1.59a4.64,4.64,0,0,0-1.52.49,4,4,0,0,1-1.45.9,28.67,28.67,0,0,0-3.46,2.14,9.56,9.56,0,0,0-3,1.73s-2.08,2.22-2.64,2.77-2.56,2.42-2.56,2.42-1,.77-1.38,1-1,.9-1.18,1-.28,1.25-1,1.59c-.69.14-.9,1.66-.9,1.66a40.69,40.69,0,0,1-1.8,4,4.86,4.86,0,0,0-.83,2.15s-.28,3.39-.35,6.3c.91,4.42,5.19,6.37,7.14,6.71,2.83.9,5.54,3.67,6.85,5.06s2.42,2.77,2.42,2.77a19.32,19.32,0,0,1-.55,4.22,2.42,2.42,0,0,0-.35,2.63s.07,1-.28,1.38a22,22,0,0,0-1.17,3.6s-.11.3-.23.71l-11.32-1.74-32-19.1,3.28,14.68L1476.32,253l-.11.68h0l-3.51,22.91h0l-.2,1.3,73.44,11.28M1541,267l1.54,6.89-5.5-7.5Zm-9-1.39-8.26,6.06-6.06-8.26Zm-19.42-3-8.26,6.06-6.06-8.26Zm-19.39-3-8.27,6.06-6.07-8.26Zm-15.59-.13,5.51,7.52-7.51,5.51Zm-.94,15,7.77-5.7,5.7,7.77Zm16,1.69-6.4-8.72,8.72-6.4Zm4.37-13.71,5.5,7.5-7.51,5.51Zm-.94,15,7.77-5.7,5.7,7.76Zm16,1.69-6.4-8.72,8.72-6.39Zm4.37-13.72,5.51,7.5-7.51,5.51Zm-.93,15,7.76-5.7,5.7,7.77Zm16,1.69-6.39-8.72,8.71-6.4Zm4.38-13.72,5.51,7.51-7.51,5.5Zm-.94,15,7.77-5.7,1.13,1.53,1.28,5.73Zm222,268.29a14.29,14.29,0,0,0-3.45-1.08l4.7-.83A14.81,14.81,0,0,0,1756.87,551.78Zm-1601.76,45a10.68,10.68,0,0,0-2.63.84,11.09,11.09,0,0,0-1-1.47Zm111.18-192.5a2.36,2.36,0,0,0,.88,0h0l9.95,5.2-.22.44-1.31.69,0,0a5.31,5.31,0,0,0-1.38,2.46l-.23.09a2.51,2.51,0,0,0-.45,0,2.63,2.63,0,0,0-2.36,1.15,5.41,5.41,0,0,0-.68,1.55l-22.37,1.64Zm26.38,38.64,2.49,33.92-47.83,3.51-2.61-35.53,18.08,15.45-.81,9.18s9.91,5.16,17.17-1.26l-.85-8.39Zm-9.46-28,1.48-1.48,1.15.6c0,.38-.05.66-.05.66v0Zm9.22-5.68-.33,1.26a5.16,5.16,0,0,0-1.67,1.27l-.9,0-2.36-1.24,2.75-3.45A12.93,12.93,0,0,0,292.42,409.24Zm-18.84-27.5-3.77-22.51.09,0a2.08,2.08,0,0,1,1.26.58c.65,1.3.9,1.8,1,2l-1.26,1.62,2.47,2.29-.56,1a1,1,0,0,0-.07.35.56.56,0,0,0,.53.57,5.67,5.67,0,0,1,1.42.94c.58.46,1.09.91,1.09.91l0,0h0a2.44,2.44,0,0,1,.45.27,2.39,2.39,0,0,1,.72.75,33.41,33.41,0,0,0,2.31,2.87,2.06,2.06,0,0,0,1.1.47.89.89,0,0,0,.69-.32,8.69,8.69,0,0,1,1.44-1.11c.55-.37,1-.66,1-.66l1.22-.87a3,3,0,0,0,1.53.8c.21.59,1.23,3.42,2,5.25a5.18,5.18,0,0,0,1.43,1.93c.43.4.67.61.67,1.07s-.22,1.53-.23,2.51a2.29,2.29,0,0,0,1.1,2.29l-1.84,1.91a5.08,5.08,0,0,0-.92,2.73v1.36l-2.64,3.56-.7,1.17a3.72,3.72,0,0,0-1.54,2.31,2.38,2.38,0,0,1-.27.83.5.5,0,0,1-.09.11h0l-.05,0,0,.07s-.95,2.2-1.41,3.14c-.33.66-2,3-2.84,4.24l-9-4.7a7.87,7.87,0,0,0-.06-1.55c-.05-.34-.13-.61-.15-.73l-1-6.25.61-.09-1.41-10.18Zm-19.2-84.24.11.94-.25-.49ZM34.3,542.91v-3s.83-2,.55-2.91c0,0,0-.06,0-.09l2.87,1.94.64,3.82Zm8.12-.53c-.4-1.89-.88-4.18-1-5.1a4.21,4.21,0,0,0-1.53-2.58l-4.66-3a6,6,0,0,0,.65-3,50.16,50.16,0,0,1-.13-6.19l.56-11.73a41.32,41.32,0,0,0,1.54-5.93c0-1.17,2-5.12,2-6.19s.28-7,.28-7,.56-2.63,1.83-2.5c.69.26.69.79,1.26,2.24s3.51,8.43,3.51,8.43.15,3.42.56,8.3a16.77,16.77,0,0,0,2,5.14,27.69,27.69,0,0,1,.56,5.79v13s1.26,1.19,1,2.37-1.13,2.5-1,3.7a9.92,9.92,0,0,0,1,2.75l.11.91Zm110.73-1.46-8.25,20.42-2.28-4.05,9.9-25.23.82-.43Zm3.51-8.67,0-2.41,1.19-.63Zm3.3-8.15L156.8,526l.12-5.16,3-7.67,1.21,8.06Zm1.24-23.67L161,499l4.89-13.12,1.09.53-5.16,13.69Zm2.92,17.46-1.81-10.8,1.94-5,10.95-6.53ZM166,497.75l3.88-9.88,7.29,3.65Zm7.4-15.27,2.4-4.75,2.07,6.7Zm4.67-9.15-1.26-4.21,2.28-6.09,3.85-2.32-4.69,12.52Zm8.22-29.4,0-.1,1.25-3.35.65,2.39Zm2.17,2.07-.78,2.09-.46-1.37Zm-2.06,8.15.3,1-.84.48Zm-1.81,2.16-3.8,2.15,3.76-10,1.39,4.32Zm-3.3,27.84-2.34-7.85,6.84-4Zm6.29-16.67-8,4.94,4.69-12.49,3.38-2,1.67,5.12Zm.57-18,1-2.76,1.62,6.07-1.32.75Zm7.16-21.77L191,439,189,431.85Zm-2.57-1.91,4-9.87,1.3,4.41L197,423ZM191,458.24l-.66-2,1.15-.69.22.82Zm3.33-7.83-2-6.72,5.84-3.41Zm5.41-14.11-8.18,4.61-.12-.4,5.12-13.66L199.4,425l2,6.93Zm-1.43-14.1.13-.34.07.23Zm12.24-35.32-2.13,5.66-4.37-1.82Zm-2.37-1.34,3.74-8,.66-.51.58,2.86-1.05,2.81ZM206,399.08l-2,5.34-1.9-6.74ZM202.73,412l1.7,6.3L201,420.51l-.86-3.09,1.87-5Zm-3,3.9-.48-1.72,1.46-.91Zm-1-4.72,2.31-5.67,1,3.64ZM203,427.83l-1.21-4.39,3.41-2.22.14.53Zm4.51-11-1.88-6.63,6-3.77Zm5.86-14.72-8.54,5.27-.41-1.43,2.46-6.55,6.62,2.37Zm2.41-6.47-6.46-2.71,2.53-6.78,2.32-1.36,2,9.79Zm-2.27-13.89,0-.1v.06Zm1.1-9.81,2.93-6.24.34,1.72-1.3,3.44-1.91,1.4Zm.92,4.42.82-2.19,2.49-1.93,1,5-3.57,2.57Zm2.43-6.51.27-.69.09.44Zm.15,19-1.19-5.74,4-2.32Zm1.74-31.08,2.74-3-2.21,5.88Zm3,16.54-.76-4.14,2.77-2Zm3.64-11-4.9,4,.26,1.55-1.15-6.32,3.55-9.5,2.34-2.53,1.68,7.41Zm-2-14.69,1.14-2.37.07.29-.56,1.48Zm6.14,2.16-1-3.58.81-.87,1.49.46Zm11.23-38.47-1.7-1.21,3,2.11L234.69,339l-5.76,5.45-.6-2.19,2.75-7.31Zm-158.68,205L230.77,320.68l-4.46,9.92L85.52,518.47A4.19,4.19,0,0,0,83.22,517.27Zm32.88,2.4L86.64,520a7.21,7.21,0,0,0-.52-.8L224.55,334.5l-25.68,57.09.33.14-.82,2.36-.51-.2L165,476.78a3.87,3.87,0,0,0-3.7-1.26c-7.22.85-4.75,6.94-4.75,6.94l-21,24.42-.1,0c-2.63-1.14-3.7-.48-4.1,0-.65.72-5.84,6.53-12.14,13.56A30.63,30.63,0,0,0,116.1,519.66Zm24.26-5.61h.08a2.12,2.12,0,0,0,.26-.35l.19-.21h-.08c.64-1.21-.12-2.6-1.33-3.84L159.71,486l1.94,1.14-21.28,66.34-13-25.89Zm-8.46,79.9-1.2.44,3.9-9.32,9.54-10.91-7.25,14.16Zm69.71,30.77h-6.82v-.12h6.82Zm0-1.23h-6.82v-1.14h6.82Zm0-2.26h-6.82v-10h6.82Zm0-11.12h-6.82V609h6.82Zm0-2.25h-6.82v-10h6.82Zm0-11.11h-6.82v-1.15h6.82Zm0-2.26h-6.82v-10h6.82Zm0-11.11h-6.82v-1.14h6.82Zm0-2.27h-6.82v-10h6.82Zm0-11.11h-6.82v-1.15h6.82Zm37,15.63h6.44c0,.39-.06.77-.08,1.15h-6.36Zm.6,29.84s-.43,3.48-.52,3.76a1.33,1.33,0,0,1-.08.15v-4.74h.79Zm.45-1.94h-1.05v-1.15H240Zm1.21-5.1c-.18.71-.43,1.76-.68,2.84h-1.58v-10h4.05C241.91,604.27,241.19,607.34,240.91,608.42Zm2.08-8.27h-4.35V599h4.67Zm-4.35-2.27v-10H245c0,.86,0,1.64,0,2.16,0,1.68-.18,4.69-.18,4.69a22.81,22.81,0,0,0-1.12,3.15Zm6.82,26.75H244c0-.34,0-.71,0-.78s.59-.81,1-1.06a2.59,2.59,0,0,0,.48-.48Zm0-43.66-.54,1.46.54-.17v.91a13.13,13.13,0,0,0-.25,1.33h-6.57v-10h6.82Zm0-7.58h-6.82v-1.15h6.82Zm0-2.26h-6.82v-10h6.82Zm0-11.11h-6.82v-1.14h6.82Zm0-2.27h-6.82v-10h6.82Zm0-11.11h-6.82V545.5h6.82Zm1.27,27.86h1.15c-.39,1-.79,2.06-1.15,3Zm17,45.2a5.43,5.43,0,0,0,0,1.63l-.18,2.45s-.1.41-.21.93H248.54v-.09h-1.79v-4.19c.36-.6.87-1.41.87-1.41s3.26-7.07,3.73-9.25,2.22-4.88,3.15-6.39a49.21,49.21,0,0,0,3.73-5.31c.47-.69.58-.58.58-.58s1.46,3.39,2,4.59,1.46,4.5,2.22,5.81c.17,2,1,6.75,1,7.89S263.8,618.6,263.69,619.71Zm17.16-41.42h-1.23v1.11h1.23v1.15h-1.23v1.11h1.23v10h-1.23v1.11h1.23v1.15h-1.23V595h1.23v10h-1.23v1.12h1.23v1.15h-1.23v1.11h1.23v10h-1.23v1.12h1.23v1.14h-1.23v1.12h1.23v2.94h-4.74c-.25-1.77-2.38-1.37-2.65-1.37a5.26,5.26,0,0,1-1.22-.51l-.58-3,.76-.19c.76-.68.41-3,.56-4.55.78-2.36.61-6.68.53-8.08a26.52,26.52,0,0,1,.17-3.66s.26-3.1.26-4.13a12.4,12.4,0,0,0-1.14-3.38l-3-6.11c1.83.37,1.57-1.59,1.57-1.59a29.94,29.94,0,0,1-1.75-4.13,34.94,34.94,0,0,1,2-10.23l1.49-6.65s3.57,1.4,5.85,2.34a2.17,2.17,0,0,0,1.94,0ZM289,624.72h-6.82v-2.94H289Zm0-4.06h-6.82v-1.14H289Zm0-2.26h-6.82v-10H289Zm0-11.11h-6.82v-1.15H289Zm0-2.26h-6.82V595H289Zm0-11.11h-6.82v-1.15H289Zm0-2.26h-6.82v-10H289Zm0-11.11h-6.82v-1.15H289Zm0-2.26h-6.82v-10H289Zm0-11.12h-6.26c.21-.33.45-.72.7-1.15H289Zm0-2.26h-5a6,6,0,0,0,.53-1.42c.25-1.51.43-2.45.43-2.45l-.43-.76c0-.46.25-2.25.25-2.25a6.78,6.78,0,0,0,0-3.13H289Zm0-11.11h-4.67a.89.89,0,0,0-.3-.26c-1-.2-1.41,0-1.57.26h-.29v-1.15H289Zm0-2.26h-6.82v-10H289Zm0-11.11h-6.82v-1.15H289Zm0-2.25h-6.82v-10H289ZM289,527h-6.82v-1.14H289Zm52.36,86.15a37.5,37.5,0,0,0,1.95,3.73L341.19,619l-5.8-5.8Zm-7.05,11.53v-10l5.59,5.59-4.39,4.38Zm3.9,0,3-3,3,3Zm10.88,0h-2.11l-4.38-4.38,1.74-1.74a30.48,30.48,0,0,0,2.39,3.11A31.17,31.17,0,0,0,349,624Zm107.45-11.53c1.22,1.22,2.47,2.4,3.78,3.52L458,619l-5.8-5.8Zm-9.38,0-5.8,5.8-5.8-5.8Zm-16.69,0-5.8,5.8-5.8-5.8Zm-16.69,0-5.8,5.8-5.8-5.8ZM401,624.72v-10l5.6,5.6-4.38,4.38Zm3.9,0,3-3,3,3Zm10.89,0h-2.12l-4.38-4.38,6.5-6.5Zm1.89,0v-10l5.6,5.6-4.38,4.38Zm3.9,0,3-3,3,3Zm10.89,0h-2.12L426,620.34l6.5-6.5Zm1.9,0v-10l5.59,5.59-4.38,4.38Zm3.9,0,3-3,3,3Zm10.88,0H447l-4.38-4.38,6.5-6.5Zm1.9,0v-10l5.6,5.6-4.38,4.38Zm3.9,0,3-3,3,3Zm10.89,0h-2.13l-4.38-4.38,2.42-2.43c1.32,1.05,2.67,2.07,4.08,3Zm3.11,0h-1.21v-2.57q1.17.73,2.37,1.41Zm2.69,0,.19-.19.35.19ZM1629.8,600.37h-6v-7.17h6Zm0-8.15h-6v-1h6Zm0-2h-6v-8.78h6Zm0-9.74h-6v-1h6Zm49,19.87h-6v-7.17h6Zm0-8.15h-6v-1h6Zm0-2h-6v-8.78h6Zm0-9.74h-6v-1h6Zm-39.17-402.75,14.19,29.67,3.6,9.58-.79,2.87-7.55-7.14L1638,178.91Zm16,45.74-1.28,4.69-1.73-5.23,2-.61Zm-32.38-65.11.19.6-.33.63Zm-13.5,112.4,4.92.82,6.88-38.45-4.29-.93,2-11.76-3.34-.57,6.72-56.09,2.63.85,37.24,117-53.17-8.17Zm92,25.21-1.8-4.53,6.59,1Zm6.58-2-2.06,13.41-3.66-9.21Zm-4.27,32.63-5.66-3.62-1.33-3.54,1.71-5.78Zm4.93,7.92-2.74,9.38-5.55-14.82Zm-.68-25.79,2.11-13.73,5.81,7.92Zm9.24-4,5.7,7.77-13.48-2.07Zm1.81-1.33,8.69-6.37L1725.81,312Zm-1.32-1.8-6.06-8.26,14.32,2.2Zm-19.79-14.39-1-2.43-.65.26-1.09-3.09.43-.19-33.65-74.83,63.33,84.5Zm-1.58,34.67-.27-.16.1-.3Zm-7.53-41.26-5.74,2.39-2.78-7.42Zm-10.57-10.5-1.38-3.68.76-3.75.86.67,4.92,10.47ZM1689,290.95l-.73,4.77L1687,292.4Zm1.21,20.44,2.78.43,1.41,3.75-1.12,4-4.5-2.89Zm.8-18.84,0-.2,0,0Zm3.37,19.48,1,.15-.38,1.39Zm-1.47-6.74,2-1.43,1.44,3.53Zm-.41-2.48.77-2.86.72,1.76Zm-15.65-34-.06-.06v-.07Zm-1.45-12.88-.08.41-2.51-1.83-1.7-4.52.45-2.25Zm-4.39-2.72-.47-.33.12-.59Zm-2.49-15.8-.7,3.83-2.9-7.71Zm-6.1-12.05-.85-.8-.72-1.93.08-.38Zm.32,5.78,4.66,12.46-1.51,8.29.34-2-6.42-5.22-2.33-7.07,2.19-9.72Zm2.89,60.4-1.3.29,1.13-.83Zm-1-32.46-2.64-8,3.63,2.55Zm-30.52,22.25,14.33,2.2-8.27,6.07Zm4.26,9.6-7.52,5.52,2-13Zm-19.41-3-7.51,5.51,2-13Zm-4.27-9.59,14.33,2.2-8.26,6.07Zm5.59,11.39,5.7,7.78-13.48-2.07Zm1.81-1.33,8.73-6.4-2.33,15.13Zm-11.09-9.08.37,0-2.2,14.36-.47,0-2.7-3.68,1-6,.6.1.43-2.54Zm-4.42,15.19-1.25-.19a7.74,7.74,0,0,1,.08-1.24l0-.12Zm-16.41-54.13c0-1,1.11-1,1.87-2.7s1.8-4.71,1.8-4.71a2.44,2.44,0,0,0,1.45-.76l1.18.83a14.58,14.58,0,0,1,2.22,1.59c.49.56,1.31-.14,1.31-.14a27.16,27.16,0,0,0,2-2.49,2.67,2.67,0,0,1,1.11-1,11.16,11.16,0,0,1,2.29-1.66c.48-.07.27-.56.27-.56l-.56-1,2.14-2-1.06-1.39.93-1.87a1.79,1.79,0,0,1,1.35-.56l-1.36,8.15-2.41-.4-5.43,32.36c-.64-.94-1.29-1.91-1.49-2.3-.42-.83-1.26-2.77-1.26-2.77s-.27-.14-.41-1a3.15,3.15,0,0,0-1.31-1.94l-.63-1-2.35-3.18v-1.25a4.36,4.36,0,0,0-.76-2.29l-1.8-1.87C1590.95,244.05,1590.11,241.35,1590.11,240.38Zm7.41,37.53a1.16,1.16,0,0,0,.15.73l-2.42-3.3,2.86.44A9.36,9.36,0,0,0,1597.52,277.91Zm2.36,1.73,3.19-.28a12.23,12.23,0,0,1,1.24-.11l-.33,2.41-2.66,2L1597.9,279A3.56,3.56,0,0,0,1599.88,279.64Zm-.37,5.3-7.51,5.51,2-13Zm1.33,1.81,2.58,3.51-.24,1.46a8.65,8.65,0,0,0-.22,1,10.93,10.93,0,0,0-.13,1.26l-9.76-1.5Zm1.8-1.32,1.8-1.32-.51,3.07ZM1590.74,264l4.08,5.12,2.52,2.52-3.18-.49a.86.86,0,0,0,0-.16s-.07-.83-.14-1.53c-.69-1.18-3.32-.9-3.88-.9-.27-.55-1.52-1.18-1.52-1.18l-.35-1.32A11.62,11.62,0,0,0,1590.74,264Zm1.21,12-2.33,15.1-6.39-8.71Zm-1.79-1.47-8.26,6.06-6.06-8.26Zm-20.43-3.14,1,.16-.85.63Zm1.81,8.09-1.1-4.92,2.09-1.54Zm1.34,6,1.7-11.06,5.51,7.5-6.88,5Zm.87,3.88,7.67-5.63,5.7,7.76-13.35-2.05Zm.95,4.25,58.41,9m2.31-4.35-.34.63-3.19-.49,7.77-5.7,2.91,4Zm13.17-2.94-3.64.81-3.49-4.76,8.72-6.4Zm2.35-.53,1.29-8.43,5.13,7Zm2.55-10.51,10.36,1.59.91,2.85-5.2,3.82Zm7,18.5,1.69-2.87,2.59,3.53Zm7.73-5.82-.41.31.27.66-.79,5.14-3.86-5.26,2.75-4.67.45,1.42.75-.54.9,2.61Zm1.43,5.4.05-.36.1.24Zm1.19-24.25-3.63-10.57,5.18,3.06Zm-2.23-15.29,1.28-6.52,3.26,2.53,1.08,2.87-.92,4.49Zm7.39,9.92,3,1.79,3.32,8.88-2.22.93-6.31-1Zm2.25,21.79,4-1.44-3.31,2.43Zm1.06,6.58,1.83,1.14,3.05,4.16-2.95-.45Zm5.43,13.63-1.79-4.49,2.94.45Zm2-8.7-.44-.6.49.3Zm-6.22-8.48-.18-.24,5.72-4.2,1.88,5-.56,3.65Zm10.17,31.63-3-8,.18-.7,4.47,2.91Zm2.07,5.4,2.67-9.09,3.67,2.4,6.72,17.91-.15.53-10.73-6Zm9.26,24.2-5.07-13.28,7.66,4.47Zm4.38,10.27-.94-2.45.3-1.09,1.52.91Zm.33-7.13,2.14-8,1.36,3.63-1.77,5.32Zm6.52,3.67L1712,365l.42-1.26Zm-.12-3.76,1.83-5.65,4.91,13.15-5-2.8Zm-.46-11.54-2.44-1.38.85-3.14,1.63,4.39Zm-1.21,3.66-.6,1.79-1-2.72Zm-2.7,21.39,2.17-6.73,4.43,2.66,6.13,16.37-10.53-6.47Zm10.46,27.7-5.88-15.6,8.94,5.29Zm4-14.34L1717,372.3l5.07,3,3,8-1.65,5.53Zm3.2,5.9,3.16,6.23-5.85,2.55Zm7.77,13.3,5.09,13-14.64-8.18Zm7.51,39.33L1727.08,418l14.35,8.57,2.56,6.5Zm3.08-23.3L1737.91,406l1.43-.71,6.42,17.21-.31,1.87Zm.84,27.69,1.58-10.57,3.94,10.06.15,6.75-4.15-2.49Zm4.24,10.46,1.55.81.07,3.19Zm6.22,15.38-.24-12.21,1.08.57,13,33.06-3,5.32ZM1783.86,547l-6.56-7.4L1767.8,521l12.5,14.29,5.11,12.23Zm-11.13-53.1-27.89-87,2.54-1.5,26.51,31c-1.58,1.64-2.58,3.47-1.75,5.06h-.1l.26.26a2.9,2.9,0,0,0,.34.45h.11l17.07,17.71ZM1843.17,450l-38.61-.45a38.9,38.9,0,0,0-4.08,1c-8.27-9.22-15.06-16.82-15.91-17.77-.53-.69-1.91-1.56-5.38-.07l-.13.07-27.49-32s3.24-8-6.23-9.11a5.12,5.12,0,0,0-4.85,1.64l-31.39-79.08,18.26,2.81.6-3.93h-.06l2.41-15.67L1843.85,449A9.51,9.51,0,0,0,1843.17,450Zm1.48-2-114-152.18.56-3.65-3.72-.57-67.36-89.88-5.84-13,193.41,257.68A5.58,5.58,0,0,0,1844.65,448Zm44.82-42a7,7,0,0,1-.78,2.43,10.79,10.79,0,0,0,.08,3.44.12.12,0,0,1,0,.09c0,.05,0,0,0-.09a4.32,4.32,0,0,0-1.08-.92,3.66,3.66,0,0,1-1.21-.9c-.67-.7-1.88-6.77-1.88-6.77l-.11-2.63,1.56.31a19.49,19.49,0,0,0,2.54-2.82c.22-.61,1.33-.61,1.33-.61A34.77,34.77,0,0,1,1889.47,406Zm16.07,62.6-1,.67a5.55,5.55,0,0,0-2,3.39c-.21,1.2-.84,4.22-1.37,6.7l-8.56-.55.1-.77a9.18,9.18,0,0,0,.85-2.43c.11-1.06-.6-2.22-.85-3.26s.85-2.09.85-2.09v-11.5a25.89,25.89,0,0,1,.48-5.11,14.68,14.68,0,0,0,1.68-4.54c.37-4.28.48-7.3.48-7.3s2.53-6.18,3-7.45.49-1.74,1.09-2c1.08-.12,1.56,2.2,1.56,2.2s.24,5.24.24,6.17,1.68,4.42,1.68,5.46a37.22,37.22,0,0,0,1.32,5.23l.48,10.34a47.3,47.3,0,0,1-.11,5.46A3.09,3.09,0,0,0,1905.54,468.62Zm1.21,11.11-.26,0,.26-1.55Zm6-99.23v-1s1.89-.51,2.44-1.41c0,0,.55,2.83.77,3.33a2.09,2.09,0,0,1,0,1.81c-.33.4-1,.2-1,.2l-2.76-.2A12,12,0,0,0,1912.72,380.5Z"/><path class="cls-3" d="M386.93,609.75a26.15,26.15,0,0,0,6.52-2.14l.55-.07.11.9.63,1.18a37.15,37.15,0,0,1-3.92.82h12l.76-5.28,1.78-1.88,1.23,2.41c.86,3.74,2.72-.17,2.72-.17l-.89-2.64a4,4,0,0,1,.77-2.48,3,3,0,0,0,.63-2.65,1.14,1.14,0,0,0-.09-.18c3.28-1.59.93-6.43.93-6.43l.15-4.43s2.86-2.46,3.62-2.31c1.73.13,1.49-2.65,1.49-2.65v-2.7c2.67-.23,2-1.25,2-1.25a39.77,39.77,0,0,1-1.88-6.85,11.11,11.11,0,0,0-5-6.94c-1.69-.76-3.9-1.7-3.9-1.7l-1-1.1,1.29-2.25,1.26-1.63a7.07,7.07,0,0,0,1.42.54c.89.26-.05-2.32-.21-2.54,2.47-6.32-2.63-8.84-4.38-9.11-4.49.23-5.71,3.08-5.71,3.08l-1.38-.19c-2.09-.09.79,1.36.79,1.36l-.28.65c-1.85,1.72-1.95,5.76-1.95,5.76a13.9,13.9,0,0,1,.32,2.4c-.71,1.07.88,1.11.88,1.11l.13,1-1.13-.22c-8.63.51-10,5-10,5l-4.53,6.6.06.48,1.15,1.32s-4.52,4.76-4.81,5.28l-.9,1.58-1.6.83L370,581.19l-.63,2.67,2.59,1.1a27,27,0,0,0,2.88.48,1.41,1.41,0,0,1,1,.35l-1.17,1.26a9.6,9.6,0,0,0-.13,1.85c0,1.1,2,2.06,3.29,1.65a2.57,2.57,0,0,0,1.61-1.67l.61,0,.53.29,1.58.9a9.45,9.45,0,0,0-.06,2.34c.15,1.08,1.72,1.91,1.72,1.91a11.85,11.85,0,0,0-5.18,5.28,71.61,71.61,0,0,0-2.81,6.61,4,4,0,0,0,2.16,4.2h5.62A25.3,25.3,0,0,1,386.93,609.75ZM388.15,577l1.36-.8a4.25,4.25,0,0,1,.25,2.78,20.44,20.44,0,0,0-.57,4l.09.71-2.14-.45-2-.1-.49-.92Z"/><path class="cls-6" d="M1319.57,625.35h.63l-.41-.23Z"/><path class="cls-6" d="M1391,625.35h1.8v-1c-.61.34-1.22.67-1.84,1Z"/><polygon class="cls-6" points="842.27 625.35 842.27 623.78 840.69 625.35 842.27 625.35"/><path class="cls-6" d="M1319.57,625.35l.23-.23.41.23Zm73.25,0H1391l0,0c.62-.32,1.23-.65,1.84-1Zm-550.55,0h-1.57l1.57-1.57Z"/><polygon class="cls-3" points="1150.6 628.13 1170.15 628.13 1170.15 557.28 1150.6 559.31 1150.6 628.13"/><rect class="cls-3" x="1147.34" y="563.75" width="26.07" height="4.95"/><rect class="cls-3" x="1147.34" y="578.86" width="26.07" height="4.95"/><rect class="cls-3" x="1147.34" y="593.98" width="26.07" height="4.95"/><rect class="cls-3" x="1147.34" y="609.1" width="26.07" height="4.95"/><rect class="cls-3" x="1147.34" y="624.22" width="26.07" height="4.95"/><rect class="cls-3" x="1164.17" y="521.08" width="0.85" height="42.66"/><rect class="cls-3" x="1162.43" y="526.64" width="0.85" height="35.45"/><rect class="cls-3" x="1159.95" y="521.08" width="0.85" height="38.4"/><rect class="cls-3" x="1152" y="522.13" width="0.85" height="45.53"/><rect class="cls-3" x="1154.44" y="528.9" width="0.85" height="30.58"/><rect class="cls-3" x="1156.87" y="532.03" width="0.85" height="30.06"/><rect class="cls-3" x="1167.82" y="525.08" width="0.85" height="35.8"/><rect class="cls-3" x="1166.08" y="533.25" width="0.85" height="28.85"/><rect class="cls-3" x="1158.26" y="528.9" width="0.85" height="33.71"/><rect class="cls-3" x="1158.68" y="554.2" width="10.43" height="0.85"/><rect class="cls-3" x="1152.02" y="554.72" width="6.71" height="0.85" transform="translate(-72.28 186.46) rotate(-8.95)"/><rect class="cls-3" x="1160.28" y="555.08" width="8.3" height="0.85" transform="translate(-91.35 259.71) rotate(-12.25)"/><rect class="cls-3" x="1155.79" y="551.85" width="0.85" height="8.34" transform="translate(502.92 1660.2) rotate(-85.07)"/><path class="cls-3" d="M633.55,581.1l-.08.85s-3.51.45-3.8.37-1-.75-1.13-.72a2,2,0,0,0-.39.25,3.17,3.17,0,0,0-.55.59,1.6,1.6,0,0,1-.12.22l-31.2,4-1.48-.87-.49.44h-1.4l.25,66.65s1.42.33,1.55,0-.1-19.16-.1-19.16h2.24s2.5.63,2.94-1.52L599.67,592l.76-.48,25.39-1.9.49.19L626.12,634a2.83,2.83,0,0,0,2.25,3.18c2.6.49,4.23.87,4.23.87v10.66L632.45,661a1.71,1.71,0,0,0,1.88,0l1-79.94S634.11,580.71,633.55,581.1Zm-39,7.66.16-.31,4.08-.62V601l-.4.37h-3.67l-.16-.22Zm0,13.56.4-.28h3.64l.31.28.16,14.8-.28.4H595l-.5-.4Zm4.51,29c0,.09-.22,1.21-.8,1.42l-3.55-.28-.16-.31V618.41a4.29,4.29,0,0,1,.46-.4l3.33.2.71.35S599.07,631.26,599,631.36Zm12.55-41.57a.53.53,0,0,1-.2.22s-10.73.9-10.73.9h-.53l-.31-.2v-2.86l.6-.29s10.92-1.21,10.92-1.21l.25.17Zm14.56-1.61a.8.8,0,0,0,0,.28l-.87.34-12.21,1h-.59l-.14-3.32.43-.26,13.1-1.5s.29.39.28.45S626.18,588.13,626.15,588.18Zm6.64,48.15a3.44,3.44,0,0,1-.55.22l-3.4-.31a3.53,3.53,0,0,1-1.58-1.48c-.25-.74-.28-15.14-.28-15.14a3.2,3.2,0,0,1,.43-.28l5.28.14.25.14Zm.25-18h-5.19l-.62-.31V601.24l.12-.31c.76-.35,5.66-.41,5.66-.41l.25.29Zm.31-19.11-1.08.52h-4.65l-.38-.37.18-14.08.2-.76,5.45-.51h.43Z"/><path class="cls-3" d="M666.79,589.25l-.07.74s-3,.39-3.29.32-.87-.66-1-.63a1.56,1.56,0,0,0-.34.21,3.17,3.17,0,0,0-.48.51,1,1,0,0,1-.11.19l-27,3.48-1.28-.75-.43.38h-1.21l.22,57.74s1.23.29,1.34,0-.09-16.6-.09-16.6H635s2.17.55,2.54-1.31l-.09-34.8.66-.42,22-1.64.43.16L660.35,635a2.46,2.46,0,0,0,2,2.76c2.25.43,3.67.75,3.67.75v9.23l-.14,10.73a1.47,1.47,0,0,0,1.63,0l.91-69.24S667.27,588.91,666.79,589.25ZM633,595.89l.13-.27,3.53-.54v11.37l-.35.32h-3.18l-.13-.18Zm0,11.74.35-.24h3.16l.27.24.14,12.82-.24.35h-3.24l-.43-.35Zm3.91,25.15c0,.08-.19,1-.7,1.23l-3.08-.24-.13-.27V621.57a3.56,3.56,0,0,1,.4-.35l2.89.17.62.31S636.92,632.7,636.89,632.79Zm10.88-36s-.14.17-.17.19-9.3.78-9.3.78h-.46l-.27-.17v-2.48l.52-.25,9.46-1,.21.15Zm12.62-1.39a.69.69,0,0,0,0,.24l-.75.3-10.58.86h-.51l-.12-2.88.37-.23,11.35-1.3s.25.33.24.39S660.41,595.34,660.38,595.38Zm5.76,41.71a3.07,3.07,0,0,1-.48.19l-2.94-.27a3.06,3.06,0,0,1-1.36-1.29c-.21-.64-.24-13.11-.24-13.11a2.55,2.55,0,0,1,.38-.24l4.57.12.22.12Zm.21-15.55h-4.49l-.54-.27V606.7l.1-.27a31.67,31.67,0,0,1,4.91-.36l.21.25Zm.27-16.55-.94.46h-4l-.33-.32.16-12.2.17-.66,4.72-.44h.37Z"/><path class="cls-3" d="M658.27,590.39c-1.24-.12-1.15.25-1.73-.08s-25.37-6.92-25.37-6.92l-1.49-1.07a8,8,0,0,0-1.06,1.85c0,.31.7.66.74.82s.21.41.37.25a1.67,1.67,0,0,1,.49-.29l.32.25a.49.49,0,0,0,.46.12c.25-.08,5.23,1,5.23,1l-27.39,3-9-1.52a12.23,12.23,0,0,0-1.68-.29c-.45,0-2.39.08-2.39.08l-.62.27a8,8,0,0,0,.7,1.15c.06,0,.72.12.84.12l2.59-.1,32.51,5.64,1.52-.66-1.93-.57-1.11-.25,23.06-2.47,1.4.16.45.38.48,0,3.56,0S659.5,590.51,658.27,590.39Zm-32,2.06L611.39,590l25.75-2.29a13.92,13.92,0,0,0,1.73-.33l.54-.25L650.94,590Z"/><path class="cls-3" d="M594.33,595h.89s.12,0,.21.17a3.77,3.77,0,0,1,.14.39l.22.16.6.83,35.5,37.15s.35.88.24.82-.55-.45-.55-.45l-18-18.78S596.1,597,595.93,597s-.29,0-.47-.14-.16-.35-.33-.49-.23-.31-.33-.31-.54.39-.6.08A4.73,4.73,0,0,1,594.33,595Z"/><path class="cls-3" d="M631.61,601.14l-37.22,42s-.15.9-.2,1.07-.32.41,0,.37a.8.8,0,0,0,.51-.41s.43-.21.43-.08-.08.79.21.49.49-.46.41-.66a4.28,4.28,0,0,1-.17-.62l36.24-41.55.33-.66Z"/><path class="cls-3" d="M666.92,597.87l-34.77,51.65H631s-.16-.41-.16,0v.74l.37-.17.54-.12v.62h.36s1,.66,1,0a18.41,18.41,0,0,1,1.14-3.25l32-47.61.67-.33.4-.83Z"/><path class="cls-3" d="M633.84,595c-.15-.21-1.9-.33-1.69,0s-.83.56,0,.74l.83.19.86.63L664.39,639a2.91,2.91,0,0,0,0,.64c0,.06,0,0,.12.1s.15.11.28,0,.19,0,.19-.13,0-.17,0-.17l.58,0s.29.27.33.28.59.59.52,0,0-.94,0-.93-.62-.15-.79,0a3.41,3.41,0,0,1-.44.22s-.4-.31-.4-.31l-29.9-42.63S633.95,595.1,633.84,595Z"/><path class="cls-3" d="M633.55,515.48l-.08.85s-3.51.45-3.8.37-1-.76-1.13-.72a1.86,1.86,0,0,0-.39.25,3.34,3.34,0,0,0-.55.59,1.44,1.44,0,0,1-.12.22l-31.2,4-1.48-.86-.49.43h-1.4l.25,66.66s1.42.33,1.55,0-.1-19.17-.1-19.17h2.24s2.5.63,2.94-1.51l-.11-40.17.76-.48,25.39-1.9.49.18-.19,44.11a2.83,2.83,0,0,0,2.25,3.18c2.6.5,4.23.87,4.23.87V583l-.16,12.39a1.71,1.71,0,0,0,1.88,0l1-79.94S634.11,515.08,633.55,515.48Zm-39,7.66.16-.31,4.08-.62v13.13l-.4.37h-3.67l-.16-.22Zm0,13.56.4-.28h3.64l.31.28.16,14.79-.28.4H595l-.5-.4Zm4.51,29c0,.09-.22,1.21-.8,1.42l-3.55-.28-.16-.31V552.79a4,4,0,0,1,.46-.4l3.33.2.71.36S599.07,565.64,599,565.73Zm12.55-41.57s-.15.2-.2.22-10.73.9-10.73.9h-.53l-.31-.2v-2.86l.6-.29,10.92-1.2.25.17Zm14.56-1.61a.8.8,0,0,0,0,.28l-.87.34-12.21,1h-.59l-.14-3.32.43-.26,13.1-1.5a2.16,2.16,0,0,1,.28.44C626.14,519.59,626.18,522.5,626.15,522.55Zm6.64,48.15a3.42,3.42,0,0,1-.55.22l-3.4-.31a3.5,3.5,0,0,1-1.58-1.48C627,568.39,627,554,627,554a3.39,3.39,0,0,1,.43-.28l5.28.14.25.14Zm.25-18h-5.19l-.62-.31V535.62l.12-.31c.76-.35,5.66-.41,5.66-.41l.25.29Zm.31-19.11-1.08.53h-4.65l-.38-.37.18-14.09.2-.76,5.45-.51h.43Z"/><path class="cls-3" d="M666.79,523.63l-.07.73s-3,.39-3.29.32-.87-.65-1-.63a1.56,1.56,0,0,0-.34.21,3,3,0,0,0-.48.51,1,1,0,0,1-.11.19l-27,3.48-1.28-.75-.43.38h-1.21l.22,57.74s1.23.28,1.34,0-.09-16.6-.09-16.6H635s2.17.55,2.54-1.31l-.09-34.8.66-.41,22-1.65.43.16-.16,38.21a2.46,2.46,0,0,0,2,2.76c2.25.43,3.67.75,3.67.75v9.23l-.14,10.73a1.48,1.48,0,0,0,1.63,0l.91-69.24S667.27,523.28,666.79,523.63ZM633,530.26l.13-.27,3.53-.54v11.37l-.35.32h-3.18L633,541ZM633,542l.35-.24h3.16l.27.24.14,12.81-.24.35h-3.24l-.43-.35Zm3.91,25.15c0,.09-.19,1-.7,1.23l-3.08-.24-.13-.27V556a3.37,3.37,0,0,1,.4-.35l2.89.17.62.31S636.92,567.08,636.89,567.16Zm10.88-36s-.14.17-.17.19l-9.3.77h-.46l-.27-.17v-2.48l.52-.26,9.46-1,.21.15Zm12.62-1.39a.69.69,0,0,0,0,.24l-.75.3-10.58.86h-.51l-.12-2.88.37-.23,11.35-1.3s.25.33.24.39S660.41,529.71,660.38,529.76Zm5.76,41.72a3.1,3.1,0,0,1-.48.19l-2.94-.27a3,3,0,0,1-1.36-1.28c-.21-.64-.24-13.11-.24-13.11a2.63,2.63,0,0,1,.38-.24l4.57.12.22.12Zm.21-15.56h-4.49l-.54-.27V541.07l.1-.27a31.06,31.06,0,0,1,4.91-.36l.21.25Zm.27-16.55-.94.45h-4l-.33-.32.16-12.2.17-.66,4.72-.44h.37Z"/><path class="cls-3" d="M658.27,524.76c-1.24-.12-1.15.25-1.73-.08s-25.37-6.92-25.37-6.92l-1.49-1.07a8.06,8.06,0,0,0-1.06,1.85c0,.31.7.66.74.83s.21.41.37.25a1.66,1.66,0,0,1,.49-.29l.32.25a.5.5,0,0,0,.46.12c.25-.08,5.23,1,5.23,1l-27.39,3-9-1.53a12.34,12.34,0,0,0-1.68-.29c-.45,0-2.39.08-2.39.08l-.62.27a8.29,8.29,0,0,0,.7,1.15,7.86,7.86,0,0,0,.84.13l2.59-.1,32.51,5.64,1.52-.66-1.93-.58-1.11-.25,23.06-2.47,1.4.17.45.38.48,0,3.56,0S659.5,524.89,658.27,524.76Zm-32,2.06-14.91-2.45,25.75-2.29a13.06,13.06,0,0,0,1.73-.33c.25-.12.54-.25.54-.25l11.53,2.86Z"/><path class="cls-3" d="M594.33,529.34h.89s.12,0,.21.16a3.77,3.77,0,0,1,.14.39l.22.17.6.83L631.89,568s.35.89.24.82-.55-.45-.55-.45l-18-18.78s-17.44-18.22-17.61-18.24-.29,0-.47-.15-.16-.35-.33-.49-.23-.31-.33-.31-.54.39-.6.08A4.72,4.72,0,0,1,594.33,529.34Z"/><path class="cls-3" d="M631.61,535.51l-37.22,42s-.15.91-.2,1.07-.32.41,0,.37a.8.8,0,0,0,.51-.41s.43-.21.43-.08-.08.79.21.5.49-.46.41-.66a4.38,4.38,0,0,1-.17-.62l36.24-41.56.33-.66Z"/><path class="cls-3" d="M666.92,532.25,632.15,583.9H631s-.16-.41-.16,0v.74l.37-.17.54-.12V585h.36s1,.66,1,0a18.38,18.38,0,0,1,1.14-3.26l32-47.6.67-.33.4-.83Z"/><path class="cls-3" d="M633.84,529.34c-.15-.22-1.9-.33-1.69,0s-.83.55,0,.74l.83.19.86.64,30.55,56.22a3,3,0,0,0,0,.64c0,.06,0,0,.13.1s.15.11.28,0,.19,0,.19-.12,0-.17,0-.17l.58,0s.3.27.33.29.59.58.52,0,0-.93,0-.92-.62-.15-.79,0a3.38,3.38,0,0,1-.44.22s-.4-.31-.4-.31l-29.91-56.41S633.95,529.48,633.84,529.34Z"/><path class="cls-3" d="M602,521.74c.75-.08,35.49,6.32,35.49,6.32l18.76-1.7s-34.33-8.13-35.19-7.38S602,521.74,602,521.74Z"/><path class="cls-3" d="M628.37,523.1c0,.15.88.74,1,.75s3.8-.14,4.43-.28a1.32,1.32,0,0,0,.92-.69c.08-.15-1.34-1-1.43-1.18s-1-.36-1-.48a4.72,4.72,0,0,1-.34-1.36,12.61,12.61,0,0,1,1.11-4.18c.63-1,1.57-5.77,1.57-5.77a6,6,0,0,0,.63,0,2,2,0,0,0,.73-.27s.29-.61.48-1a5.77,5.77,0,0,0,.48-1.2c.21-.65.15-.52.55-.91s-.42-2.64-.42-2.64l1.18,1c.15.13,1.49,2.27,1.78,2.83a16.82,16.82,0,0,0,1,1.45c0,.1-.06.34.1.55s.4.19.48.76,2.6,7.47,2.6,7.47l-.08.23a14.32,14.32,0,0,0-.1,1.47c0,.13.17,2.66.17,2.66v.86s.63.44.82.61a10.56,10.56,0,0,0,2.29,0c.08,0,4.36-.44,4.72-.92s-.86-1.32-1.36-1.32-3.65-3.52-3.65-3.52l0-.55-.71-8.27.31-.13,1.49,5.54c1.11.65,5.54,0,5.54,0l-.08-.63.88-5.37h.21a.64.64,0,0,1,.42-.57c.41-.13.4-.25.52-.49s-.52-.15-.52-.15a3.36,3.36,0,0,0-.22.48c-.06.21-.27-.19-.27-.19a20.06,20.06,0,0,0-.44-3.06c-.1-.57-1.43-1.68-1.53-1.81s.13-.5.13-.57-.25-.23-.25-.48a6.81,6.81,0,0,0-.86-1.41s-.88-.76-.88-1-.69-.88-.76-1.39-.69-1.45-.69-1.76a6.58,6.58,0,0,1,1.51-2.21,10.11,10.11,0,0,0,1.38-1.13,4,4,0,0,0,.47.47c.1.05.27.38.48.44a1.5,1.5,0,0,0,.57,0,9,9,0,0,0,1.1-.22.27.27,0,0,1,.32.1,1.21,1.21,0,0,0,.81.18c.28,0,.76-.8.76-.77a4.34,4.34,0,0,0,1.3,1.35c.63.32,1.35-1.73,1.35-1.73,4.37-5.37-2.18-7.56-2.18-7.56a6,6,0,0,0-3.59,1.09,1.39,1.39,0,0,0,.15.74l-1,.3s-.95-.8-1.39-1.07a39.47,39.47,0,0,0-4.09-1.09,16.22,16.22,0,0,0-1.76-.63c-.84-.23-7.53,2.08-7.7,2s-1.11,1.83-2.06,2.1-1.21.44-1.64.53-.46,1.76-.55,1.93a13.39,13.39,0,0,0-.78,2,3.37,3.37,0,0,1-.44,1l-.57,3.09a5.55,5.55,0,0,0-.44,2.46c.13,1.19.5,3,.5,3s-.06.27-.21,1.2a17.41,17.41,0,0,0-.27,2.43,11.69,11.69,0,0,1-.23,1.61,7.13,7.13,0,0,0,.17,1.3c-.8.73-2.1,9-2.1,9v1.32s-.46.4-.44.59a17.17,17.17,0,0,1-.29,2A7.24,7.24,0,0,0,628.37,523.1Zm21.39-18.75a4.56,4.56,0,0,1,.25-.4s-.1.2.38.21.54,0,.63-.1.1-.17.25-.1a1.44,1.44,0,0,0,.6,0l.08-.12s.64,0,.46-.29a7.78,7.78,0,0,1,1.09,1.19c0,.17.64,2.46.64,2.53s-.09.79-.09.79-.07.21-.13.2-.61-.22-.65-.36a.58.58,0,0,0-.5-.25c-.2,0-.37.09-.47-.16a2.92,2.92,0,0,0-.35-.76c-.2-.25-.23-.66-.7-.71s-1-.67-1.09-.78-.23-.18-.29-.42A2.14,2.14,0,0,1,649.75,504.35Zm-3.84-1.29,1,1.87-.2,1s.2.8.1.61-.41-.78-.52-1,0-.65-.17-1.15S645.91,503.06,645.91,503.06Zm-1.08-3.9a9.28,9.28,0,0,1,.31-1.26s.56-2.3,1.24-2.76a12.88,12.88,0,0,1-.67,2.52s1.13,1.64,1.3,2,1.43,1.43,1.3,1.51.2.51.08.71-.14.35,0,.43.83.41.63.49-.64.42-.7.45l-.26.16s-1-1-1.05-1.1S644.87,499.24,644.83,499.16Z"/><path class="cls-3" d="M616.17,581.73s0,0,0,0Z"/><path class="cls-3" d="M630.85,556.49a12.32,12.32,0,0,0-.41-1.41c-.11-.49-.63-1.9-.68-2.12s-.3-.41-.46-.76a18.76,18.76,0,0,1-.49-1.9,23.53,23.53,0,0,0-1.9-3.88c-.35-.3,0-.3,0-.54s-.38-.44-.38-.57a2.47,2.47,0,0,0-.19-.79c-.16-.46-.41-.49-.57-1s-.32-1.47-.38-1.63-1.38-3-1.5-3.25-.31-.47-.35-.57a16.93,16.93,0,0,0-1.79-.77,4.91,4.91,0,0,0,.14-.69c0-.16.1-.73.1-.73s.2-.22.26-.22.39-.14.39-.2a3.1,3.1,0,0,0-.41-.47l-.24-.65c.1-1.18-1.65-2.18-1.65-2.18l-.29-.31a2.61,2.61,0,0,0-3.09.57c-1.47.36-1.52,3.2-1.52,3.2l.34.06v.63a1.1,1.1,0,0,1-.38.23,1.8,1.8,0,0,0-.52.25,3,3,0,0,1-.73.25c-.34.1-1.53.49-1.53.49l-1,.3a6.34,6.34,0,0,0-1.14.44,1.85,1.85,0,0,0-.73.49c-.35.3-.27.38-.68.81s-.27.54-.27.54a2.7,2.7,0,0,1-1,.41c-.81.25,0,0-.27.3a2.26,2.26,0,0,1-.32.33,2.84,2.84,0,0,1-.6.3c-.46.19-.46.11-.6.27s-.52.25-.84.44a3,3,0,0,1-.84.24,4.14,4.14,0,0,1-.68.22,4,4,0,0,0-.81.27c-.33.14-.73.27-1.52.57s-.57.16-.73.24a.24.24,0,0,0-.11.27l-2.69.68c-.41.11-1.19.05-1.55.11s-1.71.24-2,.35.16-.08-.81.16-1.87.71-2.31.79c0,0-.3,0-.3.11s.27.52.08.73a.87.87,0,0,0-.22.41,2.24,2.24,0,0,0,.22.87,1.46,1.46,0,0,0,.43.65c.22.14.25.33.66.35s.19.22.41.3.62-.3.68-.38,1.3-.76,1.38-.87a4.16,4.16,0,0,1,.76-.43c.3-.17.84-.49,1-.57a2,2,0,0,1,.6-.27l1.09-.17c.19,0,2.8-.32,2.93-.38a3.57,3.57,0,0,1,.79,0l.79.19,1.27-.24,1-.19a3,3,0,0,1,.62-.24c.14,0,1,0,1.17-.3a1.31,1.31,0,0,1,1-.38,1.66,1.66,0,0,0,.95-.35,2.45,2.45,0,0,0,1-1c.3-.49,2.31-.95,2.25-.57a15.72,15.72,0,0,0,.27,2.61,11.83,11.83,0,0,1,.46,2c-.05.38.79,3.07.76,3.72s.71,1.68.49,1.84-.38.9-.57,1.3.68.44.41.76,0,1.09-.22,1.66a17.57,17.57,0,0,0-.19,2.63c-.08.9-.14,3.42-.19,3.78a4,4,0,0,0,.92,2.09c.52.57.33,4.26.41,4.7s.82,3.39.82,3.39.16,1.06.22,1.9,0,.95.11,1.22.35,1.2.65,1.85a5.66,5.66,0,0,1,.44,1,5.06,5.06,0,0,1,0,1.44,2.39,2.39,0,0,1-.07.51.18.18,0,0,1,0,.06c.05.25.19.38.08.46s-.35.27-.62.46-.19.24-.41.43-.32.25-.35.33a5.62,5.62,0,0,1-1.33.57c-.57.19-.35.3-.38.49a9.16,9.16,0,0,0,2.53.28c.35,0,4,.16,4.21.13s.35,0,.35.17.43.11.62.16,5.59.22,5.67.22.16-.17.16-.55.33-.41-.71-.68-.79-.35-.9-.46-.87-.71-1.19-.93-.27-.27-.24-.38a2.15,2.15,0,0,0,0-.84,5.24,5.24,0,0,1-.19-.92c0-.14.11-1.69.11-1.69a5.41,5.41,0,0,1,.14-1,3.47,3.47,0,0,0,.05-1c0-.49-.08-2.17-.08-2.06S624,572,624,572l-.08-.52a3.93,3.93,0,0,0,.24-1.6c-.05-.9.14-.57,0-.87s.05-.87.33-1.28a20.88,20.88,0,0,0,.49-3.66,12.55,12.55,0,0,1,0-1.33,25.83,25.83,0,0,0-.16-2.61,7.57,7.57,0,0,0,.33-1.47,11.63,11.63,0,0,0-.68-3.88c-.19-.49.14-.73.19-1a3.67,3.67,0,0,0-.57-1.38,7.8,7.8,0,0,1-.38-2,12.09,12.09,0,0,1-.05-2.22c0-.92-.22-2.28-.22-2.36s.3.81.51,1.14a3.64,3.64,0,0,1,.54,1.28,8.6,8.6,0,0,0,.92,1.77,10,10,0,0,0,1.14,1.68s.32.32.62.65a3.61,3.61,0,0,1,.65.84c0,.14.43,1.93.43,2a4.63,4.63,0,0,1-.14,1c-.11.35-.35-.27-.3,1.11s.63.43.63.43.27-.38.38-.38.16.55.19.73a.79.79,0,0,1-.14.44,2.73,2.73,0,0,0-.3.22c-.16.14,0,.16.24.22s0,0-.08.08a1.34,1.34,0,0,1-.35.22c-.24.14.06.33.27.38a1.47,1.47,0,0,0,1-.1,2.52,2.52,0,0,0,.46-.63c.14-.19.87-1.36.79-1.63A3.57,3.57,0,0,1,630.85,556.49Zm-10.72,17.13a3.07,3.07,0,0,0,.11,1.43c.19.49-.07.94,0,1.38a2.55,2.55,0,0,1,0,.81c0,.2-.45.45-.49.29a2.82,2.82,0,0,0-.29-.53l-.28-.69a1.69,1.69,0,0,1-.21-.57c0-.21,0-1.06-.08-1.43a10.17,10.17,0,0,0-.21-1,10.9,10.9,0,0,1-.49-2.36,1.74,1.74,0,0,0,.09-1.26.54.54,0,0,1,0-.61v-.65l.2-1.14.29-1.18s.33-1,.41-1.39l.14-.61s.19,1.47.19,2.2a4.38,4.38,0,0,0,.33,1.55c.12.41,0,.41-.08.86s-.24.65-.12,1.06a6.53,6.53,0,0,0,.71,1.59c.35.53-.22.77-.22,1.26S620.17,573.29,620.13,573.62Z"/><path class="cls-3" d="M725.92,583.3l0,.5s-2.08.27-2.25.22-.59-.45-.67-.43a1.2,1.2,0,0,0-.23.15,2.13,2.13,0,0,0-.33.35.82.82,0,0,1-.07.13l-18.48,2.38-.88-.51-.29.26h-.83l.15,39.47s.84.2.92,0-.06-11.35-.06-11.35h1.33s1.48.38,1.74-.9l-.06-23.79.45-.28,15-1.12.29.11-.11,26.12a1.68,1.68,0,0,0,1.34,1.88c1.54.29,2.51.51,2.51.51v6.31l-.09,7.33a1,1,0,0,0,1.12,0L727,583.3S726.25,583.06,725.92,583.3Zm-23.11,4.54.09-.18,2.41-.37v7.77l-.24.22H702.9l-.09-.13Zm0,8,.24-.16h2.16l.18.16.09,8.76-.17.24H703.1l-.29-.24Zm2.67,17.19c0,.06-.13.71-.48.84l-2.1-.16-.09-.18v-8.16a2.37,2.37,0,0,1,.28-.24l2,.12.42.21S705.5,613,705.48,613.06Zm7.44-24.62s-.09.12-.12.13l-6.36.53h-.31l-.18-.12v-1.69l.36-.17,6.47-.71.15.1Zm8.62-1a.52.52,0,0,0,0,.17l-.51.2-7.23.59h-.35l-.08-2,.26-.16,7.76-.89s.17.23.16.27S721.56,587.46,721.54,587.49ZM725.47,616a2.06,2.06,0,0,1-.33.13l-2-.18a2.07,2.07,0,0,1-.93-.88c-.15-.44-.17-9-.17-9a1.78,1.78,0,0,1,.26-.16l3.13.08.15.08Zm.15-10.63h-3.07l-.37-.18v-10l.07-.18a21.4,21.4,0,0,1,3.35-.24l.15.17Zm.18-11.32-.64.31h-2.75l-.23-.22.11-8.34.12-.45,3.23-.3h.26Z"/><path class="cls-3" d="M745.61,588.12l0,.44s-1.8.23-1.95.19-.51-.39-.58-.37a1,1,0,0,0-.2.13,1.7,1.7,0,0,0-.29.3.58.58,0,0,1-.06.11l-16,2.06-.76-.44-.25.22h-.72l.13,34.2s.73.17.79,0-.05-9.83-.05-9.83h1.15s1.28.32,1.51-.78l-.06-20.61.39-.25,13-1,.25.1-.09,22.63a1.45,1.45,0,0,0,1.16,1.63c1.33.25,2.17.44,2.17.44v5.47l-.08,6.35a.87.87,0,0,0,1,0l.54-41S745.89,587.92,745.61,588.12Zm-20,3.93.08-.16,2.09-.32v6.73l-.21.19h-1.89l-.08-.11Zm0,7,.21-.14h1.87l.16.14.08,7.59-.14.21h-1.92l-.25-.21Zm2.31,14.89s-.11.62-.41.73l-1.82-.14-.08-.16v-7.07a2,2,0,0,1,.24-.21l1.71.1.36.18S727.91,613.86,727.9,613.91Zm6.44-21.33a.28.28,0,0,1-.1.11l-5.51.46h-.27l-.16-.1v-1.47l.31-.15,5.6-.62.13.09Zm7.47-.82a.47.47,0,0,0,0,.14l-.44.17-6.27.51h-.3l-.07-1.7.22-.13,6.72-.77s.15.2.14.23S741.83,591.73,741.81,591.75Zm3.41,24.71a1.82,1.82,0,0,1-.29.11l-1.74-.16a1.8,1.8,0,0,1-.81-.76c-.13-.38-.14-7.76-.14-7.76a1.64,1.64,0,0,1,.22-.14l2.71.07.13.07Zm.13-9.21h-2.66l-.32-.16v-8.63l.06-.16a18.57,18.57,0,0,1,2.91-.21l.13.15Zm.16-9.8-.55.27h-2.39l-.2-.19.1-7.23.1-.39,2.8-.26h.22Z"/><path class="cls-3" d="M740.56,588.8c-.73-.07-.68.15-1,0s-15-4.1-15-4.1l-.88-.63a4.74,4.74,0,0,0-.63,1.1c0,.18.41.39.44.49s.12.24.22.15a1,1,0,0,1,.29-.17l.19.15a.3.3,0,0,0,.27.07c.15,0,3.1.61,3.1.61l-16.22,1.78-5.34-.9a7.23,7.23,0,0,0-1-.17l-1.41,0-.37.16a4.77,4.77,0,0,0,.41.68,5,5,0,0,0,.5.07l1.54-.06,19.26,3.34.9-.39-1.15-.34-.66-.15L737.63,589l.83.1.27.22.28,0,2.11,0S741.29,588.87,740.56,588.8ZM721.63,590l-8.83-1.45L728,587.21a8,8,0,0,0,1-.2l.32-.14,6.83,1.69Z"/><path class="cls-3" d="M702.69,591.51h.52s.07,0,.12.1a2,2,0,0,1,.08.23l.14.1.35.49,21,22s.21.53.15.49-.33-.27-.33-.27l-10.68-11.12s-10.33-10.79-10.43-10.81-.17,0-.28-.08-.1-.21-.19-.29-.13-.18-.19-.18-.32.23-.35,0A2.87,2.87,0,0,1,702.69,591.51Z"/><path class="cls-3" d="M724.77,595.16l-22,24.9s-.09.54-.12.63-.19.24,0,.22a.47.47,0,0,0,.3-.24s.25-.12.25,0,0,.47.12.3.29-.27.24-.39a2.68,2.68,0,0,1-.1-.37l21.46-24.61.19-.39Z"/><path class="cls-3" d="M745.69,593.23l-20.59,30.59h-.66s-.1-.24-.1,0v.44l.22-.1.32-.07v.37h.21s.59.39.6,0a10.89,10.89,0,0,1,.67-1.93l18.93-28.2.4-.19.24-.49Z"/><path class="cls-3" d="M726.09,591.51c-.09-.13-1.12-.2-1,0s-.49.33,0,.44l.49.11.51.38,18.09,33.3a1.77,1.77,0,0,0,0,.38s0,0,.07.06.09.06.16,0,.12,0,.12-.08,0-.1,0-.1l.34,0,.2.17s.35.35.31,0,0-.55,0-.55-.37-.09-.47,0l-.26.13s-.24-.18-.24-.18L726.7,592.2S726.16,591.59,726.09,591.51Z"/><path class="cls-3" d="M707.22,587c.44,0,21,3.74,21,3.74l11.11-1s-20.33-4.81-20.84-4.37S707.22,587,707.22,587Z"/><path class="cls-3" d="M1416,583.3l0,.5s-2.08.27-2.25.22-.59-.45-.67-.43a1.2,1.2,0,0,0-.23.15,2.13,2.13,0,0,0-.33.35.82.82,0,0,1-.07.13l-18.48,2.38-.88-.51-.29.26h-.83l.15,39.47s.84.2.92,0-.06-11.35-.06-11.35h1.33s1.48.38,1.74-.9l-.06-23.79.45-.28,15-1.12.29.11-.11,26.12a1.68,1.68,0,0,0,1.34,1.88c1.54.29,2.51.51,2.51.51v6.31l-.09,7.33a1,1,0,0,0,1.12,0l.62-47.34S1416.3,583.06,1416,583.3Zm-23.11,4.54.09-.18,2.41-.37v7.77l-.24.22H1393l-.09-.13Zm0,8,.24-.16h2.16l.18.16.09,8.76-.17.24h-2.21l-.29-.24Zm2.67,17.19c0,.06-.13.71-.48.84l-2.1-.16-.09-.18v-8.16a2.37,2.37,0,0,1,.28-.24l2,.12.42.21S1395.55,613,1395.53,613.06Zm7.44-24.62s-.09.12-.12.13l-6.36.53h-.31L1396,589v-1.69l.36-.17,6.47-.71.15.1Zm8.62-1a.52.52,0,0,0,0,.17l-.51.2-7.23.59h-.35l-.08-2,.26-.16,7.76-.89s.17.23.16.27S1411.61,587.46,1411.59,587.49Zm3.93,28.52a2.06,2.06,0,0,1-.33.13l-2-.18a2.07,2.07,0,0,1-.93-.88c-.15-.44-.17-9-.17-9a1.78,1.78,0,0,1,.26-.16l3.13.08.15.08Zm.15-10.63h-3.07l-.37-.18v-10l.07-.18a21.4,21.4,0,0,1,3.35-.24l.15.17Zm.18-11.32-.64.31h-2.75l-.23-.22.11-8.34.12-.45,3.23-.3h.26Z"/><path class="cls-3" d="M1435.66,588.12l0,.44s-1.8.23-1.95.19-.51-.39-.58-.37a1,1,0,0,0-.2.13,1.71,1.71,0,0,0-.29.3.58.58,0,0,1-.06.11l-16,2.06-.76-.44-.25.22h-.72l.13,34.2s.73.17.79,0-.05-9.83-.05-9.83h1.15s1.28.32,1.51-.78l-.06-20.61.39-.25,13-1,.25.1-.09,22.63a1.45,1.45,0,0,0,1.16,1.63c1.33.25,2.17.44,2.17.44v5.47l-.08,6.35a.87.87,0,0,0,1,0l.54-41S1435.94,587.92,1435.66,588.12Zm-20,3.93.08-.16,2.09-.32v6.73l-.21.19h-1.89l-.08-.11Zm0,7,.21-.14h1.87l.16.14.08,7.59-.14.21h-1.92l-.25-.21Zm2.31,14.89s-.11.62-.41.73l-1.82-.14-.08-.16v-7.07a2,2,0,0,1,.24-.21l1.71.1.36.18S1418,613.86,1417.95,613.91Zm6.44-21.33a.28.28,0,0,1-.1.11l-5.51.46h-.27l-.16-.1v-1.47l.31-.15,5.6-.62.13.09Zm7.47-.82a.47.47,0,0,0,0,.14l-.44.17-6.27.51h-.3l-.07-1.7.22-.13,6.72-.77s.15.2.14.23S1431.88,591.73,1431.86,591.75Zm3.41,24.71a1.82,1.82,0,0,1-.29.11l-1.74-.16a1.8,1.8,0,0,1-.81-.76c-.13-.38-.14-7.76-.14-7.76a1.64,1.64,0,0,1,.22-.14l2.71.07.13.07Zm.13-9.21h-2.66l-.32-.16v-8.63l.06-.16a18.57,18.57,0,0,1,2.91-.21l.13.15Zm.16-9.8-.55.27h-2.39l-.2-.19.1-7.23.1-.39,2.8-.26h.22Z"/><path class="cls-3" d="M1430.61,588.8c-.73-.07-.68.15-1,0s-15-4.1-15-4.1l-.88-.63a4.74,4.74,0,0,0-.63,1.1c0,.18.41.39.44.49s.12.24.22.15a1,1,0,0,1,.29-.17l.19.15a.3.3,0,0,0,.27.07c.15,0,3.1.61,3.1.61l-16.22,1.78-5.34-.9a7.23,7.23,0,0,0-1-.17l-1.41,0-.37.16a4.77,4.77,0,0,0,.41.68,5,5,0,0,0,.5.07l1.54-.06,19.26,3.34.9-.39-1.15-.34-.66-.15,13.66-1.46.83.1.27.22.28,0,2.11,0S1431.34,588.87,1430.61,588.8ZM1411.68,590l-8.83-1.45,15.25-1.35a8,8,0,0,0,1-.2l.32-.14,6.83,1.69Z"/><path class="cls-3" d="M1392.74,591.51h.52s.07,0,.12.1a2,2,0,0,1,.08.23l.14.1.35.49,21,22s.21.53.15.49-.33-.27-.33-.27l-10.68-11.12s-10.33-10.79-10.43-10.81-.17,0-.28-.08-.1-.21-.19-.29-.13-.18-.19-.18-.32.23-.35,0A2.87,2.87,0,0,1,1392.74,591.51Z"/><path class="cls-3" d="M1414.82,595.16l-22,24.9s-.09.54-.12.63-.19.24,0,.22a.47.47,0,0,0,.3-.24s.25-.12.25,0,0,.47.12.3.29-.27.24-.39a2.68,2.68,0,0,1-.1-.37l21.46-24.61.19-.39Z"/><path class="cls-3" d="M1435.74,593.23l-20.59,30.59h-.66s-.1-.24-.1,0v.44l.22-.1.32-.07v.37h.21s.59.39.6,0a10.89,10.89,0,0,1,.67-1.93l18.93-28.2.4-.19.24-.49Z"/><path class="cls-3" d="M1416.14,591.51c-.09-.13-1.12-.2-1,0s-.49.33,0,.44l.49.11.51.38,18.09,33.3a1.77,1.77,0,0,0,0,.38s0,0,.07.06.09.06.16,0,.12,0,.12-.08,0-.1,0-.1l.34,0,.2.17s.35.35.31,0,0-.55,0-.55-.37-.09-.47,0l-.26.13s-.24-.18-.24-.18l-17.71-33.41S1416.21,591.59,1416.14,591.51Z"/><path class="cls-3" d="M1397.27,587c.44,0,21,3.74,21,3.74l11.11-1s-20.33-4.81-20.84-4.37S1397.27,587,1397.27,587Z"/></g></g><path class="cls-7" d="M1185.24,441.32v0l0-.07-1.6.14-.19,0-2.68,1.52-1.47,1.18-1.91-.11-2.07-1.35-3.87-3.35-.44-.38-1.1-1.36-.17-.21-1-1.84-1.14-1.79-.75-.9-1.55-.85-6.43,1.18-1.88.35-.93-.23-3.05-.75-.31-.64-.11-.51-.07-.33-.15-.35-.2-.49-1.19-1.06h0l-.3.09-.3.09-.94.18-.53.11h0l-.08.49-.08.49-.53.19-.07,0-.06,0-.76-.28-.27.44,0,.05-.38.82-.14.12-.32.29-.86-.07h0l-.26-.26-.61-.61-1.05,0-.27.37-.3.42-.12.34-.1.29h-1.05l-.49.71-.64.15-.23.75-.53.34-.72.82-1.13-.19-1.2-.42-1.07-.45-.09,0,0,0-.94-1.2-.6-.53-1.23-2.37-.41-.53-.79-.9-1.62-.42-.82-.07h-.08l-.68.79h0l-.46.18-.46.61-.11.14-.19,1,.75.48.15.41-.23.38-.71-.08-.64-.3-.64.52-.31.29-.29-.33.12-1,0-.41,0-.81.3-1.16.17-1,.09-.53.19-1.54.11-1.2,0-.5.05-1.35.06-1.7.08-5.06,0-6.14-.07-9-.66-4.54.36-.67.29-.55.79.91,1,1.44-.56.7.23.91.16.64.51,1,.34.65.4,1.69.11.48-.56,7.41,0,.92.06,1.68.09,2.16.09,2.29.29,1.84.23,1.51,1.39.49,1.05-.23,1.31.41h0l.69-2.4.3-.33.77-.86.35-2.41.36.07h.06l.67,1.06,2.32.9,2,2.18.28-1.31.12-.55-1.08-1-1.6-.68-1.16-.79-.14-.49-.08-.82,0-.21h0l-.21-.2-.38-.13-.48-.33-.45-.43-.77-.38v-1.19l0-1,.87-.76.94-.56.49-.49.29-.76h0l.09-1-.08-1,0-.26-.23-.66-.15-.22-.14-.21-1.08-2.44h0l-1.63-2.45-.78-1.68,1.19.32,1.84,1.41,1.08.26-.07-.12-1.34-2.38-.44-2.84v0l.77-2.36,2.26-1,2.26-.45,1.13.42.17.59.32,1.1.49,1.21,1.12.17h0l1.24-.61.84-1.1-2.12-.35-1.51-1.54-.09-.13-1.34-1.8-1-.84-.84-.68-1.07-.43-1.1-1h0l-.2.15-.62.47,0,.71,0,.58-2.59.29-1.63-1.58h0l-.39,2,.48.91.77.38-.63.58-.88-.38-.13-.06h-.87l-.91-.48-.72-.19-.32-.74-2.71-1.43-1.54-.82-.48-1.78,0-1.82,0-2.79-.52-2.42-.33-1.53-.33-1.09-.77-2.52.24-1.23.38-.5.63-.85,1.4,1.21-.14.69-.3,1.47,1.07,1.47.28.39.15.72.17.83,1-.15.69.3.38.16.64.4.27.17.47.16.26-.52.24-.47-.05-.71V376h0l-.45-.85-.66-1,0,0h0l-1,.45-.75.35.15-1.35.53-1.49.26-.19.66-.48,1.77-.12,1-.44,2-1.4,5.41-2.31,2.21-.81,2.39-.88h0l-.06,0-.95-.58-1.11.43-1.55-.86-5.5.12-.38-.39.49,0,.24,0,.27-.13,1.25-.59h0l-2.87-.4h0l-1.17,0-2,0-.29-.69-.14-.33.29-1,.14-.49-1-1.84-1.28-.48-1.26-.44-1.64-.34-1.79-.19-1.5.73h0l-.23.42-.37.67.06.29.08.41.63,1.51,0,1.44,0,.36-.06.6.13.92.28.8.1.29.19.38.3.61.58-.1.25,0,.42.32,0,.76,0,.35-1.1-.77-1.06-.32-.68.19-.34.44v.79l-.64.26-.48.09-.55.1.11-.56.08-.44h0l-.06-.68.05-1.1.23-2.7,0-5.94-.16-2.42-.33-4L1117,343l-.1-.51-.69-3.35-1.06-3.6-.13-.34-.9-2.32-.66-1-.06-.1-1-.07-.51,0v0l-.3-1-.67-1.86-.59-1.64h.09l.74.07.57.54h.08l.36-.05h0l-.76-.85-1.69-.14-.63-.46-2.07-14.08,0-1.2-.11-3.46-1.19-4.46-.42-1.57-.35-1.69-.23-1.12-1.82-5.18-.05-.6-.28-3.12-.46-1.62-.85-.25-.76-.59-.61-1.13-1.38-1.64-.13-1-.33-2.5-3.89-2.13-1-1.93-.78-1.6-1.68-.65-1.1.13-1.92-3.29-.2-.75-1-3.85-1.06-3.67-.75-3.71-.71-4.67.17-1.47.13-1.1-1.83-4.07-.42-.93-.78-2,.72-.42.3-.17.5-.61.78-.95.71-2.17v0l0-.52-.35-.67-.43-1.26-.27-.79.13-.39,1-.27.44-1.11,0-.79,0-1.34.23-.9.71-1.09.29-.45h0l0-.2.19-.85h0l-.61-.47,0-.59,0-.32-.15,0-.43-.14-.72-.25-.92-1-1-1-.36-.65-.44-.78.18-1.63,2.08-.34,2.34.51,1.57.31,1.24,1.42.77.26.64-.56.34-.3.09,0,1.15.42,2.86,2.06,5,3.33,3.93,2.34,3.5,1.26.57.37,0,0,.34.19,2.42,1.37,1.49.45,1.55-.59,1.55.44,3.75,2.15.79.45,3.24,1.68,0,.1.72,1.45,1.15.81,2.17,1.52,3.55.46,1.74.71h1.81l1.68.33,3,.07.77.52,2.72-.41.2,0,.25.1,1.72.67,3.13-.68,2.79-.5,3.92,1.38.52,1,3.3.6,1.17-1.15,1-.44,1.16.59.76,1,1.21.25,2-.1,2.66-.88h1.16l.9.33-1.42.18-1,.31-.84.25h0l.25.65,1.51.59.36.14,4.26,0,.61.07,1.77.21,1.54-.24.79-.12,2.71.29.39-.17,1.17-.5,2.13-2.55,1.42-1.7.59-.55.78-.73L1190,244l-.65.44-.85.57-.92,1-1.12,1.16h0l1,.07.93.09,1.34.13,1.51,2.06.06,0,1.69,1.05,1.51,3.25-.15,1.16-.18,1.39h0l1,1.45,1.46.67h.74l-.6-4,.34-1,.1-.3,2.82-.57,1.06,0,.91.28.16.37.23.53.2,1.59h0l.53.41h.74l.18.08.68.29.77,1,.2.26,1,2,.12.91.14,1-.58.4-.75.53V263l1.27-.16.44-.52.43-.51,1.11-3-.8-1.46-2.69-3-.22-.86-.09-.35.26-1.49.29-.58.34-.69.8-.53,1.85-.56.32-.09,1.93-1h1.65l1.11,2,.21.38-.18.14-.45.36-1.65.93-.46.62,0,1.39.5,1,.57.7,0,.05,0,.07.26.57.25.87.17.58,1.27,2.29,1.56,2.81.54.65,1.27.83.34.42.13.16,0,.13.15.65.21,2.13.3.84,3.47,4.6.05.15.36,1-.11.08-.44.33-2,.1-.65.17h0l-.37.55-.21.31-.12.46-.38,1.42-.22.43-.32.63-3,3.8-.94,2-1.22,3.64-.44,1.91,0,.24-.14,1.38-.23,1-.55.75-.74.46-.77.15-1.11-.48,0-1.08.1-.25.65-1.64,1.22-6.38v-.3l.05-2.63-.45-3.66h0l-.3.5-.48.82h0l-.08,1.93-.21,1.84-1.18,1-.06-1.37,0-.64-.43-1.79-.08-.07-.57-.51h0l-.48,1.13-.23.54h0l0,1.57.36,1.2.18.6.36.81.92,2.06-1.52,1.32-.37.89-.59,1.41-.07.23-.62,2-.8,1-.36.46-.14.78-.27,1.51-.54.52-.81.28h0l0,0-.72.66-5.3,6.87-.26.51-.53,1-1.13,3-1,2.65-1,1.44-1.11,1.08-.27.26-.66.84-.55.71h0l-.54,2.14-.39,1.54-.75,1.77-.93,2.21-.09.68-.1.82.83.64,1.25,1,3.75-.39,11.3-5,2.25-1.47,1.47-1.48.7-.71-1.91-.43-2.63,1.23-4.63,3.24-5.08,2.37-2.65,0-1.45-2.34.08-.53.12-.86.34-.68.4-.79,1.79-2.53.12-.22.5-.89,2.72-6.55,4.92-7.35.91-.57,4.16-2.81,5-2,1.53-.9.79-.84h0l.43-1.31,1-4.43.32-.82.29-.74,6.61-9.67.75-.75.7-.31,1.17.3.07.49,0,.26-.11.52-.08.38.32.77,1.42.32.3-1.46-.1-.65-.23-1.61-1.13-4.72-.26-.73-1.26-2.42-.15-1,4,2.51,1.69,1.53.06.21.63,2.23.08,1.46.33,2.7.08.67.06.14.35.87.7.84.25,1-.93,1.56h0l.6.21.7.4.62.59h0l.4.77,0,.52,0,.66-.21.52-.13.32-.14.21-.28.4-.13.29-.08.19-.11,0-.56.14L1228,288l-1.13.24,0,.36.1.81-.6,1.61-.31.44-.69,1-1.08.62-2.78-3-.95-1-.47.16-.16.05.19,1.24.26.35.22.3.15.11.46.36.59.72.26.53.06.12,1.46,5.74,1,3.78-.27.37-.23.31.5.74-1.66.86-1.8-2.16-2.52-5.54h0l-.51.81-.36.94-.16,1.09.08,1.3.39,1.33.57.61,1.28.74,1,.6h.51v.23l-.22.49-.34.74-.34.56-.3.49L1219,308.4l-.37,1h0l.08,0,3.35-1.63,1.55-1.1,1.41-1.35,2.19-1.42.66,1.65.11,2.56.5,1.33,1.75.71,0,.54-.08,1.19-.88,2.1-.53,1.86-.19.92-.32,1.6-.89,2.32-.17,1.22-.13,1h0l1.25,2.12-.51,1.39-.68,1-.44.31-.46.32-1.15.37,1.69,3.46.11.71.14.94-.77,2-1,0-5.19-2.33-1.69-1.31.19-.9.34-.33.59-.57.23-.53.33-.76.43-1.4.07-.24,1-1.39.52-1.19.2-.46-.35-2.44h0l-.5,1.84-.31.34-.56.6-2.32,1.21-.52.58-.46.71-.5.6-.6.25-.44.35h0l-.08.47-.06.36,0,.51,0,.47-.24.72,0,.09-.93,1.5-.11.18h0l-.06.27-.24,1.12.36,1.37,1.63,2.84-.08.58-.43.45h0l-.08.18-.31.64v-.48h0l-.3.22-.33.46,0,.06-.1.19-.12.22,0,.06.08.15.23.56.18.7,0,.61-2,1.83-.18-.33-1.55-2.81-.84-3.5-.24-1v-2.31l1.3-.63.6-1.52.17-1.89,0-2.71h0l-.1-.75-.36-1.37-.45-.71-.57-.5-.3-.72v0l.36-1.36h0l-1,1.43-1.1,4.84-.28.81-.35,1L1206,332l-1,.78-.79.34-1.06.26-.34.51-.14.21-2,7.46-.6,1.23-.42.85-1.45,1.34-.26.24-.19.06-3.33,1-1.68.84-.18.39-.52,1.15h0l.08-.05.92-.62,1.29-.59.25-.11h.25l1,0,.21,1.19,0,.2-.77.86-1.25.31H1194l-1.29.56h0l-.2.45L1192,352l1.32-.64L1199,347l.38-.12.25-.29,0,0,.36-.63,1.15-2,.8.35-.3,1.43-3,5.75-.9,1-1.2.82,1.54.15,1.53-.88,1.25-1.69h0l.25-.8.45-1.47.41,1,.13,1-.13,1-.41,1,.22.37.43.71.47,2.07,0,.11.13.14.55.63,1,.1h0v-1l-.2-.56-.29-.83-.47-1-.05-.1.82-1h0l0-1.21-.32-1.27v-1.22l.16-.31.44-.85,2-1.69.67-.57.36,1,0,.9-.31.82-.47.74h0l.45-.07.49-.07.58-.29.41-.21.66-.52v-.08l0-.16-.08-1.53.37-.55,1.27.8.54.84.54,1.12.41.65.21.34,1.31.6.34.16.83.84.62,1.09.26,1.09h0l.5-.3,1.95-1.18,2.17-2.25.07-.07,1.36-2,4-6,.49-1.12.94-2.13.88-3.57,0-3.68,1.15,1,2.34,1.5,2.47,2.15,1,.35,1-.45.91-.86.31-.29h0l-.16-.11-1-.7-.67-.72-.13-.82.31-.67.19-.41.6-.65.24-.26h0l1.2-.85,1.28-.63,2.19-.65.69-1,0-.07.17-.79.16-.73,0-.35-.09-1.48-.56-1.29-1.83-2.56-.16-.49-.23-.72v-4.27l-.24-1.17-.75-1.29-.47-1.05-1.21-4.26-.06-.23v0l-.1-.85.36-.7.89-1.16.84-.25.76,1,.16.32.55,1.11.69.89h0l.18-1.15.14-.9,0-.46,0-1.13-.33-1.23,0-.06h0l-.95-1.17-3-1.36-.63-.42-.59-.83-.07-.1-.12-.3-.25-.63.24-.43.77-.27.29-.69.09-.47.08-.41.43-.86,1.05-1.69.24-1.11-.19-1.65v-.08l-.23-1.47-.69-1,0-.05-.17-.48-.35-1,.1-1.73v-.23l0-.17.29-1.45.51-1.36.65-1.14,2-1.72.86-1.65h0l.18-2.2.19-1.56.26-.56.38-.83v-1l.23-.65,0-.14.08-.08.44-.43.67-.51.66-.5.16-.18.31-.37.57-.46,1.5-.34.88-.2.29-.28.29-.28,1.34-.84h0l0-.17.21-1.12.12-1.47.44-.46.3-.37.3-.37,0-.07-.1-.4-.55-.27-.38-.39-.94-.06-1.11,1.18-4.66-3.91-2.17-2.47-1.48-3.25-.36-3.72.14-3.11-.66-2.27-2.76-1.24-.33-.25-.44-.42-.51-.25h0l-.22.09-.34.14-.32,1,0,.21.17,1.86h0l-1.37,1,0,.27-.16,1.23.25,1.8.53,1.55.66.95,1.07,1.17,1.17,1,1,.43,1.05.68,1,1.58,1.41,3.14-1.21,0-.2-.17-.56-.47-1.27-2.13-.62-.63-5.62-4.27-1.38-1.7-.9-2-.15-.34-.38-2-.1-.51v-.26l.12-2.13-.18-2.91v-.08l1.78-.24.57-.08,1.31-.41.95-.3,1.29-.11,1.07.2.77.76.58,1,.59.62.79-.46h0l-.32-1,.1-.51.1-.51.27-.54.75-1.52-.27-.52-.16-1.09-.21-.55-.06-.15-.06-.09-.33-.51-2.25-2.06-2-1.23-1.57-1.74-.85-.53-1-.29-1.1-.1-.74-.57-1.32-2.68-.9-.87v-.75l1-1.06h0l-.46-.62-1-.31h0l-.68-.07-.48.38-1.07,1.82-.52.62-.45.21-.54.25-1.09.16-1-.25-.79-.75-.66-1.66.19-.51.14-.37.66-.64.37-1-.23-1-.17-.78h0l-.07,0-.84-.59-.94-.22-.53-.5.11-.8.05-.38.15,0,.74-.16,1,.08h.08l.06,0,.78-.38,1.8-1.34,1.32,1.61.6,1.44.48,1.16.7,1,.39.59h0v-2.64l.84-.5,1.16.8,1.59,2.13.87.72.91.28.78-.45h0l.34-.58.2-.34h0l0-.62-.09-.32-.09-.31-.06-.39-.1-.6-.15-1.89-.06-.8-.06-.26-.33-1.41-.62-1.44-.82-1.41-2.69-1.92-.73-.88,1.36-.34,1.44.56,2.66,2.37,1.15.54h0l.64-.36.73-.41h0l.18-.7.31-1.17h0l-.27-2.28-.91-2-.57-.54-.51-.22-.08,0-.17-.1-.42-.25-.57-.86-.31-1v0l-.39-2.63,0-.38v-.15l-1.51-.75.27-1.7,1-2.14.46-.94-.65-1.64-1.43-1.31-1.65-.88-1.33-.32-1.28.64-1.08,1.57-2,3.67-.71.43-.65-.45-.48-.94-.19-1.12.08-.18.14-.35.94-1h0l0-.08.18-.46v0l-.56-1.35-.85-1.11-.41-.53h0l-1.27-.74h0L1217,183l.16-1.39.13-1.07-.09-.62-.13-.93-.69-1.1-2.9-2.65-.13-.18-.58-.81-.08-.37-.2-.91.28-1.11.62-.87.21-.23.41-.44.27-.52h0l-.87-1.86-2.57.11-.72,0-.13-.62-.24-1.14.84-1.07,1.57-.25,3.07.57h0l-.64-1.79-.8-1.6H1596.1l.06,16.1.05,16.08.05,16,.05,16-.15,14.75-.38,15.77V305l.1,15v32.39l.1,14.87V384l-.1,16.2.1,14.45.1,3-.1,2.7-.26,1.75.48,1.47,3.17,4.18,2.24,3.81.93,2,.76,4.74,1.45,2.64v2l-.62,2-.86,1.34-2,2.25.37,1,3.53,4.61,1.57,4.33H1485.62l-8.62,0h-12.3l-2.82,3.37-3.26,1.51-16.59.26-5.87,1.14-3.38.66-4.63-.22-1.77.21-1.1.62-1.93,2.46-2.81,2.29-18.18,3.25-9.78,4.15-3.13.55-1.22.82-2,2.06-1.74,1.27-1.86.84-1,.11-2-.41-1,0-.7.19-2.63,1.59-1.52.63-.77.1-3.45-.64-.58.13-1.62.82-.78.08-10.09-2-.7.17-1.78,1.2-.46.56-.25.71-3.15,1.29-4.77,1-.49.21-3,2.37-.35.11-.91.06-2.85.85-2.85-.37-1-.44-.74-.1-2.2.13-.38,0-.73-.21-1.41-.07-.34,0-6,2.75-1.48.18-1.2-.92-.9-2-.52-1.68-.67-1.4-1.35-1.15-3.17-1.13-20-2-9.85,1.86-5-1.09-1.89.38-2.78,1.6-4.59,3.9-2.68,1.7-12,4.63-5,1.53-1.15.75-1.29.36-5.39-2-5.65-.11-2-1.16-3.42-.93-2.17-1.14-1,0-2.7.75-5.23-1.08-1.65-1-1.59-1.26-1.15-1.34-.62-1.6-.42-2.15-.32-3.75.07-1.06.29-1.84.06-1.05-.27-.95-1.52-2.66,0-2.19.31-1.94.12-1.78-1.23-3.36-.54-4.35-.4-1.59-.94-1.22-1.08-.92-.89-1.07-.72-3.68-.89-2.15-1.18-2-1.23-1.49-1.7-1.39-2.08-1.3-2.19-1-2-.37-.93-.52-2.35-1.79-.89-.91-1.3-.36-4,.77-.35-.06h-.19"/></g></g></svg>