<svg id="Layer_1" data-name="Layer 1" xmlns="http://www.w3.org/2000/svg" viewBox="0 0 201.45 204.18"><defs><style>.cls-1,.cls-6{fill:#0373b9;}.cls-2{fill:none;stroke:#fff;stroke-miterlimit:10;stroke-width:2px;}.cls-3{fill:#fff;}.cls-4{font-size:32.23px;fill:#2c3e50;}.cls-4,.cls-6{font-family:ProximaNova-Semibold, Proxima Nova;font-weight:700;}.cls-5{fill:#f6921e;}.cls-6{font-size:16.12px;}.cls-7{fill:#848484;}</style></defs><title>Untitled-3</title><path class="cls-1" d="M92.68,3.17a11.79,11.79,0,0,1,16.09,0C113.19,7.4,121.39,8.84,127,6.38a11.79,11.79,0,0,1,15.12,5.5c2.71,5.49,9.93,9.65,16,9.26a11.79,11.79,0,0,1,12.32,10.34c.67,6.08,6,12.46,11.9,14.18a11.79,11.79,0,0,1,8,13.93c-1.45,5.95,1.4,13.77,6.33,17.4a11.79,11.79,0,0,1,2.79,15.84c-3.39,5.09-3.39,13.42,0,18.51a11.79,11.79,0,0,1-2.79,15.84c-4.93,3.62-7.78,11.45-6.33,17.4a11.79,11.79,0,0,1-8,13.93c-5.87,1.72-11.23,8.1-11.9,14.18A11.79,11.79,0,0,1,158.15,183c-6.11-.39-13.32,3.77-16,9.26A11.79,11.79,0,0,1,127,197.8c-5.6-2.46-13.81-1-18.23,3.21a11.79,11.79,0,0,1-16.09,0c-4.42-4.23-12.63-5.67-18.23-3.21a11.79,11.79,0,0,1-15.12-5.5c-2.71-5.48-9.93-9.65-16-9.26A11.79,11.79,0,0,1,31,172.7c-.67-6.08-6-12.46-11.9-14.18a11.79,11.79,0,0,1-8-13.93c1.45-5.95-1.4-13.77-6.33-17.4a11.79,11.79,0,0,1-2.79-15.84c3.39-5.09,3.39-13.42,0-18.51A11.79,11.79,0,0,1,4.7,77C9.63,73.37,12.48,65.54,11,59.6a11.79,11.79,0,0,1,8-13.93c5.87-1.72,11.23-8.1,11.9-14.18A11.79,11.79,0,0,1,43.3,21.14c6.11.39,13.32-3.77,16-9.26a11.79,11.79,0,0,1,15.12-5.5C80.05,8.84,88.26,7.4,92.68,3.17Z"/><circle class="cls-2" cx="100.72" cy="102.09" r="87.8"/><circle class="cls-3" cx="100.72" cy="102.09" r="84.49"/><text class="cls-4" transform="translate(62.72 86.23)">100%</text><polygon class="cls-5" points="100.44 22.24 103.37 28.49 110.21 29.34 105.18 34.05 106.48 40.82 100.44 37.49 94.41 40.82 95.71 34.05 90.67 29.34 97.52 28.49 100.44 22.24"/><polygon class="cls-5" points="118.65 31.33 120.49 35.05 124.6 35.65 121.63 38.55 122.33 42.64 118.65 40.71 114.98 42.64 115.68 38.55 112.71 35.65 116.81 35.05 118.65 31.33"/><polygon class="cls-5" points="130.79 36.74 132 39.17 134.69 39.57 132.74 41.46 133.2 44.14 130.79 42.88 128.38 44.14 128.84 41.46 126.9 39.57 129.59 39.17 130.79 36.74"/><polygon class="cls-5" points="82.79 31.33 80.96 35.05 76.85 35.65 79.82 38.55 79.12 42.64 82.79 40.71 86.47 42.64 85.77 38.55 88.74 35.65 84.63 35.05 82.79 31.33"/><polygon class="cls-5" points="70.65 36.74 69.45 39.17 66.76 39.57 68.71 41.46 68.25 44.14 70.65 42.88 73.06 44.14 72.6 41.46 74.55 39.57 71.86 39.17 70.65 36.74"/><path class="cls-5" d="M99.64,175.87l0,1.6H101l1.35,0,0-1.6C101.38,175.89,100.51,175.89,99.64,175.87Z"/><path class="cls-5" d="M76.95,171.4a48.9,48.9,0,0,0,19,5.86l.15-1.59A47.33,47.33,0,0,1,77.72,170Z"/><path class="cls-5" d="M105.8,175.62l.17,1.59a48.92,48.92,0,0,0,18.94-6l-.78-1.4A47.32,47.32,0,0,1,105.8,175.62Z"/><path class="cls-5" d="M72.27,169.51A3.81,3.81,0,0,0,69,171.22a6.07,6.07,0,0,0,4.49,1.39,3.38,3.38,0,0,0,3.07-2A7,7,0,0,0,72.27,169.51Z"/><path class="cls-5" d="M76.39,166.33a5.59,5.59,0,0,0-3.07-2.47,3.41,3.41,0,0,0,.13,3.57,5.06,5.06,0,0,0,3.46,2.46A3.88,3.88,0,0,0,76.39,166.33Z"/><path class="cls-5" d="M70.76,168.33a7,7,0,0,0-4.16-1.43,3.8,3.8,0,0,0-3.43,1.41,6.07,6.07,0,0,0,4.35,1.78A3.38,3.38,0,0,0,70.76,168.33Z"/><path class="cls-5" d="M71.18,167.69A3.88,3.88,0,0,0,71,164.1a5.57,5.57,0,0,0-2.84-2.73,3.41,3.41,0,0,0-.19,3.57A5.07,5.07,0,0,0,71.18,167.69Z"/><path class="cls-5" d="M65.19,165.6a7,7,0,0,0-4-1.78,3.81,3.81,0,0,0-3.54,1.11,6.07,6.07,0,0,0,4.18,2.15A3.38,3.38,0,0,0,65.19,165.6Z"/><path class="cls-5" d="M65.67,165a3.88,3.88,0,0,0,.11-3.6,5.57,5.57,0,0,0-2.59-3,3.41,3.41,0,0,0-.5,3.54A5.07,5.07,0,0,0,65.67,165Z"/><path class="cls-5" d="M59.88,162.4A7,7,0,0,0,56,160.27a3.81,3.81,0,0,0-3.62.8,6.08,6.08,0,0,0,4,2.51A3.38,3.38,0,0,0,59.88,162.4Z"/><path class="cls-5" d="M60.41,161.83a3.88,3.88,0,0,0,.42-3.57,5.58,5.58,0,0,0-2.33-3.18,3.41,3.41,0,0,0-.8,3.48A5.06,5.06,0,0,0,60.41,161.83Z"/><path class="cls-5" d="M54.87,158.74a7,7,0,0,0-3.65-2.45,3.81,3.81,0,0,0-3.68.48,6.07,6.07,0,0,0,3.74,2.84A3.38,3.38,0,0,0,54.87,158.74Z"/><path class="cls-5" d="M55.45,158.23a3.88,3.88,0,0,0,.73-3.52,5.58,5.58,0,0,0-2-3.37,3.41,3.41,0,0,0-1.1,3.4A5.07,5.07,0,0,0,55.45,158.23Z"/><path class="cls-5" d="M50.2,154.66a7,7,0,0,0-3.42-2.76,3.81,3.81,0,0,0-3.71.15,6.07,6.07,0,0,0,3.48,3.16A3.38,3.38,0,0,0,50.2,154.66Z"/><path class="cls-5" d="M50.82,154.2a3.88,3.88,0,0,0,1-3.44,5.57,5.57,0,0,0-1.74-3.54,3.41,3.41,0,0,0-1.4,3.29A5.06,5.06,0,0,0,50.82,154.2Z"/><path class="cls-5" d="M45.91,150.19a7,7,0,0,0-3.17-3.05A3.81,3.81,0,0,0,39,147a6.07,6.07,0,0,0,3.19,3.45A3.38,3.38,0,0,0,45.91,150.19Z"/><path class="cls-5" d="M46.56,149.78a3.88,3.88,0,0,0,1.33-3.34,5.58,5.58,0,0,0-1.42-3.68,3.41,3.41,0,0,0-1.68,3.16A5.07,5.07,0,0,0,46.56,149.78Z"/><path class="cls-5" d="M42,145.36A7,7,0,0,0,39.12,142a3.8,3.8,0,0,0-3.68-.49,6.07,6.07,0,0,0,2.88,3.71A3.38,3.38,0,0,0,42,145.36Z"/><path class="cls-5" d="M44.32,141.8a5.58,5.58,0,0,0-1.1-3.79,3.42,3.42,0,0,0-1.95,3,5.07,5.07,0,0,0,1.42,4A3.87,3.87,0,0,0,44.32,141.8Z"/><path class="cls-5" d="M38.56,140.22A7,7,0,0,0,36,136.66a3.8,3.8,0,0,0-3.62-.81,6.08,6.08,0,0,0,2.55,4A3.38,3.38,0,0,0,38.56,140.22Z"/><path class="cls-5" d="M41.17,136.87a5.58,5.58,0,0,0-.76-3.87,3.41,3.41,0,0,0-2.2,2.82,5.07,5.07,0,0,0,1.07,4.11A3.88,3.88,0,0,0,41.17,136.87Z"/><path class="cls-5" d="M35.57,134.78A7,7,0,0,0,33.29,131a3.8,3.8,0,0,0-3.53-1.12A6.07,6.07,0,0,0,32,134.06,3.38,3.38,0,0,0,35.57,134.78Z"/><path class="cls-5" d="M38.45,131.68a5.58,5.58,0,0,0-.42-3.92,3.41,3.41,0,0,0-2.44,2.62,5.07,5.07,0,0,0,.71,4.19A3.88,3.88,0,0,0,38.45,131.68Z"/><path class="cls-5" d="M33.06,129.12a7,7,0,0,0-1.93-4,3.81,3.81,0,0,0-3.42-1.43,6.08,6.08,0,0,0,1.82,4.33A3.38,3.38,0,0,0,33.06,129.12Z"/><path class="cls-5" d="M36.21,126.27a5.59,5.59,0,0,0-.08-3.94,3.42,3.42,0,0,0-2.66,2.39,5.07,5.07,0,0,0,.34,4.23A3.88,3.88,0,0,0,36.21,126.27Z"/><path class="cls-5" d="M31.05,123.25a7,7,0,0,0-1.58-4.1,3.8,3.8,0,0,0-3.29-1.72,6.08,6.08,0,0,0,1.44,4.48A3.38,3.38,0,0,0,31.05,123.25Z"/><path class="cls-5" d="M34.44,120.69a5.58,5.58,0,0,0,.27-3.93,3.42,3.42,0,0,0-2.85,2.15,5.07,5.07,0,0,0,0,4.25A3.88,3.88,0,0,0,34.44,120.69Z"/><path class="cls-5" d="M29.56,117.23A7,7,0,0,0,28.35,113a3.8,3.8,0,0,0-3.12-2,6.08,6.08,0,0,0,1,4.58A3.38,3.38,0,0,0,29.56,117.23Z"/><path class="cls-5" d="M33.16,115a5.58,5.58,0,0,0,.61-3.9,3.42,3.42,0,0,0-3,1.9,5.07,5.07,0,0,0-.4,4.23A3.88,3.88,0,0,0,33.16,115Z"/><path class="cls-5" d="M28.61,111.1a7,7,0,0,0-.85-4.32,3.8,3.8,0,0,0-2.94-2.26,6.08,6.08,0,0,0,.64,4.66A3.38,3.38,0,0,0,28.61,111.1Z"/><path class="cls-5" d="M32.39,109.17a5.58,5.58,0,0,0,.94-3.83A3.41,3.41,0,0,0,30.14,107a5.07,5.07,0,0,0-.77,4.18A3.88,3.88,0,0,0,32.39,109.17Z"/><path class="cls-5" d="M28.19,104.91a7,7,0,0,0-.47-4.37A3.8,3.8,0,0,0,25,98a6.08,6.08,0,0,0,.23,4.7A3.38,3.38,0,0,0,28.19,104.91Z"/><path class="cls-5" d="M29,105a3.87,3.87,0,0,0,3.17-1.7,5.58,5.58,0,0,0,1.27-3.73,3.41,3.41,0,0,0-3.31,1.34A5.06,5.06,0,0,0,29,105Z"/><path class="cls-5" d="M28.31,98.71a7,7,0,0,0-.08-4.4,3.8,3.8,0,0,0-2.5-2.74,6.09,6.09,0,0,0-.18,4.7A3.38,3.38,0,0,0,28.31,98.71Z"/><path class="cls-5" d="M29.06,98.89a3.87,3.87,0,0,0,3.3-1.42A5.58,5.58,0,0,0,34,93.87a3.41,3.41,0,0,0-3.42,1A5.07,5.07,0,0,0,29.06,98.89Z"/><path class="cls-5" d="M29,92.55a7,7,0,0,0,.3-4.39A3.8,3.8,0,0,0,27,85.22a6.08,6.08,0,0,0-.59,4.66A3.38,3.38,0,0,0,29,92.55Z"/><path class="cls-5" d="M33.12,91.66A5.58,5.58,0,0,0,35,88.21a3.41,3.41,0,0,0-3.5.75,5.07,5.07,0,0,0-1.82,3.83A3.87,3.87,0,0,0,33.12,91.66Z"/><path class="cls-5" d="M30.17,86.47a7,7,0,0,0,.68-4.34,3.8,3.8,0,0,0-2-3.13,6.09,6.09,0,0,0-1,4.6A3.38,3.38,0,0,0,30.17,86.47Z"/><path class="cls-5" d="M30.88,86.77a3.87,3.87,0,0,0,3.5-.82,5.58,5.58,0,0,0,2.2-3.27,3.41,3.41,0,0,0-3.55.44A5.06,5.06,0,0,0,30.88,86.77Z"/><path class="cls-5" d="M31.9,80.51A7,7,0,0,0,33,76.24a3.8,3.8,0,0,0-1.71-3.29,6.08,6.08,0,0,0-1.39,4.49A3.38,3.38,0,0,0,31.9,80.51Z"/><path class="cls-5" d="M36.13,80.36a5.59,5.59,0,0,0,2.47-3.07,3.41,3.41,0,0,0-3.57.13,5.06,5.06,0,0,0-2.46,3.46A3.87,3.87,0,0,0,36.13,80.36Z"/><path class="cls-5" d="M34.13,74.73a7,7,0,0,0,1.43-4.16,3.81,3.81,0,0,0-1.41-3.43,6.08,6.08,0,0,0-1.78,4.35A3.38,3.38,0,0,0,34.13,74.73Z"/><path class="cls-5" d="M37.53,71.92a5.06,5.06,0,0,0-2.75,3.23,3.87,3.87,0,0,0,3.59-.2A5.58,5.58,0,0,0,41.1,72.1,3.41,3.41,0,0,0,37.53,71.92Z"/><path class="cls-5" d="M36.86,69.16a7,7,0,0,0,1.78-4,3.81,3.81,0,0,0-1.11-3.54,6.08,6.08,0,0,0-2.15,4.18A3.38,3.38,0,0,0,36.86,69.16Z"/><path class="cls-5" d="M40.49,66.65a5.06,5.06,0,0,0-3,3,3.87,3.87,0,0,0,3.59.11,5.58,5.58,0,0,0,3-2.59A3.41,3.41,0,0,0,40.49,66.65Z"/><path class="cls-5" d="M40.07,63.85A7,7,0,0,0,42.19,60a3.8,3.8,0,0,0-.8-3.62,6.08,6.08,0,0,0-2.51,4A3.38,3.38,0,0,0,40.07,63.85Z"/><path class="cls-5" d="M47.38,62.48a3.41,3.41,0,0,0-3.48-.8,5.06,5.06,0,0,0-3.27,2.71,3.87,3.87,0,0,0,3.57.42A5.59,5.59,0,0,0,47.38,62.48Z"/><path class="cls-5" d="M43.72,58.84a7,7,0,0,0,2.45-3.65,3.8,3.8,0,0,0-.48-3.68,6.08,6.08,0,0,0-2.84,3.74A3.38,3.38,0,0,0,43.72,58.84Z"/><path class="cls-5" d="M51.13,58.11a3.42,3.42,0,0,0-3.4-1.1,5.06,5.06,0,0,0-3.49,2.41,3.88,3.88,0,0,0,3.52.73A5.59,5.59,0,0,0,51.13,58.11Z"/><path class="cls-5" d="M50.57,50.75a3.8,3.8,0,0,0-.16-3.7,6.08,6.08,0,0,0-3.16,3.48,3.38,3.38,0,0,0,.55,3.64A7,7,0,0,0,50.57,50.75Z"/><path class="cls-5" d="M55.25,54.09A3.41,3.41,0,0,0,52,52.69a5.06,5.06,0,0,0-3.69,2.1,3.87,3.87,0,0,0,3.44,1A5.59,5.59,0,0,0,55.25,54.09Z"/><path class="cls-5" d="M55.08,50.18a3.22,3.22,0,0,0,1.29-2.86,5.16,5.16,0,0,0-3.72,1.43,2.87,2.87,0,0,0-1,3A5.9,5.9,0,0,0,55.08,50.18Z"/><path class="cls-5" d="M129.73,169.26a7,7,0,0,0-4.26,1.09,3.38,3.38,0,0,0,3.09,2,6.08,6.08,0,0,0,4.48-1.43A3.81,3.81,0,0,0,129.73,169.26Z"/><path class="cls-5" d="M128.54,167.19a3.41,3.41,0,0,0,.1-3.57,5.58,5.58,0,0,0-3,2.5,3.88,3.88,0,0,0-.49,3.56A5.06,5.06,0,0,0,128.54,167.19Z"/><path class="cls-5" d="M135.38,166.61a7,7,0,0,0-4.15,1.46,3.38,3.38,0,0,0,3.25,1.74,6.08,6.08,0,0,0,4.34-1.82A3.8,3.8,0,0,0,135.38,166.61Z"/><path class="cls-5" d="M134,164.65a3.41,3.41,0,0,0-.22-3.57,5.57,5.57,0,0,0-2.82,2.76,3.88,3.88,0,0,0-.17,3.59A5.07,5.07,0,0,0,134,164.65Z"/><path class="cls-5" d="M140.78,163.47a7,7,0,0,0-4,1.82,3.38,3.38,0,0,0,3.39,1.45,6.08,6.08,0,0,0,4.16-2.19A3.81,3.81,0,0,0,140.78,163.47Z"/><path class="cls-5" d="M139.25,161.64a3.41,3.41,0,0,0-.53-3.54,5.58,5.58,0,0,0-2.57,3,3.88,3.88,0,0,0,.14,3.59A5.07,5.07,0,0,0,139.25,161.64Z"/><path class="cls-5" d="M145.89,159.88a7,7,0,0,0-3.83,2.16,3.38,3.38,0,0,0,3.51,1.15,6.08,6.08,0,0,0,4-2.54A3.81,3.81,0,0,0,145.89,159.88Z"/><path class="cls-5" d="M144.2,158.18a3.41,3.41,0,0,0-.83-3.48,5.58,5.58,0,0,0-2.3,3.2,3.88,3.88,0,0,0,.45,3.57A5.07,5.07,0,0,0,144.2,158.18Z"/><path class="cls-5" d="M150.66,155.85a7,7,0,0,0-3.63,2.49,3.38,3.38,0,0,0,3.59.83,6.08,6.08,0,0,0,3.72-2.88A3.8,3.8,0,0,0,150.66,155.85Z"/><path class="cls-5" d="M145.69,154.31a3.88,3.88,0,0,0,.76,3.52,5.07,5.07,0,0,0,2.38-3.52,3.41,3.41,0,0,0-1.13-3.39A5.58,5.58,0,0,0,145.69,154.31Z"/><path class="cls-5" d="M155.07,151.43a7,7,0,0,0-3.4,2.79,3.38,3.38,0,0,0,3.65.52,6.08,6.08,0,0,0,3.45-3.19A3.81,3.81,0,0,0,155.07,151.43Z"/><path class="cls-5" d="M151,153.76a5.07,5.07,0,0,0,2.07-3.71,3.41,3.41,0,0,0-1.42-3.28,5.58,5.58,0,0,0-1.71,3.56A3.88,3.88,0,0,0,151,153.76Z"/><path class="cls-5" d="M159.07,146.63a7,7,0,0,0-3.14,3.08,3.38,3.38,0,0,0,3.68.2,6.08,6.08,0,0,0,3.16-3.48A3.8,3.8,0,0,0,159.07,146.63Z"/><path class="cls-5" d="M153.91,146a3.88,3.88,0,0,0,1.36,3.33,5.07,5.07,0,0,0,1.73-3.88,3.41,3.41,0,0,0-1.7-3.14A5.58,5.58,0,0,0,153.91,146Z"/><path class="cls-5" d="M162.64,141.51a7,7,0,0,0-2.86,3.34,3.38,3.38,0,0,0,3.69-.12,6.08,6.08,0,0,0,2.85-3.74A3.8,3.8,0,0,0,162.64,141.51Z"/><path class="cls-5" d="M159.08,144.51a5.07,5.07,0,0,0,1.39-4,3.42,3.42,0,0,0-2-3,5.58,5.58,0,0,0-1.06,3.8A3.88,3.88,0,0,0,159.08,144.51Z"/><path class="cls-5" d="M165.75,136.09a7,7,0,0,0-2.56,3.58,3.38,3.38,0,0,0,3.66-.44,6.08,6.08,0,0,0,2.51-4A3.81,3.81,0,0,0,165.75,136.09Z"/><path class="cls-5" d="M162.47,139.39a5.07,5.07,0,0,0,1-4.12,3.42,3.42,0,0,0-2.22-2.8,5.59,5.59,0,0,0-.73,3.88A3.88,3.88,0,0,0,162.47,139.39Z"/><path class="cls-5" d="M168.37,130.43a7,7,0,0,0-2.24,3.79,3.38,3.38,0,0,0,3.61-.76,6.08,6.08,0,0,0,2.16-4.18A3.8,3.8,0,0,0,168.37,130.43Z"/><path class="cls-5" d="M165.39,134a5.07,5.07,0,0,0,.67-4.19,3.42,3.42,0,0,0-2.46-2.6,5.58,5.58,0,0,0-.39,3.92A3.88,3.88,0,0,0,165.39,134Z"/><path class="cls-5" d="M170.49,124.55a7,7,0,0,0-1.9,4,3.38,3.38,0,0,0,3.53-1.07,6.08,6.08,0,0,0,1.78-4.35A3.81,3.81,0,0,0,170.49,124.55Z"/><path class="cls-5" d="M167.84,128.37a5.07,5.07,0,0,0,.3-4.23,3.42,3.42,0,0,0-2.68-2.37,5.58,5.58,0,0,0,0,3.94A3.88,3.88,0,0,0,167.84,128.37Z"/><path class="cls-5" d="M172.09,118.52a7,7,0,0,0-1.55,4.12,3.38,3.38,0,0,0,3.42-1.38,6.08,6.08,0,0,0,1.4-4.49A3.8,3.8,0,0,0,172.09,118.52Z"/><path class="cls-5" d="M169.71,118.31a3.42,3.42,0,0,0-2.87-2.13,5.58,5.58,0,0,0,.3,3.93,3.88,3.88,0,0,0,2.64,2.44A5.07,5.07,0,0,0,169.71,118.31Z"/><path class="cls-5" d="M173.16,112.37A7,7,0,0,0,172,116.6a3.38,3.38,0,0,0,3.29-1.67,6.08,6.08,0,0,0,1-4.59A3.8,3.8,0,0,0,173.16,112.37Z"/><path class="cls-5" d="M170.77,112.36a3.41,3.41,0,0,0-3-1.87,5.58,5.58,0,0,0,.64,3.89,3.87,3.87,0,0,0,2.84,2.2A5.07,5.07,0,0,0,170.77,112.36Z"/><path class="cls-5" d="M173.69,106.15a7,7,0,0,0-.81,4.32,3.38,3.38,0,0,0,3.13-1.95,6.08,6.08,0,0,0,.6-4.66A3.8,3.8,0,0,0,173.69,106.15Z"/><path class="cls-5" d="M171.31,106.35a3.42,3.42,0,0,0-3.2-1.6,5.58,5.58,0,0,0,1,3.82,3.88,3.88,0,0,0,3,1.95A5.07,5.07,0,0,0,171.31,106.35Z"/><path class="cls-5" d="M173.67,99.9a7,7,0,0,0-.43,4.38,3.38,3.38,0,0,0,2.95-2.21,6.08,6.08,0,0,0,.19-4.7A3.8,3.8,0,0,0,173.67,99.9Z"/><path class="cls-5" d="M171.32,100.31A3.42,3.42,0,0,0,168,99a5.58,5.58,0,0,0,1.31,3.72,3.87,3.87,0,0,0,3.18,1.67A5.07,5.07,0,0,0,171.32,100.31Z"/><path class="cls-5" d="M173.11,93.68a7,7,0,0,0,0,4.4,3.38,3.38,0,0,0,2.74-2.46,6.08,6.08,0,0,0-.22-4.7A3.8,3.8,0,0,0,173.11,93.68Z"/><path class="cls-5" d="M167.38,93.28A5.59,5.59,0,0,0,169,96.87a3.88,3.88,0,0,0,3.32,1.39,5.07,5.07,0,0,0-1.51-4A3.41,3.41,0,0,0,167.38,93.28Z"/><path class="cls-5" d="M172,87.54a7,7,0,0,0,.34,4.38,3.38,3.38,0,0,0,2.52-2.69,6.09,6.09,0,0,0-.63-4.66A3.8,3.8,0,0,0,172,87.54Z"/><path class="cls-5" d="M169.77,88.35a3.41,3.41,0,0,0-3.5-.71,5.58,5.58,0,0,0,1.93,3.44,3.87,3.87,0,0,0,3.42,1.1A5.06,5.06,0,0,0,169.77,88.35Z"/><path class="cls-5" d="M171.1,85.85a3.38,3.38,0,0,0,2.27-2.9,6.09,6.09,0,0,0-1-4.59,3.8,3.8,0,0,0-2,3.15A7,7,0,0,0,171.1,85.85Z"/><path class="cls-5" d="M168.22,82.52a3.41,3.41,0,0,0-3.55-.41,5.58,5.58,0,0,0,2.23,3.26,3.87,3.87,0,0,0,3.51.79A5.06,5.06,0,0,0,168.22,82.52Z"/><path class="cls-5" d="M169.33,79.91a3.38,3.38,0,0,0,2-3.09,6.09,6.09,0,0,0-1.43-4.48,3.8,3.8,0,0,0-1.68,3.31A7,7,0,0,0,169.33,79.91Z"/><path class="cls-5" d="M166.16,76.84a3.41,3.41,0,0,0-3.57-.1,5.58,5.58,0,0,0,2.5,3,3.87,3.87,0,0,0,3.56.49A5.06,5.06,0,0,0,166.16,76.84Z"/><path class="cls-5" d="M167,74.14a3.38,3.38,0,0,0,1.74-3.25A6.08,6.08,0,0,0,167,66.55,3.81,3.81,0,0,0,165.58,70,7,7,0,0,0,167,74.14Z"/><path class="cls-5" d="M162.81,74.4a3.87,3.87,0,0,0,3.59.17,5.06,5.06,0,0,0-2.78-3.21,3.41,3.41,0,0,0-3.57.22A5.59,5.59,0,0,0,162.81,74.4Z"/><path class="cls-5" d="M164.26,68.6a3.38,3.38,0,0,0,1.45-3.39A6.08,6.08,0,0,0,163.52,61a3.81,3.81,0,0,0-1.08,3.55A7,7,0,0,0,164.26,68.6Z"/><path class="cls-5" d="M160.07,69.22a3.87,3.87,0,0,0,3.59-.14,5.06,5.06,0,0,0-3-3,3.42,3.42,0,0,0-3.54.53A5.58,5.58,0,0,0,160.07,69.22Z"/><path class="cls-5" d="M161,63.32a3.38,3.38,0,0,0,1.15-3.5,6.09,6.09,0,0,0-2.54-4,3.81,3.81,0,0,0-.77,3.63A7,7,0,0,0,161,63.32Z"/><path class="cls-5" d="M160.45,63.85a5.06,5.06,0,0,0-3.29-2.68,3.41,3.41,0,0,0-3.48.83,5.59,5.59,0,0,0,3.2,2.3A3.87,3.87,0,0,0,160.45,63.85Z"/><path class="cls-5" d="M157.31,58.35a3.38,3.38,0,0,0,.84-3.59A6.08,6.08,0,0,0,155.27,51a3.8,3.8,0,0,0-.45,3.68A7,7,0,0,0,157.31,58.35Z"/><path class="cls-5" d="M156.8,58.92a5.06,5.06,0,0,0-3.52-2.38,3.41,3.41,0,0,0-3.39,1.13,5.59,5.59,0,0,0,3.39,2A3.88,3.88,0,0,0,156.8,58.92Z"/><path class="cls-5" d="M153.19,53.71a3.38,3.38,0,0,0,.52-3.65,6.09,6.09,0,0,0-3.19-3.45,3.8,3.8,0,0,0-.12,3.71A7,7,0,0,0,153.19,53.71Z"/><path class="cls-5" d="M152.73,54.33A5.06,5.06,0,0,0,149,52.27a3.41,3.41,0,0,0-3.28,1.42,5.58,5.58,0,0,0,3.55,1.71A3.87,3.87,0,0,0,152.73,54.33Z"/><path class="cls-5" d="M145.87,49.79a5.9,5.9,0,0,0,3.41,1.51,2.87,2.87,0,0,0-1-3,5.16,5.16,0,0,0-3.73-1.4A3.22,3.22,0,0,0,145.87,49.79Z"/><text class="cls-6" transform="translate(42.77 119.07)">SATISFACTION <tspan x="5" y="19.34">GUARANTEED</tspan></text><polygon class="cls-7" points="155.32 98.41 100.79 99.23 46.13 98.41 46.13 98 100.79 97.17 155.32 98 155.32 98.41"/></svg>