<svg id="Layer_1" data-name="Layer 1" xmlns="http://www.w3.org/2000/svg" viewBox="0 0 201.45 204.18"><defs><style>.cls-1,.cls-5{fill:#0373b9;}.cls-2{fill:none;stroke:#fff;stroke-miterlimit:10;stroke-width:2px;}.cls-3{fill:#fff;}.cls-4{font-size:32.23px;fill:#2c3e50;}.cls-4,.cls-5{font-family:ProximaNova-Semibold, Proxima Nova;font-weight:700;}.cls-5{font-size:16.12px;}.cls-6{fill:#f6921e;}.cls-7{fill:#848484;}</style></defs><title>Untitled-3</title><path class="cls-1" d="M92.68,3.17a11.79,11.79,0,0,1,16.09,0C113.19,7.4,121.4,8.84,127,6.38a11.79,11.79,0,0,1,15.12,5.5c2.71,5.49,9.93,9.65,16,9.26a11.79,11.79,0,0,1,12.32,10.34c.67,6.08,6,12.46,11.9,14.18a11.79,11.79,0,0,1,8,13.93c-1.45,5.95,1.4,13.77,6.33,17.4a11.79,11.79,0,0,1,2.79,15.84c-3.39,5.09-3.39,13.42,0,18.51a11.79,11.79,0,0,1-2.79,15.84c-4.93,3.62-7.78,11.45-6.33,17.4a11.79,11.79,0,0,1-8,13.93c-5.87,1.72-11.23,8.1-11.9,14.18A11.79,11.79,0,0,1,158.15,183c-6.11-.39-13.32,3.77-16,9.26A11.79,11.79,0,0,1,127,197.8c-5.6-2.46-13.81-1-18.23,3.21a11.79,11.79,0,0,1-16.09,0c-4.42-4.23-12.63-5.67-18.23-3.21a11.79,11.79,0,0,1-15.12-5.5c-2.71-5.48-9.93-9.65-16-9.26A11.79,11.79,0,0,1,31,172.7c-.67-6.08-6-12.46-11.9-14.18a11.79,11.79,0,0,1-8-13.93c1.45-5.94-1.4-13.77-6.33-17.4a11.79,11.79,0,0,1-2.79-15.84c3.39-5.09,3.39-13.42,0-18.51A11.79,11.79,0,0,1,4.7,77C9.63,73.37,12.48,65.54,11,59.6a11.79,11.79,0,0,1,8-13.93c5.87-1.72,11.23-8.1,11.9-14.18A11.79,11.79,0,0,1,43.3,21.14c6.11.39,13.32-3.77,16-9.26a11.79,11.79,0,0,1,15.12-5.5C80.05,8.84,88.26,7.4,92.68,3.17Z"/><circle class="cls-2" cx="100.72" cy="102.09" r="87.8"/><circle class="cls-3" cx="100.72" cy="102.09" r="84.49"/><text class="cls-4" transform="translate(70.14 86.23)">2M+</text><text class="cls-5" transform="translate(67.64 119.07)">NOTICES<tspan x="13.75" y="19.34">SENT</tspan></text><path class="cls-6" d="M106.15,30.45v-9.1H88.43v34.3h26.81V30.45Zm-2.48,4.11h2.12a.34.34,0,0,1,.34.34h0a.34.34,0,0,1-.34.34h-2.12a.34.34,0,0,1-.34-.34h0a.34.34,0,0,1,.34-.34m-.78,5h6.46a.34.34,0,0,1,.34.34h0a.34.34,0,0,1-.34.34h-6.46a.34.34,0,0,1-.34-.34h0a.34.34,0,0,1,.34-.34m-.34,5.33h0a.34.34,0,0,1-.34.34h-1.89a.34.34,0,0,1-.34-.34h0a.34.34,0,0,1,.34-.34h1.89a.34.34,0,0,1,.34.34m-1.91-9.63h-.23a.34.34,0,0,1-.34-.34h0a.34.34,0,0,1,.34-.34h.23a.34.34,0,0,1,.34.34h0a.34.34,0,0,1-.34.34m-6.26-5.67h5.56a.34.34,0,0,1,.34.34h0a.34.34,0,0,1-.34.34H94.38a.34.34,0,0,1-.34-.34h0a.34.34,0,0,1,.34-.34m0,5h2.95a.34.34,0,0,1,.34.34h0a.34.34,0,0,1-.34.34H94.38A.34.34,0,0,1,94,34.9h0a.34.34,0,0,1,.34-.34m0,5h5.44a.34.34,0,0,1,.34.34h0a.34.34,0,0,1-.34.34H94.38a.34.34,0,0,1-.34-.34h0a.34.34,0,0,1,.34-.34m0,5h2.95a.34.34,0,0,1,.34.34h0a.34.34,0,0,1-.34.34H94.38a.34.34,0,0,1-.34-.34h0a.34.34,0,0,1,.34-.34m9.84,5.67H94.38a.34.34,0,0,1-.34-.34h0a.34.34,0,0,1,.34-.34h9.84a.34.34,0,0,1,.34.34h0a.34.34,0,0,1-.34.34m1.07-5.67h4.34a.34.34,0,0,1,.34.34h0a.34.34,0,0,1-.34.34h-4.34a.34.34,0,0,1-.34-.34h0a.34.34,0,0,1,.34-.34"/><polygon class="cls-6" points="114.38 29.58 111.86 27.06 111.3 26.5 107.01 22.21 107.01 29.58 114.38 29.58"/><polygon class="cls-6" points="102.79 174.92 103.52 176.4 105.15 176.63 103.97 177.79 104.25 179.41 102.79 178.65 101.33 179.41 101.61 177.79 100.42 176.63 102.06 176.4 102.79 174.92"/><polygon class="cls-6" points="96.43 174.82 97.03 176.36 98.64 176.74 97.36 177.78 97.5 179.43 96.11 178.53 94.58 179.17 95 177.57 93.93 176.32 95.58 176.23 96.43 174.82"/><polygon class="cls-6" points="90.11 174.17 90.57 175.75 92.14 176.27 90.78 177.2 90.77 178.85 89.46 177.84 87.89 178.34 88.45 176.79 87.48 175.45 89.13 175.5 90.11 174.17"/><polygon class="cls-6" points="83.87 172.97 84.19 174.59 85.71 175.24 84.27 176.05 84.12 177.69 82.9 176.57 81.29 176.94 81.98 175.44 81.14 174.01 82.78 174.21 83.87 172.97"/><polygon class="cls-6" points="77.76 171.23 77.94 172.87 79.39 173.65 77.89 174.33 77.59 175.96 76.48 174.74 74.84 174.96 75.66 173.52 74.94 172.03 76.56 172.37 77.76 171.23"/><polygon class="cls-6" points="71.82 168.97 71.85 170.62 73.23 171.52 71.68 172.07 71.24 173.66 70.24 172.34 68.59 172.42 69.53 171.07 68.95 169.52 70.53 170 71.82 168.97"/><polygon class="cls-6" points="66.1 166.19 65.99 167.84 67.29 168.86 65.69 169.27 65.11 170.82 64.23 169.42 62.59 169.36 63.64 168.09 63.19 166.5 64.73 167.11 66.1 166.19"/><polygon class="cls-6" points="60.64 162.93 60.39 164.56 61.59 165.69 59.97 165.96 59.26 167.45 58.51 165.98 56.87 165.78 58.03 164.6 57.72 162.98 59.2 163.72 60.64 162.93"/><polygon class="cls-6" points="55.49 159.21 55.1 160.81 56.2 162.04 54.55 162.16 53.72 163.59 53.1 162.06 51.48 161.71 52.74 160.64 52.58 159 53.98 159.87 55.49 159.21"/><polygon class="cls-6" points="50.69 155.05 50.16 156.61 51.15 157.93 49.49 157.91 48.54 159.26 48.05 157.68 46.47 157.19 47.82 156.24 47.8 154.59 49.13 155.58 50.69 155.05"/><polygon class="cls-6" points="46.26 150.48 45.6 152 46.47 153.4 44.82 153.24 43.76 154.5 43.41 152.88 41.88 152.25 43.3 151.42 43.43 149.78 44.66 150.88 46.26 150.48"/><polygon class="cls-6" points="42.25 145.55 41.46 147 42.2 148.47 40.58 148.17 39.41 149.33 39.2 147.69 37.73 146.94 39.22 146.23 39.49 144.6 40.62 145.8 42.25 145.55"/><polygon class="cls-6" points="38.69 140.29 37.77 141.66 38.38 143.2 36.79 142.75 35.52 143.81 35.46 142.16 34.06 141.28 35.61 140.7 36.02 139.1 37.04 140.4 38.69 140.29"/><polygon class="cls-6" points="35.59 134.74 34.56 136.03 35.04 137.61 33.49 137.02 32.13 137.96 32.22 136.32 30.9 135.32 32.49 134.88 33.04 133.32 33.94 134.7 35.59 134.74"/><polygon class="cls-6" points="33 128.94 31.86 130.13 32.19 131.75 30.7 131.03 29.27 131.85 29.49 130.22 28.27 129.1 29.89 128.81 30.57 127.3 31.36 128.76 33 128.94"/><polygon class="cls-6" points="30.91 122.94 29.67 124.02 29.87 125.66 28.45 124.82 26.95 125.51 27.31 123.9 26.19 122.69 27.83 122.54 28.64 121.09 29.3 122.61 30.91 122.94"/><polygon class="cls-6" points="29.36 116.77 28.03 117.75 28.08 119.4 26.74 118.43 25.19 118.99 25.69 117.42 24.68 116.11 26.33 116.11 27.26 114.74 27.78 116.31 29.36 116.77"/><polygon class="cls-6" points="28.36 110.5 26.95 111.35 26.85 113 25.6 111.92 24 112.34 24.64 110.82 23.75 109.43 25.39 109.57 26.44 108.29 26.82 109.9 28.36 110.5"/><polygon class="cls-6" points="27.9 104.16 26.42 104.89 26.18 106.52 25.03 105.34 23.4 105.62 24.17 104.16 23.4 102.69 25.03 102.97 26.18 101.79 26.42 103.43 27.9 104.16"/><polygon class="cls-6" points="28 97.8 26.46 98.4 26.08 100.01 25.03 98.73 23.39 98.86 24.28 97.48 23.64 95.95 25.24 96.37 26.49 95.3 26.58 96.94 28 97.8"/><polygon class="cls-6" points="28.65 91.48 27.06 91.94 26.54 93.51 25.61 92.14 23.96 92.14 24.97 90.83 24.47 89.26 26.02 89.82 27.36 88.85 27.31 90.5 28.65 91.48"/><polygon class="cls-6" points="29.84 85.24 28.23 85.56 27.57 87.08 26.77 85.64 25.12 85.48 26.24 84.27 25.88 82.66 27.38 83.35 28.8 82.51 28.6 84.15 29.84 85.24"/><polygon class="cls-6" points="31.58 79.13 29.94 79.31 29.16 80.76 28.48 79.25 26.86 78.96 28.08 77.85 27.86 76.21 29.29 77.03 30.78 76.31 30.44 77.93 31.58 79.13"/><polygon class="cls-6" points="33.85 73.19 32.2 73.22 31.29 74.6 30.75 73.04 29.16 72.61 30.47 71.61 30.39 69.96 31.75 70.9 33.29 70.32 32.81 71.9 33.85 73.19"/><polygon class="cls-6" points="36.62 67.47 34.98 67.36 33.95 68.66 33.55 67.05 32 66.48 33.39 65.6 33.46 63.95 34.73 65.01 36.32 64.56 35.7 66.1 36.62 67.47"/><polygon class="cls-6" points="39.88 62.01 38.25 61.76 37.12 62.96 36.85 61.33 35.36 60.63 36.83 59.87 37.04 58.23 38.21 59.4 39.83 59.09 39.09 60.57 39.88 62.01"/><polygon class="cls-6" points="43.61 56.86 42.01 56.47 40.77 57.57 40.65 55.92 39.22 55.09 40.75 54.47 41.1 52.85 42.17 54.11 43.81 53.95 42.94 55.35 43.61 56.86"/><polygon class="cls-6" points="47.77 52.06 46.2 51.53 44.88 52.51 44.9 50.86 43.55 49.91 45.13 49.42 45.62 47.84 46.57 49.19 48.23 49.17 47.24 50.49 47.77 52.06"/><polygon class="cls-6" points="52.33 47.63 50.82 46.97 49.41 47.84 49.58 46.19 48.32 45.13 49.93 44.78 50.56 43.25 51.39 44.67 53.04 44.8 51.94 46.03 52.33 47.63"/><polygon class="cls-6" points="57.26 43.62 55.81 42.83 54.34 43.57 54.65 41.95 53.48 40.77 55.12 40.57 55.88 39.1 56.58 40.59 58.21 40.86 57.01 41.99 57.26 43.62"/><polygon class="cls-6" points="62.52 40.06 61.15 39.14 59.62 39.75 60.06 38.16 59.01 36.89 60.66 36.83 61.54 35.43 62.11 36.98 63.71 37.38 62.41 38.41 62.52 40.06"/><polygon class="cls-6" points="68.07 36.96 66.79 35.93 65.2 36.41 65.79 34.86 64.85 33.5 66.5 33.59 67.5 32.27 67.93 33.86 69.49 34.41 68.11 35.31 68.07 36.96"/><polygon class="cls-6" points="73.87 34.37 72.68 33.23 71.06 33.56 71.78 32.07 70.96 30.64 72.6 30.86 73.71 29.64 74 31.26 75.51 31.94 74.05 32.72 73.87 34.37"/><polygon class="cls-6" points="79.88 32.28 78.79 31.04 77.15 31.24 78 29.81 77.3 28.32 78.91 28.68 80.13 27.56 80.28 29.2 81.72 30.01 80.2 30.66 79.88 32.28"/><polygon class="cls-6" points="123.69 32.95 123.51 31.31 122.05 30.53 123.56 29.85 123.86 28.23 124.96 29.45 126.6 29.22 125.78 30.66 126.5 32.15 124.88 31.81 123.69 32.95"/><polygon class="cls-6" points="129.63 35.22 129.59 33.57 128.21 32.66 129.77 32.12 130.2 30.52 131.2 31.84 132.85 31.76 131.91 33.11 132.5 34.66 130.91 34.18 129.63 35.22"/><polygon class="cls-6" points="135.34 37.99 135.45 36.34 134.16 35.32 135.76 34.91 136.33 33.36 137.21 34.76 138.86 34.83 137.81 36.09 138.25 37.69 136.72 37.07 135.34 37.99"/><polygon class="cls-6" points="140.8 41.25 141.05 39.62 139.85 38.49 141.48 38.22 142.18 36.73 142.94 38.2 144.58 38.41 143.42 39.58 143.72 41.2 142.25 40.46 140.8 41.25"/><polygon class="cls-6" points="145.95 44.98 146.34 43.37 145.24 42.14 146.89 42.02 147.72 40.59 148.35 42.12 149.96 42.47 148.7 43.54 148.87 45.18 147.46 44.31 145.95 44.98"/><polygon class="cls-6" points="150.76 49.14 151.28 47.57 150.3 46.25 151.95 46.27 152.91 44.92 153.39 46.5 154.97 46.99 153.62 47.94 153.65 49.59 152.32 48.6 150.76 49.14"/><polygon class="cls-6" points="155.18 53.7 155.84 52.19 154.98 50.78 156.62 50.95 157.69 49.69 158.04 51.3 159.57 51.93 158.14 52.76 158.02 54.41 156.78 53.3 155.18 53.7"/><polygon class="cls-6" points="159.19 58.63 159.98 57.18 159.24 55.7 160.87 56.02 162.04 54.85 162.25 56.49 163.72 57.25 162.22 57.95 161.96 59.58 160.82 58.38 159.19 58.63"/><polygon class="cls-6" points="162.76 63.89 163.67 62.52 163.06 60.98 164.65 61.43 165.92 60.38 165.99 62.03 167.38 62.91 165.84 63.48 165.43 65.08 164.41 63.78 162.76 63.89"/><polygon class="cls-6" points="165.85 69.44 166.88 68.16 166.41 66.57 167.95 67.16 169.31 66.22 169.23 67.87 170.55 68.87 168.95 69.3 168.41 70.86 167.5 69.48 165.85 69.44"/><polygon class="cls-6" points="168.45 75.24 169.59 74.05 169.25 72.43 170.74 73.15 172.18 72.33 171.95 73.97 173.18 75.08 171.55 75.37 170.87 76.88 170.09 75.42 168.45 75.24"/><polygon class="cls-6" points="170.53 81.25 171.77 80.16 171.58 78.52 173 79.36 174.5 78.67 174.13 80.28 175.25 81.5 173.61 81.65 172.8 83.09 172.15 81.57 170.53 81.25"/><polygon class="cls-6" points="172.08 87.41 173.41 86.43 173.37 84.78 174.7 85.75 176.26 85.19 175.75 86.76 176.77 88.07 175.12 88.08 174.18 89.44 173.67 87.87 172.08 87.41"/><polygon class="cls-6" points="173.09 93.69 174.5 92.83 174.6 91.18 175.85 92.26 177.44 91.84 176.8 93.36 177.7 94.75 176.05 94.61 175.01 95.89 174.63 94.28 173.09 93.69"/><polygon class="cls-6" points="173.55 100.03 175.03 99.29 175.27 97.66 176.42 98.84 178.05 98.56 177.27 100.03 178.05 101.49 176.42 101.21 175.26 102.39 175.03 100.76 173.55 100.03"/><polygon class="cls-6" points="173.45 106.38 174.99 105.78 175.37 104.17 176.41 105.45 178.06 105.32 177.16 106.7 177.8 108.23 176.21 107.81 174.96 108.89 174.86 107.24 173.45 106.38"/><polygon class="cls-6" points="172.8 112.7 174.38 112.24 174.9 110.67 175.83 112.04 177.48 112.05 176.47 113.35 176.98 114.92 175.42 114.37 174.08 115.33 174.13 113.68 172.8 112.7"/><polygon class="cls-6" points="171.6 118.94 173.22 118.62 173.87 117.1 174.68 118.55 176.32 118.7 175.2 119.91 175.57 121.52 174.07 120.83 172.65 121.67 172.84 120.03 171.6 118.94"/><polygon class="cls-6" points="169.86 125.06 171.5 124.88 172.29 123.42 172.96 124.93 174.59 125.22 173.36 126.33 173.59 127.97 172.16 127.15 170.67 127.87 171 126.25 169.86 125.06"/><polygon class="cls-6" points="167.6 131 169.25 130.96 170.16 129.58 170.7 131.14 172.29 131.57 170.97 132.57 171.06 134.22 169.7 133.28 168.15 133.87 168.63 132.28 167.6 131"/><polygon class="cls-6" points="164.82 136.71 166.47 136.82 167.5 135.53 167.9 137.13 169.45 137.7 168.05 138.58 167.99 140.23 166.72 139.17 165.13 139.62 165.74 138.09 164.82 136.71"/><polygon class="cls-6" points="161.56 142.17 163.19 142.42 164.33 141.22 164.59 142.85 166.09 143.55 164.62 144.31 164.41 145.95 163.24 144.78 161.61 145.09 162.36 143.62 161.56 142.17"/><polygon class="cls-6" points="157.84 147.32 159.44 147.71 160.68 146.61 160.79 148.26 162.22 149.09 160.69 149.72 160.34 151.33 159.28 150.07 157.63 150.24 158.5 148.83 157.84 147.32"/><polygon class="cls-6" points="153.68 152.13 155.24 152.65 156.57 151.67 156.54 153.32 157.89 154.27 156.31 154.76 155.83 156.34 154.87 154.99 153.22 155.01 154.21 153.69 153.68 152.13"/><polygon class="cls-6" points="149.12 156.55 150.63 157.21 152.03 156.35 151.87 157.99 153.13 159.06 151.51 159.41 150.89 160.94 150.06 159.51 148.41 159.39 149.51 158.15 149.12 156.55"/><polygon class="cls-6" points="144.18 160.56 145.63 161.35 147.11 160.61 146.8 162.24 147.96 163.41 146.32 163.61 145.57 165.09 144.86 163.59 143.23 163.32 144.44 162.19 144.18 160.56"/><polygon class="cls-6" points="138.92 164.13 140.3 165.04 141.83 164.43 141.38 166.02 142.44 167.29 140.79 167.35 139.91 168.75 139.34 167.2 137.73 166.8 139.03 165.77 138.92 164.13"/><polygon class="cls-6" points="133.37 167.22 134.66 168.25 136.24 167.78 135.66 169.32 136.6 170.68 134.95 170.6 133.95 171.92 133.51 170.32 131.95 169.78 133.34 168.87 133.37 167.22"/><polygon class="cls-6" points="127.57 169.82 128.76 170.96 130.38 170.63 129.66 172.11 130.48 173.55 128.84 173.32 127.74 174.55 127.44 172.92 125.94 172.24 127.39 171.46 127.57 169.82"/><polygon class="cls-6" points="121.56 171.9 122.66 173.14 124.3 172.95 123.45 174.37 124.14 175.87 122.53 175.5 121.32 176.63 121.17 174.98 119.73 174.17 121.25 173.52 121.56 171.9"/><polygon class="cls-6" points="115.4 173.45 116.38 174.78 118.03 174.74 117.06 176.07 117.62 177.63 116.05 177.12 114.74 178.14 114.74 176.48 113.37 175.55 114.94 175.03 115.4 173.45"/><polygon class="cls-6" points="109.13 174.46 109.98 175.87 111.63 175.97 110.55 177.22 110.97 178.81 109.45 178.17 108.06 179.07 108.2 177.42 106.92 176.38 108.53 176 109.13 174.46"/><polygon class="cls-7" points="155.32 98.41 100.79 99.23 46.13 98.41 46.13 98 100.79 97.17 155.32 98 155.32 98.41"/></svg>