<svg id="Layer_1" data-name="Layer 1" xmlns="http://www.w3.org/2000/svg" viewBox="0 0 345.34 387.68"><defs><style>.cls-1{fill:#0373b9;}.cls-2{fill:#f6921e;}.cls-3,.cls-6{fill:#606060;}.cls-3{opacity:0.1;}.cls-4,.cls-7{opacity:0.3;}.cls-5,.cls-7{fill:#037cf9;}</style></defs><title>Untitled-3</title><path class="cls-1" d="M112.86,170.75a2.68,2.68,0,0,1-1.32-.35l-47.71-27a2.69,2.69,0,0,1,2.65-4.68l47.71,27a2.69,2.69,0,0,1-1.33,5Z"/><path class="cls-1" d="M49.56,134.93a2.68,2.68,0,0,1-1.32-.35L20.18,118.71A2.69,2.69,0,0,1,22.83,114L50.88,129.9a2.69,2.69,0,0,1-1.33,5Z"/><path class="cls-1" d="M8.46,111.66a2.68,2.68,0,0,1-1.32-.35L1.37,108A2.69,2.69,0,1,1,4,103.36l5.77,3.26a2.69,2.69,0,0,1-1.33,5Z"/><path class="cls-2" d="M189,110.16a2.69,2.69,0,0,1-2.69-2.69V42.16a2.69,2.69,0,0,1,5.38,0v65.31A2.69,2.69,0,0,1,189,110.16Z"/><path class="cls-2" d="M189,21.89a2.69,2.69,0,0,1-2.69-2.69V2.69a2.69,2.69,0,0,1,5.38,0V19.2A2.69,2.69,0,0,1,189,21.89Z"/><path class="cls-2" d="M12.6,240.38A2.69,2.69,0,0,1,10,238.46c-2.1-7-3.41-19.68-3.47-20.21a2.69,2.69,0,0,1,5.35-.55c0,.13,1.31,12.67,3.27,19.22a2.69,2.69,0,0,1-2.58,3.46Z"/><path class="cls-1" d="M117.39,362.54a2.68,2.68,0,0,1-.94-.17,170.29,170.29,0,0,1-70.61-49.74A2.69,2.69,0,1,1,50,309.16a164.89,164.89,0,0,0,68.37,48.17,2.69,2.69,0,0,1-.94,5.21Z"/><path class="cls-1" d="M238.13,360.89a2.69,2.69,0,0,1-1-5.19,164.23,164.23,0,0,0,74-59.47,2.69,2.69,0,0,1,4.44,3,169.59,169.59,0,0,1-76.45,61.42A2.68,2.68,0,0,1,238.13,360.89Z"/><path class="cls-2" d="M334.94,256.27a2.69,2.69,0,0,1-2.57-3.5A164.31,164.31,0,0,0,340,203.25a166,166,0,0,0-2.37-27.94,2.69,2.69,0,0,1,5.31-.91,171.42,171.42,0,0,1,2.44,28.85,169.69,169.69,0,0,1-7.84,51.13A2.69,2.69,0,0,1,334.94,256.27Z"/><path class="cls-3" d="M327.65,136.66a2.69,2.69,0,0,1-2.45-1.57c-1.13-2.48-2.34-5-3.6-7.38a2.69,2.69,0,0,1,4.78-2.48c1.3,2.5,2.55,5.06,3.71,7.62a2.69,2.69,0,0,1-2.45,3.81Z"/><path class="cls-2" d="M286.91,57.89a2.69,2.69,0,0,1-2.06-4.42l14.66-17.41a2.69,2.69,0,1,1,4.12,3.47L289,56.93A2.69,2.69,0,0,1,286.91,57.89Z"/><path class="cls-2" d="M112.87,42.49A2.69,2.69,0,0,1,110.48,41l-10-19.31a2.69,2.69,0,1,1,4.78-2.48l10,19.31a2.69,2.69,0,0,1-2.39,3.93Z"/><g class="cls-4"><path class="cls-5" d="M286.74,259.4H281a2.69,2.69,0,0,1,0-5.38h5.74a2.69,2.69,0,0,1,0,5.38Z"/><path class="cls-5" d="M309,259.4h-6.46a2.69,2.69,0,0,1,0-5.38H309a2.69,2.69,0,0,1,0,5.38Z"/><path class="cls-5" d="M294.82,273.57a2.69,2.69,0,0,1-2.69-2.69v-5.74a2.69,2.69,0,0,1,5.38,0v5.74A2.69,2.69,0,0,1,294.82,273.57Z"/><path class="cls-5" d="M294.82,252a2.69,2.69,0,0,1-2.69-2.69v-6.46a2.69,2.69,0,1,1,5.38,0v6.46A2.69,2.69,0,0,1,294.82,252Z"/><path class="cls-5" d="M168.33,373.5h-5.74a2.69,2.69,0,1,1,0-5.38h5.74a2.69,2.69,0,0,1,0,5.38Z"/><path class="cls-5" d="M190.58,373.5h-6.46a2.69,2.69,0,1,1,0-5.38h6.46a2.69,2.69,0,0,1,0,5.38Z"/><path class="cls-5" d="M176.4,387.68a2.69,2.69,0,0,1-2.69-2.69v-5.74a2.69,2.69,0,0,1,5.38,0V385A2.69,2.69,0,0,1,176.4,387.68Z"/><path class="cls-5" d="M176.4,366.15a2.69,2.69,0,0,1-2.69-2.69V357a2.69,2.69,0,1,1,5.38,0v6.46A2.69,2.69,0,0,1,176.4,366.15Z"/><path class="cls-5" d="M14.75,272H9a2.69,2.69,0,0,1,0-5.38h5.74a2.69,2.69,0,0,1,0,5.38Z"/><path class="cls-5" d="M37,272H30.54a2.69,2.69,0,0,1,0-5.38H37A2.69,2.69,0,0,1,37,272Z"/><path class="cls-5" d="M22.83,286.13a2.69,2.69,0,0,1-2.69-2.69V277.7a2.69,2.69,0,1,1,5.38,0v5.74A2.69,2.69,0,0,1,22.83,286.13Z"/><path class="cls-5" d="M22.83,264.6a2.69,2.69,0,0,1-2.69-2.69v-6.46a2.69,2.69,0,0,1,5.38,0v6.46A2.69,2.69,0,0,1,22.83,264.6Z"/><path class="cls-6" d="M324,284.49a8.72,8.72,0,1,1,8.72-8.72A8.73,8.73,0,0,1,324,284.49Zm0-12.06a3.34,3.34,0,1,0,3.34,3.34A3.34,3.34,0,0,0,324,272.43Z"/><path class="cls-2" d="M316.06,107.24a8.72,8.72,0,1,1,8.72-8.72A8.73,8.73,0,0,1,316.06,107.24Zm0-12.06a3.34,3.34,0,1,0,3.34,3.34A3.34,3.34,0,0,0,316.06,95.18Z"/><path class="cls-2" d="M107.09,116a8.72,8.72,0,1,1,8.72-8.72A8.73,8.73,0,0,1,107.09,116Zm0-12.06a3.34,3.34,0,1,0,3.34,3.34A3.34,3.34,0,0,0,107.09,103.9Z"/></g><path class="cls-7" d="M95.68,203.68l-.32,0-17.95-2.15a2.69,2.69,0,0,1,.64-5.34L96,198.31a2.69,2.69,0,0,1-.32,5.36Z"/><path class="cls-1" d="M172.78,266.16a2.85,2.85,0,0,1-1.86-.69l-39.15-33.61a2.86,2.86,0,0,1-.35-4l16-19.49a2.86,2.86,0,0,1,4.08-.34l20.26,17.66,94.88-96.23a2.8,2.8,0,0,1,2-.81h0a2.82,2.82,0,0,1,2,.79l17.13,16.95a2.84,2.84,0,0,1,0,4l-113,114.89A2.84,2.84,0,0,1,172.78,266.16Z"/><path class="cls-1" d="M148.6,302.35A83.3,83.3,0,1,1,215.91,150a1.59,1.59,0,1,1-1.28,2.9,80.11,80.11,0,1,0,45.95,56.37,1.59,1.59,0,0,1,3.1-.67A83.27,83.27,0,0,1,148.6,302.35Z"/></svg>