<svg id="Layer_1" data-name="Layer 1" xmlns="http://www.w3.org/2000/svg" viewBox="0 0 16.27 16.27"><defs><style>.cls-1{fill:#919497;}</style></defs><title>Untitled-3</title><path class="cls-1" d="M8.13,16.27a8.13,8.13,0,1,1,8.13-8.13A8.14,8.14,0,0,1,8.13,16.27Zm0-15A6.86,6.86,0,1,0,15,8.13,6.87,6.87,0,0,0,8.13,1.28Z"/><path class="cls-1" d="M8.18,3.59c1.69,0,2.91.83,2.91,2.48,0,2.51-2.47,2.5-2.47,4.75h-1c0-2.56,2.3-2.47,2.3-4.59,0-1.06-.79-1.59-1.89-1.59A1.71,1.71,0,0,0,6.15,6.35l-1,0A2.72,2.72,0,0,1,8.18,3.59Zm.5,8.49a.57.57,0,1,1-.56-.59A.57.57,0,0,1,8.68,12.08Z"/></svg>