<svg id="Layer_1" data-name="Layer 1" xmlns="http://www.w3.org/2000/svg" viewBox="0 0 56.52 70"><defs><style>.cls-1{fill:#fff;}</style></defs><title>Untitled-3</title><path class="cls-1" d="M52.19,0H4.33A4.33,4.33,0,0,0,0,4.34V65.67A4.33,4.33,0,0,0,4.33,70H52.19a4.33,4.33,0,0,0,4.34-4.33V4.34A4.33,4.33,0,0,0,52.19,0ZM7.5,6.92a1,1,0,0,1,1-1h8.17a1,1,0,0,1,1,1v.31l-1,.8-.11.08-.91.71-2.2,1.73-.82-1-.23-.28a1,1,0,1,0-1.55,1.31l1.68,2a1,1,0,0,0,1.4.14l1.72-1.35,1-.8,1-.8v5.28a1,1,0,0,1-1,1H8.51a1,1,0,0,1-1-1Zm0,12a1,1,0,0,1,1-1h8.17a1,1,0,0,1,1,1v8.17a1,1,0,0,1-1,1H8.51a1,1,0,0,1-1-1Zm0,20.17V30.92a1,1,0,0,1,1-1h8.17a1,1,0,0,1,1,1v.31l-1,.8-.11.08-.91.71-2.2,1.73-.82-1-.23-.28a1,1,0,1,0-1.55,1.31l1.68,2a1,1,0,0,0,1.4.14l1.72-1.35,1-.8,1-.8v5.28a1,1,0,0,1-1,1H8.51A1,1,0,0,1,7.5,39.09Zm16.43,21a1.48,1.48,0,0,1-1.47,1.47H19.21a1.48,1.48,0,0,1-1.47-1.47V52.91a1.48,1.48,0,0,1,1.47-1.47h3.25a1.48,1.48,0,0,1,1.47,1.47Zm14.41-4.68a3,3,0,0,1-.43,1.69,3.13,3.13,0,0,1-.08,1.37,3,3,0,0,1-.57,1.14,3.32,3.32,0,0,1-.74,2.25,3.53,3.53,0,0,1-2.78,1.15H32.26a9.26,9.26,0,0,1-1.77-.19c-.63-.13-1.11-.24-1.45-.35l-1.38-.45a7.7,7.7,0,0,0-1.56-.46,1.5,1.5,0,0,1-1-.43,1.43,1.43,0,0,1-.44-1V52.9a1.42,1.42,0,0,1,.42-1,1.5,1.5,0,0,1,.87-.44,2.86,2.86,0,0,0,.46-.43c.37-.41.74-.85,1.1-1.32a18,18,0,0,1,1.2-1.43,1,1,0,0,0,.19-.31,2.93,2.93,0,0,0,.16-.43q.05-.2.15-.66c.05-.29.1-.54.15-.71a4.08,4.08,0,0,1,.27-.72,2.72,2.72,0,0,1,.54-.78,1.45,1.45,0,0,1,1-.43,4.1,4.1,0,0,1,1.14.15,3.09,3.09,0,0,1,.89.39,2.33,2.33,0,0,1,.66.67,3.41,3.41,0,0,1,.35.65,3.5,3.5,0,0,1,.18.72c0,.26.06.46.06.59s0,.27,0,.47a4.22,4.22,0,0,1-.13,1,5.54,5.54,0,0,1-.25.78l-.15.31h1.94a2.95,2.95,0,0,1,2.92,2.92,3.22,3.22,0,0,1-.54,1.83A3,3,0,0,1,38.34,55.45Zm9.68-18H21.48a1,1,0,1,1,0-2H48a1,1,0,0,1,0,2ZM48,25.3H21.48a1,1,0,1,1,0-2H48a1,1,0,0,1,0,2Zm0-12.15H21.48a1,1,0,1,1,0-2H48a1,1,0,0,1,0,2Z"/><path class="cls-1" d="M20.25,58.07a.89.89,0,1,0,1.52.62.87.87,0,0,0-.26-.62A.91.91,0,0,0,20.25,58.07Z"/></svg>