<svg id="Layer_1" data-name="Layer 1" xmlns="http://www.w3.org/2000/svg" viewBox="0 0 66.39 80.63"><defs><style>.cls-1{fill:#0373bb;}</style></defs><title>Untitled-3</title><polygon class="cls-1" points="9.43 76.41 9.43 7.78 47.44 7.78 47.69 7.78 47.69 4.06 4.06 4.06 4.06 63.82 4.06 66.48 4.06 76.41 7.39 76.41 9.43 76.41"/><polygon class="cls-1" points="43.89 4.22 5.88 4.22 5.88 72.86 4.06 72.86 4.06 75.91 8.93 75.91 8.93 7.28 47.18 7.28 47.13 4.06 44.13 4.06 44.13 4.22 43.89 4.22"/><polygon class="cls-1" points="44.12 3.06 44.07 0 0 0 0 60.27 0 62.92 0 72.86 3.06 72.86 3.06 3.06 44.12 3.06"/><path class="cls-1" d="M10.92,9.27V80.63H66.39V29.71H47.82A1.87,1.87,0,0,1,46,27.84V9.27ZM22.1,25.95H35.34a1.12,1.12,0,0,1,0,2.24H22.1a1.12,1.12,0,1,1,0-2.24Zm0,23.84H55.21a1.12,1.12,0,0,1,0,2.24H22.1a1.12,1.12,0,1,1,0-2.24ZM21,43a1.12,1.12,0,0,1,1.12-1.12H55.21a1.12,1.12,0,0,1,0,2.24H22.1A1.12,1.12,0,0,1,21,43ZM22.1,57.29H55.21a1.12,1.12,0,1,1,0,2.24H22.1a1.12,1.12,0,1,1,0-2.24ZM16.26,72.8a1.66,1.66,0,0,1,1.09-.89.38.38,0,0,1,.42.32.37.37,0,0,1-.32.42c-.21,0-.4.3-.55.54a2.48,2.48,0,0,0-.5,1.88.55.55,0,0,0,.17.27c.16.11.46,0,.67-.12a4.35,4.35,0,0,0,.8-.78,4.73,4.73,0,0,1,1-.94,1.06,1.06,0,0,1,.53-.19.93.93,0,0,1,.83.53,1.43,1.43,0,0,1,.13.36l.1,0c1.35-.54,5.55-.38,6.57-.3a.37.37,0,1,1-.06.74c-1.38-.12-5.14-.19-6.17.23a1.33,1.33,0,0,1-.83.14.37.37,0,0,1-.28-.32,1.42,1.42,0,0,0-.1-.47.22.22,0,0,0-.15-.13.41.41,0,0,0-.16.07,4.09,4.09,0,0,0-.85.8,5,5,0,0,1-1,.91,1.68,1.68,0,0,1-.9.3,1,1,0,0,1-.61-.19,1.25,1.25,0,0,1-.45-.65A3.11,3.11,0,0,1,16.26,72.8Zm41.53,1.86a17.12,17.12,0,0,0,3.62,0,.37.37,0,1,1,.14.73,17.39,17.39,0,0,1-3.81,0l-1.61-.1a4.93,4.93,0,0,1-.21.56,2,2,0,0,1-.37.54,1.15,1.15,0,0,1-.14.15,1.32,1.32,0,0,1-.8.25,2.58,2.58,0,0,1-.9-.19,3.17,3.17,0,0,1-.45-.22,1.48,1.48,0,0,1-.61-.6,1.64,1.64,0,0,1-.14-1,2.48,2.48,0,0,1,.82-1.58,8.56,8.56,0,0,1-.14-2.32,1.54,1.54,0,0,1,.31-.92,1.26,1.26,0,0,1,1.72-.08A2.58,2.58,0,0,1,56,71.26a7.4,7.4,0,0,1,.31,3.31ZM55.21,33.9a1.12,1.12,0,0,1,0,2.24H22.1a1.12,1.12,0,1,1,0-2.24Z"/><polygon class="cls-1" points="47.69 27.97 63.83 27.97 66.39 27.97 63.83 25.41 47.69 9.27 47.69 27.97"/><path class="cls-1" d="M54.75,70.53c-.19-.15-.54-.2-.68,0a.93.93,0,0,0-.13.5A7.8,7.8,0,0,0,54,72.9a1.58,1.58,0,0,1,.37,0h0a1,1,0,0,1,.85.39,1.07,1.07,0,0,1-.13,1.31h.43a6.6,6.6,0,0,0-.27-3.07A1.93,1.93,0,0,0,54.75,70.53Z"/><path class="cls-1" d="M54.12,75.38a.37.37,0,0,1-.36-.61l0,0a.37.37,0,0,1-.1-.15c-.06-.15-.11-.31-.16-.46a1.82,1.82,0,0,0-.3.8,1,1,0,0,0,.06.54,1.23,1.23,0,0,0,.66.46,1.15,1.15,0,0,0,1,0,1.05,1.05,0,0,0,.28-.41l.11-.27h0A6.82,6.82,0,0,0,54.12,75.38Z"/><path class="cls-1" d="M54.66,73.69a.35.35,0,0,0-.26-.09.85.85,0,0,0-.22,0q.08.31.19.61l.15-.14C54.65,74,54.72,73.77,54.66,73.69Z"/></svg>