<?xml version="1.0" encoding="utf-8"?>
<!-- Generator: Adobe Illustrator 21.0.0, SVG Export Plug-In . SVG Version: 6.00 Build 0)  -->
<svg version="1.1" id="Layer_1" xmlns="http://www.w3.org/2000/svg" xmlns:xlink="http://www.w3.org/1999/xlink" x="0px" y="0px"
	 viewBox="0 0 55.1 55.1" style="enable-background:new 0 0 55.1 55.1;" xml:space="preserve">
<style type="text/css">
	.st0{fill:#00B2A9;}
	.st1{fill:#FFFFFF;}
	.st2{fill:#963CBD;}
	.st3{fill:#ED8B00;}
	.st4{fill:#2C3E50;}
	.st5{fill:none;stroke:#0373BB;stroke-miterlimit:10;}
	.st6{fill:#8E99A8;}
	.st7{fill:#00B1A8;}
	.st8{fill:#001871;}
	.st9{fill:#418FDE;}
	.st10{fill:#FFB40F;}
	.st11{opacity:0.85;}
	.st12{fill:none;stroke:#6D6E71;stroke-linecap:round;stroke-linejoin:round;}
	.st13{fill:#0373BB;}
	.st14{fill:#919396;}
	.st15{fill:#0373B9;}
	.st16{fill:#A7A9AC;}
	.st17{fill:#F4F4F4;}
	.st18{opacity:0.1;clip-path:url(#SVGID_2_);}
	.st19{fill:#606060;}
</style>
<g>
	<path class="st14" d="M55.1,26.3c-0.1-0.4,0-0.7,0-1.1c0-1-0.1-2.1-0.3-3.1c-0.6-3.1-1.7-5.9-3.3-8.6C49.9,11,48,8.8,45.8,6.8
		c-1.9-1.7-4-3.1-6.2-4.2C38.2,2,36.8,1.4,35.3,1c-1.8-0.5-3.6-0.9-5.5-0.9c-0.3,0-0.7,0-1,0c-0.8,0-1.6,0-2.4,0c-0.3,0.1-0.7,0-1,0
		c-1.4,0-2.7,0.2-4.1,0.6c-3.5,0.9-6.7,2.4-9.7,4.5C9.7,6.4,8,8,6.5,9.7c-1.5,1.7-2.7,3.5-3.7,5.5c-0.8,1.6-1.4,3.2-1.9,4.8
		C0.4,21.8,0,23.5,0,25.3c0,0.3,0,0.6,0,0.9c0,0.8,0,1.7,0,2.5c0,0.4,0,0.8,0.1,1.3c0,0.5,0,1.1,0.1,1.6c0.3,1.8,0.7,3.6,1.4,5.3
		c0.8,2.1,1.8,4.1,3.1,6c1.4,2.1,3.1,4,5,5.7c1.7,1.5,3.7,2.8,5.7,3.8c1.4,0.7,2.9,1.3,4.4,1.8c1.8,0.5,3.6,0.9,5.5,0.9
		c0.3,0,0.7,0,1,0c0.8,0,1.6,0,2.4,0c0.4,0,0.8,0,1.3-0.1c0.5,0,1,0,1.6-0.1c1.7-0.2,3.3-0.7,4.8-1.2c1.8-0.6,3.4-1.4,5-2.3
		c1.7-1,3.3-2.2,4.7-3.5c1.2-1.1,2.3-2.3,3.3-3.5c1.2-1.6,2.2-3.2,3.1-5c0.6-1.3,1.2-2.7,1.6-4.1c0.5-1.8,0.9-3.6,0.9-5.5
		c0-0.3,0-0.7,0-1.1C55.1,27.9,55.1,27.1,55.1,26.3z M50,28.5c-0.1,0.3,0,0.6,0,0.9c0,1.5-0.3,3-0.8,4.4c-0.3,1.2-0.8,2.3-1.3,3.3
		c-0.7,1.5-1.5,2.8-2.5,4.1c-0.8,1-1.7,2-2.7,2.9c-1.2,1.1-2.5,2-3.9,2.9c-1.3,0.8-2.7,1.4-4.1,1.9c-1.3,0.4-2.6,0.8-3.9,1
		c-0.4,0.1-0.8,0.1-1.3,0.1c-0.3,0-0.7,0-1,0c-0.7,0-1.3,0-2,0c-0.3-0.1-0.6,0-0.8,0c-1.5,0-3-0.3-4.5-0.8c-1.3-0.4-2.5-0.9-3.6-1.4
		c-1.7-0.8-3.3-1.9-4.7-3.1c-1.6-1.4-2.9-2.9-4.1-4.6c-1-1.5-1.9-3.2-2.5-4.9c-0.5-1.4-0.9-2.8-1.1-4.3c-0.1-0.4-0.1-0.9-0.1-1.3
		c0-0.3,0-0.7,0-1c0-0.7,0-1.3,0-2c0.1-0.3,0-0.5,0-0.8c0-1.5,0.3-2.9,0.7-4.3c0.4-1.4,0.9-2.7,1.6-4c0.8-1.6,1.8-3.1,3-4.5
		c1.2-1.4,2.6-2.7,4.1-3.8c2.4-1.7,5-2.9,7.9-3.6c1.1-0.3,2.2-0.4,3.3-0.5c0.3,0,0.6,0,0.9,0c0.7,0,1.3,0,2,0c0.3,0.1,0.6,0,0.9,0
		c1.5,0,3,0.3,4.5,0.8c1.2,0.4,2.3,0.8,3.5,1.4c1.8,0.9,3.5,2,5.1,3.4c1.8,1.6,3.3,3.4,4.6,5.5c1.3,2.2,2.2,4.5,2.7,7
		c0.2,0.8,0.2,1.7,0.3,2.5c0,0.3,0,0.6,0,0.9C50,27.2,50,27.8,50,28.5z"/>
	<path class="st14" d="M41.2,24.6c-0.1,0-0.2,0-0.3,0c-5.7,0-11.4,0-17.1,0c-0.1,0-0.2,0-0.3,0c-0.1,0-0.2,0-0.2-0.1
		c0-0.1,0.1-0.1,0.1-0.2c1.5-1.6,3.1-3.2,4.6-4.7c1.1-1.1,2.2-2.3,3.4-3.4c0.1-0.1,0.2-0.1,0.1-0.2c0-0.1-0.1,0-0.2-0.1
		c-0.1,0-0.2,0-0.3,0c-2.3,0-4.5,0-6.8,0c-0.5,0-0.8,0.1-1.1,0.5c-2,2.1-4,4.2-6,6.3c-1,1.1-2,2.1-3,3.2c-0.5,0.5-1,1-1.4,1.5
		c-0.1,0.2-0.1,0.3,0,0.5c1,1,2,2,2.9,3c0.9,0.9,1.7,1.8,2.6,2.7c1.7,1.8,3.4,3.6,5.1,5.4c0.2,0.2,0.4,0.3,0.7,0.3
		c2.4,0,4.7,0,7.1,0c0.1,0,0.3,0.1,0.4-0.1c0.1-0.1-0.1-0.2-0.2-0.3c-0.8-0.8-1.6-1.6-2.4-2.4c-1.7-1.8-3.5-3.6-5.3-5.4
		c-0.1-0.1-0.3-0.2-0.2-0.3c0.1-0.1,0.3-0.1,0.4-0.1c2.9,0,5.8,0,8.7,0c2.9,0,5.7,0,8.6,0c0.1,0,0.2,0,0.3,0c0.2,0,0.3-0.1,0.3-0.3
		c0-1.8,0-3.6,0-5.4C41.5,24.7,41.4,24.6,41.2,24.6z"/>
</g>
</svg>
