<?xml version="1.0" encoding="utf-8"?>
<!-- Generator: Adobe Illustrator 21.0.0, SVG Export Plug-In . SVG Version: 6.00 Build 0)  -->
<svg version="1.1" id="Layer_1" xmlns="http://www.w3.org/2000/svg" xmlns:xlink="http://www.w3.org/1999/xlink" x="0px" y="0px"
	 viewBox="0 0 32 42.5" style="enable-background:new 0 0 32 42.5;" xml:space="preserve">
<style type="text/css">
	.st0{fill:#00B2A9;}
	.st1{fill:#FFFFFF;}
	.st2{fill:#963CBD;}
	.st3{fill:#ED8B00;}
	.st4{fill:#2C3E50;}
	.st5{fill:none;stroke:#0373BB;stroke-miterlimit:10;}
	.st6{fill:#8E99A8;}
	.st7{fill:#00B1A8;}
	.st8{fill:#001871;}
	.st9{fill:#418FDE;}
	.st10{fill:#FFB40F;}
	.st11{opacity:0.85;}
	.st12{fill:none;stroke:#6D6E71;stroke-linecap:round;stroke-linejoin:round;}
	.st13{fill:#0373BB;}
	.st14{fill:#919396;}
	.st15{fill:#0373B9;}
	.st16{fill:#A7A9AC;}
	.st17{fill:#F4F4F4;}
	.st18{opacity:0.1;clip-path:url(#SVGID_2_);}
	.st19{fill:#606060;}
</style>
<g>
	<g>
		<g>
			<g>
				<g>
					<path class="st16" d="M0,21.2c0-6,0-12,0-18.1c0-0.4,0-0.9,0.1-1.3C0.4,0.8,1.5,0,2.6,0c6.6,0,13.3,0,19.9,0
						c0.8,0,1.4,0.6,1.4,1.4c0,1.7,0,3.4,0,5.1c0,1,0.5,1.5,1.5,1.5c1.7,0,3.3,0,5,0c0.8,0,1.6,0.8,1.6,1.6c0,10,0,20.1,0,30.1
						c0,1.7-1.3,2.9-2.8,2.9c-8.8,0-17.6,0-26.4,0c-1.6,0-2.8-1.1-2.8-2.8C0,33.6,0,27.4,0,21.2z M15.9,12c3.7,0,7.3,0,11,0
						c0.1,0,0.3,0,0.4,0c0.3,0,0.6-0.3,0.6-0.6c0-0.3-0.1-0.6-0.5-0.7c-0.2,0-0.4,0-0.6,0c-7.3,0-14.6,0-21.9,0c-0.2,0-0.3,0-0.5,0
						C4.1,10.8,4,11,4,11.4c0,0.3,0.2,0.6,0.6,0.6c0.1,0,0.2,0,0.4,0C8.6,12,12.3,12,15.9,12z M15.9,16C15.9,16,15.9,16,15.9,16
						c3.7,0,7.4,0,11,0c0.1,0,0.3,0,0.4,0c0.3,0,0.5-0.2,0.6-0.6c0-0.3-0.1-0.6-0.4-0.7c-0.2-0.1-0.3-0.1-0.5-0.1
						c-7.4,0-14.7,0-22.1,0c-0.2,0-0.3,0-0.5,0C4.1,14.8,4,15,4,15.4c0,0.3,0.2,0.6,0.6,0.6c0.1,0,0.2,0,0.4,0
						C8.6,16,12.3,16,15.9,16z M16,20c0.2,0,0.4,0,0.6,0c3.5,0,7.1,0,10.6,0c0.5,0,0.8-0.2,0.8-0.6c0-0.4-0.3-0.7-0.8-0.7
						c-0.1,0-0.1,0-0.2,0c-6.3,0-12.6,0-18.9,0c-1.1,0-2.2,0-3.2,0c-0.5,0-0.8,0.3-0.8,0.7c0,0.4,0.3,0.6,0.8,0.6c0.1,0,0.2,0,0.3,0
						C8.7,20,12.3,20,16,20z M16,24.3c0.2,0,0.4,0,0.6,0c3.5,0,7.1,0,10.6,0c0.5,0,0.8-0.2,0.8-0.6c0-0.4-0.3-0.7-0.8-0.7
						c-0.1,0-0.1,0-0.2,0c-6.3,0-12.6,0-18.9,0c-1.1,0-2.2,0-3.2,0c-0.5,0-0.8,0.3-0.8,0.7c0,0.4,0.3,0.6,0.8,0.6c0.1,0,0.2,0,0.3,0
						C8.7,24.3,12.3,24.3,16,24.3z M16,28.6c0.2,0,0.4,0,0.6,0c3.5,0,7.1,0,10.6,0c0.5,0,0.8-0.2,0.8-0.6c0-0.4-0.3-0.7-0.8-0.7
						c-0.1,0-0.1,0-0.2,0c-6.3,0-12.6,0-18.9,0c-1.1,0-2.2,0-3.2,0c-0.5,0-0.8,0.3-0.8,0.7c0,0.4,0.3,0.6,0.8,0.6c0.1,0,0.2,0,0.3,0
						C8.7,28.6,12.3,28.6,16,28.6z M16,32.9c0.2,0,0.4,0,0.6,0c3.5,0,7.1,0,10.6,0c0.5,0,0.8-0.2,0.8-0.6c0-0.4-0.3-0.7-0.8-0.7
						c-0.1,0-0.1,0-0.2,0c-6.3,0-12.6,0-18.9,0c-1.1,0-2.2,0-3.2,0c-0.5,0-0.8,0.3-0.8,0.7c0,0.4,0.3,0.6,0.8,0.6c0.1,0,0.2,0,0.3,0
						C8.7,32.9,12.3,32.9,16,32.9z M16,37.2c0.2,0,0.4,0,0.6,0c3.5,0,7.1,0,10.6,0c0.5,0,0.8-0.2,0.8-0.6c0-0.4-0.3-0.7-0.8-0.7
						c-0.1,0-0.1,0-0.2,0c-6.3,0-12.6,0-18.9,0c-1.1,0-2.2,0-3.2,0c-0.5,0-0.8,0.3-0.8,0.7c0,0.4,0.3,0.6,0.8,0.6c0.1,0,0.2,0,0.3,0
						C8.7,37.2,12.3,37.2,16,37.2z M11.9,8L11.9,8c0.3,0,0.6,0,0.8,0c2.1,0,4.3,0,6.4,0c0.5,0,0.8-0.3,0.8-0.7
						c0-0.4-0.3-0.7-0.8-0.7c-0.1,0-0.1,0-0.2,0c-4.6,0-9.3,0-13.9,0c-0.2,0-0.4,0-0.6,0.1C4.1,6.8,4,7.1,4,7.4C4,7.7,4.2,7.9,4.6,8
						c0.1,0,0.2,0,0.4,0C7.3,8,9.6,8,11.9,8z"/>
				</g>
				<g>
					<path class="st16" d="M28.1,6.6c-0.7,0-1.4,0-2,0c-0.6,0-0.8-0.2-0.8-0.8c0-1.4,0-2.7,0-4.1c0-0.2,0.1-0.3,0.1-0.5
						c0.1,0.1,0.3,0.1,0.4,0.3c1.5,1.5,3,3,4.5,4.5c0.1,0.1,0.2,0.3,0.3,0.4c-0.2,0-0.3,0.1-0.5,0.1C29.5,6.7,28.8,6.6,28.1,6.6
						L28.1,6.6z"/>
				</g>
			</g>
		</g>
	</g>
</g>
</svg>
