<?xml version="1.0" encoding="utf-8"?>
<!-- Generator: Adobe Illustrator 21.0.0, SVG Export Plug-In . SVG Version: 6.00 Build 0)  -->
<svg version="1.1" id="Layer_1" xmlns="http://www.w3.org/2000/svg" xmlns:xlink="http://www.w3.org/1999/xlink" x="0px" y="0px"
	 viewBox="0 0 100 100" style="enable-background:new 0 0 100 100;" xml:space="preserve">
<style type="text/css">
	.st0{fill:#FFB60F;}
	.st1{fill:#FFFFFF;}
</style>
<g>
	<g>
		<path class="st0" d="M50,100L50,100C22.5,100,0,77.5,0,50v0C0,22.5,22.5,0,50,0h0c27.5,0,50,22.5,50,50v0
			C100,77.5,77.5,100,50,100z"/>
	</g>
	<g>
		<path class="st1" d="M48.8,72.4c-4.1,0-8.1-0.4-12.1-1c-1.7-0.3-3.4-0.5-5.1-0.8c-0.6-0.1-1.2-0.3-1.8-0.6c-0.6-0.3-0.9-0.8-1-1.5
			c-0.2-3.8,2-9.2,6.7-11.3c2.2-1,4.4-1.8,6.6-2.8c0.4-0.2,0.4,0.1,0.4,0.3c0.3,1.5,0.6,2.9,1,4.4c1,3.8,2.7,7.2,5.1,10.3
			c0.7,0.9,0.9,0.9,1.5,0c3-3.7,4.7-8,5.7-12.7c0.2-0.7,0.3-1.4,0.5-2.1c0.1-0.3,0.1-0.4,0.4-0.2c2,1,4.1,1.7,6.1,2.6
			c4.2,1.9,6.3,5.2,7,9.6c0.1,0.6,0.1,1.2,0.1,1.8c0,0.9-0.4,1.4-1.2,1.7c-0.8,0.4-1.7,0.5-2.6,0.6c-3.3,0.6-6.6,1-9.9,1.3
			C53.7,72.3,51.2,72.4,48.8,72.4z"/>
		<path class="st1" d="M59,42.9c0,2-0.8,3.8-2.1,5.3c-0.3,0.3-0.5,0.6-0.6,1c-0.5,1.6-1.3,2.9-2.6,4c-2.6,2.3-6.2,2.3-8.8,0
			c-1.3-1.1-2.1-2.5-2.6-4.1c-0.1-0.3-0.2-0.5-0.4-0.7c-1.5-1.8-2.4-3.8-2.1-6.2c0.1-0.4,0.1-0.9,0.6-1c0.2-0.1,0.2-0.3,0.2-0.5
			c0-1.2,0-2.4,0-3.6c0-1.4,0.4-2.7,1.1-3.9c0.9-1.6,2.3-2.7,4.1-3.2c2.3-0.7,4.7-0.7,7,0c3,1,4.6,3.2,5.1,6.2
			c0.2,1.5,0.1,3,0.1,4.4c0,0.3,0,0.5,0.4,0.7c0.3,0.1,0.4,0.5,0.5,0.8C58.9,42.2,58.9,42.5,59,42.9z"/>
		<path class="st1" d="M38.2,41.1c0,1.4,0,2.8,0,4.2c0,0.7-0.3,1-1,1c-0.6,0-1.2,0-1.8-0.4c-0.6-0.4-0.9-0.9-0.9-1.6
			c0-2.1,0-4.1,0-6.2c0-1,0.6-1.7,1.7-1.9c0.5-0.1,0.6-0.3,0.7-0.7c0.6-3.3,2.5-5.7,5.2-7.4c5.4-3.4,12.9-2.5,17.2,2.2
			c1.4,1.6,2.3,3.4,2.6,5.5c0,0.3,0.1,0.4,0.4,0.5c1.3,0.3,1.9,1,1.9,2.3c0,1.8,0,3.7,0,5.5c0,1.3-0.6,2-1.8,2.2
			c-0.3,0.1-0.4,0.2-0.4,0.5c-0.1,0.7-0.1,1.4-0.2,2.1c-0.1,0.3,0,0.6,0.3,0.8c0.8,0.6,1,1.6,0.6,2.5c-0.4,0.9-1.2,1.4-2.2,1.4
			c-0.9,0-1.7-0.7-2-1.5c-0.4-1.1,0.2-2.3,1.3-2.7c0.3-0.1,0.5-0.3,0.5-0.6c0.2-1.1,0.3-2.1,0.3-3.2c0-2.5,0-5,0-7.5
			c0.1-4.1-1.9-7-5.4-8.9c-4.6-2.5-10.7-1.6-14.2,2c-1.8,1.8-2.7,4-2.7,6.6C38.2,38.8,38.2,39.9,38.2,41.1z"/>
		<path class="st1" d="M49.3,61.3c0.2,0,0.4,0,0.6,0c0.9,0,0.9,0,1.1,0.8c0.1,0.3,0.1,0.7,0.2,1c0.4,0.9,0.2,1.8-0.3,2.6
			c-0.5,0.7-0.8,1.5-1.3,2.3c-0.2,0.4-0.3,0.4-0.5,0c-0.6-1.1-1.2-2.1-1.7-3.2c-0.1-0.2-0.1-0.4-0.1-0.6c0.2-0.8,0.4-1.5,0.5-2.3
			c0.1-0.4,0.3-0.5,0.7-0.5C48.8,61.3,49,61.3,49.3,61.3L49.3,61.3z"/>
		<path class="st1" d="M49.4,57.2c0.5,0,1,0,1.5,0c0.5,0,0.6,0.1,0.5,0.6c-0.1,0.8-0.3,1.5-0.4,2.3c-0.1,0.3-0.2,0.5-0.6,0.5
			c-0.7,0-1.3,0-2,0c-0.4,0-0.5-0.1-0.6-0.5c-0.1-0.8-0.3-1.5-0.4-2.3c-0.1-0.4,0.1-0.6,0.5-0.6C48.3,57.2,48.8,57.2,49.4,57.2z"/>
	</g>
</g>
</svg>
