<?xml version="1.0" encoding="utf-8"?>
<!-- Generator: Adobe Illustrator 21.1.0, SVG Export Plug-In . SVG Version: 6.00 Build 0)  -->
<svg version="1.1" id="Layer_1" xmlns="http://www.w3.org/2000/svg" xmlns:xlink="http://www.w3.org/1999/xlink" x="0px" y="0px"
	 viewBox="0 0 45.6 39.9" style="enable-background:new 0 0 45.6 39.9;" xml:space="preserve">
<style type="text/css">
	.st0{fill:#919396;}
</style>
<g>
	<path class="st0" d="M27.6,25.4c-3.3,0-6.5,0-9.7,0c0,4.5,0,10,0,14.5c-3.9,0-7.7,0-11.6,0c0-0.2,0-0.4,0-0.6c0-13.3,0-8.6,0-21.9
		c0-0.5,0.1-0.7,0.5-1c2.4-1.6,4.8-3.2,7.2-4.8c2.8-1.9,5.6-3.8,8.4-5.6c0.2-0.1,0.5-0.1,0.6,0c2.5,1.7,5.1,3.4,7.6,5.1
		c2.7,1.8,5.4,3.6,8.1,5.4c0.3,0.2,0.5,0.4,0.5,0.8c0,13.4,0,8.7,0,22.1c0,0.1,0,0.3,0,0.5c-3.8,0-7.7,0-11.6,0
		C27.6,35.4,27.6,29.9,27.6,25.4z M25.7,17.5c-1.9,0-3.7,0-5.5,0c-0.1,0-0.3,0.2-0.3,0.4c0,1.7,0,3.4,0,5c0,0.3,0.1,0.4,0.4,0.4
		c1.7,0,3.5,0,5.2,0c0.1,0,0.1,0,0.2-0.1C25.7,21.4,25.7,19.5,25.7,17.5z M28.6,17.5c0,0.1-0.1,0.2-0.1,0.2c0,1.7,0,3.5,0,5.2
		c0,0.3,0.2,0.4,0.5,0.4c1.6,0,3.3,0,4.9,0c0.3,0,0.5-0.1,0.5-0.4c0-1.7,0-3.4,0-5c0-0.3-0.1-0.4-0.4-0.4
		C32.2,17.5,30.4,17.5,28.6,17.5z M17,23.3c0-1.8,0-3.7,0-5.5c0-0.4-0.3-0.3-0.5-0.3c-1.6,0-3.2,0-4.8,0c-0.5,0-0.6,0.2-0.6,0.6
		c0,1.6,0,3.1,0,4.7c0,0.4,0.1,0.6,0.5,0.6c1.6,0,3.2,0,4.8,0C16.6,23.4,16.8,23.4,17,23.3z"/>
	<path class="st0" d="M0,15.1c0.8-0.6,1.7-1.1,2.5-1.7c3-2,6-4,9.1-6c3-2,5.9-4,8.9-5.9c0.6-0.4,1.2-0.8,1.8-1.2
		c0.3-0.3,0.6-0.3,1,0c2.3,1.6,4.6,3.1,7,4.7c3,2,6.1,4,9.1,6.1c2.1,1.4,4.1,2.8,6.3,4.2c-0.2,0-0.4,0.1-0.5,0.1c-1.5,0-3,0-4.4,0
		c-0.2,0-0.5-0.1-0.7-0.2c-4.8-3.2-9.5-6.4-14.3-9.6c-0.6-0.4-1.3-0.8-1.9-1.3c-0.7-0.5-1.5-0.4-2.2,0c-4.7,3.2-9.4,6.3-14.1,9.4
		c-0.4,0.3-0.8,0.5-1.2,0.8c-0.8,0.6-1.6,0.9-2.6,0.8c-1.3-0.1-2.5,0-3.8,0C0,15.1,0,15.1,0,15.1z"/>
</g>
</svg>
