<svg id="Layer_1" data-name="Layer 1" xmlns="http://www.w3.org/2000/svg" viewBox="0 0 310.66 258.72"><defs><style>.cls-1{fill:#606060;}</style></defs><title>Untitled-1</title><path class="cls-1" d="M303.84,71.78H229.38V96H254v16.51H229.38v16.13h24.38v16.26H229.38v16.26h24.38v16.26H229.38V193.7h24.38V210H229.38v24.38h74.47a7,7,0,0,0,6.81-7.07V78.85A7,7,0,0,0,303.84,71.78ZM294.4,210H261.89V193.7H294.4Zm0-32.51H261.89V161.19H294.4Zm0-32.51H261.89V128.68H294.4Zm0-32.51H261.89V96.17H294.4Z"/><path class="cls-1" d="M99.33,70.88V235.25l121.92,23.47V47.4Zm77.12,123.47-14.18-26.81A23.78,23.78,0,0,1,160.6,162h-.22a41.73,41.73,0,0,1-1.9,5.75l-14.23,26.58h-22.1l26.24-41.16-24-41.17h22.56l11.77,24.68a43.12,43.12,0,0,1,2.47,6.94h.23q.69-2.41,2.58-7.18L177.08,112h20.66l-24.68,40.82,25.38,41.51Z"/><path class="cls-1" d="M241.61,0V59h59V0Zm4.92,54.12V4.92h49.2v49.2"/><path class="cls-1" d="M41.6,242.69c23,0,41.6-11.2,41.6-25V203.59c0,13.83-18.63,22.42-41.6,22.42S0,217.42,0,203.59v14.08C0,231.49,18.63,242.69,41.6,242.69Z"/><path class="cls-1" d="M41.6,217.67c23,0,41.6-11.2,41.6-25V178.57C83.19,192.4,64.56,201,41.6,201S0,192.4,0,178.57v14.08C0,206.47,18.63,217.67,41.6,217.67Z"/><path class="cls-1" d="M41.6,192.65c23,0,41.6-11.2,41.6-25v-8.34c0-13.82-18.63-25-41.6-25S0,145.47,0,159.29v8.34C0,181.45,18.63,192.65,41.6,192.65Z"/><path class="cls-1" d="M77.32,52.34l-18.4-18.4H18v75.68H77.32V52.34ZM57.14,54.13V36.47L74.79,54.13ZM29.39,50.34H42a1.26,1.26,0,1,1,0,2.52H29.39a1.26,1.26,0,0,1,0-2.52ZM60.92,72.85H29.39a1.26,1.26,0,0,1,0-2.52H60.92a1.26,1.26,0,0,1,0,2.52Zm0,10H29.39a1.26,1.26,0,0,1,0-2.52H60.92a1.26,1.26,0,0,1,0,2.52Zm0,10H29.39a1.26,1.26,0,0,1,0-2.52H60.92a1.26,1.26,0,0,1,0,2.52Zm0,10H29.39a1.26,1.26,0,0,1,0-2.52H60.92a1.26,1.26,0,0,1,0,2.52Zm0-40H29.39a1.26,1.26,0,0,1,0-2.52H60.92a1.26,1.26,0,0,1,0,2.52Z"/><polygon class="cls-1" points="273.81 45.45 273.81 23.84 285.31 35.35 289.1 31.56 271.13 13.59 253.16 31.56 256.95 35.35 268.45 23.84 268.45 45.45 273.81 45.45"/></svg>