<?xml version="1.0" encoding="utf-8"?>
<!-- Generator: Adobe Illustrator 21.0.0, SVG Export Plug-In . SVG Version: 6.00 Build 0)  -->
<svg version="1.1" id="Layer_1" xmlns="http://www.w3.org/2000/svg" xmlns:xlink="http://www.w3.org/1999/xlink" x="0px" y="0px"
	 viewBox="0 0 120 120" style="enable-background:new 0 0 120 120;" xml:space="preserve">
<style type="text/css">
	.st0{fill:#ED8B00;}
	.st1{fill:#FFFFFF;}
</style>
<g>
	<path class="st0" d="M60,120L60,120C27,120,0,93,0,60v0C0,27,27,0,60,0h0c33,0,60,27,60,60v0C120,93,93,120,60,120z"/>
	<g>
		<path class="st1" d="M53.7,69.4c-0.6,0-1.2,0-1.8,0c0,0,0,0,0,0c-0.6,0-1.3,0-1.9,0c-1.1,0.1-1.8,0.8-1.9,2
			c-0.1,1.3,0.5,2.2,1.6,2.4c1.3,0.2,2.4-0.3,3-1.5c0.4-0.8,0.8-1.7,1.3-2.5C54.3,69.5,54.1,69.4,53.7,69.4z"/>
		<path class="st1" d="M52.6,54.9c0,1.1,1.2,2.3,2.3,2.3c1.2,0,2.3-1.2,2.3-2.4c0-1.2-1.2-2.3-2.4-2.3
			C53.8,52.5,52.6,53.8,52.6,54.9z"/>
		<path class="st1" d="M64.3,57.2c1.2,0,2.3-1.2,2.3-2.4c0-1.2-1.2-2.4-2.3-2.3c-1.1,0-2.3,1.2-2.3,2.3C62,56,63.2,57.2,64.3,57.2z"
			/>
		<path class="st1" d="M59.7,33.7c-15,0-26.8,11.8-26.8,26.7c0,14.9,11.8,26.8,26.5,26.8c15.2,0,27-11.7,27-26.9
			C86.4,45.6,74.5,33.7,59.7,33.7z M65.1,42.5c0.6-0.1,1.1,0.2,1.2,0.8c0.6,2.3,2.4,3.1,4.4,3.6c0.4,0.1,0.8,0.2,1,0.5
			c0.2,0.4,0.3,0.7,0.1,1.1c-0.3,0.5-0.7,0.6-1.2,0.6c-0.2,0-0.3,0-0.5-0.1c-2.4-0.7-4.2-2-5.6-4.1c-0.3-0.4-0.4-0.8-0.4-1.3
			C64.1,43.1,64.5,42.5,65.1,42.5z M58.5,52.7c0.8,1.1,1.6,1.2,2.3,0c1.3-2,3.9-2.7,6.1-1.7c2.1,0.9,3.1,3.3,2.5,5.7
			c-0.6,2.3-2.7,3.7-5.1,3.4c-1.5-0.1-2.7-0.9-3.5-2.2c-0.7-1.1-1.6-1.1-2.3,0c-1.9,2.9-6.2,2.9-8,0.1c-0.5-0.8-0.8-1.7-0.8-2.8
			c0-2.2,1.3-3.9,3.3-4.5C55.2,50.1,57.3,50.8,58.5,52.7z M48.4,46.9c1.6-0.2,2.8-1,3.8-2.1c0.4-0.4,0.6-0.8,0.7-1.3
			c0.1-0.7,0.7-1.2,1.3-1c0.6,0.1,1,0.7,0.9,1.4c-0.1,0.4-0.2,0.8-0.5,1.2c-1.3,2-3.2,3.3-5.4,4c-0.1,0-0.2,0.1-0.3,0.1
			c-0.1,0-0.2,0-0.3,0c-0.7,0-1.2-0.4-1.2-1C47.3,47.6,47.7,47,48.4,46.9z M73.5,72.1c-0.2,2.4-2.7,4.3-5.1,4
			c-1.7-0.2-2.9-1.1-3.6-2.6c-0.4-0.7-0.7-1.4-1.1-2.1c-0.5-1-1.4-1.6-2.4-1.8c-0.8-0.2-1.6-0.2-2.4-0.1c-1.6,0.1-2.7,0.9-3.3,2.4
			c-0.4,0.9-0.7,1.7-1.3,2.5c-1.2,1.5-3.5,2.2-5.3,1.5c-1.8-0.7-3-2.6-2.9-4.5c0.1-1.8,1.6-3.7,3.5-4.1c0.3-0.1,0.7-0.1,1-0.1
			c3.1,0,6.2,0,9.3,0c3.1,0,6.2,0,9.3,0C71.6,67.2,73.7,69.4,73.5,72.1z"/>
		<path class="st1" d="M69.3,69.4c-0.6,0-1.2,0-1.7,0c0,0,0,0,0,0c-0.7,0-1.3,0-2,0c-0.3,0-0.5,0.1-0.3,0.5c0.5,0.9,0.9,1.8,1.4,2.7
			c0.6,1.1,1.8,1.6,3.1,1.2c1-0.3,1.5-1.2,1.4-2.6C71.1,70.1,70.4,69.4,69.3,69.4z"/>
	</g>
</g>
</svg>
