<svg id="Layer_1" data-name="Layer 1" xmlns="http://www.w3.org/2000/svg" viewBox="0 0 512 512"><defs><style>.cls-1{fill:#237ba0;}</style></defs><title>icons</title><path class="cls-1" d="M370.74,132.14a17.43,17.43,0,0,1-17.45-17.43V17.43a17.45,17.45,0,0,1,34.91,0v97.28A17.43,17.43,0,0,1,370.74,132.14Z"/><path class="cls-1" d="M141.28,132.14a17.43,17.43,0,0,1-17.45-17.43V17.43a17.45,17.45,0,0,1,34.91,0v97.28A17.43,17.43,0,0,1,141.28,132.14Z"/><path class="cls-1" d="M480.58,205.17H31.42a17.43,17.43,0,1,1,0-34.86H480.58a17.43,17.43,0,1,1,0,34.86Z"/><path class="cls-1" d="M446.14,512H65.86A52,52,0,0,1,14,460.15V100.54a52,52,0,0,1,51.9-51.9H446.14a52,52,0,0,1,51.9,51.9V460.15A52,52,0,0,1,446.14,512ZM65.86,83.5a17,17,0,0,0-17,17V460.15a17,17,0,0,0,17,17H446.14a17,17,0,0,0,17-17V100.54a17,17,0,0,0-17-17Z"/></svg>