<svg id="Layer_1" data-name="Layer 1" xmlns="http://www.w3.org/2000/svg" viewBox="0 0 512 512"><defs><style>.cls-1{fill:#1d1d1b;}</style></defs><title>icons</title><path class="cls-1" d="M256,512C114.82,512,0,397.18,0,256S114.82,0,256,0,512,114.82,512,256,397.18,512,256,512Zm0-468.27C138.95,43.73,43.73,139,43.73,256S138.95,468.27,256,468.27,468.27,373.05,468.27,256,373,43.73,256,43.73Z"/><path class="cls-1" d="M256,354.91,148.6,247.48a21.9,21.9,0,1,1,31-30.9L256,293l76.47-76.41a21.85,21.85,0,0,1,30.9,30.9Z"/></svg>