<svg id="Layer_1" data-name="Layer 1" xmlns="http://www.w3.org/2000/svg" viewBox="0 0 512 512"><defs><style>.cls-1{fill:#e9547c;}</style></defs><title>icons</title><path class="cls-1" d="M256,250c-10.51,0-19-8.94-19-20V20c0-11.06,8.52-20,19-20s19,8.94,19,20V230C275,241.06,266.5,250,256,250Z"/><path class="cls-1" d="M256,512c-122.74,0-222.6-105-222.6-234.18,0-89.94,49.91-173,127.15-211.62a18.74,18.74,0,0,1,25.36,9.5c4.51,10,.48,22-9,26.7-64,32-105.4,100.84-105.4,175.42C71.46,384.85,154.25,472,256,472s184.55-87.15,184.55-194.19c0-76-42.48-145.36-108.22-176.81-9.56-4.58-13.78-16.42-9.45-26.48s15.61-14.58,25.22-9.94c79.28,37.93,130.52,121.62,130.52,213.24C478.61,407,378.73,512,256,512Z"/></svg>