<svg id="Layer_1" data-name="Layer 1" xmlns="http://www.w3.org/2000/svg" viewBox="0 0 512 512"><defs><style>.cls-1{fill:#65a2bd;}</style></defs><title>icons</title><path class="cls-1" d="M168,156H131.9a18.68,18.68,0,0,1,0-37.35H168A18.68,18.68,0,0,1,168,156Z"/><path class="cls-1" d="M168,274.67H131.9a18.68,18.68,0,0,1,0-37.35H168a18.68,18.68,0,0,1,0,37.35Z"/><path class="cls-1" d="M168,393.39H131.9a18.68,18.68,0,0,1,0-37.35H168a18.68,18.68,0,0,1,0,37.35Z"/><path class="cls-1" d="M380.1,156H233.25a18.68,18.68,0,0,1,0-37.35H380.1a18.68,18.68,0,0,1,0,37.35Z"/><path class="cls-1" d="M380.1,274.67H233.25a18.68,18.68,0,0,1,0-37.35H380.1a18.68,18.68,0,0,1,0,37.35Z"/><path class="cls-1" d="M380.1,393.39H233.25a18.68,18.68,0,0,1,0-37.35H380.1a18.68,18.68,0,0,1,0,37.35Z"/><path class="cls-1" d="M429,512H83c-27.35,0-49.6-22.74-49.6-50.75V50.75C33.39,22.74,55.64,0,83,0H429c27.35,0,49.6,22.74,49.6,50.75v410.5C478.61,489.26,456.36,512,429,512ZM83,37.35a13.27,13.27,0,0,0-13,13.41v410.5a13.27,13.27,0,0,0,13,13.41H429a13.27,13.27,0,0,0,13-13.41V50.75a13.27,13.27,0,0,0-13-13.41Z"/></svg>