<svg id="Layer_1" data-name="Layer 1" xmlns="http://www.w3.org/2000/svg" viewBox="0 0 512 512"><defs><style>.cls-1{fill:#65a2bd;}</style></defs><title>icons</title><path class="cls-1" d="M440.23,512H71.63C51,512,38.7,500.53,38.7,481.33V71.27c0-17.05,8.4-27.15,25.68-30.9Q155.95,20.5,247.58.79c9.56-2,19.15-.11,26.26,5.35a29.1,29.1,0,0,1,11.23,23.32q.08,29,0,57.92v84.08l31.08,0c41.2,0,82.34.05,123.5-.16h.2c9.58,0,18.19,3.19,24.26,9,4.2,4,9.2,11.18,9.16,22.56q-.32,104.41-.18,208.82v69.64C473.14,500.54,460.84,512,440.23,512ZM72.84,482.83Zm-.11-3.43H439.1V411.71q0-103.9.18-207.8c-41,.21-82.07.17-123.11.16l-48.07,0c-9.4,0-17-7.3-17-16.3V87.36q0-26.95,0-53.9Q161.75,52.65,72.73,72Z"/><path class="cls-1" d="M221.28,132H197.68a5.55,5.55,0,0,1-5.67-5.43V103.7a5.55,5.55,0,0,1,5.67-5.43h23.59a5.55,5.55,0,0,1,5.67,5.43v22.84A5.55,5.55,0,0,1,221.28,132Zm-17.92-10.87H215.6v-12H203.36Z"/><path class="cls-1" d="M221.38,384.66H197.59a5.55,5.55,0,0,1-5.67-5.43V356.56a5.55,5.55,0,0,1,5.67-5.43h23.78a5.55,5.55,0,0,1,5.67,5.43v22.67A5.55,5.55,0,0,1,221.38,384.66ZM203.27,373.8H215.7V362H203.27Z"/><path class="cls-1" d="M221.37,258.38H197.79a5.55,5.55,0,0,1-5.67-5.43V230.09a5.55,5.55,0,0,1,5.67-5.43h23.58a5.55,5.55,0,0,1,5.67,5.43v22.85A5.55,5.55,0,0,1,221.37,258.38Zm-17.9-10.87h12.23v-12H203.46Z"/><path class="cls-1" d="M221.19,216.23H197.71A5.55,5.55,0,0,1,192,210.8V187.92a5.55,5.55,0,0,1,5.67-5.43h23.48a5.55,5.55,0,0,1,5.67,5.43V210.8A5.55,5.55,0,0,1,221.19,216.23Zm-17.81-10.87h12.14v-12H203.38Z"/><path class="cls-1" d="M221.32,300.57H197.8a5.55,5.55,0,0,1-5.67-5.43V272.37a5.55,5.55,0,0,1,5.67-5.43h23.52a5.55,5.55,0,0,1,5.67,5.43v22.76A5.55,5.55,0,0,1,221.32,300.57ZM203.47,289.7h12.18V277.81H203.47Z"/><path class="cls-1" d="M221.35,174.07H197.79a5.55,5.55,0,0,1-5.67-5.43V145.77a5.55,5.55,0,0,1,5.67-5.43h23.56a5.55,5.55,0,0,1,5.67,5.43v22.87A5.55,5.55,0,0,1,221.35,174.07ZM203.47,163.2h12.22v-12H203.47Z"/><path class="cls-1" d="M221.29,343.43H197.75a5.55,5.55,0,0,1-5.67-5.43V315.23a5.55,5.55,0,0,1,5.67-5.43h23.54a5.55,5.55,0,0,1,5.67,5.43V338A5.55,5.55,0,0,1,221.29,343.43Zm-17.87-10.87h12.19v-11.9H203.42Z"/><path class="cls-1" d="M221.27,427.8h-23.5a5.55,5.55,0,0,1-5.67-5.43V399.45a5.55,5.55,0,0,1,5.67-5.43h23.5a5.55,5.55,0,0,1,5.67,5.43v22.91A5.55,5.55,0,0,1,221.27,427.8Zm-17.83-10.87H215.6v-12H203.44Z"/><path class="cls-1" d="M173.48,174H150.35a5.55,5.55,0,0,1-5.67-5.43V145.73a5.55,5.55,0,0,1,5.67-5.43h23.13a5.55,5.55,0,0,1,5.67,5.43v22.83A5.55,5.55,0,0,1,173.48,174ZM156,163.13h11.78v-12H156Z"/><path class="cls-1" d="M126.13,216.3H103.31a5.55,5.55,0,0,1-5.67-5.43V187.92a5.55,5.55,0,0,1,5.67-5.43h22.82a5.55,5.55,0,0,1,5.67,5.43v22.94A5.55,5.55,0,0,1,126.13,216.3ZM109,205.43h11.48V193.36H109Z"/><path class="cls-1" d="M173.51,216.2H150.22a5.55,5.55,0,0,1-5.67-5.43V188a5.55,5.55,0,0,1,5.67-5.43h23.28a5.55,5.55,0,0,1,5.67,5.43v22.81A5.55,5.55,0,0,1,173.51,216.2ZM155.9,205.34h11.94V193.39H155.9Z"/><path class="cls-1" d="M126.08,258.36h-23a5.55,5.55,0,0,1-5.67-5.43V230.1a5.55,5.55,0,0,1,5.67-5.43h23a5.55,5.55,0,0,1,5.67,5.43v22.82A5.55,5.55,0,0,1,126.08,258.36Zm-17.28-10.87H120.4v-12H108.79Z"/><path class="cls-1" d="M173.51,258.34H150.31a5.55,5.55,0,0,1-5.67-5.43V230.08a5.55,5.55,0,0,1,5.67-5.43h23.19a5.55,5.55,0,0,1,5.67,5.43V252.9A5.55,5.55,0,0,1,173.51,258.34ZM156,247.47h11.85v-12H156Z"/><path class="cls-1" d="M126.29,300.51h-23a5.55,5.55,0,0,1-5.67-5.43V272.25a5.55,5.55,0,0,1,5.67-5.43h23a5.55,5.55,0,0,1,5.67,5.43v22.83A5.55,5.55,0,0,1,126.29,300.51ZM109,289.65h11.62v-12H109Z"/><path class="cls-1" d="M173.63,300.38H150.29a5.55,5.55,0,0,1-5.67-5.43V272.21a5.55,5.55,0,0,1,5.67-5.43h23.34a5.55,5.55,0,0,1,5.67,5.43V295A5.55,5.55,0,0,1,173.63,300.38ZM156,289.52h12V277.65H156Z"/><path class="cls-1" d="M126.1,343.39H103.29A5.55,5.55,0,0,1,97.61,338V315.09a5.55,5.55,0,0,1,5.67-5.43H126.1a5.55,5.55,0,0,1,5.67,5.43V338A5.55,5.55,0,0,1,126.1,343.39ZM109,332.52h11.47v-12H109Z"/><path class="cls-1" d="M173.37,343.4H150.29a5.55,5.55,0,0,1-5.67-5.43V315.11a5.55,5.55,0,0,1,5.67-5.43h23.08a5.55,5.55,0,0,1,5.67,5.43V338A5.55,5.55,0,0,1,173.37,343.4ZM156,332.53H167.7v-12H156Z"/><path class="cls-1" d="M126.23,384.78h-23a5.55,5.55,0,0,1-5.67-5.43V356.56a5.55,5.55,0,0,1,5.67-5.43h23a5.55,5.55,0,0,1,5.67,5.43v22.79A5.55,5.55,0,0,1,126.23,384.78ZM108.9,373.92h11.66V362H108.9Z"/><path class="cls-1" d="M173.63,384.62H150.3a5.55,5.55,0,0,1-5.67-5.43V356.45A5.55,5.55,0,0,1,150.3,351h23.34a5.55,5.55,0,0,1,5.67,5.43v22.74A5.55,5.55,0,0,1,173.63,384.62ZM156,373.76h12V361.88H156Z"/><path class="cls-1" d="M126.21,131.89h-23a5.55,5.55,0,0,1-5.67-5.43v-22.8a5.55,5.55,0,0,1,5.67-5.43h23a5.55,5.55,0,0,1,5.67,5.43v22.8A5.55,5.55,0,0,1,126.21,131.89ZM108.9,121h11.64V109.09H108.9Z"/><path class="cls-1" d="M126.13,427.77H103.26a5.55,5.55,0,0,1-5.67-5.43V399.62a5.55,5.55,0,0,1,5.67-5.43h22.87a5.55,5.55,0,0,1,5.67,5.43v22.72A5.55,5.55,0,0,1,126.13,427.77Zm-17.2-10.87h11.52V405.06H108.93Z"/><path class="cls-1" d="M173.4,427.7H150.06a5.55,5.55,0,0,1-5.67-5.43V399.61a5.55,5.55,0,0,1,5.67-5.43H173.4a5.55,5.55,0,0,1,5.67,5.43v22.65A5.55,5.55,0,0,1,173.4,427.7Zm-17.67-10.87h12V405h-12Z"/><path class="cls-1" d="M173.49,131.87H150.11a5.55,5.55,0,0,1-5.67-5.43V103.65a5.55,5.55,0,0,1,5.67-5.43h23.37a5.55,5.55,0,0,1,5.67,5.43v22.79A5.55,5.55,0,0,1,173.49,131.87ZM155.79,121h12V109.08h-12Z"/><path class="cls-1" d="M126.06,174H103.32a5.55,5.55,0,0,1-5.67-5.43V145.64a5.55,5.55,0,0,1,5.67-5.43h22.74a5.55,5.55,0,0,1,5.67,5.43v22.94A5.55,5.55,0,0,1,126.06,174ZM109,163.15h11.4V151.07H109Z"/><path class="cls-1" d="M314.16,258.4H291.09a5.55,5.55,0,0,1-5.67-5.43V230.24a5.55,5.55,0,0,1,5.67-5.43h23.07a5.55,5.55,0,0,1,5.67,5.43V253A5.55,5.55,0,0,1,314.16,258.4Zm-17.39-10.87h11.72V235.67H296.76Z"/><path class="cls-1" d="M409.46,258.25H386.63a5.55,5.55,0,0,1-5.67-5.43V230.15a5.55,5.55,0,0,1,5.67-5.43h22.83a5.55,5.55,0,0,1,5.67,5.43v22.66A5.55,5.55,0,0,1,409.46,258.25ZM392.3,247.39h11.49v-11.8H392.3Z"/><path class="cls-1" d="M314.2,300.38H291.12a5.55,5.55,0,0,1-5.67-5.43V272.38a5.55,5.55,0,0,1,5.67-5.43H314.2a5.55,5.55,0,0,1,5.67,5.43V295A5.55,5.55,0,0,1,314.2,300.38Zm-17.41-10.87h11.73v-11.7H296.79Z"/><path class="cls-1" d="M314.17,343.43h-22.9A5.55,5.55,0,0,1,285.6,338V315.25a5.55,5.55,0,0,1,5.67-5.43h22.9a5.55,5.55,0,0,1,5.67,5.43V338A5.55,5.55,0,0,1,314.17,343.43Zm-17.22-10.87H308.5V320.68H296.95Z"/><path class="cls-1" d="M409.6,300.49H386.72a5.55,5.55,0,0,1-5.67-5.43V272.34a5.55,5.55,0,0,1,5.67-5.43H409.6a5.55,5.55,0,0,1,5.67,5.43v22.72A5.55,5.55,0,0,1,409.6,300.49Zm-17.21-10.87h11.53V277.77H392.39Z"/><path class="cls-1" d="M409.56,343.36H386.73a5.55,5.55,0,0,1-5.67-5.43V315.25a5.55,5.55,0,0,1,5.67-5.43h22.83a5.55,5.55,0,0,1,5.67,5.43v22.67A5.55,5.55,0,0,1,409.56,343.36ZM392.4,332.49h11.49V320.68H392.4Z"/><path class="cls-1" d="M314.18,384.77h-23a5.55,5.55,0,0,1-5.67-5.43V356.46a5.55,5.55,0,0,1,5.67-5.43h23a5.55,5.55,0,0,1,5.67,5.43v22.88A5.55,5.55,0,0,1,314.18,384.77Zm-17.3-10.87h11.62v-12H296.88Z"/><path class="cls-1" d="M314.1,427.89H291.35a5.55,5.55,0,0,1-5.67-5.43V399.53a5.55,5.55,0,0,1,5.67-5.43H314.1a5.55,5.55,0,0,1,5.67,5.43v22.93A5.55,5.55,0,0,1,314.1,427.89ZM297,417h11.4V405H297Z"/><path class="cls-1" d="M409.43,384.81H386.72a5.55,5.55,0,0,1-5.67-5.43v-22.8a5.55,5.55,0,0,1,5.67-5.43h22.71a5.55,5.55,0,0,1,5.67,5.43v22.8A5.55,5.55,0,0,1,409.43,384.81Zm-17-10.87h11.37V362H392.39Z"/><path class="cls-1" d="M409.51,427.67H386.8a5.55,5.55,0,0,1-5.67-5.43V399.47A5.55,5.55,0,0,1,386.8,394h22.7a5.55,5.55,0,0,1,5.67,5.43v22.77A5.55,5.55,0,0,1,409.51,427.67Zm-17-10.87h11.36V404.9H392.48Z"/><path class="cls-1" d="M361.53,258.38H339.05a5.55,5.55,0,0,1-5.67-5.43V230.16a5.55,5.55,0,0,1,5.67-5.43h22.48a5.55,5.55,0,0,1,5.67,5.43v22.78A5.55,5.55,0,0,1,361.53,258.38Zm-16.81-10.87h11.13V235.6H344.72Z"/><path class="cls-1" d="M361.5,384.7H339a5.55,5.55,0,0,1-5.67-5.43v-22.8A5.55,5.55,0,0,1,339,351H361.5a5.55,5.55,0,0,1,5.67,5.43v22.8A5.55,5.55,0,0,1,361.5,384.7Zm-16.81-10.87h11.13V361.89H344.69Z"/><path class="cls-1" d="M361.73,427.75H339.26a5.55,5.55,0,0,1-5.67-5.43V399.56a5.55,5.55,0,0,1,5.67-5.43h22.47a5.55,5.55,0,0,1,5.67,5.43v22.76A5.55,5.55,0,0,1,361.73,427.75Zm-16.8-10.87h11.12V405H344.94Z"/><path class="cls-1" d="M361.52,300.48H339.18a5.55,5.55,0,0,1-5.67-5.43V272.21a5.55,5.55,0,0,1,5.67-5.43h22.34a5.55,5.55,0,0,1,5.67,5.43V295A5.55,5.55,0,0,1,361.52,300.48Zm-16.66-10.87h11v-12h-11Z"/><path class="cls-1" d="M361.58,343.53H339.23a5.55,5.55,0,0,1-5.67-5.43V315.15a5.55,5.55,0,0,1,5.67-5.43h22.35a5.55,5.55,0,0,1,5.67,5.43v22.94A5.55,5.55,0,0,1,361.58,343.53ZM344.9,332.66h11V320.59h-11Z"/><path class="cls-1" d="M176.14,467.53H147.42a5.55,5.55,0,0,1-5.67-5.43V448a5.55,5.55,0,0,1,5.67-5.43h28.72a5.55,5.55,0,0,1,5.67,5.43V462.1A5.55,5.55,0,0,1,176.14,467.53Zm-23-10.87h17.37v-3.26H153.09Z"/><path class="cls-1" d="M364.41,467.62h-28a5.55,5.55,0,0,1-5.67-5.43V447.93a5.55,5.55,0,0,1,5.67-5.43h28a5.55,5.55,0,0,1,5.67,5.43v14.25A5.55,5.55,0,0,1,364.41,467.62Zm-22.33-10.87h16.65v-3.38H342.09Z"/></svg>