<svg id="Layer_1" data-name="Layer 1" xmlns="http://www.w3.org/2000/svg" viewBox="0 0 512 512"><defs><style>.cls-1{fill:#65a2bd;}</style></defs><title>icons</title><path class="cls-1" d="M456.1,454.69H290.88a19,19,0,0,1,0-38H456.1A17.88,17.88,0,0,0,474,398.8V113.2A17.88,17.88,0,0,0,456.1,95.34H290.88a19,19,0,0,1,0-38H456.1A56,56,0,0,1,512,113.2V398.8A56,56,0,0,1,456.1,454.69Z"/><path class="cls-1" d="M222.81,123.17H19a19,19,0,1,1,0-38H222.81a19,19,0,1,1,0,38Z"/><path class="cls-1" d="M222.81,223.71h-125a19,19,0,0,1,0-38h125a19,19,0,0,1,0,38Z"/><path class="cls-1" d="M222.81,324.27H19a19,19,0,1,1,0-38H222.81a19,19,0,1,1,0,38Z"/><path class="cls-1" d="M222.81,426.87h-125a19,19,0,0,1,0-38h125a19,19,0,0,1,0,38Z"/><path class="cls-1" d="M408.23,175.28h-78.5a19,19,0,0,1,0-38h78.5a19,19,0,0,1,0,38Z"/><path class="cls-1" d="M408.23,275h-78.5a19,19,0,0,1,0-38h78.5a19,19,0,0,1,0,38Z"/><path class="cls-1" d="M408.23,374.75h-78.5a19,19,0,0,1,0-38h78.5a19,19,0,0,1,0,38Z"/></svg>