<svg id="Layer_1" data-name="Layer 1" xmlns="http://www.w3.org/2000/svg" viewBox="0 0 512 512"><defs><style>.cls-1{fill:#fff;}</style></defs><title>icons</title><path class="cls-1" d="M256,512C114.86,512,0,397.18,0,256S114.86,0,256,0,512,114.82,512,256,397.17,512,256,512Zm0-468.27C139,43.73,43.78,138.95,43.78,256S139,468.27,256,468.27,468.22,373,468.22,256,373,43.73,256,43.73Z"/><path class="cls-1" d="M256,354.85,148.63,247.42a21.87,21.87,0,0,1,31-30.9L256,292.92l76.39-76.41a21.87,21.87,0,1,1,31,30.9Z"/></svg>