<svg id="Layer_1" data-name="Layer 1" xmlns="http://www.w3.org/2000/svg" viewBox="0 0 512 512"><defs><style>.cls-1{fill:#65a2bd;}</style></defs><title>icons</title><path class="cls-1" d="M297,0c8.07,2.3,16.3,4.16,24.18,7,13.71,4.92,25.24,13.33,35,24.05a9.5,9.5,0,0,0,7.64,3.61,96.27,96.27,0,0,1,93.21,71.92c1.4,5.53,4.08,9.18,8.45,12.68,23.57,18.86,36.57,43.43,38.41,73.69s-8.53,56-29.36,77.85a9.8,9.8,0,0,0-2.39,6.91c5.16,48.69-34.83,91-83.66,88.19-4.45-.26-8.86-1.2-13.31-1.68-1.9-.2-3.85,0-6.24,0,2.13,7.53,4.45,14.57,6.09,21.76,6.15,26.9,3.1,52.65-11.39,76.37C353.59,478.9,342.58,495,331.48,512c-1.11-2.54-2-4.4-2.74-6.28-5.24-12.57-10.73-25-15.64-37.74-5.44-14.08-13.84-26.16-24.08-37-19.12-20.2-39-39.74-57.58-60.37-9.52-10.54-17.2-22.78-25.42-34.45-1.75-2.48-3.25-3.64-6.33-3.4a76,76,0,0,1-47.59-11.57,9.31,9.31,0,0,0-5.63-1.12c-41.46,5-79.77-16.16-97.54-53.81A21.4,21.4,0,0,0,44.27,260c-27.21-25.45-39-56.89-36-93.81,4-49.2,45.75-92.21,94.89-98.13,3.81-.46,6.16-2.23,8.32-5.34,18.1-26.14,43.16-41.43,74.4-46.4,13.24-2.11,26.52-1,39.64,1.91a6.43,6.43,0,0,0,4.56-.53A98.26,98.26,0,0,1,274.26.58c.28,0,.53-.38.79-.58Zm23.77,341.08a12.79,12.79,0,0,1,2.3,0c15.16,4,29,1,41.56-8.09,2.76-2,4.77-1.64,7.61-.37,32.39,14.49,70.15-9.1,70.71-44.57.14-8.55-2.43-17.15-3.87-26.5.42-.29,1.9-1.34,3.42-2.32,45.69-29.54,42.56-99-5.72-124.1-4.26-2.22-6.28-4.56-5.91-9.46.23-3.06-.59-6.28-1.32-9.33-6.81-28.52-29.6-49-58.63-52.24-20.92-2.34-36.6,5.44-46.43,23.17-6.47,11.68-6.59,24.63-3.94,37.43,1.8,8.7,4.54,17.2,7,26.14l-27,11.42-10.2-36c-26.67,14.84-53.26,17.83-80-1.76L229.07,102c6,4.58,12.11,7.16,19,6.94,22.18-.72,38-11.77,48.23-31,4.91-9.2,10.27-17.89,18.43-24.54,3.94-3.21,8-6.23,12.61-9.75a13.41,13.41,0,0,1-1.62-.86c-27-20.31-63.66-17.78-87.3,6.23-2.69,2.73-4.69,2.85-8.15,1.64-6.7-2.34-13.59-4.8-20.59-5.55-35.15-3.78-66.46,14.38-81.1,46.64-1.55,3.42-2.92,5.12-7.24,4.46s-9,0-13.39.59c-43.77,5.92-74.47,44.26-70.67,88.47a69.86,69.86,0,0,0,8.21,28c.66-1.55,1.16-2.5,1.49-3.52,7-21.33,21.17-36.27,41.21-45.7,25-11.74,51.06-12.71,77.52-6.62,10.37,2.39,20.41,6.24,31,9.55l-12.51,27.21c-3.66-1.45-6.82-2.86-10.09-4-24.63-8.39-49.3-11-73.76.48C73.75,203.3,67,228.65,74.28,249.72c10.81,31.37,46.29,49.19,78,39.15,3.42-1.08,5.6-.67,8.29,1.94a45.72,45.72,0,0,0,62.89,1.37c12.91-11.53,24.9-24.1,38-35.38,19.69-16.93,43-25.41,68.88-26.86,21.82-1.22,43.13,1.92,64.12,7.61,7.58,2.05,15.06,4.46,22.77,6.76L407.72,272,402,270.16c-20.37-6.32-40.94-11.38-62.5-11.46-23.61-.09-44.59,6.89-62.16,22.81-15.12,13.71-29.84,27.88-45.06,42.15,1.58,2.48,3.18,5.86,5.56,8.55,14.44,16.32,29.06,32.48,43.62,48.69,15,16.71,30.22,33.24,44.85,50.26,4.45,5.18,7.29,11.74,11,17.91.57-.86,1-1.5,1.45-2.18,12.27-20.85,12.2-42.63,4.8-64.91C338.71,367.18,330.66,354,320.81,341.08Z"/></svg>