<svg id="Layer_1" data-name="Layer 1" xmlns="http://www.w3.org/2000/svg" viewBox="0 0 512 512"><defs><style>.cls-1{fill:#1d1d1b;}</style></defs><title>icons</title><path class="cls-1" d="M460.23,437.33H51.77C23.2,437.33,0,414.37,0,386.09V125.91C0,97.63,23.2,74.67,51.77,74.67H460.23c28.57,0,51.77,23,51.77,51.25V386.09C512,414.37,488.8,437.33,460.23,437.33ZM51.77,109.95a16.11,16.11,0,0,0-16.13,16V386.09a16.11,16.11,0,0,0,16.13,16H460.23a16.11,16.11,0,0,0,16.13-16V125.91a16.11,16.11,0,0,0-16.13-16Z"/><path class="cls-1" d="M256,321.49A71.26,71.26,0,0,1,208.12,303L5.77,119.61l24.09-26L232.21,276.94a35.36,35.36,0,0,0,47.59,0L482.13,93.59l24.09,26L303.88,303A71.07,71.07,0,0,1,256,321.49Z"/><polygon class="cls-1" points="38.69 423.51 7.62 405.21 212.69 263.39 233.1 292.37 38.69 423.51"/><polygon class="cls-1" points="473.11 423.37 281.44 290 302.24 261.32 504.58 405.35 473.11 423.37"/></svg>