<svg id="Layer_1" data-name="Layer 1" xmlns="http://www.w3.org/2000/svg" viewBox="0 0 34 48"><defs><style>.cls-1{fill:#65a2bd;}</style></defs><title>icons</title><path class="cls-1" d="M17,24.17A12.08,12.08,0,1,1,28.94,12.08,12,12,0,0,1,17,24.17ZM17,3.42a8.66,8.66,0,1,0,8.56,8.66A8.63,8.63,0,0,0,17,3.42Z"/><path class="cls-1" d="M32.31,48a1.7,1.7,0,0,1-1.69-1.71V38.53A13.72,13.72,0,0,0,17,24.74,13.72,13.72,0,0,0,3.38,38.53v7.76a1.69,1.69,0,1,1-3.38,0V38.53A17.12,17.12,0,0,1,17,21.32,17.12,17.12,0,0,1,34,38.53v7.76A1.7,1.7,0,0,1,32.31,48Z"/></svg>