<svg id="Layer_1" data-name="Layer 1" xmlns="http://www.w3.org/2000/svg" viewBox="0 0 40 46"><defs><style>.cls-1{fill:#65a2bd;}</style></defs><title>icons</title><path class="cls-1" d="M12.09,14H8.85a1.68,1.68,0,0,1,0-3.36h3.24a1.68,1.68,0,0,1,0,3.36Z"/><path class="cls-1" d="M12.09,24.68H8.85a1.68,1.68,0,0,1,0-3.36h3.24a1.68,1.68,0,0,1,0,3.36Z"/><path class="cls-1" d="M12.09,35.34H8.85a1.68,1.68,0,0,1,0-3.36h3.24a1.68,1.68,0,0,1,0,3.36Z"/><path class="cls-1" d="M31.15,14H18a1.68,1.68,0,0,1,0-3.36H31.15a1.68,1.68,0,0,1,0,3.36Z"/><path class="cls-1" d="M31.15,24.68H18a1.68,1.68,0,0,1,0-3.36H31.15a1.68,1.68,0,0,1,0,3.36Z"/><path class="cls-1" d="M31.15,35.34H18A1.68,1.68,0,0,1,18,32H31.15a1.68,1.68,0,0,1,0,3.36Z"/><path class="cls-1" d="M35.54,46H4.46A4.51,4.51,0,0,1,0,41.44V4.56A4.51,4.51,0,0,1,4.46,0H35.54A4.51,4.51,0,0,1,40,4.56V41.44A4.51,4.51,0,0,1,35.54,46ZM4.46,3.36a1.19,1.19,0,0,0-1.17,1.2V41.44a1.19,1.19,0,0,0,1.17,1.2H35.54a1.19,1.19,0,0,0,1.17-1.2V4.56a1.19,1.19,0,0,0-1.17-1.2Z"/></svg>