<svg id="Layer_1" data-name="Layer 1" xmlns="http://www.w3.org/2000/svg" viewBox="0 0 512 512"><defs><style>.cls-1{fill:#fff;}</style></defs><title>icons</title><path class="cls-1" d="M433,512H79a50.81,50.81,0,0,1-50.77-50.75V50.75A50.81,50.81,0,0,1,79,0H433a50.81,50.81,0,0,1,50.77,50.75V461.25A50.81,50.81,0,0,1,433,512ZM79,37.34a13.43,13.43,0,0,0-13.38,13.4V461.25A13.43,13.43,0,0,0,79,474.66H433a13.43,13.43,0,0,0,13.38-13.4V50.75A13.43,13.43,0,0,0,433,37.34Z"/><path class="cls-1" d="M330.32,401.28A31.3,31.3,0,0,1,316,397.73l-60-31.55-59.93,31.5a30.88,30.88,0,0,1-44.83-32.6l11.42-66.71-48.48-47.25a30.92,30.92,0,0,1,17.13-52.73l67-9.7,30-60.76c10.54-21.17,44.9-21.17,55.44,0V128l29.94,60.71,67,9.7a30.9,30.9,0,0,1,17.11,52.73L349.3,298.38l11.42,66.71a31,31,0,0,1-30.41,36.2ZM149.71,233.5,191.22,274a31,31,0,0,1,8.89,27.33l-9.81,57.16,51.29-27a30.83,30.83,0,0,1,28.76,0l51.29,27-9.78-57.11A31,31,0,0,1,320.72,274l41.54-40.52-57.34-8.29a31,31,0,0,1-23.23-16.85L256,156.25,230.34,208.3a30.88,30.88,0,0,1-23.26,16.9Zm-9.44-9.18h0Zm174.9-32.54h0Zm-65-47.25h0Z"/></svg>