<svg id="Layer_1" data-name="Layer 1" xmlns="http://www.w3.org/2000/svg" viewBox="0 0 512 512"><defs><style>.cls-1{fill:#fff;}</style></defs><title>icons</title><path class="cls-1" d="M.52,35c-.17.59-.36,1.17-.52,1.76A2.53,2.53,0,0,0,.52,35Z"/><path class="cls-1" d="M354,511.8l3.33-.55A5.44,5.44,0,0,0,354,511.8Z"/><path class="cls-1" d="M144.06,430.62c-32,.17-68,0-100,.18-4,0-5.42-1-5.42-5.22.11-124.67.1-257.35,0-382,0-4,1.25-5,5.11-5,67.67.11,143.35.11,211,0,4.06,0,5.38.94,5.35,5.2-.2,25-.06,54-.13,79,0,3,.14,4.91,4.11,4.9,40-.13,76-.11,116,0,3,0,4.06-1,4-4-.18-7.66-.11-15.33,0-23a6.26,6.26,0,0,0-2-4.86q-47.65-47.45-95.24-95H68.09C55.13.79,39.81-1.52,27.17,3,16.19,7,7.29,16.25,3,27A37.24,37.24,0,0,0,0,40.85v375.7c0,12.49.42,23.24,7.51,34.11A40.24,40.24,0,0,0,19.74,462.8a42.41,42.41,0,0,0,16.72,5.95,51.72,51.72,0,0,0,6.69.48c33.83.29,67.67,0,101.5.18,3.89,0,4.74-1.42,4.68-5-.19-10.83-.25-17.66,0-28.49C149.46,431.8,148.24,430.6,144.06,430.62Z"/><path class="cls-1" d="M357.32,510.84a170.47,170.47,0,0,0,153.2-192.29q-.52-3.89-1.22-7.76C493.08,220.89,407.72,159,317.74,172c-92.15,13.34-156,96-145.82,188.86,7.7,70.25,60.47,129.75,129.35,146.15A171.4,171.4,0,0,0,357.32,510.84Zm-16.17-29.74C263.71,481,200.87,417.91,201.2,340.64c.33-77.11,63.42-139.9,140.36-139.67a140.07,140.07,0,0,1-.41,280.13Z"/><path class="cls-1" d="M384.06,371.31a63.28,63.28,0,0,0,23.64-70.88,64.21,64.21,0,0,0-61.09-44.64c-19.49-.05-39,.14-58.48-.13-4.56-.06-5.5,1.39-5.47,5.64.18,26.49.09,53,.09,79.48,0,26.83.08,53.65-.08,80.48,0,4.13,1.16,5.47,5.34,5.36,10.82-.27,9.63-.23,20.45,0,3.72.07,4.91-1.08,4.84-4.83-.21-11.16-.09-22.33,0-33.49,0-1.42,0-4.17,0-4.17h42.29s12.82,26.89,19.76,39a5.94,5.94,0,0,0,5.92,3.44c13.49-.14,11-.2,24.45,0,4.9.08,4.3-1.49,2.38-4.73-8.58-14.46-16.89-29.08-25.54-43.5C380.54,375.07,380.92,373.57,384.06,371.31Zm-35.65-15.76c-5.33.22-10.67,0-16,0-21.8.11-21.81.11-21.81-21.95,0-14.32.16-28.65-.08-43-.09-5.14,1.79-6.94,6.86-6.81,10.39.28,20.79-.18,31.17.22a35.77,35.77,0,0,1-.13,71.48Z"/></svg>