<svg id="Layer_1" data-name="Layer 1" xmlns="http://www.w3.org/2000/svg" viewBox="0 0 36 36.45"><defs><style>.cls-1{fill:#65a2bd;}</style></defs><title>icons</title><path class="cls-1" d="M34.28,3.44H1.72A1.72,1.72,0,1,1,1.72,0H34.28a1.72,1.72,0,1,1,0,3.44Z"/><path class="cls-1" d="M21.68,14.37h-20a1.72,1.72,0,1,1,0-3.44h20a1.72,1.72,0,1,1,0,3.44Z"/><path class="cls-1" d="M34.28,25.3H1.72a1.72,1.72,0,1,1,0-3.44H34.28a1.72,1.72,0,1,1,0,3.44Z"/><path class="cls-1" d="M21.68,36.45h-20a1.72,1.72,0,1,1,0-3.44h20a1.72,1.72,0,1,1,0,3.44Z"/></svg>