<svg id="Layer_1" data-name="Layer 1" xmlns="http://www.w3.org/2000/svg" viewBox="0 0 512 512"><defs><style>.cls-1{fill:#1d1d1b;}</style></defs><title>icons</title><path class="cls-1" d="M256,371.26c-63.17,0-114.5-51.68-114.5-115.28S192.86,140.69,256,140.69,370.47,192.37,370.47,256,319.14,371.26,256,371.26ZM256,177c-43.22,0-78.43,35.45-78.43,79s35.21,79,78.43,79,78.38-35.45,78.38-79S299.24,177,256,177Z"/><path class="cls-1" d="M275.57,512H236.43a35.12,35.12,0,0,1-33.75-26l-14.91-55.89L139.46,402.4,84.81,417.46a34.65,34.65,0,0,1-39.19-16.33L26,366.9a35.27,35.27,0,0,1,5.54-42.4l40.55-40.93-.3-56-40.3-40.07A35.65,35.65,0,0,1,26,145.05l19.65-34.13A34.74,34.74,0,0,1,84.81,94.54l55.06,14.76,48.46-28.15L202.68,26A35.11,35.11,0,0,1,236.43,0h39.14a35.13,35.13,0,0,1,33.75,25.92l14.91,55.94,48.31,27.69,54.65-15a34.81,34.81,0,0,1,39.19,16.33L486,145.05a35.54,35.54,0,0,1-5.44,42.4l-40.65,41,.3,55.94,40.3,40.12A35.4,35.4,0,0,1,486,366.95l-19.6,34.13a34.64,34.64,0,0,1-39.19,16.38l-55.51-14.91-48,28.25-14.36,55.13A35.11,35.11,0,0,1,275.57,512ZM140.12,366.24a34.72,34.72,0,0,1,17.33,4.67l48.91,28.45a35.06,35.06,0,0,1,16.27,21.25l14.91,55.89,38-.81,13.8-55a35,35,0,0,1,16.17-21.25l49-28.45a34.72,34.72,0,0,1,26.5-3.5l55.46,14.91,18.29-33.63L414.3,309.23a35.34,35.34,0,0,1-10.18-24.85v-56.8a35.43,35.43,0,0,1,10.23-24.8l40.55-40.93-19.75-32.76-54.2,15.47a34.32,34.32,0,0,1-26.55-3.6l-48.76-28.35a34.65,34.65,0,0,1-16.27-21.3L274.46,35.45l-38,.86-13.8,55a34.78,34.78,0,0,1-16.32,21.35L157.49,141a34.5,34.5,0,0,1-26.5,3.55L75.54,129.64,57.25,163.21,97.7,202.77a35.6,35.6,0,0,1,10.18,24.8v56.8a35.09,35.09,0,0,1-10.12,24.75l-40.65,41,19.75,32.76L131,367.45A34.55,34.55,0,0,1,140.12,366.24Zm.2-256.79h0Z"/></svg>