<svg id="Layer_1" data-name="Layer 1" xmlns="http://www.w3.org/2000/svg" viewBox="0 0 45.82 47.27"><defs><style>.cls-1{fill:#65a2bd;}</style></defs><title>icons</title><path class="cls-1" d="M26.7,0c.75.21,1.5.38,2.23.65a8.07,8.07,0,0,1,3.24,2.22.88.88,0,0,0,.71.33,8.89,8.89,0,0,1,8.6,6.64A2,2,0,0,0,42.26,11a9.09,9.09,0,0,1,3.55,6.8A9.22,9.22,0,0,1,43.09,25a.9.9,0,0,0-.22.64,7.39,7.39,0,0,1-7.72,8.14c-.41,0-.82-.11-1.23-.15-.18,0-.35,0-.58,0,.2.7.41,1.34.56,2a9.15,9.15,0,0,1-1.05,7.05c-.94,1.53-2,3-3,4.59l-.25-.58c-.48-1.16-1-2.31-1.44-3.48A10.43,10.43,0,0,0,26,39.79c-1.76-1.86-3.6-3.67-5.32-5.57A33,33,0,0,1,18.3,31a.58.58,0,0,0-.58-.31,7,7,0,0,1-4.39-1.07.86.86,0,0,0-.52-.1,8.67,8.67,0,0,1-9-5A2,2,0,0,0,3.37,24,10.22,10.22,0,0,1,8.8,6.28a1,1,0,0,0,.77-.49A9.93,9.93,0,0,1,16.44,1.5a9.72,9.72,0,0,1,3.66.18.59.59,0,0,0,.42,0A9.07,9.07,0,0,1,24.6.05s0,0,.07-.05Zm2.19,31.49a1.18,1.18,0,0,1,.21,0,4.36,4.36,0,0,0,3.84-.75.6.6,0,0,1,.7,0,4.65,4.65,0,0,0,6.53-4.11,15.27,15.27,0,0,0-.36-2.45l.32-.21a6.68,6.68,0,0,0-.53-11.46.81.81,0,0,1-.55-.87,2.89,2.89,0,0,0-.12-.86,6.22,6.22,0,0,0-5.41-4.82,4,4,0,0,0-4.29,2.14,4.9,4.9,0,0,0-.36,3.46c.17.8.42,1.59.64,2.41L27,15l-.94-3.32c-2.46,1.37-4.92,1.65-7.38-.16l1.73-2.08a2.69,2.69,0,0,0,1.75.64A5,5,0,0,0,26.63,7.2a7.09,7.09,0,0,1,1.7-2.27c.36-.3.74-.58,1.16-.9L29.35,4a6.07,6.07,0,0,0-8.06.58.6.6,0,0,1-.75.15,8.71,8.71,0,0,0-1.9-.51,7.21,7.21,0,0,0-7.49,4.31c-.14.32-.27.47-.67.41a4.42,4.42,0,0,0-1.24.05,7.52,7.52,0,0,0-6.52,8.17,6.45,6.45,0,0,0,.76,2.59c.06-.14.11-.23.14-.32a6.9,6.9,0,0,1,3.8-4.22,10.72,10.72,0,0,1,7.16-.61c1,.22,1.88.58,2.86.88l-1.16,2.51c-.34-.13-.63-.26-.93-.37a8.76,8.76,0,0,0-6.81,0,4.3,4.3,0,0,0-2.41,5.44,5.86,5.86,0,0,0,7.2,3.61.66.66,0,0,1,.77.18,4.22,4.22,0,0,0,5.81.13c1.19-1.06,2.3-2.23,3.51-3.27a10.37,10.37,0,0,1,6.36-2.48,18.55,18.55,0,0,1,5.92.7c.7.19,1.39.41,2.1.62l-.88,2.55-.52-.17a19.66,19.66,0,0,0-5.77-1.06A8.18,8.18,0,0,0,24.89,26c-1.4,1.27-2.75,2.57-4.16,3.89a5.79,5.79,0,0,0,.51.79c1.33,1.51,2.68,3,4,4.5s2.79,3.07,4.14,4.64a12,12,0,0,1,1,1.65l.13-.2a7,7,0,0,0,.44-6A13,13,0,0,0,28.89,31.49Z"/></svg>