<svg id="Layer_1" data-name="Layer 1" xmlns="http://www.w3.org/2000/svg" viewBox="0 0 512 512"><defs><style>.cls-1{fill:#fff;}</style></defs><title>icons</title><path class="cls-1" d="M133.93,210.51c1.46-18.85,3-37.33,4.3-55.83,2.92-42.52,5.66-85,8.55-127.56.73-10.71,5.55-14.83,16-14.32q47.34,2.3,94.68,4.54c15,.73,19.24,5.15,18.79,19.83q-1,31.59-2.16,63.17c-.32,8.84.58,9.05,9.14,8.84,4.09-.1,9.75,1.8,12.12,4.82,7,9,16.51,9.31,26.27,9.83a50.07,50.07,0,0,1,20.25,5.42c6.62,3.24,15.17,9,25.8,4.39,8.61-3.7,18.79,1.17,27.77,5.84,12.42-6.71,26.68-6.5,40.58-7.33,3.86-.23,7.89,3.29,11.92,4.92,8.72,3.53,17.23,7.94,26.28,10.18,12.56,3.12,15,5.12,15.35,18.08.46,17.63,1,35.26,1.58,52.89.05,1.69-.1,3.58.58,5,4.23,8.95,7.75,18.42,13.25,26.54,9.66,14.26,8.27,28.11,2,42.89-1.48,3.49.11,8.15-.46,12.17-.79,5.59-2.28,11.08-3.46,16.61-.52,2.42-1.52,4.86-1.46,7.27.18,7.32-3,11.83-10.19,12.77-14.16,1.84-25.15,10.3-36.54,17.63-3.79,2.44-5.08,8.76-8.87,11.2-13.91,8.94-27.65,18.83-42.83,24.94-21.37,8.6-33.11,23.42-38.59,44.91-3.49,13.68-2.38,26.59,4,39.07,2.16,4.22,5.3,8.06,6.75,12.49,2.12,6.48-.69,11.39-7,14.23a40,40,0,0,0-5,2.91c-6.26,4-12.9,4.54-18.27-.63-5.72-5.51-12.48-5.53-19.45-6.65-5.54-.89-10.86-3.47-16.12-5.67-6.63-2.77-12.85-7.43-19.69-8.54-10.77-1.75-14.5-8.4-17-17.46-1.29-4.62-3.86-8.88-5.4-13.45-2.61-7.71-4.85-15.53-7.26-23.31a12.27,12.27,0,0,0-1.36-3.76c-5.11-6.77-9.86-13.9-15.64-20.06-12.74-13.59-16.82-31.38-24.52-47.44-2.71-5.65-8.51-9.78-12.71-14.77-10.49-12.43-24.28-15.8-39.6-13.93-2.79.34-6.39,3.47-7.54,6.18-3.69,8.69-8.47,16.33-15.47,22.75-6.11,5.6-17.76,5.58-26.49-.64-11.06-7.87-21.89-16.08-33.2-23.58-12-8-15.37-20-17.46-33.1-1.67-10.4-4.75-19.68-14.12-26.69-7.65-5.73-13.35-14-20.06-21.07-2.82-3-6.49-5.2-8.95-8.4C15.68,239.06,7,229.9,2,219.11c-5.73-12.26,1.56-19.34,15.1-18.08,36.57,3.4,73.19,6.36,109.79,9.46C129,210.67,131.19,210.51,133.93,210.51Zm157.49-80.63c-.25-6-3-8.33-10.54-7.28-10.55,1.46-18.53-7.84-18.16-18.73.76-22.28,1.16-44.58,2.14-66.85.27-6.13-1.94-8.26-7.72-8.51q-46.61-2-93.21-4.39c-4.72-.25-6,1.72-6.12,5.88-.22,6.85-.66,13.7-1.13,20.55q-5.54,81.37-11.11,162.74c-.62,9.14-.85,9.83-9.88,9.13-38.58-3-77.14-6.23-115.7-9.38-2.57-.21-5.14-.58-7.7-.87l-1.4,1.72q9.67,12.88,19.37,25.74c.41.54,1.33.65,1.88,1.12,2,1.72,4.35,3.24,6,5.3,8.17,10.31,16.13,20.62,27.2,28.33,8.7,6.06,12.43,17.08,12.28,26.13C77.27,320,90.33,329,102.67,338.91c6.09,4.91,13.32,8.39,20,12.54,5.29,3.28,10.69,5.73,15.1-1,4.19-6.4,8.18-13,11.78-19.71,3-5.6,16-12.79,21.54-11.44,4.67,1.14,9.42,1.93,14.11,3,7.71,1.69,17.52-1.11,21,9.74.15.46,1.42.46,1.87.94,6.62,7,13.79,13.64,19.57,21.31,3.54,4.71,5,11,7.28,16.63,2.47,6,4.16,12.49,7.49,18,3.82,6.28,9.09,11.67,13.68,17.48,3.53,4.46,7.06,8.91,10.45,13.48,2.14,2.88,5.9,6.12,5.68,8.94-1.27,16,9.29,27.84,14,41.66,2.86,8.47,13.87,7.16,20.61,11.7C317.07,489,329.12,492,341.74,492c1.84,0,3.72,2.08,5.49,3.33,2.34,1.65,4.59,3.44,6.26,4.69l11.42-6.25h-5c-1.68-5.81-3.72-10.77-4.47-15.92-1.65-11.24-11.49-21.79-3-34,.77-1.11.1-3.22.1-5.14-5.46,1.18-10.11,1.28-10.62-5.18l11.47,1.56c4-8,9.08-15.47-2.38-23.56l12.48,1.14,6.92-11.13L364.07,405l-1.52-1.83c1.55-1.37,3.1-3.91,4.66-3.91,7.77,0,13.81-1.17,10.43-12.57,6.11,8.11,10.33,3.51,14.28.9L384,376.23c4.45.59,6.56,2.89,11.9,1.66,6.79-1.56,14.67,2.78,21.31-4,2.29-2.33,7.34-1.82,9.87-4,8.53-7.48,16.49-15.61,24.14-23l-5.82-14.71,12.11-4.83L456.77,339l33.55-9.31c-6.51-5.8-2.22-9.57,1.31-12.82,4-3.7,3.83-7.52,3.39-12.52a45,45,0,0,1,2.07-17.95c2.73-8.07,4.66-15.82,1.27-24-3.19-7.68-6.63-15.27-10.11-22.83-1.21-2.63-3-5-4.26-7.59-1.58-3.33-3.92-6.75-4.1-10.24-.92-17.37-1.27-34.76-1.78-52.15-.3-10.17-.28-10.12-10.95-10.51a10.43,10.43,0,0,1-3.84-1.44c-9.52-4.65-19-9.34-29-14.23-2.79,3.14-6.16,5.52-10.89,1.78-1-.76-3.23-.36-4.69.12-7.59,2.48-15.11,5.18-22.68,7.73a4,4,0,0,1-2.6-.07c-7.08-3-14.11-6-21.73-9.3l-6.87,10.17-2.85-6.53-1.21,2.17-15.43-6.19c.5-.26-.25,0-.76.42-3.82,3.49-6.48,6.21-10-1.26-2.5-5.31-7.93-10.39-15.49-5.34-.8.53-2.35.3-3.43,0C308,134.94,300.35,132.58,291.42,129.89Z"/></svg>