<?xml version="1.0" encoding="utf-8"?>
<!-- Generator: Adobe Illustrator 21.0.0, SVG Export Plug-In . SVG Version: 6.00 Build 0)  -->
<svg version="1.1" id="Layer_1" xmlns="http://www.w3.org/2000/svg" xmlns:xlink="http://www.w3.org/1999/xlink" x="0px" y="0px"
	 viewBox="0 0 232.3 79.2" style="enable-background:new 0 0 232.3 79.2;" xml:space="preserve">
<style type="text/css">
	.st0{fill:#00B2A9;}
	.st1{fill:#FFFFFF;}
	.st2{fill:#963CBD;}
	.st3{fill:#ED8B00;}
	.st4{fill:#2C3E50;}
	.st5{fill:none;stroke:#0373BB;stroke-miterlimit:10;}
	.st6{fill:#8E99A8;}
	.st7{fill:#00B1A8;}
	.st8{fill:#001871;}
	.st9{fill:#418FDE;}
	.st10{fill:#FFB40F;}
	.st11{opacity:0.85;}
	.st12{fill:none;stroke:#6D6E71;stroke-linecap:round;stroke-linejoin:round;}
	.st13{fill:#0373BB;}
	.st14{fill:#919396;}
	.st15{fill:#0373B9;}
	.st16{fill:#A7A9AC;}
	.st17{fill:#F4F4F4;}
	.st18{opacity:0.1;clip-path:url(#SVGID_2_);}
	.st19{fill:#606060;}
</style>
<g>
	<g>
		<g>
			<path class="st17" d="M228.2,0L4.1,0C1.8,0,0,1.8,0,4.1l0,71.1c0,2.3,1.8,4.1,4.1,4.1h224.1c2.3,0,4.1-1.8,4.1-4.1V4.1
				C232.3,1.8,230.4,0,228.2,0z"/>
		</g>
	</g>
	<g>
		<defs>
			<rect id="SVGID_1_" x="0" y="0" width="232.3" height="79.2"/>
		</defs>
		<clipPath id="SVGID_2_">
			<use xlink:href="#SVGID_1_"  style="overflow:visible;"/>
		</clipPath>
		<g class="st18">
			<g>
				<g>
					<g>
						<g>
							<g>
								<g>
									<g>
										<path class="st19" d="M76.3,21.6c0,11.2,0,22.4,0,33.6c-7.5,0-15,0-22.5,0c0,1.1,0,2.1,0,3.1c0,0.1,0.2,0.2,0.3,0.2
											c0.9,0,1.7,0,2.6,0c0.5,0,1,0,1.5,0c0,0.8,0,1.5,0,2.2c-6,0-11.9,0-17.9,0c0-0.7,0-1.4,0-2.2c0.2,0,0.3,0,0.5,0
											c1.2,0,2.3,0,3.5,0c0.4,0,0.5-0.1,0.5-0.5c0-0.7,0-1.4,0-2.2c0-0.2,0-0.4,0-0.7c-7.6,0-15,0-22.5,0c0-11.2,0-22.4,0-33.6
											c0.9,0,1.8,0,2.7,0c0.4,0,0.4-0.1,0.4-0.4c0-1.4,0-2.8,0-4.1c0-0.2,0-0.3,0-0.5c0.1,0,0.2,0,0.3,0
											c2.8,0.6,5.5,1.2,8.3,1.7c4.3,0.9,8.6,1.9,12.9,2.8c1.3,0.3,2.6,0.7,3.9,0.2c0.3-0.1,0.6-0.1,0.9-0.2
											c3.6-0.8,7.2-1.5,10.8-2.3c2.9-0.6,5.8-1.2,8.6-1.8c0.7-0.1,1.3-0.3,2-0.4c0,0.2,0,0.4,0,0.5c0,1.4,0,2.8,0,4.1
											c0,0.3,0.1,0.5,0.4,0.4C74.5,21.5,75.4,21.6,76.3,21.6z M30.2,32.6c0,0,0-0.1,0.1-0.1c1.4,0,2.9,0,4.3,0
											c0.3,0,0.4-0.1,0.4-0.4c0-3.7,0-7.3,0-11c0-0.3-0.1-0.4-0.4-0.5c-1.6-0.3-3.3-0.7-4.9-1c-0.7-0.1-1.3-0.3-2.1-0.4
											c0,0.3,0,0.5,0,0.7c0,9.2,0,18.5,0,27.7c0,0.7,0,0.7,0.7,0.9c3.2,0.7,6.5,1.4,9.7,2.1c3.2,0.7,6.5,1.4,9.7,2.1
											c0.1,0,0.3,0,0.5,0c0-0.2,0-0.4,0-0.6c0-9.2,0-18.5,0-27.7c0-0.1,0-0.2,0-0.3c0-0.3-0.1-0.4-0.4-0.4
											c-1.6-0.3-3.2-0.7-4.8-1c-0.7-0.2-1.4-0.3-2.1-0.5c0,3.5,0,7,0,10.5c1.6,0,3.2,0,4.9,0c-2.7,3-5.2,5.8-7.8,8.7
											C35.3,38.3,32.7,35.5,30.2,32.6z M71,19.2c-0.3,0-0.5,0.1-0.6,0.1c-2.8,0.6-5.6,1.2-8.4,1.8c-3.7,0.8-7.4,1.6-11,2.3
											c-0.4,0.1-0.5,0.2-0.5,0.6c0,9.4,0,18.7,0,28.1c0,0.1,0,0.3,0,0.5c2.1-0.5,4.2-0.9,6.3-1.3c4.6-1,9.2-2,13.8-2.9
											c0.4-0.1,0.5-0.2,0.5-0.6c0-9.3,0-18.6,0-27.9C71,19.6,71,19.4,71,19.2z"/>
										<path class="st19" d="M67.9,23.8c0.2,0.7,0.4,1.4,0.7,2.1c-4.9,1.6-9.8,3.2-14.7,4.9c-0.2-0.7-0.5-1.4-0.7-2.1
											C58,27,62.9,25.4,67.9,23.8z"/>
										<path class="st19" d="M53.8,36.8c-0.2-0.7-0.5-1.4-0.7-2.1c4.9-1.6,9.8-3.2,14.7-4.9c0.2,0.7,0.5,1.4,0.7,2.1
											C63.7,33.5,58.8,35.1,53.8,36.8z"/>
										<path class="st19" d="M53.1,46.7c4.9-1.6,9.8-3.2,14.7-4.9c0.2,0.7,0.5,1.4,0.7,2.1c-4.9,1.6-9.8,3.2-14.7,4.9
											C53.6,48,53.4,47.4,53.1,46.7z"/>
										<path class="st19" d="M53.9,42.8c-0.2-0.7-0.5-1.4-0.7-2.1c4.9-1.6,9.8-3.2,14.7-4.9c0.2,0.7,0.5,1.4,0.7,2.1
											C63.7,39.5,58.8,41.1,53.9,42.8z"/>
									</g>
								</g>
							</g>
						</g>
					</g>
				</g>
			</g>
			<g>
				<path class="st19" d="M117.3,16.2c0,19.5,0,25.1,0,44.7c-11.4,0-22.7,0-34.1,0c0-19.5,0-25.1,0-44.7
					C94.5,16.2,105.9,16.2,117.3,16.2z M85.7,18.6c0,17.9,0,22,0,39.8c9.8,0,19.5,0,29.1,0c0-17.9,0-21.9,0-39.8
					C105.1,18.6,95.5,18.6,85.7,18.6z"/>
				<path class="st19" d="M102.3,30.3c-1.7,1.6-3.4,3.1-5.3,4.8c1.6,1.5,3,2.8,4.4,4.1c-1.9,2.1-5.8,1.8-8-0.3
					c-2.3-2.4-2.4-6.1-0.1-8.6C95.7,27.7,99.4,27.7,102.3,30.3z"/>
				<path class="st19" d="M111.2,44.3c0,0.8,0,1.5,0,2.3c-7.3,0-14.5,0-21.9,0c0-0.7,0-1.4,0-2.3C96.6,44.3,103.8,44.3,111.2,44.3z"
					/>
				<path class="st19" d="M108.1,22.3c0,0.8,0,1.5,0,2.3c-5.7,0-11.3,0-17,0c0-0.8,0-1.5,0-2.3C96.8,22.3,102.4,22.3,108.1,22.3z"/>
				<path class="st19" d="M105,39.2c-1.4-1.3-2.7-2.7-4.1-4.1c1.7-1.6,3.4-3.1,5.1-4.7C108.4,31.9,108.2,37.5,105,39.2z"/>
				<path class="st19" d="M89.3,55.1c0-1.6,0-3.1,0-4.7c1.6,0,3.1,0,4.8,0c0,1.5,0,3.1,0,4.7C92.5,55.1,90.9,55.1,89.3,55.1z"/>
				<path class="st19" d="M102.6,50.4c0,1.6,0,3.1,0,4.7c-1.5,0-3.1,0-4.7,0c0-1.5,0-3.1,0-4.7C99.5,50.4,101,50.4,102.6,50.4z"/>
				<path class="st19" d="M106.5,50.4c1.6,0,3.1,0,4.7,0c0,1.6,0,3.1,0,4.7c-1.5,0-3.1,0-4.7,0C106.5,53.6,106.5,52,106.5,50.4z"/>
			</g>
			<g>
				<path class="st19" d="M143.1,22.1c5.3,0,10.6,0,15.9,0c2.2,0,3.5,1.4,3.5,3.5c-0.1,8.6-0.1,17.2,0,25.8c0,2-1.1,3.6-3.5,3.6
					c-7.3,0-14.6,0-22,0c-3.2,0-6.5,0-9.7,0c-2.3,0-3.5-1.2-3.5-3.5c0-8.7,0-17.4,0-26.1c0-1.7,1.2-3.3,3.3-3.3
					C132.4,22.1,137.8,22.1,143.1,22.1z M126.6,52c0.4,0,0.7,0,1.1,0c10.2,0,20.5,0,30.7,0c1.2,0,1.2,0,1.2-1.3c0-8.2,0-16.4,0-24.7
					c0-0.7-0.2-1-0.9-1c-10.4,0-20.8,0-31.2,0c-0.7,0-0.9,0.2-0.9,0.9c0,7.1,0,14.2,0,21.4C126.6,48.9,126.6,50.4,126.6,52z"/>
				<path class="st19" d="M138.7,38.5c0-1.7,0-3.4,0-5.1c0-1.4,0.9-1.9,2-1.2c2.9,1.8,5.9,3.4,8.8,5.2c1.5,0.9,1.5,1.6,0,2.5
					c-3,1.7-5.9,3.5-8.9,5.2c-1.2,0.7-1.9,0.2-2-1.1C138.6,42.1,138.7,40.3,138.7,38.5C138.7,38.5,138.7,38.5,138.7,38.5z"/>
			</g>
			<g>
				<g>
					<g>
						<g>
							<g>
								<g>
									<path class="st19" d="M196,55.3c0-0.7-0.6-1.3-0.6-2c-8.4,0-16.7,0-25.1,0c0-7.7,0-15.3,0-22.9c13.1,0,26.2,0,39.3,0
										c0,7.6,0,22.9,0,22.9l-14.1,0v2c0,0,14.1,0.1,16,0c0.9-0.1,1-1,1-1.8c0-3.6,0-7.2,0-10.8c0-6.2,0-12.5,0-18.7
										c0-1.9-0.3-2.2-2.1-2.2c-13.5,0-26.9,0-40.4,0c-1.8,0-2.1,0.3-2.1,2.2c0,9.7,0,19.5,0,29.2c0,1.6,0.5,2.1,2,2.1
										c8.3,0,16.7,0,25,0C194.9,55.3,195.8,55.3,196,55.3z M170.2,26.2c13.2,0,26.3,0,39.3,0c0,0.8,0,1.6,0,2.4
										c-13.2,0-26.2,0-39.3,0C170.2,27.8,170.2,27,170.2,26.2z M172.1,23.9c0,0.5-0.4,1-1,1s-1-0.4-1-1c0-0.5,0.4-1,1-1
										S172.1,23.4,172.1,23.9z M174.8,23.9c0,0.5-0.4,1-1,1s-1-0.4-1-1c0-0.5,0.4-1,1-1S174.8,23.4,174.8,23.9z M177.5,23.9
										c0,0.5-0.4,1-1,1c-0.5,0-1-0.4-1-1c0-0.5,0.4-1,1-1C177.1,23,177.5,23.4,177.5,23.9z"/>
									<path class="st19" d="M184.9,40.9c0,1.6,0,3.1,0,4.7c0,1.2,0.5,1.5,1.5,0.9c2.8-1.6,5.7-3.2,8.5-4.8c1.1-0.6,1.1-1.1,0-1.7
										c-2.8-1.6-5.6-3.2-8.4-4.8c-1.2-0.6-1.6-0.4-1.6,0.9C184.8,37.7,184.9,39.3,184.9,40.9z"/>
								</g>
							</g>
						</g>
					</g>
				</g>
			</g>
		</g>
	</g>
</g>
</svg>
