<?xml version="1.0" encoding="utf-8"?>
<!-- Generator: Adobe Illustrator 21.0.0, SVG Export Plug-In . SVG Version: 6.00 Build 0)  -->
<svg version="1.1" id="Layer_1" xmlns="http://www.w3.org/2000/svg" xmlns:xlink="http://www.w3.org/1999/xlink" x="0px" y="0px"
	 viewBox="0 0 63.2 47.5" style="enable-background:new 0 0 63.2 47.5;" xml:space="preserve">
<style type="text/css">
	.st0{fill:#00B2A9;}
	.st1{fill:#FFFFFF;}
	.st2{fill:#963CBD;}
	.st3{fill:#ED8B00;}
	.st4{fill:#2C3E50;}
	.st5{fill:none;stroke:#0373BB;stroke-miterlimit:10;}
	.st6{fill:#8E99A8;}
	.st7{fill:#00B1A8;}
	.st8{fill:#001871;}
	.st9{fill:#418FDE;}
	.st10{fill:#FFB40F;}
	.st11{opacity:0.85;}
	.st12{fill:none;stroke:#6D6E71;stroke-linecap:round;stroke-linejoin:round;}
	.st13{fill:#0373BB;}
	.st14{fill:#919396;}
	.st15{fill:#0373B9;}
	.st16{fill:#A7A9AC;}
	.st17{fill:#F4F4F4;}
	.st18{opacity:0.1;clip-path:url(#SVGID_2_);}
	.st19{fill:#606060;}
</style>
<g>
	<g>
		<g>
			<g>
				<g>
					<g>
						<path class="st15" d="M40.1,47.4c0-0.9-0.9-1.8-0.9-2.8c-11.9,0-23.7,0-35.6,0c0-10.9,0-21.6,0-32.4c18.6,0,37,0,55.7,0
							c0,10.8,0,32.5,0,32.5l-20,0v2.8c0,0,20,0.1,22.7-0.1c1.3-0.1,1.4-1.4,1.4-2.5c0-5.1,0-10.2,0-15.3c0-8.8,0-17.7,0-26.5
							c0-2.7-0.4-3.1-3-3.1C41.2,0,22.1,0,3,0C0.4,0,0,0.4,0,3.1c0,13.8,0,27.6,0,41.4c0,2.3,0.7,3,2.9,3c11.8,0,23.6,0,35.5,0
							C38.6,47.5,39.8,47.4,40.1,47.4z M3.5,6.3c18.7,0,37.2,0,55.7,0c0,1.2,0,2.3,0,3.4c-18.6,0-37.1,0-55.7,0
							C3.5,8.4,3.5,7.4,3.5,6.3z M6.3,3c0,0.8-0.6,1.4-1.4,1.4S3.5,3.8,3.5,3s0.6-1.4,1.4-1.4S6.3,2.3,6.3,3z M10.1,3
							c0,0.8-0.6,1.4-1.4,1.4S7.3,3.8,7.3,3s0.6-1.4,1.4-1.4S10.1,2.3,10.1,3z M13.9,3c0,0.8-0.6,1.4-1.4,1.4S11.2,3.8,11.2,3
							s0.6-1.4,1.4-1.4S13.9,2.3,13.9,3z"/>
						<path class="st15" d="M24.4,27.1c0,2.2,0,4.4,0,6.7c0,1.7,0.7,2.1,2.2,1.3c4-2.3,8-4.5,12-6.8c1.5-0.9,1.5-1.6-0.1-2.5
							c-3.9-2.3-7.9-4.5-11.9-6.7c-1.6-0.9-2.2-0.6-2.3,1.3C24.3,22.6,24.4,24.9,24.4,27.1z"/>
					</g>
				</g>
			</g>
		</g>
	</g>
</g>
</svg>
