<?xml version="1.0" encoding="utf-8"?>
<!-- Generator: Adobe Illustrator 21.0.0, SVG Export Plug-In . SVG Version: 6.00 Build 0)  -->
<svg version="1.1" id="Layer_1" xmlns="http://www.w3.org/2000/svg" xmlns:xlink="http://www.w3.org/1999/xlink" x="0px" y="0px"
	 viewBox="0 0 44.9 42.7" style="enable-background:new 0 0 44.9 42.7;" xml:space="preserve">
<style type="text/css">
	.st0{fill:#00B2A9;}
	.st1{fill:#FFFFFF;}
	.st2{fill:#963CBD;}
	.st3{fill:#ED8B00;}
	.st4{fill:#2C3E50;}
	.st5{fill:none;stroke:#0373BB;stroke-miterlimit:10;}
	.st6{fill:#8E99A8;}
	.st7{fill:#00B1A8;}
	.st8{fill:#001871;}
	.st9{fill:#418FDE;}
	.st10{fill:#FFB40F;}
	.st11{opacity:0.85;}
	.st12{fill:none;stroke:#6D6E71;stroke-linecap:round;stroke-linejoin:round;}
	.st13{fill:#0373BB;}
	.st14{fill:#919396;}
	.st15{fill:#0373B9;}
	.st16{fill:#A7A9AC;}
	.st17{fill:#F4F4F4;}
	.st18{opacity:0.1;clip-path:url(#SVGID_2_);}
	.st19{fill:#606060;}
</style>
<g>
	<g>
		<g>
			<g>
				<polygon class="st1" points="25.5,20.6 25.5,20.6 25.5,20.6 				"/>
			</g>
			<g>
				<polygon class="st1" points="21.5,21.6 21.5,21.6 21.5,21.6 				"/>
			</g>
		</g>
		<g>
			<g>
				<path class="st1" d="M32.5,16.8C32.5,16.8,32.5,16.8,32.5,16.8L32.5,16.8c-0.8-0.8-1.7-1.6-2.8-2.1l0,0v-0.1
					c-1.1-0.5-2.3-0.8-3.5-0.8c-3.5-0.1-6.6,2-8,5c0,0,0,0,0,0c-0.4,0.7-0.6,1.5-0.7,2.3c0,0,0,0,0,0c-0.1,0.4-0.1,0.8-0.1,1.2
					c0,0.1,0,0.2,0,0.3c0,0.3,0,0.6,0.1,0.9c0,0.1,0,0.3,0.1,0.4c0,0.1,0.1,0.3,0.1,0.4c0.8,3.8,4.2,6.8,8.3,6.8
					c1.4,0,2.7-0.3,3.9-0.8c1.1-0.5,2-1.2,2.8-2.1c1.3-1.5,2.1-3.4,2.1-5.5C34.7,20.4,33.9,18.4,32.5,16.8z M19.4,18.8
					c2.3,0,4.2,0,4.9,0c1.5,0,1.5,2.3,0,2.3c-0.8,0-3,0-5.7,0C18.7,20.3,18.9,19.5,19.4,18.8z M18.3,22.6c2.8,0,5.1,0,5.9,0
					c1.5,0,1.5,2.3,0,2.3c-0.7,0-2.9,0-5.5,0C18.5,24.2,18.3,23.4,18.3,22.6z M24.2,29.1c-0.4,0-1.2,0-2.2,0c-1-0.6-1.8-1.4-2.4-2.3
					c2.2,0,4,0,4.6,0C25.7,26.8,25.7,29.1,24.2,29.1z"/>
			</g>
			<g>
				<path class="st1" d="M29.7,33.5L29.7,33.5c-1.3,0.4-2.6,0.7-4,0.6c-0.2,0-0.3,0-0.4,0c0,0,0,0,0,0.1c-1.7-0.1-3.2-0.5-4.6-1.3
					c0,0,0.1,0,0.1,0c-1.8-0.9-3.2-2.2-4.4-3.8c0,0,0,0,0,0c-0.5-0.7-0.9-1.5-1.3-2.3c0,0,0,0,0,0c-0.2-0.6-0.4-1.2-0.6-1.9
					c0,0,0,0,0,0c0-0.1,0-0.1,0-0.2c0-0.2-0.1-0.4-0.1-0.6c0-0.2-0.1-0.3-0.1-0.5c0-0.3,0-0.7-0.1-1c0,0,0-0.1,0-0.1h0
					c0-0.1,0-0.2,0-0.3c0.1-6.4,5.5-11.5,11.9-11.4c1.2,0,2.4,0.2,3.5,0.6c1,0.3,2,0.8,2.8,1.4v-1.2V5.9l-6-5.9H0v42.3h32.5v-3.1
					v-5.8v-1.2C31.7,32.7,30.7,33.2,29.7,33.5L29.7,33.5z M13.4,21.1c-3,0-5.7,0-6.5,0c-1.5,0-1.5-2.3,0-2.3c0.9,0,3.8,0,7,0
					C13.7,19.5,13.5,20.3,13.4,21.1z M13.6,24.9c-3.1,0-5.8,0-6.7,0c-1.5,0-1.5-2.3,0-2.3c0.8,0,3.4,0,6.4,0
					C13.4,23.4,13.4,24.2,13.6,24.9z M13.3,15.1c-2,0-4,0-6.1,0c-1.5,0-1.5-2.3,0-2.3c2,0,4,0,6.1,0C14.7,12.8,14.7,15.1,13.3,15.1z
					 M13.3,11.3c-2,0-4,0-6.1,0c-1.5,0-1.5-2.3,0-2.3c2,0,4,0,6.1,0C14.8,9,14.8,11.3,13.3,11.3z M18.2,32.9c0.2,0,0.3,0,0.5,0
					c1.8,1.3,3.8,2,6,2.3c-0.1,0-0.3,0.1-0.4,0.1c-2,0-4,0-6.1,0C16.7,35.2,16.7,32.9,18.2,32.9z M15.2,29.1c-3.7,0-7.3,0-8.3,0
					c-1.5,0-1.5-2.3,0-2.3c0.9,0,3.9,0,7.2,0C14.4,27.6,14.7,28.4,15.2,29.1z"/>
			</g>
			<g>
				
					<rect x="37.4" y="30.5" transform="matrix(0.7218 -0.6921 0.6921 0.7218 -14.5855 37.4287)" class="st1" width="3.6" height="12.6"/>
			</g>
		</g>
	</g>
</g>
</svg>
