<svg id="Layer_1" data-name="Layer 1" xmlns="http://www.w3.org/2000/svg" viewBox="0 0 247.59 128.92"><defs><style>.cls-1{fill:#0373b9;}</style></defs><title>Calculate popup</title><path class="cls-1" d="M94.5,39.63A3.66,3.66,0,0,0,90.85,36h-6.5a3.66,3.66,0,0,0-3.66,3.66v6.5a3.66,3.66,0,0,0,3.66,3.66h6.5a3.66,3.66,0,0,0,3.66-3.66v-6.5Z"/><path class="cls-1" d="M112.52,49.79H119a3.66,3.66,0,0,0,3.66-3.66v-6.5A3.66,3.66,0,0,0,119,36h-6.5a3.66,3.66,0,0,0-3.66,3.66v6.5a3.66,3.66,0,0,0,3.66,3.66Z"/><path class="cls-1" d="M140.67,36A3.66,3.66,0,0,0,137,39.63v6.5a3.66,3.66,0,0,0,3.66,3.66h6.5a3.66,3.66,0,0,0,3.66-3.66v-6.5A3.66,3.66,0,0,0,147.17,36Z"/><path class="cls-1" d="M94.5,61.41a3.66,3.66,0,0,0-3.66-3.66h-6.5a3.66,3.66,0,0,0-3.66,3.66v6.5a3.66,3.66,0,0,0,3.66,3.66h6.5a3.66,3.66,0,0,0,3.66-3.66v-6.5Z"/><path class="cls-1" d="M90.85,79.54h-6.5a3.66,3.66,0,0,0-3.66,3.66v6.5a3.66,3.66,0,0,0,3.66,3.66h6.5A3.66,3.66,0,0,0,94.5,89.7V83.2a3.66,3.66,0,0,0-3.66-3.66Z"/><path class="cls-1" d="M85.23,19.31A4.32,4.32,0,0,0,89.55,15V4.32a4.32,4.32,0,0,0-8.64,0V15a4.32,4.32,0,0,0,4.32,4.32Z"/><path class="cls-1" d="M115.77,19.31A4.32,4.32,0,0,0,120.09,15V4.32a4.32,4.32,0,0,0-8.64,0V15a4.32,4.32,0,0,0,4.32,4.32Z"/><path class="cls-1" d="M146.28,19.31A4.32,4.32,0,0,0,150.6,15V4.32a4.32,4.32,0,0,0-8.64,0V15a4.32,4.32,0,0,0,4.32,4.32Z"/><path class="cls-1" d="M122.67,67.91v-6.5A3.66,3.66,0,0,0,119,57.76h-6.5a3.66,3.66,0,0,0-3.66,3.66v6.5a3.66,3.66,0,0,0,3.66,3.66H119a3.66,3.66,0,0,0,3.66-3.66Z"/><path class="cls-1" d="M112.52,79.54a3.66,3.66,0,0,0-3.66,3.66v6.5a3.66,3.66,0,0,0,3.66,3.66h4.56a40.58,40.58,0,0,1,1.71-13.81Z"/><path class="cls-1" d="M118,100.09H69v-71h93.43v22a40.49,40.49,0,0,1,7.65,1.68V15.24a5.59,5.59,0,0,0-5.59-5.59H153.39V15a7.11,7.11,0,1,1-14.21,0V9.65h-16.3V15a7.11,7.11,0,1,1-14.21,0V9.65H92.34V15a7.11,7.11,0,1,1-14.21,0V9.65H67a5.59,5.59,0,0,0-5.59,5.59v86.88A5.59,5.59,0,0,0,67,107.71h53.46a40.36,40.36,0,0,1-2.48-7.62Z"/><path class="cls-1" d="M191.3,60.6a3.41,3.41,0,0,0-3.37,3l-.65,4.84a37.53,37.53,0,1,0-4.69,51,3.42,3.42,0,1,0-4.55-5.1,30.69,30.69,0,1,1,2.74-43.07c-3.71-1.46-3.85-1.6-4.69-1.6a3.4,3.4,0,0,0-1.25,6.57l12.53,5a3.41,3.41,0,0,0,3.38-.51,6.15,6.15,0,0,1,.59-.42,3.39,3.39,0,0,0,1.57-2.43l1.78-13.35a3.41,3.41,0,0,0-3.38-3.85Z"/><path class="cls-1" d="M155.12,67.05a3.63,3.63,0,0,0-3.63,3.63V93.51a3.63,3.63,0,0,0,3.63,3.63H178a3.63,3.63,0,1,0,0-7.25H158.75V70.68a3.63,3.63,0,0,0-3.63-3.63Z"/><path class="cls-1" d="M30.09,88.2a.67.67,0,1,0,.95-.95L29,85.2a.67.67,0,1,0-.95.95l2.05,2.05Z"/><path class="cls-1" d="M30.32,90a.67.67,0,0,0-.67-.67h-2.9a.67.67,0,1,0,0,1.34h2.9a.67.67,0,0,0,.67-.67Z"/><path class="cls-1" d="M30.17,91.86l-2.05,2.05a.67.67,0,1,0,.95.95l2.05-2.05a.67.67,0,0,0-.95-.95Z"/><path class="cls-1" d="M33,92.58a.67.67,0,0,0-.67.67v2.9a.67.67,0,1,0,1.34,0v-2.9a.67.67,0,0,0-.67-.67Z"/><path class="cls-1" d="M35.73,91.78a.67.67,0,1,0-.95.95l2.05,2.05a.67.67,0,0,0,.95-.95l-2.05-2.05Z"/><path class="cls-1" d="M39.07,89.26h-2.9a.67.67,0,1,0,0,1.34h2.9a.67.67,0,0,0,0-1.34Z"/><path class="cls-1" d="M35.17,88.32a.67.67,0,0,0,.47-.2l2.05-2.05a.67.67,0,1,0-.95-.95L34.7,87.17a.67.67,0,0,0,.47,1.14Z"/><path class="cls-1" d="M32.85,87.4a.67.67,0,0,0,.67-.67v-2.9a.67.67,0,0,0-1.34,0v2.9a.67.67,0,0,0,.67.67Z"/><path class="cls-1" d="M30.06,15.78a.88.88,0,0,0-.88.88v3.82a.88.88,0,1,0,1.76,0V16.66a.88.88,0,0,0-.88-.88Z"/><path class="cls-1" d="M30.06,24.6a.88.88,0,0,0-.88.88V29.3a.88.88,0,1,0,1.76,0V25.48a.88.88,0,0,0-.88-.88Z"/><path class="cls-1" d="M36.37,22.1H32.55a.88.88,0,1,0,0,1.76h3.82a.88.88,0,1,0,0-1.76Z"/><path class="cls-1" d="M27.56,22.1H23.74a.88.88,0,0,0,0,1.76h3.82a.88.88,0,0,0,0-1.76Z"/><path class="cls-1" d="M247.31,72.7a1,1,0,0,0,0-1.35l-2.93-2.93A1,1,0,0,0,243,69.77L246,72.7a1,1,0,0,0,1.35,0Z"/><path class="cls-1" d="M240.56,65.94a1,1,0,0,0,0-1.35l-2.93-2.93A1,1,0,0,0,236.28,63l2.93,2.93a1,1,0,0,0,1.35,0Z"/><path class="cls-1" d="M237.63,72.7l2.93-2.93a1,1,0,1,0-1.35-1.35l-2.93,2.93a1,1,0,0,0,1.35,1.35Z"/><path class="cls-1" d="M244.39,65.94,247.31,63A1,1,0,0,0,246,61.67L243,64.59a1,1,0,0,0,1.35,1.35Z"/><path class="cls-1" d="M234.77,8.57a2.89,2.89,0,1,0,2.89,2.89,2.89,2.89,0,0,0-2.89-2.89Zm0,7a4.11,4.11,0,1,1,4.11-4.11,4.11,4.11,0,0,1-4.11,4.11Z"/><path class="cls-1" d="M236,112.33l-3.47,3.47-3.47-3.47a.8.8,0,1,0-1.13,1.13l3.47,3.47-3.47,3.47a.8.8,0,1,0,1.13,1.13l3.47-3.47,3.47,3.47a.8.8,0,1,0,1.13-1.13l-3.47-3.47,3.47-3.47a.8.8,0,0,0-1.13-1.13Z"/><path class="cls-1" d="M6.23,117.38a5.57,5.57,0,0,1,4.91-4.82.83.83,0,1,1,.18,1.64,3.92,3.92,0,1,0,3.49,1.44.83.83,0,1,1,1.29-1,5.57,5.57,0,1,1-9.86,2.78Z"/><path class="cls-1" d="M218.93,91.81a2.21,2.21,0,1,1-2.21-2.21,2.21,2.21,0,0,1,2.21,2.21Z"/><path class="cls-1" d="M14.63,6.15a2.21,2.21,0,1,1-2.21-2.21,2.21,2.21,0,0,1,2.21,2.21Z"/><path class="cls-1" d="M6.94,60.35V57.77a2.45,2.45,0,0,1,2.45-2.45H12c.76-.67.3-1.51-.36-1.51H9.39a2.45,2.45,0,0,1-2.45-2.45V48.77c-.67-.76-1.51-.3-1.51.36v2.21A2.45,2.45,0,0,1,3,53.81H.39c-.76.67-.3,1.51.36,1.51H3a2.45,2.45,0,0,1,2.45,2.45V60c0,.66.85,1.12,1.51.36Z"/><path class="cls-1" d="M214.42,38V34.68a3.17,3.17,0,0,1,3.17-3.17h3.33c1-.86.38-2-.47-2h-2.86a3.17,3.17,0,0,1-3.17-3.17V23.06c-.86-1-2-.38-2,.47v2.86a3.17,3.17,0,0,1-3.17,3.17H206c-1,.86-.38,2,.47,2h2.86a3.17,3.17,0,0,1,3.17,3.17v2.86c0,.85,1.09,1.45,2,.47Z"/></svg>