<?xml version="1.0" encoding="utf-8"?>
<!-- Generator: Adobe Illustrator 21.0.0, SVG Export Plug-In . SVG Version: 6.00 Build 0)  -->
<svg version="1.1" id="Layer_1" xmlns="http://www.w3.org/2000/svg" xmlns:xlink="http://www.w3.org/1999/xlink" x="0px" y="0px"
	 viewBox="0 0 100 100" style="enable-background:new 0 0 100 100;" xml:space="preserve">
<style type="text/css">
	.st0{fill:#FFFFFF;}
	.st1{fill:#6D6E71;}
</style>
<g>
	<g>
		<g>
			<path class="st0" d="M50,100L50,100C22.5,100,0,77.5,0,50v0C0,22.5,22.5,0,50,0h0c27.5,0,50,22.5,50,50v0
				C100,77.5,77.5,100,50,100z"/>
		</g>
		<g>
			<path class="st1" d="M61.8,46.1L61.8,46.1L61.8,46.1c-0.7-0.7-1.6-1.4-2.5-1.9l0,0v-0.1c-1-0.5-2-0.7-3.2-0.8
				c-3.2-0.1-5.9,1.8-7.2,4.5c0,0,0,0,0,0c-0.3,0.7-0.5,1.4-0.7,2.1h0c-0.1,0.3-0.1,0.7-0.1,1.1c0,0.1,0,0.2,0,0.3
				c0,0.3,0,0.6,0.1,0.8c0,0.1,0,0.3,0,0.4c0,0.1,0,0.2,0.1,0.3c0.7,3.4,3.8,6,7.4,6.1c1.3,0,2.4-0.2,3.5-0.8c1-0.5,1.8-1.1,2.5-1.9
				c1.2-1.3,1.9-3.1,1.9-5C63.8,49.4,63,47.5,61.8,46.1z M50,47.9c2.1,0,3.8,0,4.4,0c1.3,0,1.3,2.1,0,2.1c-0.7,0-2.7,0-5.1,0
				C49.4,49.3,49.6,48.5,50,47.9z M49.1,51.3c2.5,0,4.6,0,5.3,0c1.3,0,1.3,2.1,0,2.1c-0.7,0-2.6,0-4.9,0
				C49.2,52.7,49.1,52,49.1,51.3z M54.4,57.2c-0.3,0-1,0-1.9,0c-0.9-0.5-1.6-1.2-2.2-2.1c2,0,3.6,0,4.1,0
				C55.7,55.1,55.7,57.2,54.4,57.2z"/>
			<path class="st1" d="M59.3,61.1L59.3,61.1c-1.1,0.4-2.3,0.6-3.6,0.6c-0.1,0-0.3,0-0.4,0c0,0,0,0,0,0.1c-1.5-0.1-2.9-0.5-4.1-1.1
				c0,0,0.1,0,0.1,0c-1.6-0.8-2.9-1.9-3.9-3.4c0,0,0,0,0,0c-0.4-0.7-0.8-1.4-1.1-2.1c0,0,0,0,0,0c-0.2-0.5-0.4-1.1-0.5-1.7h0
				c0-0.1,0-0.1,0-0.2c0-0.2-0.1-0.3-0.1-0.5c0-0.2,0-0.3-0.1-0.5c0-0.3,0-0.6,0-0.9c0,0,0-0.1,0-0.1h0c0-0.1,0-0.2,0-0.3
				c0.1-5.7,4.9-10.3,10.6-10.2c1.1,0,2.1,0.2,3.1,0.5c0.9,0.3,1.7,0.7,2.5,1.3v-1v-5.3l-5.4-5.2H32.7v37.8h29.1v-2.7V61v-1.1
				C61,60.4,60.2,60.8,59.3,61.1L59.3,61.1z M44.7,50c-2.7,0-5.1,0-5.8,0c-1.3,0-1.3-2.1,0-2.1c0.8,0,3.4,0,6.3,0
				C44.9,48.6,44.8,49.3,44.7,50z M44.8,53.4c-2.8,0-5.2,0-6,0c-1.3,0-1.3-2.1,0-2.1c0.7,0,3.1,0,5.8,0C44.6,52,44.7,52.7,44.8,53.4
				z M44.6,44.6c-1.8,0-3.6,0-5.4,0c-1.3,0-1.3-2.1,0-2.1c1.8,0,3.6,0,5.4,0C45.9,42.5,45.9,44.6,44.6,44.6z M44.6,41.2
				c-1.8,0-3.6,0-5.4,0c-1.3,0-1.3-2.1,0-2.1c1.8,0,3.6,0,5.4,0C45.9,39.1,45.9,41.2,44.6,41.2z M48.9,60.5c0.2,0,0.3,0,0.5,0
				c1.6,1.1,3.4,1.8,5.3,2c-0.1,0-0.2,0.1-0.4,0.1c-1.8,0-3.6,0-5.4,0C47.6,62.6,47.6,60.5,48.9,60.5z M46.3,57.2
				c-3.3,0-6.5,0-7.4,0c-1.3,0-1.3-2.1,0-2.1c0.8,0,3.5,0,6.4,0C45.5,55.8,45.9,56.5,46.3,57.2z"/>
			
				<rect x="66.2" y="58.4" transform="matrix(0.7218 -0.6921 0.6921 0.7218 -25.4861 64.7605)" class="st1" width="3.2" height="11.3"/>
		</g>
	</g>
</g>
</svg>
