<?xml version="1.0" encoding="utf-8"?>
<!-- Generator: Adobe Illustrator 21.0.0, SVG Export Plug-In . SVG Version: 6.00 Build 0)  -->
<svg version="1.1" id="Layer_1" xmlns="http://www.w3.org/2000/svg" xmlns:xlink="http://www.w3.org/1999/xlink" x="0px" y="0px"
	 viewBox="0 0 100 100" style="enable-background:new 0 0 100 100;" xml:space="preserve">
<style type="text/css">
	.st0{fill:#FFFFFF;}
	.st1{fill:#6D6E71;}
</style>
<g>
	<g>
		<g>
			<path class="st0" d="M50,100L50,100C22.5,100,0,77.5,0,50v0C0,22.5,22.5,0,50,0h0c27.5,0,50,22.5,50,50v0
				C100,77.5,77.5,100,50,100z"/>
		</g>
		<g>
			<path class="st1" d="M64.5,39.9h-2.8v-2.8c0-0.6-0.5-1.2-1.2-1.2h-2.8v-2.8c0-0.6-0.5-1.2-1.2-1.2H35.5c-0.6,0-1.2,0.5-1.2,1.2
				v26c0,0.6,0.5,1.2,1.2,1.2h2.8v2.8c0,0.6,0.5,1.2,1.2,1.2h2.8V67c0,0.6,0.5,1.2,1.2,1.2h21.2c0.6,0,1.2-0.5,1.2-1.2v-26
				C65.7,40.4,65.2,39.9,64.5,39.9z M38.2,37.1V58h-1.6V34.3h18.9V36H39.4C38.8,36,38.2,36.5,38.2,37.1z M43.3,39.9
				c-0.6,0-1.2,0.5-1.2,1.2v20.9h-1.6V38.3h18.9v1.6H43.3z M53.4,48.1c0,0.4-0.3,0.8-0.8,0.8h-4.2c-0.4,0-0.8-0.3-0.8-0.8
				c0-0.4,0.3-0.8,0.8-0.8h4.2C53.1,47.4,53.4,47.7,53.4,48.1z M59.4,60.9H48.5c-0.4,0-0.8-0.3-0.8-0.8s0.3-0.8,0.8-0.8h10.9
				c0.4,0,0.8,0.3,0.8,0.8S59.8,60.9,59.4,60.9z M59.4,57.8H48.5c-0.4,0-0.8-0.3-0.8-0.8c0-0.4,0.3-0.8,0.8-0.8h10.9
				c0.4,0,0.8,0.3,0.8,0.8C60.2,57.5,59.8,57.8,59.4,57.8z M59.4,54.7H48.5c-0.4,0-0.8-0.3-0.8-0.8s0.3-0.8,0.8-0.8h10.9
				c0.4,0,0.8,0.3,0.8,0.8S59.8,54.7,59.4,54.7z"/>
		</g>
	</g>
</g>
</svg>
