<svg id="Layer_1" data-name="Layer 1" xmlns="http://www.w3.org/2000/svg" viewBox="0 0 69.45 56.29"><defs><style>.cls-1{fill:#919396;}</style></defs><title>API - Copy</title><path class="cls-1" d="M13.14,29.26h-11A2,2,0,0,1,.34,26.17Q5.2,17.81,10.08,9.46,12.55,5.24,15,1a1.94,1.94,0,0,1,2.24-1,1.93,1.93,0,0,1,1.16,1Q20.76,5,23.09,9q5,8.53,10,17.06a2,2,0,0,1-1.85,3.23c-3.4,0-6.81,0-10.21,0h-.6c0-.21,0-.39,0-.57,0-1.11,0-2.22,0-3.34a3.41,3.41,0,0,0-3.76-3.45,3.36,3.36,0,0,0-3.44,3.51c0,.62,0,1.25,0,1.87S13.14,28.55,13.14,29.26Z"/><path class="cls-1" d="M20.81,39.57q0,6.77,0,13.53a2.93,2.93,0,0,1-1.89,3,3.38,3.38,0,0,1-1,.19c-.79,0-1.58,0-2.37,0a2.86,2.86,0,0,1-2.84-2.84q0-8.54,0-17.07A1.26,1.26,0,0,1,14,35q2.7,0,5.41,0a1.32,1.32,0,0,1,1.39,1.5c0,1,0,2.05,0,3.08Z"/><path class="cls-1" d="M58,37.84V46H38.61V37.84Z"/><path class="cls-1" d="M50,35.78V27.6H69.41c0,.12,0,.23,0,.35,0,2.46,0,4.92,0,7.38,0,.37-.09.49-.48.49H50.42C50.29,35.81,50.16,35.79,50,35.78Z"/><path class="cls-1" d="M50,7.1H69.42v8.18H50Z"/><path class="cls-1" d="M47.92,7.1v8.21H30.38a.87.87,0,0,1-.8-.44,5.88,5.88,0,0,1-1.12-4.21,24,24,0,0,0,0-3c0-.48.11-.63.61-.63,2.64,0,5.29,0,7.93,0H47.25Z"/><path class="cls-1" d="M38.6,25.52V17.36H58v8.16Z"/><path class="cls-1" d="M47.91,56.25H28.5V48.11H47.91Z"/><path class="cls-1" d="M69.43,48.09v8.17l-.49,0H50.5c-.35,0-.56,0-.55-.48q0-3.61,0-7.22c0-.41.11-.55.53-.55q7.32,0,14.65,0Z"/><path class="cls-1" d="M28.5,35.78V31.91c.93,0,1.84,0,2.74,0a7.58,7.58,0,0,0,2.06-.38,4.25,4.25,0,0,0,2.74-3.41c0-.16.06-.33.1-.52H47.91v8.19Z"/><path class="cls-1" d="M36.56,46h-13V37.8h.6c3.94,0,7.88,0,11.82,0,.5,0,.66.12.66.64,0,2.36,0,4.71,0,7.07C36.58,45.66,36.56,45.83,36.56,46Z"/><path class="cls-1" d="M14.49,33.63c0-1,0-2,0-2.92,0-1.77,0-3.53,0-5.3a2,2,0,0,1,1.29-2,2.18,2.18,0,0,1,3.17,1.85c0,2.66,0,5.32,0,8,0,.14-.18.39-.28.4C17.31,33.64,15.93,33.63,14.49,33.63Z"/><path class="cls-1" d="M36.55,25.48a.77.77,0,0,1-1-.45c-1.35-2.38-2.75-4.74-4.13-7.11-.1-.17-.19-.34-.31-.57h5.49Z"/></svg>