<svg xmlns="http://www.w3.org/2000/svg" xmlns:xlink="http://www.w3.org/1999/xlink" viewBox="0 0 1920 680"><defs><style>.cls-1{fill:none;}.cls-2{isolation:isolate;}.cls-3{fill:#0373b9;}.cls-4{clip-path:url(#clip-path);}.cls-5{opacity:0.32;mix-blend-mode:multiply;}.cls-6{fill:#231f20;}.cls-7{fill:#0087cd;}</style><clipPath id="clip-path"><rect class="cls-1" width="1920" height="680.56"/></clipPath></defs><title>Washington DC</title><g class="cls-2"><g id="Layer_1" data-name="Layer 1"><rect class="cls-3" width="1920" height="680"/><g class="cls-4"><g class="cls-5"><polygon class="cls-3" points="1433.3 629.05 1433.3 615.47 1440.59 622.75 1434.29 629.05 1433.3 629.05"/><polygon class="cls-3" points="1442.09 621.25 1435.59 614.75 1448.6 614.75 1442.09 621.25"/><polygon class="cls-3" points="1449.86 616.49 1449.86 629.01 1443.6 622.75 1449.86 616.49"/><polygon class="cls-3" points="1437.3 629.05 1442.09 624.25 1446.89 629.05 1437.3 629.05"/><polygon class="cls-3" points="1452 629.05 1452 615.46 1459.29 622.75 1452.99 629.05 1452 629.05"/><polygon class="cls-3" points="1460.79 621.25 1454.29 614.75 1467.29 614.75 1460.79 621.25"/><polygon class="cls-3" points="1468.57 616.48 1468.57 629.02 1462.29 622.75 1468.57 616.48"/><polygon class="cls-3" points="1456 629.05 1460.79 624.25 1465.58 629.05 1456 629.05"/><polygon class="cls-3" points="1470.7 629.05 1470.7 615.48 1477.98 622.75 1471.69 629.05 1470.7 629.05"/><polygon class="cls-3" points="1479.49 621.24 1473 614.75 1485.98 614.75 1479.49 621.24"/><polygon class="cls-3" points="1487.28 616.46 1487.28 629.04 1480.99 622.75 1487.28 616.46"/><polygon class="cls-3" points="1474.7 629.05 1479.49 624.26 1484.27 629.05 1474.7 629.05"/><path class="cls-3" d="M1430.71,613.84l48.06-3.8h-8.47a2.56,2.56,0,0,0,.15-.9c0-1.53-.07-2.49-.07-2.49v-2.87l4.17-3.91a1.88,1.88,0,0,0,.7-1.66c-.06-1.15.31-5.82.31-5.82l.51.13,1,1.41s1,.19,1.09-.26a14.29,14.29,0,0,0,.25-1.41l.45-3.9a11,11,0,0,0-.45-3.13,8.3,8.3,0,0,0-1.46-1.54l-.39-2.11s-.19-1-.83-.38v1.28h-.7l-.19-2.24s-.19-2.94-1.21-3.84a27,27,0,0,0-1.35-2.95,19.46,19.46,0,0,0-2.37-2.94s.84-6.14-1.21-8.13c-1.15-1.15-6-5-10.94.83a22.59,22.59,0,0,0-1.29,1.92l-.26.07a14.55,14.55,0,0,0-8.31,2.94c-1.73,1.79-4,4.16-5,4.54a27.84,27.84,0,0,0-2.81,2.81l-3.06,4.2a2.64,2.64,0,0,0-.09,2.78c.86,1.44,2.4,4.13,2.64,4.56s3.83,4.08,5.9,6.19a5.42,5.42,0,0,1,1.87,2c0,.29,1,2.21,1.44,2.35,0,0,.43,1.11-.29,1.44a1.67,1.67,0,0,0-.24.77c0,.14-1,3.64-1,3.64l-.7,1.2s-.77,3.24.46,5.44h-16.26m27.78-3.42a.71.71,0,0,1-.58-.39l.05-1.3.38-.43.72-1.11.77-1.39a7.17,7.17,0,0,0,.86-1,2.75,2.75,0,0,0,.58-1.49,17.52,17.52,0,0,0,1.73-2,6.82,6.82,0,0,1,.76-.82l.88.82s-1.06,3-1.3,3.5-.2.53-.2.53l.34,1.44v.48c-1.15.86-3.36,3-3.36,3S1458.89,606.62,1458.51,606.62Zm6,2.34a3,3,0,0,0-.21,1.09h-2.76c1.3-.76,3.17-2,3.17-2Z"/><polyline class="cls-3" points="910.6 627.1 913.29 624.4 915.99 627.1"/><polyline class="cls-3" points="918.76 627.1 914.68 623.02 920.45 617.25 920.45 627.1"/><polygon class="cls-3" points="919.27 615.65 913.3 621.63 907.32 615.65 919.27 615.65"/><polyline class="cls-3" points="905.22 627.1 905.22 616.32 911.91 623.02 907.83 627.1"/><polyline class="cls-3" points="927.82 627.1 930.52 624.4 933.22 627.1"/><polyline class="cls-3" points="935.99 627.1 931.9 623.02 937.67 617.25 937.67 627.1"/><polygon class="cls-3" points="936.5 615.65 930.52 621.63 924.54 615.65 936.5 615.65"/><polyline class="cls-3" points="922.44 627.1 922.44 616.32 929.14 623.02 925.05 627.1"/><polyline class="cls-3" points="945.04 627.1 947.74 624.4 950.44 627.1"/><polyline class="cls-3" points="953.21 627.1 949.13 623.02 954.89 617.25 954.89 627.1"/><polygon class="cls-3" points="953.72 615.65 947.74 621.63 941.77 615.65 953.72 615.65"/><polyline class="cls-3" points="939.66 627.1 939.66 616.32 946.36 623.02 942.28 627.1"/><polyline class="cls-3" points="962.27 627.1 964.97 624.4 967.67 627.1"/><polyline class="cls-3" points="970.43 627.1 966.35 623.02 972.12 617.25 972.12 627.1"/><polygon class="cls-3" points="970.94 615.65 964.97 621.63 958.99 615.65 970.94 615.65"/><polyline class="cls-3" points="956.89 627.1 956.89 616.32 963.58 623.02 959.5 627.1"/><polyline class="cls-3" points="979.49 627.1 982.19 624.4 984.89 627.1"/><polyline class="cls-3" points="987.66 627.1 983.58 623.02 989.34 617.25 989.34 627.1"/><polygon class="cls-3" points="988.17 615.65 982.19 621.63 976.22 615.65 988.17 615.65"/><polyline class="cls-3" points="974.11 627.1 974.11 616.32 980.81 623.02 976.73 627.1"/><polyline class="cls-3" points="996.72 627.1 999.41 624.4 1002.11 627.1"/><polyline class="cls-3" points="1004.88 627.1 1000.8 623.02 1006.57 617.25 1006.57 627.1"/><polygon class="cls-3" points="1005.39 615.65 999.42 621.63 993.44 615.65 1005.39 615.65"/><polyline class="cls-3" points="991.34 627.1 991.34 616.32 998.03 623.02 993.95 627.1"/><polyline class="cls-3" points="1013.94 627.1 1016.64 624.4 1019.34 627.1"/><polyline class="cls-3" points="1022.11 627.1 1018.02 623.02 1023.79 617.25 1023.79 627.1"/><polygon class="cls-3" points="1022.62 615.65 1016.64 621.63 1010.66 615.65 1022.62 615.65"/><polyline class="cls-3" points="1008.56 627.1 1008.56 616.32 1015.25 623.02 1011.17 627.1"/><polyline class="cls-3" points="1031.16 627.1 1033.86 624.4 1036.56 627.1"/><polyline class="cls-3" points="1039.33 627.1 1035.25 623.02 1041.01 617.25 1041.01 627.1"/><polygon class="cls-3" points="1039.84 615.65 1033.86 621.63 1027.89 615.65 1039.84 615.65"/><polyline class="cls-3" points="1025.78 627.1 1025.78 616.32 1032.48 623.02 1028.4 627.1"/><polyline class="cls-3" points="1048.39 627.1 1051.09 624.4 1053.79 627.1"/><polyline class="cls-3" points="1056.56 627.1 1052.47 623.02 1058.24 617.25 1058.24 627.1"/><polygon class="cls-3" points="1057.06 615.65 1051.09 621.63 1045.11 615.65 1057.06 615.65"/><polyline class="cls-3" points="1043.01 627.1 1043.01 616.32 1049.7 623.02 1045.62 627.1"/><polyline class="cls-3" points="1065.61 627.1 1068.31 624.4 1071.01 627.1"/><polyline class="cls-3" points="1073.78 627.1 1069.7 623.02 1075.46 617.25 1075.46 627.1"/><polygon class="cls-3" points="1074.29 615.65 1068.31 621.63 1062.34 615.65 1074.29 615.65"/><polyline class="cls-3" points="1060.23 627.1 1060.23 616.32 1066.93 623.02 1062.85 627.1"/><polyline class="cls-3" points="738.97 627.1 741.67 624.4 744.37 627.1"/><polyline class="cls-3" points="747.14 627.1 743.06 623.02 748.82 617.25 748.82 627.1"/><polygon class="cls-3" points="747.65 615.65 741.67 621.63 735.7 615.65 747.65 615.65"/><polyline class="cls-3" points="733.59 627.1 733.59 616.32 740.29 623.02 736.2 627.1"/><polyline class="cls-3" points="756.2 627.1 758.89 624.4 761.59 627.1"/><polyline class="cls-3" points="764.36 627.1 760.28 623.02 766.04 617.25 766.04 627.1"/><polygon class="cls-3" points="764.87 615.65 758.89 621.63 752.92 615.65 764.87 615.65"/><polyline class="cls-3" points="750.82 627.1 750.82 616.32 757.51 623.02 753.43 627.1"/><polyline class="cls-3" points="773.42 627.1 776.12 624.4 778.82 627.1"/><polyline class="cls-3" points="781.59 627.1 777.5 623.02 783.27 617.25 783.27 627.1"/><polygon class="cls-3" points="782.1 615.65 776.12 621.63 770.14 615.65 782.1 615.65"/><polyline class="cls-3" points="768.04 627.1 768.04 616.32 774.73 623.02 770.65 627.1"/><polyline class="cls-3" points="790.64 627.1 793.34 624.4 796.04 627.1"/><polyline class="cls-3" points="798.81 627.1 794.73 623.02 800.49 617.25 800.49 627.1"/><polygon class="cls-3" points="799.32 615.65 793.34 621.63 787.37 615.65 799.32 615.65"/><polyline class="cls-3" points="785.26 627.1 785.26 616.32 791.96 623.02 787.88 627.1"/><polyline class="cls-3" points="807.87 627.1 810.56 624.4 813.26 627.1"/><polyline class="cls-3" points="816.03 627.1 811.95 623.02 817.72 617.25 817.72 627.1"/><polygon class="cls-3" points="816.54 615.65 810.57 621.63 804.59 615.65 816.54 615.65"/><polyline class="cls-3" points="802.49 627.1 802.49 616.32 809.18 623.02 805.1 627.1"/><polyline class="cls-3" points="825.09 627.1 827.79 624.4 830.49 627.1"/><polyline class="cls-3" points="833.26 627.1 829.18 623.02 834.94 617.25 834.94 627.1"/><polygon class="cls-3" points="833.77 615.65 827.79 621.63 821.82 615.65 833.77 615.65"/><polyline class="cls-3" points="819.71 627.1 819.71 616.32 826.41 623.02 822.32 627.1"/><polyline class="cls-3" points="842.31 627.1 845.01 624.4 847.71 627.1"/><polyline class="cls-3" points="850.48 627.1 846.4 623.02 852.16 617.25 852.16 627.1"/><polygon class="cls-3" points="850.99 615.65 845.01 621.63 839.04 615.65 850.99 615.65"/><polyline class="cls-3" points="836.93 627.1 836.93 616.32 843.63 623.02 839.55 627.1"/><polyline class="cls-3" points="859.54 627.1 862.24 624.4 864.94 627.1"/><polyline class="cls-3" points="867.71 627.1 863.62 623.02 869.39 617.25 869.39 627.1"/><polygon class="cls-3" points="868.22 615.65 862.24 621.63 856.26 615.65 868.22 615.65"/><polyline class="cls-3" points="854.16 627.1 854.16 616.32 860.85 623.02 856.77 627.1"/><polyline class="cls-3" points="876.76 627.1 879.46 624.4 882.16 627.1"/><polyline class="cls-3" points="884.93 627.1 880.85 623.02 886.61 617.25 886.61 627.1"/><polygon class="cls-3" points="885.44 615.65 879.46 621.63 873.49 615.65 885.44 615.65"/><polyline class="cls-3" points="871.38 627.1 871.38 616.32 878.08 623.02 874 627.1"/><polyline class="cls-3" points="893.99 627.1 896.68 624.4 899.38 627.1"/><polyline class="cls-3" points="902.15 627.1 898.07 623.02 903.84 617.25 903.84 627.1"/><polygon class="cls-3" points="902.66 615.65 896.69 621.63 890.71 615.65 902.66 615.65"/><polyline class="cls-3" points="888.61 627.1 888.61 616.32 895.3 623.02 891.22 627.1"/><polyline class="cls-3" points="1232.52 627.1 1235.21 624.4 1237.91 627.1"/><polyline class="cls-3" points="1240.68 627.1 1236.6 623.02 1242.37 617.25 1242.37 627.1"/><polygon class="cls-3" points="1241.19 615.65 1235.22 621.63 1229.24 615.65 1241.19 615.65"/><polyline class="cls-3" points="1227.14 627.1 1227.14 616.32 1233.83 623.02 1229.75 627.1"/><polyline class="cls-3" points="1249.74 627.1 1252.44 624.4 1255.14 627.1"/><polyline class="cls-3" points="1257.91 627.1 1253.83 623.02 1259.59 617.25 1259.59 627.1"/><polygon class="cls-3" points="1258.42 615.65 1252.44 621.63 1246.46 615.65 1258.42 615.65"/><polyline class="cls-3" points="1244.36 627.1 1244.36 616.32 1251.06 623.02 1246.97 627.1"/><polyline class="cls-3" points="1266.96 627.1 1269.66 624.4 1272.36 627.1"/><polyline class="cls-3" points="1275.13 627.1 1271.05 623.02 1276.81 617.25 1276.81 627.1"/><polygon class="cls-3" points="1275.64 615.65 1269.66 621.63 1263.69 615.65 1275.64 615.65"/><polyline class="cls-3" points="1261.58 627.1 1261.58 616.32 1268.28 623.02 1264.2 627.1"/><polyline class="cls-3" points="1284.19 627.1 1286.88 624.4 1289.59 627.1"/><polyline class="cls-3" points="1292.36 627.1 1288.27 623.02 1294.04 617.25 1294.04 627.1"/><polygon class="cls-3" points="1292.86 615.65 1286.89 621.63 1280.91 615.65 1292.86 615.65"/><polyline class="cls-3" points="1278.81 627.1 1278.81 616.32 1285.5 623.02 1281.42 627.1"/><polyline class="cls-3" points="1301.41 627.1 1304.11 624.4 1306.81 627.1"/><polyline class="cls-3" points="1309.58 627.1 1305.5 623.02 1311.26 617.25 1311.26 627.1"/><polygon class="cls-3" points="1310.09 615.65 1304.11 621.63 1298.14 615.65 1310.09 615.65"/><polyline class="cls-3" points="1296.03 627.1 1296.03 616.32 1302.73 623.02 1298.64 627.1"/><polyline class="cls-3" points="1318.63 627.1 1321.33 624.4 1324.03 627.1"/><polyline class="cls-3" points="1326.8 627.1 1322.72 623.02 1328.49 617.25 1328.49 627.1"/><polygon class="cls-3" points="1327.31 615.65 1321.34 621.63 1315.36 615.65 1327.31 615.65"/><polyline class="cls-3" points="1313.26 627.1 1313.26 616.32 1319.95 623.02 1315.87 627.1"/><polyline class="cls-3" points="1335.86 627.1 1338.56 624.4 1341.26 627.1"/><polyline class="cls-3" points="1344.03 627.1 1339.94 623.02 1345.71 617.25 1345.71 627.1"/><polygon class="cls-3" points="1344.54 615.65 1338.56 621.63 1332.58 615.65 1344.54 615.65"/><polyline class="cls-3" points="1330.48 627.1 1330.48 616.32 1337.17 623.02 1333.09 627.1"/><polyline class="cls-3" points="1353.08 627.1 1355.78 624.4 1358.48 627.1"/><polyline class="cls-3" points="1361.25 627.1 1357.17 623.02 1362.93 617.25 1362.93 627.1"/><polygon class="cls-3" points="1361.76 615.65 1355.78 621.63 1349.81 615.65 1361.76 615.65"/><polyline class="cls-3" points="1347.7 627.1 1347.7 616.32 1354.4 623.02 1350.32 627.1"/><polyline class="cls-3" points="1370.31 627.1 1373.01 624.4 1375.7 627.1"/><polyline class="cls-3" points="1378.47 627.1 1374.39 623.02 1380.16 617.25 1380.16 627.1"/><polygon class="cls-3" points="1378.98 615.65 1373.01 621.63 1367.03 615.65 1378.98 615.65"/><polyline class="cls-3" points="1364.93 627.1 1364.93 616.32 1371.62 623.02 1367.54 627.1"/><polyline class="cls-3" points="1387.53 627.1 1390.23 624.4 1392.93 627.1"/><polyline class="cls-3" points="1395.7 627.1 1391.62 623.02 1397.38 617.25 1397.38 627.1"/><polygon class="cls-3" points="1396.21 615.65 1390.23 621.63 1384.26 615.65 1396.21 615.65"/><polyline class="cls-3" points="1382.15 627.1 1382.15 616.32 1388.85 623.02 1384.76 627.1"/><path class="cls-3" d="M1129.81,615.42l-6.5,6.5-4.37-4.37a4,4,0,0,0,1.64-2.13Z"/><path class="cls-3" d="M1138.41,615.42a67.48,67.48,0,0,0,5,5.06l-1.44,1.44-6.5-6.5Z"/><polyline class="cls-3" points="1137.22 629.72 1142.01 624.93 1146.8 629.72"/><path class="cls-3" d="M1149.8,629.71l-6.29-6.29,1.53-1.53c1.53,1.29,3.12,2.5,4.75,3.65v4.17"/><polyline class="cls-3" points="1133.23 629.72 1133.23 616.15 1140.51 623.43 1134.21 629.72"/><path class="cls-3" d="M1095.83,629.72v-9.3a3.46,3.46,0,0,0,3.59-.69l3.7,3.7-6.29,6.29"/><path class="cls-3" d="M1103.51,615.42A23.57,23.57,0,0,0,1109,617l.44.07-4.8,4.8-4.23-4.23c0-.19.1-.36.14-.57l.79-1.47,0-.23Z"/><path class="cls-3" d="M1112.39,629.69l-6.27-6.26,5.79-5.79.47.12v11.93"/><polyline class="cls-3" points="1099.83 629.72 1104.62 624.93 1109.41 629.72"/><path class="cls-3" d="M1114.53,629.72V618.4l.71.25a9.06,9.06,0,0,0,1.58-.21l5,5-6.29,6.29"/><polyline class="cls-3" points="1118.53 629.72 1123.31 624.93 1128.1 629.72"/><polyline class="cls-3" points="1131.09 629.68 1124.82 623.42 1131.09 617.16 1131.09 629.68"/><path class="cls-3" d="M1093.7,629.68l-6.26-6.26,4.77-4.77a13.93,13.93,0,0,0,1.49.9v10.13"/><polyline class="cls-3" points="1081.14 629.72 1085.93 624.93 1090.71 629.72"/><path class="cls-3" d="M1122.49,587.2l-3,.48-1.71-.89-1-1.69c-.31-.56-5.13-5.64-5.13-5.64l1.23-1.41.07-.51-4.84-7s-1.46-4.77-10.68-5.32l-1.21.23.14-1s1.71,0,.95-1.19a15,15,0,0,1,.34-2.57s-.1-4.32-2.07-6.15l-.3-.69s3.08-1.56.85-1.46l-1.47.2s-1.3-3-6.11-3.29c-1.87.29-7.32,3-4.68,9.72-.16.23-1.18,3-.22,2.71a7.39,7.39,0,0,0,1.51-.58l1.34,1.74,1.38,2.4-1.07,1.17s-2.36,1-4.16,1.81-4.9,4.45-5.29,7.41a42.33,42.33,0,0,1-2,7.32s-.67,1.09,2.18,1.34v2.88s-.26,3,1.59,2.83c.81-.16,3.87,2.46,3.87,2.46l.16,4.74s-2.51,5.16,1,6.86a1.24,1.24,0,0,0-.09.19,3.17,3.17,0,0,0,.68,2.83,4.25,4.25,0,0,1,.83,2.65l-.65,1.92,6.32,14.92,60.22.58C1144.92,622.12,1120.42,580.21,1122.49,587.2Zm-34,24.43.76-1.49,1.41,1.49Zm22.36-23-2.1.1-2.29.48.1-.76a21.87,21.87,0,0,0-.62-4.27,4.57,4.57,0,0,1,.27-3l1.45.85,3.72,5.59Zm9.32,23c-1.5-3.76-2.35-5.38-2.35-5.38a12.64,12.64,0,0,0-5.54-5.64s1.68-.89,1.84-2a10.17,10.17,0,0,0-.07-2.5l1.69-1,.57-.31.65,0a2.76,2.76,0,0,0,1.72,1.79c1.4.44,3.48-.59,3.51-1.76a10.4,10.4,0,0,0-.14-2l-1.26-1.34a1.52,1.52,0,0,1,1.09-.38,17.49,17.49,0,0,0,2.13-.32,73.27,73.27,0,0,0,11.19,20.87Z"/><polygon class="cls-3" points="1091.65 615.42 1091.75 616.1 1085.93 621.91 1079.43 615.42 1091.65 615.42"/><polyline class="cls-3" points="1077.14 629.72 1077.14 616.15 1084.42 623.43 1078.13 629.72"/><line class="cls-3" x1="1075" y1="629.68" x2="1068.73" y2="623.42"/><path class="cls-3" d="M500.39,627.39H527.8V583.11a2.74,2.74,0,0,1,.42.3l.84,1.69-1,1.24,1.93,1.81-.5.88s-.18.43.25.5a10.21,10.21,0,0,1,2.05,1.49,2.46,2.46,0,0,1,1,.87,23.53,23.53,0,0,0,1.81,2.25s.75.62,1.18.13a13.19,13.19,0,0,1,2-1.43l1.07-.75a2.2,2.2,0,0,0,1.3.68s.94,2.63,1.62,4.25,1.69,1.56,1.69,2.43-.75,3.3.81,3.74l-1.62,1.69a3.91,3.91,0,0,0-.69,2.06V608l-2.11,2.87-.57.94a2.82,2.82,0,0,0-1.18,1.74c-.13.75-.37.88-.37.88s-.75,1.75-1.12,2.49-2.68,4-2.68,4l-1.18,2.37-1.06.56s-1.12,1.19-1.06,1.93l-.32.13a2.18,2.18,0,0,0-2.11.81,5.93,5.93,0,0,0-.33.63h9.29l2.07-2.07,3.68-4.61a10.4,10.4,0,0,0,2.18,1.87l-.31,1.19s-1.12.55-1.37,1.06c-.5,0-2.86-.25-3.49.81-.06.62-.13,1.37-.13,1.37a.62.62,0,0,0,.14.39h12.85a1.43,1.43,0,0,0,0-.63,11.84,11.84,0,0,0-.56-2.18,19.55,19.55,0,0,0-1.06-3.25c-.31-.31-.25-1.23-.25-1.23a2.2,2.2,0,0,0-.31-2.37,17.43,17.43,0,0,1-.49-3.8s1-1.25,2.18-2.5,3.62-3.74,6.17-4.55c1.75-.31,5.61-2.06,6.42-6-.05-2.62-.31-5.68-.31-5.68a4.44,4.44,0,0,0-.74-1.94,35.86,35.86,0,0,1-1.62-3.61s-.19-1.37-.81-1.5c-.68-.31-.75-1.31-.93-1.44s-.75-.75-1.06-.93-1.24-.88-1.24-.88-1.81-1.67-2.31-2.18-2.37-2.49-2.37-2.49a8.77,8.77,0,0,0-2.69-1.56,26.91,26.91,0,0,0-3.12-1.93,3.55,3.55,0,0,1-1.31-.81,4.22,4.22,0,0,0-1.37-.44c-.68-.06-.5-1.42-.5-1.42a25.12,25.12,0,0,0-.5-3.12s1-2-.93-2.19c-.62-.68-1.69-2.55-6.18-2-.87.25-4.55,1.93-3.93,7.23a16.91,16.91,0,0,0,.56,1.81s-1.49,1.93-.87,2.43a4.65,4.65,0,0,0,3,.43l.31.74.12.57a.3.3,0,0,0,.53,0l.22-.18.34.59a6.89,6.89,0,0,0-.71,1.68c-.06.53-.6,2.31-.6,2.31s-.74,2-1.24,1.84a8.8,8.8,0,0,1-2.56-2.39,18.16,18.16,0,0,0-1.78-2.16,8.65,8.65,0,0,0-.31-2.36c-.06-.63.31-1.09-1-2-.34-.09-1.4-.19-1.21.44h-.05v-12a81.9,81.9,0,0,1,.94-12.77"/><rect class="cls-1" x="191.51" y="572.02" width="6.82" height="10"/><rect class="cls-1" x="191.51" y="583.14" width="6.82" height="1.14"/><rect class="cls-1" x="191.51" y="585.4" width="6.82" height="10"/><rect class="cls-1" x="191.51" y="609.87" width="6.82" height="1.15"/><rect class="cls-1" x="191.51" y="596.51" width="6.82" height="1.15"/><rect class="cls-1" x="191.51" y="569.76" width="6.82" height="1.15"/><rect class="cls-1" x="191.51" y="598.77" width="6.82" height="10"/><path class="cls-1" d="M235.37,601.06h4.35l.32-1.16h-4.67Z"/><rect class="cls-1" x="191.51" y="612.14" width="6.82" height="10"/><path class="cls-1" d="M241.82,586.53h-6.44v1.15h6.36C241.76,587.3,241.78,586.92,241.82,586.53Z"/><polygon class="cls-1" points="215.57 373.14 213.09 375.07 212.27 377.26 212.97 380.68 216.54 378.11 215.57 373.14"/><path class="cls-1" d="M241.66,591c0-.52,0-1.29,0-2.16h-6.31v10h5a22.81,22.81,0,0,1,1.12-3.15S241.66,592.63,241.66,591Z"/><path class="cls-1" d="M235.37,612.17H237c.25-1.07.5-2.13.68-2.84.28-1.08,1-4.15,1.79-7.16h-4.05Z"/><path class="cls-1" d="M235.37,620.29a1.33,1.33,0,0,0,.08-.15c.09-.28.52-3.76.52-3.76l.19-.83h-.79Z"/><path class="cls-1" d="M235.37,614.43h1.05l.27-1.15h-1.32Z"/><polygon class="cls-1" points="214.7 370.75 215.06 370.5 214.97 370.05 214.7 370.75"/><polygon class="cls-1" points="221.01 353.91 217.46 363.41 218.61 369.73 218.34 368.18 223.25 364.19 225.03 358.8 223.35 351.38 221.01 353.91"/><polygon class="cls-1" points="219.6 375.23 221.62 369.13 218.85 371.09 219.6 375.23"/><polygon class="cls-1" points="226.41 348.08 227.4 351.66 228.71 347.67 227.22 347.21 226.41 348.08"/><polygon class="cls-1" points="222.4 347.13 221.25 349.5 221.9 348.89 222.46 347.41 222.4 347.13"/><path class="cls-1" d="M235.37,585.42h6.57a13.13,13.13,0,0,1,.25-1.33v-.91l-.54.17.54-1.46v-6.46h-6.82Z"/><rect class="cls-1" x="191.51" y="623.26" width="6.82" height="1.14"/><polygon class="cls-1" points="214.85 389.77 217.62 381.71 213.66 384.04 214.85 389.77"/><polygon class="cls-1" points="216.6 358.69 217.13 361.61 219.34 355.73 216.6 358.69"/><path class="cls-1" d="M131.32,586l-3.9,9.32,1.2-.44,5-5.63,7.25-14.16Z"/><polygon class="cls-1" points="225.66 345.33 231.42 339.88 239.88 314.08 236.93 311.98 238.62 313.19 227.81 335.83 225.06 343.14 225.66 345.33"/><path class="cls-1" d="M158.38,488l-1.94-1.14-20.22,23.7c1.21,1.24,2,2.64,1.33,3.84h.08l-.19.21a2.12,2.12,0,0,1-.26.35h-.08l-13,13.5,13,25.89Z"/><rect class="cls-1" x="191.51" y="625.51" width="6.82" height="0.12"/><path class="cls-1" d="M132.17,507.75l.1,0,21-24.42s-2.47-6.09,4.75-6.94a3.87,3.87,0,0,1,3.7,1.26l32.9-82.89.51.2.82-2.36-.33-.14,25.68-57.09L82.86,520.12a7.21,7.21,0,0,1,.52.8l29.45-.34a30.63,30.63,0,0,1,3.11.78c6.3-7,11.49-12.83,12.14-13.56C128.48,507.27,129.54,506.61,132.17,507.75Z"/><path class="cls-1" d="M227.5,321.59,79.95,518.18a4.19,4.19,0,0,1,2.3,1.21L223,331.5Z"/><path class="cls-1" d="M241.72,623.7c-.4.24-1,.86-1,1.06s0,.44,0,.78h1.45v-2.32A2.59,2.59,0,0,1,241.72,623.7Z"/><rect class="cls-1" x="278.86" y="529.08" width="6.82" height="10"/><rect class="cls-1" x="278.86" y="542.45" width="6.82" height="9.99"/><rect class="cls-1" x="278.86" y="540.18" width="6.82" height="1.15"/><path class="cls-1" d="M278.86,554.71h.29c.16-.25.56-.46,1.57-.26a.89.89,0,0,1,.3.26h4.67v-1.15h-6.82Z"/><path class="cls-1" d="M281.5,558.95s-.25,1.79-.25,2.25l.43.76s-.18.94-.43,2.45a6,6,0,0,1-.53,1.42h5v-10h-4.21A6.78,6.78,0,0,1,281.5,558.95Z"/><rect class="cls-1" x="278.86" y="569.2" width="6.82" height="10"/><path class="cls-1" d="M279.42,568.08h6.26v-1.15h-5.56C279.87,567.36,279.63,567.75,279.42,568.08Z"/><path class="cls-1" d="M457,617.62c-1.31-1.12-2.57-2.3-3.78-3.52h-4.3l5.8,5.8Z"/><polygon class="cls-1" points="334.89 625.63 340.96 625.63 337.93 622.59 334.89 625.63"/><path class="cls-1" d="M341,619.51l-1.74,1.74,4.38,4.38h2.11v-.71a31.17,31.17,0,0,1-2.37-2.3A30.48,30.48,0,0,1,341,619.51Z"/><rect class="cls-1" x="278.86" y="580.3" width="6.82" height="1.15"/><path class="cls-1" d="M340,617.83A37.5,37.5,0,0,1,338,614.1h-5.92l5.8,5.8Z"/><rect class="cls-1" x="278.86" y="526.82" width="6.82" height="1.14"/><polygon class="cls-1" points="330.99 615.66 330.99 625.63 332.19 625.63 336.58 621.25 330.99 615.66"/><rect class="cls-1" x="235.37" y="546.42" width="6.82" height="1.14"/><rect class="cls-1" x="235.37" y="573.16" width="6.82" height="1.15"/><rect class="cls-1" x="278.86" y="582.57" width="6.82" height="10"/><path class="cls-1" d="M275.65,570.4c-2.27-.94-5.85-2.34-5.85-2.34l-1.49,6.65a34.94,34.94,0,0,0-2,10.23,29.94,29.94,0,0,0,1.75,4.13s.26,2-1.57,1.59l3,6.11a12.4,12.4,0,0,1,1.14,3.38c0,1-.26,4.13-.26,4.13a26.52,26.52,0,0,0-.17,3.66c.08,1.4.25,5.72-.53,8.08-.15,1.56.2,3.87-.56,4.55l-.76.19.58,3a5.26,5.26,0,0,0,1.22.51c.27,0,2.4-.4,2.65,1.37h4.74v-2.94h-1.23v-1.12h1.23v-1.14h-1.23v-1.12h1.23v-10h-1.23V608.2h1.23v-1.15h-1.23v-1.12h1.23v-10h-1.23v-1.11h1.23v-1.15h-1.23v-1.11h1.23v-10h-1.23v-1.11h1.23V580.3h-1.23V579.2h1.23v-8.83A2.17,2.17,0,0,1,275.65,570.4Z"/><path class="cls-1" d="M257.57,603c-.59-1.2-2-4.59-2-4.59s-.12-.11-.58.58a49.21,49.21,0,0,1-3.73,5.31c-.93,1.51-2.68,4.2-3.15,6.39s-3.73,9.25-3.73,9.25-.51.82-.87,1.41v4.19h1.79v.09H260c.11-.52.21-.93.21-.93l.18-2.45a5.43,5.43,0,0,1,0-1.63c.1-1.11.34-2.81.34-3.93s-.81-5.88-1-7.89C259,607.49,258.14,604.17,257.57,603Z"/><rect class="cls-1" x="235.37" y="548.68" width="6.82" height="9.99"/><rect class="cls-1" x="235.37" y="562.05" width="6.82" height="10"/><rect class="cls-1" x="235.37" y="559.79" width="6.82" height="1.14"/><path class="cls-1" d="M243.47,575.42v3c.37-1,.76-2,1.15-3Z"/><rect class="cls-1" x="278.86" y="607.05" width="6.82" height="1.15"/><rect class="cls-1" x="278.86" y="595.94" width="6.82" height="10"/><rect class="cls-1" x="278.86" y="593.68" width="6.82" height="1.15"/><rect class="cls-1" x="278.86" y="622.69" width="6.82" height="2.94"/><rect class="cls-1" x="278.86" y="620.42" width="6.82" height="1.14"/><rect class="cls-1" x="278.86" y="609.32" width="6.82" height="9.99"/><polygon class="cls-1" points="185.15 446.92 183.91 447.64 184.37 449 185.15 446.92"/><path class="cls-1" d="M267.88,415.22a2.63,2.63,0,0,1,2.36-1.15,2.51,2.51,0,0,1,.45,0l.23-.09a5.31,5.31,0,0,1,1.38-2.46l0,0,1.31-.69.22-.44-9.95-5.2h0a2.36,2.36,0,0,1-.88,0l-18.18,13.22,22.37-1.64A5.41,5.41,0,0,1,267.88,415.22Z"/><path class="cls-1" d="M282.56,415l-1.15-.6-1.48,1.48,2.57-.19v0S282.52,415.34,282.56,415Z"/><polygon class="cls-1" points="1528.12 283.11 1530.44 268 1521.73 274.39 1528.12 283.11"/><path class="cls-1" d="M275.89,469.09c-7.26,6.42-17.17,1.26-17.17,1.26l.81-9.18-18.08-15.45,2.61,35.53,47.83-3.51-2.49-33.92L275,460.7Z"/><polygon class="cls-1" points="1532.5 269.39 1530.5 282.4 1538.01 276.9 1532.5 269.39"/><polygon class="cls-1" points="153.65 521.74 153.53 526.9 156.69 525.01 157.86 522.13 156.65 514.07 153.65 521.74"/><path class="cls-1" d="M1753.6,552.69a14.81,14.81,0,0,1,1.25-1.92l-4.7.83A14.29,14.29,0,0,1,1753.6,552.69Z"/><path class="cls-1" d="M151.83,597.69l-3.6-.63a11.09,11.09,0,0,1,1,1.47A10.68,10.68,0,0,1,151.83,597.69Z"/><path class="cls-1" d="M46.47,539.08c-.15-1.2.7-2.51,1-3.7s-1-2.37-1-2.37V520a27.69,27.69,0,0,0-.56-5.79,16.77,16.77,0,0,1-2-5.14c-.42-4.88-.56-8.3-.56-8.3s-2.94-7-3.51-8.43-.56-2-1.26-2.24c-1.26-.13-1.83,2.5-1.83,2.5s-.28,5.93-.28,7-2,5-2,6.19A41.32,41.32,0,0,1,33,511.67l-.56,11.73a50.16,50.16,0,0,0,.13,6.19,6,6,0,0,1-.65,3l4.66,3a4.21,4.21,0,0,1,1.53,2.58c.16.92.63,3.2,1,5.1l8.42-.54-.11-.91A9.92,9.92,0,0,1,46.47,539.08Z"/><polygon class="cls-1" points="139.35 558.2 141.63 562.25 149.88 541.84 150.07 532.54 149.25 532.97 139.35 558.2"/><polygon class="cls-1" points="153.39 533.16 154.63 530.12 153.44 530.75 153.39 533.16"/><path class="cls-1" d="M31.56,537.8s0,.06,0,.09c.28.93-.55,2.91-.55,2.91v3l4-.26-.64-3.82Z"/><path class="cls-1" d="M286.65,408l-2.75,3.45,2.36,1.24.9,0a5.16,5.16,0,0,1,1.67-1.27l.33-1.26A12.93,12.93,0,0,1,286.65,408Z"/><path class="cls-1" d="M265.42,393.89l1,6.25c0,.12.1.38.15.73a7.87,7.87,0,0,1,.06,1.55l9,4.7c.87-1.23,2.51-3.58,2.84-4.24.46-.94,1.4-3.13,1.41-3.14l0-.07.05,0h0a.5.5,0,0,0,.09-.11,2.38,2.38,0,0,0,.27-.83,3.72,3.72,0,0,1,1.54-2.31l.7-1.17,2.64-3.56v-1.36a5.08,5.08,0,0,1,.92-2.73l1.84-1.91a2.29,2.29,0,0,1-1.1-2.29c0-1,.23-2,.23-2.51s-.24-.67-.67-1.07a5.18,5.18,0,0,1-1.43-1.93c-.78-1.83-1.8-4.66-2-5.25a3,3,0,0,1-1.53-.8l-1.22.87s-.49.29-1,.66a8.69,8.69,0,0,0-1.44,1.11.89.89,0,0,1-.69.32,2.06,2.06,0,0,1-1.1-.47,33.41,33.41,0,0,1-2.31-2.87,2.39,2.39,0,0,0-.72-.75,2.44,2.44,0,0,0-.45-.27h0l0,0s-.51-.45-1.09-.91a5.67,5.67,0,0,0-1.42-.94.56.56,0,0,1-.53-.57,1,1,0,0,1,.07-.35l.56-1-2.47-2.29,1.26-1.62c-.08-.19-.33-.68-1-2a2.08,2.08,0,0,0-1.26-.58l-.09,0,3.77,22.51-5.7,1L266,393.8Z"/><polygon class="cls-1" points="251.12 298.42 250.98 298.87 251.22 299.36 251.12 298.42"/><polygon class="cls-1" points="1539.33 278.7 1531.56 284.4 1541.74 285.96 1540.46 280.23 1539.33 278.7"/><polygon class="cls-1" points="1474.27 260.44 1472.27 273.46 1479.78 267.95 1474.27 260.44"/><polygon class="cls-1" points="1509.25 263.54 1494.94 261.35 1501 269.61 1509.25 263.54"/><polygon class="cls-1" points="1489.86 260.56 1475.52 258.36 1481.59 266.63 1489.86 260.56"/><polygon class="cls-1" points="1528.67 266.53 1514.35 264.33 1520.41 272.59 1528.67 266.53"/><polygon class="cls-1" points="1537.71 267.92 1533.75 267.31 1539.25 274.8 1537.71 267.92"/><path class="cls-1" d="M394.11,608.72l-.11-.9-.55.07a26.15,26.15,0,0,1-6.52,2.14,25.3,25.3,0,0,0-3.33.7h7.22a37.15,37.15,0,0,0,3.92-.82Z"/><path class="cls-1" d="M387.13,583.49l2.14.45-.09-.71a20.44,20.44,0,0,1,.57-4,4.25,4.25,0,0,0-.25-2.78l-1.36.8-3.48,5.23.49.92Z"/><polygon class="cls-1" points="1473.34 275.45 1486.8 277.52 1481.11 269.76 1473.34 275.45"/><polygon class="cls-1" points="1492.74 278.44 1506.21 280.51 1500.51 272.74 1492.74 278.44"/><polygon class="cls-1" points="1508.72 280.13 1511.04 265.02 1502.32 271.41 1508.72 280.13"/><polygon class="cls-1" points="1513.09 266.41 1511.09 279.43 1518.6 273.92 1513.09 266.41"/><polygon class="cls-1" points="1493.68 263.43 1491.68 276.45 1499.19 270.94 1493.68 263.43"/><polygon class="cls-1" points="1512.16 281.42 1525.63 283.49 1519.92 275.72 1512.16 281.42"/><polygon class="cls-1" points="1489.31 277.15 1491.64 262.04 1482.92 268.43 1489.31 277.15"/><polygon class="cls-1" points="175.78 463.93 173.51 470.02 174.76 474.24 174.95 474.14 179.64 461.62 175.78 463.93"/><polygon class="cls-1" points="196.44 416.81 197.42 414.18 195.96 415.1 196.44 416.81"/><polygon class="cls-1" points="196.86 418.33 197.72 421.42 201.16 419.21 199.46 412.91 198.73 413.36 196.86 418.33"/><polygon class="cls-1" points="191.1 451.32 194.98 441.19 189.13 444.6 191.1 451.32"/><polygon class="cls-1" points="200.74 405.33 202.74 400 198.84 398.59 200.74 405.33"/><polygon class="cls-1" points="205.19 393.45 207.32 387.79 200.82 391.63 205.19 393.45"/><polygon class="cls-1" points="193.33 427.76 188.21 441.42 188.33 441.82 196.51 437.21 198.16 432.86 196.13 425.92 193.33 427.76"/><polygon class="cls-1" points="195.08 423.11 195.28 422.99 195.21 422.76 195.08 423.11"/><polygon class="cls-1" points="209.93 380.81 209.35 377.96 208.7 378.47 204.95 386.46 208.88 383.63 209.93 380.81"/><polygon class="cls-1" points="208.59 387.04 206.06 393.82 212.52 396.54 212.9 395.47 210.91 385.68 208.59 387.04"/><polygon class="cls-1" points="201.17 406.85 201.58 408.28 210.11 403 210.24 402.68 203.63 400.31 201.17 406.85"/><polygon class="cls-1" points="162.58 486.8 157.69 499.91 157.93 501.33 158.5 501.02 163.67 487.33 162.58 486.8"/><polygon class="cls-1" points="210.25 382.64 210.29 382.61 210.28 382.55 210.25 382.64"/><polygon class="cls-1" points="198.53 424.35 199.74 428.74 202.08 422.66 201.94 422.13 198.53 424.35"/><polygon class="cls-1" points="204.25 417.72 208.38 407.32 202.38 411.09 204.25 417.72"/><polygon class="cls-1" points="195.41 412.09 198.7 410.06 197.72 406.42 195.41 412.09"/><polygon class="cls-1" points="182.94 444.75 182.98 444.84 184.85 443.79 184.2 441.4 182.94 444.75"/><polygon class="cls-1" points="214.63 368.31 214.28 366.59 211.35 372.83 211.41 373.15 213.32 371.75 214.63 368.31"/><polygon class="cls-1" points="443.83 614.1 432.23 614.1 438.03 619.9 443.83 614.1"/><polygon class="cls-1" points="170.1 483.39 174.56 485.33 172.5 478.63 170.1 483.39"/><polygon class="cls-1" points="159.04 508 160.85 518.79 171.93 496.5 160.98 503.03 159.04 508"/><polygon class="cls-1" points="183.4 456.04 183.09 455.07 182.55 456.52 183.4 456.04"/><polygon class="cls-1" points="187.11 457.15 187.77 459.15 188.47 457.28 188.25 456.46 187.11 457.15"/><polygon class="cls-1" points="162.69 498.66 173.86 492.43 166.57 488.78 162.69 498.66"/><polygon class="cls-1" points="187.77 439.92 192 428.63 185.68 432.76 187.77 439.92"/><polygon class="cls-1" points="194.77 421.26 193.47 416.85 189.44 426.72 193.76 423.95 194.77 421.26"/><polygon class="cls-1" points="185.89 447.64 184.85 450.4 186.19 454.46 187.51 453.71 185.89 447.64"/><polygon class="cls-1" points="180.93 460.85 176.24 473.34 184.28 468.4 185.97 463.95 184.31 458.82 180.93 460.85"/><polygon class="cls-1" points="177.99 485.07 182.48 473.18 175.65 477.22 177.99 485.07"/><polygon class="cls-1" points="177.48 459.38 181.28 457.23 182.63 453.64 181.24 449.33 177.48 459.38"/><path class="cls-1" d="M1769.37,443.13a2.9,2.9,0,0,1-.34-.45l-.26-.26h.1c-.83-1.59.17-3.42,1.75-5.06l-26.51-31-2.54,1.5,27.89,87,17.09-33.95-17.07-17.71Z"/><polygon class="cls-1" points="1660.56 286.79 1650.2 285.2 1656.27 293.47 1661.47 289.65 1660.56 286.79"/><polygon class="cls-1" points="1657.2 303.7 1661.48 304.36 1658.89 300.83 1657.2 303.7"/><polygon class="cls-1" points="1663.33 295.48 1662.88 294.06 1660.13 298.73 1663.99 303.99 1664.78 298.86 1664.51 298.2 1664.93 297.89 1664.98 297.55 1664.08 294.94 1663.33 295.48"/><polygon class="cls-1" points="1641.66 297.05 1645.31 296.23 1646.9 285.89 1638.18 292.29 1641.66 297.05"/><polygon class="cls-1" points="1647.65 295.71 1654.08 294.28 1648.95 287.28 1647.65 295.71"/><polygon class="cls-1" points="1628.61 299.31 1631.8 299.81 1632.14 299.17 1639.28 297.58 1636.38 293.62 1628.61 299.31"/><polygon class="cls-1" points="1666.35 303.29 1666.51 303.18 1666.41 302.94 1666.35 303.29"/><polygon class="cls-1" points="1669.85 259.76 1666.6 257.23 1665.32 263.75 1670.01 267.12 1670.94 262.63 1669.85 259.76"/><polygon class="cls-1" points="1681.44 315.67 1682.59 311.63 1679.65 311.18 1681.44 315.67"/><polygon class="cls-1" points="1677.84 303.18 1676.01 302.05 1677.94 306.89 1680.89 307.35 1677.84 303.18"/><polygon class="cls-1" points="1683.39 306.98 1683.44 306.68 1682.95 306.38 1683.39 306.98"/><polygon class="cls-1" points="1679.07 284.35 1675.75 275.46 1672.7 273.67 1670.55 284.31 1676.86 285.27 1679.07 284.35"/><polygon class="cls-1" points="1674.95 295.46 1675.67 296.45 1678.99 294.02 1674.95 295.46"/><polygon class="cls-1" points="1682.72 294.06 1677 298.25 1677.17 298.5 1684.04 302.74 1684.61 299.09 1682.72 294.06"/><polygon class="cls-1" points="1667.55 279.04 1669.1 271.53 1663.92 268.47 1667.55 279.04"/><line class="cls-1" x1="1629.83" y1="303.52" x2="1571.42" y2="294.55"/><polygon class="cls-1" points="1588.72 291.36 1596.23 285.84 1590.73 278.34 1588.72 291.36"/><path class="cls-1" d="M1599.68,293.59a8.65,8.65,0,0,1,.22-1l.24-1.46-2.58-3.51-7.77,5.7,9.76,1.5A10.93,10.93,0,0,1,1599.68,293.59Z"/><polygon class="cls-1" points="1578.15 284.67 1570.47 290.3 1570.49 290.38 1583.85 292.44 1578.15 284.67"/><path class="cls-1" d="M1602.09,294a7.74,7.74,0,0,0-.08,1.24l1.25.19-1.14-1.56Z"/><path class="cls-1" d="M1594.4,279.55a1.16,1.16,0,0,1-.15-.73,9.36,9.36,0,0,1,.58-2.13l-2.86-.44Z"/><polygon class="cls-1" points="1601.16 285.01 1599.36 286.32 1600.65 288.08 1601.16 285.01"/><path class="cls-1" d="M1588.5,249.6v1.25l2.35,3.18.63,1a3.15,3.15,0,0,1,1.31,1.94c.14.83.41,1,.41,1s.83,1.94,1.26,2.77c.19.38.84,1.36,1.49,2.3l5.43-32.36,2.41.4,1.36-8.15a1.79,1.79,0,0,0-1.35.56l-.93,1.87,1.06,1.39-2.14,2,.56,1s.21.48-.27.56a11.16,11.16,0,0,0-2.29,1.66,2.67,2.67,0,0,0-1.11,1,27.16,27.16,0,0,1-2,2.49s-.82.7-1.31.14a14.58,14.58,0,0,0-2.22-1.59l-1.18-.83a2.44,2.44,0,0,1-1.45.76s-1,2.91-1.8,4.71-1.87,1.73-1.87,2.7.83,3.67-.9,4.16l1.8,1.87A4.36,4.36,0,0,1,1588.5,249.6Z"/><path class="cls-1" d="M1600.7,282.56l.33-2.41a12.23,12.23,0,0,0-1.24.11l-3.19.28a3.56,3.56,0,0,1-2-.68l3.41,4.65Z"/><polygon class="cls-1" points="1566.46 272.33 1566.64 273.12 1567.49 272.49 1566.46 272.33"/><polygon class="cls-1" points="1568.27 280.42 1569.26 273.96 1567.17 275.5 1568.27 280.42"/><polygon class="cls-1" points="1571.31 275.36 1569.61 286.43 1569.94 287.91 1576.82 282.86 1571.31 275.36"/><polygon class="cls-1" points="1586.89 275.47 1572.57 273.27 1578.63 281.53 1586.89 275.47"/><polygon class="cls-1" points="1586.35 292.05 1588.68 276.95 1579.96 283.34 1586.35 292.05"/><path class="cls-1" d="M1586.91,269.48c.56,0,3.19-.28,3.88.9.07.69.14,1.53.14,1.53a.86.86,0,0,1,0,.16l3.18.49-2.52-2.52-4.08-5.12A11.62,11.62,0,0,1,1585,267l.35,1.32S1586.64,268.92,1586.91,269.48Z"/><path class="cls-1" d="M1912.66,384.13a2.09,2.09,0,0,0,0-1.81c-.22-.5-.77-3.33-.77-3.33-.55.9-2.44,1.41-2.44,1.41v1a12,12,0,0,1-.55,2.72l2.76.2S1912.33,384.54,1912.66,384.13Z"/><path class="cls-1" d="M1724.62,314.07h.06l-.6,3.93-18.26-2.81,31.39,79.08a5.12,5.12,0,0,1,4.85-1.64c9.48,1.11,6.23,9.11,6.23,9.11l27.49,32,.13-.07c3.47-1.5,4.85-.62,5.38.07.86.95,7.65,8.56,15.91,17.77a38.9,38.9,0,0,1,4.08-1l38.61.45a9.51,9.51,0,0,1,.68-1.05L1727,298.39Z"/><path class="cls-1" d="M1656.81,202.66l67.36,89.88,3.72.57-.56,3.65,114,152.18a5.58,5.58,0,0,1,3-1.6L1651,189.66Z"/><path class="cls-1" d="M1764.53,521.94l9.5,18.55,6.56,7.4,1.56.57L1777,536.24Z"/><path class="cls-1" d="M1885.54,412.89a.12.12,0,0,0,0-.09C1885.52,412.89,1885.54,412.94,1885.54,412.89Z"/><polygon class="cls-1" points="1747.78 452.04 1743.83 441.98 1742.25 452.55 1743.78 456.3 1747.93 458.8 1747.78 452.04"/><polygon class="cls-1" points="1753.55 466.75 1752.47 466.18 1752.71 478.39 1763.53 505.13 1766.52 499.81 1753.55 466.75"/><polygon class="cls-1" points="1746.49 463.01 1748.11 467.01 1748.04 463.82 1746.49 463.01"/><path class="cls-1" d="M1604.28,284.95l-.6-.1-1,6,2.7,3.68.47,0,2.2-14.36-.37,0-3,2.18Z"/><polygon class="cls-1" points="427.14 614.1 415.55 614.1 421.35 619.9 427.14 614.1"/><path class="cls-1" d="M1885.31,399.07a19.49,19.49,0,0,1-2.54,2.82l-1.56-.31.11,2.63s1.21,6.06,1.88,6.77a3.66,3.66,0,0,0,1.21.9,4.32,4.32,0,0,1,1.08.92,10.79,10.79,0,0,1-.08-3.44,7,7,0,0,0,.78-2.43,34.77,34.77,0,0,0,.45-8.47S1885.54,398.47,1885.31,399.07Z"/><polygon class="cls-1" points="1684.3 322.15 1687.34 330.13 1688.94 324.37 1684.48 321.45 1684.3 322.15"/><polygon class="cls-1" points="1903.48 480.64 1903.48 479.08 1903.22 480.63 1903.48 480.64"/><path class="cls-1" d="M1902.27,462.7l-.48-10.34a37.22,37.22,0,0,1-1.32-5.23c0-1-1.68-4.54-1.68-5.46s-.24-6.17-.24-6.17-.48-2.32-1.56-2.2c-.6.23-.6.7-1.09,2s-3,7.45-3,7.45-.1,3-.48,7.3a14.68,14.68,0,0,1-1.68,4.54,25.89,25.89,0,0,0-.48,5.11v11.5s-1.09,1.05-.85,2.09,1,2.2.85,3.26a9.18,9.18,0,0,1-.85,2.43l-.1.77,8.56.55c.53-2.48,1.15-5.49,1.37-6.7a5.55,5.55,0,0,1,2-3.39l1-.67a3.09,3.09,0,0,1-.11-1.37A47.3,47.3,0,0,0,1902.27,462.7Z"/><polygon class="cls-1" points="1736.07 406.21 1734.64 406.93 1741.41 424.86 1742.17 425.29 1742.48 423.42 1736.07 406.21"/><polygon class="cls-1" points="1708.76 365.9 1709.9 366.53 1709.18 364.64 1708.76 365.9"/><polygon class="cls-1" points="1716.52 370.27 1711.61 357.12 1709.78 362.77 1711.55 367.47 1716.52 370.27"/><polygon class="cls-1" points="1705.52 354.89 1703.38 362.86 1705.11 363.84 1706.88 358.52 1705.52 354.89"/><polygon class="cls-1" points="1702.47 346.74 1695.75 328.83 1692.08 326.43 1689.41 335.52 1691.59 341.22 1702.31 347.26 1702.47 346.74"/><polygon class="cls-1" points="1702.11 367.54 1703.05 369.99 1703.92 367.36 1702.41 366.45 1702.11 367.54"/><polygon class="cls-1" points="1706.88 349.85 1709.32 351.23 1709.36 351.1 1707.73 346.71 1706.88 349.85"/><polygon class="cls-1" points="1698.67 359.72 1701.25 350.91 1693.59 346.44 1698.67 359.72"/><polygon class="cls-1" points="1730.82 408.83 1721.28 413.6 1735.92 421.79 1730.82 408.83"/><polygon class="cls-1" points="1718.77 376.26 1713.7 373.21 1719.86 389.63 1720.09 389.77 1721.74 384.24 1718.77 376.26"/><polygon class="cls-1" points="1723.06 395.53 1720.36 404.3 1726.21 401.75 1723.06 395.53"/><polygon class="cls-1" points="1723.81 418.95 1738.33 448.16 1740.71 434.01 1738.15 427.52 1723.81 418.95"/><polygon class="cls-1" points="1715.87 403.97 1718.93 393.67 1709.99 388.38 1715.87 403.97"/><polygon class="cls-1" points="1712.01 372.21 1707.58 369.55 1705.41 376.28 1707.62 382.12 1718.15 388.58 1712.01 372.21"/><polygon class="cls-1" points="1707.5 356.68 1708.11 354.89 1706.47 353.95 1707.5 356.68"/><polygon class="cls-1" points="1714.84 302.46 1723.09 296.4 1708.77 294.2 1714.84 302.46"/><rect class="cls-1" x="1669.57" y="582.37" width="5.98" height="8.78"/><rect class="cls-1" x="1669.57" y="594.1" width="5.98" height="7.17"/><rect class="cls-1" x="1669.57" y="592.12" width="5.98" height="1.01"/><rect class="cls-1" x="1620.55" y="580.4" width="5.98" height="1.01"/><rect class="cls-1" x="1620.55" y="594.1" width="5.98" height="7.17"/><rect class="cls-1" x="1620.55" y="592.12" width="5.98" height="1.01"/><rect class="cls-1" x="1620.55" y="582.37" width="5.98" height="8.78"/><polygon class="cls-1" points="1698.54 296.88 1703.34 293.36 1696.75 292.35 1698.54 296.88"/><polygon class="cls-1" points="1621.98 165.54 1619.35 164.69 1612.63 220.79 1615.97 221.36 1614.01 233.12 1618.3 234.05 1611.42 272.5 1606.51 271.68 1606.05 274.39 1659.22 282.56 1621.98 165.54"/><path class="cls-1" d="M468.36,625.63h.55l-.35-.19Z"/><polygon class="cls-1" points="1620 159.28 1619.86 160.51 1620.19 159.88 1620 159.28"/><polygon class="cls-1" points="1651.11 229.08 1652.38 224.39 1651.34 223.24 1649.38 223.84 1651.11 229.08"/><rect class="cls-1" x="1669.57" y="580.4" width="5.98" height="1.01"/><polygon class="cls-1" points="1653.38 220.78 1654.16 217.91 1650.57 208.32 1636.38 178.65 1634.72 179.82 1645.82 213.64 1653.38 220.78"/><polygon class="cls-1" points="410.46 614.1 398.86 614.1 404.66 619.9 410.46 614.1"/><polygon class="cls-1" points="410.38 625.63 412.51 625.63 412.51 614.75 406 621.25 410.38 625.63"/><polygon class="cls-1" points="401.62 625.63 407.7 625.63 404.66 622.59 401.62 625.63"/><polygon class="cls-1" points="418.31 625.63 424.39 625.63 421.35 622.59 418.31 625.63"/><polygon class="cls-1" points="414.4 615.65 414.4 625.63 415.62 625.63 420 621.25 414.4 615.65"/><polygon class="cls-1" points="1627.5 282.9 1618.77 289.3 1625.17 298.03 1627.5 282.9"/><polygon class="cls-1" points="1705.12 294.84 1699.4 299.04 1703.06 308.25 1705.12 294.84"/><polygon class="cls-1" points="397.72 615.65 397.72 625.63 398.94 625.63 403.32 621.25 397.72 615.65"/><polygon class="cls-1" points="443.75 625.63 445.87 625.63 445.87 614.75 439.37 621.25 443.75 625.63"/><polygon class="cls-1" points="451.68 625.63 457.76 625.63 454.72 622.59 451.68 625.63"/><path class="cls-1" d="M464.46,625.63h1.21l1.16-1.16q-1.2-.68-2.37-1.41Z"/><polygon class="cls-1" points="427.07 625.63 429.19 625.63 429.19 614.75 422.69 621.25 427.07 625.63"/><path class="cls-1" d="M456.06,621.25l4.38,4.38h2.13v-3.78c-1.41-1-2.76-2-4.08-3Z"/><polygon class="cls-1" points="435 625.63 441.07 625.63 438.03 622.59 435 625.63"/><polygon class="cls-1" points="431.1 615.65 431.1 625.63 432.31 625.63 436.69 621.25 431.1 615.65"/><polygon class="cls-1" points="447.78 615.65 447.78 625.63 448.99 625.63 453.37 621.25 447.78 615.65"/><polygon class="cls-1" points="1665.25 238.3 1661.65 234.42 1664.55 242.13 1665.25 238.3"/><polygon class="cls-1" points="1657.58 223.51 1658.3 225.44 1659.15 226.25 1657.66 223.13 1657.58 223.51"/><polygon class="cls-1" points="1690 300.87 1689.23 303.72 1690.72 302.63 1690 300.87"/><polygon class="cls-1" points="1662.36 292.43 1662.19 291.89 1661.06 292.72 1662.36 292.43"/><polygon class="cls-1" points="1667.74 254.1 1667.39 253.19 1667.27 253.77 1667.74 254.1"/><polygon class="cls-1" points="1673.58 269.7 1673.53 269.57 1673.52 269.64 1673.58 269.7"/><polygon class="cls-1" points="1669.54 255.41 1672.05 257.24 1672.13 256.82 1668.29 248.65 1667.84 250.89 1669.54 255.41"/><polygon class="cls-1" points="1654.2 238.44 1656.53 245.51 1662.96 250.74 1662.62 252.77 1664.13 244.49 1659.46 232.03 1656.39 228.72 1654.2 238.44"/><polygon class="cls-1" points="1661.31 259.97 1662.3 254.54 1658.67 251.99 1661.31 259.97"/><polygon class="cls-1" points="1625.71 281.44 1611.37 279.24 1617.45 287.5 1625.71 281.44"/><polygon class="cls-1" points="1616.96 290.63 1609.18 296.33 1622.66 298.4 1616.96 290.63"/><polygon class="cls-1" points="1608.13 294.34 1615.64 288.83 1610.13 281.32 1608.13 294.34"/><polygon class="cls-1" points="1627.53 297.33 1635.05 291.81 1629.54 284.3 1627.53 297.33"/><polygon class="cls-1" points="1645.12 284.42 1630.79 282.22 1636.86 290.49 1645.12 284.42"/><polygon class="cls-1" points="1692.77 282.62 1692.34 282.8 1693.43 285.89 1694.08 285.64 1695.05 288.07 1722.45 292.28 1659.12 207.78 1692.77 282.62"/><polygon class="cls-1" points="1693.87 320.31 1695.19 323.85 1700.85 327.48 1695.58 314.54 1693.87 320.31"/><polygon class="cls-1" points="1693.2 322.58 1693.47 322.74 1693.3 322.28 1693.2 322.58"/><polygon class="cls-1" points="1685.94 281.48 1677.42 276.44 1680.2 283.87 1685.94 281.48"/><polygon class="cls-1" points="1707.22 295.87 1705.11 309.6 1713.03 303.79 1707.22 295.87"/><polygon class="cls-1" points="1724.85 297.89 1716.16 304.27 1722.54 312.96 1724.85 297.89"/><polygon class="cls-1" points="1714.35 305.59 1706.58 311.29 1720.05 313.36 1714.35 305.59"/><polygon class="cls-1" points="1691.59 304.77 1689.63 306.2 1693.03 308.3 1691.59 304.77"/><polygon class="cls-1" points="1705.78 335.4 1697.49 329.96 1703.04 344.78 1705.78 335.4"/><polygon class="cls-1" points="1687.73 293.46 1687.79 293.28 1687.77 293.26 1687.73 293.46"/><polygon class="cls-1" points="1692.07 313.09 1691.11 312.94 1691.68 314.48 1692.07 313.09"/><polygon class="cls-1" points="1685.71 291.86 1683.74 293.31 1684.98 296.62 1685.71 291.86"/><polygon class="cls-1" points="1691.12 316.48 1689.71 312.73 1686.93 312.3 1685.5 317.63 1690 320.51 1691.12 316.48"/><polygon class="cls-1" points="1674.75 263.55 1673.99 267.3 1675.37 270.98 1680.53 274.69 1675.61 264.22 1674.75 263.55"/><path class="cls-3" d="M1658.3,306.76l14,2.16,41.8,104.53.92-.73.65,1-.81.77L1762.24,515l12.52,25-.3,1.28-24.14.47s-19.68.74-20.5,20.44c.65,3.53.94,18.49,17.59,22.82,8.49.51,14.88.68,19.69.65a28.61,28.61,0,0,0-10.31,17.28,27.47,27.47,0,0,0,1,12.95l0,.07.05.08c1.56,2.36,4.32,5.9,6.78,9h-80.52V600.65h-4.21v-7.17H1681v-1h-1.07v-1H1681v-1h-1.07v-8.78H1681v-1h-1.07v-1H1681v-1h-1.07v-5.29h-1.12v5.29h-6v-5.29h-1.12v5.29h-1.57v1h1.57v1h-1.57v1h1.57v8.78h-1.57v1h1.57v1h-1.57v1h1.57v7.17h-6.07V625h-30.52V600.65h-4.21v-7.17H1632v-1h-1.07v-1H1632v-1h-1.07v-8.78H1632v-1h-1.07v-1H1632v-1h-1.07v-5.29h-1.12v5.29h-6v-5.29h-1.12v5.29h-1.57v1h1.57v1h-1.57v1h1.57v8.78h-1.57v1h1.57v1h-1.57v1h1.57v7.17h-6.07V625h-13.73l.24,1.19H531.07V610.1H332.39v1.11h0V625H290.23v-2.94H292v-1.12h-1.79v-1.14H292v-1.12h-1.79v-10H292v-1.11h-1.79v-1.15H292v-1.12h-1.79v-10H292V594.2h-1.79V593H292v-1.11h-1.79v-10H292v-1.11h-1.79v-1.15H292v-1.11h-1.79v-10H292v-1.12h-1.79V566.3H292v-1.11h-1.79v-10H292v-1.11h-1.79v-1.15H292v-1.12h-1.79v-10H292V540.7h-1.79v-1.15H292v-1.1h-1.79v-10H292v-1.12h-1.79v-1.14H292v-1.12h-1.79v-6H289v6h-6.82v-6h-1.27v6h-1.23v1.12h1.23v1.14h-1.23v1.12h1.23v10h-1.23v1.1h1.23v1.15h-1.23v1.12h1.23v10h-1.23v1.12h1.23v1.15h-1.23v1.11h1.23v.73a2.93,2.93,0,0,1-.63,1,1.13,1.13,0,0,0-.08,1.4,1.86,1.86,0,0,1,.44,1.41,2,2,0,0,1-1,1.6s-4.89-1.79-5.76-2.16-2.36-2.63-2.36-2.63l.35-.47c.62-.1,2.28-3.19,2.28-3.19l1.23.66c2.88,0-.53-3-.53-3v-.37c-.44-4.8-3.84-5.82-4.8-6.1-6.21-.19-6.47,3.76-6.47,3.76-1.57,1.79-.61,2.72-.61,2.72l-.26,1-4.46,1.87c-4.54,1.89-7.86,7.22-9,8.73a13.81,13.81,0,0,0-2.27,5,5.6,5.6,0,0,0,.79,2.44l1.4,2.06c-.25.62-.52,1.31-.8,2h-1.58v-1.15h1.79v-1.11h-1.79v-10h1.79V560.3h-1.79v-1.14h1.79V558h-1.79V548h1.79v-1.12h-1.79v-1.14h1.79v-1.12h-1.79v-6h-1.27v6h-6.82v-6h-1.27v6h-1.23v1.12h1.23v1.14h-1.23V548h1.23v10h-1.23v1.12h1.23v1.14h-1.23v1.12h1.23v10h-1.23v1.11h1.23v1.15h-1.23v1.11h1.23v10h-1.23v1.12h1.23v1.15h-1.23v1.11h1.23v10h-1.23v1.11h1.23v1.16h-1.23v1.11h1.23v10h-1.23v1.11h1.23v1.15h-1.23v1.12h1.23v6.41l0,0c-.79,1,0,3.38,0,3.38l0,.16h-1.21V625H202.87v-.12h1.8v-1.11h-1.8v-1.14h1.8v-1.12h-1.8v-10h1.8v-1.11h-1.8v-1.15h1.8v-1.11h-1.8v-10h1.8V597h-1.8v-1.15h1.8v-1.11h-1.8v-10h1.8v-1.12h-1.8v-1.14h1.8v-1.13h-1.8v-10h1.8v-1.11h-1.8v-1.15h1.8V568h-1.8v-6H201.6v6h-6.82v-6h-1.27v6h-1.23v1.11h1.23v1.15h-1.23v1.11h1.23v10h-1.23v1.13h1.23v1.14h-1.23v1.12h1.23v10h-1.23v1.11h1.23V597h-1.23v1.12h1.23v10h-1.23v1.11h1.23v1.15h-1.23v1.11h1.23v10h-1.23v1.12h1.23v1.14h-1.23v1.11h1.23V625H146.32a19.31,19.31,0,0,0-1.65-1.48c3.67,0,8.55-.1,15-.49,12.71-3.31,12.92-14.69,13.42-17.39-.63-15-15.63-15.6-15.63-15.6L139,589.67l-.22-1,9.55-19.07L184.51,493l-.62-.59.49-.78.71.56,35.35-88.41-.42-.31.75-2.18.58.42,31.53-99.13,2-.63L260,344.7l-2.55.43,1.5,9-3.27.71,5.24,29.33,3.76-.62,1.7,10.13.46-.08,1,6.14-.46-.63-1.1.8-.13-.07-.14.26-1.24.9-.66,0c0,.15,0,.28,0,.42L241,418.29l-5.59.41a1,1,0,1,0,.14,1.9l.95-.07,1.38,18.71,2.53,2.16,3.19,43.48h.06v.05L299,480.87v-.06l.42,0-3.07-42,3.17-3.73-1.3-17.7.26-.49.32,0a5.62,5.62,0,0,0,2.21-.37c.77-.13,1.59-.43,1.57-1.52a3.11,3.11,0,0,0,0-.35,15.47,15.47,0,0,0-.72-2.8s-.23-.91-.51-1.89c-.14-.49-.3-1-.45-1.4a2.82,2.82,0,0,0-.42-.88,2.07,2.07,0,0,1-.27-1.19,1.33,1.33,0,0,1,0-.18,2.45,2.45,0,0,0,.26-1.12,3.66,3.66,0,0,0-.67-2,22.69,22.69,0,0,1-.61-4.66c.24-.29,1.37-1.69,2.7-3.09,1.49-1.57,4.55-4.69,7.72-5.69,2.23-.4,7.18-2.63,8.24-7.78v0c-.08-3.31-.39-7.17-.39-7.17a5.78,5.78,0,0,0-1-2.54,47.12,47.12,0,0,1-2-4.5,5,5,0,0,0-.22-.9,1.6,1.6,0,0,0-.93-1.13,1.68,1.68,0,0,1-.71-.88c-.17-.38-.17-.7-.42-.9s-.91-.92-1.34-1.19-1.55-1.09-1.56-1.09-2.28-2.12-2.89-2.75-3-3.13-3-3.13a10.88,10.88,0,0,0-3.44-2c-1.48-.86-3-2.18-4-2.45a3.45,3.45,0,0,1-1.09-.57,4.84,4.84,0,0,1-.48-.4h0l0,0a5.47,5.47,0,0,0-1.81-.57c-.19,0-.29-.13-.38-.36a2.67,2.67,0,0,1-.11-.76,2.78,2.78,0,0,1,0-.47v0a34,34,0,0,0-.63-3.9,3.55,3.55,0,0,0,.31-1.34,1.57,1.57,0,0,0-1.6-1.62c-.68-.79-2-2.72-6.11-2.71a15.17,15.17,0,0,0-1.81.11h0c-1.07.3-5.19,2.2-5.19,7.85a12.64,12.64,0,0,0,.09,1.5,21.24,21.24,0,0,0,.69,2.23,6,6,0,0,0-1.28,2.63.78.78,0,0,0,.27.62,5.39,5.39,0,0,0,2.91.7,4.44,4.44,0,0,0,.88-.07l.33.78.16.72v0a.65.65,0,0,0,.51.35.67.67,0,0,0,.48-.27l.07-.06.26.45a8.15,8.15,0,0,0-.88,2.1c-.07.62-.74,2.86-.74,2.88s-.22.56-.51,1.13a2.56,2.56,0,0,1-.79,1.06,10.84,10.84,0,0,1-3.14-2.95,22,22,0,0,0-2.22-2.7,10.67,10.67,0,0,0-.4-3c0-.05,0-.1,0-.16s0-.34,0-.53c0-.54-.2-1.16-1.31-1.91l0,0h0a2.92,2.92,0,0,0-.76-.09,1.71,1.71,0,0,0-.67.1.58.58,0,0,0-.38.55v0l-.3.07a1.08,1.08,0,0,0-.72-.32,1,1,0,0,0-.55.17h0l0,0c-.09.12-.2.22-.29.36l-.1-.62-1.84.32-1.47-8.75-4.35.73-5.15-42.91,2.59-.83-2.79-.86-.52-4.3,1-3.2,0,.63,8.17-6.34-1-5.75s-4.41-3.76-6.29-5.1-3.3-1.35-7-1a12.64,12.64,0,0,0-6.11,7.42l.17,5.17-7.78,15.76,1.92,1.27-5.65,12.55L82.09,517.49h0c-1.75,0-4.78.69-5.67,3.6-2.86,1.56-9.6,5.32-11.28,7.09a3.56,3.56,0,0,0-.84,1.35c-1.95,2.37-3.37,6.75-4.42,11.62v-.86s.57-2.38.15-3.3a5.36,5.36,0,0,1-.42-2s.28-18.19-.14-21.35-1.26-6.31-1.12-6.71-.85-12.64,0-19.89c0-7-1.12-17.91-1.55-21.73a1.72,1.72,0,0,1,.84-.92,6.68,6.68,0,0,0,1.55-2.1l5.89,8s.57-8.82,1.41-9.48a4,4,0,0,1,2.25.39,4,4,0,0,0,2.11-.13c.7-.39,2.1-1.31,2.1-1.31a1.91,1.91,0,0,0,1.4-1.06c.43-.92,2.25-2.49.28-5.53a14,14,0,0,0,1-3.42c0-1.06.29-10.8.29-10.8l-6.18,3.16-4.07-6.85s-.14-3.56-6.6-6.84-6.59-4-6.59-4-.56-.78-1.13-.66a8.09,8.09,0,0,1-1.53.14l.27-2.38s3.66-3.56,3.93-7l2.52-.27s4.22-.91-.14-3.55c0,0,2.81-10.41-7.72-11.72-1.4-.27-7.71-.14-10,7.24-1.12.26-4.5.66-2.39,3.3a12.38,12.38,0,0,0,1.68,1,5.61,5.61,0,0,0,1.12,5.67,4.46,4.46,0,0,1,.42,1.45l-.14,4.09s-3.08,1.31-3.36,3.29l-8.85,3.42a20.1,20.1,0,0,0-5.48,4.88c-2.24,3-8.56,11.06-8.56,11.06l-4.21.26L.33,439.12s-3.92-2.9-5.89-2.63c-1.82.53-8.85,7.53-8.85,7.53l4.81.15,4.19.76A15.37,15.37,0,0,0-1.21,447l6.45,11.19,16.47-4.75s-.63,8-1.41,17c-1.91,7.54,4.09,5,6.13,4.77,0,0-1.39,13.31-.56,17.91s-.42,13.17-.42,16.21-1.55,4.08-.29,6.19c.14,2.24.71,10.54.14,12.25s-2.25,4.49-1.55,5.27,2.11,1.45,2.11,2.38a10,10,0,0,1-1,2.89l-3.23,4.09-3.37,3.42s-1.18,1.28-1.05,2.33A24.8,24.8,0,0,0,14,550.83C12.57,552,6.7,557.41,6.37,563c.92,3.64.33,3.88.33,3.88l-4,.37s-3.2,1.64-3.35,8.29-.38,22.15,3.16,32l26.43,1.09L14.65,619.32H1.2V625H-4v55H1947V625h-5.93a25.34,25.34,0,0,0,7.65-14.34,33.34,33.34,0,0,0,.39-4v-.07l0-.08c-1.21-6.34-4-12.88-11.45-17.33l.61-8.44-5.61-15.21,20.82-.87c4.64-12.85,4.33-33.18,4.14-41.9s-4.38-10.87-4.38-10.87l-5.31-.48s-.76-.33.45-5.1c-.44-7.3-8.14-14.39-9.95-15.93a36,36,0,0,0-19.42-9.45l-1.47-1.54-2.77-3.6a9.16,9.16,0,0,1-.84-2.56c0-.81,1.2-1.39,1.81-2.1s-.85-3.12-1.32-4.65,0-8.83.11-10.79c1.08-1.86-.24-2.78-.24-5.46s-1.09-10.24-.36-14.31c.39-2.13.22-6.43,0-10l-.68-1.44h2c.66,0,1.1-1.61,1.1-1.61s-.89-18.37-.89-19.18a13.45,13.45,0,0,1,1.45-3.32s1.87-2.63,1.87-3.33,1.11-1.82,1.11-1.82l1.11-1.81a6.65,6.65,0,0,1,.85-2.72c0-.54.29-5.12.29-5.12l.3-1.74a33.14,33.14,0,0,0-2.81-10.91c-1.18-2-3.39-8.87-3.39-8.87v-1.88a9.59,9.59,0,0,0-.21-2.35c-.3-1.76-2.59-1.42-2.59-1.42l-.8.24a9.21,9.21,0,0,0-1.86.56c-1.19,1-1,2-.44,3.37s3.09,2.56,3.09,2.56l.29,1.49s.74,3.89.45,3.49a3.72,3.72,0,0,0-2.21-1.22c-10.48-1.6-11.52,5.53-11.52,5.53s-.3.13-1,.4c-2.66,3.63.88,4.17.88,4.17l.16,4.31s1.33.26-1.77.4-8.71,3.24-8.71,3.24-6.95,4.7-9.9,6.31-1.92,3.91-1.92,3.91,3,9,3.26,10.21a49.76,49.76,0,0,1,1.17,5.25,10.06,10.06,0,0,0,.74,2.56s2.22,3.5,2.66,4.43,1.18.4,1.18.4l-.14-1.74.73,2.56-.73,4.43c-.13,2.24-1,4.87-1,6.74.72,6.38.06,15.8.19,16.15s-.6,3.14-1,5.92-.12,18.84-.12,18.84a5.06,5.06,0,0,1-.35,1.75,6.76,6.76,0,0,0,.11,2.89v1.08l-3.84-.25-2.59-.2c-1.39-6.57-3.3-12.53-5.91-15.72a4.86,4.86,0,0,0-1.11-1.77c-2.19-2.31-11-7.24-14.78-9.3-1.17-3.78-5.14-4.66-7.43-4.72h-.05L1652,184l-7.4-16.46,2.51-1.67-10.2-20.63.21-6.8a16.5,16.5,0,0,0-8-9.71c-4.89-.51-6.75-.51-9.22,1.25s-8.25,6.68-8.25,6.68l-1.27,7.54,10.71,8.32,0-.83,1.33,4.2-.67,5.65-3.67,1.12,3.39,1.08-6.74,56.25-4.11-.68a2.38,2.38,0,0,0-.47-1l-.75-1c0-.49-.18-.49-.39-.77a.74.74,0,0,0-1,.18l-.52-.1c.21-.69-1-.59-1.35-.49-1.42,1-1,1.49-1.08,2.18a9.83,9.83,0,0,0-.34,2.63,20.75,20.75,0,0,0-2,2.39,9.74,9.74,0,0,1-2.84,2.66c-.56.14-1.39-2-1.39-2s-.59-2-.65-2.56a8,8,0,0,0-.8-1.87l.37-.65.24.21a.33.33,0,0,0,.59,0l.14-.63.35-.83a5.15,5.15,0,0,0,3.33-.49c.69-.55-1-2.7-1-2.7a18.52,18.52,0,0,0,.62-2c.7-5.88-3.39-7.75-4.35-8-5-.55-6.17,1.53-6.87,2.28-2.14.21-1,2.42-1,2.42a28.1,28.1,0,0,0-.55,3.47s.2,1.52-.56,1.59a4.64,4.64,0,0,0-1.52.49,4,4,0,0,1-1.45.9,28.67,28.67,0,0,0-3.46,2.14,9.56,9.56,0,0,0-3,1.73s-2.08,2.22-2.64,2.77-2.56,2.42-2.56,2.42-1,.77-1.38,1-1,.9-1.18,1-.28,1.25-1,1.59c-.69.14-.9,1.66-.9,1.66a40.69,40.69,0,0,1-1.8,4,4.86,4.86,0,0,0-.83,2.15s-.28,3.39-.35,6.3c.91,4.42,5.19,6.37,7.14,6.71,2.83.9,5.54,3.67,6.85,5.06s2.42,2.77,2.42,2.77a19.32,19.32,0,0,1-.55,4.22,2.42,2.42,0,0,0-.35,2.63s.07,1-.28,1.38a22,22,0,0,0-1.17,3.6s-.11.3-.23.71l-11.32-1.74-32-19.1,3.28,14.68-63.73-9.79-.11.68h0l-3.51,22.91h0l-.2,1.3,73.44,11.28m-5-22.22,1.54,6.89-5.5-7.5Zm-9-1.39-8.26,6.06-6.06-8.26Zm-19.42-3-8.26,6.06-6.06-8.26Zm-19.39-3-8.27,6.06-6.07-8.26Zm-15.59-.13,5.51,7.52-7.51,5.51Zm-.94,15,7.77-5.7,5.7,7.77Zm16,1.69-6.4-8.72,8.72-6.4ZM1497,262.8l5.5,7.5-7.51,5.51Zm-.94,15,7.77-5.7,5.7,7.76Zm16,1.69-6.4-8.72,8.72-6.39Zm4.37-13.72,5.51,7.5-7.51,5.51Zm-.93,15,7.76-5.7,5.7,7.77Zm16,1.69-6.39-8.72,8.71-6.4Zm4.38-13.72,5.51,7.51-7.51,5.5Zm-.94,15,7.77-5.7,1.13,1.53,1.28,5.73Zm222,268.29a14.29,14.29,0,0,0-3.45-1.08l4.7-.83A14.81,14.81,0,0,0,1756.87,552.05Zm-1601.76,45a10.68,10.68,0,0,0-2.63.84,11.09,11.09,0,0,0-1-1.47Zm111.18-192.5a2.36,2.36,0,0,0,.88,0h0l9.95,5.2-.22.44-1.31.69,0,0a5.31,5.31,0,0,0-1.38,2.46l-.23.09a2.51,2.51,0,0,0-.45,0,2.63,2.63,0,0,0-2.36,1.15,5.41,5.41,0,0,0-.68,1.55l-22.37,1.64Zm26.38,38.64,2.49,33.92-47.83,3.51-2.61-35.53,18.08,15.45-.81,9.18s9.91,5.16,17.17-1.26l-.85-8.39Zm-9.46-28,1.48-1.48,1.15.6c0,.38-.05.66-.05.66v0Zm9.22-5.68-.33,1.26a5.16,5.16,0,0,0-1.67,1.27l-.9,0-2.36-1.24,2.75-3.45A12.93,12.93,0,0,0,292.42,409.52ZM273.59,382l-3.77-22.51.09,0a2.08,2.08,0,0,1,1.26.58c.65,1.3.9,1.8,1,2l-1.26,1.62,2.47,2.29-.56,1a1,1,0,0,0-.07.35.56.56,0,0,0,.53.57,5.67,5.67,0,0,1,1.42.94c.58.46,1.09.91,1.09.91l0,0h0a2.44,2.44,0,0,1,.45.27,2.39,2.39,0,0,1,.72.75,33.41,33.41,0,0,0,2.31,2.87,2.06,2.06,0,0,0,1.1.47.89.89,0,0,0,.69-.32,8.69,8.69,0,0,1,1.44-1.11c.55-.37,1-.66,1-.66l1.22-.87a3,3,0,0,0,1.53.8c.21.59,1.23,3.42,2,5.25a5.18,5.18,0,0,0,1.43,1.93c.43.4.67.61.67,1.07s-.22,1.53-.23,2.51a2.29,2.29,0,0,0,1.1,2.29l-1.84,1.91a5.08,5.08,0,0,0-.92,2.73V391l-2.64,3.56-.7,1.17a3.72,3.72,0,0,0-1.54,2.31,2.38,2.38,0,0,1-.27.83.5.5,0,0,1-.09.11h0l-.05,0,0,.07s-.95,2.2-1.41,3.14c-.33.66-2,3-2.84,4.24l-9-4.7a7.87,7.87,0,0,0-.06-1.55c-.05-.34-.13-.61-.15-.73l-1-6.25.61-.09L267.89,383Zm-19.2-84.24.11.94-.25-.49ZM34.3,543.19v-3s.83-2,.55-2.91c0,0,0-.06,0-.09l2.87,1.94.64,3.82Zm8.12-.53c-.4-1.89-.88-4.18-1-5.1A4.21,4.21,0,0,0,39.85,535l-4.66-3a6,6,0,0,0,.65-3,50.16,50.16,0,0,1-.13-6.19L36.27,511a41.32,41.32,0,0,0,1.54-5.93c0-1.17,2-5.12,2-6.19s.28-7,.28-7,.56-2.63,1.83-2.5c.69.26.69.79,1.26,2.24s3.51,8.43,3.51,8.43.15,3.42.56,8.3a16.77,16.77,0,0,0,2,5.14,27.69,27.69,0,0,1,.56,5.79v13s1.26,1.19,1,2.37-1.13,2.5-1,3.7a9.92,9.92,0,0,0,1,2.75l.11.91Zm110.73-1.46-8.25,20.42-2.28-4.05,9.9-25.23.82-.43Zm3.51-8.67,0-2.41,1.19-.63Zm3.3-8.15-3.16,1.89.12-5.16,3-7.67,1.21,8.06Zm1.24-23.67-.24-1.42,4.89-13.12,1.09.53-5.16,13.69Zm2.92,17.46-1.81-10.8,1.94-5,10.95-6.53ZM166,498l3.88-9.88,7.29,3.65Zm7.4-15.27,2.4-4.75,2.07,6.7Zm4.67-9.15-1.26-4.21,2.28-6.09,3.85-2.32-4.69,12.52Zm8.22-29.4,0-.1,1.25-3.35.65,2.39Zm2.17,2.07-.78,2.09-.46-1.37Zm-2.06,8.15.3,1-.84.48Zm-1.81,2.16-3.8,2.15,3.76-10L185.9,453Zm-3.3,27.84-2.34-7.85,6.84-4Zm6.29-16.67-8,4.94,4.69-12.49,3.38-2,1.67,5.12Zm.57-18,1-2.76,1.62,6.07-1.32.75ZM195.28,428,191,439.29,189,432.13Zm-2.57-1.91,4-9.87,1.3,4.41-1,2.69ZM191,458.52l-.66-2,1.15-.69.22.82Zm3.33-7.83-2-6.72,5.84-3.41Zm5.41-14.11-8.18,4.61-.12-.4,5.12-13.66,2.79-1.84,2,6.93Zm-1.43-14.1.13-.34.07.23Zm12.24-35.32-2.13,5.66L204.09,391Zm-2.37-1.34,3.74-8,.66-.51.58,2.86L212.15,383ZM206,399.36l-2,5.34-1.9-6.74Zm-3.28,12.92,1.7,6.3L201,420.79l-.86-3.09,1.87-5Zm-3,3.9-.48-1.72,1.46-.91Zm-1-4.72,2.31-5.67,1,3.64ZM203,428.11l-1.21-4.39,3.41-2.22.14.53Zm4.51-11-1.88-6.63,6-3.77Zm5.86-14.72-8.54,5.27-.41-1.43,2.46-6.55,6.62,2.37Zm2.41-6.47-6.46-2.71,2.53-6.78,2.32-1.36,2,9.79ZM213.52,382l0-.1V382Zm1.1-9.81,2.93-6.24.34,1.72-1.3,3.44-1.91,1.4Zm.92,4.42.82-2.19,2.49-1.93,1,5L216.24,380Zm2.43-6.51.27-.69.09.44Zm.15,19-1.19-5.74,4-2.32Zm1.74-31.08,2.74-3L220.4,361Zm3,16.54-.76-4.14,2.77-2Zm3.64-11-4.9,4,.26,1.55-1.15-6.32,3.55-9.5,2.34-2.53,1.68,7.41Zm-2-14.69,1.14-2.37.07.29-.56,1.48Zm6.14,2.16-1-3.58.81-.87L232,347Zm11.23-38.47-1.7-1.21,3,2.11-8.46,25.79-5.76,5.45-.6-2.19,2.75-7.31Zm-158.68,205L230.77,321l-4.46,9.92L85.52,518.75A4.19,4.19,0,0,0,83.22,517.54Zm32.88,2.4-29.45.34a7.21,7.21,0,0,0-.52-.8L224.55,334.78l-25.68,57.09.33.14-.82,2.36-.51-.2L165,477.06a3.87,3.87,0,0,0-3.7-1.26c-7.22.85-4.75,6.94-4.75,6.94l-21,24.42-.1,0c-2.63-1.14-3.7-.48-4.1,0-.65.72-5.84,6.53-12.14,13.56A30.63,30.63,0,0,0,116.1,519.94Zm24.26-5.61h.08a2.12,2.12,0,0,0,.26-.35l.19-.21h-.08c.64-1.21-.12-2.6-1.33-3.84l20.22-23.7,1.94,1.14-21.28,66.34-13-25.89Zm-8.46,79.9-1.2.44,3.9-9.32,9.54-10.91-7.25,14.16ZM201.6,625h-6.82v-.12h6.82Zm0-1.23h-6.82v-1.14h6.82Zm0-2.26h-6.82v-10h6.82Zm0-11.12h-6.82v-1.15h6.82Zm0-2.25h-6.82v-10h6.82Zm0-11.11h-6.82v-1.15h6.82Zm0-2.26h-6.82v-10h6.82Zm0-11.11h-6.82v-1.14h6.82Zm0-2.27h-6.82v-10h6.82Zm0-11.11h-6.82v-1.15h6.82Zm37,15.63h6.44c0,.39-.06.77-.08,1.15h-6.36Zm.6,29.84s-.43,3.48-.52,3.76a1.33,1.33,0,0,1-.08.15v-4.74h.79Zm.45-1.94h-1.05v-1.15H240Zm1.21-5.1c-.18.71-.43,1.76-.68,2.84h-1.58v-10h4.05C241.91,604.55,241.19,607.62,240.91,608.7Zm2.08-8.27h-4.35v-1.16h4.67Zm-4.35-2.27v-10H245c0,.86,0,1.64,0,2.16,0,1.68-.18,4.69-.18,4.69a22.81,22.81,0,0,0-1.12,3.15Zm6.82,26.75H244c0-.34,0-.71,0-.78s.59-.81,1-1.06a2.59,2.59,0,0,0,.48-.48Zm0-43.66-.54,1.46.54-.17v.91a13.13,13.13,0,0,0-.25,1.33h-6.57v-10h6.82Zm0-7.58h-6.82v-1.15h6.82Zm0-2.26h-6.82v-10h6.82Zm0-11.11h-6.82v-1.14h6.82Zm0-2.27h-6.82V548h6.82Zm0-11.11h-6.82v-1.14h6.82Zm1.27,27.86h1.15c-.39,1-.79,2.06-1.15,3Zm17,45.2a5.43,5.43,0,0,0,0,1.63l-.18,2.45s-.1.41-.21.93H248.54v-.09h-1.79v-4.19c.36-.6.87-1.41.87-1.41s3.26-7.07,3.73-9.25,2.22-4.88,3.15-6.39a49.21,49.21,0,0,0,3.73-5.31c.47-.69.58-.58.58-.58s1.46,3.39,2,4.59,1.46,4.5,2.22,5.81c.17,2,1,6.75,1,7.89S263.8,618.88,263.69,620Zm17.16-41.42h-1.23v1.11h1.23v1.15h-1.23v1.11h1.23v10h-1.23V593h1.23v1.15h-1.23v1.11h1.23v10h-1.23v1.12h1.23v1.15h-1.23v1.11h1.23v10h-1.23v1.12h1.23v1.14h-1.23v1.12h1.23V625h-4.74c-.25-1.77-2.38-1.37-2.65-1.37a5.26,5.26,0,0,1-1.22-.51l-.58-3,.76-.19c.76-.68.41-3,.56-4.55.78-2.36.61-6.68.53-8.08a26.52,26.52,0,0,1,.17-3.66s.26-3.1.26-4.13a12.4,12.4,0,0,0-1.14-3.38l-3-6.11c1.83.37,1.57-1.59,1.57-1.59a29.94,29.94,0,0,1-1.75-4.13,34.94,34.94,0,0,1,2-10.23l1.49-6.65s3.57,1.4,5.85,2.34a2.17,2.17,0,0,0,1.94,0ZM289,625h-6.82v-2.94H289Zm0-4.06h-6.82v-1.14H289Zm0-2.26h-6.82v-10H289Zm0-11.11h-6.82v-1.15H289Zm0-2.26h-6.82v-10H289Zm0-11.11h-6.82V593H289Zm0-2.26h-6.82v-10H289Zm0-11.11h-6.82v-1.15H289Zm0-2.26h-6.82v-10H289Zm0-11.12h-6.26c.21-.33.45-.72.7-1.15H289Zm0-2.26h-5a6,6,0,0,0,.53-1.42c.25-1.51.43-2.45.43-2.45l-.43-.76c0-.46.25-2.25.25-2.25a6.78,6.78,0,0,0,0-3.13H289Zm0-11.11h-4.67a.89.89,0,0,0-.3-.26c-1-.2-1.41,0-1.57.26h-.29v-1.15H289Zm0-2.26h-6.82v-10H289Zm0-11.11h-6.82v-1.15H289Zm0-2.25h-6.82v-10H289Zm0-11.12h-6.82v-1.14H289Zm52.36,86.15a37.5,37.5,0,0,0,1.95,3.73l-2.07,2.07-5.8-5.8ZM334.26,625V615l5.59,5.59L335.47,625Zm3.9,0,3-3,3,3ZM349,625h-2.11l-4.38-4.38,1.74-1.74a30.48,30.48,0,0,0,2.39,3.11,31.17,31.17,0,0,0,2.37,2.3Zm107.45-11.53c1.22,1.22,2.47,2.4,3.78,3.52L458,619.27l-5.8-5.8Zm-9.38,0-5.8,5.8-5.8-5.8Zm-16.69,0-5.8,5.8-5.8-5.8Zm-16.69,0-5.8,5.8-5.8-5.8ZM401,625V615l5.6,5.6L402.21,625Zm3.9,0,3-3,3,3Zm10.89,0h-2.12l-4.38-4.38,6.5-6.5Zm1.89,0V615l5.6,5.6L418.89,625Zm3.9,0,3-3,3,3Zm10.89,0h-2.12L426,620.62l6.5-6.5Zm1.9,0V615l5.59,5.59L435.58,625Zm3.9,0,3-3,3,3Zm10.88,0H447l-4.38-4.38,6.5-6.5Zm1.9,0V615l5.6,5.6L452.26,625Zm3.9,0,3-3,3,3Zm10.89,0h-2.13l-4.38-4.38,2.42-2.43c1.32,1.05,2.67,2.07,4.08,3Zm3.11,0h-1.21v-2.57q1.17.73,2.37,1.41Zm2.69,0,.19-.19.35.19ZM1629.8,600.65h-6v-7.17h6Zm0-8.15h-6v-1h6Zm0-2h-6v-8.78h6Zm0-9.74h-6v-1h6Zm49,19.87h-6v-7.17h6Zm0-8.15h-6v-1h6Zm0-2h-6v-8.78h6Zm0-9.74h-6v-1h6ZM1639.65,178l14.19,29.67,3.6,9.58-.79,2.87-7.55-7.14L1638,179.19Zm16,45.74-1.28,4.69-1.73-5.23,2-.61Zm-32.38-65.11.19.6-.33.63ZM1609.78,271l4.92.82,6.88-38.45-4.29-.93,2-11.76-3.34-.57,6.72-56.09,2.63.85,37.24,117-53.17-8.17Zm92,25.21-1.8-4.53,6.59,1Zm6.58-2-2.06,13.41-3.66-9.21Zm-4.27,32.63-5.66-3.62-1.33-3.54,1.71-5.78Zm4.93,7.92-2.74,9.38-5.55-14.82Zm-.68-25.79,2.11-13.73,5.81,7.92Zm9.24-4,5.7,7.77-13.48-2.07Zm1.81-1.33,8.69-6.37-2.31,15.06Zm-1.32-1.8-6.06-8.26,14.32,2.2Zm-19.79-14.39-1-2.43-.65.26-1.09-3.09.43-.19-33.65-74.83,63.33,84.5Zm-1.58,34.67-.27-.16.1-.3Zm-7.53-41.26-5.74,2.39-2.78-7.42Zm-10.57-10.5-1.38-3.68.76-3.75.86.67,4.92,10.47ZM1689,291.23l-.73,4.77-1.24-3.32Zm1.21,20.44,2.78.43,1.41,3.75-1.12,4-4.5-2.89Zm.8-18.84,0-.2,0,0Zm3.37,19.48,1,.15-.38,1.39Zm-1.47-6.74,2-1.43,1.44,3.53Zm-.41-2.48.77-2.86L1694,302Zm-15.65-34-.06-.06v-.07Zm-1.45-12.88-.08.41-2.51-1.83-1.7-4.52.45-2.25Zm-4.39-2.72-.47-.33.12-.59Zm-2.49-15.8-.7,3.83-2.9-7.71Zm-6.1-12.05-.85-.8-.72-1.93.08-.38Zm.32,5.78,4.66,12.46-1.51,8.29.34-2-6.42-5.22-2.33-7.07,2.19-9.72Zm2.89,60.4-1.3.29,1.13-.83Zm-1-32.46-2.64-8,3.63,2.55Zm-30.52,22.25,14.33,2.2-8.27,6.07Zm4.26,9.6-7.52,5.52,2-13Zm-19.41-3-7.51,5.51,2-13Zm-4.27-9.59,14.33,2.2-8.26,6.07Zm5.59,11.39,5.7,7.78-13.48-2.07Zm1.81-1.33,8.73-6.4-2.33,15.13Zm-11.09-9.08.37,0-2.2,14.36-.47,0-2.7-3.68,1-6,.6.1.43-2.54Zm-4.42,15.19-1.25-.19a7.74,7.74,0,0,1,.08-1.24l0-.12Zm-16.41-54.13c0-1,1.11-1,1.87-2.7s1.8-4.71,1.8-4.71a2.44,2.44,0,0,0,1.45-.76l1.18.83a14.58,14.58,0,0,1,2.22,1.59c.49.56,1.31-.14,1.31-.14a27.16,27.16,0,0,0,2-2.49,2.67,2.67,0,0,1,1.11-1,11.16,11.16,0,0,1,2.29-1.66c.48-.07.27-.56.27-.56l-.56-1,2.14-2-1.06-1.39.93-1.87a1.79,1.79,0,0,1,1.35-.56l-1.36,8.15-2.41-.4-5.43,32.36c-.64-.94-1.29-1.91-1.49-2.3-.42-.83-1.26-2.77-1.26-2.77s-.27-.14-.41-1a3.15,3.15,0,0,0-1.31-1.94l-.63-1-2.35-3.18V249a4.36,4.36,0,0,0-.76-2.29l-1.8-1.87C1590.95,244.33,1590.11,241.63,1590.11,240.66Zm7.41,37.53a1.16,1.16,0,0,0,.15.73l-2.42-3.3,2.86.44A9.36,9.36,0,0,0,1597.52,278.19Zm2.36,1.73,3.19-.28a12.23,12.23,0,0,1,1.24-.11l-.33,2.41-2.66,2-3.41-4.65A3.56,3.56,0,0,0,1599.88,279.92Zm-.37,5.3-7.51,5.51,2-13Zm1.33,1.81,2.58,3.51-.24,1.46a8.65,8.65,0,0,0-.22,1,10.93,10.93,0,0,0-.13,1.26l-9.76-1.5Zm1.8-1.32,1.8-1.32-.51,3.07Zm-11.89-21.42,4.08,5.12,2.52,2.52-3.18-.49a.86.86,0,0,0,0-.16s-.07-.83-.14-1.53c-.69-1.18-3.32-.9-3.88-.9-.27-.55-1.52-1.18-1.52-1.18l-.35-1.32A11.62,11.62,0,0,0,1590.74,264.27Zm1.21,12-2.33,15.1-6.39-8.71Zm-1.79-1.47-8.26,6.06-6.06-8.26Zm-20.43-3.14,1,.16-.85.63Zm1.81,8.09-1.1-4.92,2.09-1.54Zm1.34,6,1.7-11.06,5.51,7.5-6.88,5Zm.87,3.88,7.67-5.63,5.7,7.76-13.35-2.05Zm.95,4.25,58.41,9m2.31-4.35-.34.63-3.19-.49,7.77-5.7,2.91,4Zm13.17-2.94-3.64.81-3.49-4.76,8.72-6.4Zm2.35-.53,1.29-8.43,5.13,7Zm2.55-10.51,10.36,1.59.91,2.85-5.2,3.82Zm7,18.5,1.69-2.87,2.59,3.53Zm7.73-5.82-.41.31.27.66-.79,5.14-3.86-5.26,2.75-4.67.45,1.42.75-.54.9,2.61Zm1.43,5.4.05-.36.1.24Zm1.19-24.25-3.63-10.57,5.18,3.06Zm-2.23-15.29,1.28-6.52,3.26,2.53,1.08,2.87-.92,4.49ZM1676,273l3,1.79,3.32,8.88-2.22.93-6.31-1Zm2.25,21.79,4-1.44-3.31,2.43Zm1.06,6.58,1.83,1.14,3.05,4.16-2.95-.45Zm5.43,13.63-1.79-4.49,2.94.45Zm2-8.7-.44-.6.49.3Zm-6.22-8.48-.18-.24,5.72-4.2,1.88,5-.56,3.65Zm10.17,31.63-3-8,.18-.7,4.47,2.91Zm2.07,5.4,2.67-9.09,3.67,2.4,6.72,17.91-.15.53-10.73-6Zm9.26,24.2-5.07-13.28,7.66,4.47Zm4.38,10.27-.94-2.45.3-1.09,1.52.91Zm.33-7.13,2.14-8,1.36,3.63-1.77,5.32Zm6.52,3.67-1.14-.63.42-1.26Zm-.12-3.76,1.83-5.65,4.91,13.15-5-2.8Zm-.46-11.54-2.44-1.38.85-3.14,1.63,4.39Zm-1.21,3.66-.6,1.79-1-2.72Zm-2.7,21.39,2.17-6.73,4.43,2.66,6.13,16.37-10.53-6.47Zm10.46,27.7-5.88-15.6,8.94,5.29Zm4-14.34L1717,372.58l5.07,3,3,8-1.65,5.53Zm3.2,5.9,3.16,6.23-5.85,2.55Zm7.77,13.3,5.09,13L1724.55,413Zm7.51,39.33-14.52-29.21,14.35,8.57,2.56,6.5Zm3.08-23.3-6.77-17.94,1.43-.71,6.42,17.21-.31,1.87Zm.84,27.69,1.58-10.57,3.94,10.06.15,6.75-4.15-2.49Zm4.24,10.46,1.55.81.07,3.19Zm6.22,15.38-.24-12.21,1.08.57,13,33.06-3,5.32Zm27.88,69.51-6.56-7.4-9.5-18.55,12.5,14.29,5.11,12.23Zm-11.13-53.1-27.89-87,2.54-1.5,26.51,31c-1.58,1.64-2.58,3.47-1.75,5.06h-.1l.26.26a2.9,2.9,0,0,0,.34.45h.11l17.07,17.71Zm70.44-43.85-38.61-.45a38.9,38.9,0,0,0-4.08,1c-8.27-9.22-15.06-16.82-15.91-17.77-.53-.69-1.91-1.56-5.38-.07l-.13.07-27.49-32s3.24-8-6.23-9.11a5.12,5.12,0,0,0-4.85,1.64l-31.39-79.08,18.26,2.81.6-3.93h-.06l2.41-15.67,113.55,151.51A9.51,9.51,0,0,0,1843.17,450.32Zm1.48-2-114-152.18.56-3.65-3.72-.57L1660.08,202l-5.84-13,193.41,257.68A5.58,5.58,0,0,0,1844.65,448.31Zm44.82-42a7,7,0,0,1-.78,2.43,10.79,10.79,0,0,0,.08,3.44.12.12,0,0,1,0,.09c0,.05,0,0,0-.09a4.32,4.32,0,0,0-1.08-.92,3.66,3.66,0,0,1-1.21-.9c-.67-.7-1.88-6.77-1.88-6.77l-.11-2.63,1.56.31a19.49,19.49,0,0,0,2.54-2.82c.22-.61,1.33-.61,1.33-.61A34.77,34.77,0,0,1,1889.47,406.3Zm16.07,62.6-1,.67a5.55,5.55,0,0,0-2,3.39c-.21,1.2-.84,4.22-1.37,6.7l-8.56-.55.1-.77a9.18,9.18,0,0,0,.85-2.43c.11-1.06-.6-2.22-.85-3.26s.85-2.09.85-2.09V459a25.89,25.89,0,0,1,.48-5.11,14.68,14.68,0,0,0,1.68-4.54c.37-4.28.48-7.3.48-7.3s2.53-6.18,3-7.45.49-1.74,1.09-2c1.08-.12,1.56,2.2,1.56,2.2s.24,5.24.24,6.17,1.68,4.42,1.68,5.46a37.22,37.22,0,0,0,1.32,5.23l.48,10.34a47.3,47.3,0,0,1-.11,5.46A3.09,3.09,0,0,0,1905.54,468.9Zm1.21,11.11-.26,0,.26-1.55Zm6-99.23v-1s1.89-.51,2.44-1.41c0,0,.55,2.83.77,3.33a2.09,2.09,0,0,1,0,1.81c-.33.4-1,.2-1,.2l-2.76-.2A12,12,0,0,0,1912.72,380.78Z"/><path class="cls-3" d="M386.93,610a26.15,26.15,0,0,0,6.52-2.14l.55-.07.11.9.63,1.18a37.15,37.15,0,0,1-3.92.82h12l.76-5.28,1.78-1.88,1.23,2.41c.86,3.74,2.72-.17,2.72-.17l-.89-2.64a4,4,0,0,1,.77-2.48,3,3,0,0,0,.63-2.65,1.14,1.14,0,0,0-.09-.18c3.28-1.59.93-6.43.93-6.43l.15-4.43s2.86-2.46,3.62-2.31c1.73.13,1.49-2.65,1.49-2.65v-2.7c2.67-.23,2-1.25,2-1.25a39.77,39.77,0,0,1-1.88-6.85,11.11,11.11,0,0,0-5-6.94c-1.69-.76-3.9-1.7-3.9-1.7l-1-1.1,1.29-2.25,1.26-1.63a7.07,7.07,0,0,0,1.42.54c.89.26-.05-2.32-.21-2.54,2.47-6.32-2.63-8.84-4.38-9.11-4.49.23-5.71,3.08-5.71,3.08l-1.38-.19c-2.09-.09.79,1.36.79,1.36l-.28.65c-1.85,1.72-1.95,5.76-1.95,5.76a13.9,13.9,0,0,1,.32,2.4c-.71,1.07.88,1.11.88,1.11l.13,1-1.13-.22c-8.63.51-10,5-10,5l-4.53,6.6.06.48,1.15,1.32s-4.52,4.76-4.81,5.28l-.9,1.58-1.6.83L370,581.47l-.63,2.67,2.59,1.1a27,27,0,0,0,2.88.48,1.41,1.41,0,0,1,1,.35l-1.17,1.26a9.6,9.6,0,0,0-.13,1.85c0,1.1,2,2.06,3.29,1.65a2.57,2.57,0,0,0,1.61-1.67l.61,0,.53.29,1.58.9a9.45,9.45,0,0,0-.06,2.34c.15,1.08,1.72,1.91,1.72,1.91a11.85,11.85,0,0,0-5.18,5.28,71.61,71.61,0,0,0-2.81,6.61,4,4,0,0,0,2.16,4.2h5.62A25.3,25.3,0,0,1,386.93,610Zm1.22-32.79,1.36-.8a4.25,4.25,0,0,1,.25,2.78,20.44,20.44,0,0,0-.57,4l.09.71-2.14-.45-2-.1-.49-.92Z"/><path class="cls-6" d="M1319.57,625.63h.63l-.41-.23Z"/><path class="cls-6" d="M1391,625.63h1.8v-1c-.61.34-1.22.67-1.84,1Z"/><polygon class="cls-6" points="842.27 625.63 842.27 624.06 840.69 625.63 842.27 625.63"/><path class="cls-6" d="M1319.57,625.63l.23-.23.41.23Zm73.25,0H1391l0,0c.62-.32,1.23-.65,1.84-1Zm-550.55,0h-1.57l1.57-1.57Z"/><polygon class="cls-3" points="1150.6 628.41 1170.15 628.41 1170.15 557.56 1150.6 559.59 1150.6 628.41"/><rect class="cls-3" x="1147.34" y="564.02" width="26.07" height="4.95"/><rect class="cls-3" x="1147.34" y="579.14" width="26.07" height="4.95"/><rect class="cls-3" x="1147.34" y="594.26" width="26.07" height="4.95"/><rect class="cls-3" x="1147.34" y="609.38" width="26.07" height="4.95"/><rect class="cls-3" x="1147.34" y="624.5" width="26.07" height="4.95"/><rect class="cls-3" x="1164.17" y="521.36" width="0.85" height="42.66"/><rect class="cls-3" x="1162.43" y="526.92" width="0.85" height="35.45"/><rect class="cls-3" x="1159.95" y="521.36" width="0.85" height="38.4"/><rect class="cls-3" x="1152" y="522.41" width="0.85" height="45.53"/><rect class="cls-3" x="1154.44" y="529.18" width="0.85" height="30.58"/><rect class="cls-3" x="1156.87" y="532.31" width="0.85" height="30.06"/><rect class="cls-3" x="1167.82" y="525.36" width="0.85" height="35.8"/><rect class="cls-3" x="1166.08" y="533.53" width="0.85" height="28.85"/><rect class="cls-3" x="1158.26" y="529.18" width="0.85" height="33.71"/><rect class="cls-3" x="1158.68" y="554.48" width="10.43" height="0.85"/><rect class="cls-3" x="1152.02" y="555" width="6.71" height="0.85" transform="translate(-72.33 186.46) rotate(-8.95)"/><rect class="cls-3" x="1160.28" y="555.36" width="8.3" height="0.85" transform="translate(-91.41 259.72) rotate(-12.25)"/><rect class="cls-3" x="1155.79" y="552.13" width="0.85" height="8.34" transform="translate(502.65 1660.46) rotate(-85.07)"/><path class="cls-3" d="M633.55,581.38l-.08.85s-3.51.45-3.8.37-1-.75-1.13-.72a2,2,0,0,0-.39.25,3.17,3.17,0,0,0-.55.59,1.6,1.6,0,0,1-.12.22l-31.2,4-1.48-.87-.49.44h-1.4l.25,66.65s1.42.33,1.55,0-.1-19.16-.1-19.16h2.24s2.5.63,2.94-1.52l-.11-40.17.76-.48,25.39-1.9.49.19-.19,44.11a2.83,2.83,0,0,0,2.25,3.18c2.6.49,4.23.87,4.23.87v10.66l-.16,12.39a1.71,1.71,0,0,0,1.88,0l1-79.94S634.11,581,633.55,581.38Zm-39,7.66.16-.31,4.08-.62v13.13l-.4.37h-3.67l-.16-.22Zm0,13.56.4-.28h3.64l.31.28.16,14.8-.28.4H595l-.5-.4Zm4.51,29c0,.09-.22,1.21-.8,1.42l-3.55-.28-.16-.31V618.69a4.29,4.29,0,0,1,.46-.4l3.33.2.71.35S599.07,631.54,599,631.64Zm12.55-41.57a.53.53,0,0,1-.2.22s-10.73.9-10.73.9h-.53l-.31-.2v-2.86l.6-.29s10.92-1.21,10.92-1.21l.25.17Zm14.56-1.61a.8.8,0,0,0,0,.28l-.87.34-12.21,1h-.59l-.14-3.32.43-.26,13.1-1.5s.29.39.28.45S626.18,588.41,626.15,588.46Zm6.64,48.15a3.44,3.44,0,0,1-.55.22l-3.4-.31a3.53,3.53,0,0,1-1.58-1.48c-.25-.74-.28-15.14-.28-15.14a3.2,3.2,0,0,1,.43-.28l5.28.14.25.14Zm.25-18h-5.19l-.62-.31V601.52l.12-.31c.76-.35,5.66-.41,5.66-.41l.25.29Zm.31-19.11-1.08.52h-4.65l-.38-.37.18-14.08.2-.76,5.45-.51h.43Z"/><path class="cls-3" d="M666.79,589.53l-.07.74s-3,.39-3.29.32-.87-.66-1-.63a1.56,1.56,0,0,0-.34.21,3.17,3.17,0,0,0-.48.51,1,1,0,0,1-.11.19l-27,3.48-1.28-.75-.43.38h-1.21l.22,57.74s1.23.29,1.34,0-.09-16.6-.09-16.6H635s2.17.55,2.54-1.31l-.09-34.8.66-.42,22-1.64.43.16-.16,38.21a2.46,2.46,0,0,0,2,2.76c2.25.43,3.67.75,3.67.75V648l-.14,10.73a1.47,1.47,0,0,0,1.63,0l.91-69.24S667.27,589.19,666.79,589.53ZM633,596.17l.13-.27,3.53-.54v11.37l-.35.32h-3.18l-.13-.18Zm0,11.74.35-.24h3.16l.27.24.14,12.82-.24.35h-3.24l-.43-.35Zm3.91,25.15c0,.08-.19,1-.7,1.23l-3.08-.24-.13-.27V621.85a3.56,3.56,0,0,1,.4-.35l2.89.17.62.31S636.92,633,636.89,633.07Zm10.88-36s-.14.17-.17.19-9.3.78-9.3.78h-.46l-.27-.17v-2.48l.52-.25,9.46-1,.21.15Zm12.62-1.39a.69.69,0,0,0,0,.24l-.75.3L649,597h-.51l-.12-2.88.37-.23,11.35-1.3s.25.33.24.39S660.41,595.62,660.38,595.66Zm5.76,41.71a3.07,3.07,0,0,1-.48.19l-2.94-.27a3.06,3.06,0,0,1-1.36-1.29c-.21-.64-.24-13.11-.24-13.11a2.55,2.55,0,0,1,.38-.24l4.57.12.22.12Zm.21-15.55h-4.49l-.54-.27V607l.1-.27a31.67,31.67,0,0,1,4.91-.36l.21.25Zm.27-16.55-.94.46h-4l-.33-.32.16-12.2.17-.66,4.72-.44h.37Z"/><path class="cls-3" d="M658.27,590.67c-1.24-.12-1.15.25-1.73-.08s-25.37-6.92-25.37-6.92l-1.49-1.07a8,8,0,0,0-1.06,1.85c0,.31.7.66.74.82s.21.41.37.25a1.67,1.67,0,0,1,.49-.29l.32.25a.49.49,0,0,0,.46.12c.25-.08,5.23,1,5.23,1l-27.39,3-9-1.52a12.23,12.23,0,0,0-1.68-.29c-.45,0-2.39.08-2.39.08l-.62.27a8,8,0,0,0,.7,1.15c.06,0,.72.12.84.12l2.59-.1L631.78,595l1.52-.66-1.93-.57-1.11-.25L653.32,591l1.4.16.45.38.48,0,3.56,0S659.5,590.79,658.27,590.67Zm-32,2.06-14.91-2.45L637.14,588a13.92,13.92,0,0,0,1.73-.33l.54-.25,11.53,2.86Z"/><path class="cls-3" d="M594.33,595.24h.89s.12,0,.21.17a3.77,3.77,0,0,1,.14.39l.22.16.6.83,35.5,37.15s.35.88.24.82-.55-.45-.55-.45l-18-18.78s-17.44-18.23-17.61-18.25-.29,0-.47-.14-.16-.35-.33-.49-.23-.31-.33-.31-.54.39-.6.08A4.73,4.73,0,0,1,594.33,595.24Z"/><path class="cls-3" d="M631.61,601.42l-37.22,42s-.15.9-.2,1.07-.32.41,0,.37a.8.8,0,0,0,.51-.41s.43-.21.43-.08-.08.79.21.49.49-.46.41-.66a4.28,4.28,0,0,1-.17-.62l36.24-41.55.33-.66Z"/><path class="cls-3" d="M666.92,598.15l-34.77,51.65H631s-.16-.41-.16,0v.74l.37-.17.54-.12v.62h.36s1,.66,1,0a18.41,18.41,0,0,1,1.14-3.25l32-47.61.67-.33.4-.83Z"/><path class="cls-3" d="M633.84,595.24c-.15-.21-1.9-.33-1.69,0s-.83.56,0,.74l.83.19.86.63,30.55,42.44a2.91,2.91,0,0,0,0,.64c0,.06,0,0,.12.1s.15.11.28,0,.19,0,.19-.13,0-.17,0-.17l.58,0s.29.27.33.28.59.59.52,0,0-.94,0-.93-.62-.15-.79,0a3.41,3.41,0,0,1-.44.22s-.4-.31-.4-.31l-29.9-42.63S633.95,595.38,633.84,595.24Z"/><path class="cls-3" d="M633.55,515.76l-.08.85s-3.51.45-3.8.37-1-.76-1.13-.72a1.86,1.86,0,0,0-.39.25,3.34,3.34,0,0,0-.55.59,1.44,1.44,0,0,1-.12.22l-31.2,4-1.48-.86-.49.43h-1.4l.25,66.66s1.42.33,1.55,0-.1-19.17-.1-19.17h2.24s2.5.63,2.94-1.51l-.11-40.17.76-.48,25.39-1.9.49.18-.19,44.11a2.83,2.83,0,0,0,2.25,3.18c2.6.5,4.23.87,4.23.87v10.66l-.16,12.39a1.71,1.71,0,0,0,1.88,0l1-79.94S634.11,515.36,633.55,515.76Zm-39,7.66.16-.31,4.08-.62v13.13l-.4.37h-3.67l-.16-.22Zm0,13.56.4-.28h3.64l.31.28.16,14.79-.28.4H595l-.5-.4ZM599,566c0,.09-.22,1.21-.8,1.42l-3.55-.28-.16-.31V553.07a4,4,0,0,1,.46-.4l3.33.2.71.36S599.07,565.92,599,566Zm12.55-41.57s-.15.2-.2.22-10.73.9-10.73.9h-.53l-.31-.2v-2.86l.6-.29,10.92-1.2.25.17Zm14.56-1.61a.8.8,0,0,0,0,.28l-.87.34-12.21,1h-.59l-.14-3.32.43-.26,13.1-1.5a2.16,2.16,0,0,1,.28.44C626.14,519.86,626.18,522.78,626.15,522.83ZM632.79,571a3.42,3.42,0,0,1-.55.22l-3.4-.31a3.5,3.5,0,0,1-1.58-1.48c-.25-.74-.28-15.13-.28-15.13a3.39,3.39,0,0,1,.43-.28l5.28.14.25.14Zm.25-18h-5.19l-.62-.31V535.9l.12-.31c.76-.35,5.66-.41,5.66-.41l.25.29Zm.31-19.11-1.08.53h-4.65l-.38-.37.18-14.09.2-.76,5.45-.51h.43Z"/><path class="cls-3" d="M666.79,523.91l-.07.73s-3,.39-3.29.32-.87-.65-1-.63a1.56,1.56,0,0,0-.34.21,3,3,0,0,0-.48.51,1,1,0,0,1-.11.19l-27,3.48-1.28-.75-.43.38h-1.21l.22,57.74s1.23.28,1.34,0-.09-16.6-.09-16.6H635s2.17.55,2.54-1.31l-.09-34.8.66-.41,22-1.65.43.16-.16,38.21a2.46,2.46,0,0,0,2,2.76c2.25.43,3.67.75,3.67.75v9.23l-.14,10.73a1.48,1.48,0,0,0,1.63,0l.91-69.24S667.27,523.56,666.79,523.91ZM633,530.54l.13-.27,3.53-.54v11.37l-.35.32h-3.18l-.13-.19Zm0,11.75.35-.24h3.16l.27.24.14,12.81-.24.35h-3.24l-.43-.35Zm3.91,25.15c0,.09-.19,1-.7,1.23l-3.08-.24-.13-.27V556.23a3.37,3.37,0,0,1,.4-.35l2.89.17.62.31S636.92,567.36,636.89,567.44Zm10.88-36s-.14.17-.17.19l-9.3.77h-.46l-.27-.17v-2.48l.52-.26,9.46-1,.21.15ZM660.38,530a.69.69,0,0,0,0,.24l-.75.3-10.58.86h-.51l-.12-2.88.37-.23,11.35-1.3s.25.33.24.39S660.41,530,660.38,530Zm5.76,41.72a3.1,3.1,0,0,1-.48.19l-2.94-.27a3,3,0,0,1-1.36-1.28c-.21-.64-.24-13.11-.24-13.11a2.63,2.63,0,0,1,.38-.24l4.57.12.22.12Zm.21-15.56h-4.49l-.54-.27V541.35l.1-.27a31.06,31.06,0,0,1,4.91-.36l.21.25Zm.27-16.55-.94.45h-4l-.33-.32.16-12.2.17-.66,4.72-.44h.37Z"/><path class="cls-3" d="M658.27,525c-1.24-.12-1.15.25-1.73-.08S631.17,518,631.17,518L629.67,517a8.06,8.06,0,0,0-1.06,1.85c0,.31.7.66.74.83s.21.41.37.25a1.66,1.66,0,0,1,.49-.29l.32.25a.5.5,0,0,0,.46.12c.25-.08,5.23,1,5.23,1l-27.39,3-9-1.53a12.34,12.34,0,0,0-1.68-.29c-.45,0-2.39.08-2.39.08l-.62.27a8.29,8.29,0,0,0,.7,1.15,7.86,7.86,0,0,0,.84.13l2.59-.1,32.51,5.64,1.52-.66-1.93-.58-1.11-.25,23.06-2.47,1.4.17.45.38.48,0,3.56,0S659.5,525.17,658.27,525Zm-32,2.06-14.91-2.45,25.75-2.29a13.06,13.06,0,0,0,1.73-.33c.25-.12.54-.25.54-.25l11.53,2.86Z"/><path class="cls-3" d="M594.33,529.62h.89s.12,0,.21.16a3.77,3.77,0,0,1,.14.39l.22.17.6.83,35.5,37.14s.35.89.24.82-.55-.45-.55-.45l-18-18.78s-17.44-18.22-17.61-18.24-.29,0-.47-.15-.16-.35-.33-.49-.23-.31-.33-.31-.54.39-.6.08A4.72,4.72,0,0,1,594.33,529.62Z"/><path class="cls-3" d="M631.61,535.79l-37.22,42s-.15.91-.2,1.07-.32.41,0,.37a.8.8,0,0,0,.51-.41s.43-.21.43-.08-.08.79.21.5.49-.46.41-.66a4.38,4.38,0,0,1-.17-.62l36.24-41.56.33-.66Z"/><path class="cls-3" d="M666.92,532.53l-34.77,51.65H631s-.16-.41-.16,0v.74l.37-.17.54-.12v.62h.36s1,.66,1,0A18.38,18.38,0,0,1,634.3,582l32-47.6.67-.33.4-.83Z"/><path class="cls-3" d="M633.84,529.62c-.15-.22-1.9-.33-1.69,0s-.83.55,0,.74l.83.19.86.64L664.4,587.4a3,3,0,0,0,0,.64c0,.06,0,0,.13.1s.15.11.28,0,.19,0,.19-.12,0-.17,0-.17l.58,0s.3.27.33.29.59.58.52,0,0-.93,0-.92-.62-.15-.79,0a3.38,3.38,0,0,1-.44.22s-.4-.31-.4-.31l-29.91-56.41S633.95,529.76,633.84,529.62Z"/><path class="cls-3" d="M602,522c.75-.08,35.49,6.32,35.49,6.32l18.76-1.7s-34.33-8.13-35.19-7.38S602,522,602,522Z"/><path class="cls-3" d="M628.37,523.37c0,.15.88.74,1,.75s3.8-.14,4.43-.28a1.32,1.32,0,0,0,.92-.69c.08-.15-1.34-1-1.43-1.18s-1-.36-1-.48a4.72,4.72,0,0,1-.34-1.36,12.61,12.61,0,0,1,1.11-4.18c.63-1,1.57-5.77,1.57-5.77a6,6,0,0,0,.63,0,2,2,0,0,0,.73-.27s.29-.61.48-1a5.77,5.77,0,0,0,.48-1.2c.21-.65.15-.52.55-.91s-.42-2.64-.42-2.64l1.18,1c.15.13,1.49,2.27,1.78,2.83a16.82,16.82,0,0,0,1,1.45c0,.1-.06.34.1.55s.4.19.48.76,2.6,7.47,2.6,7.47l-.08.23a14.32,14.32,0,0,0-.1,1.47c0,.13.17,2.66.17,2.66v.86s.63.44.82.61a10.56,10.56,0,0,0,2.29,0c.08,0,4.36-.44,4.72-.92s-.86-1.32-1.36-1.32-3.65-3.52-3.65-3.52l0-.55-.71-8.27.31-.13,1.49,5.54c1.11.65,5.54,0,5.54,0l-.08-.63.88-5.37h.21a.64.64,0,0,1,.42-.57c.41-.13.4-.25.52-.49s-.52-.15-.52-.15a3.36,3.36,0,0,0-.22.48c-.06.21-.27-.19-.27-.19a20.06,20.06,0,0,0-.44-3.06c-.1-.57-1.43-1.68-1.53-1.81s.13-.5.13-.57-.25-.23-.25-.48a6.81,6.81,0,0,0-.86-1.41s-.88-.76-.88-1-.69-.88-.76-1.39-.69-1.45-.69-1.76a6.58,6.58,0,0,1,1.51-2.21,10.11,10.11,0,0,0,1.38-1.13,4,4,0,0,0,.47.47c.1.05.27.38.48.44a1.5,1.5,0,0,0,.57,0,9,9,0,0,0,1.1-.22.27.27,0,0,1,.32.1,1.21,1.21,0,0,0,.81.18c.28,0,.76-.8.76-.77a4.34,4.34,0,0,0,1.3,1.35c.63.32,1.35-1.73,1.35-1.73,4.37-5.37-2.18-7.56-2.18-7.56a6,6,0,0,0-3.59,1.09,1.39,1.39,0,0,0,.15.74l-1,.3s-.95-.8-1.39-1.07a39.47,39.47,0,0,0-4.09-1.09,16.22,16.22,0,0,0-1.76-.63c-.84-.23-7.53,2.08-7.7,2s-1.11,1.83-2.06,2.1-1.21.44-1.64.53-.46,1.76-.55,1.93a13.39,13.39,0,0,0-.78,2,3.37,3.37,0,0,1-.44,1l-.57,3.09a5.55,5.55,0,0,0-.44,2.46c.13,1.19.5,3,.5,3s-.06.27-.21,1.2a17.41,17.41,0,0,0-.27,2.43,11.69,11.69,0,0,1-.23,1.61,7.13,7.13,0,0,0,.17,1.3c-.8.73-2.1,9-2.1,9v1.32s-.46.4-.44.59a17.17,17.17,0,0,1-.29,2A7.24,7.24,0,0,0,628.37,523.37Zm21.39-18.75a4.56,4.56,0,0,1,.25-.4s-.1.2.38.21.54,0,.63-.1.1-.17.25-.1a1.44,1.44,0,0,0,.6,0l.08-.12s.64,0,.46-.29a7.78,7.78,0,0,1,1.09,1.19c0,.17.64,2.46.64,2.53s-.09.79-.09.79-.07.21-.13.2-.61-.22-.65-.36a.58.58,0,0,0-.5-.25c-.2,0-.37.09-.47-.16a2.92,2.92,0,0,0-.35-.76c-.2-.25-.23-.66-.7-.71s-1-.67-1.09-.78-.23-.18-.29-.42A2.14,2.14,0,0,1,649.75,504.62Zm-3.84-1.29,1,1.87-.2,1s.2.8.1.61-.41-.78-.52-1,0-.65-.17-1.15S645.91,503.34,645.91,503.34Zm-1.08-3.9a9.28,9.28,0,0,1,.31-1.26s.56-2.3,1.24-2.76a12.88,12.88,0,0,1-.67,2.52s1.13,1.64,1.3,2,1.43,1.43,1.3,1.51.2.51.08.71-.14.35,0,.43.83.41.63.49-.64.42-.7.45l-.26.16s-1-1-1.05-1.1S644.87,499.52,644.83,499.44Z"/><path class="cls-3" d="M616.17,582s0,0,0,0Z"/><path class="cls-3" d="M630.85,556.77a12.32,12.32,0,0,0-.41-1.41c-.11-.49-.63-1.9-.68-2.12s-.3-.41-.46-.76a18.76,18.76,0,0,1-.49-1.9,23.53,23.53,0,0,0-1.9-3.88c-.35-.3,0-.3,0-.54s-.38-.44-.38-.57a2.47,2.47,0,0,0-.19-.79c-.16-.46-.41-.49-.57-1s-.32-1.47-.38-1.63-1.38-3-1.5-3.25-.31-.47-.35-.57a16.93,16.93,0,0,0-1.79-.77,4.91,4.91,0,0,0,.14-.69c0-.16.1-.73.1-.73s.2-.22.26-.22.39-.14.39-.2a3.1,3.1,0,0,0-.41-.47l-.24-.65c.1-1.18-1.65-2.18-1.65-2.18l-.29-.31a2.61,2.61,0,0,0-3.09.57c-1.47.36-1.52,3.2-1.52,3.2l.34.06v.63a1.1,1.1,0,0,1-.38.23,1.8,1.8,0,0,0-.52.25,3,3,0,0,1-.73.25c-.34.1-1.53.49-1.53.49l-1,.3a6.34,6.34,0,0,0-1.14.44,1.85,1.85,0,0,0-.73.49c-.35.3-.27.38-.68.81s-.27.54-.27.54a2.7,2.7,0,0,1-1,.41c-.81.25,0,0-.27.3a2.26,2.26,0,0,1-.32.33,2.84,2.84,0,0,1-.6.3c-.46.19-.46.11-.6.27s-.52.25-.84.44a3,3,0,0,1-.84.24,4.14,4.14,0,0,1-.68.22,4,4,0,0,0-.81.27c-.33.14-.73.27-1.52.57s-.57.16-.73.24a.24.24,0,0,0-.11.27l-2.69.68c-.41.11-1.19.05-1.55.11s-1.71.24-2,.35.16-.08-.81.16-1.87.71-2.31.79c0,0-.3,0-.3.11s.27.52.08.73a.87.87,0,0,0-.22.41,2.24,2.24,0,0,0,.22.87,1.46,1.46,0,0,0,.43.65c.22.14.25.33.66.35s.19.22.41.3.62-.3.68-.38,1.3-.76,1.38-.87a4.16,4.16,0,0,1,.76-.43c.3-.17.84-.49,1-.57a2,2,0,0,1,.6-.27l1.09-.17c.19,0,2.8-.32,2.93-.38a3.57,3.57,0,0,1,.79,0l.79.19,1.27-.24,1-.19a3,3,0,0,1,.62-.24c.14,0,1,0,1.17-.3a1.31,1.31,0,0,1,1-.38,1.66,1.66,0,0,0,.95-.35,2.45,2.45,0,0,0,1-1c.3-.49,2.31-.95,2.25-.57a15.72,15.72,0,0,0,.27,2.61,11.83,11.83,0,0,1,.46,2c-.05.38.79,3.07.76,3.72s.71,1.68.49,1.84-.38.9-.57,1.3.68.44.41.76,0,1.09-.22,1.66a17.57,17.57,0,0,0-.19,2.63c-.08.9-.14,3.42-.19,3.78a4,4,0,0,0,.92,2.09c.52.57.33,4.26.41,4.7s.82,3.39.82,3.39.16,1.06.22,1.9,0,.95.11,1.22.35,1.2.65,1.85a5.66,5.66,0,0,1,.44,1,5.06,5.06,0,0,1,0,1.44,2.39,2.39,0,0,1-.07.51.18.18,0,0,1,0,.06c.05.25.19.38.08.46s-.35.27-.62.46-.19.24-.41.43-.32.25-.35.33a5.62,5.62,0,0,1-1.33.57c-.57.19-.35.3-.38.49a9.16,9.16,0,0,0,2.53.28c.35,0,4,.16,4.21.13s.35,0,.35.17.43.11.62.16,5.59.22,5.67.22.16-.17.16-.55.33-.41-.71-.68-.79-.35-.9-.46-.87-.71-1.19-.93-.27-.27-.24-.38a2.15,2.15,0,0,0,0-.84,5.24,5.24,0,0,1-.19-.92c0-.14.11-1.69.11-1.69a5.41,5.41,0,0,1,.14-1,3.47,3.47,0,0,0,.05-1c0-.49-.08-2.17-.08-2.06s.27-2.93.27-2.93l-.08-.52a3.93,3.93,0,0,0,.24-1.6c-.05-.9.14-.57,0-.87s.05-.87.33-1.28a20.88,20.88,0,0,0,.49-3.66,12.55,12.55,0,0,1,0-1.33,25.83,25.83,0,0,0-.16-2.61,7.57,7.57,0,0,0,.33-1.47,11.63,11.63,0,0,0-.68-3.88c-.19-.49.14-.73.19-1a3.67,3.67,0,0,0-.57-1.38,7.8,7.8,0,0,1-.38-2,12.09,12.09,0,0,1-.05-2.22c0-.92-.22-2.28-.22-2.36s.3.81.51,1.14a3.64,3.64,0,0,1,.54,1.28,8.6,8.6,0,0,0,.92,1.77,10,10,0,0,0,1.14,1.68s.32.32.62.65a3.61,3.61,0,0,1,.65.84c0,.14.43,1.93.43,2a4.63,4.63,0,0,1-.14,1c-.11.35-.35-.27-.3,1.11s.63.43.63.43.27-.38.38-.38.16.55.19.73a.79.79,0,0,1-.14.44,2.73,2.73,0,0,0-.3.22c-.16.14,0,.16.24.22s0,0-.08.08a1.34,1.34,0,0,1-.35.22c-.24.14.06.33.27.38a1.47,1.47,0,0,0,1-.1,2.52,2.52,0,0,0,.46-.63c.14-.19.87-1.36.79-1.63A3.57,3.57,0,0,1,630.85,556.77ZM620.13,573.9a3.07,3.07,0,0,0,.11,1.43c.19.49-.07.94,0,1.38a2.55,2.55,0,0,1,0,.81c0,.2-.45.45-.49.29a2.82,2.82,0,0,0-.29-.53l-.28-.69a1.69,1.69,0,0,1-.21-.57c0-.21,0-1.06-.08-1.43a10.17,10.17,0,0,0-.21-1,10.9,10.9,0,0,1-.49-2.36,1.74,1.74,0,0,0,.09-1.26.54.54,0,0,1,0-.61v-.65l.2-1.14.29-1.18s.33-1,.41-1.39l.14-.61s.19,1.47.19,2.2a4.38,4.38,0,0,0,.33,1.55c.12.41,0,.41-.08.86s-.24.65-.12,1.06a6.53,6.53,0,0,0,.71,1.59c.35.53-.22.77-.22,1.26S620.17,573.57,620.13,573.9Z"/><path class="cls-3" d="M725.92,583.58l0,.5s-2.08.27-2.25.22-.59-.45-.67-.43a1.2,1.2,0,0,0-.23.15,2.13,2.13,0,0,0-.33.35.82.82,0,0,1-.07.13l-18.48,2.38-.88-.51-.29.26h-.83l.15,39.47s.84.2.92,0-.06-11.35-.06-11.35h1.33s1.48.38,1.74-.9l-.06-23.79.45-.28,15-1.12.29.11-.11,26.12a1.68,1.68,0,0,0,1.34,1.88c1.54.29,2.51.51,2.51.51v6.31l-.09,7.33a1,1,0,0,0,1.12,0l.62-47.34S726.25,583.34,725.92,583.58Zm-23.11,4.54.09-.18,2.41-.37v7.77l-.24.22H702.9l-.09-.13Zm0,8L703,596h2.16l.18.16.09,8.76-.17.24H703.1l-.29-.24Zm2.67,17.19c0,.06-.13.71-.48.84l-2.1-.16-.09-.18v-8.16a2.37,2.37,0,0,1,.28-.24l2,.12.42.21S705.5,613.28,705.48,613.34Zm7.44-24.62s-.09.12-.12.13l-6.36.53h-.31l-.18-.12v-1.69l.36-.17,6.47-.71.15.1Zm8.62-1a.52.52,0,0,0,0,.17l-.51.2-7.23.59h-.35l-.08-2,.26-.16,7.76-.89s.17.23.16.27S721.56,587.74,721.54,587.77Zm3.93,28.52a2.06,2.06,0,0,1-.33.13l-2-.18a2.07,2.07,0,0,1-.93-.88c-.15-.44-.17-9-.17-9a1.78,1.78,0,0,1,.26-.16l3.13.08.15.08Zm.15-10.63h-3.07l-.37-.18v-10l.07-.18a21.4,21.4,0,0,1,3.35-.24l.15.17Zm.18-11.32-.64.31h-2.75l-.23-.22.11-8.34.12-.45,3.23-.3h.26Z"/><path class="cls-3" d="M745.61,588.4l0,.44s-1.8.23-1.95.19-.51-.39-.58-.37a1,1,0,0,0-.2.13,1.7,1.7,0,0,0-.29.3.58.58,0,0,1-.06.11l-16,2.06-.76-.44-.25.22h-.72l.13,34.2s.73.17.79,0-.05-9.83-.05-9.83h1.15s1.28.32,1.51-.78L728.22,594l.39-.25,13-1,.25.1-.09,22.63a1.45,1.45,0,0,0,1.16,1.63c1.33.25,2.17.44,2.17.44v5.47l-.08,6.35a.87.87,0,0,0,1,0l.54-41S745.89,588.2,745.61,588.4Zm-20,3.93.08-.16,2.09-.32v6.73l-.21.19h-1.89l-.08-.11Zm0,7,.21-.14h1.87l.16.14.08,7.59-.14.21h-1.92l-.25-.21Zm2.31,14.89s-.11.62-.41.73l-1.82-.14-.08-.16v-7.07a2,2,0,0,1,.24-.21l1.71.1.36.18S727.91,614.14,727.9,614.19Zm6.44-21.33a.28.28,0,0,1-.1.11l-5.51.46h-.27l-.16-.1v-1.47l.31-.15,5.6-.62.13.09Zm7.47-.82a.47.47,0,0,0,0,.14l-.44.17-6.27.51h-.3l-.07-1.7.22-.13,6.72-.77s.15.2.14.23S741.83,592,741.81,592Zm3.41,24.71a1.82,1.82,0,0,1-.29.11l-1.74-.16a1.8,1.8,0,0,1-.81-.76c-.13-.38-.14-7.76-.14-7.76a1.64,1.64,0,0,1,.22-.14l2.71.07.13.07Zm.13-9.21h-2.66l-.32-.16v-8.63l.06-.16a18.57,18.57,0,0,1,2.91-.21l.13.15Zm.16-9.8-.55.27h-2.39l-.2-.19.1-7.23.1-.39,2.8-.26h.22Z"/><path class="cls-3" d="M740.56,589.08c-.73-.07-.68.15-1,0s-15-4.1-15-4.1l-.88-.63a4.74,4.74,0,0,0-.63,1.1c0,.18.41.39.44.49s.12.24.22.15a1,1,0,0,1,.29-.17l.19.15a.3.3,0,0,0,.27.07c.15,0,3.1.61,3.1.61l-16.22,1.78-5.34-.9a7.23,7.23,0,0,0-1-.17l-1.41,0-.37.16a4.77,4.77,0,0,0,.41.68,5,5,0,0,0,.5.07l1.54-.06,19.26,3.34.9-.39-1.15-.34-.66-.15,13.66-1.46.83.1.27.22.28,0,2.11,0S741.29,589.15,740.56,589.08Zm-18.93,1.22-8.83-1.45L728,587.49a8,8,0,0,0,1-.2l.32-.14,6.83,1.69Z"/><path class="cls-3" d="M702.69,591.79h.52s.07,0,.12.1a2,2,0,0,1,.08.23l.14.1.35.49,21,22s.21.53.15.49-.33-.27-.33-.27L714.07,603.8S703.74,593,703.64,593s-.17,0-.28-.08-.1-.21-.19-.29-.13-.18-.19-.18-.32.23-.35,0A2.87,2.87,0,0,1,702.69,591.79Z"/><path class="cls-3" d="M724.77,595.44l-22,24.9s-.09.54-.12.63-.19.24,0,.22a.47.47,0,0,0,.3-.24s.25-.12.25,0,0,.47.12.3.29-.27.24-.39a2.68,2.68,0,0,1-.1-.37l21.46-24.61.19-.39Z"/><path class="cls-3" d="M745.69,593.51,725.09,624.1h-.66s-.1-.24-.1,0v.44l.22-.1.32-.07v.37h.21s.59.39.6,0a10.89,10.89,0,0,1,.67-1.93l18.93-28.2.4-.19.24-.49Z"/><path class="cls-3" d="M726.09,591.79c-.09-.13-1.12-.2-1,0s-.49.33,0,.44l.49.11.51.38L744.19,626a1.77,1.77,0,0,0,0,.38s0,0,.07.06.09.06.16,0,.12,0,.12-.08,0-.1,0-.1l.34,0,.2.17s.35.35.31,0,0-.55,0-.55-.37-.09-.47,0l-.26.13s-.24-.18-.24-.18L726.7,592.48S726.16,591.87,726.09,591.79Z"/><path class="cls-3" d="M707.22,587.29c.44,0,21,3.74,21,3.74l11.11-1s-20.33-4.81-20.84-4.37S707.22,587.29,707.22,587.29Z"/><path class="cls-3" d="M1416,583.58l0,.5s-2.08.27-2.25.22-.59-.45-.67-.43a1.2,1.2,0,0,0-.23.15,2.13,2.13,0,0,0-.33.35.82.82,0,0,1-.07.13l-18.48,2.38-.88-.51-.29.26h-.83l.15,39.47s.84.2.92,0-.06-11.35-.06-11.35h1.33s1.48.38,1.74-.9l-.06-23.79.45-.28,15-1.12.29.11-.11,26.12a1.68,1.68,0,0,0,1.34,1.88c1.54.29,2.51.51,2.51.51v6.31l-.09,7.33a1,1,0,0,0,1.12,0l.62-47.34S1416.3,583.34,1416,583.58Zm-23.11,4.54.09-.18,2.41-.37v7.77l-.24.22H1393l-.09-.13Zm0,8,.24-.16h2.16l.18.16.09,8.76-.17.24h-2.21l-.29-.24Zm2.67,17.19c0,.06-.13.71-.48.84L1393,614l-.09-.18v-8.16a2.37,2.37,0,0,1,.28-.24l2,.12.42.21S1395.55,613.28,1395.53,613.34Zm7.44-24.62s-.09.12-.12.13l-6.36.53h-.31l-.18-.12v-1.69l.36-.17,6.47-.71.15.1Zm8.62-1a.52.52,0,0,0,0,.17l-.51.2-7.23.59h-.35l-.08-2,.26-.16,7.76-.89s.17.23.16.27S1411.61,587.74,1411.59,587.77Zm3.93,28.52a2.06,2.06,0,0,1-.33.13l-2-.18a2.07,2.07,0,0,1-.93-.88c-.15-.44-.17-9-.17-9a1.78,1.78,0,0,1,.26-.16l3.13.08.15.08Zm.15-10.63h-3.07l-.37-.18v-10l.07-.18a21.4,21.4,0,0,1,3.35-.24l.15.17Zm.18-11.32-.64.31h-2.75l-.23-.22.11-8.34.12-.45,3.23-.3h.26Z"/><path class="cls-3" d="M1435.66,588.4l0,.44s-1.8.23-1.95.19-.51-.39-.58-.37a1,1,0,0,0-.2.13,1.71,1.71,0,0,0-.29.3.58.58,0,0,1-.06.11l-16,2.06-.76-.44-.25.22h-.72l.13,34.2s.73.17.79,0-.05-9.83-.05-9.83h1.15s1.28.32,1.51-.78l-.06-20.61.39-.25,13-1,.25.1-.09,22.63a1.45,1.45,0,0,0,1.16,1.63c1.33.25,2.17.44,2.17.44v5.47l-.08,6.35a.87.87,0,0,0,1,0l.54-41S1435.94,588.2,1435.66,588.4Zm-20,3.93.08-.16,2.09-.32v6.73l-.21.19h-1.89l-.08-.11Zm0,7,.21-.14h1.87l.16.14.08,7.59-.14.21h-1.92l-.25-.21Zm2.31,14.89s-.11.62-.41.73l-1.82-.14-.08-.16v-7.07a2,2,0,0,1,.24-.21l1.71.1.36.18S1418,614.14,1417.95,614.19Zm6.44-21.33a.28.28,0,0,1-.1.11l-5.51.46h-.27l-.16-.1v-1.47l.31-.15,5.6-.62.13.09Zm7.47-.82a.47.47,0,0,0,0,.14l-.44.17-6.27.51h-.3l-.07-1.7.22-.13,6.72-.77s.15.2.14.23S1431.88,592,1431.86,592Zm3.41,24.71a1.82,1.82,0,0,1-.29.11l-1.74-.16a1.8,1.8,0,0,1-.81-.76c-.13-.38-.14-7.76-.14-7.76a1.64,1.64,0,0,1,.22-.14l2.71.07.13.07Zm.13-9.21h-2.66l-.32-.16v-8.63l.06-.16a18.57,18.57,0,0,1,2.91-.21l.13.15Zm.16-9.8-.55.27h-2.39l-.2-.19.1-7.23.1-.39,2.8-.26h.22Z"/><path class="cls-3" d="M1430.61,589.08c-.73-.07-.68.15-1,0s-15-4.1-15-4.1l-.88-.63a4.74,4.74,0,0,0-.63,1.1c0,.18.41.39.44.49s.12.24.22.15a1,1,0,0,1,.29-.17l.19.15a.3.3,0,0,0,.27.07c.15,0,3.1.61,3.1.61l-16.22,1.78-5.34-.9a7.23,7.23,0,0,0-1-.17l-1.41,0-.37.16a4.77,4.77,0,0,0,.41.68,5,5,0,0,0,.5.07l1.54-.06,19.26,3.34.9-.39-1.15-.34-.66-.15,13.66-1.46.83.1.27.22.28,0,2.11,0S1431.34,589.15,1430.61,589.08Zm-18.93,1.22-8.83-1.45,15.25-1.35a8,8,0,0,0,1-.2l.32-.14,6.83,1.69Z"/><path class="cls-3" d="M1392.74,591.79h.52s.07,0,.12.1a2,2,0,0,1,.08.23l.14.1.35.49,21,22s.21.53.15.49-.33-.27-.33-.27l-10.68-11.12S1393.79,593,1393.69,593s-.17,0-.28-.08-.1-.21-.19-.29-.13-.18-.19-.18-.32.23-.35,0A2.87,2.87,0,0,1,1392.74,591.79Z"/><path class="cls-3" d="M1414.82,595.44l-22,24.9s-.09.54-.12.63-.19.24,0,.22a.47.47,0,0,0,.3-.24s.25-.12.25,0,0,.47.12.3.29-.27.24-.39a2.68,2.68,0,0,1-.1-.37l21.46-24.61.19-.39Z"/><path class="cls-3" d="M1435.74,593.51l-20.59,30.59h-.66s-.1-.24-.1,0v.44l.22-.1.32-.07v.37h.21s.59.39.6,0a10.89,10.89,0,0,1,.67-1.93l18.93-28.2.4-.19.24-.49Z"/><path class="cls-3" d="M1416.14,591.79c-.09-.13-1.12-.2-1,0s-.49.33,0,.44l.49.11.51.38,18.09,33.3a1.77,1.77,0,0,0,0,.38s0,0,.07.06.09.06.16,0,.12,0,.12-.08,0-.1,0-.1l.34,0,.2.17s.35.35.31,0,0-.55,0-.55-.37-.09-.47,0l-.26.13s-.24-.18-.24-.18l-17.71-33.41S1416.21,591.87,1416.14,591.79Z"/><path class="cls-3" d="M1397.27,587.29c.44,0,21,3.74,21,3.74l11.11-1s-20.33-4.81-20.84-4.37S1397.27,587.29,1397.27,587.29Z"/></g></g><path class="cls-7" d="M1536.17,313.56c-2.19-2.23-4.41-4.43-6.58-6.69-12.94-13.46-26.45-26.36-39-40.22-4.5-5-9.4-9.59-14.15-14.34-10.4-10.42-20.85-20.78-31.21-31.24q-21.16-21.38-42.2-42.89c-8.73-9-17.65-17.73-26.18-26.89-7-7.54-14.45-14.68-21.7-22-2.65-2.68-5.22-5.45-8-8-6.7-6.31-13-13-19.47-19.55-5.42-5.5-10.83-11-16.55-16.22-.92-.84-1.22-.86-2.06,0-1.29,1.31-2.49,2.71-3.79,4-6.2,6.16-12.47,12.25-18.62,18.45q-21.95,22.16-43.81,44.4-7.36,7.47-14.74,14.93-10,10.13-19.93,20.27c-1.23,1.24-2.56,2.38-3.84,3.57-1.55,1.44-3.13,2.85-4.62,4.35q-12.1,12.1-24.15,24.24a24.73,24.73,0,0,0-1.73,2.13,1.69,1.69,0,0,0-.07,2c1.19,2.18,2.35,4.37,3.52,6.56a18.16,18.16,0,0,1,2,4.52,4.61,4.61,0,0,0,1.08,2.2c1.73,1.71,2.75,3.9,4.19,5.8a70.14,70.14,0,0,0,7,7.44,23.41,23.41,0,0,1,5.84,8.26,21.87,21.87,0,0,0,2.13,4.14,12.62,12.62,0,0,1,2,5.94,5.88,5.88,0,0,0,1.7,3.64c1.35,1.53,3.05,2.65,4.52,4,3.19,3.05,6.44,6,9.64,9.08a12.69,12.69,0,0,0,3.89,2.55c4.49,1.88,9,3.73,13.42,5.78a13.71,13.71,0,0,0,7.23,1.27,16,16,0,0,1,7,1c1.3.46,2.59.94,3.91,1.34a7.53,7.53,0,0,0,4.34.36,2.16,2.16,0,0,1,1.62.06,24.27,24.27,0,0,1,3.33,1.94,4.27,4.27,0,0,1,1.83,3.53,10.76,10.76,0,0,0,.89,4c.86,2.13,1.76,4.25,2.73,6.33a13.19,13.19,0,0,1,1.12,3.1,11.7,11.7,0,0,0,1.12,3.65,2.27,2.27,0,0,1,.1,2.37c-.76,1.2-.31,2.29.24,3.38,2.6,5.28,5.4,10.45,7.78,15.84,1.17,2.64,1.85,2.89,4.72,2.61a5,5,0,0,1,.55-.05c2.05,0,3.78.56,4.7,2.67a15.92,15.92,0,0,0,1.63,2.54c2.61,3.79,2.51,3.09,2,7.07-.33,2.57.74,4.67,2,6.7a2.5,2.5,0,0,0,2.55,1.33,28.17,28.17,0,0,0,4-1.18c.52-.18,1.08-.77.91-1.26-.54-1.53.33-3.3-1-4.71-.68-.73-.35-1.53.54-2a1.59,1.59,0,0,1,2,.28,69.13,69.13,0,0,1,5.7,5.55,38,38,0,0,1,6.87,13.7,11.18,11.18,0,0,1,.4,4.37,1.71,1.71,0,0,1-1.52,1.69,22,22,0,0,1-4.91.63,6.94,6.94,0,0,0-1.37.06.48.48,0,0,0-.3.35.53.53,0,0,0,.23.44,9.9,9.9,0,0,1,2.71,1.86c.73.56,1.2.43,1.81-.4.11-.15.13-.35.24-.49a2,2,0,0,1,2.21-.6c.65.24.62.84.7,1.37s.07.92.18,1.37a4.27,4.27,0,0,0,1.37,2.26c1.73,1.6,3.52,3.26,4.05,5.76a12.07,12.07,0,0,0,.56,1.26c1,2.94,2.54,5.67,3,8.83a49.54,49.54,0,0,1,.2,15.64,35.26,35.26,0,0,1-2,8.57,7.15,7.15,0,0,0-.54,2.13c-.13,1.4-.7,1.55-1.78,1.65-2.75.25-5.5.47-8.25.68-1.78.13-2.44,0-2.55,2.34a3.28,3.28,0,0,1-.19.8.78.78,0,0,1-1.07.56c-.7-.19-1.46-.25-1.91-1-.25-.39-.58-.78-1.11-.61-1.16.37-1.89-.17-2.63-1a4.44,4.44,0,0,0-3.78-1.29.92.92,0,0,0-.66.39.68.68,0,0,0,.39.9c.66.31,1.37.5,2,.78.24.1.51.41.35.63-.83,1.12-.12,1.91.55,2.65a2.85,2.85,0,0,1,.8,1.92c.15,2.19.49,4.38.84,6.55a7.64,7.64,0,0,0,1.22,3.62,6.15,6.15,0,0,1,1.14,2.76,8.58,8.58,0,0,0,.72,2.07,1.09,1.09,0,0,0,1.41.52,1,1,0,0,0,.67-1.07,18.39,18.39,0,0,0-.34-1.89c-.09-.45-.23-.89-.28-1.34a.75.75,0,0,1,.45-.89,1,1,0,0,1,.77.1,28.68,28.68,0,0,1,4,3c2.07,2.11,3.25,4.56,2.46,7.73a37.29,37.29,0,0,0-1.25,7.33c-.08,1.91-.81,3.37-2.74,4a2.28,2.28,0,0,0-.5.23,1.79,1.79,0,0,0-.85,2.36,2.37,2.37,0,0,0,1.11,1.49c1.32.75,1.31.8.92,2.17a2.26,2.26,0,0,0,.67,2.72,2.32,2.32,0,0,1,.81,1.9,55.44,55.44,0,0,0,.89,6,4.44,4.44,0,0,0,.88,2,5.13,5.13,0,0,1,1,3.6c0,2.12.05,4.23.05,6.35a17.31,17.31,0,0,1-.17,2.47c-.82,5.55-1.7,11.08-2.46,16.64a33.14,33.14,0,0,0-.64,5.47c.17,5.79.28,11.59.42,17.38a1.12,1.12,0,0,0,.48,1.07,9.4,9.4,0,0,0,2.36-2.11q6.12-6.17,12.21-12.38,14.81-15,29.62-30.1,15.86-16.14,31.69-32.31,11-11.23,22.07-22.43,17.14-17.4,34.3-34.79,23.56-23.86,47.15-47.7,9.51-9.61,19.05-19.2,12.13-12.26,24.24-24.55c.52-.52,1-1.06,1.5-1.62a.9.9,0,0,0,0-1.25C1537.57,315,1536.87,314.28,1536.17,313.56Z"/></g></g></svg>