<?xml version="1.0" encoding="utf-8"?>
<!-- Generator: Adobe Illustrator 21.0.0, SVG Export Plug-In . SVG Version: 6.00 Build 0)  -->
<svg version="1.1" id="Layer_1" xmlns="http://www.w3.org/2000/svg" xmlns:xlink="http://www.w3.org/1999/xlink" x="0px" y="0px"
	 viewBox="0 0 100 100" style="enable-background:new 0 0 100 100;" xml:space="preserve">
<style type="text/css">
	.st0{fill:#FFB60F;}
	.st1{fill:#FFFFFF;}
</style>
<g>
	<g>
		<g>
			<path class="st0" d="M50,100L50,100C22.5,100,0,77.5,0,50v0C0,22.5,22.5,0,50,0h0c27.5,0,50,22.5,50,50v0
				C100,77.5,77.5,100,50,100z"/>
		</g>
		<g>
			<g>
				<path class="st1" d="M35.9,50.2c-0.1-0.3-0.5-0.5-0.8-0.5h0c-0.3,0-0.6,0.2-0.8,0.5L30,59.6c-0.2,0.4,0,1,0.4,1.2
					c0.1,0.1,0.2,0.1,0.4,0.1c0.3,0,0.6-0.2,0.8-0.5l1.1-2.4h4.9l1.1,2.4c0.2,0.4,0.7,0.6,1.2,0.4c0.4-0.2,0.6-0.7,0.4-1.2
					L35.9,50.2z M33.4,56.2l1.6-3.6l1.7,3.6H33.4z"/>
				<path class="st1" d="M46.9,49.6h-4.2c-0.5,0-0.9,0.4-0.9,0.9V60c0,0.5,0.4,0.9,0.9,0.9s0.9-0.4,0.9-0.9v-3.6h3.3
					c1.9,0,3.4-1.5,3.4-3.4C50.2,51.1,48.7,49.6,46.9,49.6z M46.9,54.6h-3.3v-3.3h3.3c0.9,0,1.7,0.7,1.7,1.7
					C48.5,53.9,47.8,54.6,46.9,54.6z"/>
				<path class="st1" d="M52.7,49.6c-0.5,0-0.9,0.4-0.9,0.9V60c0,0.5,0.4,0.9,0.9,0.9s0.9-0.4,0.9-0.9v-9.5
					C53.6,50,53.2,49.6,52.7,49.6z"/>
				<path class="st1" d="M73.9,30.7H26.1c-0.9,0-1.6,0.7-1.6,1.6v35.3c0,0.9,0.7,1.6,1.6,1.6h47.8c0.9,0,1.6-0.7,1.6-1.6V32.3
					C75.5,31.4,74.8,30.7,73.9,30.7z M62.2,59.2c0.7-1.6,2.3-2.7,4.1-2.7c0.6,0,1.2,0.1,1.7,0.3c2.2,0.9,3.3,3.5,2.3,5.8
					c-0.7,1.6-2.3,2.7-4.1,2.7h0c-0.6,0-1.2-0.1-1.7-0.3c-1.1-0.5-1.9-1.3-2.4-2.4C61.7,61.5,61.7,60.3,62.2,59.2z M67.5,35.2
					c0.9,0,1.7,0.7,1.7,1.7c0,0.9-0.7,1.7-1.7,1.7c-0.9,0-1.7-0.7-1.7-1.7C65.9,35.9,66.6,35.2,67.5,35.2z M62.6,35.2
					c0.9,0,1.7,0.7,1.7,1.7c0,0.9-0.7,1.7-1.7,1.7c-0.9,0-1.7-0.7-1.7-1.7C60.9,35.9,61.6,35.2,62.6,35.2z M57.6,35.2
					c0.9,0,1.7,0.7,1.7,1.7c0,0.9-0.7,1.7-1.7,1.7c-0.9,0-1.7-0.7-1.7-1.7C55.9,35.9,56.7,35.2,57.6,35.2z M27.4,66.5V43.4h45.2v9
					c-0.2-0.3-0.5-0.5-0.8-0.7L69,50.6c-0.2-0.1-0.5-0.2-0.8-0.2c-0.8,0-1.5,0.5-1.8,1.2L66.2,52c-1.2,0-2.5,0.3-3.6,0.8l-0.3-0.3
					c-0.2-0.1-0.3-0.2-0.5-0.3c-0.2-0.1-0.5-0.2-0.8-0.2c-0.6,0-1.1,0.2-1.5,0.7l-2,2.3c-0.3,0.4-0.5,0.9-0.5,1.4
					c0,0.5,0.3,1,0.7,1.4l0.3,0.3c-0.4,1.2-0.5,2.4-0.3,3.7L57.4,62c-0.9,0.6-1.2,1.8-0.7,2.7l1.2,2H27.5
					C27.4,66.7,27.4,66.6,27.4,66.5z"/>
			</g>
		</g>
	</g>
</g>
</svg>
