<?xml version="1.0" encoding="utf-8"?>
<!-- Generator: Adobe Illustrator 21.0.0, SVG Export Plug-In . SVG Version: 6.00 Build 0)  -->
<svg version="1.1" id="Layer_1" xmlns="http://www.w3.org/2000/svg" xmlns:xlink="http://www.w3.org/1999/xlink" x="0px" y="0px"
	 viewBox="0 0 100 100" style="enable-background:new 0 0 100 100;" xml:space="preserve">
<style type="text/css">
	.st0{fill:#00B2A9;}
	.st1{fill:#FFFFFF;}
</style>
<g>
	<g>
		<g>
			<path class="st0" d="M50,100L50,100C22.5,100,0,77.5,0,50v0C0,22.5,22.5,0,50,0h0c27.5,0,50,22.5,50,50v0
				C100,77.5,77.5,100,50,100z"/>
		</g>
	</g>
	<g>
		<g>
			<g>
				<path class="st1" d="M75.5,55.7v4.6c0,1.2-0.9,2.1-2.1,2.1h-2.2c-0.4-2.8-2.8-4.9-5.7-4.9c-2.9,0-5.3,2.1-5.7,4.9h-19
					c-0.4-2.8-2.8-4.9-5.7-4.9c-2.9,0-5.3,2.1-5.7,4.9h-2.8c-1.2,0-2.1-0.9-2.1-2.1v-4.6H75.5z M69.8,63.3c0,2.4-1.9,4.3-4.3,4.3
					c-2.4,0-4.3-1.9-4.3-4.3c0-2.4,1.9-4.3,4.3-4.3C67.9,58.9,69.8,60.9,69.8,63.3z M67.6,63.3c0-1.2-1-2.2-2.2-2.2
					c-1.2,0-2.2,1-2.2,2.2c0,1.2,1,2.2,2.2,2.2C66.7,65.4,67.6,64.4,67.6,63.3z M39.4,63.3c0,2.4-1.9,4.3-4.3,4.3
					c-2.4,0-4.3-1.9-4.3-4.3c0-2.4,1.9-4.3,4.3-4.3S39.4,60.9,39.4,63.3z M37.3,63.3c0-1.2-1-2.2-2.2-2.2c-1.2,0-2.2,1-2.2,2.2
					c0,1.2,1,2.2,2.2,2.2C36.3,65.4,37.3,64.4,37.3,63.3z M75.5,54.6H24.5v-14c0-1.2,0.9-2.1,2.1-2.1h31.6c1.2,0,2.1,0.9,2.1,2.1
					v1.6h4.1c0.7,0,1.4,0.3,2,0.8l8.2,8.1c0.5,0.5,0.8,1.2,0.8,2V54.6z M71.3,50.8l-6.4-6.1c-0.1-0.1-0.1-0.1-0.2-0.1h-1.5
					c-0.2,0-0.3,0.1-0.3,0.3V51c0,0.2,0.1,0.3,0.3,0.3h8C71.3,51.3,71.5,51,71.3,50.8z"/>
			</g>
		</g>
	</g>
</g>
</svg>
