<?xml version="1.0" encoding="utf-8"?>
<!-- Generator: Adobe Illustrator 21.0.0, SVG Export Plug-In . SVG Version: 6.00 Build 0)  -->
<svg version="1.1" id="Layer_1" xmlns="http://www.w3.org/2000/svg" xmlns:xlink="http://www.w3.org/1999/xlink" x="0px" y="0px"
	 viewBox="0 0 100 100" style="enable-background:new 0 0 100 100;" xml:space="preserve">
<style type="text/css">
	.st0{fill:#FFB40F;}
	.st1{fill:#FFFFFF;}
</style>
<g>
	<circle class="st0" cx="50" cy="50" r="50"/>
	<g>
		<g>
			<path class="st1" d="M48,31.1c3.6,0,6.8,0.4,9.8,1.5c1.6,0.6,3.2,1.4,4.4,2.6c0.6,0.6,1,1.3,1.3,2.1c0.3,1.1,0,2.1-0.7,3
				c-0.9,1.3-2.3,2.2-3.8,2.8c-2.7,1.2-5.5,1.7-8.4,1.9c-2.8,0.2-5.6,0-8.3-0.5c-2.2-0.5-4.3-1.1-6.2-2.4c-1.1-0.7-2.1-1.6-2.5-2.9
				c-0.5-1.3-0.2-2.4,0.6-3.5c1-1.3,2.3-2.1,3.7-2.7c2.1-1,4.4-1.5,6.7-1.8C45.9,31.2,47.2,31.1,48,31.1z"/>
			<path class="st1" d="M33.4,40.7c0.1,0.4,0.2,0.6,0.4,0.9c0.7,1.4,1.9,2.3,3.2,3c2.4,1.3,4.9,1.9,7.5,2.2c1.8,0.2,3.6,0.3,5.3,0.2
				c3.5-0.2,6.9-0.8,10.1-2.4c1.3-0.7,2.5-1.6,3.2-3c0.1-0.3,0.3-0.6,0.4-0.9c0,0.1,0,0.3,0,0.4c0,1.3,0,2.7,0,4
				c0,1.3-0.5,2.3-1.3,3.2c-1.2,1.3-2.8,2.1-4.4,2.7c-2.6,1-5.3,1.4-8,1.5c-2.8,0.1-5.6-0.1-8.4-0.8c-2.2-0.5-4.3-1.3-6.1-2.7
				c-0.9-0.7-1.6-1.5-1.9-2.6c-0.1-0.3-0.1-0.5-0.1-0.8c0-1.5,0-3,0-4.6C33.4,41,33.4,40.9,33.4,40.7z"/>
			<path class="st1" d="M33.4,48.2c0.8,2.2,2.6,3.3,4.5,4.2c2.5,1.2,5.2,1.7,7.9,1.9c2.9,0.2,5.8,0.1,8.6-0.5c1.9-0.4,3.8-1,5.5-1.9
				c1.3-0.7,2.5-1.6,3.2-2.9c0.2-0.3,0.2-0.7,0.4-1c0,0.2,0,0.3,0,0.4c0,1.3,0,2.7,0,4c0,0.3-0.1,0.5-0.2,0.7
				c-0.8,1.2-1.6,2.4-2.5,3.6c-0.1,0.2-0.3,0.3-0.5,0.4c-0.8,0.5-1.6,0.8-2.4,1.2c-0.3,0.1-0.5,0.1-0.7-0.1
				c-0.4-0.5-0.9-0.9-1.5-1.1c-1.3-0.4-2.5-0.2-3.6,0.8c-0.6,0.6-1.2,1.1-1.7,1.7c-0.1,0.1-0.3,0.2-0.5,0.2
				c-4.2,0.2-8.3-0.2-12.3-1.9c-1.4-0.6-2.7-1.4-3.7-2.7c-0.6-0.7-0.9-1.5-0.9-2.4c0-1.4,0-2.8,0-4.2C33.4,48.4,33.4,48.3,33.4,48.2
				z"/>
			<path class="st1" d="M59.7,68.8c-0.4,0-0.7-0.1-1-0.4c-0.1-0.1-0.2-0.2-0.3-0.3c-1.9-1.9-3.8-3.8-5.7-5.7c-0.5-0.5-0.5-1.1,0-1.6
				c0.4-0.4,0.8-0.8,1.2-1.2c0.6-0.5,1.1-0.5,1.7,0c1.1,1.1,2.2,2.2,3.3,3.3c0.4,0.4,0.4,0.4,0.7-0.1c2.6-3.8,5.2-7.7,7.8-11.5
				c0.5-0.8,1-0.9,1.8-0.4c0.4,0.3,0.8,0.5,1.2,0.8c0.8,0.6,0.9,1,0.4,1.9c-1.6,2.4-3.2,4.7-4.8,7.1c-1.6,2.4-3.2,4.8-4.9,7.2
				C60.7,68.4,60.3,68.8,59.7,68.8z"/>
			<path class="st1" d="M33.4,55.6c0.6,1.7,1.9,2.7,3.3,3.5c0.7,0.4,1.5,0.8,2.3,1.1c2.3,0.9,4.7,1.3,7.2,1.5
				c1.1,0.1,2.2,0.1,3.3,0.1c0.3,0,0.4,0.1,0.5,0.4c0.1,0.8,0.4,1.4,1,2c0.8,0.8,1.6,1.6,2.3,2.3c0.1,0.1,0.2,0.2,0.2,0.3
				c0,0.1-0.2,0.1-0.3,0.1c-2.3,0.4-4.7,0.4-7,0.3c-2.4-0.2-4.8-0.6-7.1-1.4c-1.6-0.6-3.1-1.3-4.3-2.6c-0.9-0.9-1.4-1.9-1.4-3.2
				c0-1.3,0-2.6,0-3.9C33.4,55.8,33.4,55.7,33.4,55.6z"/>
		</g>
	</g>
</g>
</svg>
