<?xml version="1.0" encoding="utf-8"?>
<!-- Generator: Adobe Illustrator 21.0.0, SVG Export Plug-In . SVG Version: 6.00 Build 0)  -->
<svg version="1.1" id="Layer_1" xmlns="http://www.w3.org/2000/svg" xmlns:xlink="http://www.w3.org/1999/xlink" x="0px" y="0px"
	 viewBox="0 0 100 100" style="enable-background:new 0 0 100 100;" xml:space="preserve">
<style type="text/css">
	.st0{fill:#001871;}
	.st1{fill:#FFFFFF;}
</style>
<g>
	<circle class="st0" cx="50" cy="50" r="50"/>
	<g>
		<path class="st1" d="M46.9,62.4c-0.3,0.1-0.4-0.1-0.4-0.4c0-1,0-2,0-3c0-1.2,0-2.3,0-3.5c0-0.3-0.1-0.6,0.3-0.8
			c0,0,0.1-0.1,0.1-0.2c0-0.3,0.1-0.5,0.1-0.8c-0.4,0.1-0.5-0.1-0.5-0.5c0-0.7,0-1.3,0-2c0-0.8,0-0.9,0.8-0.8c0.8,0.1,1.5,0,1.7-1
			c0,0,0,0,0-0.1c-0.7,0-1.5,0-2.2,0c-0.3,0-0.3-0.1-0.3-0.3c0-0.9,0-1.7,0-2.6c0-0.3,0.1-0.4,0.4-0.4c0.9,0,1.7,0,2.6,0
			c0.3,0,0.4,0.1,0.4,0.4c0,0.7,0,1.3,0,2c0.9-0.4,1.3-1,1.1-1.9c0,0,0,0,0,0C50.8,46.1,51,46,51.3,46c1,0.1,1.9-0.1,2.8-0.6
			c0.3-0.2,0.6-0.3,0.9-0.4c3.2-1.4,6.4-1.6,9.7-0.4c0.5,0.2,0.9,0.4,1.4,0.5c0.1-0.2,0.1-0.3,0.1-0.4c0-2.5,0-5.1,0-7.6
			c0-2.4-1.7-4.1-4.2-4.2c-1.5,0-3.1,0-4.6,0c-0.1,0-0.3,0-0.4,0c0.4,1.6,0.1,3-1.3,4.1c-1.2,0.9-2.5,1-3.8,0.2
			c-1.7-1-2.1-2.5-1.7-4.3c-1.4,0-2.8,0-4.2,0c0.4,1.6,0.1,3.1-1.3,4.1c-1.2,0.9-2.5,0.9-3.8,0.2c-1.7-1-2-2.5-1.6-4.3
			c-1.7,0-3.3,0-4.9,0c-2.5,0-4.2,1.7-4.2,4.2c0,8.1,0,16.2,0,24.2c0,2.4,1.8,4.2,4.2,4.2c4.8,0,9.7,0,14.5,0c0.1,0,0.2,0.1,0.3-0.1
			c-0.6-0.9-1.1-1.8-1.5-2.7C47.5,62.5,47.3,62.3,46.9,62.4z M36.7,62.1c0,0.2-0.1,0.3-0.3,0.3c-0.4,0-0.9,0-1.3,0
			c-0.5,0-0.9,0-1.4,0c-0.2,0-0.3-0.1-0.3-0.3c0-0.9,0-1.8,0-2.7c0-0.2,0.1-0.3,0.3-0.3c0.9,0,1.8,0,2.7,0c0.2,0,0.3,0.1,0.3,0.3
			C36.7,60.3,36.7,61.2,36.7,62.1z M36.4,58c-0.5,0-0.9,0-1.4,0c-0.4,0-0.9,0-1.3,0c-0.2,0-0.3,0-0.3-0.3c0-0.9,0-1.8,0-2.7
			c0-0.2,0.1-0.3,0.3-0.3c0.9,0,1.8,0,2.7,0c0.2,0,0.3,0.1,0.3,0.3c0,0.9,0,1.8,0,2.7C36.8,58,36.7,58,36.4,58z M36.4,53.7
			c-0.9,0-1.8,0-2.6,0c-0.3,0-0.3-0.1-0.3-0.3c0-0.4,0-0.9,0-1.3c0-0.4,0-0.9,0-1.3c0-0.2,0.1-0.3,0.3-0.3c0.9,0,1.8,0,2.7,0
			c0.3,0,0.3,0.1,0.3,0.3c0,0.9,0,1.7,0,2.6C36.8,53.6,36.7,53.7,36.4,53.7z M40.8,62.4c-0.9,0-1.8,0-2.7,0c-0.2,0-0.3-0.1-0.3-0.3
			c0-0.9,0-1.8,0-2.7c0-0.2,0.1-0.3,0.3-0.3c0.9,0,1.8,0,2.7,0c0.2,0,0.3,0.1,0.3,0.3c0,0.4,0,0.9,0,1.3c0,0.4,0,0.9,0,1.3
			C41.1,62.3,41.1,62.4,40.8,62.4z M41.1,56.4c0,0.4,0,0.9,0,1.3c0,0.2,0,0.3-0.3,0.3c-0.9,0-1.8,0-2.7,0c-0.2,0-0.3-0.1-0.3-0.3
			c0-0.9,0-1.8,0-2.7c0-0.2,0.1-0.3,0.3-0.3c0.9,0,1.8,0,2.7,0c0.2,0,0.3,0.1,0.3,0.3C41.1,55.5,41.1,56,41.1,56.4z M40.8,53.7
			c-0.4,0-0.9,0-1.3,0c-0.4,0-0.9,0-1.3,0c-0.2,0-0.4,0-0.4-0.3c0-0.9,0-1.8,0-2.6c0-0.2,0.1-0.3,0.3-0.3c0.9,0,1.8,0,2.7,0
			c0.2,0,0.3,0.1,0.3,0.3c0,0.9,0,1.8,0,2.7C41.1,53.6,41,53.7,40.8,53.7z M33.9,42.8c-0.4,0-0.5-0.1-0.5-0.5c0-0.8,0-1.6,0-2.3
			c0-0.4,0.1-0.5,0.5-0.5c3.7,0,7.4,0,11.1,0c5.8,0,11.5,0,17.3,0c0.5,0,0.5,0,0.5,0.6c0,0.8,0,1.5,0,2.3c0,0.3-0.1,0.4-0.4,0.4
			c-4.8,0-9.6,0-14.3,0C43.4,42.8,38.7,42.8,33.9,42.8z M45.5,62.1c0,0.2-0.1,0.3-0.3,0.3c-0.9,0-1.8,0-2.7,0
			c-0.2,0-0.3-0.1-0.3-0.3c0-0.9,0-1.8,0-2.7c0-0.2,0.1-0.3,0.3-0.3c0.5,0,0.9,0,1.4,0c0.4,0,0.8,0,1.3,0c0.2,0,0.3,0,0.3,0.3
			C45.4,60.3,45.5,61.2,45.5,62.1z M45.5,52.1c0,0.4,0,0.9,0,1.3c0,0.2,0,0.3-0.3,0.3c-0.9,0-1.8,0-2.7,0c-0.2,0-0.3-0.1-0.3-0.3
			c0-0.9,0-1.8,0-2.7c0-0.2,0.1-0.3,0.3-0.3c0.9,0,1.8,0,2.7,0c0.2,0,0.3,0.1,0.3,0.3C45.4,51.1,45.5,51.6,45.5,52.1z M42.2,55.1
			c0-0.2,0.1-0.3,0.3-0.3c0.9,0,1.8,0,2.7,0c0.2,0,0.3,0.1,0.3,0.3c0,0.4,0,0.9,0,1.3c0,0.5,0,0.9,0,1.4c0,0.2-0.1,0.3-0.3,0.3
			c-0.9,0-1.8,0-2.7,0c-0.2,0-0.3-0.1-0.3-0.3C42.2,56.8,42.2,55.9,42.2,55.1z M45.1,49.3c-0.4,0-0.9,0-1.3,0c-0.4,0-0.9,0-1.3,0
			c-0.2,0-0.3,0-0.3-0.3c0-0.9,0-1.8,0-2.7c0-0.3,0.1-0.3,0.3-0.3c0.9,0,1.8,0,2.6,0c0.3,0,0.3,0.1,0.3,0.3c0,0.9,0,1.8,0,2.6
			C45.5,49.3,45.4,49.3,45.1,49.3z"/>
		<path class="st1" d="M60.1,46.1c-6.3,0-11.4,5.1-11.4,11.4c0,6.3,5.1,11.4,11.4,11.4c6.3,0,11.4-5.1,11.4-11.4
			C71.6,51.2,66.5,46,60.1,46.1z M67.8,58.4c-0.1,0.4-0.5,0.7-1,0.7c-1.3,0-2.6,0-4,0c-1.3,0-2.6,0-4,0c-0.3,0-0.4-0.1-0.4-0.4
			c0-2.6,0-5.2,0-7.9c0-0.7,0.4-1.1,1.1-1.1c0.7,0,1.1,0.4,1.1,1.1c0,1.9,0,3.7,0,5.6c0,0.3,0.1,0.4,0.4,0.4c1.9,0,3.7,0,5.6,0
			C67.6,56.9,68,57.5,67.8,58.4z"/>
	</g>
</g>
</svg>
