<?xml version="1.0" encoding="utf-8"?>
<!-- Generator: Adobe Illustrator 21.0.0, SVG Export Plug-In . SVG Version: 6.00 Build 0)  -->
<svg version="1.1" id="Layer_1" xmlns="http://www.w3.org/2000/svg" xmlns:xlink="http://www.w3.org/1999/xlink" x="0px" y="0px"
	 viewBox="0 0 100 100" style="enable-background:new 0 0 100 100;" xml:space="preserve">
<style type="text/css">
	.st0{fill:#418FDE;}
	.st1{fill:#FFFFFF;}
</style>
<g>
	<circle class="st0" cx="50" cy="50" r="50"/>
	<g>
		<g>
			<g>
				<path class="st1" d="M68.6,45.1c-1.7,0-3.3,0-5,0c0,0.2,0,0.3,0,0.5c0,7.5,0,15,0,22.5c0,0.5,0,0.5-0.5,0.5
					c-8.7,0-17.5,0-26.2,0c-0.1,0-0.3,0-0.5,0c0-7.8,0-15.6,0-23.5c-1.7,0-3.2,0-5,0c0.1-0.1,0.2-0.2,0.3-0.2
					c6-4.4,12-8.8,17.9-13.2c0.2-0.2,0.4-0.2,0.6,0c4.5,3.3,9,6.6,13.5,9.9c1.5,1.1,3,2.2,4.5,3.2C68.3,44.8,68.4,44.9,68.6,45.1z
					 M54,51.1c0.7,0.7,1.5,1.4,2.3,2.1c0.5,0.5,1.2,0.6,1.8,0.3c0.7-0.4,0.9-1.2,0.3-1.8c-0.3-0.4-0.7-0.7-1-1.1
					c-1.2-1.3-2.5-2.6-3.7-3.9c-0.6-0.7-1.3-1.1-2.2-1.1c-1,0-2.1,0-3.1,0c-0.8,0-1.5,0.3-2,0.9c-0.2,0.2-0.3,0.4-0.5,0.6
					c-1.5,1.5-2.9,3.1-4.4,4.6c-0.5,0.6-0.4,1.2,0.2,1.6c0.6,0.4,1.4,0.3,2-0.2c0.5-0.5,0.9-0.9,1.4-1.4c0.3-0.3,0.6-0.6,0.9-0.9
					c0,0.3,0,0.5,0,0.7c0,3.9,0,7.9,0,11.8c0,0.5,0.2,0.8,0.6,1.1c0.4,0.2,0.9,0.3,1.4,0.2c0.6-0.2,1-0.6,1-1.2c0-2.3,0-4.5,0-6.8
					c0-0.1,0-0.3,0-0.4c0.7,0,1.4,0,2.1,0c0,0.2,0,0.4,0,0.6c0,2.2,0,4.4,0,6.6c0,0.2,0,0.5,0.1,0.7c0.3,0.5,1.1,0.8,1.7,0.6
					c0.6-0.2,1-0.6,1-1.3c0-3.6,0-7.2,0-10.8C54,52,54,51.5,54,51.1z M47.6,41.5c0,1.3,1.1,2.4,2.4,2.4c1.3,0,2.3-1,2.3-2.4
					c0-1.3-1.1-2.4-2.4-2.4C48.6,39.1,47.6,40.1,47.6,41.5z"/>
			</g>
		</g>
	</g>
</g>
</svg>
