<?xml version="1.0" encoding="utf-8"?>
<!-- Generator: Adobe Illustrator 21.0.0, SVG Export Plug-In . SVG Version: 6.00 Build 0)  -->
<svg version="1.1" id="Layer_1" xmlns="http://www.w3.org/2000/svg" xmlns:xlink="http://www.w3.org/1999/xlink" x="0px" y="0px"
	 viewBox="0 0 100 100" style="enable-background:new 0 0 100 100;" xml:space="preserve">
<style type="text/css">
	.st0{fill:#963CBD;}
	.st1{fill:#FFFFFF;}
</style>
<g>
	<circle class="st0" cx="50" cy="50" r="50"/>
	<g>
		<path class="st1" d="M31.5,43.1c0.8,0.8,1.6,1.5,2.3,2.1c3.8,3.5,7.6,7,11.4,10.5c0.4,0.3,0.8,0.5,1.3,0.5c2.3,0,4.6,0,7,0
			c0.5,0,0.9-0.2,1.2-0.5c3.3-3,6.6-6,9.9-9c1.2-1.1,2.5-2.3,3.8-3.4c0,0,0.1-0.1,0.2-0.1c0,0.3,0.1,0.6,0.1,0.8
			c0,7.2,0,14.4,0,21.6c0,0.3,0,0.6,0,0.9c-0.2,1.3-1.2,2.1-2.5,2.1c-3.1,0-6.2,0-9.3,0c-7.5,0-15,0-22.5,0c-1.8,0-2.7-1-2.7-2.8
			c0-7.3,0-14.5,0-21.8C31.4,43.7,31.5,43.5,31.5,43.1z"/>
		<path class="st1" d="M38.9,38.9c0,2.5,0,5,0,7.6c-1.9-1.8-3.8-3.4-5.6-5.2c0.1-0.1,0.2-0.1,0.3-0.2c4.9-3,9.8-6,14.7-9.1
			c0.7-0.5,1.5-0.8,2.4-0.5c0.4,0.1,0.8,0.4,1.2,0.6c4.2,2.6,8.4,5.2,12.6,7.7c0.7,0.4,1.4,0.9,2.2,1.3c0.1,0,0.1,0.1,0.2,0.2
			c-1.9,1.7-3.8,3.4-5.7,5.1c0-2.5,0-5,0-7.5C53.7,38.9,46.3,38.9,38.9,38.9z"/>
		<path class="st1" d="M41.3,43.8c0-0.8,0-1.6,0-2.4c5.7,0,11.5,0,17.2,0c0,0.8,0,1.6,0,2.4C52.8,43.8,47.1,43.8,41.3,43.8z"/>
		<path class="st1" d="M41.3,48.7c0-0.8,0-1.6,0-2.4c5.7,0,11.5,0,17.2,0c0,0.8,0,1.6,0,2.4C52.8,48.7,47.1,48.7,41.3,48.7z"/>
		<path class="st1" d="M44.1,51.3c4,0,7.8,0,11.8,0c-0.9,0.8-1.7,1.6-2.6,2.3c-0.1,0.1-0.3,0.1-0.4,0.1c-2,0-3.9,0-5.9,0
			c-0.1,0-0.3,0-0.4-0.1C45.8,52.8,45,52.1,44.1,51.3z"/>
	</g>
</g>
</svg>
