<?xml version="1.0" encoding="utf-8"?>
<!-- Generator: Adobe Illustrator 21.0.0, SVG Export Plug-In . SVG Version: 6.00 Build 0)  -->
<svg version="1.1" id="Layer_1" xmlns="http://www.w3.org/2000/svg" xmlns:xlink="http://www.w3.org/1999/xlink" x="0px" y="0px"
	 viewBox="0 0 100 100" style="enable-background:new 0 0 100 100;" xml:space="preserve">
<style type="text/css">
	.st0{fill:#418FDE;}
	.st1{fill:#FFFFFF;}
</style>
<g>
	<g>
		<g>
			<path class="st0" d="M50,100L50,100C22.5,100,0,77.5,0,50v0C0,22.5,22.5,0,50,0h0c27.5,0,50,22.5,50,50v0
				C100,77.5,77.5,100,50,100z"/>
		</g>
		<g>
			<path class="st1" d="M65.2,37H35.1c-1,0-1.7,0.8-1.7,1.7v25.8c0,0.6-0.5,1-1,1c-0.6,0-1-0.5-1-1V33.7h34.5v-0.7H30.6v31.5
				c0,1,0.8,1.7,1.7,1.7c1,0,1.7-0.8,1.7-1.7V38.7c0-0.6,0.5-1,1-1c0.6,0,1,0.5,1,1v31.6h33.4V41.2C69.4,38.9,67.5,37,65.2,37z
				 M56.6,39.5h8.1v0.7h-8.1V39.5z M40.9,66.5h-0.7V49.1h0.7V66.5z M43.5,66.5h-0.7V44.8h0.7V66.5z M46.2,66.5h-0.7v-12h0.7V66.5z
				 M48.9,66.5h-0.7V49.1h0.7V66.5z M50.6,41.8h14v0.7h-14V41.8z M51.6,66.5h-0.7v-12h0.7V66.5z M54.3,66.5h-0.7V47.8h0.7V66.5z
				 M57,66.5h-0.7V52H57V66.5z M59.7,66.5h-0.7v-9h0.7V66.5z M62.4,66.5h-0.7V52h0.7V66.5z M65,66.5h-0.7V47.8H65V66.5z"/>
		</g>
	</g>
</g>
</svg>
