<?xml version="1.0" encoding="utf-8"?>
<!-- Generator: Adobe Illustrator 21.0.0, SVG Export Plug-In . SVG Version: 6.00 Build 0)  -->
<svg version="1.1" id="Layer_1" xmlns="http://www.w3.org/2000/svg" xmlns:xlink="http://www.w3.org/1999/xlink" x="0px" y="0px"
	 viewBox="0 0 100 100" style="enable-background:new 0 0 100 100;" xml:space="preserve">
<style type="text/css">
	.st0{fill:#00B2A9;}
	.st1{fill:#FFFFFF;}
</style>
<g>
	<g>
		<g>
			<g>
				<path class="st0" d="M0,50L0,50C0,22.5,22.5,0,50,0l0,0c27.5,0,50,22.5,50,50l0,0c0,27.5-22.5,50-50,50l0,0
					C22.5,100,0,77.5,0,50z"/>
			</g>
		</g>
		<g>
			<path class="st1" d="M71,44.6c0.6-0.1,1.1-0.7,1.1-1.3v-3c0-0.7-0.5-1.2-1.1-1.3l-1.8-0.2c-0.2-0.9-0.5-1.8-1-2.6l1.1-1.5
				c0.4-0.5,0.4-1.2-0.1-1.7l-2.1-2.1c-0.5-0.5-1.2-0.5-1.7-0.1L64,31.9c-0.9-0.5-1.8-0.9-2.8-1.2L61,29c0-0.6-0.6-1.1-1.2-1.1h-3
				c-0.6,0-1.1,0.5-1.2,1.1l-0.2,1.7c-0.9,0.3-1.8,0.7-2.7,1.2l-1.3-1.1c-0.5-0.4-1.2-0.4-1.7,0.1L47.6,33c-0.5,0.5-0.5,1.2-0.1,1.7
				l1.1,1.4c-0.5,0.8-0.9,1.7-1.1,2.6l-1.7,0.2c-0.6,0.1-1.1,0.7-1.1,1.3v3c0,0.7,0.5,1.2,1.1,1.3l1.8,0.2c0.3,0.9,0.6,1.8,1.1,2.6
				l-1.1,1.5c-0.4,0.5-0.4,1.2,0.1,1.7l2.1,2.1c0.5,0.5,1.2,0.5,1.7,0.1l1.5-1.2c0.9,0.5,1.8,0.9,2.7,1.1l0.2,1.9
				c0,0.6,0.6,1.1,1.2,1.1h3c0.6,0,1.1-0.5,1.2-1.1l0.2-2c0.9-0.3,1.7-0.6,2.5-1.1l1.5,1.2c0.5,0.4,1.2,0.4,1.7-0.1l2.1-2.1
				c0.5-0.5,0.5-1.2,0.1-1.7l-1.2-1.6c0.4-0.7,0.8-1.6,1-2.4L71,44.6z M63.3,41.6c0,2.8-2.2,5-4.9,5s-4.9-2.2-4.9-5s2.2-5,4.9-5
				C61.1,36.6,63.3,38.8,63.3,41.6z"/>
			<path class="st1" d="M29.1,47l0.7,1c-0.4,0.7-0.7,1.4-1,2.1h-1.2c-0.6,0-1.1,0.5-1.2,1.1l-0.2,2.1c0,0.6,0.4,1.2,1,1.3l1.2,0.3
				c0.1,0.7,0.4,1.5,0.7,2.2l-0.9,1c-0.4,0.5-0.4,1.2,0,1.7l1.3,1.6c0.4,0.5,1.1,0.6,1.6,0.2l1.1-0.8c0.6,0.5,1.4,0.8,2.1,1.1v1.4
				c0,0.6,0.5,1.1,1.1,1.2l2,0.2c0.6,0.1,1.2-0.4,1.3-1l0.3-1.4c0.7-0.1,1.4-0.4,2.1-0.7l1,1c0.4,0.4,1.1,0.4,1.6,0l1.6-1.3
				c0.4-0.5,0.5-1.2,0.2-1.7l-0.8-1.2c0.4-0.6,0.7-1.2,1-1.9h1.4c0.6,0,1.1-0.5,1.2-1.1l0.2-2.1c0-0.6-0.4-1.2-1-1.3l-1.4-0.2
				c-0.2-0.7-0.4-1.5-0.7-2.2l0.9-1c0.4-0.5,0.4-1.2,0-1.7L45,45.3c-0.4-0.5-1.1-0.6-1.6-0.2l-1,0.7c-0.7-0.5-1.4-0.9-2.2-1.2v-1.2
				c0-0.6-0.5-1.1-1.1-1.2l-2-0.2c-0.6-0.1-1.2,0.4-1.3,1l-0.3,1.1c-0.8,0.2-1.6,0.4-2.3,0.8l-0.9-0.8c-0.4-0.4-1.1-0.4-1.6,0
				l-1.6,1.3C28.6,45.8,28.5,46.5,29.1,47z M33.1,52.9c0.1-2.2,2.1-3.9,4.3-3.7s3.9,2.2,3.7,4.4c-0.1,2.2-2.1,3.9-4.3,3.7
				S33,55.2,33.1,52.9z"/>
			<path class="st1" d="M61.1,63c-0.1-0.7-0.4-1.2-0.7-1.8l0.5-0.7c0.4-0.5,0.4-1.3-0.1-1.7l-0.9-0.9c-0.4-0.5-1.1-0.5-1.6-0.1
				l-0.6,0.5c-0.6-0.4-1.2-0.6-1.9-0.8l-0.1-0.8c0-0.6-0.6-1.1-1.2-1.1h-1.3c-0.6,0-1.1,0.5-1.2,1.1v0.6c-0.6,0.2-1.2,0.5-1.8,0.8
				l-0.6-0.5c-0.5-0.4-1.2-0.4-1.6,0.1l-0.9,0.9c-0.5,0.5-0.5,1.2-0.1,1.7l0.5,0.6c-0.3,0.6-0.5,1.2-0.7,1.8L46,62.8
				c-0.6,0.1-1.1,0.7-1.1,1.3v1.3c0,0.6,0.5,1.1,1.1,1.2l0.8,0.1c0.2,0.7,0.5,1.2,0.8,1.8l-0.5,0.7c-0.4,0.5-0.4,1.3,0.1,1.7
				l0.9,0.9c0.4,0.5,1.1,0.5,1.6,0.1l0.7-0.6c0.6,0.3,1.2,0.5,1.8,0.7l0.1,0.9c0,0.6,0.6,1.1,1.2,1.1h1.3c0.6,0,1.1-0.5,1.2-1.1
				l0.1-1c0.5-0.1,1.1-0.4,1.6-0.7l0.7,0.6c0.5,0.4,1.2,0.4,1.6-0.1l0.9-0.9c0.5-0.5,0.5-1.2,0.1-1.7l-0.6-0.7
				c0.3-0.5,0.5-1,0.7-1.6l0.9-0.1c0.6-0.1,1.1-0.7,1.1-1.3v-1.3c0-0.6-0.5-1.1-1.1-1.2L61.1,63z M57.2,64.7c0,1.8-1.4,3.3-3.2,3.3
				s-3.3-1.5-3.3-3.3s1.4-3.3,3.2-3.3S57.2,62.9,57.2,64.7z"/>
		</g>
	</g>
</g>
</svg>
