<?xml version="1.0" encoding="utf-8"?>
<!-- Generator: Adobe Illustrator 21.0.0, SVG Export Plug-In . SVG Version: 6.00 Build 0)  -->
<svg version="1.1" id="Layer_1" xmlns="http://www.w3.org/2000/svg" xmlns:xlink="http://www.w3.org/1999/xlink" x="0px" y="0px"
	 viewBox="0 0 100 100" style="enable-background:new 0 0 100 100;" xml:space="preserve">
<style type="text/css">
	.st0{fill:#FFB60F;}
	.st1{fill:#FFFFFF;}
</style>
<g>
	<g>
		<g>
			<path class="st0" d="M0,50L0,50C0,22.5,22.5,0,50,0l0,0c27.5,0,50,22.5,50,50l0,0c0,27.5-22.5,50-50,50l0,0C22.5,100,0,77.5,0,50
				z"/>
		</g>
	</g>
	<g>
		<g>
			<g>
				<path class="st1" d="M38,75c5.5,0,9.9-3.9,11-8.9c0.2-0.8,0.3-1.6,0.3-2.4c0-0.5-0.1-0.9-0.1-1.3c-0.6-5.3-5-9.6-10.4-9.9
					c-0.2,0-0.5,0-0.7,0c-0.9,0-1.8,0.1-2.6,0.3c-5,1.1-8.7,5.6-8.7,10.9C26.8,69.9,31.9,74.9,38,75z M29.1,63.7
					c0-4.9,4-8.9,8.9-8.9s8.9,4,8.9,8.9s-4,8.9-8.9,8.9C33.2,72.6,29.1,68.6,29.1,63.7z"/>
				<polygon class="st1" points="36.6,62.6 36.6,62.6 36.6,65.1 43.2,65.1 43.2,62.6 39.1,62.6 39.1,58.6 36.6,58.6 				"/>
				<path class="st1" d="M63.8,28.6c-0.7,0-1.3,0.6-1.3,1.3v2.9v3.1c0,0.7,0.6,1.3,1.3,1.3h1.1c0.7,0,1.3-0.6,1.3-1.3v-3.1v-2.9
					c0-0.7-0.6-1.3-1.3-1.3H63.8z"/>
				<path class="st1" d="M43.9,28.6c-0.7,0-1.3,0.6-1.3,1.3v2.9v3.1c0,0.7,0.6,1.3,1.3,1.3H45c0.7,0,1.3-0.6,1.3-1.3v-3.1v-2.9
					c0-0.7-0.6-1.3-1.3-1.3H43.9z"/>
				<path class="st1" d="M73.3,63.1V35.6c0-1.6-1.3-2.9-2.9-2.9H68v3.1c0,1.7-1.4,3.1-3.1,3.1h-1.1c-1.7,0-3.1-1.4-3.1-3.1v-3.1
					H48.1v3.1c0,1.7-1.4,3.1-3.1,3.1h-1.1c-1.7,0-3.1-1.4-3.1-3.1v-3.1h-2.4c-1.6,0-2.9,1.3-2.9,2.9v14.2c0.9-0.1,1.7-0.2,2.6-0.2
					c0.2,0,0.5,0,0.7,0v-6.7h31.1v17.3c0,1.2-1,2.2-2.2,2.2h-15c0,0.3,0,0.6,0,0.9c0,0.9-0.1,1.8-0.3,2.7h17.9
					C71.9,66,73.2,64.8,73.3,63.1z"/>
				<circle class="st1" cx="63" cy="48.3" r="2.9"/>
				<circle class="st1" cx="54.4" cy="48.3" r="2.9"/>
				<circle class="st1" cx="45.7" cy="48.3" r="2.9"/>
				<circle class="st1" cx="54.4" cy="56.9" r="2.9"/>
				<circle class="st1" cx="63" cy="56.9" r="2.9"/>
			</g>
		</g>
	</g>
</g>
</svg>
