<svg id="Layer_1" data-name="Layer 1" xmlns="http://www.w3.org/2000/svg" viewBox="0 0 62.05 63.42"><defs><style>.cls-1{fill:#606060;}</style></defs><title>Sub Contractor</title><path class="cls-1" d="M13,0c1.09,1.54,2.18,3.08,3.27,4.62l7.64,10.64,5.9,8.21,8,11.18c.45.63.89,1.27,1.37,1.88a.94.94,0,0,0,.62.32c.74,0,1.48,0,2.32,0-.3-.83-.56-1.59-.86-2.33a9,9,0,0,1-.77-3.72c.07-3.21,0-6.42,0-9.62v-.73H59.4v24H51.85c0,.73,0,1.4,0,2.07,0,.36-.12.46-.47.46h-18c-.13,0-.26,0-.45,0V44.49l-.58,0H28.28c-.23,0-.49,0-.44-.32A4.38,4.38,0,0,0,27,41.35l-4.75-9.11L17,22.1,12.88,14.2c0-.07-.09-.14-.19-.29v9h1.86L14,25.86c-.37,1.82-.75,3.64-1.09,5.46-.07.38-.21.52-.59.48a8.51,8.51,0,0,0-.86,0c0,.27,0,.52,0,.76,0,.83,0,1.65,0,2.48,0,1-.26,1.34-1.23,1.64A1.47,1.47,0,0,0,9.29,39c.22.28.42.41.73.09s.88-.29,1.4.13l.24-1.08a1.25,1.25,0,1,1,2.47.35,8.73,8.73,0,0,1-.66,2c-.14.32,0,.4.19.56l6.76,5.48.41.37c-1,0-1.78.21-2.58-.48-1.85-1.6-3.78-3.1-5.69-4.63a.71.71,0,0,0-.59-.07,3.87,3.87,0,0,1-2.68.06.61.61,0,0,0-.68.14q-2.68,2.35-5.41,4.65a1.71,1.71,0,0,1-.86.32A3.44,3.44,0,0,1,1,46.85l6.69-5.76c-.2-.23-.38-.42-.54-.63A3.92,3.92,0,0,1,8.33,34.8a.92.92,0,0,0,.54-1c0-.65,0-1.31,0-2-.64.09-.65-.32-.71-.76-.35-2.59-.72-5.18-1.09-7.77,0-.08,0-.17,0-.33H8.86c0-.26,0-.44,0-.62,0-5.06,0-10.13,0-15.19a2.5,2.5,0,0,0-.3-1.09c-.44-.85-.94-1.67-1.43-2.53L12.86,0ZM45.54,33h8.82V25.53H45.54ZM32.89,31.48l-3.65,7.87.12.08,6.57-3.8ZM10.17,9.31v13.6l.5,0c.75,0,.75,0,.75-.72,0-3.31,0-6.61,0-9.92C11.46,11.09,10.71,10.28,10.17,9.31ZM27.44,36.79l3.18-7.61-.1-.07-5.28,3.77Zm-.39-13.23-2.57,6.58.13.09,5-3.22Zm-1.87-1.78c-.15,0-.19,0-.21,0-1.35.92-2.7,1.84-4,2.78a.52.52,0,0,0-.07.48c.36.76.76,1.51,1.14,2.26l.65,1.28Zm-4-6.5-.14,0-1.33,6.41,4.1-2.62Zm-3.3-4.82L15.53,6.39l-.12.05L14,12.82l.12.07Zm1.61,2.71-.11-.06L16.13,15.2c-.25.16-.23.32-.11.54.49.9,1,1.8,1.46,2.71l.61,1.12ZM12.41,9.9l.13-.05,1.15-6a36.33,36.33,0,0,0-3.14,1.92.37.37,0,0,0-.13.32C11.07,7.35,11.74,8.63,12.41,9.9Z"/><path class="cls-1" d="M28.46,63.42c-.38-.08-.76-.16-1.13-.25-2-.5-3.22-1.45-3.27-3.87,0-1.89,0-3.78,0-5.67a4,4,0,0,1,3.31-3.8,12.2,12.2,0,0,1,2.6-.3q13.62,0,27.24,0a7.48,7.48,0,0,1,1.75.18,3.49,3.49,0,0,1,2.87,3.2A25.33,25.33,0,0,1,61.74,60a3.9,3.9,0,0,1-3.3,3.38,1.18,1.18,0,0,0-.19.07Zm.63-5.1H56.94c0-1.05,0-2.07,0-3.08,0-.68,0-.68-.69-.68H29.75a.85.85,0,0,0-.35,0c-.12.06-.3.19-.3.29C29.08,56,29.09,57.15,29.09,58.32Z"/><path class="cls-1" d="M2.53,54.56V50.77H0V48.3H20.21v2.45H17.75v3.81c.65,0,1.3,0,2,0,.41,0,.59.09.55.53a8.45,8.45,0,0,0,0,1.37c0,.48-.1.64-.61.63-2.09,0-4.19,0-6.28,0H.66c-.65,0-.65,0-.65-.67,0-.46,0-.91,0-1.37s.14-.49.5-.48C1.16,54.58,1.81,54.56,2.53,54.56Z"/></svg>