<svg id="Layer_1" data-name="Layer 1" xmlns="http://www.w3.org/2000/svg" viewBox="0 0 71.07 80"><defs><style>.cls-1{fill:currentColor;}</style></defs><title>Untitled-3</title><path class="cls-1" d="M41.33,19.44V1.78A1.78,1.78,0,0,0,39.55,0H1.78A1.78,1.78,0,0,0,0,1.78V78.22A1.78,1.78,0,0,0,1.78,80h59a1.78,1.78,0,0,0,1.78-1.78V56.08a8.31,8.31,0,0,1,0-16.62V23a1.78,1.78,0,0,0-1.78-1.78H43.1A1.78,1.78,0,0,1,41.33,19.44ZM35.54,30.81h4.93a.79.79,0,0,1,.79.79h0a.79.79,0,0,1-.79.79H35.54a.79.79,0,0,1-.79-.79h0A.79.79,0,0,1,35.54,30.81ZM33.72,42.44H48.8a.79.79,0,0,1,.79.79h0a.79.79,0,0,1-.79.79H33.72a.79.79,0,0,1-.79-.79h0A.79.79,0,0,1,33.72,42.44Zm-.79,12.42h0a.79.79,0,0,1-.79.79H27.73a.79.79,0,0,1-.79-.79h0a.79.79,0,0,1,.79-.79h4.41A.79.79,0,0,1,32.93,54.87ZM28.47,32.4h-.53a.79.79,0,0,1-.79-.79h0a.79.79,0,0,1,.79-.79h.53a.79.79,0,0,1,.79.79h0A.79.79,0,0,1,28.47,32.4ZM13.88,19.17h13a.79.79,0,0,1,.79.79h0a.79.79,0,0,1-.79.79h-13a.79.79,0,0,1-.79-.79h0A.79.79,0,0,1,13.88,19.17Zm0,11.64h6.87a.79.79,0,0,1,.79.79h0a.79.79,0,0,1-.79.79H13.88a.79.79,0,0,1-.79-.79h0A.79.79,0,0,1,13.88,30.81Zm0,11.63H26.57a.79.79,0,0,1,.79.79h0a.79.79,0,0,1-.79.79H13.88a.79.79,0,0,1-.79-.79h0A.79.79,0,0,1,13.88,42.44Zm0,11.63h6.87a.79.79,0,0,1,.79.79h0a.79.79,0,0,1-.79.79H13.88a.79.79,0,0,1-.79-.79h0A.79.79,0,0,1,13.88,54.08Zm23,13.23h-23a.79.79,0,0,1-.79-.79h0a.79.79,0,0,1,.79-.79h23a.79.79,0,0,1,.79.79h0A.79.79,0,0,1,36.83,67.31Zm2.49-13.23H49.44a.79.79,0,0,1,.79.79h0a.79.79,0,0,1-.79.79H39.33a.79.79,0,0,1-.79-.79h0A.79.79,0,0,1,39.33,54.08Z"/><polygon class="cls-1" points="60.53 19.2 54.63 13.31 53.34 12.02 43.34 2.02 43.34 19.2 60.53 19.2"/><path class="cls-1" d="M62.75,39.45h-.2a8.31,8.31,0,0,0,0,16.62h.2a8.32,8.32,0,1,0,0-16.64ZM65.3,49.77l-.56.56-2-2-.21.21-1.79,1.79-.56-.56,2-2-2-2,.56-.56L62.54,47l.21.21,2-2,.56.56-2,2Z"/></svg>
