<?xml version="1.0" encoding="utf-8"?>
<!-- Generator: Adobe Illustrator 21.0.0, SVG Export Plug-In . SVG Version: 6.00 Build 0)  -->
<svg version="1.1" id="Layer_1" xmlns="http://www.w3.org/2000/svg" xmlns:xlink="http://www.w3.org/1999/xlink" x="0px" y="0px"
	 viewBox="0 0 188 99.4" style="enable-background:new 0 0 188 99.4;" xml:space="preserve">
<style type="text/css">
	.st0{fill:#F6921E;}
	.st1{fill:#2478AA;}
</style>
<g>
	<g>
		<path class="st0" d="M22.3,2.6c2.4,1.7,3.9,4.1,4.5,7.1l-5.5,1.1C21,9,20.1,7.5,18.7,6.4c-1.4-1.1-3.2-1.7-5.2-1.7
			c-2,0-3.6,0.5-4.9,1.5c-1.2,1-1.8,2.2-1.8,3.8c0,1.2,0.3,2.1,1,2.8c0.7,0.7,1.8,1.2,3.3,1.5l7.4,1.6c5.9,1.3,8.8,4.4,8.8,9.4
			c0,3.2-1.2,5.8-3.6,7.6c-2.4,1.9-5.6,2.8-9.5,2.8c-3.8,0-7-0.9-9.6-2.7c-2.6-1.8-4.1-4.3-4.6-7.5l5.8-1.2c0.4,2.1,1.4,3.8,3,4.9
			c1.6,1.1,3.5,1.7,5.9,1.7c2.3,0,4-0.5,5.3-1.5c1.3-1,1.9-2.3,1.9-3.9c0-1.3-0.4-2.3-1.1-3c-0.7-0.7-2-1.2-3.7-1.6l-7.5-1.5
			C3.9,18.1,1,15,1,10.1c0-3,1.2-5.5,3.5-7.3C6.7,0.9,9.8,0,13.6,0C17,0,19.9,0.9,22.3,2.6z"/>
		<path class="st0" d="M57.1,35h-5.3v-3.1c-2.1,2.6-5.1,3.8-8.7,3.8c-3.1,0-5.5-1-7.4-3c-1.9-2-2.8-4.6-2.8-7.8V9.6h5.3v14.2
			c0,2.1,0.6,3.8,1.7,5c1.1,1.3,2.6,1.9,4.4,1.9c2.4,0,4.2-0.8,5.5-2.4c1.3-1.6,2-4,2-7.1V9.6h5.3V35z"/>
		<path class="st0" d="M86.7,11.9c1.9,2,2.8,4.6,2.8,7.8V35h-5.4V20.7c0-2.1-0.6-3.8-1.7-5c-1.1-1.3-2.6-1.9-4.4-1.9
			c-2.4,0-4.2,0.8-5.6,2.4c-1.3,1.6-2,4-2,7.1V35h-5.3V9.6h5.3v3.1c2.1-2.6,5.1-3.8,8.8-3.8C82.4,8.9,84.8,9.9,86.7,11.9z"/>
		<path class="st0" d="M119.6,35l-12.2-13.7h-5V35h-5.5V0.7H113c3.5,0,6.4,0.9,8.5,2.8c2.2,1.9,3.2,4.4,3.2,7.5c0,2.9-1,5.3-2.9,7.2
			c-2,1.9-4.6,2.9-7.9,3L126.4,35H119.6z M113,16.4c1.9,0,3.4-0.5,4.6-1.5c1.2-1,1.7-2.3,1.7-3.9s-0.6-2.9-1.7-3.9
			c-1.2-1-2.7-1.5-4.6-1.5h-10.6v10.7H113z"/>
		<path class="st0" d="M155.3,35H150v-2.9c-2.3,2.4-5.4,3.6-9.2,3.6c-3.4,0-6.4-1.3-8.9-3.8c-2.5-2.5-3.7-5.7-3.7-9.6
			c0-3.9,1.2-7.1,3.7-9.6c2.5-2.5,5.4-3.8,8.9-3.8c3.8,0,6.9,1.2,9.2,3.6V9.6h5.3V35z M147.5,28.6c1.7-1.6,2.5-3.7,2.5-6.3
			c0-2.6-0.8-4.6-2.5-6.3c-1.7-1.6-3.6-2.4-5.8-2.4c-2.4,0-4.4,0.8-5.9,2.4c-1.6,1.6-2.4,3.7-2.4,6.3s0.8,4.7,2.4,6.3
			c1.6,1.6,3.5,2.4,5.9,2.4C143.9,31,145.8,30.2,147.5,28.6z"/>
		<path class="st0" d="M172.8,43.7h-5.9l4.1-9.3L160.1,9.6h5.9l7.9,18.3l8.1-18.3h5.9L172.8,43.7z"/>
	</g>
	<g>
		<path class="st1" d="M10,50.1v2.6c-0.5-0.5-0.9-0.9-1.2-1.1c-0.4-0.2-0.8-0.3-1.3-0.3c-0.8,0-1.4,0.3-1.9,0.8
			c-0.5,0.5-0.7,1.2-0.7,1.9c0,0.8,0.2,1.5,0.7,2c0.5,0.5,1.1,0.8,1.9,0.8c0.5,0,0.9-0.1,1.3-0.3c0.4-0.2,0.8-0.6,1.3-1.2v2.6
			c-0.8,0.4-1.6,0.6-2.4,0.6c-1.3,0-2.5-0.4-3.4-1.3c-0.9-0.9-1.4-1.9-1.4-3.2c0-1.3,0.5-2.3,1.4-3.2c0.9-0.9,2-1.3,3.4-1.3
			C8.4,49.5,9.2,49.7,10,50.1z"/>
		<path class="st1" d="M11.5,54c0-1.2,0.4-2.3,1.3-3.1c0.9-0.9,2-1.3,3.3-1.3c1.3,0,2.4,0.4,3.3,1.3c0.9,0.9,1.3,1.9,1.3,3.2
			c0,1.3-0.4,2.3-1.3,3.2c-0.9,0.9-2,1.3-3.3,1.3c-1.3,0-2.4-0.4-3.3-1.3C11.9,56.3,11.5,55.3,11.5,54z M13.5,54
			c0,0.8,0.2,1.5,0.7,2c0.5,0.5,1.1,0.7,1.9,0.7c0.8,0,1.4-0.2,1.9-0.7c0.5-0.5,0.7-1.2,0.7-2c0-0.8-0.2-1.5-0.7-2
			c-0.5-0.5-1.1-0.7-1.9-0.7c-0.8,0-1.4,0.3-1.9,0.7C13.8,52.6,13.5,53.2,13.5,54z"/>
		<path class="st1" d="M22.9,49.8h2v0.8c0.7-0.7,1.5-1,2.4-1c1,0,1.8,0.3,2.4,0.9c0.5,0.5,0.7,1.4,0.7,2.6v5.2h-2v-4.7
			c0-0.8-0.1-1.4-0.4-1.7c-0.2-0.3-0.7-0.5-1.3-0.5c-0.7,0-1.1,0.2-1.4,0.6c-0.3,0.4-0.4,1.2-0.4,2.2v4.1h-2V49.8z"/>
		<path class="st1" d="M37.9,51.2l-1.7,0.9c-0.3-0.5-0.6-0.8-1-0.8c-0.2,0-0.3,0.1-0.5,0.2c-0.1,0.1-0.2,0.3-0.2,0.5
			c0,0.3,0.4,0.6,1.2,1c1.1,0.4,1.8,0.9,2.1,1.2c0.4,0.4,0.6,0.9,0.6,1.5c0,0.8-0.3,1.5-0.9,2.1c-0.6,0.5-1.3,0.8-2.2,0.8
			c-1.5,0-2.5-0.7-3.1-2.1l1.7-0.8c0.2,0.4,0.4,0.7,0.5,0.8c0.2,0.2,0.5,0.3,0.9,0.3c0.7,0,1-0.3,1-0.9c0-0.3-0.3-0.7-0.8-1
			c-0.2-0.1-0.4-0.2-0.6-0.3c-0.2-0.1-0.4-0.2-0.6-0.3c-0.6-0.3-1-0.6-1.2-0.8c-0.3-0.4-0.5-0.8-0.5-1.4c0-0.7,0.3-1.3,0.8-1.8
			c0.5-0.5,1.2-0.7,1.9-0.7C36.5,49.5,37.3,50.1,37.9,51.2z"/>
		<path class="st1" d="M42.3,51.6v6.7h-2v-6.7h-0.9v-1.8h0.9v-3.1h2v3.1h1.6v1.8H42.3z"/>
		<path class="st1" d="M45.2,49.8h2v0.8c0.4-0.4,0.7-0.6,1-0.8c0.3-0.1,0.6-0.2,1-0.2c0.5,0,1.1,0.2,1.7,0.5L50,51.8
			c-0.4-0.3-0.8-0.4-1.1-0.4c-1.1,0-1.6,0.8-1.6,2.4v4.4h-2V49.8z"/>
		<path class="st1" d="M54.3,49.8v4.9c0,1.4,0.6,2.1,1.7,2.1c1.1,0,1.7-0.7,1.7-2.1v-4.9h2v4.9c0,0.7-0.1,1.3-0.3,1.8
			c-0.2,0.4-0.5,0.8-0.9,1.2c-0.7,0.6-1.5,0.9-2.6,0.9c-1,0-1.9-0.3-2.6-0.9c-0.4-0.4-0.7-0.8-0.9-1.2c-0.2-0.4-0.2-1-0.2-1.8v-4.9
			H54.3z"/>
		<path class="st1" d="M69,50.1v2.6c-0.5-0.5-0.9-0.9-1.2-1.1c-0.4-0.2-0.8-0.3-1.3-0.3c-0.8,0-1.4,0.3-1.9,0.8
			c-0.5,0.5-0.7,1.2-0.7,1.9c0,0.8,0.2,1.5,0.7,2c0.5,0.5,1.1,0.8,1.9,0.8c0.5,0,0.9-0.1,1.3-0.3c0.4-0.2,0.8-0.6,1.3-1.2v2.6
			c-0.8,0.4-1.6,0.6-2.4,0.6c-1.3,0-2.5-0.4-3.4-1.3c-0.9-0.9-1.4-1.9-1.4-3.2c0-1.3,0.5-2.3,1.4-3.2c0.9-0.9,2-1.3,3.4-1.3
			C67.4,49.5,68.2,49.7,69,50.1z"/>
		<path class="st1" d="M73,51.6v6.7h-2v-6.7h-0.9v-1.8H71v-3.1h2v3.1h1.6v1.8H73z"/>
		<path class="st1" d="M75.6,46.2c0-0.3,0.1-0.6,0.4-0.9c0.3-0.2,0.6-0.4,0.9-0.4c0.4,0,0.7,0.1,0.9,0.4c0.3,0.2,0.4,0.5,0.4,0.9
			c0,0.4-0.1,0.7-0.4,0.9c-0.2,0.3-0.6,0.4-0.9,0.4s-0.7-0.1-0.9-0.4C75.7,46.9,75.6,46.6,75.6,46.2z M77.9,49.8v8.5h-2v-8.5H77.9z"
			/>
		<path class="st1" d="M80,54c0-1.2,0.4-2.3,1.3-3.1c0.9-0.9,2-1.3,3.3-1.3c1.3,0,2.4,0.4,3.3,1.3c0.9,0.9,1.3,1.9,1.3,3.2
			c0,1.3-0.4,2.3-1.3,3.2c-0.9,0.9-2,1.3-3.3,1.3c-1.3,0-2.4-0.4-3.3-1.3C80.5,56.3,80,55.3,80,54z M82.1,54c0,0.8,0.2,1.5,0.7,2
			c0.5,0.5,1.1,0.7,1.9,0.7c0.8,0,1.4-0.2,1.9-0.7c0.5-0.5,0.7-1.2,0.7-2c0-0.8-0.2-1.5-0.7-2c-0.5-0.5-1.1-0.7-1.9-0.7
			c-0.8,0-1.4,0.3-1.9,0.7C82.3,52.6,82.1,53.2,82.1,54z"/>
		<path class="st1" d="M91.4,49.8h2v0.8c0.7-0.7,1.5-1,2.4-1c1,0,1.8,0.3,2.4,0.9c0.5,0.5,0.7,1.4,0.7,2.6v5.2h-2v-4.7
			c0-0.8-0.1-1.4-0.4-1.7c-0.2-0.3-0.7-0.5-1.3-0.5c-0.7,0-1.1,0.2-1.4,0.6c-0.3,0.4-0.4,1.2-0.4,2.2v4.1h-2V49.8z"/>
		<path class="st1" d="M112,51.2l-1.7,0.9c-0.3-0.5-0.6-0.8-1-0.8c-0.2,0-0.3,0.1-0.5,0.2c-0.1,0.1-0.2,0.3-0.2,0.5
			c0,0.3,0.4,0.6,1.2,1c1.1,0.4,1.8,0.9,2.1,1.2c0.4,0.4,0.6,0.9,0.6,1.5c0,0.8-0.3,1.5-0.9,2.1c-0.6,0.5-1.3,0.8-2.2,0.8
			c-1.5,0-2.5-0.7-3.1-2.1l1.7-0.8c0.2,0.4,0.4,0.7,0.5,0.8c0.2,0.2,0.5,0.3,0.9,0.3c0.7,0,1-0.3,1-0.9c0-0.3-0.3-0.7-0.8-1
			c-0.2-0.1-0.4-0.2-0.6-0.3c-0.2-0.1-0.4-0.2-0.6-0.3c-0.6-0.3-1-0.6-1.2-0.8c-0.3-0.4-0.5-0.8-0.5-1.4c0-0.7,0.3-1.3,0.8-1.8
			c0.5-0.5,1.2-0.7,1.9-0.7C110.6,49.5,111.5,50.1,112,51.2z"/>
		<path class="st1" d="M114,54c0-1.2,0.4-2.3,1.3-3.1c0.9-0.9,2-1.3,3.3-1.3c1.3,0,2.4,0.4,3.3,1.3c0.9,0.9,1.3,1.9,1.3,3.2
			c0,1.3-0.4,2.3-1.3,3.2c-0.9,0.9-2,1.3-3.3,1.3c-1.3,0-2.4-0.4-3.3-1.3C114.4,56.3,114,55.3,114,54z M116,54c0,0.8,0.2,1.5,0.7,2
			c0.5,0.5,1.1,0.7,1.9,0.7c0.8,0,1.4-0.2,1.9-0.7c0.5-0.5,0.7-1.2,0.7-2c0-0.8-0.2-1.5-0.7-2c-0.5-0.5-1.1-0.7-1.9-0.7
			c-0.8,0-1.4,0.3-1.9,0.7C116.2,52.6,116,53.2,116,54z"/>
		<path class="st1" d="M127.3,43.5v14.7h-2V43.5H127.3z"/>
		<path class="st1" d="M131.9,49.8v4.9c0,1.4,0.6,2.1,1.7,2.1s1.7-0.7,1.7-2.1v-4.9h2v4.9c0,0.7-0.1,1.3-0.3,1.8
			c-0.2,0.4-0.5,0.8-0.9,1.2c-0.7,0.6-1.5,0.9-2.6,0.9c-1,0-1.9-0.3-2.6-0.9c-0.4-0.4-0.7-0.8-0.9-1.2c-0.2-0.4-0.2-1-0.2-1.8v-4.9
			H131.9z"/>
		<path class="st1" d="M141.8,51.6v6.7h-2v-6.7H139v-1.8h0.9v-3.1h2v3.1h1.6v1.8H141.8z"/>
		<path class="st1" d="M144.5,46.2c0-0.3,0.1-0.6,0.4-0.9c0.3-0.2,0.6-0.4,0.9-0.4c0.4,0,0.7,0.1,0.9,0.4c0.3,0.2,0.4,0.5,0.4,0.9
			c0,0.4-0.1,0.7-0.4,0.9c-0.2,0.3-0.6,0.4-0.9,0.4s-0.7-0.1-0.9-0.4C144.6,46.9,144.5,46.6,144.5,46.2z M146.8,49.8v8.5h-2v-8.5
			H146.8z"/>
		<path class="st1" d="M148.9,54c0-1.2,0.4-2.3,1.3-3.1c0.9-0.9,2-1.3,3.3-1.3c1.3,0,2.4,0.4,3.3,1.3c0.9,0.9,1.3,1.9,1.3,3.2
			c0,1.3-0.4,2.3-1.3,3.2c-0.9,0.9-2,1.3-3.3,1.3c-1.3,0-2.4-0.4-3.3-1.3C149.3,56.3,148.9,55.3,148.9,54z M150.9,54
			c0,0.8,0.2,1.5,0.7,2c0.5,0.5,1.1,0.7,1.9,0.7c0.8,0,1.4-0.2,1.9-0.7c0.5-0.5,0.7-1.2,0.7-2c0-0.8-0.2-1.5-0.7-2
			c-0.5-0.5-1.1-0.7-1.9-0.7c-0.8,0-1.4,0.3-1.9,0.7C151.2,52.6,150.9,53.2,150.9,54z"/>
		<path class="st1" d="M160.2,49.8h2v0.8c0.7-0.7,1.5-1,2.4-1c1,0,1.8,0.3,2.4,0.9c0.5,0.5,0.7,1.4,0.7,2.6v5.2h-2v-4.7
			c0-0.8-0.1-1.4-0.4-1.7c-0.2-0.3-0.7-0.5-1.3-0.5c-0.7,0-1.1,0.2-1.4,0.6c-0.3,0.4-0.4,1.2-0.4,2.2v4.1h-2V49.8z"/>
		<path class="st1" d="M175.3,51.2l-1.7,0.9c-0.3-0.5-0.6-0.8-1-0.8c-0.2,0-0.3,0.1-0.5,0.2c-0.1,0.1-0.2,0.3-0.2,0.5
			c0,0.3,0.4,0.6,1.2,1c1.1,0.4,1.8,0.9,2.1,1.2c0.4,0.4,0.6,0.9,0.6,1.5c0,0.8-0.3,1.5-0.9,2.1c-0.6,0.5-1.3,0.8-2.2,0.8
			c-1.5,0-2.5-0.7-3.1-2.1l1.7-0.8c0.2,0.4,0.4,0.7,0.5,0.8c0.2,0.2,0.5,0.3,0.9,0.3c0.7,0,1-0.3,1-0.9c0-0.3-0.3-0.7-0.8-1
			c-0.2-0.1-0.4-0.2-0.6-0.3c-0.2-0.1-0.4-0.2-0.6-0.3c-0.6-0.3-1-0.6-1.2-0.8c-0.3-0.4-0.5-0.8-0.5-1.4c0-0.7,0.3-1.3,0.8-1.8
			c0.5-0.5,1.2-0.7,1.9-0.7C173.9,49.5,174.7,50.1,175.3,51.2z"/>
	</g>
	<g>
		<path class="st0" d="M88.9,99.4c-22.9,0-42.3-6.8-55-12.9C18.7,79.2,9.5,71.4,9.4,71.3C9.1,71,9,70.4,9.3,70.1
			c0.3-0.4,0.9-0.4,1.2-0.1c0.1,0.1,9.1,7.8,24.2,15c13.9,6.6,35.8,14.2,61.7,12.4c0.1,0,10.3-0.4,24.8-3.9
			c13.3-3.3,33-10,51.2-23.5c0.4-0.3,0.9-0.2,1.2,0.2c0.3,0.4,0.2,0.9-0.2,1.2C154.9,85,135,91.8,121.6,95.2c-14.6,3.6-24.9,4-25,4
			C93.9,99.3,91.4,99.4,88.9,99.4z"/>
	</g>
</g>
</svg>
