<?xml version="1.0" encoding="utf-8"?>
<!-- Generator: Adobe Illustrator 21.0.0, SVG Export Plug-In . SVG Version: 6.00 Build 0)  -->
<svg version="1.1" id="Layer_1" xmlns="http://www.w3.org/2000/svg" xmlns:xlink="http://www.w3.org/1999/xlink" x="0px" y="0px"
	 viewBox="0 0 100 100" style="enable-background:new 0 0 100 100;" xml:space="preserve">
<style type="text/css">
	.st0{fill:#ED8B00;}
	.st1{fill:#FFFFFF;}
</style>
<title>CONTACT US</title>
<path class="st0" d="M50,0L50,0c27.6,0,50,22.4,50,50l0,0c0,27.6-22.4,50-50,50l0,0C22.4,100,0,77.6,0,50l0,0C0,22.4,22.4,0,50,0z"
	/>
<g>
	<path class="st1" d="M63,60.7c-1.6-0.5-1.9-1.6-1.9-3c0-3.7,0-7.4,0-11.1c0-1.7,0.4-2.9,2.6-3.1c-0.3-1.4-0.8-2.7-1.5-4
		c-1.5-2.7-3.5-4.8-6.2-6.3c-2.7-1.4-5.7-2-8.7-1.3c-5.4,1.2-8.7,4.7-10.7,9.7c-0.1,0.3-0.2,0.6-0.3,0.9c-0.1,0.3-0.1,0.6-0.2,0.9
		c0.3,0,0.5,0,0.7,0c1.3,0.1,2.1,0.9,2.2,2.2c0,0.6,0,1.3,0,1.9c0,3.4,0,6.9,0,10.3c0,1.9-0.8,2.8-2.7,2.8c-1,0-1.9,0-2.9,0
		c-1.6,0-2.5-0.9-2.5-2.5c0-4,0-8.1,0-12.1c0-1.6,0.9-2.5,2.5-2.5c0.4,0,0.6-0.1,0.7-0.5c0.9-3.7,2.6-6.8,5.4-9.4
		c4.4-4.1,10.7-5.4,16.3-2.9c3.7,1.6,6.4,4.3,8.2,7.9c0.7,1.4,1.2,2.9,1.7,4.4c0.2,0.5,0.3,0.6,0.8,0.6c1-0.1,1.9,0.2,2.4,1.1
		c0.2,0.4,0.4,0.9,0.4,1.3c0,4.1,0,8.3,0,12.4c0,1.4-0.9,2.4-2.3,2.3c-1.3-0.1-2,0.4-2.6,1.5c-2.1,3.5-5.4,5.5-9.3,6.4
		c-0.4,0.1-0.9,0.2-1.3,0.3C53,69,52.4,69,52,69.8c-0.3,0.6-0.9,0.7-1.5,0.7c-1.3,0-2.7,0-4,0c-1.1,0-1.8-0.7-1.9-1.8
		c-0.1-0.8-0.2-1.7,0.6-2.3c0.4-0.3,0.9-0.6,1.4-0.6c1.3-0.1,2.5,0,3.8,0c0.8,0,1.3,0.3,1.8,0.9c0.1,0.1,0.3,0.3,0.5,0.2
		c3.4-0.5,6.5-1.6,8.9-4.3C62.1,62.1,62.5,61.5,63,60.7z"/>
</g>
</svg>
