<svg id="Layer_1" data-name="Layer 1" xmlns="http://www.w3.org/2000/svg" viewBox="0 0 42.34 42.34"><defs><style>.cls-1{fill:#fff;}</style></defs><title>CONTACT US</title><g id="Google_" data-name="Google+"><path class="cls-1" d="M21.17,0A21.17,21.17,0,1,0,42.34,21.17,21.17,21.17,0,0,0,21.17,0ZM17.06,28.6a7.23,7.23,0,0,1,0-14.45A7.1,7.1,0,0,1,21.87,16c-1.49,1.42-1.44,1.49-2,2.08A4,4,0,0,0,17.06,17a4.19,4.19,0,0,0-4.18,4.25,4.33,4.33,0,0,0,4.18,4.41A3.57,3.57,0,0,0,20.93,23H17.15V20.2h6.78C24.4,23.55,23,28.6,17.06,28.6ZM32.2,21.87H30v2.79H28.3V21.87H25.51V20.2H28.3V18H30V20.2H32.2Z"/></g></svg>