<svg id="Layer_1" data-name="Layer 1" xmlns="http://www.w3.org/2000/svg" viewBox="0 0 42.34 42.34"><defs><style>.cls-1{fill:#fff;}</style></defs><title>CONTACT US</title><g id="LinKeDin"><path class="cls-1" d="M21.17,0A21.17,21.17,0,1,0,42.34,21.17,21.17,21.17,0,0,0,21.17,0ZM15.86,30.59H12V17.77h3.9ZM13.68,16.65h0a2.32,2.32,0,0,1-2.39-2.34A2.29,2.29,0,0,1,13.71,12a2.31,2.31,0,1,1,0,4.62ZM32,30.59H27V24.1c0-1.72-.57-2.89-2.14-2.89a2.33,2.33,0,0,0-2.2,1.56,2.82,2.82,0,0,0-.12,1v6.8H18.23s.06-11.71,0-12.82h4.32V20a4.86,4.86,0,0,1,4.19-2.11c2.85,0,5.29,1.82,5.29,5.76Z"/></g></svg>