<svg id="Layer_1" data-name="Layer 1" xmlns="http://www.w3.org/2000/svg" viewBox="0 0 100 100"><defs><style>.cls-1{fill:#00b2a9;}.cls-2{fill:#fff;}</style></defs><title>CONTACT US</title><rect class="cls-1" width="100" height="100" rx="50" ry="50"/><path class="cls-2" d="M73.32,30.94H29.92a4.93,4.93,0,0,0-3.19,3.19V62a3.85,3.85,0,0,0,1.49,2.84,5.12,5.12,0,0,0,2.91.84h12a9.22,9.22,0,0,1,1.19,0c.5.07,1.08.14,1,.81s-.56.68-1,.72c-.86.08-1.72,0-2.59,0a1.36,1.36,0,0,0-1.39.89c-.43,1-.9,1.92-1.27,2.92-.14.38-.28.76.14,1.07H64c.37-.27.31-.6.18-1-.3-.88-.77-1.69-1.08-2.56a1.84,1.84,0,0,0-2.12-1.35,9.09,9.09,0,0,1-2.38-.06c-.37-.07-.73-.23-.75-.67s.35-.67.76-.77a5.8,5.8,0,0,1,1.29-.07H71.8c2.85,0,4.09-1,4.7-3.68V34.12A4.92,4.92,0,0,0,73.32,30.94Zm-.24,29.39c0,1.29-.05,1.34-1.36,1.34H31.51c-1.3,0-1.35,0-1.35-1.34q0-12.29,0-24.58c0-1.27.08-1.35,1.36-1.35h40.2c1.28,0,1.35.08,1.35,1.35Q73.08,48,73.08,60.32Z"/><path class="cls-2" d="M29.92,30.94c-2.75-.06-3.11.47-3.19,3.19A4.93,4.93,0,0,1,29.92,30.94Z"/><path class="cls-2" d="M73.32,30.94a4.92,4.92,0,0,1,3.19,3.19C76.5,31.47,76,30.94,73.32,30.94Z"/><path class="cls-2" d="M51.52,37.31A10.73,10.73,0,1,0,62.32,48,10.77,10.77,0,0,0,51.52,37.31Zm4.25,11.88c-1.46,1.08-2.94,2.15-4.42,3.21-.44.32-.89.61-1.46.29a1.35,1.35,0,0,1-.67-1.34q0-3.33,0-6.66c0-.81.29-1.33,1.13-1.45a1.53,1.53,0,0,1,1,.42c1.47,1.07,3,2.13,4.42,3.21C56.82,47.66,56.81,48.42,55.78,49.19Z"/></svg>