<svg id="Layer_1" data-name="Layer 1" xmlns="http://www.w3.org/2000/svg" viewBox="0 0 100 100"><defs><style>.cls-1{fill:#963cbd;}.cls-2{fill:#fff;}</style></defs><title>CONTACT US</title><rect class="cls-1" width="100" height="100" rx="50" ry="50"/><path class="cls-2" d="M71.36,61.56c0,2.91,0,5.81,0,8.72,0,.42-.11.56-.54.55-2.36,0-4.72,0-7.07,0-.38,0-.52-.1-.52-.5q0-8.81,0-17.62c0-.38.11-.51.51-.51q3.54,0,7.07,0c.42,0,.56.11.55.55C71.35,55.69,71.36,58.62,71.36,61.56Z"/><path class="cls-2" d="M63.48,41.62l1.7.28,5.79,1c.27,0,.39.11.34.42-.41,2.43-.8,4.85-1.21,7.28a2.16,2.16,0,0,1-.12.32l-1.25-1.73c-.34-.47-.69-.93-1-1.42-.2-.31-.36-.34-.67-.12C65,49.08,62.89,50.54,60.8,52c-1.14.8-2.29,1.59-3.42,2.4a.69.69,0,0,1-.73.08L44,49.72a.87.87,0,0,0-.83.05L30.56,57c-.35.2-.52.18-.71-.19A15,15,0,0,0,29,55.34c-.22-.34-.16-.52.19-.72,1.69-.95,3.38-1.92,5.06-2.88,2.83-1.62,5.67-3.23,8.49-4.87a1.21,1.21,0,0,1,1.16-.09c4.09,1.55,8.18,3.08,12.27,4.63a.84.84,0,0,0,.89-.1q4.18-3,8.38-5.87c.32-.23.39-.38.13-.72-.66-.87-1.29-1.78-1.92-2.67A.56.56,0,0,1,63.48,41.62Z"/><path class="cls-2" d="M48.3,62.72c0,2.52,0,5,0,7.56,0,.43-.13.55-.55.55q-3.51,0-7,0c-.42,0-.57-.11-.56-.55q0-7.61,0-15.21c0-.38.08-.55.52-.55q3.54,0,7.07,0c.42,0,.56.12.55.55C48.3,57.62,48.3,60.17,48.3,62.72Z"/><path class="cls-2" d="M51.69,64.36c0-2,0-4,0-6,0-.38.1-.52.5-.52q3.58,0,7.16,0c.37,0,.48.14.48.5q0,6,0,12c0,.36-.12.49-.49.49q-3.58,0-7.16,0c-.4,0-.5-.13-.5-.51C51.7,68.33,51.69,66.35,51.69,64.36Z"/><path class="cls-2" d="M28.64,65.28c0-1.66,0-3.32,0-5,0-.38.1-.51.5-.51q3.56,0,7.12,0c.38,0,.52.11.52.5q0,5,0,10.06c0,.36-.11.49-.48.49q-3.58,0-7.16,0c-.36,0-.49-.1-.48-.48C28.65,68.66,28.64,67,28.64,65.28Z"/><path class="cls-2" d="M49.34,41.18c0-.64,0-1.28,0-1.91a.55.55,0,0,0-.48-.66,9.07,9.07,0,0,1-1.78-.68,3.84,3.84,0,0,1-2.24-4,3.86,3.86,0,0,1,2.57-3.57A6,6,0,0,1,49,29.93c.27,0,.39-.16.38-.43s0-.68,0-1,.08-.38.36-.38c1.12,0,.91-.08.92.87s0,.87.83,1a4.37,4.37,0,0,1,3.43,2.73c.14.32.07.48-.27.59-.55.18-1.09.39-1.62.63-.37.16-.55.12-.66-.3A2.26,2.26,0,0,0,51,32.1c-.27-.12-.38-.05-.38.24,0,1.25,0,2.49,0,3.74,0,.25.13.33.34.39.53.15,1.05.31,1.57.49a4.2,4.2,0,0,1,3,4.07,4.51,4.51,0,0,1-3,4.38,6.42,6.42,0,0,1-1.59.4c-.26,0-.37.14-.36.4s0,.68,0,1-.09.39-.38.41c-.9.06-.92,0-.92-.86s0-.87-.85-1.06a5,5,0,0,1-3.94-3.39c-.13-.41-.05-.63.38-.76s1-.38,1.49-.57.59-.23.8.35c.12.32.23.64.38.95a2.66,2.66,0,0,0,1.29,1.24c.32.16.46.1.46-.28,0-.7,0-1.39,0-2.09Zm1.29,2.23c0,.21,0,.38.32.33a2.38,2.38,0,0,0,1.88-3c-.29-.86-1.06-1.15-1.8-1.46-.29-.12-.41,0-.4.27,0,.64,0,1.28,0,1.91S50.63,42.75,50.63,43.4Zm-1.29-11.1c0-.28-.12-.37-.39-.28a1.94,1.94,0,0,0-1.47,2.16c.06.95.75,1.31,1.48,1.65.27.13.39.05.38-.24,0-.55,0-1.1,0-1.64S49.34,32.86,49.34,32.31Z"/></svg>