<?xml version="1.0" encoding="utf-8"?>
<!-- Generator: Adobe Illustrator 21.1.0, SVG Export Plug-In . SVG Version: 6.00 Build 0)  -->
<svg version="1.1" id="Layer_1" xmlns="http://www.w3.org/2000/svg" xmlns:xlink="http://www.w3.org/1999/xlink" x="0px" y="0px"
	 viewBox="0 0 46.6 38.2" style="enable-background:new 0 0 46.6 38.2;" xml:space="preserve">
<style type="text/css">
	.st0{fill:#919396;}
</style>
<g>
	<g>
		<g>
			<g>
				<g>
					<path class="st0" d="M46.6,4.4v29l-19.4,0c0,0.9,0,1.8,0,2.7c0,0.1,0.2,0.2,0.3,0.2c0.7,0,1.5,0,2.2,0l1.3,0v1.9H15.6v-1.9
						c0.2,0,0.3,0,0.4,0c1,0,2,0,3,0c0.4,0,0.4-0.1,0.4-0.4c0-0.6,0-1.2,0-1.9c0-0.2,0-0.4,0-0.6H0l0-29c0.8,0,1.5,0,2.3,0
						c0.3,0,0.4-0.1,0.4-0.4c0-1.2,0-2.4,0-3.6c0-0.1,0-0.3,0-0.4C2.8,0,2.9,0,3,0c2.4,0.5,4.8,1,7.1,1.5c3.7,0.8,7.4,1.6,11.2,2.4
						c1.1,0.2,2.2,0.6,3.4,0.2C24.9,4,25.1,4,25.4,3.9c3.1-0.7,6.2-1.3,9.3-2c2.5-0.5,5-1.1,7.5-1.6c0.6-0.1,1.1-0.2,1.8-0.4
						c0,0.2,0,0.3,0,0.5c0,1.2,0,2.4,0,3.6c0,0.3,0.1,0.4,0.4,0.4C45.1,4.4,45.8,4.4,46.6,4.4z M8.1,15.5l-0.9-1.6h3.7
						c0,0,0-6.9,0-9.8c0-0.3-0.1-0.4-0.3-0.4C9.2,3.3,7.8,3,6.4,2.7C5.8,2.6,5.2,2.5,4.6,2.4c0,0.2,0,0.4,0,0.6c0,8.2,0,16.3,0,24.5
						c3,0.6,6,1.3,9,1.9c2.8,0.6,5.6,1.2,8.4,1.8c0.1,0,0.2,0,0.4,0c0-0.2,0-0.4,0-0.5c0-8,0-16,0-23.9c0-0.1,0-0.2,0-0.3
						c0-0.2-0.1-0.3-0.3-0.4c-1.4-0.3-2.8-0.6-4.1-0.9c-0.6-0.1-1.2-0.3-1.9-0.4l0,9.1h4.2l-6.8,7.5L8.1,15.5z M42,2.4
						c-0.2,0-0.4,0.1-0.5,0.1C39,3,36.6,3.5,34.2,4c-3.2,0.7-6.3,1.4-9.5,2c-0.3,0.1-0.4,0.2-0.4,0.5c0,8.1,0,16.2,0,24.3
						c0,0.1,0,0.3,0,0.4c1.8-0.4,3.6-0.8,5.4-1.2c4.1-0.9,8.2-1.8,12.3-2.6c0-8.2,0-16.4,0-24.5C42,2.8,42,2.6,42,2.4z"/>
					<path class="st0" d="M39.6,7.3l0.3,0.9l-12.7,4.2l-0.6-1.8c3.9-1.3,7.8-2.6,11.8-3.9C38.9,6.5,39.5,6.8,39.6,7.3z"/>
					<path class="st0" d="M27.2,17.6l-0.6-1.8l12.7-4.2l0.6,1.8C35.7,14.8,31.5,16.1,27.2,17.6z"/>
					<path class="st0" d="M26.6,26.1l12.7-4.2l0.6,1.8c-4.2,1.4-8.4,2.8-12.7,4.2L26.6,26.1z"/>
					<path class="st0" d="M27.2,22.7l-0.6-1.8l12.7-4.2l0.6,1.8C35.7,19.9,31.5,21.3,27.2,22.7z"/>
				</g>
			</g>
		</g>
	</g>
</g>
</svg>
