<?xml version="1.0" encoding="utf-8"?>
<!-- Generator: Adobe Illustrator 21.1.0, SVG Export Plug-In . SVG Version: 6.00 Build 0)  -->
<svg version="1.1" id="Layer_1" xmlns="http://www.w3.org/2000/svg" xmlns:xlink="http://www.w3.org/1999/xlink" x="0px" y="0px"
	 viewBox="0 0 47 39.9" style="enable-background:new 0 0 47 39.9;" xml:space="preserve">
<style type="text/css">
	.st0{fill:#919396;}
</style>
<g>
	<path class="st0" d="M23.5,0c6.4,0,12.8,0,19.2,0C45.5,0,47,1.7,47,4.2c-0.1,10.4-0.1,20.9,0,31.3c0,2.4-1.4,4.3-4.3,4.3
		c-8.9,0-17.8,0-26.6,0c-3.9,0-7.9,0-11.8,0c-2.8,0-4.3-1.4-4.3-4.2C0,25.1,0.1,14.6,0,4c0-2.1,1.5-4,4.1-4C10.5,0,17,0,23.5,0z
		 M3.5,36.2c0.5,0,0.9,0,1.3,0c12.4,0,24.8,0,37.2,0c1.5,0,1.5,0,1.5-1.5c0-10,0-19.9,0-29.9c0-0.8-0.2-1.2-1.1-1.2
		c-12.6,0-25.2,0-37.8,0c-0.9,0-1.1,0.3-1.1,1.1c0,8.6,0,17.3,0,25.9C3.5,32.5,3.5,34.3,3.5,36.2z"/>
	<path class="st0" d="M18.1,19.9c0-2.1,0-4.2,0-6.2c0-1.7,1.2-2.3,2.5-1.5c3.5,2.2,7.1,4.2,10.7,6.3c1.8,1,1.8,2,0,3
		c-3.6,2.1-7.2,4.2-10.8,6.3c-1.4,0.8-2.4,0.3-2.4-1.4C18.1,24.2,18.1,22.1,18.1,19.9L18.1,19.9z"/>
</g>
</svg>
