<?xml version="1.0" encoding="utf-8"?>
<!-- Generator: Adobe Illustrator 21.0.0, SVG Export Plug-In . SVG Version: 6.00 Build 0)  -->
<svg version="1.1" id="Layer_1" xmlns="http://www.w3.org/2000/svg" xmlns:xlink="http://www.w3.org/1999/xlink" x="0px" y="0px"
	 viewBox="0 0 100 100" style="enable-background:new 0 0 100 100;" xml:space="preserve">
<style type="text/css">
	.st0{fill:#00B2A9;}
	.st1{fill:#FFFFFF;}
</style>
<g>
	<path class="st0" d="M50,100L50,100C22.5,100,0,77.5,0,50v0C0,22.5,22.5,0,50,0h0c27.5,0,50,22.5,50,50v0C100,77.5,77.5,100,50,100
		z"/>
	<g>
		<polygon class="st1" points="70,67 50,67 30,67 30,39.1 27.8,39.1 27.8,69.2 72.2,69.2 72.2,39.1 70,39.1 		"/>
		<path class="st1" d="M27.8,30.8v8.3H30h20h20h2.2v-8.3H27.8z M33.2,36.2H30v-2.4h3.2V36.2z M39.8,36.2h-3.2v-2.4h3.2V36.2z
			 M46.3,36.2h-3.2v-2.4h3.2V36.2z"/>
		<rect x="44.4" y="41.8" class="st1" width="4.9" height="22.5"/>
		<rect x="38.2" y="47.4" class="st1" width="4.9" height="16.9"/>
		<rect x="31.9" y="52.9" class="st1" width="4.9" height="11.3"/>
		<path class="st1" d="M60.1,52.5V45c-4.2,0-7.5,3.3-7.5,7.5c0,2.1,0.8,3.9,2.2,5.3L60.1,52.5z"/>
		<path class="st1" d="M61.2,45v7.5h7.5C68.7,48.3,65.3,45,61.2,45z"/>
		<path class="st1" d="M54.7,59.5c1.3,1.3,3.2,2.2,5.3,2.2c0.9,0,1.9-0.2,2.7-0.5l-2.7-7L54.7,59.5z"/>
		<path class="st1" d="M68.7,53.6h-7.5l2.7,7C66.7,59.5,68.7,56.8,68.7,53.6z"/>
	</g>
</g>
</svg>
