<?xml version="1.0" encoding="utf-8"?>
<!-- Generator: Adobe Illustrator 21.0.0, SVG Export Plug-In . SVG Version: 6.00 Build 0)  -->
<svg version="1.1" id="Layer_1" xmlns="http://www.w3.org/2000/svg" xmlns:xlink="http://www.w3.org/1999/xlink" x="0px" y="0px"
	 viewBox="0 0 100 100" style="enable-background:new 0 0 100 100;" xml:space="preserve">
<style type="text/css">
	.st0{fill:#963CBD;}
	.st1{fill:#FFFFFF;}
</style>
<g>
	<path class="st0" d="M50,100L50,100C22.5,100,0,77.5,0,50v0C0,22.5,22.5,0,50,0h0c27.5,0,50,22.5,50,50v0C100,77.5,77.5,100,50,100
		z"/>
	<g>
		<path class="st1" d="M56.3,39c-0.5,0.5-0.5,1.4,0,2c3.6,3.6,3.6,9.6,0,13.2c-0.5,0.5-0.5,1.4,0,2c0.3,0.3,0.6,0.4,1,0.4
			c0.4,0,0.7-0.1,1-0.4c4.7-4.7,4.7-12.4,0-17.1C57.8,38.5,56.9,38.5,56.3,39z"/>
		<path class="st1" d="M51.2,43c-0.5,0.5-0.5,1.4,0,2c1.5,1.5,1.5,3.8,0,5.3c-0.5,0.5-0.5,1.4,0,2c0.3,0.3,0.6,0.4,1,0.4
			c0.4,0,0.7-0.1,1-0.4c2.5-2.5,2.5-6.7,0-9.2C52.6,42.5,51.7,42.5,51.2,43z"/>
		<path class="st1" d="M64.4,32.9c-0.5-0.5-1.4-0.5-2,0c-0.5,0.5-0.5,1.4,0,2c7,7,7,18.5,0,25.5c-0.5,0.5-0.5,1.4,0,2
			c0.3,0.3,0.6,0.4,1,0.4c0.4,0,0.7-0.1,1-0.4C72.5,54.2,72.5,41,64.4,32.9z"/>
		<path class="st1" d="M39.6,56.5c3.6-0.2,6.4-3.2,6.4-6.9c0-3.8-3.1-6.9-6.9-6.9c-3.8,0-6.9,3.1-6.9,6.9c0,3.6,2.8,6.6,6.4,6.9
			c-2.7,0.1-5,1.1-6.7,2.7c-1.7,1.7-2.5,4.1-2.5,6.9c0,0.8,0.6,1.4,1.4,1.4h16.4c0.8,0,1.4-0.6,1.4-1.4c0.1-2.8-0.8-5.2-2.5-6.9
			C44.6,57.6,42.2,56.6,39.6,56.5z"/>
	</g>
</g>
</svg>
