<?xml version="1.0" encoding="utf-8"?>
<!-- Generator: Adobe Illustrator 21.0.0, SVG Export Plug-In . SVG Version: 6.00 Build 0)  -->
<svg version="1.1" id="Layer_1" xmlns="http://www.w3.org/2000/svg" xmlns:xlink="http://www.w3.org/1999/xlink" x="0px" y="0px"
	 viewBox="0 0 100 100" style="enable-background:new 0 0 100 100;" xml:space="preserve">
<style type="text/css">
	.st0{fill:#001871;}
	.st1{fill:#FFFFFF;}
</style>
<g>
	<path class="st0" d="M50,100L50,100C22.5,100,0,77.5,0,50v0C0,22.5,22.5,0,50,0h0c27.5,0,50,22.5,50,50v0C100,77.5,77.5,100,50,100
		z"/>
	<g>
		<path class="st1" d="M42.5,32c4.9,0.4,9.1,2.4,12.5,6c0.8,0.9,1.5,1.8,2.2,2.8c0.2,0.3,0.1,0.4-0.2,0.5c-1.3,0.5-2.6,1-3.9,1.5
			c-0.3,0.1-0.5,0-0.7-0.2c-2.6-3.4-5.9-5.3-10.1-5.7c-7-0.7-13.7,4.2-15.1,11.1c-1.7,8.1,3.6,15.8,11.8,17
			c8.1,1.2,15.5-4.7,16.2-12.8c0-0.6,0.1-1.2,0-1.8c0-0.3,0.1-0.4,0.3-0.5c1.4-0.5,2.7-1,4.1-1.5c0.3-0.1,0.4-0.1,0.4,0.2
			c1.2,9.1-4.7,18.2-13.6,20.7c-1.2,0.3-2.4,0.7-3.6,0.8c-0.1,0-0.1,0-0.3,0c-0.1,0-2.9,0-3,0c-1,0-1.9-0.1-2.8-0.3
			c-2.7-0.6-5.1-1.7-7.3-3.4c-2.4-1.8-4.2-4-5.6-6.6c-1.3-2.4-2-6.1-1.9-8.8c0-0.8,0,0.7,0,0c0-5.3,1.7-9.3,4-12.1
			c2.3-2.9,5.3-5,8.8-6.2c1.4-0.5,2.8-0.7,4.3-0.7c0.1,0,0.3,0,0.4-0.1c0.6,0,1.2,0,1.8,0C41.6,32,42,31.9,42.5,32z"/>
		<path class="st1" d="M42.5,32c-0.5,0-0.9,0.1-1.3-0.1C41.5,31.9,42,31.9,42.5,32C42.4,31.9,42.5,32,42.5,32z"/>
		<path class="st1" d="M37.1,50.8c0.1-1.6,0.8-2.8,2.3-3.5c1.5-0.7,2.9-0.4,4.1,0.6c0.3,0.3,0.5,0.3,0.9,0.2
			c4.9-1.8,9.8-3.7,14.7-5.5c0.3-0.1,0.4-0.2,0.4-0.5c0.1-0.5,0.2-1,0.2-1.5c0.1-0.7,0.4-1.1,1-1.4c3.8-2.2,7.6-4.3,11.4-6.5
			c0.1,0,0.2-0.1,0.2-0.1c0.2-0.1,0.5-0.3,0.8-0.1c0.2,0.2,0,0.5,0,0.7c-0.7,2-1.4,4.1-2.1,6.1c-0.1,0.4-0.1,0.6,0.3,0.7
			c2.1,1,4.2,2.1,6.3,3.2c0.2,0.1,0.6,0.2,0.5,0.5c-0.1,0.4-0.4,0.5-0.7,0.5c-3.6,0.9-7.1,1.8-10.7,2.7c-1,0.2-2,0.5-3,0.8
			c-0.5,0.1-0.9,0.1-1.3-0.2c-0.5-0.4-1.1-0.8-1.6-1.2c-0.2-0.2-0.4-0.2-0.7-0.1c-5,1.9-10,3.7-15,5.6c-0.3,0.1-0.4,0.3-0.5,0.5
			c-0.7,1.6-2.3,2.5-3.9,2.4c-1.7-0.2-3.1-1.4-3.4-3.2C37.2,51.3,37.2,51,37.1,50.8z"/>
		<path class="st1" d="M48.9,44.3c-0.8,0.3-1.6,0.6-2.4,0.9c-0.3,0.1-0.4-0.1-0.6-0.2c-3-2.4-7.1-2.4-9.9,0.1
			c-2.5,2.2-3.3,5-2.4,8.2c1,3.1,3.2,5,6.5,5.4c3.9,0.5,7.4-2,8.4-5.8c0-0.2,0.1-0.4,0.3-0.4c0.9-0.3,1.7-0.6,2.6-1
			c0.1,3.4-2.6,8.6-8.5,9.8c-5,1-10.1-2-11.8-7c-1.7-5,0.7-10.4,5.4-12.7C41.1,39.4,46.4,41,48.9,44.3z"/>
	</g>
</g>
</svg>
