<?xml version="1.0" encoding="utf-8"?>
<!-- Generator: Adobe Illustrator 21.0.0, SVG Export Plug-In . SVG Version: 6.00 Build 0)  -->
<svg version="1.1" id="Layer_1" xmlns="http://www.w3.org/2000/svg" xmlns:xlink="http://www.w3.org/1999/xlink" x="0px" y="0px"
	 viewBox="0 0 100 100" style="enable-background:new 0 0 100 100;" xml:space="preserve">
<style type="text/css">
	.st0{fill:#ED8B00;}
	.st1{fill:#FFFFFF;}
</style>
<g>
	<path class="st0" d="M50,100L50,100C22.5,100,0,77.5,0,50v0C0,22.5,22.5,0,50,0h0c27.5,0,50,22.5,50,50v0C100,77.5,77.5,100,50,100
		z"/>
	<g>
		<path class="st1" d="M72.9,50.4c-0.5-0.8-1.1-1.5-1.6-2.2c-0.5-0.6-0.5-1.3-0.2-2c0.4-0.9,0.7-1.8,1.1-2.7c0.6-1.5,0-3.1-1.5-3.9
			c-0.8-0.4-1.6-0.8-2.4-1.2c-0.8-0.4-1.2-1-1.3-1.8c-0.1-0.9-0.2-1.7-0.2-2.6c-0.1-1.8-1.4-3-3.2-2.9c-0.9,0-1.8,0.1-2.7,0.1
			c-0.8,0-1.4-0.3-1.9-1c-0.5-0.7-0.9-1.5-1.4-2.2c-1-1.6-2.6-2-4.3-1c-0.8,0.4-1.6,0.9-2.3,1.3c-0.6,0.4-1.3,0.4-1.9,0
			c-0.8-0.4-1.6-0.9-2.4-1.3c-1.6-0.9-3.2-0.5-4.2,1c-0.5,0.8-1,1.5-1.5,2.3c-0.4,0.6-1,0.9-1.8,0.9c-0.5,0-1,0-1.5,0
			c0,0,0-0.1,0-0.1c-0.5,0-0.9,0-1.4,0c-1.7,0-3,1.2-3.1,2.9c-0.1,0.9-0.2,1.7-0.2,2.6c-0.1,0.9-0.5,1.5-1.3,1.8
			c-0.8,0.4-1.6,0.8-2.4,1.2c-1.4,0.7-2,2.3-1.4,3.8c0.3,0.9,0.7,1.7,1,2.6c0.3,0.8,0.2,1.5-0.3,2.2c-0.5,0.7-1,1.3-1.5,2
			c-1.1,1.5-0.9,3.1,0.5,4.3c0.7,0.6,1.3,1.1,2,1.7c0.7,0.6,0.9,1.3,0.8,2.1c-0.1,0.9-0.3,1.8-0.4,2.6c-0.2,1.7,0.7,3.1,2.4,3.4
			c0.8,0.2,1.7,0.4,2.5,0.5c0.9,0.2,1.4,0.6,1.7,1.5c0.3,0.8,0.5,1.6,0.8,2.4c0.6,1.8,2.1,2.6,3.9,2.1c0.8-0.2,1.7-0.5,2.5-0.7
			c0.8-0.2,1.4,0,2,0.5c0.7,0.6,1.3,1.2,1.9,1.8c1.3,1.2,3,1.2,4.3,0c0.7-0.6,1.3-1.3,2-1.9c0.6-0.5,1.2-0.7,1.9-0.5
			c0.9,0.3,1.8,0.5,2.8,0.8c1.5,0.4,3-0.4,3.6-1.8c0.3-0.9,0.6-1.8,0.9-2.7c0.3-0.8,0.8-1.3,1.7-1.5c0.8-0.2,1.7-0.4,2.5-0.5
			c1.7-0.4,2.6-1.7,2.4-3.4c-0.1-0.9-0.2-1.8-0.4-2.7c-0.1-0.9,0.1-1.6,0.8-2.1c0.7-0.6,1.4-1.2,2.1-1.8
			C73.7,53.4,73.9,51.7,72.9,50.4z M50,65.3c-8.5,0-15.3-6.8-15.3-15.3c0-8.4,6.9-15.3,15.3-15.3c8.4,0,15.3,6.8,15.3,15.3
			C65.3,58.4,58.4,65.3,50,65.3z"/>
		<path class="st1" d="M49.8,36.6c-7.2,0-13.3,6.1-13.3,13.4c0,7.4,6,13.4,13.3,13.4c7.5,0,13.5-6,13.5-13.5
			C63.4,42.5,57.4,36.6,49.8,36.6z M58.3,44.5c-0.6,0.9-1.3,1.9-2,2.8c-2.4,3.3-4.8,6.7-7.2,10c-0.1,0.1-0.2,0.3-0.3,0.4
			c-0.5,0.6-1,0.6-1.5,0c-1.3-1.6-2.5-3.2-3.8-4.8c-0.6-0.8-1.4-1.6-1.9-2.5c-0.1-0.2-0.3-0.5-0.3-0.8c0-0.3,0.1-0.5,0.2-0.7
			c1-1.4,1.7-1.5,3-0.4c1,0.9,2,1.8,3,2.7c0.3,0.3,0.5,0.3,0.7-0.1c2.4-2.8,4.8-5.5,7.2-8.3c0.1-0.1,0.2-0.3,0.3-0.4
			c0.5-0.5,0.8-0.6,1.4-0.1c0.2,0.2,0.5,0.4,0.7,0.5C58.6,43.5,58.7,43.8,58.3,44.5z"/>
	</g>
</g>
</svg>
