<?xml version="1.0" encoding="utf-8"?>
<!-- Generator: Adobe Illustrator 21.0.0, SVG Export Plug-In . SVG Version: 6.00 Build 0)  -->
<svg version="1.1" id="Layer_1" xmlns="http://www.w3.org/2000/svg" xmlns:xlink="http://www.w3.org/1999/xlink" x="0px" y="0px"
	 viewBox="0 0 100 100" style="enable-background:new 0 0 100 100;" xml:space="preserve">
<style type="text/css">
	.st0{fill:#FFB60F;}
	.st1{fill:#FFFFFF;}
</style>
<g>
	<path class="st0" d="M50,100L50,100C22.5,100,0,77.5,0,50v0C0,22.5,22.5,0,50,0h0c27.5,0,50,22.5,50,50v0C100,77.5,77.5,100,50,100
		z"/>
	<g>
		<path class="st1" d="M54.8,45.7c2.8,0,5.6,0,8.5,0c0.3,0,0.3-0.1,0.3-0.3c0-4.1,0-8.1,0-12.2c0-0.3-0.1-0.3-0.3-0.3
			c-5.6,0-11.3,0-16.9,0c-0.4,0-0.4,0-0.4,0.4c0,0.7,0,1.5,0,2.2c0,0.2-0.1,0.3-0.3,0.3c-0.4,0-0.8,0-1.2,0c-0.2,0-0.3-0.1-0.3-0.3
			c0-0.8,0-1.7,0-2.5c0-0.2,0-0.3-0.3-0.3c-0.3,0-0.6,0.1-0.9-0.1c-0.4-0.2-0.6-0.5-0.5-0.9c0.1-0.4,0.3-0.7,0.8-0.7
			c0.5,0,0.9,0,1.4,0c3,0.1,6,0.1,9,0.1c0.2,0,0.3-0.1,0.3-0.3c0-0.6,0-1.1,0-1.7c0-0.5,0.4-0.9,0.9-0.9c0.5,0,0.8,0.3,0.8,0.9
			c0,0.5,0,1.1,0,1.6c0,0.2,0.1,0.3,0.3,0.3c2.2,0,4.4,0,6.6,0c1.3,0,2.6,0,3.9,0c0.5,0,0.7,0.2,0.8,0.5c0.1,0.4-0.2,0.8-0.5,0.9
			c-0.3,0.1-0.6,0.1-0.9,0.1c-0.2,0-0.3,0.1-0.3,0.3c0,4.2,0,8.4,0,12.6c0,0.2,0.1,0.3,0.3,0.4c0.9,0.3,1.5,1.1,1.4,2
			c0,0.9-0.7,1.7-1.6,1.9c-0.1,0-0.2,0-0.3,0c-3.1,0-6.2,0-9.3,0c-0.4,0-0.4,0-0.4,0.4c0,0.7,0,1.5,0,2.2c0,0.3,0.1,0.5,0.3,0.6
			c1.1,1.1,2.3,2.3,3.4,3.4c0.1,0.1,0.2,0.2,0.3,0.4c0.2,0.4,0.2,0.7-0.1,1c-0.3,0.3-0.7,0.3-1.1,0.1c-0.1-0.1-0.2-0.1-0.2-0.2
			c-0.7-0.7-1.4-1.4-2.1-2.1c-0.1-0.1-0.2-0.1-0.2-0.2c0,0-0.1-0.1-0.1-0.1c-0.1,0,0,0.1,0,0.1c0,0.3,0,0.6,0,1
			c0,0.5-0.4,0.8-0.8,0.8c-0.4,0-0.8-0.3-0.9-0.8c0-0.3,0-0.7-0.1-1c0-0.1,0-0.2-0.1-0.2c-0.1,0-0.1,0.1-0.2,0.1
			c-0.8,0.8-1.5,1.6-2.3,2.4c-0.4,0.4-0.8,0.4-1.2,0.1c-0.4-0.3-0.4-0.8,0-1.3c0.7-0.7,1.4-1.4,2.2-2.1c0.5-0.5,0.9-0.9,1.4-1.4
			c0.2-0.2,0.3-0.4,0.3-0.7c0-0.8,0-1.6,0-2.4c0-0.2-0.1-0.3-0.3-0.3c-3,0-6,0-9,0c-0.8,0-1.5-0.3-1.9-1c-0.7-1-0.2-2.5,1-2.9
			c0.3-0.1,0.4-0.3,0.4-0.6c0-1.8,0-3.6,0-5.4c0-0.2,0.1-0.3,0.3-0.3c0.4,0,0.8,0,1.1-0.1c0.2,0,0.3,0,0.3,0.3c0,1.8,0,3.7,0,5.5
			c0,0.3,0.1,0.3,0.3,0.3C49.1,45.7,51.9,45.7,54.8,45.7z"/>
		<path class="st1" d="M38.5,38.9c0.1-0.3,0.1-0.7,0.2-1c0-0.3-0.2-0.5-0.3-0.7c-0.1-0.1-0.2-0.2-0.1-0.3c0.1-0.1,0.2-0.1,0.3-0.1
			c0.3,0,0.5,0,0.8,0c0.1,0,0.2,0,0.2,0.1c0,0.1,0,0.2-0.1,0.2c-0.1,0.1-0.1,0.1-0.2,0.2c-0.2,0.2-0.3,0.5-0.2,0.8
			c0,0.2,0.1,0.4,0.1,0.6c0,0,0,0.1,0.1,0.1c0.1,0,0.1,0,0.1-0.1c0.4-0.8,1.1-1.3,1.4-2.1c0.1-0.2,0.2-0.2,0.4-0.2c2,0,4.1,0,6.1,0
			c0.3,0,0.7,0,1,0c0.5,0,0.9,0.4,1,0.9c0.1,0.4-0.2,0.9-0.5,1.1c-0.2,0.1-0.4,0.1-0.6,0.1c-1.9,0.1-3.8,0.3-5.7,0.4
			c-0.1,0-0.2,0-0.2,0.2c-0.2,2.1-0.4,4.2-0.3,6.4c0.2,3.7,0.3,7.4,0.5,11.2c0,0.4,0,0.8-0.3,1.1c-0.3,0.3-0.7,0.5-1.2,0.4
			c-0.5-0.1-0.8-0.4-0.8-0.9c-0.3-1.8-0.5-3.6-0.8-5.4c-0.1-1-0.3-1.9-0.4-2.9c0-0.1,0-0.2-0.1-0.4c0,0.1,0,0.3-0.1,0.4
			c-0.3,2.4-0.7,4.9-1,7.3c0,0.3-0.1,0.7-0.2,1c-0.1,0.6-0.7,1-1.3,0.9c-0.6-0.1-1-0.5-1-1.2c0-1.3,0.1-2.6,0.2-4
			c0.1-2.8,0.2-5.5,0.4-8.3c0-0.3,0-0.7,0-1c0-0.1,0-0.3-0.1-0.4c-0.1,0.1-0.1,0.2-0.1,0.3c-0.3,1.3-0.6,2.7-0.9,4
			c-0.1,0.5-0.4,0.8-0.9,0.9c-0.4,0.1-0.8-0.1-1-0.4c-0.2-0.2-0.2-0.5-0.2-0.8c0.1-0.9,0.3-1.7,0.4-2.6c0.3-1.9,0.6-3.9,0.9-5.8
			c0.1-0.9,0.6-1.5,1.5-1.8c0.4-0.1,0.8-0.2,1.2-0.4c0.1,0,0.2,0,0.3,0.1c0.3,0.6,0.8,1,1.1,1.5C38.3,38.6,38.4,38.7,38.5,38.9
			C38.5,38.9,38.5,38.9,38.5,38.9z"/>
		<path class="st1" d="M62,71.7c-1,0-1.9,0-2.9-0.2c-0.5-0.1-0.8-0.3-0.9-0.8c-0.2-0.9-0.3-1.9-0.1-2.8c0.1-0.7,0.6-1,1.3-1.2
			c0.1,0,0.3-0.1,0.4-0.1c0.3-0.1,0.5,0,0.8,0.1c0.9,0.6,1.9,0.6,2.8,0c0.3-0.2,0.5-0.2,0.8-0.1c0.7,0.2,1.3,0.4,1.6,1.1
			c0,0.1,0.1,0.2,0.1,0.3c0.1,1,0.2,1.9-0.1,2.9c-0.1,0.4-0.4,0.6-0.8,0.7C64,71.6,63,71.7,62,71.7z"/>
		<path class="st1" d="M46.1,71.6c-1,0-1.9,0-2.9-0.2c-0.4-0.1-0.7-0.3-0.8-0.7c-0.3-1-0.3-2-0.1-3c0-0.3,0.2-0.5,0.4-0.7
			c0.5-0.4,1-0.6,1.7-0.7c0.1,0,0.2,0.1,0.3,0.1c1,0.7,2.1,0.7,3.1,0c0.1-0.1,0.2-0.1,0.3-0.1c0.5,0,1,0.2,1.4,0.5
			c0.1,0.1,0.2,0.1,0.1,0.3c-0.2,0.4-0.2,0.9-0.2,1.4c0,0.9,0,1.7,0.3,2.6c0.1,0.2,0,0.2-0.1,0.2c-0.6,0.2-1.2,0.2-1.9,0.2
			C47,71.7,46.5,71.6,46.1,71.6z"/>
		<path class="st1" d="M37.9,71.6c-1,0-1.9,0-2.9-0.1c-0.4-0.1-0.7-0.3-0.8-0.7c-0.3-1-0.3-2-0.1-3c0.1-0.6,0.7-0.9,1.2-1.1
			c0.1,0,0.2,0,0.2-0.1c0.3-0.1,0.6-0.1,1,0.1c0.9,0.6,1.9,0.5,2.8,0c0.3-0.2,0.5-0.2,0.8-0.1c0.4,0.1,0.7,0.2,1.1,0.4
			c0.1,0.1,0.2,0.1,0.1,0.2c-0.3,0.7-0.3,1.5-0.2,2.3c0,0.6,0.1,1.1,0.3,1.6c0.1,0.2,0,0.2-0.1,0.2c-0.6,0.2-1.1,0.2-1.7,0.2
			C39,71.7,38.5,71.6,37.9,71.6z"/>
		<path class="st1" d="M54.1,71.6c-1,0-1.9,0-2.9-0.2c-0.5-0.1-0.7-0.3-0.9-0.7c-0.3-1-0.3-2-0.1-3c0.2-0.6,0.7-0.9,1.3-1.1
			c0.1,0,0.2-0.1,0.4-0.1c0.3-0.1,0.5,0,0.8,0.1c0.9,0.5,1.8,0.6,2.7,0.1c0.5-0.3,0.9-0.2,1.4-0.1c0.1,0,0.2,0.1,0.3,0.1
			c0.5,0.2,0.5,0.2,0.4,0.8c-0.3,1.2-0.2,2.4,0.1,3.5c0.1,0.2,0,0.3-0.2,0.4c-0.6,0.1-1.2,0.2-1.8,0.2
			C55.1,71.7,54.6,71.6,54.1,71.6z"/>
		<path class="st1" d="M40.7,63.7c0,1.5-1.2,2.7-2.7,2.7c-1.5,0-2.7-1.2-2.7-2.7c0-1.5,1.2-2.7,2.7-2.7C39.5,61,40.7,62.2,40.7,63.7
			z"/>
		<path class="st1" d="M48.8,63.7c0,1.5-1.2,2.7-2.7,2.7c-1.5,0-2.7-1.2-2.7-2.6c0-1.5,1.1-2.7,2.6-2.8C47.5,61,48.7,62.1,48.8,63.7
			z"/>
		<path class="st1" d="M54.2,66.4c-1.5,0-2.7-1.2-2.7-2.7c0-1.5,1.2-2.7,2.7-2.7c1.5,0,2.7,1.2,2.7,2.7
			C56.9,65.2,55.7,66.4,54.2,66.4z"/>
		<path class="st1" d="M62,66.4c-1.5,0-2.7-1.2-2.7-2.7c0-1.5,1.2-2.7,2.7-2.7c1.5,0,2.7,1.2,2.7,2.8C64.7,65.2,63.5,66.4,62,66.4z"
			/>
		<path class="st1" d="M41.2,33.6c0,1.3-1,2.4-2.4,2.4c-1.4,0-2.4-1-2.4-2.4c0-1.4,1-2.4,2.4-2.4C40.2,31.1,41.2,32.2,41.2,33.6z"/>
	</g>
</g>
</svg>
