<?xml version="1.0" encoding="utf-8"?>
<!-- Generator: Adobe Illustrator 21.0.0, SVG Export Plug-In . SVG Version: 6.00 Build 0)  -->
<svg version="1.1" id="Layer_1" xmlns="http://www.w3.org/2000/svg" xmlns:xlink="http://www.w3.org/1999/xlink" x="0px" y="0px"
	 viewBox="0 0 100 100" style="enable-background:new 0 0 100 100;" xml:space="preserve">
<style type="text/css">
	.st0{fill:#001871;}
	.st1{fill:#FFFFFF;}
	.st2{fill:none;}
</style>
<g>
	<g>
		<g>
			<path class="st0" d="M50,0L50,0C22.5,0,0,22.5,0,50v0c0,27.5,22.5,50,50,50h0c27.5,0,50-22.5,50-50v0C100,22.5,77.5,0,50,0z"/>
		</g>
	</g>
	<g>
		<g>
			
				<rect x="34.4" y="47.2" transform="matrix(-1 -4.487134e-11 4.487134e-11 -1 72.1184 102.6981)" class="st1" width="3.3" height="8.2"/>
			<polygon class="st1" points="39.6,48.1 36.1,44.5 32.5,48.1 			"/>
		</g>
		<g>
			<path class="st2" d="M61.5,50c0.1-0.2,0.1-0.3,0-0.5c-1-1.9-2-3.9-3-5.8c0-0.1-0.1-0.2-0.1-0.3c0.8,0.1,1.6,0.1,2.5,0.2
				c0.2,0,0.3,0.1,0.4,0.3c0.6,1.5,1.4,2.9,1.9,4.5c0.5-1.5,1.1-2.9,1.7-4.3c0.1-0.2,0.2-0.2,0.3-0.2c0.5,0,1,0.1,1.5,0.1
				c0.3,0,0.6,0,0.9,0.1c0,0.1-0.1,0.2-0.1,0.3c-0.9,1.7-1.7,3.5-2.6,5.2c-0.1,0.2-0.1,0.3,0,0.5c0.9,1.7,1.9,3.5,2.8,5.3
				c0.1,0.2,0.1,0.3-0.2,0.3c-0.7,0-1.3,0.1-2,0.1c-0.2,0-0.3-0.1-0.4-0.3c-0.6-1.4-1.4-2.8-1.9-4.3c-0.1,0.3-0.1,0.6-0.3,0.8
				c-0.6,1.3-1.1,2.5-1.7,3.8c-0.1,0.2-0.2,0.2-0.4,0.2c-0.7,0-1.4,0.1-2.2,0.1c-0.2,0-0.3,0-0.5,0c0.1-0.1,0.1-0.2,0.2-0.3
				C59.4,53.9,60.4,51.9,61.5,50z"/>
			<path class="st2" d="M39,60.4c0,0.2,0.1,0.2,0.3,0.2c0.9,0,1.8,0,2.8,0c0.9,0,1.8,0,2.7,0c0.2,0,0.3-0.1,0.3-0.3
				c0-0.9,0-1.9,0-2.8c0-0.2-0.1-0.3-0.3-0.3c-0.9,0-1.8,0-2.7,0c0.4-0.3,0.8-0.7,1.2-1.1c0.5,0,1,0,1.5,0c0.2,0,0.3-0.1,0.3-0.3
				c0-0.9,0-1.8,0-2.8l0,0c0.3-1,0.5-2,0.5-3.1c0-1.1-0.2-2.1-0.5-3.1c0,0,0-0.1,0-0.1c0-0.9,0-1.9,0-2.8c0-0.2-0.1-0.2-0.3-0.2
				c-0.6,0-1.1,0-1.7,0c-0.4-0.4-0.9-0.8-1.3-1.2c1,0,2,0,3,0c0.2,0,0.2-0.1,0.2-0.2c0-0.9,0-1.9,0-2.8c0-0.2-0.1-0.2-0.3-0.2
				c-0.9,0-1.8,0-2.8,0c-0.9,0-1.8,0-2.7,0c-0.2,0-0.3,0.1-0.3,0.3c0,0.6,0,1.1,0,1.7c-0.8-0.2-1.6-0.4-2.4-0.4c0-1.2,0-2.3,0-3.5
				c0-0.2,0-0.3,0.3-0.3c1.8,0,3.7,0,5.5,0c2.9,0,5.9,0,8.8,0c0.3,0,0.3,0.1,0.3,0.3c0,0.6,0,1.1,0,1.7c0,0.3-0.1,0.3-0.3,0.3
				c-1.5,0-3,0-4.6,0c-0.3,0-0.4,0.1-0.4,0.4c0,0.9,0,1.8,0,2.6c0,0.2,0.1,0.3,0.3,0.3c1.5,0,3,0,4.5,0c0.5,0,0.4-0.1,0.4,0.4
				c0,0.1,0,0.3,0,0.4c0,0.3,0,0.3-0.3,0.3c-1.5,0-3,0-4.6,0c-0.3,0-0.4,0-0.4,0.4c0,0.8,0,1.5,0,2.3c0,0.7,0,0.7,0.7,0.7
				c1.4,0,2.9,0,4.3,0c0.2,0,0.3,0.1,0.3,0.3c0,0.2,0,0.5,0,0.7c0,0.2-0.1,0.3-0.3,0.3c-1.6,0-3.1,0-4.7,0c-0.2,0-0.3,0-0.3,0.3
				c0,0.9,0,1.8,0,2.8c0,0.2,0.1,0.3,0.3,0.3c1.4,0,2.7,0,4.1,0c0.3,0,0.7-0.1,0.9,0.1c0.2,0.2,0,0.6,0.1,0.9c0,0.2-0.1,0.3-0.3,0.3
				c-1.6,0-3.1,0-4.7,0c-0.2,0-0.3,0.1-0.3,0.3c0,0.9,0,1.8,0,2.7c0,0.3,0.1,0.3,0.3,0.3c1.4,0,2.8,0,4.1,0c0.3,0,0.6-0.1,0.8,0.1
				c0.2,0.2,0,0.5,0.1,0.8c0,0.3-0.1,0.3-0.3,0.3c-1.5,0-3.1,0-4.6,0c-0.2,0-0.3,0.1-0.3,0.3c0,0.9,0,1.8,0,2.7
				c0,0.3,0.1,0.3,0.3,0.3c1.5,0,3.1,0,4.6,0c0.3,0,0.3,0.1,0.3,0.3c0,0.6,0,1.1,0,1.7c0,0.3-0.1,0.3-0.3,0.3c-4.8,0-9.6,0-14.3,0
				c-0.3,0-0.3-0.1-0.3-0.3c0-1.1,0-2.1,0-3.2c0.8,0,1.6-0.2,2.4-0.4C39,59.5,39,60,39,60.4z"/>
			<path class="st2" d="M36.6,42.5c1.5,0.1,2.8,0.6,4,1.4c-0.4,0-0.9,0-1.3,0c-0.2,0-0.3,0.1-0.3,0.3c0,0.9,0,1.9,0,2.8
				c0,0.2,0.1,0.3,0.3,0.3c0.9,0,1.8,0,2.7,0c0.4,0,0.9,0,1.3,0c0.2,0.4,0.3,0.8,0.4,1.3c-1.5,0-3,0-4.5,0c-0.2,0-0.2,0-0.2,0.2
				c0,0.9,0,1.9,0,2.8c0,0.2,0.1,0.2,0.3,0.2c0.9,0,1.8,0,2.7,0c0.6,0,1.2,0,1.7,0c-0.1,0.4-0.2,0.8-0.4,1.2c-0.5,0-0.9,0-1.4,0
				c-0.9,0-1.8,0-2.7,0C39,53,39,53,39,53.3c0,0.9,0,1.8,0,2.7c0,0.2,0,0.3,0.3,0.3c0.5,0,1.1,0,1.6,0c-1.2,0.9-2.7,1.5-4.3,1.6
				c0-2.6,0-5.2,0-7.8C36.6,47.5,36.6,45,36.6,42.5z"/>
			<path class="st2" d="M28.5,50.2c0-3.9,2.9-7.1,6.6-7.6c0,5.1,0,10.1,0,15.2C31.3,57.2,28.5,54,28.5,50.2z"/>
			<path class="st1" d="M36.2,59.5c-0.4,0-0.8,0-1.1-0.1c0,1.1,0,2.1,0,3.2c0,0.8,0.3,1.4,1.1,1.8c0.3,0.1,0.6,0.1,0.9,0.1
				c4.7,0,9.4,0,14.1,0c0.4,0,0.4,0,0.4,0.4c0,0.9,0,1.9,0,2.8c0,0.4,0,0.4,0.4,0.3c1.9-0.4,3.8-0.7,5.6-1.1
				c5.1-1,10.1-1.9,15.2-2.9c0.3-0.1,0.4-0.2,0.4-0.5c0-9.1,0-18.2,0-27.3c0-0.3-0.1-0.4-0.4-0.5c-5.5-1-11-2.1-16.5-3.1
				c-1.4-0.3-2.8-0.5-4.3-0.8c-0.1,0-0.2-0.1-0.4-0.1c0,0-0.1,0-0.1,0c0,1.1,0,2.2,0,3.3c0,0.3-0.1,0.4-0.4,0.4c-4.7,0-9.4,0-14.2,0
				c-0.6,0-1.1,0.1-1.5,0.6c-0.3,0.3-0.4,0.7-0.5,1.1c0,0.1,0,0.1,0,0.2c0,1.2,0,2.3,0,3.4c0.4,0,0.7-0.1,1.1-0.1c0.1,0,0.3,0,0.4,0
				c0-1.2,0-2.3,0-3.5c0-0.2,0-0.3,0.3-0.3c1.8,0,3.7,0,5.5,0c2.9,0,5.9,0,8.8,0c0.3,0,0.3,0.1,0.3,0.3c0,0.6,0,1.1,0,1.7
				c0,0.3-0.1,0.3-0.3,0.3c-1.5,0-3,0-4.6,0c-0.3,0-0.4,0.1-0.4,0.4c0,0.9,0,1.8,0,2.6c0,0.2,0.1,0.3,0.3,0.3c1.5,0,3,0,4.5,0
				c0.5,0,0.4-0.1,0.4,0.4c0,0.1,0,0.3,0,0.4c0,0.3,0,0.3-0.3,0.3c-1.5,0-3,0-4.6,0c-0.3,0-0.4,0-0.4,0.4c0,0.8,0,1.5,0,2.3
				c0,0.7,0,0.7,0.7,0.7c1.4,0,2.9,0,4.3,0c0.2,0,0.3,0.1,0.3,0.3c0,0.2,0,0.5,0,0.7c0,0.2-0.1,0.3-0.3,0.3c-1.6,0-3.1,0-4.7,0
				c-0.2,0-0.3,0-0.3,0.3c0,0.9,0,1.8,0,2.8c0,0.2,0.1,0.3,0.3,0.3c1.4,0,2.7,0,4.1,0c0.3,0,0.7-0.1,0.9,0.1c0.2,0.2,0,0.6,0.1,0.9
				c0,0.2-0.1,0.3-0.3,0.3c-1.6,0-3.1,0-4.7,0c-0.2,0-0.3,0.1-0.3,0.3c0,0.9,0,1.8,0,2.7c0,0.3,0.1,0.3,0.3,0.3c1.4,0,2.8,0,4.1,0
				c0.3,0,0.6-0.1,0.8,0.1c0.2,0.2,0,0.5,0.1,0.8c0,0.3-0.1,0.3-0.3,0.3c-1.5,0-3.1,0-4.6,0c-0.2,0-0.3,0.1-0.3,0.3
				c0,0.9,0,1.8,0,2.7c0,0.3,0.1,0.3,0.3,0.3c1.5,0,3.1,0,4.6,0c0.3,0,0.3,0.1,0.3,0.3c0,0.6,0,1.1,0,1.7c0,0.3-0.1,0.3-0.3,0.3
				c-4.8,0-9.6,0-14.3,0c-0.3,0-0.3-0.1-0.3-0.3c0-1.1,0-2.1,0-3.2C36.4,59.5,36.3,59.5,36.2,59.5z M58.2,56.2
				c0.1-0.1,0.1-0.2,0.2-0.3c1-2,2.1-3.9,3.1-5.9c0.1-0.2,0.1-0.3,0-0.5c-1-1.9-2-3.9-3-5.8c0-0.1-0.1-0.2-0.1-0.3
				c0.8,0.1,1.6,0.1,2.5,0.2c0.2,0,0.3,0.1,0.4,0.3c0.6,1.5,1.4,2.9,1.9,4.5c0.5-1.5,1.1-2.9,1.7-4.3c0.1-0.2,0.2-0.2,0.3-0.2
				c0.5,0,1,0.1,1.5,0.1c0.3,0,0.6,0,0.9,0.1c0,0.1-0.1,0.2-0.1,0.3c-0.9,1.7-1.7,3.5-2.6,5.2c-0.1,0.2-0.1,0.3,0,0.5
				c0.9,1.7,1.9,3.5,2.8,5.3c0.1,0.2,0.1,0.3-0.2,0.3c-0.7,0-1.3,0.1-2,0.1c-0.2,0-0.3-0.1-0.4-0.3c-0.6-1.4-1.4-2.8-1.9-4.3
				c-0.1,0.3-0.1,0.6-0.3,0.8c-0.6,1.3-1.1,2.5-1.7,3.8c-0.1,0.2-0.2,0.2-0.4,0.2c-0.7,0-1.4,0.1-2.2,0.1
				C58.6,56.2,58.4,56.2,58.2,56.2z"/>
			<path class="st1" d="M39,39.6c0-0.2,0.1-0.3,0.3-0.3c0.9,0,1.8,0,2.7,0c0.9,0,1.8,0,2.8,0c0.2,0,0.3,0,0.3,0.2c0,0.9,0,1.9,0,2.8
				c0,0.2-0.1,0.3-0.2,0.2c-1,0-2,0-3,0c-0.8-0.6-1.7-1.1-2.7-1.4C39,40.7,39,40.2,39,39.6z"/>
			<path class="st1" d="M45,57.6c0,0.9,0,1.9,0,2.8c0,0.2-0.1,0.3-0.3,0.3c-0.9,0-1.8,0-2.7,0c-0.9,0-1.8,0-2.8,0
				c-0.2,0-0.3,0-0.3-0.2c0-0.5,0-0.9,0-1.4c1.1-0.4,2.2-0.9,3.1-1.7c0.9,0,1.8,0,2.7,0C44.9,57.4,45,57.4,45,57.6z"/>
			<path class="st1" d="M44.7,43.9c0.2,0,0.3,0,0.3,0.2c0,0.9,0,1.9,0,2.8c0,0.1,0,0.1,0,0.1c-0.4-1.2-1.1-2.3-1.9-3.2
				C43.6,43.8,44.2,43.9,44.7,43.9z"/>
			<path class="st1" d="M45,53.2c0,0.9,0,1.8,0,2.8c0,0.2-0.1,0.3-0.3,0.3c-0.5,0-1,0-1.5,0C44,55.4,44.6,54.3,45,53.2
				C45,53.2,45,53.2,45,53.2z"/>
			<path class="st1" d="M43.2,56.3c-0.4,0.4-0.7,0.8-1.2,1.1c-0.9,0-1.9,0-2.8,0c-0.2,0-0.3,0-0.3,0.2c0,0.5,0,0.9,0,1.4
				c-0.8,0.2-1.6,0.4-2.4,0.4c0-0.5,0-1.1,0-1.6c1.6-0.1,3.1-0.7,4.3-1.6C41.6,56.3,42.4,56.3,43.2,56.3z"/>
			<path class="st1" d="M26.9,50.2c0-4.8,3.6-8.7,8.2-9.3c0,0.5,0,1.1,0,1.6c-3.7,0.5-6.6,3.7-6.6,7.6c0,3.9,2.9,7.1,6.6,7.6
				c0,0.5,0,1.1,0,1.6C30.4,58.9,26.9,54.9,26.9,50.2z"/>
			<path class="st1" d="M44.7,47.2c0.1,0,0.2,0,0.2-0.1c0.3,1,0.5,2,0.5,3.1c0,1.1-0.2,2.1-0.5,3.1c0-0.2-0.1-0.3-0.3-0.3
				c-0.5,0-0.9,0-1.4,0c0.2-0.4,0.3-0.8,0.4-1.2c0.3,0,0.7,0,1,0c0.2,0,0.3,0,0.3-0.2c0-0.9,0-1.9,0-2.8c0-0.2-0.1-0.2-0.2-0.2
				c-0.4,0-0.7,0-1.1,0c-0.1-0.4-0.2-0.9-0.4-1.3C43.7,47.2,44.2,47.2,44.7,47.2z"/>
			<path class="st1" d="M39,42.4c0,0.2,0.1,0.3,0.3,0.3c0.8,0,1.6,0,2.5,0c0.5,0.4,0.9,0.8,1.3,1.2c-0.8,0-1.6,0-2.5,0
				c-1.1-0.8-2.5-1.3-4-1.4c0-0.5,0-1.1,0-1.6c0.8,0,1.6,0.2,2.4,0.4C39,41.6,39,42,39,42.4z"/>
			<path class="st1" d="M36.2,57.8c0.1,0,0.3,0,0.4,0c0,0.5,0,1.1,0,1.6c-0.1,0-0.3,0-0.4,0c-0.4,0-0.8,0-1.1-0.1c0-0.5,0-1.1,0-1.6
				C35.4,57.8,35.8,57.8,36.2,57.8z"/>
			<path class="st1" d="M36.6,40.8c0,0.5,0,1.1,0,1.6c-0.1,0-0.3,0-0.4,0c-0.4,0-0.8,0-1.1,0.1c0-0.5,0-1.1,0-1.6
				c0.4,0,0.7-0.1,1.1-0.1C36.3,40.8,36.4,40.8,36.6,40.8z"/>
			<path class="st1" d="M39,42.4c0-0.4,0-0.8,0-1.1c1,0.3,1.9,0.8,2.7,1.4c-0.8,0-1.6,0-2.5,0C39,42.7,39,42.6,39,42.4z"/>
			<path class="st1" d="M39,57.6c0-0.2,0.1-0.2,0.3-0.2c0.9,0,1.9,0,2.8,0c-0.9,0.7-1.9,1.3-3.1,1.7C39,58.6,39,58.1,39,57.6z"/>
			<path class="st1" d="M45,47c0,0.1-0.1,0.1-0.2,0.1c-0.5,0-1,0-1.5,0c-0.6-1.3-1.5-2.5-2.7-3.3c0.8,0,1.6,0,2.5,0
				C43.9,44.8,44.5,45.8,45,47z"/>
			<path class="st1" d="M45,48.7c0,0.9,0,1.9,0,2.8c0,0.2-0.1,0.2-0.3,0.2c-0.3,0-0.7,0-1,0c0.1-0.5,0.2-1,0.2-1.6
				c0-0.6-0.1-1.2-0.2-1.7c0.4,0,0.7,0,1.1,0C44.9,48.4,45,48.5,45,48.7z"/>
			<path class="st1" d="M44.7,53c0.2,0,0.3,0,0.3,0.3c-0.4,1.1-1,2.2-1.8,3c-0.8,0-1.6,0-2.4,0c1.1-0.8,2-2,2.5-3.3
				C43.8,53,44.2,53,44.7,53z"/>
		</g>
	</g>
</g>
</svg>
