<?xml version="1.0" encoding="utf-8"?>
<!-- Generator: Adobe Illustrator 21.0.0, SVG Export Plug-In . SVG Version: 6.00 Build 0)  -->
<svg version="1.1" id="Layer_1" xmlns="http://www.w3.org/2000/svg" xmlns:xlink="http://www.w3.org/1999/xlink" x="0px" y="0px"
	 viewBox="0 0 100 100" style="enable-background:new 0 0 100 100;" xml:space="preserve">
<style type="text/css">
	.st0{fill:#ED8B00;}
	.st1{fill:#FFFFFF;}
</style>
<g>
	<circle class="st0" cx="50" cy="50" r="50"/>
	<g>
		<g>
			<g>
				<path class="st1" d="M33.4,50c0-5.5,0-11,0-16.4c0-2.1,1.2-3.7,3.2-4.2c0.4-0.1,0.8-0.1,1.2-0.1c5.3,0,10.7,0,16,0
					c0.2,0,0.5,0.1,0.6,0.3c1.9,1.9,3.9,3.9,5.8,5.8c2.1,2,4.1,4.1,6.2,6.1c0.2,0.2,0.3,0.4,0.3,0.7c0,8.1,0,16.2,0,24.3
					c0,2.6-1.8,4.4-4.4,4.4c-8.2,0-16.3,0-24.5,0c-2.6,0-4.4-1.8-4.4-4.4C33.4,60.9,33.4,55.4,33.4,50z M45.8,60.7
					c0.7-0.6,1.3-1.1,1.9-1.7c2-2.2,2.6-4.7,1.6-7.6c-0.7-2-2.6-3.1-4.6-2.6c-1.4,0.4-2.3,1.4-2.7,2.7c-0.6,1.5-0.6,3.1-0.5,4.8
					c0.1,0.9,0.2,1.8,0.3,2.8c-0.7,0.1-1.5,0.2-2.2,0.4c0,1,0,2,0,3c1.1,0,2.1-0.1,3-0.4c0.3-0.1,0.4,0,0.6,0.2
					c0.7,1,1.7,1.7,2.9,1.7c2.4,0.1,4.4-0.7,5.9-2.5c0.3-0.3,0.5-0.7,0.8-1.1c0.1,0.1,0.1,0.2,0.1,0.3c0.6,1.5,2.2,2,3.6,1
					c0.4-0.3,0.8-0.8,1.2-1.2c0.7-0.8,1.3-1.6,2.5-1.7c0-1,0-2.1,0-3.1c-0.9,0-1.8,0.2-2.5,0.7c-0.7,0.5-1.4,1.1-2,1.6
					c-0.1-0.3-0.2-0.6-0.3-1c-0.6-1.5-2.3-1.9-3.5-0.9c-0.3,0.3-0.6,0.7-0.9,1.1c-0.4,0.6-0.7,1.2-1.1,1.7c-0.8,1.3-2,1.9-3.5,1.9
					C46.3,60.9,46.1,60.7,45.8,60.7z M63.5,43.8c-3.8-3.8-7.6-7.6-11.4-11.3c0,3.8,0,7.6,0,11.3C55.9,43.8,59.6,43.8,63.5,43.8z"/>
				<path class="st1" d="M44.7,57.4c-0.2-1.6-0.3-3.3,0.2-4.9c0.1-0.4,0.2-0.8,0.7-0.8c0.4,0,0.7,0.3,0.8,0.8
					C47,54.3,46.2,56.6,44.7,57.4z"/>
			</g>
		</g>
	</g>
</g>
</svg>
