<?xml version="1.0" encoding="utf-8"?>
<!-- Generator: Adobe Illustrator 21.0.0, SVG Export Plug-In . SVG Version: 6.00 Build 0)  -->
<svg version="1.1" id="Layer_1" xmlns="http://www.w3.org/2000/svg" xmlns:xlink="http://www.w3.org/1999/xlink" x="0px" y="0px"
	 viewBox="0 0 100 100" style="enable-background:new 0 0 100 100;" xml:space="preserve">
<style type="text/css">
	.st0{fill:#001871;}
	.st1{fill:#FFFFFF;}
	.st2{fill:none;}
</style>
<g>
	<g>
		<g>
			<g>
				<path class="st0" d="M0,50L0,50C0,22.5,22.5,0,50,0l0,0c27.5,0,50,22.5,50,50l0,0c0,27.5-22.5,50-50,50l0,0
					C22.5,100,0,77.5,0,50z"/>
			</g>
		</g>
		<g>
			<g>
				<rect x="34.4" y="47.5" class="st1" width="3.3" height="8.2"/>
				<polygon class="st1" points="32.5,48.4 36.1,44.8 39.6,48.4 				"/>
			</g>
			<g>
				<path class="st2" d="M58.3,56.1c-0.1,0.1-0.1,0.2-0.2,0.3c0.2,0,0.3,0,0.5,0c0.8,0,1.5-0.1,2.2-0.1c0.2,0,0.3,0,0.4-0.2
					c0.6-1.3,1.1-2.5,1.7-3.8c0.2-0.2,0.2-0.5,0.3-0.8c0.5,1.5,1.3,2.9,1.9,4.3c0.1,0.2,0.2,0.3,0.4,0.3c0.7,0,1.3-0.1,2-0.1
					c0.3,0,0.3-0.1,0.2-0.3c-0.9-1.8-1.9-3.6-2.8-5.3c-0.1-0.2-0.1-0.3,0-0.5c0.9-1.7,1.7-3.5,2.6-5.2c0-0.1,0.1-0.2,0.1-0.3
					c-0.3-0.1-0.6-0.1-0.9-0.1c-0.5,0-1-0.1-1.5-0.1c-0.1,0-0.2,0-0.3,0.2c-0.6,1.4-1.2,2.8-1.7,4.3c-0.5-1.6-1.3-3-1.9-4.5
					c-0.1-0.2-0.2-0.3-0.4-0.3c-0.9-0.1-1.7-0.1-2.5-0.2c0,0.1,0.1,0.2,0.1,0.3c1,1.9,2,3.9,3,5.8c0.1,0.2,0.1,0.3,0,0.5
					C60.4,52.2,59.4,54.2,58.3,56.1z"/>
				<path class="st2" d="M38.8,59.8c-0.8,0.2-1.6,0.4-2.4,0.4c0,1.1,0,2.1,0,3.2c0,0.2,0,0.3,0.3,0.3c4.7,0,9.5,0,14.3,0
					c0.2,0,0.3,0,0.3-0.3c0-0.6,0-1.1,0-1.7c0-0.2,0-0.3-0.3-0.3c-1.5,0-3.1,0-4.6,0c-0.2,0-0.3,0-0.3-0.3c0-0.9,0-1.8,0-2.7
					c0-0.2,0.1-0.3,0.3-0.3c1.5,0,3.1,0,4.6,0c0.2,0,0.3,0,0.3-0.3c-0.1-0.3,0.1-0.6-0.1-0.8c-0.2-0.2-0.5-0.1-0.8-0.1
					c-1.3,0-2.7,0-4.1,0c-0.2,0-0.3,0-0.3-0.3c0-0.9,0-1.8,0-2.7c0-0.2,0.1-0.3,0.3-0.3c1.6,0,3.1,0,4.7,0c0.2,0,0.3-0.1,0.3-0.3
					c-0.1-0.3,0.1-0.7-0.1-0.9c-0.2-0.2-0.6-0.1-0.9-0.1c-1.4,0-2.7,0-4.1,0c-0.2,0-0.3-0.1-0.3-0.3c0-1,0-1.9,0-2.8
					c0-0.3,0.1-0.3,0.3-0.3c1.6,0,3.1,0,4.7,0c0.2,0,0.3-0.1,0.3-0.3s0-0.5,0-0.7s-0.1-0.3-0.3-0.3c-1.4,0-2.9,0-4.3,0
					c-0.7,0-0.7,0-0.7-0.7c0-0.8,0-1.5,0-2.3c0-0.4,0.1-0.4,0.4-0.4c1.6,0,3.1,0,4.6,0c0.3,0,0.3,0,0.3-0.3c0-0.1,0-0.3,0-0.4
					c0-0.5,0.1-0.4-0.4-0.4c-1.5,0-3,0-4.5,0c-0.2,0-0.3-0.1-0.3-0.3c0-0.8,0-1.7,0-2.6c0-0.3,0.1-0.4,0.4-0.4c1.6,0,3.1,0,4.6,0
					c0.2,0,0.3,0,0.3-0.3c0-0.6,0-1.1,0-1.7c0-0.2,0-0.3-0.3-0.3c-2.9,0-5.9,0-8.8,0c-1.8,0-3.7,0-5.5,0c-0.3,0-0.3,0.1-0.3,0.3
					c0,1.2,0,2.3,0,3.5c0.8,0,1.6,0.2,2.4,0.4c0-0.6,0-1.1,0-1.7c0-0.2,0.1-0.3,0.3-0.3c0.9,0,1.8,0,2.7,0c1,0,1.9,0,2.8,0
					c0.2,0,0.3,0,0.3,0.2c0,0.9,0,1.9,0,2.8c0,0.1,0,0.2-0.2,0.2c-1,0-2,0-3,0c0.4,0.4,0.9,0.8,1.3,1.2c0.6,0,1.1,0,1.7,0
					c0.2,0,0.3,0,0.3,0.2c0,0.9,0,1.9,0,2.8v0.1c0.3,1,0.5,2,0.5,3.1s-0.2,2.1-0.5,3.1l0,0c0,1,0,1.9,0,2.8c0,0.2-0.1,0.3-0.3,0.3
					c-0.5,0-1,0-1.5,0c-0.4,0.4-0.8,0.8-1.2,1.1c0.9,0,1.8,0,2.7,0c0.2,0,0.3,0.1,0.3,0.3c0,0.9,0,1.9,0,2.8c0,0.2-0.1,0.3-0.3,0.3
					c-0.9,0-1.8,0-2.7,0c-1,0-1.9,0-2.8,0C39,61,39,61,39,60.8C39,60.3,39,59.8,38.8,59.8z"/>
				<path class="st2" d="M36.5,50.4c0,2.6,0,5.2,0,7.8c1.6-0.1,3.1-0.7,4.3-1.6c-0.5,0-1.1,0-1.6,0c-0.3,0-0.3-0.1-0.3-0.3
					c0-0.9,0-1.8,0-2.7c0-0.2,0.1-0.3,0.3-0.3c0.9,0,1.8,0,2.7,0c0.5,0,0.9,0,1.4,0c0.2-0.4,0.3-0.8,0.4-1.2c-0.5,0-1.1,0-1.7,0
					c-0.9,0-1.8,0-2.7,0c-0.2,0-0.3,0-0.3-0.2c0-0.9,0-1.9,0-2.8c0-0.2,0-0.2,0.2-0.2c1.5,0,3,0,4.5,0c-0.1-0.5-0.2-0.9-0.4-1.3
					c-0.4,0-0.9,0-1.3,0c-0.9,0-1.8,0-2.7,0c-0.2,0-0.3-0.1-0.3-0.3c0-0.9,0-1.9,0-2.8c0-0.2,0.1-0.3,0.3-0.3c0.4,0,0.9,0,1.3,0
					c-1.2-0.8-2.5-1.3-4-1.4C36.6,45.3,36.6,47.8,36.5,50.4z"/>
				<path class="st2" d="M35.1,58.1c0-5.1,0-10.1,0-15.2c-3.7,0.5-6.6,3.7-6.6,7.6C28.5,54.3,31.3,57.5,35.1,58.1z"/>
				<path class="st1" d="M36.4,59.8c-0.4,0-0.7-0.1-1.1-0.1c0,1.1,0,2.1,0,3.2c0,0.9,0.4,1.4,1.1,1.8c0.3,0.1,0.6,0.1,0.9,0.1
					c4.7,0,9.4,0,14.1,0c0.4,0,0.4,0,0.4,0.4c0,0.9,0,1.9,0,2.8c0,0.4,0,0.4,0.4,0.3c1.8-0.4,3.7-0.7,5.6-1.1c5.1-1,10.1-2,15.2-2.9
					c0.3-0.1,0.4-0.2,0.4-0.5c0-9.1,0-18.2,0-27.3c0-0.3-0.1-0.4-0.4-0.5c-5.5-1-11-2.1-16.5-3.1c-1.5-0.3-2.9-0.5-4.3-0.8
					c-0.2,0-0.3-0.1-0.4-0.1h-0.1c0,1.1,0,2.2,0,3.3c0,0.3-0.1,0.4-0.4,0.4c-4.8,0-9.5,0-14.2,0c-0.6,0-1.1,0.2-1.5,0.6
					c-0.3,0.3-0.5,0.7-0.5,1.1c0,0.1,0,0.1,0,0.2c0,1.1,0,2.2,0,3.4c0.3-0.1,0.7-0.1,1.1-0.1c0.1,0,0.3,0,0.4,0c0-1.2,0-2.3,0-3.5
					c0-0.2,0-0.3,0.3-0.3c1.8,0,3.7,0,5.5,0c2.9,0,5.9,0,8.8,0c0.2,0,0.3,0,0.3,0.3c0,0.6,0,1.1,0,1.7c0,0.2,0,0.3-0.3,0.3
					c-1.6,0-3.1,0-4.6,0c-0.3,0-0.4,0.1-0.4,0.4c0,0.8,0,1.7,0,2.6c0,0.2,0.1,0.3,0.3,0.3c1.5,0,3,0,4.5,0c0.5,0,0.4-0.1,0.4,0.4
					c0,0.1,0,0.3,0,0.4c0.1,0.2,0,0.3-0.3,0.3c-1.6,0-3.1,0-4.6,0c-0.3,0-0.4,0.1-0.4,0.4c0,0.8,0,1.5,0,2.3c0,0.7,0,0.7,0.7,0.7
					c1.4,0,2.9,0,4.3,0c0.2,0,0.3,0.1,0.3,0.3s0,0.5,0,0.7s-0.1,0.3-0.3,0.3c-1.6,0-3.1,0-4.7,0c-0.2,0-0.3,0.1-0.3,0.3
					c0,1,0,1.9,0,2.8c0,0.3,0.1,0.3,0.3,0.3c1.4,0,2.7,0,4.1,0c0.3,0.1,0.7-0.1,0.9,0.1c0.2,0.2,0.1,0.6,0.1,0.9
					c0,0.2-0.1,0.3-0.3,0.3c-1.6,0-3.1,0-4.7,0c-0.2,0-0.3,0.1-0.3,0.3c0,0.9,0,1.8,0,2.7c0,0.3,0.1,0.3,0.3,0.3c1.3,0,2.7,0,4.1,0
					c0.3,0,0.6-0.1,0.8,0.1c0.2,0.2,0.1,0.5,0.1,0.8c0.1,0.3-0.1,0.3-0.3,0.3c-1.5,0-3.1,0-4.6,0c-0.2,0-0.3,0.1-0.3,0.3
					c0,0.9,0,1.8,0,2.7c0,0.2,0,0.3,0.3,0.3c1.5,0,3.1,0,4.6,0c0.2,0,0.3,0,0.3,0.3c0,0.6,0,1.1,0,1.7c0,0.2,0,0.3-0.3,0.3
					c-4.7,0-9.5,0-14.3,0c-0.3,0-0.3-0.1-0.3-0.3c0-1.1,0-2.1,0-3.2C36.4,59.8,36.3,59.8,36.4,59.8z M58.3,56.6
					c0.1-0.1,0.2-0.2,0.2-0.3c1-2,2-3.9,3.1-5.9c0.1-0.2,0.1-0.3,0-0.5c-1-1.9-2-3.9-3-5.8c0-0.1-0.1-0.2-0.1-0.3
					c0.9,0.1,1.7,0.2,2.5,0.2c0.2,0,0.3,0.1,0.4,0.3c0.6,1.5,1.4,2.9,1.9,4.5c0.5-1.5,1.2-2.9,1.7-4.3c0-0.2,0.1-0.2,0.3-0.2
					c0.5,0,1,0.1,1.5,0.1c0.3,0,0.6,0,0.9,0.1c0,0.1-0.1,0.2-0.1,0.3c-0.9,1.7-1.7,3.5-2.6,5.2c-0.1,0.2-0.1,0.3,0,0.5
					c0.9,1.8,1.9,3.6,2.8,5.3c0.1,0.2,0,0.3-0.2,0.3c-0.7,0-1.3,0-2,0.1c-0.2,0-0.3-0.1-0.4-0.3c-0.6-1.4-1.4-2.8-1.9-4.3
					c-0.1,0.3-0.2,0.5-0.3,0.8c-0.6,1.3-1.1,2.5-1.7,3.8c-0.1,0.1-0.2,0.2-0.4,0.2c-0.8,0-1.5,0.1-2.2,0.1
					C58.6,56.5,58.4,56.5,58.3,56.6z"/>
				<path class="st1" d="M39.2,41.4c1,0.3,1.9,0.8,2.7,1.4c1,0,2,0,3,0c0.1,0.1,0.2,0,0.2-0.2c0-0.9,0-1.9,0-2.8
					c0-0.2-0.1-0.2-0.3-0.2c-1,0-1.9,0-2.8,0s-1.8,0-2.7,0c-0.2,0-0.3,0.1-0.3,0.3C39,40.5,39,41,39.2,41.4z"/>
				<path class="st1" d="M44.7,57.7c-0.9,0-1.8,0-2.7,0c-0.9,0.8-2,1.3-3.1,1.7c0,0.5,0,0.9,0,1.4c0,0.2,0.1,0.2,0.3,0.2
					c1,0,1.9,0,2.8,0s1.8,0,2.7,0c0.2,0,0.3-0.1,0.3-0.3c0-0.9,0-1.9,0-2.8C45,57.7,44.9,57.7,44.7,57.7z"/>
				<path class="st1" d="M43.1,44.1c0.8,0.9,1.5,2,1.9,3.2c0,0,0,0,0-0.1c0-0.9,0-1.9,0-2.8c0-0.2-0.1-0.2-0.3-0.2
					C44.2,44.2,43.6,44.2,43.1,44.1z"/>
				<path class="st1" d="M45,53.5c-0.4,1.2-1,2.2-1.8,3.1c0.5,0,1,0,1.5,0c0.2,0,0.3-0.1,0.3-0.3C45,55.3,45,54.4,45,53.5L45,53.5z"
					/>
				<path class="st1" d="M40.8,56.5c-1.2,0.9-2.7,1.5-4.3,1.6c0,0.5,0,1.1,0,1.6c0.8,0,1.6-0.2,2.4-0.4c0-0.5,0-0.9,0-1.4
					c0-0.2,0.1-0.2,0.3-0.2c0.9,0,1.9,0,2.8,0c0.5-0.3,0.8-0.7,1.2-1.1C42.4,56.6,41.6,56.6,40.8,56.5z"/>
				<path class="st1" d="M35.1,59.6c0-0.5,0-1.1,0-1.6c-3.7-0.5-6.6-3.7-6.6-7.6s2.9-7.1,6.6-7.6c0-0.5,0-1.1,0-1.6
					c-4.6,0.6-8.2,4.5-8.2,9.3C26.9,55.2,30.4,59.2,35.1,59.6z"/>
				<path class="st1" d="M43.2,47.6c0.2,0.4,0.3,0.9,0.4,1.3c0.4,0,0.7,0,1.1,0c0.1,0,0.2,0,0.2,0.2c0,0.9,0,1.9,0,2.8
					c0,0.2-0.1,0.2-0.3,0.2c-0.3,0-0.7,0-1,0c-0.1,0.4-0.2,0.8-0.4,1.2c0.5,0,0.9,0,1.4,0c0.2,0,0.3,0.1,0.3,0.3
					c0.3-1,0.5-2,0.5-3.1s-0.2-2.1-0.5-3.1c0,0.1-0.1,0.1-0.2,0.1C44.2,47.5,43.7,47.5,43.2,47.6z"/>
				<path class="st1" d="M39,41.6c-0.8-0.2-1.6-0.4-2.4-0.4c0,0.5,0,1.1,0,1.6c1.5,0.1,2.9,0.6,4,1.4c0.9,0,1.7,0,2.5,0
					c-0.4-0.4-0.8-0.8-1.3-1.2c-0.9,0-1.7,0-2.5,0c-0.2,0-0.3-0.1-0.3-0.3C39,42.3,39,42,39,41.6z"/>
				<path class="st1" d="M35.1,58.1c0,0.5,0,1.1,0,1.6c0.3,0.1,0.7,0.1,1.1,0.1c0.1,0,0.3,0,0.4,0c0-0.5,0-1.1,0-1.6
					c-0.1,0-0.3,0-0.4,0C35.8,58.2,35.4,58.1,35.1,58.1z"/>
				<path class="st1" d="M36.2,41.2c-0.4,0-0.7,0.1-1.1,0.1c0,0.5,0,1.1,0,1.6c0.3-0.1,0.7-0.1,1.1-0.1c0.1,0,0.3,0,0.4,0
					c0-0.5,0-1.1,0-1.6C36.4,41.1,36.3,41.1,36.2,41.2z"/>
				<path class="st1" d="M39.2,43c0.9,0,1.7,0,2.5,0c-0.8-0.6-1.7-1.1-2.7-1.4c0,0.3,0,0.7,0,1.1C39,42.9,39,43,39.2,43z"/>
				<path class="st1" d="M39,59.4c1.2-0.4,2.2-1,3.1-1.7c-0.9,0-1.9,0-2.8,0c-0.2,0-0.3,0-0.3,0.2C39,58.4,39,58.9,39,59.4z"/>
				<path class="st1" d="M43.1,44.2c-0.9,0-1.7,0-2.5,0c1.2,0.8,2.1,2,2.7,3.3c0.5,0,1,0,1.5,0c0.1,0,0.2,0,0.2-0.1
					C44.5,46.2,43.9,45.1,43.1,44.2z"/>
				<path class="st1" d="M44.8,48.7c-0.4,0-0.7,0-1.1,0c0.1,0.5,0.2,1.1,0.2,1.7s-0.1,1.1-0.2,1.6c0.3,0,0.7,0,1,0
					c0.2,0,0.3,0,0.3-0.2c0-0.9,0-1.9,0-2.8C45,48.8,44.9,48.7,44.8,48.7z"/>
				<path class="st1" d="M43.3,53.3c-0.5,1.3-1.4,2.5-2.5,3.3c0.8,0,1.6,0,2.4,0c0.8-0.8,1.4-1.9,1.8-3c0-0.3-0.1-0.3-0.3-0.3
					C44.2,53.3,43.8,53.3,43.3,53.3z"/>
			</g>
		</g>
	</g>
</g>
</svg>
