<?xml version="1.0" encoding="utf-8"?>
<!-- Generator: Adobe Illustrator 21.0.0, SVG Export Plug-In . SVG Version: 6.00 Build 0)  -->
<svg version="1.1" id="Layer_1" xmlns="http://www.w3.org/2000/svg" xmlns:xlink="http://www.w3.org/1999/xlink" x="0px" y="0px"
	 viewBox="0 0 100 100" style="enable-background:new 0 0 100 100;" xml:space="preserve">
<style type="text/css">
	.st0{fill:#001871;}
	.st1{fill:#FFFFFF;}
</style>
<g>
	<g>
		<g>
			<path class="st0" d="M50,100L50,100C22.5,100,0,77.5,0,50v0C0,22.5,22.5,0,50,0h0c27.5,0,50,22.5,50,50v0
				C100,77.5,77.5,100,50,100z"/>
		</g>
		<g>
			<g>
				<path class="st1" d="M36.8,35.3c0-0.8,0.2-1.5,1-1.8c5.2,0,11.2,0,16.4,0c0-0.8,0-0.7,0-1.5c0-0.2,0-0.4,0-0.5
					c-6.1,0-12.2,0-18.2,0c-0.8,0.4-1,1-1,1.8c0,12.9,0,25.7,0,38.6c0,0.2,0,0.4,0,0.5c0,0.7,0.6,1.2,1.3,1.3c0.1,0,0.3,0,0.4,0
					c0.4,0-0.2,0,0.2,0C36.8,61.2,36.8,47.8,36.8,35.3z"/>
				<path class="st1" d="M33.9,32.3c0-0.8,0.2-1.5,1-1.8c5.2,0,11.2,0,16.4,0c0-0.8,0-0.7,0-1.5c0-0.2,0-0.4,0-0.5
					c-6.1,0-12.2,0-18.2,0c-0.8,0.4-1,1-1,1.8c0,12.9,0,25.7,0,38.6c0,0.2,0,0.4,0,0.5c0,0.7,0.6,1.2,1.3,1.3c0.1,0,0.3,0,0.4,0
					c0.4,0-0.2,0,0.2,0C33.9,58.2,33.9,44.8,33.9,32.3z"/>
				<path class="st1" d="M65.3,72.8c-9.2,0-18.4,0-27.7,0V74c0,0.1,0,0.3,0,0.4c0,0.3,0.2,0.4,0.4,0.4c0.1,0,0.2,0,0.2,0l0.1,0h29.6
					c0.7,0,0.8-0.1,0.8-0.8V48.2H67c0,7.7,0,15.3,0,23C67,72.4,66.6,72.8,65.3,72.8z"/>
				<path class="st1" d="M55,44.4c0.1,0,0.1,0,0.2,0l0-10h-1.9c0,2.8,0,5.5,0,8.3C53.3,43.9,53.8,44.4,55,44.4z"/>
				<path class="st1" d="M55.1,45.6v-1.2c-0.1,0-0.1,0-0.2,0c-1.2,0-1.7-0.5-1.7-1.7c0-2.8,0-5.5,0-8.3H38c-0.2,0.1-0.3,0.3-0.3,0.9
					c0,10.3,0,20.5,0,30.8v6.8c9.2,0,18.4,0,27.7,0c1.2,0,1.7-0.5,1.7-1.7c0-7.7,0-15.3,0-23h-9.3C56,48.2,55.1,47.3,55.1,45.6z
					 M45.2,67.7c-0.4,0.4-1,0.7-1.6,0.7c0,0,0,0,0,0h0c-0.6,0-1.2-0.3-1.6-0.7c-0.4-0.4-0.6-1-0.6-1.6c0-1.2,1-2.2,2.3-2.2
					c0,0,0,0,0,0c1.2,0,2.2,1,2.2,2.3C45.9,66.7,45.7,67.3,45.2,67.7z M45.3,62.2c-0.4,0.4-1,0.7-1.6,0.7h0c-1.2,0-2.3-1-2.3-2.2
					c0-0.6,0.2-1.2,0.7-1.6c0.4-0.4,1-0.7,1.6-0.7h0c1.3,0,2.3,1,2.3,2.2C45.9,61.1,45.7,61.7,45.3,62.2z M45.3,56.7
					c-0.4,0.4-1,0.7-1.6,0.7h0c-1.3,0-2.2-1-2.3-2.3c0-0.6,0.2-1.2,0.7-1.6c0.4-0.4,1-0.7,1.6-0.7c1.2,0,2.3,1,2.3,2.3
					C45.9,55.7,45.7,56.2,45.3,56.7z M63.3,68.3c-0.2,0-0.5,0-0.7,0c-1.9,0-3.7,0-5.5,0l-2.9,0c-0.6,0-1.2,0-1.8,0c-1,0-2,0-3.1,0
					c-1.2,0-2.1-0.7-2.4-1.8c-0.1-0.6,0-1.2,0.3-1.7c0.3-0.5,0.9-0.9,1.5-1c0.3,0,0.5-0.1,0.8-0.1c4.3,0,8.7,0,13,0
					c0.2,0,0.4,0,0.7,0c1.2,0.2,2,1.1,2,2.2C65.2,67.2,64.4,68.1,63.3,68.3z M47,59.9c0.3-1,1.1-1.6,2.2-1.6c0.8,0,1.6,0,2.4,0
					l4.5,0l2.1,0c1.6,0,3.1,0,4.7,0c0.7,0,1.4,0.3,1.8,0.8c0.4,0.5,0.6,1.1,0.5,1.8c-0.1,1.1-1,1.9-2,2c-0.1,0-0.2,0-0.3,0l-2.7,0
					c-1.5,0-2.9,0-4.4,0c-2.1,0-4.3,0-6.4,0c-0.8,0-1.5-0.3-2-0.9C46.9,61.3,46.8,60.6,47,59.9z M65.2,55c0,1.3-1,2.3-2.3,2.3
					c-0.6,0-1.2,0-1.8,0c-0.3,0-0.7,0-1,0l-4.1,0l-2,0c-1.6,0-3.2,0-4.7,0c-1.1,0-2-0.7-2.3-1.7c-0.2-0.7,0-1.3,0.3-1.9
					c0.4-0.5,1-0.9,1.7-1c0.1,0,0.2,0,0.3,0l2.7,0c3.6,0,7.2,0,10.8,0C64.2,52.8,65.2,53.7,65.2,55z"/>
				<path class="st1" d="M49.3,62.8c2.1,0,4.3,0,6.4,0c1.5,0,2.9,0,4.4,0l2.7,0c0.1,0,0.2,0,0.3,0c1.1-0.1,1.9-0.9,2-2
					c0.1-0.7-0.1-1.3-0.5-1.8c-0.4-0.5-1.1-0.8-1.8-0.8c-1.6,0-3.1,0-4.7,0l-2.1,0l-4.5,0c-0.8,0-1.6,0-2.4,0c-1,0-1.9,0.6-2.2,1.6
					c-0.2,0.7-0.1,1.4,0.3,2C47.8,62.5,48.5,62.8,49.3,62.8z M47.8,60.2c0.2-0.6,0.7-1,1.3-1c1.1,0,2.2,0,3.3,0c1.2,0,2.4,0,3.6,0
					c2.3,0,4.5,0,6.8,0c1,0,1.6,0.7,1.5,1.5c-0.1,0.6-0.6,1.1-1.2,1.2c-0.1,0-0.2,0-0.2,0c-4.5,0-9,0-13.5,0
					C48.2,61.9,47.6,61.1,47.8,60.2z"/>
				<path class="st1" d="M43.7,52.8c-0.6,0-1.2,0.2-1.6,0.7c-0.4,0.4-0.7,1-0.7,1.6c0,1.3,1,2.3,2.3,2.3h0c0.6,0,1.2-0.2,1.6-0.7
					c0.4-0.4,0.7-1,0.7-1.6C45.9,53.8,44.9,52.8,43.7,52.8z M43.6,56.4c-0.8,0-1.4-0.6-1.4-1.4c0-0.8,0.6-1.4,1.4-1.4
					c0.7,0,1.4,0.6,1.4,1.4C45,55.8,44.4,56.4,43.6,56.4z"/>
				<path class="st1" d="M49.3,52.8c-0.1,0-0.2,0-0.3,0c-0.7,0.1-1.3,0.4-1.7,1c-0.4,0.5-0.5,1.2-0.3,1.9c0.3,1,1.1,1.7,2.3,1.7
					c1.6,0,3.2,0,4.7,0l2,0l4.1,0c0.3,0,0.7,0,1,0c0.6,0,1.2,0,1.8,0c1.3,0,2.3-1,2.3-2.3c0-1.3-1-2.3-2.4-2.3c-3.6,0-7.2,0-10.8,0
					L49.3,52.8z M64.3,55c0,0.8-0.6,1.4-1.4,1.4c-1.3,0-2.6,0-4,0c-1,0-2,0-2.9,0c-2.3,0-4.5,0-6.8,0c-0.7,0-1.2-0.4-1.4-1
					c-0.2-0.8,0.4-1.6,1.2-1.7c0.1,0,0.2,0,0.3,0c4.5,0,9,0,13.4,0C63.7,53.7,64.3,54.2,64.3,55z"/>
				<path class="st1" d="M43.7,63.8C43.7,63.8,43.7,63.8,43.7,63.8c-1.3,0-2.3,1-2.3,2.2c0,0.6,0.2,1.2,0.6,1.6
					c0.4,0.4,1,0.7,1.6,0.7h0c0,0,0,0,0,0c0.6,0,1.2-0.2,1.6-0.7c0.4-0.4,0.7-1,0.7-1.6C45.9,64.8,44.9,63.8,43.7,63.8z M43.6,67.4
					c-0.8,0-1.4-0.7-1.3-1.4c0-0.8,0.6-1.3,1.4-1.3c0.7,0,1.4,0.6,1.4,1.4C45,66.8,44.4,67.5,43.6,67.4z"/>
				<path class="st1" d="M43.7,58.3L43.7,58.3c-0.6,0-1.2,0.2-1.6,0.7c-0.4,0.4-0.7,1-0.7,1.6c0,1.2,1,2.2,2.3,2.2h0
					c0.6,0,1.2-0.2,1.6-0.7c0.4-0.4,0.7-1,0.7-1.6C45.9,59.3,44.9,58.3,43.7,58.3z M43.6,61.9c-0.7,0-1.4-0.6-1.4-1.4
					c0-0.8,0.6-1.4,1.4-1.4c0.8,0,1.4,0.6,1.4,1.3C45,61.3,44.4,61.9,43.6,61.9z"/>
				<path class="st1" d="M63.2,63.8c-0.2,0-0.5,0-0.7,0c-4.3,0-8.7,0-13,0c-0.2,0-0.5,0-0.8,0.1c-0.6,0.1-1.1,0.4-1.5,1
					c-0.3,0.5-0.5,1.1-0.3,1.7c0.2,1.1,1.2,1.8,2.4,1.8c1,0,2,0,3.1,0c0.6,0,1.2,0,1.8,0l2.9,0c1.8,0,3.7,0,5.5,0c0.2,0,0.4,0,0.7,0
					c1.1-0.2,1.9-1.2,1.9-2.3C65.2,64.9,64.4,64,63.2,63.8z M63.2,67.4c-0.2,0-0.4,0-0.5,0c-2.2,0-4.4,0-6.6,0c-2.2,0-4.5,0-6.7,0
					c-0.8,0-1.3-0.4-1.5-1.1c-0.2-0.8,0.3-1.5,1.1-1.6c0.2,0,0.4,0,0.6,0c4.3,0,8.7,0,13,0c0.2,0,0.4,0,0.5,0
					c0.7,0.1,1.2,0.6,1.2,1.3C64.3,66.7,63.8,67.3,63.2,67.4z"/>
				<path class="st1" d="M58.6,35.6v8.7c2.7,0,5.3,0,8,0c0.2,0,0.3,0,0.5,0c0,0.1,0,0.2,0,0.3h0.6L58.6,35.6z"/>
				<path class="st1" d="M66.5,44.4c-2.7,0-5.3,0-8,0v0.3H67c0-0.1,0-0.2,0-0.3C66.9,44.4,66.7,44.4,66.5,44.4z"/>
				<path class="st1" d="M58.6,35.6l9.1,9.1H67c0,0.1,0,0.1,0,0.2c0,0.2,0,0.5,0,0.7c0.9,0,1.9,0,2.8,0c-4.1-4.1-8.1-8.1-12.2-12.2
					c0,3.6,0,7.3,0,10.9c0.3,0,0.6,0,0.9,0V35.6z"/>
				<path class="st1" d="M67,45.6c0-0.2,0-0.5,0-0.7c0-0.1,0-0.1,0-0.2h-8.5v-0.3c-0.3,0-0.6,0-0.9,0c0,0.4,0,0.8,0,1.2
					C60.8,45.6,63.9,45.6,67,45.6z"/>
			</g>
		</g>
	</g>
</g>
</svg>
