<?xml version="1.0" encoding="utf-8"?>
<!-- Generator: Adobe Illustrator 21.0.0, SVG Export Plug-In . SVG Version: 6.00 Build 0)  -->
<svg version="1.1" id="Layer_1" xmlns="http://www.w3.org/2000/svg" xmlns:xlink="http://www.w3.org/1999/xlink" x="0px" y="0px"
	 viewBox="0 0 100 100" style="enable-background:new 0 0 100 100;" xml:space="preserve">
<style type="text/css">
	.st0{fill:#00B2A9;}
	.st1{fill:#FFFFFF;}
</style>
<g>
	<g>
		<g>
			<g>
				<path class="st0" d="M50,100L50,100C22.5,100,0,77.5,0,50v0C0,22.5,22.5,0,50,0h0c27.5,0,50,22.5,50,50v0
					C100,77.5,77.5,100,50,100z"/>
			</g>
		</g>
		<g>
			<g>
				<g>
					<path class="st1" d="M75.5,55.7v4.6c0,1.2-0.9,2.1-2.1,2.1h-2.2c-0.4-2.8-2.8-4.9-5.7-4.9c-2.9,0-5.3,2.1-5.7,4.9h-19
						c-0.4-2.8-2.8-4.9-5.7-4.9c-2.9,0-5.3,2.1-5.7,4.9h-2.8c-1.2,0-2.1-0.9-2.1-2.1v-4.6H75.5z M69.7,62.5c0.5,3-2,5.5-5,5
						c-1.8-0.3-3.3-1.8-3.6-3.6c-0.4-2.9,2-5.4,5-5C67.9,59.2,69.4,60.7,69.7,62.5z M67.6,63.8c0.4-1.6-1-3-2.6-2.6
						c-0.8,0.2-1.4,0.8-1.6,1.6c-0.4,1.6,1,3,2.6,2.6C66.8,65.2,67.4,64.6,67.6,63.8z M39.4,62.5c0.5,2.9-2,5.5-5,5
						c-1.8-0.3-3.3-1.8-3.6-3.6c-0.4-2.9,2-5.4,4.9-5C37.6,59.2,39.1,60.7,39.4,62.5z M37.2,63.8c0.4-1.6-1-3-2.6-2.6
						c-0.8,0.2-1.4,0.8-1.6,1.5c-0.4,1.6,1,3.1,2.6,2.7C36.4,65.2,37,64.5,37.2,63.8z M75.5,54.6H24.5v-14c0-1.2,0.9-2.1,2.1-2.1
						h31.6c1.2,0,2.1,0.9,2.1,2.1v1.6h4.1c0.7,0,1.4,0.3,2,0.8l8.2,8.1c0.5,0.5,0.8,1.2,0.8,2V54.6z M71.3,50.8l-6.4-6.1
						c-0.1,0-0.2-0.1-0.2-0.1h-1.5c-0.2,0-0.3,0.1-0.3,0.3V51c0,0.2,0.1,0.3,0.3,0.3h8C71.3,51.3,71.5,51,71.3,50.8z"/>
				</g>
			</g>
		</g>
	</g>
</g>
</svg>
