<?xml version="1.0" encoding="utf-8"?>
<!-- Generator: Adobe Illustrator 21.0.0, SVG Export Plug-In . SVG Version: 6.00 Build 0)  -->
<svg version="1.1" id="Layer_1" xmlns="http://www.w3.org/2000/svg" xmlns:xlink="http://www.w3.org/1999/xlink" x="0px" y="0px"
	 viewBox="0 0 100 100" style="enable-background:new 0 0 100 100;" xml:space="preserve">
<style type="text/css">
	.st0{fill:#418FDE;}
	.st1{fill:#FFFFFF;}
</style>
<g>
	<g>
		<g>
			<g>
				<path class="st0" d="M50,100L50,100C22.5,100,0,77.5,0,50l0,0C0,22.5,22.5,0,50,0l0,0c27.5,0,50,22.5,50,50l0,0
					C100,77.5,77.5,100,50,100z"/>
			</g>
			<g>
				<path class="st1" d="M58.5,58.4c0-2.4,0-4.7,0-7c0-1.7-0.9-2.6-2.5-2.6c-2.6,0-5.2,0-7.9,0c-0.7,0-1.3,0.3-1.8,0.8
					c-1.4,1.5-2.8,2.9-4.2,4.4c-0.4,0.5-0.6,1-0.6,1.6c0,0.9,0,1.9,0,2.8c-0.1,0-0.2,0-0.4,0c-2,0-4,0-5.9,0c-4.4,0-8.1-3.7-8.4-8.3
					c-0.3-4.7,2.9-8.8,7.4-9.4c0.5-0.1,1.1,0.1,1.5-0.1c0.4-0.2,0.6-0.8,0.9-1.2c1-1.3,2.4-1.9,4-2c0.3,0,0.4-0.1,0.5-0.4
					c1.2-4.2,4.9-7,9.1-6.8c3.6,0.1,6.2,1.9,7.9,5.2c0.2,0.3,0.3,0.4,0.7,0.5c2,0.1,3.5,1.1,4.7,2.8c0.2,0.3,0.4,0.5,0.8,0.5
					c4.4,0.2,8.2,3.9,8.7,8.4c0.6,5.2-2.6,9.8-7.6,10.8c-0.5,0.1-1.1,0.1-1.6,0.2c-1.7,0-3.3,0-5,0C58.8,58.4,58.7,58.4,58.5,58.4z"
					/>
				<path class="st1" d="M43.1,56.8c0.9,0,1.7,0,2.6,0c2.8,0.2,3.8-0.8,3.6-3.8c-0.1-0.9,0-1.8,0-2.7c0.9,0,1.8,0,2.6,0
					c1.4,0,2.8,0,4.1,0c0.7,0,0.9,0.3,0.9,1c0,5.8,0,11.6,0,17.4c0,0.8-0.2,1-0.9,1c-4,0-8,0-12,0c-0.7,0-0.9-0.2-0.9-0.9
					c0-3.9,0-7.8,0-11.7C43.1,57,43.1,56.9,43.1,56.8z M55.4,58.4c-3.6,0-7.2,0-10.7,0c0,0.5,0,1.1,0,1.6c3.6,0,7.2,0,10.7,0
					C55.4,59.4,55.4,59,55.4,58.4z M55.4,63.2c0-0.6,0-1.1,0-1.6c-3.6,0-7.2,0-10.7,0c0,0.5,0,1,0,1.6
					C48.2,63.2,51.8,63.2,55.4,63.2z M55.4,66.4c0-0.6,0-1.1,0-1.6c-3.6,0-7.2,0-10.7,0c0,0.5,0,1,0,1.6
					C48.2,66.4,51.8,66.4,55.4,66.4z M50.8,53.5c1.6,0,3.1,0,4.6,0c0-0.5,0-1.1,0-1.6c-1.5,0-3,0-4.6,0C50.8,52.5,50.8,53,50.8,53.5
					z M50.8,55.2c0,0.5,0,1.1,0,1.6c1.5,0,3.1,0,4.6,0c0-0.5,0-1,0-1.6C53.9,55.2,52.4,55.2,50.8,55.2z"/>
				<path class="st1" d="M47.7,50.3c0,1.5,0,2.8,0,4.2c0,0.4-0.3,0.7-0.7,0.7c-1.2,0-2.4,0-3.6,0c0.1-0.2,0.1-0.3,0.1-0.4
					C44.8,53.3,46.2,51.9,47.7,50.3z"/>
			</g>
		</g>
	</g>
</g>
</svg>
