<svg id="Layer_1" data-name="Layer 1" xmlns="http://www.w3.org/2000/svg" viewBox="0 0 247.59 127.25"><defs><style>.cls-1{fill:#0373b9;}</style></defs><title>Our Solutions</title><path class="cls-1" d="M30.09,87.9A.67.67,0,0,0,31,87L29,84.9a.67.67,0,0,0-.95.95l2.05,2.05Z"/><path class="cls-1" d="M30.32,89.75a.67.67,0,0,0-.67-.67h-2.9a.67.67,0,1,0,0,1.34h2.9a.67.67,0,0,0,.67-.67Z"/><path class="cls-1" d="M30.17,91.56l-2.05,2.05a.67.67,0,1,0,.95.95l2.05-2.05a.67.67,0,0,0-.95-.95Z"/><path class="cls-1" d="M33,92.28a.67.67,0,0,0-.67.67v2.9a.67.67,0,1,0,1.34,0V93a.67.67,0,0,0-.67-.67Z"/><path class="cls-1" d="M35.73,91.48a.67.67,0,0,0-.95.95l2.05,2.05a.67.67,0,0,0,.95-.95l-2.05-2.05Z"/><path class="cls-1" d="M39.07,89h-2.9a.67.67,0,1,0,0,1.34h2.9a.67.67,0,0,0,0-1.34Z"/><path class="cls-1" d="M35.17,88a.67.67,0,0,0,.47-.2l2.05-2.05a.67.67,0,0,0-.95-.95L34.7,86.87A.67.67,0,0,0,35.17,88Z"/><path class="cls-1" d="M32.85,87.1a.67.67,0,0,0,.67-.67v-2.9a.67.67,0,0,0-1.34,0v2.9a.67.67,0,0,0,.67.67Z"/><path class="cls-1" d="M30.06,15.48a.88.88,0,0,0-.88.88v3.82a.88.88,0,1,0,1.76,0V16.36a.88.88,0,0,0-.88-.88Z"/><path class="cls-1" d="M30.06,24.3a.88.88,0,0,0-.88.88V29a.88.88,0,1,0,1.76,0V25.18a.88.88,0,0,0-.88-.88Z"/><path class="cls-1" d="M36.37,21.8H32.55a.88.88,0,1,0,0,1.76h3.82a.88.88,0,1,0,0-1.76Z"/><path class="cls-1" d="M27.56,21.8H23.74a.88.88,0,0,0,0,1.76h3.82a.88.88,0,0,0,0-1.76Z"/><path class="cls-1" d="M247.31,72.4a1,1,0,0,0,0-1.35l-2.93-2.93A1,1,0,0,0,243,69.47L246,72.4a1,1,0,0,0,1.35,0Z"/><path class="cls-1" d="M240.56,65.64a1,1,0,0,0,0-1.35l-2.93-2.93a1,1,0,0,0-1.35,1.35l2.93,2.93a1,1,0,0,0,1.35,0Z"/><path class="cls-1" d="M237.63,72.4l2.93-2.93a1,1,0,1,0-1.35-1.35L236.28,71a1,1,0,0,0,1.35,1.35Z"/><path class="cls-1" d="M244.39,65.64l2.93-2.93A1,1,0,0,0,246,61.37L243,64.29a1,1,0,0,0,1.35,1.35Z"/><path class="cls-1" d="M234.77,8.27a2.89,2.89,0,1,0,2.89,2.89,2.89,2.89,0,0,0-2.89-2.89Zm0,7a4.11,4.11,0,1,1,4.11-4.11,4.11,4.11,0,0,1-4.11,4.11Z"/><path class="cls-1" d="M236,112l-3.47,3.47L229.05,112a.8.8,0,1,0-1.13,1.13l3.47,3.47-3.47,3.47a.8.8,0,1,0,1.13,1.13l3.47-3.47,3.47,3.47a.8.8,0,0,0,1.13-1.13l-3.47-3.47,3.47-3.47A.8.8,0,0,0,236,112Z"/><path class="cls-1" d="M6.23,117.08a5.57,5.57,0,0,1,4.91-4.82.83.83,0,1,1,.18,1.64,3.92,3.92,0,1,0,3.49,1.44.83.83,0,1,1,1.29-1,5.57,5.57,0,1,1-9.86,2.78Z"/><path class="cls-1" d="M218.93,91.51a2.21,2.21,0,1,1-2.21-2.21,2.21,2.21,0,0,1,2.21,2.21Z"/><path class="cls-1" d="M14.63,5.85a2.21,2.21,0,1,1-2.21-2.21,2.21,2.21,0,0,1,2.21,2.21Z"/><path class="cls-1" d="M6.94,60.05V57.47A2.45,2.45,0,0,1,9.39,55H12c.76-.67.3-1.51-.36-1.51H9.39a2.45,2.45,0,0,1-2.45-2.45V48.47c-.67-.76-1.51-.3-1.51.36v2.21A2.45,2.45,0,0,1,3,53.51H.39C-.37,54.17.1,55,.76,55H3a2.45,2.45,0,0,1,2.45,2.45v2.21c0,.66.85,1.12,1.51.36Z"/><path class="cls-1" d="M214.42,37.71V34.38a3.17,3.17,0,0,1,3.17-3.17h3.33c1-.86.38-2-.47-2h-2.86a3.17,3.17,0,0,1-3.17-3.17V22.76c-.86-1-2-.38-2,.47v2.86a3.17,3.17,0,0,1-3.17,3.17H206c-1,.86-.38,2,.47,2h2.86a3.17,3.17,0,0,1,3.17,3.17v2.86c0,.85,1.09,1.45,2,.47Z"/><path class="cls-1" d="M175.77,120.08V79H137.38V120.1h-5.72c-6.22,0-12.45,0-18.67,0a1.49,1.49,0,0,1-.94-.39c-1.76-1.71-3.47-3.47-5.23-5.19a1.28,1.28,0,0,0-.78-.32c-.85,0-1.71,0-2.59,0V28h7.9c-.66-3.54.54-6.71,1.73-10h-9.6V15.27h48.75c.3,0,.6,0,.9,0s.49.15.48.5,0,.89,0,1.4h1.51c0,.24,0,.4,0,.57q0,11.35,0,22.69c0,.23-.2.46-.31.69l-.19-.05c.18.77.35,1.55.55,2.32,0,.11.13.27.2.28.61,0,.56.49.57.89,0,1.26,0,1.26,1.14,1.7l.18.07a1.5,1.5,0,0,1,1,1.41,1.54,1.54,0,0,1-.93,1.44,1.87,1.87,0,0,1-1.84-.32,8.36,8.36,0,0,1-.5-1.15,2.72,2.72,0,0,0-.45-.51c-.17.18-.5.37-.49.55a2.94,2.94,0,0,0,.32,1.29,12,12,0,0,0,1.12,1.44c-2.69,3.61-5.51,7.39-8.33,11.16a1.43,1.43,0,0,1-.54.43c-1.84.83-3.7,1.63-5.55,2.45L137.74,66l0,.11h37.67a2,2,0,0,0-.66-.42c-2.71-1.2-5.42-2.39-8.13-3.59a1.69,1.69,0,0,1-.64-.5q-3.65-4.85-7.27-9.72c-.21-.28-.46-.52-.7-.78h0l-.43-.84c2.21-1.56,2.18-3.43-.06-5a1.15,1.15,0,0,1,.1-1.57.86.86,0,0,0,.36-.42c.18-.6.32-1.2.46-1.81a.85.85,0,0,0,0-.41c-.57-.13-.34-.58-.34-.89q0-11.08,0-22.16v-.88h1.48V15.26h4.18a2.27,2.27,0,0,0-.74-2.46,12.53,12.53,0,0,1-1.55-1.55c-2-2.08-4.34-3.82-5.62-6.5a.63.63,0,0,0-.46-.24l-11-.78-13-.95-11.53-.86-11.84-.87h0l-.27,0-.52,0h0l-1.45-.1c-3.48-.25-7-.51-10.44-.73a12.31,12.31,0,0,0-3.53,0C86.26,1.46,80.67,2.94,75.06,4.35a1.31,1.31,0,0,0-.92.71,9.59,9.59,0,0,1-1.3,2.07C71,9.07,69.09,11,67.11,12.81a2.44,2.44,0,0,0-.72,2.45h2.19v.07l-.74.08a.87.87,0,0,0-.06.21c0,2.34,0,4.69,0,7,0,.45.25.46.58.46H78.62a2.69,2.69,0,0,0,.37,0V15.41l-1.07-.09H91.17v98.84c-.86,0-1.67,0-2.49,0a1.25,1.25,0,0,0-1,.42c-1.7,1.71-3.43,3.39-5.13,5.1a1.38,1.38,0,0,1-1.07.44c-4.83,0-9.65,0-14.48,0h-.62v7.15H181.27v-7.17ZM107.9,18.75H112c-.32,1.08-.62,2.13-.93,3.16s-.36,1.18-1.57,1.18H107.9Zm-3.79,0h2.81v4.29h-2.81Zm53.58,32c.07.13.23.2.36.3.3.48.57,1,.91,1.43q3.25,4.38,6.52,8.75c.07.1.13.2.31.46l-5.4-2.37c-1-.46-2.09-.91-3.11-1.4a1.46,1.46,0,0,0-1.34,0c-2.59,1.16-5.18,2.31-7.78,3.45-.19.08-.38.15-.71.27.92-1.26,1.75-2.4,2.6-3.53,1.85-2.48,3.71-5,5.56-7.45.22-.3.42-.46.8-.32a.6.6,0,0,0,.38,0A.68.68,0,0,1,157.69,50.77ZM72.93,9.31l4.13,4.28H68.82Zm-3.59,6.06v-.09H77.2v.09Zm5.48-6.71h8l-4,4.06Zm5.7,4.9,4.15-4.23,4.08,4.23Zm10.69-.1c-1.66-1.63-3.29-3.05-4.68-4.67a4.86,4.86,0,0,0-4.45-1.86c-1.88.16-3.79,0-5.68,0a.77.77,0,0,1-.8-.47c-.29-.57-.64-1.12-1-1.77L90.72.6a9.27,9.27,0,0,0-.57,1.47,2.29,2.29,0,0,0,.72,2.23,1,1,0,0,1,.33.58C91.22,7.67,91.21,10.47,91.21,13.46Zm14.13.15,4.17-4.09,4,4.09Zm5.75-4.94h8.3l-4.1,4.11Zm5.83,4.93,4.16-4.06,4.15,4.06Zm5.94-5h8.59l-4.38,4.26Zm6.24,4.95,4.13-4.15,4.06,4.15ZM135,8.66h8.77L139.38,13Zm6.61,4.93,4.15-4.06,4,4.06Zm9.78-.88-4-4h8.14Zm6.51,28c-1-.93-1.62-.93-2.5,0V17.56a2.08,2.08,0,0,0,2.5-.06Zm-.68-31.28,4.13,4.14h-8.22Zm-52-8.35c.75.05,1.5.13,2.25.16h.08l10.81.81,13.4,1,13.47,1,9.6.7c.23,0,.46.06.77.11-.38.68-.71,1.32-1.12,1.93a.9.9,0,0,1-.66.23c-3.1,0-6.2,0-9.31,0s-6.08,0-9.11,0a1,1,0,0,1-1-.62,6.92,6.92,0,0,1-.38-.67c-.34-1.11-1.2-1.23-2.19-1.33-4.86-.51-9.71-1.08-14.57-1.63-2.65-.3-6.55-.75-9.2-1-2-.24-4.06-.46-6.09-.69-.06,0-.12,0-.16-.15Zm-.15.5,3.36.4,6.83.76L126.56,4l6.59.76c-.42.73-.78,1.4-1.2,2-.09.14-.41.16-.63.16H120.66c-3.49,0-7,0-10.47,0a1.78,1.78,0,0,0-1.4.6c-1.59,1.64-3.21,3.25-4.81,4.87l-.48.46L94.68,4.05c.73-1.48.67-2.05-.47-3.68ZM94.47,68.43,101,61.94V75.07Zm5.28,9.25-6.06,5.93V71.72Zm1.19-55.58-6.42-6.68h6.42Zm0,4.9V39.17L95.08,33Zm-1.18-2.38-6.08,5.88v-12ZM93.7,35.51l6,6.07-6,5.92ZM101,44.2V56.94l-6.31-6.36ZM93.68,7l6,5.89h-6Zm0,46.41,6,6-6,6Zm0,35.92,6,6-6,5.85Zm0,22.35v-5.25l5.39,5.25Zm7.23-1.8-5.86-6.19,5.86-5.91Zm0-17.19-6.17-6.3L101,80.08Zm60.81-8.19h4V87h-4Zm-15.22,28.75h-4v-6.44h4Zm-4-19.19V87.56h4v6.51Zm4,11.77a.53.53,0,0,1-.36.37c-1.2,0-2.41,0-3.66,0v-2.5h4C146.61,104.47,146.63,105.16,146.59,105.84Zm0-20c0,.38,0,.77,0,1.2h-4.06V84.46h2.81C146.68,84.46,146.67,84.46,146.61,85.8Zm4.56,27.45h-4v-9.52h4Zm0-19.18h-4V84.48h4Zm10.6-6.49h4v6.49h-4Zm8,32.48h-7.18V106.91h7.18Zm.59-26h-4V84.49h4Z"/></svg>