<svg id="Layer_1" data-name="Layer 1" xmlns="http://www.w3.org/2000/svg" viewBox="0 0 247.59 127.25"><defs><style>.cls-1{fill:#0373b9;}</style></defs><title>Our Solutions</title><path class="cls-1" d="M30.09,87.9A.67.67,0,0,0,31,87L29,84.9a.67.67,0,0,0-.95.95l2.05,2.05Z"/><path class="cls-1" d="M30.32,89.75a.67.67,0,0,0-.67-.67h-2.9a.67.67,0,1,0,0,1.34h2.9a.67.67,0,0,0,.67-.67Z"/><path class="cls-1" d="M30.17,91.56l-2.05,2.05a.67.67,0,1,0,.95.95l2.05-2.05a.67.67,0,0,0-.95-.95Z"/><path class="cls-1" d="M33,92.28a.67.67,0,0,0-.67.67v2.9a.67.67,0,1,0,1.34,0V93a.67.67,0,0,0-.67-.67Z"/><path class="cls-1" d="M35.73,91.48a.67.67,0,0,0-.95.95l2.05,2.05a.67.67,0,0,0,.95-.95l-2.05-2.05Z"/><path class="cls-1" d="M39.07,89h-2.9a.67.67,0,1,0,0,1.34h2.9a.67.67,0,0,0,0-1.34Z"/><path class="cls-1" d="M35.17,88a.67.67,0,0,0,.47-.2l2.05-2.05a.67.67,0,0,0-.95-.95L34.7,86.87A.67.67,0,0,0,35.17,88Z"/><path class="cls-1" d="M32.85,87.1a.67.67,0,0,0,.67-.67v-2.9a.67.67,0,0,0-1.34,0v2.9a.67.67,0,0,0,.67.67Z"/><path class="cls-1" d="M30.06,15.48a.88.88,0,0,0-.88.88v3.82a.88.88,0,1,0,1.76,0V16.36a.88.88,0,0,0-.88-.88Z"/><path class="cls-1" d="M30.06,24.3a.88.88,0,0,0-.88.88V29a.88.88,0,1,0,1.76,0V25.18a.88.88,0,0,0-.88-.88Z"/><path class="cls-1" d="M36.37,21.8H32.55a.88.88,0,1,0,0,1.76h3.82a.88.88,0,1,0,0-1.76Z"/><path class="cls-1" d="M27.56,21.8H23.74a.88.88,0,0,0,0,1.76h3.82a.88.88,0,0,0,0-1.76Z"/><path class="cls-1" d="M247.31,72.4a1,1,0,0,0,0-1.35l-2.93-2.93A1,1,0,0,0,243,69.47L246,72.4a1,1,0,0,0,1.35,0Z"/><path class="cls-1" d="M240.56,65.64a1,1,0,0,0,0-1.35l-2.93-2.93a1,1,0,0,0-1.35,1.35l2.93,2.93a1,1,0,0,0,1.35,0Z"/><path class="cls-1" d="M237.63,72.4l2.93-2.93a1,1,0,1,0-1.35-1.35L236.28,71a1,1,0,0,0,1.35,1.35Z"/><path class="cls-1" d="M244.39,65.64l2.93-2.93A1,1,0,0,0,246,61.37L243,64.29a1,1,0,0,0,1.35,1.35Z"/><path class="cls-1" d="M234.77,8.27a2.89,2.89,0,1,0,2.89,2.89,2.89,2.89,0,0,0-2.89-2.89Zm0,7a4.11,4.11,0,1,1,4.11-4.11,4.11,4.11,0,0,1-4.11,4.11Z"/><path class="cls-1" d="M236,112l-3.47,3.47L229.05,112a.8.8,0,1,0-1.13,1.13l3.47,3.47-3.47,3.47a.8.8,0,1,0,1.13,1.13l3.47-3.47,3.47,3.47a.8.8,0,0,0,1.13-1.13l-3.47-3.47,3.47-3.47A.8.8,0,0,0,236,112Z"/><path class="cls-1" d="M6.23,117.08a5.57,5.57,0,0,1,4.91-4.82.83.83,0,1,1,.18,1.64,3.92,3.92,0,1,0,3.49,1.44.83.83,0,1,1,1.29-1,5.57,5.57,0,1,1-9.86,2.78Z"/><path class="cls-1" d="M218.93,91.51a2.21,2.21,0,1,1-2.21-2.21,2.21,2.21,0,0,1,2.21,2.21Z"/><path class="cls-1" d="M14.63,5.85a2.21,2.21,0,1,1-2.21-2.21,2.21,2.21,0,0,1,2.21,2.21Z"/><path class="cls-1" d="M6.94,60.05V57.47A2.45,2.45,0,0,1,9.39,55H12c.76-.67.3-1.51-.36-1.51H9.39a2.45,2.45,0,0,1-2.45-2.45V48.47c-.67-.76-1.51-.3-1.51.36v2.21A2.45,2.45,0,0,1,3,53.51H.39C-.37,54.17.1,55,.76,55H3a2.45,2.45,0,0,1,2.45,2.45v2.21c0,.66.85,1.12,1.51.36Z"/><path class="cls-1" d="M214.42,37.71V34.38a3.17,3.17,0,0,1,3.17-3.17h3.33c1-.86.38-2-.47-2h-2.86a3.17,3.17,0,0,1-3.17-3.17V22.76c-.86-1-2-.38-2,.47v2.86a3.17,3.17,0,0,1-3.17,3.17H206c-1,.86-.38,2,.47,2h2.86a3.17,3.17,0,0,1,3.17,3.17v2.86c0,.85,1.09,1.45,2,.47Z"/><path class="cls-1" d="M157.47,0l12.31,12.3c-2.78-.71-5.65-1.49-8.55-2.18a1.9,1.9,0,0,1-1.7-1.56C158.86,5.57,158.1,2.6,157.47,0Z"/><path class="cls-1" d="M173.48,22.33c0-2.14-.7-3-2.66-3.4-3.5-.74-7-1.7-10.45-2.48a3.66,3.66,0,0,1-3.27-3.26c-.67-3.61-1.89-7.11-2.6-10.71-.4-2-1.3-2.47-3.24-2.47Q114.15.11,77,0c-2.4,0-2.95.64-2.93,3,.1,20.18.06,40.37.06,60.55s0,40.37-.06,60.55c0,2.42.47,3.18,3.07,3.17q46.76-.15,93.53,0c2.31,0,2.77-.67,2.76-2.86-.09-19.61-.05-39.23-.05-58.85C173.41,51.14,173.36,36.73,173.48,22.33Zm-89.65-.88c6.62.15,49.18.05,55.81.05,6.43,0,12.87,0,19.3,0,1.75,0,2.5.32,2.42,2.33-.07,1.78-.14,2.7-2.35,2.68-13.06-.1-62.05-.08-75.11,0-1.77,0-2.53-.35-2.45-2.31C81.51,22.42,81.58,21.4,83.82,21.45Zm77.57,25.41c0,2.24-.77,2.63-2.79,2.62-12.32-.09-24.64,0-37,0s-24.45,0-36.67,0c-1.77,0-3,.06-3-2.43,0-2.28.84-2.58,2.82-2.57q37,.09,73.92,0C160.54,44.47,161.38,44.7,161.39,46.86ZM84.08,33.11c6.54.1,49,0,55.55,0,6.35,0,12.7.06,19,0,1.87,0,2.72.31,2.64,2.44-.07,1.84-.35,2.65-2.47,2.64-13-.1-61.9-.09-74.88,0-2.06,0-2.48-.7-2.53-2.61C81.38,33.47,82.19,33.08,84.08,33.11Zm.47,23.05q37.19.09,74.39,0c2.09,0,2.47.74,2.49,2.62s-.64,2.35-2.44,2.34c-12.49-.07-25,0-37.48,0-12.3,0-24.61,0-36.91,0-1.87,0-2.67-.33-2.65-2.44S82.61,56.16,84.55,56.17Zm-.07,11.62c12.4.08,24.81,0,37.22,0s24.81,0,37.22,0c1.92,0,2.64.44,2.63,2.5s-.65,2.55-2.61,2.55q-37.22-.09-74.43,0c-2.19,0-2.37-.91-2.41-2.69S82.63,67.77,84.48,67.79Zm0,11.78c12.49.07,25,0,37.48,0,12.3,0,24.61,0,36.91,0,1.93,0,2.63.41,2.62,2.47s-.77,2.3-2.51,2.3q-37.33-.07-74.67,0c-2,0-2.21-.79-2.27-2.47C82,79.93,82.75,79.56,84.53,79.57Zm74.72,39.92q-37.06-.08-74.12,0c-2,0-2.84-.44-2.83-2.65s1-2.41,2.77-2.4c12.31.06,24.61,0,36.92,0s24.8,0,37.2,0c2.07,0,2.75.44,2.73,2.63S161.11,119.49,159.24,119.49Zm-.32-11.93c-12.31,0-24.62,0-36.93,0s-24.43,0-36.64,0c-1.71,0-2.74,0-2.76-2.31s1.2-2.23,2.81-2.23q36.79,0,73.57,0c1.43,0,2.95-.5,2.93,2.08S160.69,107.56,158.93,107.56Zm2.9-12.36c-.49,1.49-1.74.86-2.64.86-12.4,0-24.79,0-37.19,0s-24.6,0-36.91,0c-1.92,0-2.88-.25-2.91-2.57,0-2.48,1.2-2.44,3-2.43q36.91,0,73.81,0C161.65,91.14,162.67,92.6,161.82,95.2Z"/></svg>