<svg id="Layer_1" data-name="Layer 1" xmlns="http://www.w3.org/2000/svg" viewBox="0 0 247.59 127.25"><defs><style>.cls-1{fill:#0373b9;}</style></defs><title>SOL</title><path class="cls-1" d="M30.09,88.2a.67.67,0,1,0,.95-.95L29,85.2a.67.67,0,1,0-.95.95l2.05,2.05Z"/><path class="cls-1" d="M30.32,90a.67.67,0,0,0-.67-.67h-2.9a.67.67,0,1,0,0,1.34h2.9a.67.67,0,0,0,.67-.67Z"/><path class="cls-1" d="M30.17,91.86l-2.05,2.05a.67.67,0,1,0,.95.95l2.05-2.05a.67.67,0,0,0-.95-.95Z"/><path class="cls-1" d="M33,92.58a.67.67,0,0,0-.67.67v2.9a.67.67,0,1,0,1.34,0v-2.9a.67.67,0,0,0-.67-.67Z"/><path class="cls-1" d="M35.73,91.78a.67.67,0,1,0-.95.95l2.05,2.05a.67.67,0,0,0,.95-.95l-2.05-2.05Z"/><path class="cls-1" d="M39.07,89.26h-2.9a.67.67,0,1,0,0,1.34h2.9a.67.67,0,0,0,0-1.34Z"/><path class="cls-1" d="M35.17,88.32a.67.67,0,0,0,.47-.2l2.05-2.05a.67.67,0,1,0-.95-.95L34.7,87.17a.67.67,0,0,0,.47,1.14Z"/><path class="cls-1" d="M32.85,87.4a.67.67,0,0,0,.67-.67v-2.9a.67.67,0,0,0-1.34,0v2.9a.67.67,0,0,0,.67.67Z"/><path class="cls-1" d="M30.06,15.78a.88.88,0,0,0-.88.88v3.82a.88.88,0,1,0,1.76,0V16.66a.88.88,0,0,0-.88-.88Z"/><path class="cls-1" d="M30.06,24.6a.88.88,0,0,0-.88.88V29.3a.88.88,0,1,0,1.76,0V25.48a.88.88,0,0,0-.88-.88Z"/><path class="cls-1" d="M36.37,22.1H32.55a.88.88,0,1,0,0,1.76h3.82a.88.88,0,1,0,0-1.76Z"/><path class="cls-1" d="M27.56,22.1H23.74a.88.88,0,0,0,0,1.76h3.82a.88.88,0,0,0,0-1.76Z"/><path class="cls-1" d="M247.31,72.7a1,1,0,0,0,0-1.35l-2.93-2.93A1,1,0,0,0,243,69.77L246,72.7a1,1,0,0,0,1.35,0Z"/><path class="cls-1" d="M240.56,65.94a1,1,0,0,0,0-1.35l-2.93-2.93A1,1,0,0,0,236.28,63l2.93,2.93a1,1,0,0,0,1.35,0Z"/><path class="cls-1" d="M237.63,72.7l2.93-2.93a1,1,0,1,0-1.35-1.35l-2.93,2.93a1,1,0,0,0,1.35,1.35Z"/><path class="cls-1" d="M244.39,65.94,247.31,63A1,1,0,0,0,246,61.67L243,64.59a1,1,0,0,0,1.35,1.35Z"/><path class="cls-1" d="M234.77,8.57a2.89,2.89,0,1,0,2.89,2.89,2.89,2.89,0,0,0-2.89-2.89Zm0,7a4.11,4.11,0,1,1,4.11-4.11,4.11,4.11,0,0,1-4.11,4.11Z"/><path class="cls-1" d="M236,112.33l-3.47,3.47-3.47-3.47a.8.8,0,1,0-1.13,1.13l3.47,3.47-3.47,3.47a.8.8,0,1,0,1.13,1.13l3.47-3.47,3.47,3.47a.8.8,0,1,0,1.13-1.13l-3.47-3.47,3.47-3.47a.8.8,0,0,0-1.13-1.13Z"/><path class="cls-1" d="M6.23,117.38a5.57,5.57,0,0,1,4.91-4.82.83.83,0,1,1,.18,1.64,3.92,3.92,0,1,0,3.49,1.44.83.83,0,1,1,1.29-1,5.57,5.57,0,1,1-9.86,2.78Z"/><path class="cls-1" d="M218.93,91.81a2.21,2.21,0,1,1-2.21-2.21,2.21,2.21,0,0,1,2.21,2.21Z"/><path class="cls-1" d="M14.63,6.15a2.21,2.21,0,1,1-2.21-2.21,2.21,2.21,0,0,1,2.21,2.21Z"/><path class="cls-1" d="M6.94,60.35V57.77a2.45,2.45,0,0,1,2.45-2.45H12c.76-.67.3-1.51-.36-1.51H9.39a2.45,2.45,0,0,1-2.45-2.45V48.77c-.67-.76-1.51-.3-1.51.36v2.21A2.45,2.45,0,0,1,3,53.81H.39c-.76.67-.3,1.51.36,1.51H3a2.45,2.45,0,0,1,2.45,2.45V60c0,.66.85,1.12,1.51.36Z"/><path class="cls-1" d="M214.42,38V34.68a3.17,3.17,0,0,1,3.17-3.17h3.33c1-.86.38-2-.47-2h-2.86a3.17,3.17,0,0,1-3.17-3.17V23.06c-.86-1-2-.38-2,.47v2.86a3.17,3.17,0,0,1-3.17,3.17H206c-1,.86-.38,2,.47,2h2.86a3.17,3.17,0,0,1,3.17,3.17v2.86c0,.85,1.09,1.45,2,.47Z"/><path class="cls-1" d="M138.81,109.2a21.52,21.52,0,0,1,9.28-11.34,15.55,15.55,0,0,1-4.26-15.23,16.34,16.34,0,0,1,13.89-11.85,17.81,17.81,0,0,1,1.92-.11h0a16.59,16.59,0,0,1,12,5V0H98.57V22.5H76.07V127.25h61c0-.19-.09-.33-.11-.54C136.32,119.84,136.92,114.28,138.81,109.2Z"/><path class="cls-1" d="M180.51,110.76a17.64,17.64,0,0,0-10.17-11.94c-.61-.27-.61-.31,0-.72a12.21,12.21,0,0,0,3.24-17,13,13,0,0,0-10.77-5.56,14.06,14.06,0,0,0-1.52.08,12.71,12.71,0,0,0-10.85,9.24,12.28,12.28,0,0,0,5,13.24c.6.43.6.47-.05.76a17.49,17.49,0,0,0-9.54,10.28,33.7,33.7,0,0,0-1.58,15,3.08,3.08,0,0,0,.11.67c.1.32.32.37,1,.47a129,129,0,0,0,16.26,1h1.3c2.09,0,4.18-.06,6.27-.14a114.6,114.6,0,0,0,11.44-.93.83.83,0,0,0,.84-.87c.06-1,.15-2,.2-3.06A31.43,31.43,0,0,0,180.51,110.76Z"/><polygon class="cls-1" points="95.1 0 76.07 19.04 95.1 19.04 95.1 0"/></svg>