<svg id="Layer_1" data-name="Layer 1" xmlns="http://www.w3.org/2000/svg" viewBox="0 0 100 100"><defs><style>.cls-1{fill:#943cbb;}.cls-2{fill:#fff;}</style></defs><title>SOL</title><circle class="cls-1" cx="50" cy="50" r="50"/><path class="cls-2" d="M28,65.16V44.8c.14-.12.26-.09.38,0a37.73,37.73,0,0,0,5.91,4.39c3.53,2.44,7.06,4.88,10.54,7.4a12.67,12.67,0,0,0,3.91,1.89,6.7,6.7,0,0,0,4.47-.4,18,18,0,0,0,3.88-2.33c2.66-1.93,5.36-3.81,8.07-5.67,1.79-1.22,3.6-2.42,5.36-3.69a14.48,14.48,0,0,0,1.75-1.51c.13-.13.25-.32.47-.13V65.16A3.66,3.66,0,0,1,72,67.29,4,4,0,0,1,69,68.79H31.88a4,4,0,0,1-3.41-1.95A4.16,4.16,0,0,1,28,65.16Z"/><path class="cls-2" d="M28,38.51V37.2a5.86,5.86,0,0,0,.12-.94,3.74,3.74,0,0,1,3.62-3.05q18.62,0,37.25,0a4.06,4.06,0,0,1,3.61,2.64c.08.33.06.67.15,1v1.22a1.33,1.33,0,0,0-.05.6A6.14,6.14,0,0,1,71,42.36a19.43,19.43,0,0,1-3.87,3.18C63,48.35,58.93,51.15,54.91,54a18.53,18.53,0,0,1-2.51,1.5,4.6,4.6,0,0,1-4.62-.32c-1.71-1-3.26-2.19-4.87-3.32l-6.77-4.72c-1.61-1.13-3.28-2.18-4.8-3.41a12.65,12.65,0,0,1-2.74-3.2A5.14,5.14,0,0,1,28,38.51Z"/></svg>