<svg id="Layer_1" data-name="Layer 1" xmlns="http://www.w3.org/2000/svg" viewBox="0 0 247.59 119.74"><defs><style>.cls-1{fill:#0373b9;}</style></defs><title>Our Solutions</title><path class="cls-1" d="M30.09,84.26a.67.67,0,1,0,.95-.95L29,81.27a.67.67,0,1,0-.95.95l2.05,2.05Z"/><path class="cls-1" d="M30.32,86.11a.67.67,0,0,0-.67-.67h-2.9a.67.67,0,1,0,0,1.34h2.9a.67.67,0,0,0,.67-.67Z"/><path class="cls-1" d="M30.17,87.93,28.12,90a.67.67,0,1,0,.95.95l2.05-2.05a.67.67,0,1,0-.95-.95Z"/><path class="cls-1" d="M33,88.65a.67.67,0,0,0-.67.67v2.9a.67.67,0,1,0,1.34,0v-2.9a.67.67,0,0,0-.67-.67Z"/><path class="cls-1" d="M35.73,87.85a.67.67,0,1,0-.95.95l2.05,2.05a.67.67,0,0,0,.95-.95l-2.05-2.05Z"/><path class="cls-1" d="M39.07,85.33h-2.9a.67.67,0,1,0,0,1.34h2.9a.67.67,0,0,0,0-1.34Z"/><path class="cls-1" d="M35.17,84.38a.67.67,0,0,0,.47-.2l2.05-2.05a.67.67,0,0,0-.95-.95L34.7,83.24a.67.67,0,0,0,.47,1.14Z"/><path class="cls-1" d="M32.85,83.47a.67.67,0,0,0,.67-.67V79.9a.67.67,0,0,0-1.34,0v2.9a.67.67,0,0,0,.67.67Z"/><path class="cls-1" d="M30.06,11.84a.88.88,0,0,0-.88.88v3.82a.88.88,0,1,0,1.76,0V12.73a.88.88,0,0,0-.88-.88Z"/><path class="cls-1" d="M30.06,20.66a.88.88,0,0,0-.88.88v3.82a.88.88,0,1,0,1.76,0V21.54a.88.88,0,0,0-.88-.88Z"/><path class="cls-1" d="M36.37,18.16H32.55a.88.88,0,1,0,0,1.76h3.82a.88.88,0,1,0,0-1.76Z"/><path class="cls-1" d="M27.56,18.16H23.74a.88.88,0,0,0,0,1.76h3.82a.88.88,0,0,0,0-1.76Z"/><path class="cls-1" d="M247.31,68.76a1,1,0,0,0,0-1.35l-2.93-2.93A1,1,0,0,0,243,65.84L246,68.76a1,1,0,0,0,1.35,0Z"/><path class="cls-1" d="M240.56,62a1,1,0,0,0,0-1.35l-2.93-2.93a1,1,0,0,0-1.35,1.35L239.21,62a1,1,0,0,0,1.35,0Z"/><path class="cls-1" d="M237.63,68.76l2.93-2.93a1,1,0,1,0-1.35-1.35l-2.93,2.93a1,1,0,0,0,1.35,1.35Z"/><path class="cls-1" d="M244.39,62l2.93-2.93A1,1,0,0,0,246,57.73L243,60.66A1,1,0,0,0,244.39,62Z"/><path class="cls-1" d="M234.77,4.63a2.89,2.89,0,1,0,2.89,2.89,2.89,2.89,0,0,0-2.89-2.89Zm0,7a4.11,4.11,0,1,1,4.11-4.11,4.11,4.11,0,0,1-4.11,4.11Z"/><path class="cls-1" d="M236,108.4l-3.47,3.47-3.47-3.47a.8.8,0,1,0-1.13,1.13L231.4,113l-3.47,3.47a.8.8,0,1,0,1.13,1.13l3.47-3.47,3.47,3.47a.8.8,0,0,0,1.13-1.13L233.65,113l3.47-3.47A.8.8,0,0,0,236,108.4Z"/><path class="cls-1" d="M6.23,113.45a5.57,5.57,0,0,1,4.91-4.82.83.83,0,1,1,.18,1.64,3.92,3.92,0,1,0,3.49,1.44.83.83,0,1,1,1.29-1,5.57,5.57,0,1,1-9.86,2.78Z"/><path class="cls-1" d="M218.93,87.87a2.21,2.21,0,1,1-2.21-2.21,2.21,2.21,0,0,1,2.21,2.21Z"/><path class="cls-1" d="M14.63,2.21A2.21,2.21,0,1,1,12.43,0a2.21,2.21,0,0,1,2.21,2.21Z"/><path class="cls-1" d="M6.94,56.41V53.84a2.45,2.45,0,0,1,2.45-2.45H12c.76-.67.3-1.51-.36-1.51H9.39a2.45,2.45,0,0,1-2.45-2.45V44.84c-.67-.76-1.51-.3-1.51.36v2.21A2.45,2.45,0,0,1,3,49.87H.39c-.76.67-.3,1.51.36,1.51H3a2.45,2.45,0,0,1,2.45,2.45v2.21c0,.66.85,1.12,1.51.36Z"/><path class="cls-1" d="M214.42,34.07V30.74a3.17,3.17,0,0,1,3.17-3.17h3.33c1-.86.38-2-.47-2h-2.86a3.17,3.17,0,0,1-3.17-3.17V19.12c-.86-1-2-.38-2,.47v2.86a3.17,3.17,0,0,1-3.17,3.17H206c-1,.86-.38,2,.47,2h2.86a3.17,3.17,0,0,1,3.17,3.17V33.6c0,.85,1.09,1.45,2,.47Z"/><path class="cls-1" d="M64.35,97.5V43.4c.37-.33.69-.23,1,.09,4.6,4.74,10.35,8,15.71,11.66,9.38,6.49,18.76,13,28,19.67a33.67,33.67,0,0,0,10.39,5c4.1,1.2,8,.46,11.89-1.07a47.92,47.92,0,0,0,10.32-6.18c7.07-5.13,14.24-10.13,21.45-15.06,4.75-3.25,9.56-6.44,14.24-9.79a38.47,38.47,0,0,0,4.65-4c.34-.34.67-.84,1.25-.33V97.5c-.25,2-.55,4-2,5.65a10.59,10.59,0,0,1-8.17,4q-49.26,0-98.52,0c-4,0-6.9-2-9.07-5.17C64.56,100.6,64.64,99,64.35,97.5Z"/><path class="cls-1" d="M64.35,26.68V23.19a15.57,15.57,0,0,0,.33-2.49c.48-4.58,5.28-8.11,9.62-8.11q49.48.08,99,0c4.4,0,8.79,3.78,9.59,7,.21.87.16,1.77.39,2.63v3.25a3.52,3.52,0,0,0-.14,1.59c-.2,3.94-2.31,7-4.74,9.8-2.92,3.42-6.61,5.91-10.27,8.45-10.81,7.49-21.66,14.92-32.35,22.58a49.23,49.23,0,0,1-6.66,4c-4.28,2.15-8.3,1.41-12.26-.85-4.55-2.6-8.67-5.82-12.94-8.81-6-4.19-12-8.34-18-12.53-4.28-3-8.7-5.79-12.76-9.07a33.61,33.61,0,0,1-7.29-8.51C64.77,30.45,64.64,28.55,64.35,26.68Z"/></svg>