<svg id="Layer_1" data-name="Layer 1" xmlns="http://www.w3.org/2000/svg" viewBox="0 0 247.59 127.25"><defs><style>.cls-1{fill:#0373b9;}</style></defs><title>Our Solutions</title><path class="cls-1" d="M30.09,87.9A.67.67,0,0,0,31,87L29,84.9a.67.67,0,0,0-.95.95l2.05,2.05Z"/><path class="cls-1" d="M30.32,89.75a.67.67,0,0,0-.67-.67h-2.9a.67.67,0,1,0,0,1.34h2.9a.67.67,0,0,0,.67-.67Z"/><path class="cls-1" d="M30.17,91.56l-2.05,2.05a.67.67,0,1,0,.95.95l2.05-2.05a.67.67,0,0,0-.95-.95Z"/><path class="cls-1" d="M33,92.28a.67.67,0,0,0-.67.67v2.9a.67.67,0,1,0,1.34,0V93a.67.67,0,0,0-.67-.67Z"/><path class="cls-1" d="M35.73,91.48a.67.67,0,0,0-.95.95l2.05,2.05a.67.67,0,0,0,.95-.95l-2.05-2.05Z"/><path class="cls-1" d="M39.07,89h-2.9a.67.67,0,1,0,0,1.34h2.9a.67.67,0,0,0,0-1.34Z"/><path class="cls-1" d="M35.17,88a.67.67,0,0,0,.47-.2l2.05-2.05a.67.67,0,0,0-.95-.95L34.7,86.87A.67.67,0,0,0,35.17,88Z"/><path class="cls-1" d="M32.85,87.1a.67.67,0,0,0,.67-.67v-2.9a.67.67,0,0,0-1.34,0v2.9a.67.67,0,0,0,.67.67Z"/><path class="cls-1" d="M30.06,15.48a.88.88,0,0,0-.88.88v3.82a.88.88,0,1,0,1.76,0V16.36a.88.88,0,0,0-.88-.88Z"/><path class="cls-1" d="M30.06,24.3a.88.88,0,0,0-.88.88V29a.88.88,0,1,0,1.76,0V25.18a.88.88,0,0,0-.88-.88Z"/><path class="cls-1" d="M36.37,21.8H32.55a.88.88,0,1,0,0,1.76h3.82a.88.88,0,1,0,0-1.76Z"/><path class="cls-1" d="M27.56,21.8H23.74a.88.88,0,0,0,0,1.76h3.82a.88.88,0,0,0,0-1.76Z"/><path class="cls-1" d="M247.31,72.4a1,1,0,0,0,0-1.35l-2.93-2.93A1,1,0,0,0,243,69.47L246,72.4a1,1,0,0,0,1.35,0Z"/><path class="cls-1" d="M240.56,65.64a1,1,0,0,0,0-1.35l-2.93-2.93a1,1,0,0,0-1.35,1.35l2.93,2.93a1,1,0,0,0,1.35,0Z"/><path class="cls-1" d="M237.63,72.4l2.93-2.93a1,1,0,1,0-1.35-1.35L236.28,71a1,1,0,0,0,1.35,1.35Z"/><path class="cls-1" d="M244.39,65.64l2.93-2.93A1,1,0,0,0,246,61.37L243,64.29a1,1,0,0,0,1.35,1.35Z"/><path class="cls-1" d="M234.77,8.27a2.89,2.89,0,1,0,2.89,2.89,2.89,2.89,0,0,0-2.89-2.89Zm0,7a4.11,4.11,0,1,1,4.11-4.11,4.11,4.11,0,0,1-4.11,4.11Z"/><path class="cls-1" d="M236,112l-3.47,3.47L229.05,112a.8.8,0,1,0-1.13,1.13l3.47,3.47-3.47,3.47a.8.8,0,1,0,1.13,1.13l3.47-3.47,3.47,3.47a.8.8,0,0,0,1.13-1.13l-3.47-3.47,3.47-3.47A.8.8,0,0,0,236,112Z"/><path class="cls-1" d="M6.23,117.08a5.57,5.57,0,0,1,4.91-4.82.83.83,0,1,1,.18,1.64,3.92,3.92,0,1,0,3.49,1.44.83.83,0,1,1,1.29-1,5.57,5.57,0,1,1-9.86,2.78Z"/><path class="cls-1" d="M218.93,91.51a2.21,2.21,0,1,1-2.21-2.21,2.21,2.21,0,0,1,2.21,2.21Z"/><path class="cls-1" d="M14.63,5.85a2.21,2.21,0,1,1-2.21-2.21,2.21,2.21,0,0,1,2.21,2.21Z"/><path class="cls-1" d="M6.94,60.05V57.47A2.45,2.45,0,0,1,9.39,55H12c.76-.67.3-1.51-.36-1.51H9.39a2.45,2.45,0,0,1-2.45-2.45V48.47c-.67-.76-1.51-.3-1.51.36v2.21A2.45,2.45,0,0,1,3,53.51H.39C-.37,54.17.1,55,.76,55H3a2.45,2.45,0,0,1,2.45,2.45v2.21c0,.66.85,1.12,1.51.36Z"/><path class="cls-1" d="M214.42,37.71V34.38a3.17,3.17,0,0,1,3.17-3.17h3.33c1-.86.38-2-.47-2h-2.86a3.17,3.17,0,0,1-3.17-3.17V22.76c-.86-1-2-.38-2,.47v2.86a3.17,3.17,0,0,1-3.17,3.17H206c-1,.86-.38,2,.47,2h2.86a3.17,3.17,0,0,1,3.17,3.17v2.86c0,.85,1.09,1.45,2,.47Z"/><path class="cls-1" d="M141.5,47.52q0,16.67,0,33.34c0,.42-.13.91,0,1.25.3.57.71,1.3,1.24,1.47.37.12,1.22-.46,1.48-.93a35.08,35.08,0,0,0,1.46-3.48c2.81-6.69,5.52-13.42,8.48-20a6.93,6.93,0,0,1,9.51-3.58c3.79,1.66,5,4.42,3.59,8.52-2.6,7.6-5.26,15.18-7.89,22.77-1.91,5.49-3.9,11-5.71,16.49-3.36,10.28-10.43,17-20.34,20.67-10.17,3.74-20.63,4.67-31,.61C93,120.92,87,113.95,83.73,104.41,79.89,93,79.48,81.23,79.82,69.36c.4-13.93.7-27.86,1-41.79a5.64,5.64,0,0,1,5.42-5.82c3.66-.25,6.65,1.91,7,5.24a44.85,44.85,0,0,1,.11,5q0,11.35,0,22.71c0,.42-.11.93.09,1.24.32.5.84,1.19,1.28,1.2a2.07,2.07,0,0,0,1.42-1.07,4,4,0,0,0,.12-1.77q0-19,0-38a5.84,5.84,0,0,1,4.18-6c3-1,6.38,0,7.86,2.4a7.59,7.59,0,0,1,1,3.72c.07,11.83,0,23.67,0,35.5,0,.54-.14,1.2.11,1.58a2.21,2.21,0,0,0,1.47,1c.39,0,1-.6,1.18-1.06a4,4,0,0,0,.09-1.6c0-15,.13-29.92,0-44.87-.07-6.51,6.39-8.17,10.61-6A4.49,4.49,0,0,1,125.38,5c.07,3.24.09,6.49.09,9.73q0,18.65,0,37.3c0,.12,0,.24,0,.36,0,1.09,0,2.42,1.48,2.4s1.46-1.3,1.46-2.42q0-18.29,0-36.58c0-.84,0-1.69.06-2.52a6.24,6.24,0,0,1,6.82-5.93,6.17,6.17,0,0,1,6.21,6.51Q141.51,30.67,141.5,47.52Z"/></svg>