<svg id="Layer_1" data-name="Layer 1" xmlns="http://www.w3.org/2000/svg" viewBox="0 0 247.59 127.25"><defs><style>.cls-1{fill:#0373b9;}</style></defs><title>Our Solutions</title><path class="cls-1" d="M30.09,87.9A.67.67,0,0,0,31,87L29,84.9a.67.67,0,0,0-.95.95l2.05,2.05Z"/><path class="cls-1" d="M30.32,89.75a.67.67,0,0,0-.67-.67h-2.9a.67.67,0,1,0,0,1.34h2.9a.67.67,0,0,0,.67-.67Z"/><path class="cls-1" d="M30.17,91.56l-2.05,2.05a.67.67,0,1,0,.95.95l2.05-2.05a.67.67,0,0,0-.95-.95Z"/><path class="cls-1" d="M33,92.28a.67.67,0,0,0-.67.67v2.9a.67.67,0,1,0,1.34,0V93a.67.67,0,0,0-.67-.67Z"/><path class="cls-1" d="M35.73,91.48a.67.67,0,0,0-.95.95l2.05,2.05a.67.67,0,0,0,.95-.95l-2.05-2.05Z"/><path class="cls-1" d="M39.07,89h-2.9a.67.67,0,1,0,0,1.34h2.9a.67.67,0,0,0,0-1.34Z"/><path class="cls-1" d="M35.17,88a.67.67,0,0,0,.47-.2l2.05-2.05a.67.67,0,0,0-.95-.95L34.7,86.87A.67.67,0,0,0,35.17,88Z"/><path class="cls-1" d="M32.85,87.1a.67.67,0,0,0,.67-.67v-2.9a.67.67,0,0,0-1.34,0v2.9a.67.67,0,0,0,.67.67Z"/><path class="cls-1" d="M30.06,15.48a.88.88,0,0,0-.88.88v3.82a.88.88,0,1,0,1.76,0V16.36a.88.88,0,0,0-.88-.88Z"/><path class="cls-1" d="M30.06,24.3a.88.88,0,0,0-.88.88V29a.88.88,0,1,0,1.76,0V25.18a.88.88,0,0,0-.88-.88Z"/><path class="cls-1" d="M36.37,21.8H32.55a.88.88,0,1,0,0,1.76h3.82a.88.88,0,1,0,0-1.76Z"/><path class="cls-1" d="M27.56,21.8H23.74a.88.88,0,0,0,0,1.76h3.82a.88.88,0,0,0,0-1.76Z"/><path class="cls-1" d="M247.31,72.4a1,1,0,0,0,0-1.35l-2.93-2.93A1,1,0,0,0,243,69.47L246,72.4a1,1,0,0,0,1.35,0Z"/><path class="cls-1" d="M240.56,65.64a1,1,0,0,0,0-1.35l-2.93-2.93a1,1,0,0,0-1.35,1.35l2.93,2.93a1,1,0,0,0,1.35,0Z"/><path class="cls-1" d="M237.63,72.4l2.93-2.93a1,1,0,1,0-1.35-1.35L236.28,71a1,1,0,0,0,1.35,1.35Z"/><path class="cls-1" d="M244.39,65.64l2.93-2.93A1,1,0,0,0,246,61.37L243,64.29a1,1,0,0,0,1.35,1.35Z"/><path class="cls-1" d="M234.77,8.27a2.89,2.89,0,1,0,2.89,2.89,2.89,2.89,0,0,0-2.89-2.89Zm0,7a4.11,4.11,0,1,1,4.11-4.11,4.11,4.11,0,0,1-4.11,4.11Z"/><path class="cls-1" d="M236,112l-3.47,3.47L229.05,112a.8.8,0,1,0-1.13,1.13l3.47,3.47-3.47,3.47a.8.8,0,1,0,1.13,1.13l3.47-3.47,3.47,3.47a.8.8,0,0,0,1.13-1.13l-3.47-3.47,3.47-3.47A.8.8,0,0,0,236,112Z"/><path class="cls-1" d="M6.23,117.08a5.57,5.57,0,0,1,4.91-4.82.83.83,0,1,1,.18,1.64,3.92,3.92,0,1,0,3.49,1.44.83.83,0,1,1,1.29-1,5.57,5.57,0,1,1-9.86,2.78Z"/><path class="cls-1" d="M218.93,91.51a2.21,2.21,0,1,1-2.21-2.21,2.21,2.21,0,0,1,2.21,2.21Z"/><path class="cls-1" d="M14.63,5.85a2.21,2.21,0,1,1-2.21-2.21,2.21,2.21,0,0,1,2.21,2.21Z"/><path class="cls-1" d="M6.94,60.05V57.47A2.45,2.45,0,0,1,9.39,55H12c.76-.67.3-1.51-.36-1.51H9.39a2.45,2.45,0,0,1-2.45-2.45V48.47c-.67-.76-1.51-.3-1.51.36v2.21A2.45,2.45,0,0,1,3,53.51H.39C-.37,54.17.1,55,.76,55H3a2.45,2.45,0,0,1,2.45,2.45v2.21c0,.66.85,1.12,1.51.36Z"/><path class="cls-1" d="M214.42,37.71V34.38a3.17,3.17,0,0,1,3.17-3.17h3.33c1-.86.38-2-.47-2h-2.86a3.17,3.17,0,0,1-3.17-3.17V22.76c-.86-1-2-.38-2,.47v2.86a3.17,3.17,0,0,1-3.17,3.17H206c-1,.86-.38,2,.47,2h2.86a3.17,3.17,0,0,1,3.17,3.17v2.86c0,.85,1.09,1.45,2,.47Z"/><path class="cls-1" d="M168.76,80.35a27.44,27.44,0,0,0-6.94-5v.82L153,89.42c0,1.66,0,3.32,0,5,0,2,0,4.06,0,6.09a3.09,3.09,0,1,1-6.18,0c0-.57,0-1.15,0-1.72L132,121.14a27.48,27.48,0,0,0,36.71-40.8ZM149.93,116a3.08,3.08,0,1,1,3.1-3.15A3.11,3.11,0,0,1,149.93,116Z"/><path class="cls-1" d="M146.86,88.2a3.09,3.09,0,1,1,6.17,0c0,.4,0,.8,0,1.21l8.79-13.29v-.82a27.48,27.48,0,0,0-31.93,43.9,27.77,27.77,0,0,0,2.15,1.93l14.81-22.39Q146.85,93.48,146.86,88.2Z"/><polygon class="cls-1" points="92.21 0 70.79 21.42 92.21 21.42 92.21 0"/><polygon class="cls-1" points="70.79 21.42 70.79 21.42 92.21 21.42 92.21 0 70.79 21.42"/><path class="cls-1" d="M125.41,75.86a33.67,33.67,0,0,1,36.42-7.46V0H98.56V27.77H70.79v93.38H123.1a33.87,33.87,0,0,1,2.31-45.29Z"/></svg>