<svg id="Layer_1" data-name="Layer 1" xmlns="http://www.w3.org/2000/svg" viewBox="0 0 247.59 119.74"><defs><style>.cls-1{fill:#0373b9;}</style></defs><title>Our Solutions</title><path class="cls-1" d="M30.09,84.26a.67.67,0,1,0,.95-.95L29,81.27a.67.67,0,1,0-.95.95l2.05,2.05Z"/><path class="cls-1" d="M30.32,86.11a.67.67,0,0,0-.67-.67h-2.9a.67.67,0,1,0,0,1.34h2.9a.67.67,0,0,0,.67-.67Z"/><path class="cls-1" d="M30.17,87.93,28.12,90a.67.67,0,1,0,.95.95l2.05-2.05a.67.67,0,1,0-.95-.95Z"/><path class="cls-1" d="M33,88.65a.67.67,0,0,0-.67.67v2.9a.67.67,0,1,0,1.34,0v-2.9a.67.67,0,0,0-.67-.67Z"/><path class="cls-1" d="M35.73,87.85a.67.67,0,1,0-.95.95l2.05,2.05a.67.67,0,0,0,.95-.95l-2.05-2.05Z"/><path class="cls-1" d="M39.07,85.33h-2.9a.67.67,0,1,0,0,1.34h2.9a.67.67,0,0,0,0-1.34Z"/><path class="cls-1" d="M35.17,84.38a.67.67,0,0,0,.47-.2l2.05-2.05a.67.67,0,0,0-.95-.95L34.7,83.24a.67.67,0,0,0,.47,1.14Z"/><path class="cls-1" d="M32.85,83.47a.67.67,0,0,0,.67-.67V79.9a.67.67,0,0,0-1.34,0v2.9a.67.67,0,0,0,.67.67Z"/><path class="cls-1" d="M30.06,11.84a.88.88,0,0,0-.88.88v3.82a.88.88,0,1,0,1.76,0V12.73a.88.88,0,0,0-.88-.88Z"/><path class="cls-1" d="M30.06,20.66a.88.88,0,0,0-.88.88v3.82a.88.88,0,1,0,1.76,0V21.54a.88.88,0,0,0-.88-.88Z"/><path class="cls-1" d="M36.37,18.16H32.55a.88.88,0,1,0,0,1.76h3.82a.88.88,0,1,0,0-1.76Z"/><path class="cls-1" d="M27.56,18.16H23.74a.88.88,0,0,0,0,1.76h3.82a.88.88,0,0,0,0-1.76Z"/><path class="cls-1" d="M247.31,68.76a1,1,0,0,0,0-1.35l-2.93-2.93A1,1,0,0,0,243,65.84L246,68.76a1,1,0,0,0,1.35,0Z"/><path class="cls-1" d="M240.56,62a1,1,0,0,0,0-1.35l-2.93-2.93a1,1,0,0,0-1.35,1.35L239.21,62a1,1,0,0,0,1.35,0Z"/><path class="cls-1" d="M237.63,68.76l2.93-2.93a1,1,0,1,0-1.35-1.35l-2.93,2.93a1,1,0,0,0,1.35,1.35Z"/><path class="cls-1" d="M244.39,62l2.93-2.93A1,1,0,0,0,246,57.73L243,60.66A1,1,0,0,0,244.39,62Z"/><path class="cls-1" d="M234.77,4.63a2.89,2.89,0,1,0,2.89,2.89,2.89,2.89,0,0,0-2.89-2.89Zm0,7a4.11,4.11,0,1,1,4.11-4.11,4.11,4.11,0,0,1-4.11,4.11Z"/><path class="cls-1" d="M236,108.4l-3.47,3.47-3.47-3.47a.8.8,0,1,0-1.13,1.13L231.4,113l-3.47,3.47a.8.8,0,1,0,1.13,1.13l3.47-3.47,3.47,3.47a.8.8,0,0,0,1.13-1.13L233.65,113l3.47-3.47A.8.8,0,0,0,236,108.4Z"/><path class="cls-1" d="M6.23,113.45a5.57,5.57,0,0,1,4.91-4.82.83.83,0,1,1,.18,1.64,3.92,3.92,0,1,0,3.49,1.44.83.83,0,1,1,1.29-1,5.57,5.57,0,1,1-9.86,2.78Z"/><path class="cls-1" d="M218.93,87.87a2.21,2.21,0,1,1-2.21-2.21,2.21,2.21,0,0,1,2.21,2.21Z"/><path class="cls-1" d="M14.63,2.21A2.21,2.21,0,1,1,12.43,0a2.21,2.21,0,0,1,2.21,2.21Z"/><path class="cls-1" d="M6.94,56.41V53.84a2.45,2.45,0,0,1,2.45-2.45H12c.76-.67.3-1.51-.36-1.51H9.39a2.45,2.45,0,0,1-2.45-2.45V44.84c-.67-.76-1.51-.3-1.51.36v2.21A2.45,2.45,0,0,1,3,49.87H.39c-.76.67-.3,1.51.36,1.51H3a2.45,2.45,0,0,1,2.45,2.45v2.21c0,.66.85,1.12,1.51.36Z"/><path class="cls-1" d="M214.42,34.07V30.74a3.17,3.17,0,0,1,3.17-3.17h3.33c1-.86.38-2-.47-2h-2.86a3.17,3.17,0,0,1-3.17-3.17V19.12c-.86-1-2-.38-2,.47v2.86a3.17,3.17,0,0,1-3.17,3.17H206c-1,.86-.38,2,.47,2h2.86a3.17,3.17,0,0,1,3.17,3.17V33.6c0,.85,1.09,1.45,2,.47Z"/><path class="cls-1" d="M177.46,80.29a28.62,28.62,0,0,0-7.2-16.6c-8.53-9.41-19.09-12.65-31.33-9.31A29.83,29.83,0,0,0,117.3,86.63c1.58,12.7,8.67,21.18,20.66,25.57a38.23,38.23,0,0,0,7.08,1.5h4.63c.39-.22.82-.07,1.23-.1a24.34,24.34,0,0,0,6.69-1.07A30.72,30.72,0,0,0,174.17,98.6a20.73,20.73,0,0,0,3.13-8.93,34.36,34.36,0,0,1,.33-3.93V81.11A7.46,7.46,0,0,1,177.46,80.29Zm-30.12,19.94a3.35,3.35,0,1,1,3.37-3.42A3.38,3.38,0,0,1,147.33,100.23Zm3.38-16.91a3.36,3.36,0,1,1-6.72,0q0-6.67,0-13.35a3.36,3.36,0,1,1,6.71,0c0,2.24,0,4.48,0,6.73S150.73,81.11,150.71,83.32Z"/><path class="cls-1" d="M119.07,59.81c-.34-.75-1.17-.45-1.8-.45q-15.09,0-30.17,0a14.66,14.66,0,0,1-1.68,0A1.42,1.42,0,0,1,84,58,12.18,12.18,0,0,1,84,55a1.4,1.4,0,0,1,1.3-1.3,9.71,9.71,0,0,1,1.47-.06H125a3.23,3.23,0,0,0,2-.45,32.48,32.48,0,0,1,5.8-3.18,36.39,36.39,0,0,1,16.92-3c1.41.09,1.56,0,1.57-1.42,0-3-.18-6.11.06-9.14a7.57,7.57,0,0,0-2.77-6.67c-3.86-3.6-7.58-7.37-11.31-11.12q-2.56-2.56-5.14-5.1c-1.67-1.64-3.34-3.3-5-5A10,10,0,0,0,123.8,6H75.85c-1.48.27-3,.43-4.16,1.58S70.23,10.36,70,11.92V94.36c.29,1.21.21,2.52,1.09,3.56a7.3,7.3,0,0,0,5.65,2.83q18.35.07,36.69,0c1.42,0,1.62-.28,1-1.55a40.84,40.84,0,0,1-3.29-11.26c-.23-1.68-.25-1.68-1.94-1.69H86.82c-2.61,0-2.88-.28-2.87-2.91,0-2.47.3-2.77,2.8-2.77H109a9.93,9.93,0,0,0,1.26,0,.74.74,0,0,0,.72-.64c.29-2,.69-4,1.05-6,.12-.67-.23-1.08-1-1.09H86.61c-2.33,0-2.65-.34-2.66-2.7V70c0-2.6.27-2.87,2.9-2.87,8.69,0,17.38,0,26.07,0a2.58,2.58,0,0,0,2.64-1.56,31.18,31.18,0,0,1,2.74-4.23C118.65,60.9,119.36,60.46,119.07,59.81ZM124,13.31c.35-.17.54.23.75.43L143,32c.22.22.61.43.5.75s-.61.24-.93.24c-2.24,0-4.49,0-6.73,0s-4.35,0-6.52,0a5.25,5.25,0,0,1-5.47-5.42c0-4.45,0-8.9,0-13.35C123.8,13.88,123.67,13.47,124,13.31ZM83.42,44.64c0-1.19.05-2.38,0-3.57s.31-1.42,1.38-1.4c3.78.05,7.57,0,11.35,0h39.3c1.82,0,1.82,0,1.83,1.78q0,1.79,0,3.57c0,1.31-.06,1.37-1.37,1.37H85.13C83.42,46.4,83.42,46.39,83.42,44.64Z"/></svg>