<?xml version="1.0" encoding="utf-8"?>
<!-- Generator: Adobe Illustrator 21.0.0, SVG Export Plug-In . SVG Version: 6.00 Build 0)  -->
<svg version="1.1" id="Layer_1" xmlns="http://www.w3.org/2000/svg" xmlns:xlink="http://www.w3.org/1999/xlink" x="0px" y="0px"
	 viewBox="0 0 35.2 47" style="enable-background:new 0 0 35.2 47;" xml:space="preserve">
<style type="text/css">
	.st0{fill:#00B2A9;}
	.st1{fill:#FFFFFF;}
	.st2{fill:#963CBD;}
	.st3{fill:#ED8B00;}
	.st4{fill:#2C3E50;}
	.st5{fill:none;stroke:#0373BB;stroke-miterlimit:10;}
	.st6{fill:#8E99A8;}
	.st7{fill:#00B1A8;}
	.st8{fill:#001871;}
	.st9{fill:#418FDE;}
	.st10{fill:#FFB40F;}
	.st11{opacity:0.85;}
	.st12{fill:none;stroke:#6D6E71;stroke-linecap:round;stroke-linejoin:round;}
	.st13{fill:#0373BB;}
	.st14{fill:#919396;}
	.st15{fill:#0373B9;}
	.st16{fill:#A7A9AC;}
	.st17{fill:#F4F4F4;}
	.st18{opacity:0.1;clip-path:url(#SVGID_2_);}
	.st19{fill:#606060;}
</style>
<g>
	<g>
		<g>
			<g>
				<polygon class="st1" points="35.2,22.5 35.2,22.5 35.2,22.5 				"/>
			</g>
			<g>
				<polygon class="st1" points="31.2,23.6 31.2,23.6 31.2,23.6 				"/>
			</g>
		</g>
		<g>
			<g>
				<g>
					<path class="st1" d="M22.5,7.8c-1.3-1.3-2.7-2.6-4-3.9c1.3-1.3,2.7-2.6,3.9-3.9c3.6,3.6,7.2,7.2,10.8,10.8
						c-3.6,3.6-7.2,7.2-10.7,10.8c-1.3-1.3-2.6-2.6-3.9-4c1.3-1.2,2.6-2.5,3.9-3.8c0-0.1-0.1-0.1-0.1-0.2c-2.8,0.2-5.7-0.4-8.5,0.4
						c-4.4,1.2-7.6,5.3-7.2,10.3c0.1,0.6-0.1,1-0.5,1.4c-1.3,1.2-2.6,2.5-4.1,4c-0.4-1.4-0.8-2.6-1-3.9c-0.7-5.9,1.2-10.9,5.9-14.6
						c2.6-2.1,5.6-3.1,9-3.2c2.1,0,4.2,0,6.3,0C22.4,7.9,22.5,7.9,22.5,7.8z"/>
				</g>
				<g>
					<path class="st1" d="M10.7,47C7.2,43.4,3.6,39.8,0,36.3c3.6-3.5,7.2-7.1,10.8-10.7c1.1,1.2,2.4,2.5,3.8,3.9
						c-1.2,1.2-2.6,2.5-3.9,3.8c0,0.1,0.1,0.2,0.1,0.3c2.6-0.1,5.2,0,7.8-0.4c4.5-0.8,7.8-4.9,7.8-9.5c0-1.2,0.3-2,1.1-2.8
						c1-0.9,2-2,3-2.9c0.1-0.1,0.2-0.2,0.5-0.4c0.3,1.4,0.8,2.6,0.9,3.9c0.7,6.9-2,12.2-8,15.8c-2.1,1.2-4.4,1.8-6.9,1.9
						c-2.1,0-4.2,0-6.5,0c1.5,1.4,2.8,2.7,4.2,4C13.3,44.4,12,45.7,10.7,47z"/>
				</g>
			</g>
		</g>
	</g>
</g>
</svg>
