<?xml version="1.0" encoding="utf-8"?>
<!-- Generator: Adobe Illustrator 21.0.0, SVG Export Plug-In . SVG Version: 6.00 Build 0)  -->
<svg version="1.1" id="Layer_1" xmlns="http://www.w3.org/2000/svg" xmlns:xlink="http://www.w3.org/1999/xlink" x="0px" y="0px"
	 viewBox="0 0 36.6 42.7" style="enable-background:new 0 0 36.6 42.7;" xml:space="preserve">
<style type="text/css">
	.st0{fill:#00B2A9;}
	.st1{fill:#FFFFFF;}
	.st2{fill:#963CBD;}
	.st3{fill:#ED8B00;}
	.st4{fill:#2C3E50;}
	.st5{fill:none;stroke:#0373BB;stroke-miterlimit:10;}
	.st6{fill:#8E99A8;}
	.st7{fill:#00B1A8;}
	.st8{fill:#001871;}
	.st9{fill:#418FDE;}
	.st10{fill:#FFB40F;}
	.st11{opacity:0.85;}
	.st12{fill:none;stroke:#6D6E71;stroke-linecap:round;stroke-linejoin:round;}
	.st13{fill:#0373BB;}
	.st14{fill:#919396;}
	.st15{fill:#0373B9;}
	.st16{fill:#A7A9AC;}
	.st17{fill:#F4F4F4;}
	.st18{opacity:0.1;clip-path:url(#SVGID_2_);}
	.st19{fill:#606060;}
</style>
<g>
	<g>
		<g>
			<g>
				<polygon class="st1" points="19.7,20.8 19.7,20.8 19.7,20.8 				"/>
			</g>
			<g>
				<polygon class="st1" points="15.7,21.9 15.7,21.9 15.7,21.9 				"/>
			</g>
		</g>
		<g>
			<g>
				<g>
					<path class="st1" d="M30.6,40.8c0-0.5,0.1-0.5,0.5-0.4c1.8,0.7,3.6,1.3,5.4,2c0-3.1,0-6.2,0-9.3c-1.8-0.5-3.5-1.3-5.5-1.9
						c1.9-0.7,3.6-1.5,5.5-1.9c0-3.1,0-6.2,0-9.3c-1.7,0.6-3.5,1.3-5.2,1.9c-0.8,0.3-0.8,0.3-0.8-0.5c0-1.4,0-2.9,0-4.5
						c0.8,0.8,1.6,1.4,2.3,2.1c0.8,0.8,0.8,0.8,1.6,0c0.7-0.7,2.1-2.4,2.1-2.5c-3.5-3.2-6.9-6.3-10.4-9.5c-2.4-2.2-4.8-4.4-7.2-6.6
						c-0.2-0.2-0.3-0.3-0.5-0.5c-0.1,0-0.2,0-0.3,0c-2,1.8-4.1,3.7-6.1,5.5c-0.4,0.3-0.8,0.7-1.2,1c-0.1,0.1-0.3,0.3-0.5,0.3
						c-0.2-0.1-0.1-0.3-0.1-0.5c0-1,0-1.9,0-2.9c0-0.6-0.2-0.8-0.8-0.8c-1,0-1.9,0-2.9,0c-0.6,0-0.8,0.2-0.8,0.8c0,2.3,0,4.6,0,6.9
						c0,0.6-0.2,1-0.6,1.3c-1.6,1.4-3.2,2.9-4.8,4.3C0.3,16.1,0,16.4,0,16.5c0.9,0.7,1.6,1.8,2.3,2.6c0.4,0.4,0.6,0.4,1,0.1
						c0.8-0.7,1.6-1.4,2.4-2.2c0.2,0.3,0.2,0.6,0.2,0.9c0,1.1,0,2.3,0,3.4c0,0.6-0.2,0.6-0.7,0.5c-1.3-0.5-2.6-1-3.9-1.5
						c-0.5-0.2-0.7-0.2-0.7,0.5c0,2.5,0,5.1,0,7.6c0,0.7,0.3,0.9,0.8,1.1C2.7,30,4,30.5,5.3,31C5.5,31,5.7,31.1,6,31.3
						c-1,0.4-1.8,0.7-2.7,1c-0.7,0.3-1.5,0.5-2.2,0.8c-0.4,0.1-0.6,0.3-0.6,0.8c0,2.7,0,5.4,0,8c0,0.5,0.1,0.6,0.6,0.4
						c1.4-0.5,2.8-1,4.3-1.6C5.9,40.5,6,40.6,6,41.1c0,0.5,0,1.1,0,1.6c1.8,0,3.6,0,5.4,0c0-1.2,0-2.5,0-3.7c0-0.4,0.1-0.6,0.5-0.7
						c1.3-0.5,2.7-1,4-1.5c0.3-0.1,0.6-0.2,0.6,0.3c0,1.8,0.1,3.7,0,5.5c4.7,0,9.5,0,14.2,0C30.6,42.1,30.6,41.5,30.6,40.8z
						 M26.6,25.3c2.6-1,5.2-1.9,7.8-2.9c0.8-0.3,0.8-0.3,0.8,0.6c0,1.5,0,3,0,4.6c0,0.5-0.1,0.7-0.6,0.9c-1.7,0.6-3.4,1.2-5.1,1.9
						c-0.3,0.1-0.5,0.2-0.8,0.1c-2.4-0.9-4.8-1.8-7.3-2.7c-0.1,0-0.3-0.1-0.4-0.3C22.9,26.7,24.8,26,26.6,25.3z M20.8,16.5
						c1.4,0,2.7,0,4.1,0c0.4,0,0.5,0.1,0.5,0.5c0,0.7,0,1.4,0,2.1c0,0.7,0,1.4,0,2.1c0,0.4-0.2,0.5-0.5,0.5c-1.3,0-2.7,0-4,0
						c-0.4,0-0.6-0.2-0.6-0.6c0-1.4,0-2.7,0-4.1C20.2,16.7,20.4,16.5,20.8,16.5z M11.4,19.1c0-0.7,0-1.4,0-2.1
						c0-0.4,0.1-0.5,0.5-0.5c1.3,0,2.6,0,4,0c0.5,0,0.6,0.2,0.6,0.6c0,1.3,0,2.7,0,4c0,0.4-0.2,0.6-0.6,0.6c-1.3,0-2.6,0-3.9,0
						c-0.4,0-0.6-0.1-0.6-0.6C11.4,20.5,11.4,19.8,11.4,19.1z M14.4,35.9c-3.8,1.4-7.6,2.8-11.4,4.2C2.1,40.4,2,40.4,2,39.4
						c0-1.5,0-3,0-4.6c0-0.4,0.2-0.6,0.6-0.8c1.7-0.6,3.4-1.2,5.1-1.9C8,32.1,8.3,32,8.6,32.2c2.5,0.9,5,1.8,7.5,2.7
						c0.1,0,0.1,0.1,0.2,0.2C15.6,35.4,15,35.6,14.4,35.9z M2.7,28.4C2.1,28.3,2,28,2,27.5c0-1.5,0-3.1,0-4.6c0-0.5,0.2-0.6,0.7-0.4
						c8.4,3.1,16.8,6.2,25.3,9.3c2.2,0.8,4.3,1.6,6.5,2.4c0.6,0.2,0.8,0.5,0.8,1.1c-0.1,0.7,0,1.4,0,2.1c0,0.7,0,1.4,0,2.1
						c0,0.9,0,0.9-0.9,0.6c-5-1.8-9.9-3.6-14.9-5.5C13.9,32.5,8.3,30.5,2.7,28.4z"/>
				</g>
				<g>
					<path class="st1" d="M31.8,31.3c0.1,0,0.1,0,0.2,0C32,31.3,31.9,31.3,31.8,31.3z"/>
				</g>
				<g>
					<path class="st1" d="M6.1,25.7c-0.6,0-0.9,0.4-0.9,0.9c0,0.5,0.4,0.9,0.9,0.9c0.5,0,0.9-0.4,0.9-1C7,26.1,6.6,25.7,6.1,25.7z"
						/>
				</g>
				<g>
					<path class="st1" d="M30.6,34.9c-0.6,0-1,0.3-1,0.9c0,0.6,0.3,0.9,0.9,0.9c0.6,0,0.9-0.3,0.9-0.9
						C31.5,35.3,31.2,34.9,30.6,34.9z"/>
				</g>
				<g>
					<path class="st1" d="M6.1,34.9c-0.6,0-1,0.4-1,1c0,0.5,0.4,0.9,1,0.9c0.6,0,0.9-0.4,0.9-0.9C7,35.3,6.6,34.9,6.1,34.9z"/>
				</g>
				<g>
					<path class="st1" d="M30.6,27.6c0.5,0,0.9-0.4,0.9-1c0-0.6-0.3-0.9-0.9-0.9c-0.6,0-0.9,0.3-0.9,0.9
						C29.6,27.2,30,27.6,30.6,27.6z"/>
				</g>
			</g>
		</g>
	</g>
</g>
</svg>
