<?xml version="1.0" encoding="utf-8"?>
<!-- Generator: Adobe Illustrator 21.0.0, SVG Export Plug-In . SVG Version: 6.00 Build 0)  -->
<svg version="1.1" id="Layer_1" xmlns="http://www.w3.org/2000/svg" xmlns:xlink="http://www.w3.org/1999/xlink" x="0px" y="0px"
	 viewBox="0 0 34.8 34.8" style="enable-background:new 0 0 34.8 34.8;" xml:space="preserve">
<style type="text/css">
	.st0{fill:#D1D1D1;}
	.st1{fill:#FFFFFF;}
	.st2{fill:none;stroke:#606060;stroke-width:2;stroke-linecap:round;stroke-linejoin:round;stroke-miterlimit:10;}
</style>
<g>
	<path class="st0" d="M17.4,33.8C8.4,33.8,1,26.5,1,17.4S8.4,1,17.4,1c9.1,0,16.4,7.4,16.4,16.4S26.5,33.8,17.4,33.8z"/>
	<path class="st1" d="M17.4,2c8.5,0,15.4,6.9,15.4,15.4s-6.9,15.4-15.4,15.4S2,25.9,2,17.4S8.9,2,17.4,2 M17.4,0C7.8,0,0,7.8,0,17.4
		s7.8,17.4,17.4,17.4S34.8,27,34.8,17.4S27,0,17.4,0L17.4,0z"/>
</g>
<polyline class="st2" points="9.2,20.8 14,25.1 24.6,12.2 "/>
</svg>
