<svg id="Layer_1" data-name="Layer 1" xmlns="http://www.w3.org/2000/svg" viewBox="0 0 21.08 15.33"><defs><style>.cls-1{fill:#2c3e50;}</style></defs><title>Untitled-9</title><path class="cls-1" d="M20.92,7a6.79,6.79,0,0,0-.44-.78A15.47,15.47,0,0,0,14.65,1a9.16,9.16,0,0,0-4-1A9.68,9.68,0,0,0,5.88,1.35a15.57,15.57,0,0,0-3.76,3A13.56,13.56,0,0,0,.29,6.82a1.46,1.46,0,0,0,0,1.68c.06.09.1.19.15.27a15.18,15.18,0,0,0,6.52,5.74,8.4,8.4,0,0,0,4.44.76,10.32,10.32,0,0,0,4.27-1.51,15.81,15.81,0,0,0,3.85-3.28,9.7,9.7,0,0,0,1.42-2.08A1.48,1.48,0,0,0,20.92,7Zm-4.83.8a5.55,5.55,0,1,1-5.54-5.71A5.56,5.56,0,0,1,16.09,7.84Z"/><path class="cls-1" d="M9.79,4.66c-.29.07-.31.1-.21.38l.83,2.28c0,.07.1.16,0,.23s-.16,0-.24,0L8,6.46c-.18-.09-.28,0-.34.14a3.08,3.08,0,0,0-.19,1c0,.17,0,.34,0,.51A3.11,3.11,0,1,0,9.79,4.66Z"/></svg>