<svg id="Layer_1" data-name="Layer 1" xmlns="http://www.w3.org/2000/svg" viewBox="0 0 350.44 305.34"><defs><style>.cls-1{fill:#606060;}.cls-2{fill:#fff;}</style></defs><title>Untitled-1</title><path class="cls-1" d="M117,186.44,88.87,201.92l.62,4.91L0,155,.14,51.58,89.77,0l89.49,51.83L170.35,57,89.76,10.28,9,56.74l-.13,93.14L89.5,196.55,117,180.6"/><path class="cls-1" d="M232.39,122.64l25-13.68,3.6-10.46,89.49,51.83-.14,103.41-89.63,51.58-89.49-51.83,8.91-5.13,80.59,46.68L341.4,248.6l.13-93.14-80.59-46.68-28.54,16.41"/><path class="cls-1" d="M89.63,152.05c17.28,0,31.29-8.43,31.29-18.82V122.64c0,10.4-14,16.86-31.29,16.86S58.34,133,58.34,122.64v10.59C58.34,143.63,72.35,152.05,89.63,152.05Z"/><path class="cls-1" d="M89.63,133.23c17.28,0,31.29-8.43,31.29-18.82V103.82c0,10.4-14,16.86-31.29,16.86s-31.29-6.46-31.29-16.86v10.59C58.34,124.81,72.35,133.23,89.63,133.23Z"/><path class="cls-1" d="M89.63,114.41c17.28,0,31.29-8.43,31.29-18.82V89.31c0-10.4-14-18.82-31.29-18.82S58.34,78.92,58.34,89.31v6.27C58.34,106,72.35,114.41,89.63,114.41Z"/><path class="cls-1" d="M259.35,256.8c17.28,0,31.29-8.43,31.29-18.82V227.38c0,10.4-14,16.86-31.29,16.86s-31.29-6.46-31.29-16.86V238C228.06,248.37,242.07,256.8,259.35,256.8Z"/><path class="cls-1" d="M259.35,238c17.28,0,31.29-8.43,31.29-18.82V208.56c0,10.4-14,16.86-31.29,16.86s-31.29-6.46-31.29-16.86v10.59C228.06,229.55,242.07,238,259.35,238Z"/><path class="cls-1" d="M259.35,219.15c17.28,0,31.29-8.43,31.29-18.82v-6.27c0-10.4-14-18.82-31.29-18.82s-31.29,8.43-31.29,18.82v6.27C228.06,210.73,242.07,219.15,259.35,219.15Z"/><polygon class="cls-1" points="213.3 130.37 213.3 174.97 174.67 197.27 136.05 174.97 136.05 130.37 174.67 108.07 213.3 130.37"/><path class="cls-1" d="M229.39,68.23h0A3.51,3.51,0,0,1,234.16,67l15.33,8.85a3.51,3.51,0,0,1,1.28,4.78h0A3.51,3.51,0,0,1,246,81.86L230.67,73A3.51,3.51,0,0,1,229.39,68.23Z"/><path class="cls-1" d="M214,94.87h0a3.51,3.51,0,0,1,4.78-1.28l15.33,8.85a3.51,3.51,0,0,1,1.28,4.78h0a3.51,3.51,0,0,1-4.78,1.28l-15.33-8.85A3.51,3.51,0,0,1,214,94.87Z"/><path class="cls-1" d="M232.39,50.26,199.94,69v37.47l32.45,18.73,32.45-18.73V69Zm27.39,53.28-27.39,15.81L205,103.54V71.91L232.39,56.1l27.39,15.81Z"/><path class="cls-1" d="M117,180.6,84.51,199.34v37.47L117,255.54l32.45-18.73V199.34Zm27.39,53.28L117,249.7,89.56,233.89V202.26L117,186.44l27.39,15.81Z"/><path class="cls-1" d="M120,237.56h0a3.51,3.51,0,0,1-4.78,1.28L99.85,230a3.51,3.51,0,0,1-1.28-4.78h0a3.51,3.51,0,0,1,4.78-1.28l15.33,8.85A3.51,3.51,0,0,1,120,237.56Z"/><path class="cls-1" d="M135.34,210.93h0a3.51,3.51,0,0,1-4.78,1.28l-15.33-8.85a3.51,3.51,0,0,1-1.28-4.78h0a3.51,3.51,0,0,1,4.78-1.28l15.33,8.85A3.51,3.51,0,0,1,135.34,210.93Z"/><path class="cls-1" d="M170.4,266.18h0a3.51,3.51,0,0,1-4.78,1.28l-15.33-8.85a3.51,3.51,0,0,1-1.28-4.78h0a3.51,3.51,0,0,1,4.78-1.28l15.33,8.85A3.51,3.51,0,0,1,170.4,266.18Z"/><path class="cls-1" d="M185.78,239.54h0a3.51,3.51,0,0,1-4.78,1.28L165.68,232a3.51,3.51,0,0,1-1.28-4.78h0a3.51,3.51,0,0,1,4.78-1.28l15.33,8.85A3.51,3.51,0,0,1,185.78,239.54Z"/><path class="cls-1" d="M154.69,273l17.68,10.21a8,8,0,0,0,10.91-2.92L204.8,243a8,8,0,0,0-2.92-10.91L184.2,221.87Z"/><rect class="cls-1" x="188.37" y="259.81" width="17.64" height="7.26" transform="translate(-129.55 302.49) rotate(-60)"/><path class="cls-1" d="M178.76,39.28h0A3.51,3.51,0,0,1,183.53,38l15.33,8.85a3.51,3.51,0,0,1,1.28,4.78h0a3.51,3.51,0,0,1-4.78,1.28L180,44.06A3.51,3.51,0,0,1,178.76,39.28Z"/><path class="cls-1" d="M163.38,65.92h0a3.51,3.51,0,0,1,4.78-1.28l15.33,8.85a3.51,3.51,0,0,1,1.28,4.78h0A3.51,3.51,0,0,1,180,79.54l-15.33-8.85A3.51,3.51,0,0,1,163.38,65.92Z"/><polygon class="cls-1" points="162.69 52.82 89.42 10.51 16.14 52.82 11.69 45.11 89.42 0.23 167.14 45.11 162.69 52.82"/><path class="cls-1" d="M194.47,32.47,176.79,22.27a8,8,0,0,0-10.91,2.92L144.36,62.47a8,8,0,0,0,2.92,10.91L165,83.58Z"/><rect class="cls-1" x="143.15" y="38.38" width="17.64" height="7.26" transform="translate(39.6 152.62) rotate(-60)"/><path class="cls-2" d="M155.11,139.31h4.32L171.11,166h-4.93l-2.69-6.41H150.95L148.22,166h-4.78Zm6.67,16.15-4.59-10.61-4.55,10.61Z"/><path class="cls-2" d="M175.66,139.5h10.46a13.2,13.2,0,0,1,4.19.63,8.91,8.91,0,0,1,3.18,1.8,8,8,0,0,1,2,2.8,9.12,9.12,0,0,1,.7,3.64v.08a8.75,8.75,0,0,1-.83,3.92,8.14,8.14,0,0,1-2.27,2.82,10.13,10.13,0,0,1-3.37,1.72,14.12,14.12,0,0,1-4.13.59h-5.27V166h-4.66Zm10.08,13.83a6.19,6.19,0,0,0,4.19-1.33,4.3,4.3,0,0,0,1.53-3.41v-.08a4.19,4.19,0,0,0-1.55-3.54,6.67,6.67,0,0,0-4.17-1.19h-5.42v9.55Z"/><path class="cls-2" d="M201.24,139.5h4.66V166h-4.66Z"/></svg>