<?xml version="1.0" encoding="utf-8"?>
<!-- Generator: Adobe Illustrator 21.0.0, SVG Export Plug-In . SVG Version: 6.00 Build 0)  -->
<svg version="1.1" id="Layer_1" xmlns="http://www.w3.org/2000/svg" xmlns:xlink="http://www.w3.org/1999/xlink" x="0px" y="0px"
	 viewBox="0 0 120 120" style="enable-background:new 0 0 120 120;" xml:space="preserve">
<style type="text/css">
	.st0{fill:#00B2A9;}
	.st1{fill:#FFFFFF;}
</style>
<g>
	<path class="st0" d="M60,120L60,120C27,120,0,93,0,60v0C0,27,27,0,60,0h0c33,0,60,27,60,60v0C120,93,93,120,60,120z"/>
	<g>
		<g>
			<g>
				<path class="st1" d="M78.6,49.9c-5.6,2.7-6.1,7.5-5.3,12.8c-0.7,0.1-1.1,0.1-1.5,0.1c-0.4,0-0.7-0.1-1.3-0.1
					c0-8.9,0-17.7,0-26.8c-1.8,0-3.5,0-5.4,0c0,7.1,0,14.1,0,21.3c-1,0.1-1.7,0.1-2.7,0.2c0-9,0-17.9,0-27c-1.9,0-3.6,0-5.5,0
					c0,8.9,0,17.8,0,26.8c-1,0-1.7,0-2.7,0c0-7.1,0-14.1,0-21.4c-1.8,0-3.4,0-5.3,0c0,8.8,0,17.7,0,26.8c-1,0.1-1.7,0.1-2.9,0.3
					c0.6-5.3,0.5-10.3-5.2-12.9c0.1,0-0.1,0-0.1,0.1c0.1,7.8-0.1,15.6,0.3,23.3c0.5,8.6,7.8,15.4,17,16.5c8.1,1,16.9-4.5,19.4-12.2
					c0.7-2.3,1.2-4.7,1.3-7.1c0.2-6.6,0.1-13.2,0.1-19.8C78.6,50.4,78.6,50.1,78.6,49.9z M73,73.6c-8.3,10.4-18.4,11-26.8-0.1
					C53.8,63.1,64.9,63.1,73,73.6z"/>
				<path class="st1" d="M59.5,68.3c-2.9,0-5.3,2.4-5.3,5.4c0,2.9,2.5,5.3,5.3,5.4c3,0,5.5-2.6,5.4-5.5
					C64.9,70.6,62.5,68.3,59.5,68.3z"/>
			</g>
		</g>
	</g>
</g>
</svg>
