<?xml version="1.0" encoding="utf-8"?>
<!-- Generator: Adobe Illustrator 21.0.0, SVG Export Plug-In . SVG Version: 6.00 Build 0)  -->
<svg version="1.1" id="Layer_1" xmlns="http://www.w3.org/2000/svg" xmlns:xlink="http://www.w3.org/1999/xlink" x="0px" y="0px"
	 viewBox="0 0 120 120" style="enable-background:new 0 0 120 120;" xml:space="preserve">
<style type="text/css">
	.st0{fill:#963CBD;}
	.st1{fill:#FFFFFF;}
</style>
<g>
	<path class="st0" d="M60,120L60,120C27,120,0,93,0,60v0C0,27,27,0,60,0h0c33,0,60,27,60,60v0C120,93,93,120,60,120z"/>
	<g>
		<path class="st1" d="M82.4,60.2c0,5.1,0,10.2,0,15.3c0,1.3-0.7,2-2,2c-0.2,0-0.4,0-0.6,0c-4.1,0-8.2,0-12.3,0
			c-0.9,0-1.8,0.2-2.5,0.8c-0.6,0.4-1.2,0.9-1.9,1.3c-0.8,0.6-1.8,1-2.8,1.2c-0.9,0.2-1.7-0.2-2.5-0.6c-0.8-0.4-1.6-1-2.3-1.5
			c-1.1-0.8-2.2-1.2-3.6-1.2c-4,0.1-8,0-12,0c-0.2,0-0.4,0-0.6,0c-1.2,0-1.9-0.7-1.9-1.9c0-3.6,0-7.1,0-10.7c0-6.6,0-13.1,0-19.7
			c0-0.2,0-0.5,0-0.7c0.1-0.9,0.7-1.5,1.6-1.6c0.4,0,0.9,0,1.3,0c0.4,0,0.5,0.2,0.5,0.5c0,0.2,0,0.4,0,0.6c0,8.1,0,16.2,0,24.3
			c0,0.6,0,1.3,0.1,1.9c0.2,1.1,0.8,1.8,1.9,2c0.6,0.1,1.2,0.1,1.8,0.1c2.6,0,5.1,0,7.7,0c0.6,0,1.2,0,1.7,0.1
			c1.1,0.1,2.1,0.6,2.8,1.6c0.4,0.6,0.9,1.1,1.6,1.4c1.4,0.6,3.2,0.3,4.1-1c1.1-1.7,2.7-2.2,4.5-2.2c2.6,0,5.2,0,7.9,0
			c0.4,0,0.9,0,1.3,0c1.7-0.2,2.5-1,2.6-2.7c0-0.5,0-0.9,0-1.4c0-8.1,0-16.1,0-24.2c0-0.2,0-0.4,0-0.6c0-0.3,0.1-0.4,0.4-0.4
			c0.5,0,1.1,0,1.6,0c0.8,0.1,1.4,0.7,1.4,1.5c0,0.2,0,0.5,0,0.7C82.4,50.2,82.4,55.2,82.4,60.2z"/>
		<path class="st1" d="M75.5,53.3c0,4.9,0,9.8,0,14.7c0,0.9,0,0.9-0.9,0.8c-2.3,0-4.5-0.2-6.8-0.2c-1.6,0-3.1,0.2-4.6,0.8
			c-0.4,0.2-0.8,0.4-1.2,0.7c-0.3,0.2-0.4,0.1-0.4-0.2c0-0.1,0-0.3,0-0.4c0-9.2,0-18.5,0-27.7c0-0.7,0.2-1.1,0.8-1.5
			c1.8-1.4,4-2,6.2-2.3c2-0.3,4.1-0.2,6.1-0.2c0.8,0,0.8,0,0.8,0.8c0,4.6,0,9.2,0,13.8C75.5,52.6,75.5,52.9,75.5,53.3z"/>
		<path class="st1" d="M44.3,53.2c0-4.9,0-9.8,0-14.6c0-0.9,0-0.9,0.9-0.9c2.4,0,4.8,0,7.2,0.4c1.9,0.4,3.7,1.1,5.3,2.3
			c0.3,0.3,0.4,0.5,0.4,0.9c0,9.4,0,18.9,0,28.3c0,0.2,0.1,0.4-0.1,0.5c-0.2,0.1-0.3-0.1-0.4-0.2c-1.4-0.9-2.9-1.3-4.5-1.4
			c-2-0.1-4,0-6,0.1c-0.7,0-1.5,0-2.2,0.1c-0.4,0-0.6-0.2-0.6-0.6c0-1.4,0-2.9,0-4.3C44.3,60.4,44.3,56.8,44.3,53.2z"/>
	</g>
</g>
</svg>
