<?xml version="1.0" encoding="utf-8"?>
<!-- Generator: Adobe Illustrator 21.0.0, SVG Export Plug-In . SVG Version: 6.00 Build 0)  -->
<svg version="1.1" id="Layer_1" xmlns="http://www.w3.org/2000/svg" xmlns:xlink="http://www.w3.org/1999/xlink" x="0px" y="0px"
	 viewBox="0 0 120 120" style="enable-background:new 0 0 120 120;" xml:space="preserve">
<style type="text/css">
	.st0{fill:#FFB60F;}
	.st1{fill:#FFFFFF;}
</style>
<g>
	<path class="st0" d="M60,120L60,120C27,120,0,93,0,60v0C0,27,27,0,60,0h0c33,0,60,27,60,60v0C120,93,93,120,60,120z"/>
	<g>
		<g>
			<g>
				<path class="st1" d="M73,59.2c0.8,0,1.7,0.1,2.4,0.5c0.8,0.4,1.6,0.3,2.3-0.1c0.7-0.4,1.1-1.2,1.1-2V46.9c0-0.5-0.4-0.9-0.9-0.9
					H67.4c-0.3,0-0.4-0.2-0.5-0.2c0-0.1-0.2-0.3,0-0.6c0.5-1,0.8-2.2,0.7-3.3c-0.2-3.4-3-6.1-6.4-6.3c-1.8-0.1-3.6,0.6-4.9,1.8
					c-1.3,1.3-2,3-2,4.8c0,1,0.2,2,0.7,3c0.1,0.3,0,0.5,0,0.5c-0.1,0.1-0.2,0.3-0.5,0.3H43.9c-0.5,0-0.9,0.4-0.9,0.9v10.6
					c0,0.3-0.2,0.4-0.2,0.5c-0.1,0-0.3,0.2-0.6,0c-1-0.5-2.2-0.8-3.3-0.7c-3.4,0.2-6.1,3-6.3,6.4c-0.1,1.8,0.6,3.6,1.8,4.9
					c1.3,1.3,3,2,4.8,2c1,0,2-0.2,3-0.7c0.3-0.1,0.5,0,0.5,0c0.1,0.1,0.3,0.2,0.3,0.5V81c0,0.5,0.4,0.9,0.9,0.9h10.6
					c0.8,0,1.6-0.4,2-1.1c0.4-0.7,0.5-1.6,0.1-2.3c-0.4-0.7-0.5-1.6-0.5-2.4c0.1-2.4,2.2-4.4,4.6-4.5c1.3-0.1,2.6,0.4,3.5,1.3
					c0.9,0.9,1.5,2.1,1.5,3.5c0,0.8-0.2,1.5-0.5,2.1c-0.4,0.8-0.3,1.6,0.1,2.3c0.4,0.7,1.2,1.1,2,1.1H78c0.5,0,0.9-0.4,0.9-0.9V70.4
					c0-0.8-0.4-1.6-1.1-2c-0.7-0.4-1.6-0.5-2.3-0.1c-0.7,0.3-1.4,0.5-2.1,0.5c-1.3,0-2.5-0.5-3.5-1.5c-0.9-0.9-1.4-2.2-1.3-3.5
					C68.6,61.3,70.6,59.3,73,59.2z"/>
			</g>
		</g>
	</g>
</g>
</svg>
