<svg id="Layer_1" data-name="Layer 1" xmlns="http://www.w3.org/2000/svg" viewBox="0 0 100 100"><defs><style>.cls-1{fill:#eb8900;}.cls-2,.cls-6{fill:none;}.cls-3,.cls-4{fill:#fff;}.cls-4{opacity:0.7;}.cls-5{fill:#d6d6d6;}.cls-6{stroke:#fff;stroke-miterlimit:10;}</style></defs><title>Foreclosure</title><circle class="cls-1" cx="50" cy="50" r="50"/><path class="cls-2" d="M77.5,66.42l-7.89-4.15v3.81l6.32,3.31a1.69,1.69,0,1,0,1.57-3Z"/><path class="cls-2" d="M63.92,59.26l.33.17A15,15,0,0,0,60.69,44a15,15,0,0,0-2.42-2,15,15,0,0,0-16.35,0,14.71,14.71,0,0,0-4.77,5A14.79,14.79,0,0,0,35.37,52a14.18,14.18,0,0,0,0,4.9A14.81,14.81,0,0,0,37,61.76a15,15,0,0,0,27.28-2.32Z"/><path class="cls-3" d="M36.89,21.53V31.67H26.8l6.29-6.52-6.5,6.5V78.78h43V66.08L66,64.18,62.79,62.5a14.95,14.95,0,0,1-21.5,4.16h0A14.51,14.51,0,0,1,37,61.76h0a14.81,14.81,0,0,1-1.64-4.9h0a14.18,14.18,0,0,1,0-4.9h0A14.79,14.79,0,0,1,37.16,47h0a14.71,14.71,0,0,1,4.77-5h0a15,15,0,0,1,16.35,0h0a15,15,0,0,1,2.42,2,15,15,0,0,1,3.56,15.46l5.36,2.83V21.53Z"/><path class="cls-4" d="M62.79,62.5,66,64.18l3.61,1.9V62.27l-5.36-2.83A14.94,14.94,0,0,1,62.79,62.5Z"/><polygon class="cls-5" points="36.89 21.53 36.89 21.22 33.09 25.16 36.71 21.53 36.89 21.53"/><polygon class="cls-5" points="36.89 31.68 36.89 21.53 36.71 21.53 33.09 25.16 26.8 31.68 36.89 31.68"/><path class="cls-4" d="M50.1,39.6A14.88,14.88,0,0,0,41.92,42H58.27A14.88,14.88,0,0,0,50.1,39.6Z"/><path class="cls-4" d="M60.69,44a15,15,0,0,0-2.42-2H41.92a14.71,14.71,0,0,0-4.77,5h0A14.79,14.79,0,0,0,35.37,52h0a14.18,14.18,0,0,0,0,4.9h0A14.81,14.81,0,0,0,37,61.76h0a14.51,14.51,0,0,0,4.33,4.9h0a14.91,14.91,0,0,0,21.5-4.16h0A15,15,0,0,0,60.69,44Z"/><polyline class="cls-6" points="41.2 66.66 50.78 66.66 41.2 66.66"/><polyline class="cls-6" points="36.87 61.76 52.35 61.76 36.87 61.76"/><polyline class="cls-6" points="35.22 56.85 58.18 56.85 35.22 56.85"/><polyline class="cls-6" points="35.27 51.95 60.97 51.95 35.27 51.95"/><polyline class="cls-6" points="37.06 47.05 60.97 47.05 37.06 47.05"/></svg>