<?xml version="1.0" encoding="utf-8"?>
<!-- Generator: Adobe Illustrator 21.0.0, SVG Export Plug-In . SVG Version: 6.00 Build 0)  -->
<svg version="1.1" id="Layer_1" xmlns="http://www.w3.org/2000/svg" xmlns:xlink="http://www.w3.org/1999/xlink" x="0px" y="0px"
	 viewBox="0 0 47.1 47.1" style="enable-background:new 0 0 47.1 47.1;" xml:space="preserve">
<style type="text/css">
	.st0{fill:#00B2A9;}
	.st1{fill:#FFFFFF;}
	.st2{fill:#963CBD;}
	.st3{fill:#ED8B00;}
	.st4{fill:#2C3E50;}
	.st5{fill:none;stroke:#0373BB;stroke-miterlimit:10;}
	.st6{fill:#8E99A8;}
	.st7{fill:#00B1A8;}
	.st8{fill:#001871;}
	.st9{fill:#418FDE;}
	.st10{fill:#FFB40F;}
	.st11{opacity:0.85;}
	.st12{fill:none;stroke:#6D6E71;stroke-linecap:round;stroke-linejoin:round;}
	.st13{fill:#0373BB;}
	.st14{fill:#919396;}
	.st15{fill:#0373B9;}
	.st16{fill:#0373bb;}
	.st17{fill:#F4F4F4;}
	.st18{opacity:0.1;clip-path:url(#SVGID_2_);}
	.st19{fill:#606060;}
</style>
<g>
	<g>
		<g>
			<g>
				<g>
					<g>
						<g>
							<path class="st16" d="M47,32.5c-0.3-2.7-1.3-5.2-3.1-7.3c-3.7-4.1-8.3-5.5-13.7-4.1c-6.1,1.7-10.3,7.7-9.5,14.1
								c0.7,5.6,3.8,9.3,9,11.2c1,0.4,2.1,0.5,3.1,0.7c0.7,0,1.3,0,2,0c0.2-0.1,0.4,0,0.5,0c1-0.1,2-0.1,2.9-0.5
								c3.2-1.2,5.6-3.2,7.3-6.1c0.7-1.2,1.3-2.5,1.4-3.9c0-0.6,0-1.2,0.1-1.7c0-0.7,0-1.3,0-2C47.1,32.7,47,32.6,47,32.5z
								 M33.8,41.2c-0.8,0-1.5-0.7-1.5-1.5c0-0.8,0.7-1.5,1.4-1.5c0.8,0,1.5,0.6,1.5,1.4C35.3,40.5,34.7,41.2,33.8,41.2z M35.3,33.8
								c0,0.9-0.6,1.5-1.5,1.5c-0.9,0-1.5-0.6-1.5-1.5c0-1.9,0-3.9,0-5.8c0-0.9,0.6-1.5,1.4-1.5c0.9,0,1.5,0.6,1.5,1.5
								c0,1,0,2,0,2.9C35.3,31.9,35.3,32.8,35.3,33.8z"/>
						</g>
						<g>
							<path class="st16" d="M21.5,23.5c-0.1-0.3-0.5-0.2-0.8-0.2c-4.4,0-8.8,0-13.2,0c-0.2,0-0.5,0-0.7,0c-0.3,0-0.6-0.2-0.6-0.6
								c-0.1-0.4-0.1-0.9,0-1.3c0-0.3,0.2-0.5,0.6-0.6c0.2,0,0.4,0,0.6,0c1.9,0,3.7,0,5.6,0c3.7,0,7.4,0,11.1,0c0.3,0,0.6,0,0.9-0.2
								c0.8-0.6,1.6-1,2.5-1.4c2.4-1,4.8-1.5,7.4-1.3c0.6,0,0.7,0,0.7-0.6c0-1.3-0.1-2.7,0-4c0.1-1.2-0.3-2.1-1.2-2.9
								c-1.7-1.6-3.3-3.2-4.9-4.9c-0.7-0.7-1.5-1.5-2.2-2.2c-0.7-0.7-1.5-1.4-2.2-2.2c-0.4-0.4-0.9-0.9-1.4-1.1c-7,0-14,0-21,0
								C1.9,0.1,1.3,0.2,0.8,0.7C0.2,1.2,0.1,1.9,0,2.6c0,12,0,24,0,36.1c0.1,0.5,0.1,1.1,0.5,1.6c0.6,0.8,1.5,1.2,2.5,1.2
								c5.3,0,10.7,0,16,0c0.6,0,0.7-0.1,0.5-0.7c-0.7-1.6-1.2-3.2-1.4-4.9c-0.1-0.7-0.1-0.7-0.8-0.7c-3.3,0-6.5,0-9.8,0
								c-1.1,0-1.3-0.1-1.3-1.3c0-1.1,0.1-1.2,1.2-1.2c3.2,0,6.5,0,9.7,0c0.2,0,0.4,0,0.6,0c0.2,0,0.3-0.1,0.3-0.3
								c0.1-0.9,0.3-1.8,0.5-2.6c0.1-0.3-0.1-0.5-0.4-0.5c-0.2,0-0.4,0-0.6,0c-3.4,0-6.8,0-10.2,0c-1,0-1.2-0.1-1.2-1.2c0,0,0,0,0,0
								c0-1.1,0.1-1.3,1.3-1.3c3.8,0,7.6,0,11.4,0c0.6,0,0.9-0.2,1.2-0.7c0.3-0.7,0.8-1.3,1.2-1.9C21.3,24,21.6,23.8,21.5,23.5z
								 M23.6,3.2c0.2-0.1,0.2,0.1,0.3,0.2c2.7,2.7,5.3,5.3,8,8c0.1,0.1,0.3,0.2,0.2,0.3c-0.1,0.2-0.3,0.1-0.4,0.1c-1,0-2,0-2.9,0
								c-1,0-1.9,0-2.9,0c-1.4,0-2.4-1-2.4-2.4c0-1.9,0-3.9,0-5.8C23.5,3.4,23.5,3.3,23.6,3.2z M5.9,16.9c0-0.5,0-1,0-1.6
								c0-0.5,0.1-0.6,0.6-0.6c1.7,0,3.3,0,5,0c5.7,0,11.5,0,17.2,0c0.8,0,0.8,0,0.8,0.8c0,0.5,0,1,0,1.6c0,0.6,0,0.6-0.6,0.6
								c-2.5,0-4.9,0-7.4,0c-1.3,0-2.5,0-3.8,0c-3.7,0-7.4,0-11,0C5.9,17.7,5.9,17.6,5.9,16.9z"/>
						</g>
					</g>
				</g>
			</g>
		</g>
	</g>
</g>
</svg>
