<svg id="Layer_1" data-name="Layer 1" xmlns="http://www.w3.org/2000/svg" viewBox="0 0 72.11 63"><defs><style>.cls-1{fill:#919396;}</style></defs><title>API - Copy</title><path class="cls-1" d="M43.67,40.07H28.32V63H10c0-.33,0-.65,0-1,0-21,0-13.53,0-34.55A1.6,1.6,0,0,1,10.74,26c3.81-2.51,7.6-5.07,11.39-7.61,4.44-3,8.87-5.95,13.33-8.89a1.13,1.13,0,0,1,1,0c4,2.65,8,5.33,12,8q6.4,4.28,12.81,8.55a1.4,1.4,0,0,1,.73,1.3c0,21.13,0,13.77,0,34.91,0,.24,0,.47,0,.78H43.67Zm-3.1-12.35c-3,0-5.81,0-8.67,0-.18,0-.52.39-.52.6,0,2.65,0,5.31,0,8,0,.45.18.64.64.64l8.23,0a1.16,1.16,0,0,0,.34-.12Zm4.67,0a1.67,1.67,0,0,0-.12.36c0,2.75,0,5.5,0,8.24,0,.55.28.63.73.63q3.9,0,7.8,0c.47,0,.72-.11.72-.65q0-4,0-8c0-.47-.21-.63-.65-.62ZM26.81,36.86c0-2.91,0-5.77,0-8.63,0-.63-.45-.51-.82-.51-2.51,0-5,0-7.52,0-.74,0-.9.28-.89.95q0,3.71,0,7.43c0,.65.17.9.86.89,2.54,0,5.07,0,7.61,0A7.33,7.33,0,0,0,26.81,36.86Z"/><path class="cls-1" d="M0,23.79l4-2.67,14.3-9.53L32.35,2.22C33.29,1.6,34.25,1,35.17.31a1.18,1.18,0,0,1,1.57,0c3.65,2.48,7.34,4.92,11,7.37l14.38,9.57,10,6.68c-.38,0-.58.09-.79.09-2.33,0-4.66,0-7,0a2.06,2.06,0,0,1-1.06-.33Q52,16.12,40.73,8.56c-1-.68-2.06-1.33-3-2a2.84,2.84,0,0,0-3.47,0Q23.11,14,12,21.45c-.62.41-1.26.8-1.84,1.27A5.64,5.64,0,0,1,6,24c-2-.13-4,0-6,0Z"/></svg>