<?xml version="1.0" encoding="utf-8"?>
<!-- Generator: Adobe Illustrator 21.0.0, SVG Export Plug-In . SVG Version: 6.00 Build 0)  -->
<svg version="1.1" id="Layer_1" xmlns="http://www.w3.org/2000/svg" xmlns:xlink="http://www.w3.org/1999/xlink" x="0px" y="0px"
	 viewBox="0 0 47 47" style="enable-background:new 0 0 47 47;" xml:space="preserve">
<style type="text/css">
	.st0{fill:#00B2A9;}
	.st1{fill:#FFFFFF;}
	.st2{fill:#963CBD;}
	.st3{fill:#ED8B00;}
	.st4{fill:#2C3E50;}
	.st5{fill:none;stroke:#0373BB;stroke-miterlimit:10;}
	.st6{fill:#8E99A8;}
	.st7{fill:#00B1A8;}
	.st8{fill:#001871;}
	.st9{fill:#418FDE;}
	.st10{fill:#FFB40F;}
	.st11{opacity:0.85;}
	.st12{fill:none;stroke:#6D6E71;stroke-linecap:round;stroke-linejoin:round;}
	.st13{fill:#0373BB;}
	.st14{fill:#919396;}
	.st15{fill:#0373B9;}
	.st16{fill:#A7A9AC;}
	.st17{fill:#F4F4F4;}
	.st18{opacity:0.1;clip-path:url(#SVGID_2_);}
	.st19{fill:#606060;}
</style>
<g>
	<g>
		<g>
			<g>
				<polygon class="st1" points="40.5,23 40.5,23 40.5,23 				"/>
			</g>
			<g>
				<polygon class="st1" points="36.6,24 36.5,24 36.6,24 				"/>
			</g>
		</g>
		<g>
			<g>
				<g>
					<g>
						<path class="st1" d="M23.5,0C10.5,0,0,10.5,0,23.5C0,36.5,10.5,47,23.5,47C36.5,47,47,36.5,47,23.5C47,10.5,36.5,0,23.5,0z
							 M25.4,37v4.4h-4.1v-4.1c-3-0.1-5.8-0.9-7.4-1.9l1.3-5.1c1.8,1,4.4,1.9,7.2,1.9c2.5,0,4.2-1,4.2-2.7c0-1.6-1.4-2.7-4.6-3.8
							c-4.6-1.6-7.8-3.7-7.8-7.9c0-3.8,2.7-6.8,7.3-7.7V5.9h4.3v3.8c2.8,0.1,4.8,0.7,6.3,1.4l-1.3,4.9c-1.1-0.5-3.1-1.5-6.3-1.5
							c-2.8,0-3.7,1.2-3.7,2.4c0,1.4,1.5,2.3,5.2,3.7c5.2,1.8,7.2,4.2,7.2,8.1C33.2,32.8,30.4,36.1,25.4,37z"/>
					</g>
				</g>
			</g>
		</g>
	</g>
</g>
</svg>
