<?xml version="1.0" encoding="utf-8"?>
<!-- Generator: Adobe Illustrator 21.0.0, SVG Export Plug-In . SVG Version: 6.00 Build 0)  -->
<svg version="1.1" id="Layer_1" xmlns="http://www.w3.org/2000/svg" xmlns:xlink="http://www.w3.org/1999/xlink" x="0px" y="0px"
	 viewBox="0 0 60.6 64" style="enable-background:new 0 0 60.6 64;" xml:space="preserve">
<style type="text/css">
	.st0{fill:#0373B9;}
	.st1{opacity:5.000000e-02;}
	.st2{fill:#606060;}
</style>
<title>API - Copy</title>
<path class="st0" d="M36.7,0H6.5v0.1h30.2L36.7,0z"/>
<path class="st0" d="M60.6,61.7c0-1-0.1-1-1.1-1.1s-1.1,0-1.1-1c0-9.4,0-18.8,0-28.2c0-0.8,0-1.5,0-2.3s0.3-0.9,0.9-0.8
	c0.1,0,0.2,0,0.3,0c0.5,0,0.7-0.2,0.7-0.7c0-0.7,0-1.5,0-2.2c0-1,0-1.1-1.1-1.1h-17c-1.1,0-1.2,0-1.2-1.2c0-4.7,0-9.3,0-14
	c0-1.6-0.1-1.6,1.5-1.6c0.7,0,0.7-0.1,0.5-0.8c-0.5-1.2-1-2.3-1.4-3.5c-0.1-0.5-0.6-0.8-1.1-0.8c-1,0-2,0-3.1,0
	c-0.5,0-0.8-0.2-0.8-0.8s0-1.2,0-1.8l0,0c-0.3,0.3-0.6,0.3-1,0.3h-28c-0.4,0-0.8,0.1-1.2-0.3c0,0.5,0,1.1,0,1.6
	c0,0.8-0.1,0.9-0.9,0.9c-1,0-2,0-2.9,0c-0.5-0.1-1,0.2-1.1,0.7C1.2,4.4,0.7,5.5,0.3,6.5S-0.2,7.6,1,7.6c1.1,0,1.1,0,1.1,1.1
	c0,0.1,0,0.2,0,0.3c0,16.7,0,33.3,0,50c0,1.4,0.2,1.6-1.5,1.6c-0.5,0-0.7,0.2-0.7,0.7s0,1.2,0,1.8c0,0.8,0.1,0.9,0.9,1h58.7
	c0.9,0,1-0.1,1-1C60.6,62.6,60.6,62.1,60.6,61.7z M8.8,15.9c0-0.5,0.2-0.8,0.8-0.8c1.2,0,2.4,0,3.6,0c0.6,0,0.8,0.3,0.8,0.8
	c0,1.5,0,2.9,0,4.4l0,0c0,1.4,0,2.8,0,4.3c0,0.7-0.1,0.8-0.8,0.8c-1.2,0-2.3,0-3.5,0c-0.6,0-0.8-0.2-0.8-0.8
	C8.8,21.7,8.8,18.8,8.8,15.9z M8.8,31.3c0-0.6,0.3-0.8,0.8-0.8c1.2,0,2.4,0,3.6,0c0.6,0,0.8,0.2,0.8,0.8c0,1.5,0,2.9,0,4.4l0,0
	c0,1.4,0,2.8,0,4.3c0,0.8-0.1,0.8-0.8,0.8c-1.2,0-2.4,0-3.6,0c-0.5,0-0.8-0.2-0.8-0.8C8.8,37.1,8.8,34.2,8.8,31.3z M13.9,55.4
	c0,0.6-0.2,0.8-0.8,0.8c-1.2,0-2.4,0-3.6,0c-0.6,0-0.8-0.2-0.8-0.8c0-1.5,0-2.9,0-4.4l0,0c0-1.4,0-2.8,0-4.3c0-0.7,0.1-0.8,0.9-0.8
	c1.2,0,2.3,0,3.5,0c0.6,0,0.8,0.2,0.8,0.8C13.9,49.6,13.9,52.5,13.9,55.4L13.9,55.4z M19,16c0-0.6,0.2-0.8,0.8-0.8
	c1.2,0,2.4,0,3.6,0c0.5,0,0.8,0.2,0.8,0.7c0,1.5,0,3,0,4.4l0,0c0,1.4,0,2.8,0,4.3c0,0.7-0.1,0.8-0.8,0.8c-1.2,0-2.3,0-3.5,0
	c-0.5,0-0.8-0.2-0.8-0.8C19,21.8,19,18.9,19,16z M24.1,55.5c0,0.5-0.2,0.8-0.7,0.8c-1.2,0-2.5,0-3.7,0c-0.5,0-0.7-0.2-0.7-0.7
	c0-1.5,0-3,0-4.4l0,0c0-1.4,0-2.8,0-4.3c0-0.8,0.1-0.9,0.9-0.9c1.2,0,2.3,0,3.5,0c0.5,0,0.8,0.2,0.8,0.7
	C24.1,49.6,24.2,52.5,24.1,55.5L24.1,55.5z M23.3,40.9c-1.2,0-2.4,0-3.6,0c-0.5,0-0.8-0.2-0.8-0.8c0-2.9,0-5.8,0-8.8
	c0-0.5,0.2-0.8,0.8-0.8c1.2,0,2.4,0,3.6,0c0.5,0,0.8,0.2,0.8,0.8c0,1.5,0,2.9,0,4.4l0,0c0,1.4,0,2.9,0,4.3
	C24.2,40.6,24,40.8,23.3,40.9L23.3,40.9z M30.1,15.2c1.2,0,2.3,0,3.5,0c0.5,0,0.8,0.2,0.8,0.8c0,2.9,0,5.8,0,8.8
	c0,0.5-0.2,0.8-0.8,0.8c-1.2,0-2.4,0-3.6,0c-0.5,0-0.8-0.2-0.8-0.8c0-1.5,0-3,0-4.4s0-2.8,0-4.3C29.3,15.4,29.5,15.1,30.1,15.2
	L30.1,15.2z M34.4,51.1L34.4,51.1c0,1.4,0,2.9,0,4.3c0,0.6-0.2,0.8-0.8,0.8c-1.2,0-2.4,0-3.6,0c-0.5,0-0.8-0.2-0.8-0.7
	c0-2.9,0-5.9,0-8.8c0-0.5,0.2-0.7,0.7-0.7c1.2,0,2.5,0,3.7,0c0.5,0,0.7,0.2,0.7,0.8C34.4,48.2,34.4,49.6,34.4,51.1L34.4,51.1z
	 M34.4,35.8c0,1.4,0,2.8,0,4.3c0,0.6-0.2,0.8-0.8,0.8c-1.2,0-2.4,0-3.6,0c-0.5,0-0.8-0.2-0.8-0.8c0-2.9,0-5.8,0-8.8
	c0-0.5,0.2-0.8,0.8-0.8c1.2,0,2.4,0,3.6,0c0.6,0,0.8,0.2,0.8,0.8C34.4,32.8,34.4,34.3,34.4,35.8L34.4,35.8z M49.3,35.1h3.1
	c0.3,0,0.6,0.2,0.6,0.4c0,0.1,0,0.1,0,0.2c0,1,0,2,0,3c0,0.3-0.2,0.6-0.5,0.7c-0.1,0-0.1,0-0.2,0h-3c-0.4,0-0.6-0.2-0.6-0.7
	c0-1,0-2,0-3c-0.1-0.3,0.1-0.6,0.4-0.6C49.2,35,49.3,35,49.3,35.1L49.3,35.1z M53,47.3c0,0.3-0.2,0.5-0.5,0.6c0,0-0.1,0-0.1,0h-3.1
	c-0.3,0-0.5-0.2-0.6-0.5c0,0,0-0.1,0-0.1c0-1.1,0-2.1,0-3.2c0-0.3,0.2-0.5,0.5-0.6c0,0,0.1,0,0.1,0h3.2c0.3,0,0.5,0.2,0.6,0.5
	c0,0,0,0.1,0,0.1c0,0.5,0,1.1,0,1.6S53.1,46.7,53,47.3L53,47.3z M40.3,35.7c0-0.5,0.2-0.7,0.7-0.7h3c0.4,0,0.6,0.2,0.6,0.6
	c0,1,0,2,0,3.1c0,0.3-0.2,0.6-0.5,0.6c-0.1,0-0.1,0-0.2,0h-3c-0.3,0-0.6-0.2-0.7-0.5c0-0.1,0-0.1,0-0.2
	C40.3,37.7,40.3,36.7,40.3,35.7z M44.1,56.2H41c-0.4,0-0.7-0.2-0.7-0.6c0-1,0-2,0-3.1c0-0.3,0.2-0.6,0.5-0.7c0.1,0,0.1,0,0.2,0H44
	c0.3,0,0.6,0.2,0.6,0.5c0,0,0,0.1,0,0.2c0,1,0,2.1,0,3.1c0.1,0.3-0.1,0.6-0.4,0.6C44.2,56.2,44.1,56.2,44.1,56.2L44.1,56.2z
	 M44.7,47.1c0,0.5-0.2,0.7-0.7,0.7H41c-0.4,0-0.6-0.2-0.6-0.6c0-1,0-2,0-3.1c0-0.5,0.2-0.7,0.7-0.7h3c0.5,0,0.7,0.2,0.7,0.7
	C44.7,45.1,44.7,46.1,44.7,47.1L44.7,47.1z M52.5,56.2h-3.1c-0.4,0-0.7-0.2-0.7-0.6c0-1,0-2,0-3.1c0-0.3,0.2-0.6,0.5-0.7
	c0.1,0,0.1,0,0.2,0h3c0.3-0.1,0.6,0.2,0.7,0.5c0,0.1,0,0.1,0,0.2c0,0.5,0,1,0,1.5l0,0c0,0.5,0,1,0,1.5S52.9,56.2,52.5,56.2
	L52.5,56.2z"/>
<path class="st0" d="M7.7,0.4h28c0.4,0,0.7,0,1-0.3H6.5C6.8,0.5,7.3,0.4,7.7,0.4z"/>
<g class="st1">
	<path class="st2" d="M-41.1,63c5.3,3,10.7,6,16,9c8.3,4.6,16.6,9.2,24.9,13.8l27.5,15.2c8.5,4.7,17,9.4,25.4,14.1
		c1.3,0.6,2,2,1.6,3.4c-0.1,1.4-1.3,2.5-2.8,2.6c-0.7,0.1-1.3,0.1-2,0.1h-183.5c-3.1,0-4.2-0.6-4.7-2.4s0.2-3.1,2.9-4.5
		c10.4-5.8,20.9-11.6,31.4-17.3c10.5-5.8,21-11.6,31.6-17.5c9.7-5.3,19.4-10.7,29.1-16c0.2-0.1,0.4-0.2,0.5-0.4H-41.1z M-42.3,109.8
		c7.3,0.1,13.3-5.8,13.3-13c0,0,0,0,0-0.1c0-7.2-5.8-13.1-13-13.2c-7.2,0-13.1,5.8-13.2,13C-55.3,103.6-49.5,109.5-42.3,109.8
		L-42.3,109.8z"/>
</g>
</svg>
