<?xml version="1.0" encoding="utf-8"?>
<!-- Generator: Adobe Illustrator 21.0.0, SVG Export Plug-In . SVG Version: 6.00 Build 0)  -->
<svg version="1.1" id="Layer_1" xmlns="http://www.w3.org/2000/svg" xmlns:xlink="http://www.w3.org/1999/xlink" x="0px" y="0px"
	 viewBox="0 0 72.1 63" style="enable-background:new 0 0 72.1 63;" xml:space="preserve">
<style type="text/css">
	.st0{fill:#0373B9;}
</style>
<title>API - Copy</title>
<path class="st0" d="M43.7,40.1H28.3V63H10c0-0.3,0-0.7,0-1c0-21,0-13.5,0-34.5c0-0.6,0.2-1.1,0.7-1.5c3.8-2.5,7.6-5.1,11.4-7.6
	c4.4-3,8.9-5.9,13.3-8.9c0.3-0.2,0.7-0.2,1,0c4,2.7,8,5.3,12,8c4.3,2.9,8.5,5.7,12.8,8.5c0.5,0.3,0.8,0.8,0.7,1.3
	c0,21.1,0,13.8,0,34.9c0,0.2,0,0.5,0,0.8H43.7V40.1z M40.6,27.7c-3,0-5.8,0-8.7,0c-0.2,0-0.5,0.4-0.5,0.6c0,2.6,0,5.3,0,8
	c0,0.5,0.2,0.6,0.6,0.6h8.2c0.1,0,0.2-0.1,0.3-0.1L40.6,27.7z M45.2,27.7c-0.1,0.1-0.1,0.2-0.1,0.4c0,2.8,0,5.5,0,8.2
	c0,0.5,0.3,0.6,0.7,0.6c2.6,0,5.2,0,7.8,0c0.5,0,0.7-0.1,0.7-0.7c0-2.7,0-5.3,0-8c0-0.5-0.2-0.6-0.7-0.6L45.2,27.7z M26.8,36.9
	c0-2.9,0-5.8,0-8.6c0-0.6-0.5-0.5-0.8-0.5c-2.5,0-5,0-7.5,0c-0.7,0-0.9,0.3-0.9,1c0,2.5,0,4.9,0,7.4c0,0.7,0.2,0.9,0.9,0.9
	c2.5,0,5.1,0,7.6,0C26.3,37,26.6,36.9,26.8,36.9z"/>
<path class="st0" d="M0,23.8l4-2.7l14.3-9.5l14-9.4c0.9-0.6,1.9-1.2,2.8-1.9c0.4-0.4,1.1-0.4,1.6,0c3.7,2.5,7.3,4.9,11,7.4l14.4,9.6
	l10,6.7c-0.4,0-0.6,0.1-0.8,0.1c-2.3,0-4.7,0-7,0c-0.4,0-0.7-0.1-1.1-0.3c-7.5-5-15-10.1-22.5-15.1c-1-0.7-2.1-1.3-3-2
	c-1-0.8-2.4-0.8-3.5,0c-7.4,5-14.9,9.9-22.3,14.9c-0.6,0.4-1.3,0.8-1.8,1.3C9,23.7,7.5,24.1,6,24c-2-0.1-4,0-6,0V23.8z"/>
</svg>
