<svg id="Layer_1" data-name="Layer 1" xmlns="http://www.w3.org/2000/svg" viewBox="0 0 42.14 44.25"><defs><style>.cls-1{fill:#919396;}</style></defs><title>Untitled-3</title><path class="cls-1" d="M27.66,6.3l2.06,2.06-.31.33-16,16a4.19,4.19,0,0,0-1.15,4.49,4.13,4.13,0,0,0,3.51,3,4.27,4.27,0,0,0,3.83-1.35L32.38,18l3.44-3.44a4.33,4.33,0,0,0,0-6.33l-4-4a4.31,4.31,0,0,0-6.29,0L5.16,24.71A7.2,7.2,0,0,0,4.92,34.9q2.15,2.32,4.47,4.46a7.18,7.18,0,0,0,10.12-.25L38.11,20.53c.65-.65,1.34-1.26,2-1.86l2,2.06L41.9,21,38.84,24,21.6,41.2a10.17,10.17,0,0,1-13.79.68C6.78,41,5.89,40,4.94,39.09c-.75-.75-1.52-1.48-2.24-2.26A10.19,10.19,0,0,1,3,22.7L23.52,2.18a7.28,7.28,0,0,1,10.4,0c1.48,1.48,2.93,3,4.44,4.44a7.19,7.19,0,0,1,.33,9.25,9.23,9.23,0,0,1-.73.73L21.62,32.94A7.29,7.29,0,0,1,11,22.92c5.48-5.54,11-11,16.52-16.54Z"/></svg>