<svg id="Layer_1" data-name="Layer 1" xmlns="http://www.w3.org/2000/svg" viewBox="0 0 100 100"><defs><style>.cls-1{fill:#943cbb;}.cls-2{fill:#fff;}</style></defs><title>API - Copy</title><circle class="cls-1" cx="50" cy="50" r="50"/><path class="cls-2" d="M25.07,65.78V43.09c.15-.14.29-.1.42,0,1.93,2,4.34,3.33,6.59,4.89,3.93,2.72,7.87,5.44,11.74,8.25a14.12,14.12,0,0,0,4.36,2.11,7.47,7.47,0,0,0,5-.45,20.1,20.1,0,0,0,4.33-2.59c3-2.15,6-4.25,9-6.32,2-1.36,4-2.7,6-4.11a16.13,16.13,0,0,0,1.95-1.68c.14-.14.28-.35.52-.14V65.78a4.08,4.08,0,0,1-.84,2.37,4.44,4.44,0,0,1-3.43,1.67H29.34a4.43,4.43,0,0,1-3.8-2.17A4.63,4.63,0,0,1,25.07,65.78Z"/><path class="cls-2" d="M25.07,36.08V34.62a6.53,6.53,0,0,0,.14-1,4.16,4.16,0,0,1,4-3.4q20.75,0,41.5,0a4.52,4.52,0,0,1,4,2.94c.09.36.07.74.16,1.1v1.36a1.48,1.48,0,0,0-.06.67,6.84,6.84,0,0,1-2,4.11,21.65,21.65,0,0,1-4.31,3.54C64,47.05,59.49,50.17,55,53.38a20.65,20.65,0,0,1-2.79,1.67,5.13,5.13,0,0,1-5.14-.36c-1.91-1.09-3.63-2.44-5.43-3.69L34.1,45.75c-1.79-1.25-3.65-2.43-5.35-3.8a14.09,14.09,0,0,1-3.06-3.57A5.72,5.72,0,0,1,25.07,36.08Z"/></svg>