<?xml version="1.0" encoding="utf-8"?>
<!-- Generator: Adobe Illustrator 21.0.0, SVG Export Plug-In . SVG Version: 6.00 Build 0)  -->
<svg version="1.1" id="Layer_1" xmlns="http://www.w3.org/2000/svg" xmlns:xlink="http://www.w3.org/1999/xlink" x="0px" y="0px"
	 viewBox="0 0 100 100" style="enable-background:new 0 0 100 100;" xml:space="preserve">
<style type="text/css">
	.st0{fill:#ED8B00;}
	.st1{fill:#FFFFFF;}
</style>
<g>
	<circle class="st0" cx="50" cy="50" r="50"/>
	<g>
		<g>
			<path class="st1" d="M32.4,78.7c-0.1-0.1-0.2-0.1-0.3-0.2c-0.7-0.3-1-0.9-1.1-1.6c0-0.2,0-0.4,0-0.6c0-10.6,0-21.2,0-31.8
				c0-0.2,0-0.4,0-0.6c12.6,0,25.2,0,37.8,0c0,0.2,0,0.3,0,0.5c0,10.7,0,21.4,0,32.1c0,1.1-0.5,1.8-1.5,2.2
				C55.7,78.7,44,78.7,32.4,78.7z M66.8,68.5c0-1.4,0-2.8,0-4.2c0-1.3-0.8-2.1-2.2-2.1c-0.8,0-1.6,0-2.4,0c-1.5,0-2.3,0.8-2.3,2.3
				c0,1,0,2,0,3.1c0,1.7,0,3.3,0,5c0,1.4,0.8,2.2,2.2,2.2c0.8,0,1.6,0,2.3,0c1.5,0.1,2.3-1,2.3-2.3C66.8,71.2,66.8,69.9,66.8,68.5z
				 M37.3,54.5C37.3,54.5,37.3,54.5,37.3,54.5c-0.6,0-1.1,0-1.7,0c-0.9,0.1-1.6,0.8-1.7,1.7c0,0.3,0,0.7,0,1c0,1.3,0.8,2,2,2.1
				c0.9,0,1.8,0,2.8,0c1.3,0,2-0.8,2-2.1c0-0.2,0-0.4,0-0.6c0-1.2-0.8-2.1-2.1-2.1C38.2,54.5,37.7,54.5,37.3,54.5z M54.7,59.4
				C54.7,59.4,54.7,59.4,54.7,59.4c0.5-0.1,0.9,0,1.4-0.1c1,0,1.8-0.6,1.9-1.6c0.1-0.6,0.1-1.2,0-1.7c-0.1-0.8-0.8-1.5-1.6-1.5
				c-1.2-0.1-2.3-0.1-3.5,0c-0.9,0.1-1.6,0.8-1.6,1.7c0,0.4,0,0.9,0,1.3c0,0.8,0.6,1.5,1.4,1.6C53.3,59.3,54,59.3,54.7,59.4z
				 M46,54.5L46,54.5c-0.5,0-1.1,0-1.6,0c-0.9,0.1-1.6,0.7-1.7,1.7c0,0.4,0,0.7,0,1.1c0,1.2,0.8,2,2,2c0.9,0,1.8,0,2.6,0
				c1.3,0,2.1-0.8,2.1-2.1c0-0.3,0-0.6,0-0.9c-0.1-1-0.7-1.8-1.8-1.8C47,54.5,46.5,54.5,46,54.5z M37.3,62.2c-0.5,0-1,0-1.4,0
				c-1.1,0-1.9,0.8-2,1.9c0,0.3,0,0.7,0,1c0.1,1.1,0.9,1.9,2,1.9c1,0,1.9,0,2.9,0c1.1,0,1.9-0.8,2-1.8c0-0.4,0-0.8,0-1.3
				c-0.1-1-0.9-1.8-1.9-1.8C38.2,62.2,37.7,62.2,37.3,62.2z M37.2,74.8L37.2,74.8c0.5,0,1.1,0,1.6,0c0.9-0.1,1.6-0.8,1.7-1.7
				c0.1-0.4,0.1-0.8,0-1.2c0-1.1-0.8-1.9-1.9-2c-1,0-2,0-3,0c-1.1,0.1-1.9,0.8-1.9,2c0,0.3,0,0.7,0,1c0.1,1,0.8,1.8,1.8,1.8
				C36.2,74.8,36.7,74.8,37.2,74.8z M37.2,51.6c0.5,0,1,0,1.5,0c1,0,1.8-0.7,1.9-1.7c0.1-0.5,0.1-0.9,0-1.4
				c-0.1-0.9-0.7-1.6-1.7-1.7c-1.1-0.1-2.2-0.1-3.3,0c-1.1,0.1-1.7,0.9-1.8,1.9c0,0.3,0,0.7,0,1c0.1,1.1,0.9,1.8,1.9,1.9
				C36.3,51.6,36.8,51.6,37.2,51.6z M46,51.6L46,51.6c0.5,0,1,0,1.5,0c1.1,0,1.9-0.8,1.9-1.8c0-0.4,0-0.8,0-1.2
				c-0.1-0.9-0.7-1.7-1.6-1.7c-1.2-0.1-2.3-0.1-3.5,0c-0.9,0-1.5,0.7-1.6,1.6c-0.1,0.5-0.1,1.1,0,1.6c0.1,0.9,0.9,1.6,1.8,1.6
				C44.9,51.6,45.5,51.6,46,51.6z M54.7,51.6c0.5,0,1,0,1.4,0c1.1,0,1.9-0.7,2-1.8c0-0.3,0-0.7,0-1c0-1.2-0.7-2-1.9-2
				c-1,0-2,0-2.9,0c-1.2,0.1-1.9,0.8-1.9,2c0,0.3,0,0.5,0,0.8c0,1.2,0.8,2,2,2C53.8,51.6,54.2,51.6,54.7,51.6z M54.7,74.8
				c0.5,0,1,0,1.6,0c1-0.1,1.7-0.7,1.8-1.7c0-0.4,0-0.8,0-1.2C58,70.8,57.3,70,56.2,70c-1,0-2,0-3,0c-1.1,0-1.9,0.9-1.9,2
				c0,0.3,0,0.6,0,1c0,1.1,0.8,1.9,1.8,1.9C53.7,74.8,54.2,74.8,54.7,74.8z M54.7,62.2L54.7,62.2c-0.5,0-1,0-1.5,0
				c-1,0-1.8,0.8-1.9,1.9c0,0.4,0,0.7,0,1.1c0,1,0.8,1.9,1.9,1.9c1,0,2,0,3,0c1,0,1.7-0.7,1.9-1.6c0.1-0.5,0.1-1.1,0-1.6
				c-0.1-0.9-0.9-1.6-1.8-1.6C55.7,62.2,55.2,62.2,54.7,62.2z M46,62.2L46,62.2c-0.5,0-1,0-1.5,0c-1,0-1.8,0.7-1.9,1.7
				c-0.1,0.5-0.1,1,0,1.5c0.1,0.9,0.8,1.7,1.8,1.7c1,0,2.1,0,3.1,0c1,0,1.8-0.8,1.8-1.8c0-0.4,0-0.8,0-1.2c-0.1-1-0.8-1.8-1.9-1.8
				C47,62.2,46.5,62.2,46,62.2z M46,74.8C46,74.8,46,74.8,46,74.8c0.5,0,1,0,1.5,0c1.1-0.1,1.8-0.8,1.9-1.9c0-0.3,0-0.7,0-1
				c-0.1-1.1-0.8-1.8-1.8-1.9c-1,0-2,0-3.1,0c-1,0-1.7,0.7-1.8,1.8c0,0.5,0,1,0,1.4c0.1,0.9,0.8,1.6,1.8,1.6
				C44.9,74.8,45.5,74.8,46,74.8z M63.4,54.5C63.4,54.5,63.4,54.5,63.4,54.5c-0.6,0-1.1,0-1.7,0c-0.7,0-1.3,0.4-1.5,1
				c-0.2,0.6-0.3,1.2-0.2,1.9c0.1,1.2,0.8,1.9,2,1.9c0.9,0,1.8,0,2.8,0c1.2,0,1.9-0.7,2-1.9c0-0.3,0-0.7,0-1
				c-0.1-1.2-0.9-1.9-2.1-1.9C64.3,54.5,63.9,54.5,63.4,54.5z M63.4,51.6L63.4,51.6c0.5,0,1,0,1.6,0c0.9,0,1.7-0.7,1.8-1.7
				c0.1-0.5,0.1-1,0-1.5c-0.1-0.8-0.7-1.5-1.6-1.6c-1.2-0.1-2.4-0.1-3.5,0c-0.9,0-1.5,0.8-1.6,1.6c-0.1,0.5-0.1,0.9,0,1.4
				c0.1,1,0.9,1.8,1.9,1.8C62.4,51.6,62.9,51.6,63.4,51.6z"/>
			<path class="st1" d="M67.3,24.5c0.1,0,0.2,0.1,0.3,0.1c0.8,0.3,1.2,1,1.2,1.8c0,0.9,0,1.8,0,2.8c0,4.4,0,8.7,0,13.1
				c0,0.4-0.1,0.5-0.5,0.5c-12.2,0-24.5,0-36.7,0c-0.4,0-0.5-0.1-0.5-0.5c0-5.1,0-10.1,0-15.2c0-1.2,0.3-2.2,1.5-2.7
				C44,24.5,55.7,24.5,67.3,24.5z M49.8,38c4.8,0,9.7,0,14.5,0c0.4,0,0.6-0.1,0.6-0.5c0-2.9,0-5.8,0-8.7c0-0.4-0.1-0.5-0.5-0.5
				c-9.7,0-19.3,0-29,0c-0.4,0-0.5,0.1-0.5,0.5c0,2.9,0,5.8,0,8.7c0,0.4,0.1,0.6,0.6,0.6C40.2,38,45,38,49.8,38z"/>
			<path class="st1" d="M63.4,68c-0.4,0-0.8,0-1.1,0c-0.4,0-0.3-0.3-0.3-0.5c0-0.2-0.1-0.5,0.3-0.5c0.7,0,1.5,0,2.2,0
				c0.4,0,0.3,0.2,0.3,0.4c0,0.2,0.1,0.5-0.3,0.5C64.2,68,63.8,68,63.4,68z"/>
			<path class="st1" d="M64.8,69.1C64.8,69.1,64.8,69.1,64.8,69.1c0.1,0.9,0.1,0.9-0.7,0.9c-0.5,0-1.1,0-1.6,0
				c-0.5,0-0.6-0.1-0.5-0.6c0-0.1,0-0.2,0-0.4C63,69.1,63.9,69.1,64.8,69.1z"/>
			<path class="st1" d="M64.9,57.4c-1,0-1.9,0-2.8,0c0,0-0.1-0.1-0.1-0.1c-0.1-0.8-0.1-0.8,0.8-0.8c0.5,0,1.1,0,1.6,0
				c0.4,0,0.5,0.1,0.5,0.5C64.8,57,64.9,57.2,64.9,57.4z"/>
			<path class="st1" d="M64.9,48.7c0,0.3,0,0.7-0.1,0.8c-0.2,0.2-0.5,0.1-0.9,0.1c0,0.3,0,0.6,0,0.9c-0.3,0-0.6,0-0.9,0
				c0-0.3,0-0.6,0-0.9c-0.3-0.1-0.7,0-0.9-0.2c-0.1-0.1,0-0.5,0-0.8c0.3,0,0.7,0,0.8-0.1c0.2-0.2,0.1-0.5,0.1-0.9c0.3,0,0.6,0,0.9,0
				c0,0.3,0,0.7,0.1,0.8C64.1,48.7,64.5,48.7,64.9,48.7z"/>
		</g>
	</g>
</g>
</svg>
