<svg id="Layer_1" data-name="Layer 1" xmlns="http://www.w3.org/2000/svg" viewBox="0 0 38 32.01"><defs><style>.cls-1{fill:#0373b9;}</style></defs><title>FAQs </title><path class="cls-1" d="M29,25H17.86v.76A1.14,1.14,0,0,0,19,26.91H30.29L33.71,32v-5.1h3.14A1.14,1.14,0,0,0,38,25.76V13.62a1.14,1.14,0,0,0-1.14-1.14H32.14v9.38A3.15,3.15,0,0,1,29,25Z"/><path class="cls-1" d="M29,0H1.14A1.14,1.14,0,0,0,0,1.14V21.86A1.14,1.14,0,0,0,1.14,23h6v7.93L13.7,23H29a1.14,1.14,0,0,0,1.14-1.14V1.14A1.14,1.14,0,0,0,29,0Z"/><rect class="cls-1" x="31.14" y="10.48" height="1" transform="translate(1.36 25.24) rotate(-45)"/><rect class="cls-1" x="31.14" y="11.48" height="1"/></svg>