<svg id="Layer_1" data-name="Layer 1" xmlns="http://www.w3.org/2000/svg" viewBox="0 0 59.04 63"><defs><style>.cls-1{fill:#919396;}</style></defs><title>API - Copy</title><path class="cls-1" d="M29.83,0l4.91,2.75L42.34,7l8.4,4.64,7.78,4.31a.92.92,0,0,1,.5,1,.88.88,0,0,1-.84.8,5.51,5.51,0,0,1-.6,0H1.47c-.93,0-1.28-.18-1.43-.73s.07-.94.88-1.38l9.59-5.29L20.18,5,29.06.11,29.22,0Zm-.37,14.29a4,4,0,1,0-4-4.06A4,4,0,0,0,29.46,14.29Z"/><path class="cls-1" d="M2.65,63A1.53,1.53,0,0,1,2,61.53c0-.53,0-1.07,0-1.61,0-1,.33-1.36,1.36-1.36H55.57c1.17,0,1.45.29,1.46,1.46,0,.54,0,1.07,0,1.61A1.32,1.32,0,0,1,56.3,63Z"/><path class="cls-1" d="M29.53,19.81h26c1.22,0,1.49.26,1.49,1.47,0,.6,0,1.21,0,1.81a1.05,1.05,0,0,1-1.17,1.14H3.49c-1.2,0-1.49-.3-1.5-1.48,0-.52,0-1,0-1.56,0-1.08.31-1.38,1.38-1.38Z"/><path class="cls-1" d="M29.53,57.55H5.73c-1.24,0-1.5-.27-1.5-1.52,0-.59,0-1.17,0-1.76A1,1,0,0,1,5.4,53.13H53.65a1,1,0,0,1,1.14,1.12c0,.74,0,1.48,0,2.21a1,1,0,0,1-1.06,1.09c-.17,0-.34,0-.5,0Z"/><path class="cls-1" d="M29.52,25.26h23.8c1.21,0,1.48.28,1.48,1.48,0,.59,0,1.17,0,1.76a1.06,1.06,0,0,1-1.19,1.18H5.76c-1.25,0-1.54-.28-1.54-1.54,0-.59,0-1.17,0-1.76,0-.75.38-1.09,1.14-1.11H29.52Z"/><path class="cls-1" d="M6.68,41.36q0-4.65,0-9.31C6.68,31,7,30.7,8,30.7h4.23c.93,0,1.27.36,1.27,1.28q0,9.41,0,18.82c0,1-.34,1.3-1.3,1.3H7.94c-.95,0-1.26-.32-1.26-1.28Q6.67,46.09,6.68,41.36Z"/><path class="cls-1" d="M45.52,41.41q0-4.68,0-9.35c0-1.05.3-1.36,1.34-1.36h4.22c1,0,1.28.32,1.28,1.27q0,9.43,0,18.85c0,1-.32,1.28-1.26,1.29H46.83c-1,0-1.31-.33-1.31-1.34Q45.52,46.09,45.52,41.41Z"/><path class="cls-1" d="M26.1,41.38q0-4.65,0-9.31c0-1.09.28-1.37,1.37-1.38h4.18c1,0,1.29.33,1.29,1.31q0,9.38,0,18.77c0,1-.32,1.32-1.33,1.33H27.44c-1,0-1.33-.3-1.33-1.36Q26.1,46.06,26.1,41.38Z"/><path class="cls-1" d="M29.54,8.27a2,2,0,0,1,2,2,2,2,0,1,1-4-.05A2,2,0,0,1,29.54,8.27Z"/></svg>