<svg id="Layer_1" data-name="Layer 1" xmlns="http://www.w3.org/2000/svg" viewBox="0 0 100 100"><defs><style>.cls-1{fill:#eb8900;}.cls-2{fill:#fff;}</style></defs><title>01</title><circle class="cls-1" cx="50" cy="50" r="50"/><path class="cls-2" d="M66.82,42a1.06,1.06,0,0,0-.28-.68q-6-6-12.06-12a1,1,0,0,0-.63-.27q-8.13,0-16.27,0a4.12,4.12,0,0,0-4.25,3.18,5.67,5.67,0,0,0-.15,1.46q0,8.2,0,16.4t0,16.4a4.48,4.48,0,0,0,1.1,3.17A4.09,4.09,0,0,0,37,71c.26,0,.53,0,.79,0Q50,71,62.26,71a4.28,4.28,0,0,0,4.58-4.48Q66.84,54.26,66.82,42ZM39.51,50h4.16v4.14H39.51Zm0,6.29h4.15v4.16H39.51Zm4.16,10.46H39.51V62.64h4.16ZM47.94,50H60.5v4.14H47.94ZM60.5,66.78H47.94V62.64H60.5Zm0-6.3H47.94V56.34H60.5ZM52.14,43.66V32.34L63.49,43.66Z"/></svg>