<svg id="Layer_1" data-name="Layer 1" xmlns="http://www.w3.org/2000/svg" viewBox="0 0 80.69 80.69"><defs><style>.cls-1{fill:#919396;}</style></defs><title>API - Copy</title><path class="cls-1" d="M80.69,38.53A12.56,12.56,0,0,1,80.63,37a28.23,28.23,0,0,0-.49-4.53,40.55,40.55,0,0,0-4.89-12.61,41.31,41.31,0,0,0-17.34-16,40.38,40.38,0,0,0-6.23-2.43A28.5,28.5,0,0,0,43.61.07,8,8,0,0,1,42.08,0H38.53A8.18,8.18,0,0,1,37,.07a26,26,0,0,0-6,.82A40.63,40.63,0,0,0,16.83,7.45,41.77,41.77,0,0,0,4.12,22.3a40.05,40.05,0,0,0-2.8,7.1A27.53,27.53,0,0,0,.07,37.07,6.22,6.22,0,0,1,0,38.46v3.62c.07.62,0,1.24.08,1.86.05.78,0,1.57.16,2.35a38.72,38.72,0,0,0,2,7.73A40.92,40.92,0,0,0,6.72,62.8a42.21,42.21,0,0,0,7.36,8.27,40,40,0,0,0,8.4,5.6A39.58,39.58,0,0,0,29,79.25a29.17,29.17,0,0,0,8,1.38,7.87,7.87,0,0,1,1.5.07h3.55c.62-.07,1.24,0,1.86-.08s1.52-.06,2.27-.16a36.74,36.74,0,0,0,7.09-1.77,39.94,39.94,0,0,0,7.38-3.43,41.37,41.37,0,0,0,6.93-5.17,43.25,43.25,0,0,0,4.77-5.17,40.57,40.57,0,0,0,4.55-7.36,40,40,0,0,0,2.33-6,28.93,28.93,0,0,0,1.36-8A8.42,8.42,0,0,1,80.69,42Zm-7.49,3.16a6.86,6.86,0,0,0,0,1.26A23.56,23.56,0,0,1,72,49.46a32.58,32.58,0,0,1-1.9,4.9,33,33,0,0,1-3.7,6,35.23,35.23,0,0,1-3.89,4.21,33.69,33.69,0,0,1-5.65,4.21,32.52,32.52,0,0,1-6,2.79A29.92,29.92,0,0,1,45.12,73c-.61.08-1.23.09-1.85.13s-1,0-1.51.06H38.87a6.41,6.41,0,0,0-1.22-.06A23.76,23.76,0,0,1,31.1,72,33.15,33.15,0,0,1,19,65.37a34.38,34.38,0,0,1-6-6.74A33.33,33.33,0,0,1,9.3,51.48a31.54,31.54,0,0,1-1.62-6.3c-.09-.63-.09-1.28-.13-1.92s0-1-.06-1.51v-3a5.07,5.07,0,0,0,.06-1.13,22.42,22.42,0,0,1,1-6.25,32.62,32.62,0,0,1,2.28-5.78A34,34,0,0,1,21.2,13.55,33.09,33.09,0,0,1,32.74,8.21a21.21,21.21,0,0,1,4.88-.67,6.66,6.66,0,0,0,1.25-.06h2.89A6.51,6.51,0,0,0,43,7.54a23.21,23.21,0,0,1,6.57,1.12,32.89,32.89,0,0,1,5.08,2,33.64,33.64,0,0,1,14.13,13,33,33,0,0,1,4,10.27,23,23,0,0,1,.4,3.69,10.23,10.23,0,0,0,0,1.27Z"/><path class="cls-1" d="M60.3,36h-26c-.11,0-.27,0-.32-.08s.09-.2.17-.28l6.77-6.93,4.91-5c.09-.09.25-.16.19-.31s-.21-.07-.33-.07h-.39c-3.3,0-6.59,0-9.89,0a2,2,0,0,0-1.66.71c-2.91,3.11-5.86,6.16-8.8,9.24-1.48,1.55-3,3.06-4.45,4.63-.69.74-1.43,1.43-2.09,2.2a.42.42,0,0,0,0,.67q2.16,2.21,4.29,4.45l3.76,3.93Q30.23,53.08,34,57a1.26,1.26,0,0,0,1,.42H45.35c.2,0,.5.1.58-.09s-.18-.35-.32-.5c-1.15-1.21-2.35-2.37-3.5-3.57C39.55,50.62,37,48,34.38,45.37c-.14-.14-.42-.27-.34-.48s.38-.11.58-.11H60.3c.32,0,.45-.15.45-.46q0-3.92,0-7.84C60.75,36.15,60.61,36,60.3,36Z"/></svg>