<svg id="Layer_1" data-name="Layer 1" xmlns="http://www.w3.org/2000/svg" viewBox="0 0 150 122.22"><defs><style>.cls-1{opacity:0.3;}.cls-2{fill:#dc311d;}</style></defs><title>Heart</title><g class="cls-1"><path class="cls-2" d="M42.93,0a42.15,42.15,0,0,1,27,10c4,3.27,5.28,3.28,9.36,0C100.8-7.57,134.39-.79,146,23.69c6.62,13.93,4.53,27.48-3.08,40.46C134,79.41,121.49,91.4,107.49,101.82c-9.09,6.77-18.84,12.66-28.27,19-2.86,1.92-5.47,1.83-8.49.07-19.07-11.17-36.88-23.94-51.8-40.41-7.37-8.14-13.83-17-17-27.58C-4.52,31.82,5.71,10.37,28.26,2.56A39.62,39.62,0,0,1,34.68.9C37.41.45,40.18.29,42.93,0Z"/></g></svg>