<?xml version="1.0" encoding="utf-8"?>
<!-- Generator: Adobe Illustrator 21.0.0, SVG Export Plug-In . SVG Version: 6.00 Build 0)  -->
<svg version="1.1" id="Layer_1" xmlns="http://www.w3.org/2000/svg" xmlns:xlink="http://www.w3.org/1999/xlink" x="0px" y="0px"
	 viewBox="0 0 100 100" style="enable-background:new 0 0 100 100;" xml:space="preserve">
<style type="text/css">
	.st0{fill:#963CBD;}
	.st1{fill:#FFFFFF;}
</style>
<g>
	<circle class="st0" cx="50" cy="50" r="50"/>
	<g>
		<path class="st1" d="M78.8,66.4c0,0.8,0,1.5,0,2.3c-0.3,1.7-1.1,2.6-2.6,2.9c-0.2,0.1-0.5,0.1-0.7,0.1c-17,0-34,0-51.1,0
			c-1.2,0-2.2-0.5-2.9-1.4c-0.4-0.4-0.3-1-0.4-1.5c0-0.8,0-1.6,0-2.4c0-1.3,0.9-2,1.8-2.8c0.8-0.7,1.6-1.6,2.5-2.3
			c0.6-0.5,0.9-1.2,0.9-2c0-4.3,0-8.7,0-13c0-3.5,0-7,0-10.4c0-2.4,2-4.4,4.4-4.4c13,0,25.9,0,38.9,0c2.3,0,4.3,2,4.3,4.3
			c0,7.7,0,15.4,0,23c0,1.3,0.4,2.3,1.4,3.1c0.9,0.7,1.6,1.5,2.4,2.2C78.2,64.5,78.7,65.3,78.8,66.4z M31.1,35.2c-0.4,0-0.8,0-1,0.4
			c-0.2,0.3-0.1,0.6-0.1,0.9c0,7.6,0,15.2,0,22.7c0,1.1,0.2,1.3,1.3,1.3c12.4,0,24.7,0,37.1,0c1.2,0,1.3-0.2,1.3-1.3
			c0-7.5,0-15.1,0-22.6c0-1.1-0.2-1.3-1.4-1.3c-6.2,0-12.3,0-18.5,0C43.6,35.2,37.4,35.2,31.1,35.2z M45.2,65.9c1.9,0,3.8,0,5.8,0
			c1.2,0,2.4,0,3.6,0c0.1,0,0.3,0.1,0.4-0.1c0.1-0.2-0.1-0.3-0.2-0.4c-0.3-0.3-0.7-0.7-1-1c-0.2-0.2-0.5-0.3-0.8-0.3
			c-2.1,0-4.2,0-6.3,0c-0.2,0-0.4,0-0.5,0.1c-0.5,0.5-1,1.1-1.7,1.7C44.9,65.9,45.1,65.9,45.2,65.9z"/>
		<g>
			<g>
				<path class="st1" d="M47.3,38.9c-3.5-1.3-7-0.9-10.5,0.5c-0.3,0.1-0.4,0.3-0.4,0.6c0,5.5,0,10.9,0,16.4c0,0.1,0,0.3,0,0.5
					c0.2,0,0.4,0,0.5,0c3.4,0,6.7,0,10.1,0c0.2,0,0.5,0.1,0.7,0.2c0.7,0.3,1.4,0.4,2,0.4c0-2.7,0-12,0-17.3
					C49,39.7,48.2,39.2,47.3,38.9z M49,55.6c-3.7-2.5-7.4-2.2-11.1-0.1c0-0.2,0-0.3,0-0.5c0-4.6,0-9.1,0-13.7c0-0.4,0.1-0.6,0.5-0.7
					c1.3-0.6,2.7-0.9,4.1-0.8c1.4,0,2.8,0.1,4.2,0.7c0.9,0.4,1.7,0.8,2.1,1.7c0.2,0.3,0.3,0.7,0.3,1.1c0,4.1,0,8.1,0,12.2
					C49,55.4,49,55.5,49,55.6z"/>
				<path class="st1" d="M47.6,45.9c0,0,0,0.1,0,0.2c0,0.1-0.1,0.1-0.1,0.1c-1-0.3-2-0.6-2.9-0.8c-1.8-0.4-3.6-0.3-5.3,0.4
					c-0.2,0.1-0.5,0.2-0.5-0.2C41.1,44.3,44.7,44.6,47.6,45.9z"/>
				<path class="st1" d="M47.6,48.5c0,0.3-0.1,0.4-0.4,0.3c-1.3-0.5-2.7-0.9-4.1-1c-1.3-0.1-2.6,0.1-3.9,0.6
					c-0.2,0.1-0.5,0.2-0.5-0.3C41.7,46.9,44.6,47.3,47.6,48.5z"/>
				<path class="st1" d="M38.7,42.9c3-1.2,6-0.8,8.9,0.4c0,0.4-0.2,0.4-0.5,0.3c-1.2-0.5-2.4-0.8-3.7-0.9c-1.5-0.1-2.9,0-4.2,0.5
					C38.9,43.3,38.7,43.3,38.7,42.9z"/>
			</g>
			<g>
				<path class="st1" d="M49.9,40.1c0,5.3,0,14.6,0,17.3c0.7,0,1.4-0.1,2-0.4c0.2-0.1,0.5-0.2,0.7-0.2c3.4,0,6.7,0,10.1,0
					c0.2,0,0.3,0,0.5,0c0-0.2,0-0.3,0-0.5c0-5.5,0-10.9,0-16.4c0-0.3-0.1-0.5-0.4-0.6c-3.4-1.4-6.9-1.7-10.5-0.5
					C51.6,39.2,50.7,39.7,49.9,40.1z M50.7,55.4c0-4.1,0-8.1,0-12.2c0-0.4,0.1-0.8,0.3-1.1c0.4-0.9,1.3-1.3,2.1-1.7
					c1.3-0.5,2.7-0.7,4.2-0.7c1.4,0,2.8,0.3,4.1,0.8c0.3,0.2,0.5,0.3,0.5,0.7c0,4.6,0,9.1,0,13.7c0,0.1,0,0.3,0,0.5
					c-3.8-2.1-7.5-2.5-11.1,0.1C50.7,55.5,50.7,55.4,50.7,55.4z"/>
				<path class="st1" d="M52.1,45.9c0,0,0,0.1,0,0.2c0,0.1,0.1,0.1,0.1,0.1c1-0.3,2-0.6,2.9-0.8c1.8-0.4,3.6-0.3,5.3,0.4
					c0.2,0.1,0.5,0.2,0.5-0.2C58.6,44.3,55,44.6,52.1,45.9z"/>
				<path class="st1" d="M52.1,48.5c0,0.3,0.1,0.4,0.4,0.3c1.3-0.5,2.7-0.9,4.1-1c1.3-0.1,2.6,0.1,3.9,0.6c0.2,0.1,0.5,0.2,0.5-0.3
					C58,46.9,55.1,47.3,52.1,48.5z"/>
				<path class="st1" d="M61,42.9c-3-1.2-6-0.8-8.9,0.4c0,0.4,0.2,0.4,0.5,0.3c1.2-0.5,2.4-0.8,3.7-0.9c1.5-0.1,2.9,0,4.2,0.5
					C60.8,43.3,61,43.3,61,42.9z"/>
			</g>
		</g>
	</g>
</g>
</svg>
