<svg id="Layer_1" data-name="Layer 1" xmlns="http://www.w3.org/2000/svg" viewBox="0 0 100 100"><defs><style>.cls-1{fill:#00b0a7;}.cls-2{fill:#fff;}</style></defs><title>API - Copy</title><circle class="cls-1" cx="50" cy="50" r="50"/><path class="cls-2" d="M77.16,60.34a14.49,14.49,0,0,0-3.64-8.4c-4.32-4.76-9.66-6.4-15.86-4.71a15.1,15.1,0,0,0-11,16.33c.8,6.43,4.39,10.72,10.46,12.94a19.35,19.35,0,0,0,3.58.76h2.34c.2-.11.42,0,.62-.05a12.32,12.32,0,0,0,3.39-.54,15.55,15.55,0,0,0,8.4-7.06,10.5,10.5,0,0,0,1.58-4.52,17.39,17.39,0,0,1,.17-2V60.75A3.77,3.77,0,0,1,77.16,60.34ZM61.91,70.43a1.7,1.7,0,1,1,1.71-1.73A1.71,1.71,0,0,1,61.91,70.43Zm1.71-8.56a1.7,1.7,0,1,1-3.4,0q0-3.38,0-6.76a1.7,1.7,0,1,1,3.4,0c0,1.13,0,2.27,0,3.4S63.63,60.75,63.62,61.87Z"/><path class="cls-2" d="M47.61,50c-.17-.38-.59-.23-.91-.23H31.42a7.42,7.42,0,0,1-.85,0,.72.72,0,0,1-.71-.67,6.17,6.17,0,0,1,0-1.49.71.71,0,0,1,.66-.66,4.92,4.92,0,0,1,.74,0H50.58a1.63,1.63,0,0,0,1-.23A16.44,16.44,0,0,1,54.53,45a18.42,18.42,0,0,1,8.56-1.52c.72,0,.79,0,.8-.72,0-1.54-.09-3.09,0-4.63a3.83,3.83,0,0,0-1.4-3.37c-2-1.82-3.84-3.73-5.73-5.63l-2.6-2.58c-.85-.83-1.69-1.67-2.51-2.52A5.06,5.06,0,0,0,50,22.75H25.73a3.72,3.72,0,0,0-2.1.8,3.54,3.54,0,0,0-.88,2.18V67.46a3.85,3.85,0,0,0,.55,1.8,3.7,3.7,0,0,0,2.86,1.43q9.29,0,18.57,0c.72,0,.82-.14.53-.78a20.67,20.67,0,0,1-1.66-5.7c-.12-.85-.12-.85-1-.85H31.28c-1.32,0-1.46-.14-1.45-1.47s.15-1.4,1.42-1.4H42.53a5,5,0,0,0,.64,0,.38.38,0,0,0,.37-.32c.15-1,.35-2,.53-3,.06-.34-.12-.55-.49-.55H31.17c-1.18,0-1.34-.17-1.35-1.36v-.05c0-1.32.14-1.45,1.47-1.45,4.4,0,8.8,0,13.2,0a1.31,1.31,0,0,0,1.34-.79,15.78,15.78,0,0,1,1.39-2.14C47.39,50.52,47.75,50.3,47.61,50ZM50.1,26.43c.18-.09.28.11.38.22l9.22,9.22c.11.11.31.22.25.38s-.31.12-.47.12H52.78A2.66,2.66,0,0,1,50,33.63c0-2.25,0-4.51,0-6.76C50,26.72,49.93,26.51,50.1,26.43ZM29.56,42.29c0-.6,0-1.21,0-1.81s.16-.72.7-.71c1.91,0,3.83,0,5.74,0H55.89c.92,0,.92,0,.93.9q0,.9,0,1.81c0,.66,0,.69-.69.69H30.43C29.56,43.18,29.56,43.18,29.56,42.29Z"/></svg>