<svg id="Layer_1" data-name="Layer 1" xmlns="http://www.w3.org/2000/svg" viewBox="0 0 60.98 62.92"><defs><style>.cls-1{fill:#919396;}</style></defs><title>API - Copy</title><path class="cls-1" d="M27.56,50.48c0-2.29,1-4.34.43-6.59a16.3,16.3,0,0,1-.33-3,.93.93,0,0,1,.95-1.07c1.25,0,2.5,0,3.74,0a1,1,0,0,1,1,1.25,30.79,30.79,0,0,1-.44,3.27c-.37,1.44.23,2.88.38,4.33a3.1,3.1,0,0,0,.35,1.65c.5-.15.58-.62.77-1,2.17-4,4.34-7.95,6.45-12a1.43,1.43,0,0,1,2-.85c2.87.83,5.79,1.53,8.66,2.39,4.26,1.28,7.15,3.8,7.72,8.53.48,4,1.18,7.89,1.76,11.84.33,2.27-.79,3.57-3.09,3.57H3.18c-2.35,0-3.46-1.31-3.12-3.65C.68,55.08,1.29,50.88,2,46.69c.63-4,3.24-6.28,6.84-7.47,3.21-1.06,6.52-1.8,9.78-2.72.83-.24,1.16.21,1.49.82q3.22,6,6.46,11.94A2.09,2.09,0,0,0,27.56,50.48Z"/><path class="cls-1" d="M45.72,14.84a4.56,4.56,0,0,1-1-1.72,20,20,0,0,0-5.27-8.68c-.88-.85-1-.84-1.38.3-.74,2.23-1.47,4.47-2.21,6.7-.24.73-.5,1.46-.76,2.24a.53.53,0,0,1-.13-.58c.5-3.35,1-6.7,1.53-10a1.59,1.59,0,0,0-1.09-2,13.2,13.2,0,0,0-11,.28,1.64,1.64,0,0,0-1.07,2c.26,1.62.49,3.24.73,4.86s.5,3.48.75,5.22l-.24.06c-.13-.32-.27-.63-.38-1-.81-2.36-1.61-4.72-2.43-7.08-.41-1.18-.56-1.2-1.49-.38a16.43,16.43,0,0,0-4.7,8.36A4.66,4.66,0,0,1,15,15a8.61,8.61,0,0,0-1.34,5,1.82,1.82,0,0,0,1,1.84,1,1,0,0,1,.64.79c.51,2.83,1.93,5.33,3,8a11.07,11.07,0,0,0,1.39,2.28c4.48,6.15,11.93,7.53,17.75,3.27A16.5,16.5,0,0,0,43.24,28a3.21,3.21,0,0,1,.68-1.43,5.11,5.11,0,0,0,1.54-3.1c.13-.84.27-1.59,1.19-2a1,1,0,0,0,.56-.87C47.35,18.57,47.2,16.51,45.72,14.84Zm-2,7.89c-.13.87-.18,1.81-1.17,2.23-.48.2-.48.66-.6,1.06a16,16,0,0,1-4.05,7.18A10.52,10.52,0,0,1,22,32.53a16.1,16.1,0,0,1-2.9-5,10.74,10.74,0,0,0-1.43-3.42.4.4,0,0,1,0-.1c-.72-1.66-.44-2.1,1.53-2.09a2.06,2.06,0,0,1,1.94.72,1.51,1.51,0,0,0,1.28.42H38.51a1.46,1.46,0,0,0,1.2-.34c.94-1.16,2.21-.72,3.38-.75A.55.55,0,0,1,43.68,22.73Z"/></svg>