<svg id="Layer_1" data-name="Layer 1" xmlns="http://www.w3.org/2000/svg" viewBox="0 0 52.48 33"><defs><style>.cls-1{fill:#0373b9;}</style></defs><title>Reviews </title><polygon class="cls-1" points="26.24 12.82 29.52 19.46 36.85 20.53 31.54 25.7 32.79 33 26.24 29.55 19.68 33 20.94 25.7 15.63 20.53 22.96 19.46 26.24 12.82"/><polygon class="cls-1" points="5.74 6.45 7.51 10.04 11.48 10.62 8.61 13.42 9.29 17.37 5.74 15.5 2.19 17.37 2.87 13.42 0 10.62 3.97 10.04 5.74 6.45"/><polygon class="cls-1" points="46.74 7.37 48.51 10.96 52.48 11.54 49.61 14.33 50.29 18.28 46.74 16.42 43.19 18.28 43.87 14.33 41 11.54 44.97 10.96 46.74 7.37"/><polygon class="cls-1" points="19.41 0 21.18 3.59 25.14 4.17 22.27 6.97 22.95 10.92 19.41 9.05 15.86 10.92 16.54 6.97 13.67 4.17 17.63 3.59 19.41 0"/><polygon class="cls-1" points="33.07 0 34.85 3.59 38.81 4.17 35.94 6.97 36.62 10.92 33.07 9.05 29.52 10.92 30.2 6.97 27.33 4.17 31.3 3.59 33.07 0"/></svg>