<?xml version="1.0" encoding="utf-8"?>
<!-- Generator: Adobe Illustrator 21.0.0, SVG Export Plug-In . SVG Version: 6.00 Build 0)  -->
<svg version="1.1" id="Layer_1" xmlns="http://www.w3.org/2000/svg" xmlns:xlink="http://www.w3.org/1999/xlink" x="0px" y="0px"
	 viewBox="0 0 33.2 63.6" style="enable-background:new 0 0 33.2 63.6;" xml:space="preserve">
<style type="text/css">
	.st0{clip-path:url(#SVGID_2_);}
	.st1{clip-path:url(#SVGID_4_);}
	.st2{clip-path:url(#SVGID_6_);}
	.st3{opacity:0.2;}
	.st4{clip-path:url(#SVGID_15_);}
	.st5{clip-path:url(#SVGID_16_);}
	.st6{clip-path:url(#SVGID_17_);}
	.st7{clip-path:url(#SVGID_18_);}
	.st8{clip-path:url(#SVGID_19_);}
	.st9{clip-path:url(#SVGID_20_);}
	.st10{clip-path:url(#SVGID_21_);}
	.st11{clip-path:url(#SVGID_22_);}
	.st12{fill:none;stroke:#606060;stroke-width:2;stroke-miterlimit:10;}
</style>
<title>API - Copy</title>
<g>
	<defs>
		<path id="SVGID_1_" d="M-920.7,1085.9H293.5c4.4,0,8,3.6,8,8v493.2c0,4.4-3.6,8-8,8H-920.7c-4.4,0-8-3.6-8-8v-493.2
			C-928.7,1089.5-925.1,1085.9-920.7,1085.9z"/>
	</defs>
	<clipPath id="SVGID_2_">
		<use xlink:href="#SVGID_1_"  style="overflow:visible;"/>
	</clipPath>
	<g class="st0">
		<g>
			<g>
				<defs>
					<path id="SVGID_3_" d="M81.8,1646.6l-79.2,13.9l0,0L81.8,1646.6L81.8,1646.6 M-799.1,1801.7l-107.9,19L-1231.8-23.5
						L612.3-348.2l-27,4.8l-8.6,1.5l-24.4,4.3L487-326.1l-8.4,1.5l-42.6,7.5l-48.2,8.5l-3.3,0.6l-53.4,9.4l-32.6,5.7l-184,32.4
						l-21.9,3.9l-14.9,2.6l-15.4,2.7L-101-222.6l-657.2,115.8l-152.9,26.9l-234.8,41.3l-86,15.1l0,0l53.6,304.5l72.8,413.6
						l44.2,251.2l51.5,292.7l75.3,427.4l1.8,10.5l99.6-257.9l-33.3-40.7l33.3,40.7l12.8-14.3l-12.7,14.3l-99.6,257.9l0.9,5.3
						l1.4,8.1l217.8-108.9l0,0l-217.8,108.9l0.9,5l0.6,3.2l0.7,3.8l134.2,86.2l0,0l-134.2-86.2l3.1,17.7l55.1,94.7L-799.1,1801.7
						L-799.1,1801.7 M-924.9,1719.5l17.8,101.3l37.3-6.6L-924.9,1719.5"/>
				</defs>
				<clipPath id="SVGID_4_">
					<use xlink:href="#SVGID_3_"  style="overflow:visible;"/>
				</clipPath>
				<g class="st1">
					<g>
						<defs>
							
								<rect id="SVGID_5_" x="-1083.6" y="-200" transform="matrix(0.9848 -0.1735 0.1735 0.9848 -129.9574 -14.3901)" width="1872.6" height="1872.6"/>
						</defs>
						<clipPath id="SVGID_6_">
							<use xlink:href="#SVGID_5_"  style="overflow:visible;"/>
						</clipPath>
						<g class="st2">
							
								<image style="overflow:visible;enable-background:new    ;" width="604" height="602" xlink:href="B829FEF4.jpg"  transform="matrix(3.07 -0.54 -0.54 -3.07 -909.562 1824.3689)">
							</image>
						</g>
					</g>
					<g class="st3">
						<defs>
							<path id="SVGID_7_" class="st3" d="M-187.8,318.5l-23-189.5l12.1-8.5c39.1-20.3,81.4-42.9,126.6-67.9
								C-111.2,142-149.8,230.7-187.8,318.5"/>
						</defs>
						<defs>
							<path id="SVGID_8_" class="st3" d="M-183.7,352.8l-4.2-34.4c38-87.8,76.6-176.4,115.8-265.9c21.9-12.1,44.5-24.7,67.7-37.8
								L-183.7,352.8"/>
						</defs>
						<defs>
							<path id="SVGID_9_" class="st3" d="M-183.7,352.8L-183.7,352.8L44.1,92.3l39.3-10.9C43.9,144.6,7.5,204.2-25.2,259.5
								L-183.7,352.8"/>
						</defs>
						<defs>
							<path id="SVGID_10_" class="st3" d="M-183.7,352.8L-183.7,352.8L-4.3,14.8c6.4-3.6,13-7.4,19.5-11.1l12.5-4.4l16.4,93
								L-183.7,352.8"/>
						</defs>
						<defs>
							<path id="SVGID_11_" class="st3" d="M-213.7,128.2l-67.5-19.5l3-3c65.1-22.3,131-45.1,198-68.5l-118.5,83.3
								C-203.7,123.1-208.7,125.6-213.7,128.2"/>
						</defs>
						<defs>
							<path id="SVGID_12_" class="st3" d="M-37.9,325.7C33,265.9,106.2,203.2,181.6,137.6L286.2,76c-0.6,21.3-1.2,42.6-1.8,63.8
								c-40.3,52.2-78.9,101.4-115.9,147.5L-37.9,325.7"/>
						</defs>
						<defs>
							<path id="SVGID_13_" class="st3" d="M-25.2,259.5C7.5,204.2,43.9,144.6,83.3,81.4l204.3-56.6c-0.2,6.9-0.4,13.8-0.6,20.7
								c-35.5,31.3-70.7,62-105.4,92.2L-25.2,259.5"/>
						</defs>
						<defs>
							<path id="SVGID_14_" class="st3" d="M-67,331.2c13.2-23,27.1-46.8,41.7-71.6l206.8-121.9C106.3,203,33.1,265.7-37.9,325.7
								L-67,331.2"/>
						</defs>
						<clipPath id="SVGID_15_">
							<use xlink:href="#SVGID_7_"  style="overflow:visible;"/>
						</clipPath>
						<clipPath id="SVGID_16_" class="st4">
							<use xlink:href="#SVGID_8_"  style="overflow:visible;"/>
						</clipPath>
						<clipPath id="SVGID_17_" class="st5">
							<use xlink:href="#SVGID_9_"  style="overflow:visible;"/>
						</clipPath>
						<clipPath id="SVGID_18_" class="st6">
							<use xlink:href="#SVGID_10_"  style="overflow:visible;"/>
						</clipPath>
						<clipPath id="SVGID_19_" class="st7">
							<use xlink:href="#SVGID_11_"  style="overflow:visible;"/>
						</clipPath>
						<clipPath id="SVGID_20_" class="st8">
							<use xlink:href="#SVGID_12_"  style="overflow:visible;"/>
						</clipPath>
						<clipPath id="SVGID_21_" class="st9">
							<use xlink:href="#SVGID_13_"  style="overflow:visible;"/>
						</clipPath>
						<clipPath id="SVGID_22_" class="st10">
							<use xlink:href="#SVGID_14_"  style="overflow:visible;"/>
						</clipPath>
						<g class="st11">
							
								<image style="overflow:visible;enable-background:new    ;" width="54" height="80" xlink:href="B829FEFB.jpg"  transform="matrix(3.08 -0.54 0.55 3.1 -235.122 76.559)">
							</image>
						</g>
						<g class="st11">
							
								<image style="overflow:visible;enable-background:new    ;" width="79" height="99" xlink:href="B829FEFC.jpg"  transform="matrix(3.1 -0.55 0.54 3.09 -244.062 52.779)">
							</image>
						</g>
						<g class="st11">
							
								<image style="overflow:visible;enable-background:new    ;" width="103" height="73" xlink:href="B829FEFD.jpg"  transform="matrix(3.09 -0.54 0.55 3.1 -229.992 132.699)">
							</image>
						</g>
						<g class="st11">
							
								<image style="overflow:visible;enable-background:new    ;" width="90" height="102" xlink:href="B829FEFA.jpg"  transform="matrix(3.09 -0.54 0.54 3.09 -245.692 43.559)">
							</image>
						</g>
						<g class="st11">
							
								<image style="overflow:visible;enable-background:new    ;" width="71" height="24" xlink:href="B829FEF9.jpg"  transform="matrix(3.1 -0.55 0.55 3.15 -294.692 71.199)">
							</image>
						</g>
						<g class="st11">
							
								<image style="overflow:visible;enable-background:new    ;" width="119" height="64" xlink:href="B829FEE8.jpg"  transform="matrix(3.08 -0.54 0.55 3.1 -76.052 134.109)">
							</image>
						</g>
						<g class="st11">
							
								<image style="overflow:visible;enable-background:new    ;" width="114" height="60" xlink:href="B829FEE9.jpg"  transform="matrix(3.08 -0.54 0.55 3.1 -60.122 80.599)">
							</image>
						</g>
						<g class="st11">
							
								<image style="overflow:visible;enable-background:new    ;" width="93" height="50" xlink:href="B829FEEA.jpg"  transform="matrix(3.08 -0.54 0.55 3.11 -99.202 182.549)">
							</image>
						</g>
					</g>
				</g>
			</g>
		</g>
	</g>
</g>
<polyline class="st12" points="0.7,0.7 31.8,31.8 0.7,62.9 "/>
</svg>
