<?xml version="1.0"?><svg width="640" height="480" xmlns="http://www.w3.org/2000/svg">
 <title>search-icon</title>
 <metadata id="metadata12220">image/svg+xmlSergio Luiz Araujo Silvasearchiconsinformaticcomputer</metadata>
 <g>
  <title>Layer 1</title>
  <path d="m235.204468,145.215973c-35.639786,35.638962 -35.727097,94.021729 -0.087296,129.66153c30.195755,30.195801 76.761459,34.797241 111.944962,13.808533l62.877197,61.140167c8.653564,8.399109 22.307281,8.088654 30.569641,-0.695099c8.263245,-8.783722 8.046631,-22.604614 -0.607788,-31.003723l-61.920959,-60.011047c21.710999,-35.28891 17.302246,-82.397369 -13.200714,-112.90036c-35.639771,-35.639786 -93.936066,-35.639786 -129.575043,0l0,0zm26.14032,26.140366c21.497711,-21.497711 55.795868,-21.497711 77.293549,0c21.497681,21.497681 21.497681,55.795807 0,77.293503c-21.497681,21.497711 -55.795837,21.497711 -77.293549,0c-21.497681,-21.497696 -21.497681,-55.795822 0,-77.293503z" id="path12423" stroke-width="9.756173" fill="#bfbfbf"/>
 </g>
</svg>