<?xml version="1.0" encoding="utf-8"?>
<!-- Generator: Adobe Illustrator 21.0.0, SVG Export Plug-In . SVG Version: 6.00 Build 0)  -->
<svg version="1.1" id="Layer_1" xmlns="http://www.w3.org/2000/svg" xmlns:xlink="http://www.w3.org/1999/xlink" x="0px" y="0px"
	 viewBox="0 0 15.5 15.5" style="enable-background:new 0 0 15.5 15.5;" xml:space="preserve">
<style type="text/css">
	.st0{fill:#4074E1;}
</style>
<g>
	<g>
		<path class="st0" d="M15.2,13.5c-1.4-1.4-1.1-1.1-2.6-2.6c-0.2-0.2-0.1-0.2,0-0.4c0.7-1.1,1.1-2.4,1.1-3.9c0-0.2,0-0.5-0.1-0.8
			C13.1,2.3,9.8-0.3,6.1,0C2.3,0.4-0.5,3.9,0.1,7.8c0.7,4.9,6.3,7.5,10.5,4.8c0.2-0.1,0.3-0.1,0.5,0c1.4,1.4,1.1,1.1,2.5,2.5
			c0.3,0.3,0.6,0.4,1,0.4c0.5-0.1,0.8-0.3,0.9-0.8C15.6,14.3,15.5,13.9,15.2,13.5z M6.8,12.1C4,12,1.6,9.7,1.6,6.8
			c0-2.9,2.3-5.2,5.2-5.2c2.9,0,5.2,2.3,5.2,5.2C12.1,9.7,9.7,12.1,6.8,12.1z"/>
	</g>
</g>
</svg>
