<svg id="Layer_1" data-name="Layer 1" xmlns="http://www.w3.org/2000/svg" viewBox="0 0 60.64 64"><defs><style>.cls-1{fill:#0373b9;}.cls-2{fill:#919396;}.cls-3{opacity:0.05;}.cls-4{fill:#606060;}</style></defs><title>API - Copy</title><path class="cls-1" d="M36.7,0H6.53V.13H36.69Z"/><path class="cls-2" d="M60.63,61.66c0-1-.06-1-1.08-1.06s-1.07,0-1.07-1.05q0-14.08,0-28.16c0-.75,0-1.5,0-2.25s.25-.89.86-.83c.1,0,.21,0,.31,0,.5,0,.72-.22.71-.72,0-.73,0-1.46,0-2.19,0-1,0-1.08-1.1-1.08h-17c-1.13,0-1.15,0-1.15-1.16q0-7,0-14c0-1.62-.14-1.55,1.51-1.55.66,0,.74-.13.48-.76-.47-1.16-1-2.31-1.42-3.47a1,1,0,0,0-1.13-.76c-1,0-2,0-3.07,0-.53,0-.76-.23-.75-.76s0-1.17,0-1.75h0c-.25.33-.62.31-1,.31H7.7c-.41,0-.85.09-1.16-.3,0,.54,0,1.09,0,1.63,0,.77-.11.88-.87.88-1,0-2,0-2.94,0a1,1,0,0,0-1.14.74C1.18,4.43.72,5.46.29,6.51S-.16,7.63,1,7.64c1.06,0,1.09,0,1.1,1.09,0,.1,0,.21,0,.31q0,25,0,50c0,1.42.19,1.63-1.45,1.56-.47,0-.69.21-.69.68s0,1.17,0,1.75c0,.84.1.93.94.95H59.64c.89,0,1-.1,1-1C60.64,62.58,60.64,62.12,60.63,61.66ZM8.78,15.9c0-.53.22-.75.75-.75,1.21,0,2.42,0,3.62,0,.58,0,.76.26.76.8,0,1.46,0,2.92,0,4.37h0c0,1.42,0,2.83,0,4.25,0,.74-.1.83-.84.84-1.17,0-2.33,0-3.5,0-.55,0-.8-.19-.8-.76Q8.8,20.28,8.78,15.9Zm0,15.42c0-.57.25-.78.8-.77,1.19,0,2.37,0,3.56,0,.57,0,.78.24.77.79,0,1.46,0,2.92,0,4.37h0c0,1.42,0,2.83,0,4.25,0,.75-.1.85-.82.85-1.19,0-2.37,0-3.56,0-.53,0-.75-.22-.75-.75Q8.79,35.69,8.78,31.32Zm5.13,24.12c0,.56-.24.79-.79.78q-1.78,0-3.57,0c-.57,0-.78-.24-.78-.79,0-1.46,0-2.92,0-4.38h0c0-1.42,0-2.84,0-4.26,0-.73.11-.83.85-.83,1.17,0,2.34,0,3.5,0,.56,0,.78.24.78.79Q13.9,51.09,13.92,55.44ZM19,16c0-.59.23-.82.82-.81,1.19,0,2.37,0,3.56,0,.53,0,.76.21.75.74,0,1.48,0,3,0,4.44h0c0,1.42,0,2.83,0,4.25,0,.74-.1.83-.84.84-1.17,0-2.33,0-3.5,0-.55,0-.8-.2-.8-.77Q19.06,20.31,19,16Zm5.13,39.48c0,.51-.18.78-.73.77-1.23,0-2.46,0-3.69,0-.5,0-.72-.22-.71-.72,0-1.48,0-3,0-4.44h0c0-1.42,0-2.83,0-4.25,0-.77.09-.86.88-.86,1.17,0,2.33,0,3.5,0,.52,0,.76.21.75.74Q24.16,51.07,24.18,55.44Zm-.81-14.62c-1.19,0-2.38,0-3.57,0-.53,0-.76-.22-.75-.75q0-4.38,0-8.76c0-.53.22-.76.75-.75q1.82,0,3.63,0c.53,0,.76.22.75.75,0,1.46,0,2.92,0,4.38h0c0,1.44,0,2.88,0,4.32C24.19,40.59,24,40.83,23.37,40.82Zm6.76-25.67c1.17,0,2.34,0,3.5,0,.54,0,.81.18.81.76q0,4.38,0,8.76c0,.53-.23.75-.75.75q-1.81,0-3.63,0c-.53,0-.75-.23-.75-.75,0-1.48,0-3,0-4.44s0-2.84,0-4.26C29.3,15.37,29.54,15.14,30.13,15.15Zm4.31,35.93h0c0,1.44,0,2.87,0,4.31,0,.58-.22.83-.81.82-1.19,0-2.37,0-3.56,0-.52,0-.76-.2-.76-.74q0-4.41,0-8.81c0-.5.21-.73.71-.72,1.23,0,2.46,0,3.69,0,.54,0,.74.24.74.76C34.43,48.17,34.44,49.63,34.44,51.08Zm0-15.34c0,1.42,0,2.84,0,4.26,0,.59-.23.83-.82.82-1.19,0-2.38,0-3.57,0-.53,0-.75-.23-.75-.75q0-4.38,0-8.76c0-.53.22-.76.75-.75,1.19,0,2.38,0,3.57,0,.59,0,.83.23.82.82C34.43,32.82,34.44,34.28,34.44,35.75Zm14.92-.68h3.12a.54.54,0,0,1,.62.61q0,1.5,0,3a.57.57,0,0,1-.65.65H49.38c-.44,0-.64-.23-.64-.66,0-1,0-2,0-3A.54.54,0,0,1,49.36,35.06Zm3.73,12.16a.52.52,0,0,1-.58.58H49.32a.52.52,0,0,1-.58-.58q0-1.59,0-3.18a.52.52,0,0,1,.58-.58h3.18a.52.52,0,0,1,.57.59c0,.54,0,1.08,0,1.62S53.09,46.71,53.09,47.23ZM40.34,35.72c0-.48.24-.67.7-.66h3c.4,0,.64.17.64.59q0,1.53,0,3.07a.55.55,0,0,1-.63.61H41a.58.58,0,0,1-.65-.66C40.34,37.68,40.34,36.7,40.34,35.72Zm3.73,20.48H41c-.43,0-.67-.17-.67-.63q0-1.53,0-3.06a.58.58,0,0,1,.65-.66h3.06a.55.55,0,0,1,.63.61q0,1.56,0,3.12A.54.54,0,0,1,44.07,56.21Zm.62-9.1c0,.46-.21.7-.68.7H40.95c-.41,0-.6-.22-.6-.63,0-1,0-2,0-3.07,0-.48.24-.67.7-.66h3c.45,0,.65.21.65.65Q44.69,45.61,44.69,47.11Zm7.77,9.1H49.4c-.43,0-.66-.19-.66-.64q0-1.53,0-3.06a.58.58,0,0,1,.66-.65h3a.6.6,0,0,1,.69.68c0,.5,0,1,0,1.5h0c0,.5,0,1,0,1.5S52.91,56.21,52.46,56.21Z"/><path class="cls-1" d="M7.7.44h28c.36,0,.72,0,1-.31H6.54C6.85.53,7.29.44,7.7.44Z"/><g class="cls-3"><path class="cls-4" d="M-41.13,63q8,4.49,16,9Q-12.65,78.87-.21,85.75l27.48,15.17Q40,108,52.71,115a3,3,0,0,1,1.64,3.43,2.89,2.89,0,0,1-2.75,2.6,18,18,0,0,1-2,.1H-133.87c-3.05,0-4.17-.57-4.67-2.38s.22-3.06,2.87-4.53q15.67-8.68,31.37-17.32T-72.7,79.4q14.52-8,29.06-16.05A6.16,6.16,0,0,0-43.1,63Zm-1.2,46.75A13.19,13.19,0,0,0-29,96.65a13.3,13.3,0,0,0-13-13.23,13.29,13.29,0,0,0-13.21,13A13.2,13.2,0,0,0-42.33,109.72Z"/></g></svg>