<svg id="Layer_1" data-name="Layer 1" xmlns="http://www.w3.org/2000/svg" viewBox="0 0 100 100"><defs><style>.cls-1{fill:#943cbb;}.cls-2{fill:#eb8900;}.cls-3{fill:#fff;}</style></defs><title>API - Copy</title><circle class="cls-1" cx="50" cy="50" r="50"/><circle class="cls-2" cx="50" cy="50" r="50"/><path class="cls-3" d="M66.17,44.34h0v.08A10,10,0,0,0,63,42h0V41.9a9.87,9.87,0,0,0-13.19,4.7h0A9.82,9.82,0,0,0,49,49.27h0a9.82,9.82,0,0,0-.13,1.36c0,.12,0,.23,0,.35a10,10,0,0,0,.07,1c0,.16,0,.32.06.48s.06.29.09.44a9.89,9.89,0,1,0,17.12-8.6Zm-15,2.26h5.54a1.34,1.34,0,0,1,0,2.67H50.17A8.62,8.62,0,0,1,51.17,46.6ZM50,50.91h6.7a1.34,1.34,0,0,1,0,2.67H50.43A8.66,8.66,0,0,1,50,50.91Zm6.7,7.46H54.24a8.76,8.76,0,0,1-2.79-2.67h5.26A1.34,1.34,0,0,1,56.71,58.38Z"/><path class="cls-3" d="M63,63.34h0a13.14,13.14,0,0,1-4.53.71l-.51,0s0,.05,0,.08a13.11,13.11,0,0,1-5.24-1.43h.15a13.28,13.28,0,0,1-5-4.28h-.06a13.2,13.2,0,0,1-1.42-2.67h0a14,14,0,0,1-.62-2.12h0c0-.07,0-.15,0-.22s-.07-.42-.1-.64-.06-.38-.08-.58c0-.37-.05-.74-.06-1.11,0,0,0-.08,0-.11h0c0-.12,0-.24,0-.36A13.2,13.2,0,0,1,66.17,39.92v-8l-6.88-6.68H29.12V73.33H66.17V61.82a13.06,13.06,0,0,1-3.2,1.6ZM44.41,49.27H37a1.34,1.34,0,0,1,0-2.67h8A14.17,14.17,0,0,0,44.41,49.27Zm.15,4.31H37a1.34,1.34,0,0,1,0-2.67h7.33A14.37,14.37,0,0,0,44.56,53.59Zm-.31-11.17h-6.9a1.34,1.34,0,0,1,0-2.67h6.9A1.34,1.34,0,0,1,44.25,42.41Zm0-4.32h-6.9a1.34,1.34,0,0,1,0-2.67h6.9A1.34,1.34,0,0,1,44.25,38.1Zm5.55,24.57h.59a14.24,14.24,0,0,0,6.79,2.57,1.23,1.23,0,0,1-.47.1h-6.9A1.34,1.34,0,0,1,49.81,62.67Zm-3.4-4.29H37a1.34,1.34,0,0,1,0-2.67h8.15A14,14,0,0,0,46.41,58.38Z"/><rect class="cls-3" x="71.76" y="59.99" width="4.13" height="14.36" transform="translate(-25.96 69.79) rotate(-43.8)"/></svg>