<?xml version="1.0" encoding="utf-8"?>
<!-- Generator: Adobe Illustrator 21.0.0, SVG Export Plug-In . SVG Version: 6.00 Build 0)  -->
<svg version="1.1" id="Layer_1" xmlns="http://www.w3.org/2000/svg" xmlns:xlink="http://www.w3.org/1999/xlink" x="0px" y="0px"
	 viewBox="0 0 100 100" style="enable-background:new 0 0 100 100;" xml:space="preserve">
<style type="text/css">
	.st0{fill:#001871;}
	.st1{fill:#FFFFFF;}
</style>
<g>
	<circle class="st0" cx="50" cy="50" r="50"/>
	<g>
		<g>
			<path class="st1" d="M47.2,64.7c-0.3,0.1-0.4-0.1-0.4-0.4c0-1,0-2,0-3c0-1.2,0-2.3,0-3.5c0-0.3-0.1-0.6,0.3-0.8
				c0,0,0.1-0.1,0.1-0.2c0-0.3,0.1-0.5,0.1-0.8c-0.4,0.1-0.5-0.1-0.5-0.5c0-0.7,0-1.3,0-2c0-0.8,0-0.9,0.8-0.8c0.8,0.1,1.5,0,1.7-1
				c0,0,0,0,0-0.1c-0.7,0-1.5,0-2.2,0c-0.3,0-0.3-0.1-0.3-0.3c0-0.9,0-1.7,0-2.6c0-0.3,0.1-0.4,0.4-0.4c0.9,0,1.7,0,2.6,0
				c0.3,0,0.4,0.1,0.4,0.4c0,0.7,0,1.3,0,2c0.9-0.4,1.3-1,1.1-1.9c0,0,0,0,0,0c-0.1-0.3,0.1-0.4,0.4-0.4c1,0.1,1.9-0.1,2.8-0.6
				c0.3-0.2,0.6-0.3,0.9-0.4c3.2-1.4,6.4-1.6,9.7-0.4c0.5,0.2,0.9,0.4,1.4,0.5c0.1-0.2,0.1-0.3,0.1-0.4c0-2.5,0-5.1,0-7.6
				c0-2.4-1.7-4.1-4.2-4.2c-1.5,0-3.1,0-4.6,0c-0.1,0-0.3,0-0.4,0c0.4,1.6,0.1,3-1.3,4.1c-1.2,0.9-2.5,1-3.8,0.2
				c-1.7-1-2.1-2.5-1.7-4.3c-1.4,0-2.8,0-4.2,0c0.4,1.6,0.1,3.1-1.3,4.1c-1.2,0.9-2.5,0.9-3.8,0.2c-1.7-1-2-2.5-1.6-4.3
				c-1.7,0-3.3,0-4.9,0c-2.5,0-4.2,1.7-4.2,4.2c0,8.1,0,16.2,0,24.2c0,2.4,1.8,4.2,4.2,4.2c4.8,0,9.7,0,14.5,0
				c0.1,0,0.2,0.1,0.3-0.1c-0.6-0.9-1.1-1.8-1.5-2.7C47.8,64.8,47.6,64.6,47.2,64.7z M37,64.4c0,0.2-0.1,0.3-0.3,0.3
				c-0.4,0-0.9,0-1.3,0c-0.5,0-0.9,0-1.4,0c-0.2,0-0.3-0.1-0.3-0.3c0-0.9,0-1.8,0-2.7c0-0.2,0.1-0.3,0.3-0.3c0.9,0,1.8,0,2.7,0
				c0.2,0,0.3,0.1,0.3,0.3C37,62.6,37,63.5,37,64.4z M36.7,60.4c-0.5,0-0.9,0-1.4,0c-0.4,0-0.9,0-1.3,0c-0.2,0-0.3,0-0.3-0.3
				c0-0.9,0-1.8,0-2.7c0-0.2,0.1-0.3,0.3-0.3c0.9,0,1.8,0,2.7,0c0.2,0,0.3,0.1,0.3,0.3c0,0.9,0,1.8,0,2.7
				C37,60.3,36.9,60.4,36.7,60.4z M36.7,56c-0.9,0-1.8,0-2.6,0c-0.3,0-0.3-0.1-0.3-0.3c0-0.4,0-0.9,0-1.3c0-0.4,0-0.9,0-1.3
				c0-0.2,0.1-0.3,0.3-0.3c0.9,0,1.8,0,2.7,0c0.3,0,0.3,0.1,0.3,0.3c0,0.9,0,1.7,0,2.6C37,55.9,36.9,56,36.7,56z M41,64.7
				c-0.9,0-1.8,0-2.7,0c-0.2,0-0.3-0.1-0.3-0.3c0-0.9,0-1.8,0-2.7c0-0.2,0.1-0.3,0.3-0.3c0.9,0,1.8,0,2.7,0c0.2,0,0.3,0.1,0.3,0.3
				c0,0.4,0,0.9,0,1.3c0,0.4,0,0.9,0,1.3C41.4,64.6,41.3,64.7,41,64.7z M41.3,58.7c0,0.4,0,0.9,0,1.3c0,0.2,0,0.3-0.3,0.3
				c-0.9,0-1.8,0-2.7,0c-0.2,0-0.3-0.1-0.3-0.3c0-0.9,0-1.8,0-2.7c0-0.2,0.1-0.3,0.3-0.3c0.9,0,1.8,0,2.7,0c0.2,0,0.3,0.1,0.3,0.3
				C41.3,57.9,41.3,58.3,41.3,58.7z M41,56c-0.4,0-0.9,0-1.3,0c-0.4,0-0.9,0-1.3,0c-0.2,0-0.4,0-0.4-0.3c0-0.9,0-1.8,0-2.6
				c0-0.2,0.1-0.3,0.3-0.3c0.9,0,1.8,0,2.7,0c0.2,0,0.3,0.1,0.3,0.3c0,0.9,0,1.8,0,2.7C41.3,56,41.3,56,41,56z M34.2,45.1
				c-0.4,0-0.5-0.1-0.5-0.5c0-0.8,0-1.6,0-2.3c0-0.4,0.1-0.5,0.5-0.5c3.7,0,7.4,0,11.1,0c5.8,0,11.5,0,17.3,0c0.5,0,0.5,0,0.5,0.6
				c0,0.8,0,1.5,0,2.3c0,0.3-0.1,0.4-0.4,0.4c-4.8,0-9.6,0-14.3,0C43.6,45.1,38.9,45.1,34.2,45.1z M45.7,64.4c0,0.2-0.1,0.3-0.3,0.3
				c-0.9,0-1.8,0-2.7,0c-0.2,0-0.3-0.1-0.3-0.3c0-0.9,0-1.8,0-2.7c0-0.2,0.1-0.3,0.3-0.3c0.5,0,0.9,0,1.4,0c0.4,0,0.8,0,1.3,0
				c0.2,0,0.3,0,0.3,0.3C45.7,62.6,45.7,63.5,45.7,64.4z M45.7,54.4c0,0.4,0,0.9,0,1.3c0,0.2,0,0.3-0.3,0.3c-0.9,0-1.8,0-2.7,0
				c-0.2,0-0.3-0.1-0.3-0.3c0-0.9,0-1.8,0-2.7c0-0.2,0.1-0.3,0.3-0.3c0.9,0,1.8,0,2.7,0c0.2,0,0.3,0.1,0.3,0.3
				C45.7,53.5,45.7,53.9,45.7,54.4z M42.4,57.4c0-0.2,0.1-0.3,0.3-0.3c0.9,0,1.8,0,2.7,0c0.2,0,0.3,0.1,0.3,0.3c0,0.4,0,0.9,0,1.3
				c0,0.5,0,0.9,0,1.4c0,0.2-0.1,0.3-0.3,0.3c-0.9,0-1.8,0-2.7,0c-0.2,0-0.3-0.1-0.3-0.3C42.4,59.2,42.4,58.3,42.4,57.4z M45.4,51.7
				c-0.4,0-0.9,0-1.3,0c-0.4,0-0.9,0-1.3,0c-0.2,0-0.3,0-0.3-0.3c0-0.9,0-1.8,0-2.7c0-0.3,0.1-0.3,0.3-0.3c0.9,0,1.8,0,2.6,0
				c0.3,0,0.3,0.1,0.3,0.3c0,0.9,0,1.8,0,2.6C45.7,51.6,45.6,51.7,45.4,51.7z"/>
			<path class="st1" d="M60.4,48.4c-6.3,0-11.4,5.1-11.4,11.4c0,6.3,5.1,11.4,11.4,11.4c6.3,0,11.4-5.1,11.4-11.4
				C71.8,53.5,66.7,48.4,60.4,48.4z M68,60.8c-0.1,0.4-0.5,0.7-1,0.7c-1.3,0-2.6,0-4,0c-1.3,0-2.6,0-4,0c-0.3,0-0.4-0.1-0.4-0.4
				c0-2.6,0-5.2,0-7.9c0-0.7,0.4-1.1,1.1-1.1c0.7,0,1.1,0.4,1.1,1.1c0,1.9,0,3.7,0,5.6c0,0.3,0.1,0.4,0.4,0.4c1.9,0,3.7,0,5.6,0
				C67.8,59.3,68.2,59.8,68,60.8z"/>
			<path class="st1" d="M41.9,38.1c0.5,0.7,1.7,0.7,2.2,0c0.3-0.4,0.5-0.8,0.5-1.4c0-0.9,0-1.8,0-2.7c0-0.9,0-1.9,0-2.8
				c0-0.7-0.5-1.2-1.1-1.4c-0.2,0-0.5,0-0.7,0c-0.9,0-1.4,0.6-1.4,1.4c0,1.8,0,3.6,0,5.4C41.3,37.2,41.6,37.7,41.9,38.1z"/>
			<path class="st1" d="M52.7,38c0.5,0.7,1.7,0.7,2.2,0c0.3-0.4,0.5-0.9,0.5-1.5c0-0.9,0-1.7,0-2.6c0-0.9,0-1.7,0-2.6
				c0-0.2,0-0.4-0.1-0.5c-0.3-0.8-1-1.1-2-1c-0.7,0.1-1.2,0.7-1.2,1.4c0,1.8,0,3.5,0,5.3C52.2,37.2,52.5,37.6,52.7,38z"/>
		</g>
	</g>
</g>
</svg>
