<svg id="Layer_1" data-name="Layer 1" xmlns="http://www.w3.org/2000/svg" viewBox="0 0 100 100"><defs><style>.cls-1{fill:#ffb40f;}.cls-2{fill:#fff;}</style></defs><title>01</title><circle class="cls-1" cx="50" cy="50" r="50"/><path class="cls-2" d="M55.64,65.77c0-.63-.59-1.19-.59-1.87H31.3V42.3H68.4V63.94L55,63.91v1.86s13.35.09,15.12,0c.83-.06.91-.92.91-1.66,0-3.39,0-6.78,0-10.17q0-8.83,0-17.66c0-1.79-.26-2.07-2-2.07H30.92c-1.75,0-2,.27-2,2.06q0,13.8,0,27.59c0,1.51.44,2,1.92,2q11.82,0,23.64,0ZM31.27,38.34H68.41v2.24H31.27Zm1.82-2.16a.92.92,0,1,1-.92-.92A.92.92,0,0,1,33.09,36.19Zm2.55,0a.92.92,0,1,1-.92-.92A.92.92,0,0,1,35.64,36.19Zm2.55,0a.92.92,0,1,1-.92-.92A.92.92,0,0,1,38.19,36.19Z"/><path class="cls-2" d="M45.16,52.26c0,1.48,0,3,0,4.43,0,1.16.45,1.41,1.46.84q4-2.25,8-4.56c1-.59,1-1,0-1.64q-3.94-2.27-7.91-4.49c-1.09-.61-1.49-.37-1.52.87C45.13,49.22,45.15,50.74,45.16,52.26Z"/></svg>