<svg id="Layer_1" data-name="Layer 1" xmlns="http://www.w3.org/2000/svg" viewBox="0 0 512 512"><defs><style>.cls-1{fill:#fff;}</style></defs><title>icons</title><path class="cls-1" d="M124,184.91a6.65,6.65,0,0,1-6.39-8.5l9.32-32.17L99.45,164.09a6.65,6.65,0,0,1-10.27-7.27l10.24-34.7-29,20.34a6.65,6.65,0,0,1-10.19-7.34L74.48,87.24A6.65,6.65,0,1,1,87.23,91L78.45,120.6l28.93-20.31a6.65,6.65,0,0,1,10.2,7.33L107.45,141.9l27.35-19.76a6.65,6.65,0,0,1,10.28,7.24l-14.7,50.72A6.65,6.65,0,0,1,124,184.91Z"/><path class="cls-1" d="M174.24,123a6.65,6.65,0,0,1-5.18-10.81l16.5-20.57-29.13,5.05A6.65,6.65,0,0,1,150.06,86L168.7,62.3l-31,6.33a6.65,6.65,0,0,1-6.5-10.7l30.34-37.45a6.65,6.65,0,1,1,10.33,8.37l-18.67,23,30.66-6.25a6.65,6.65,0,0,1,6.55,10.63L171.24,80.57l29.36-5.09a6.65,6.65,0,0,1,6.32,10.71l-27.5,34.29A6.64,6.64,0,0,1,174.24,123Z"/><path class="cls-1" d="M236.51,93.89A6.65,6.65,0,0,1,234.22,81l25.87-9.44L237.79,59.6a6.65,6.65,0,0,1,1.05-12.17l24.32-8L239.73,27.07a6.65,6.65,0,0,1,.95-12.18L283.35.36a6.65,6.65,0,0,1,4.29,12.59l-28,9.55,23.6,12.4a6.65,6.65,0,0,1-1,12.2l-24.49,8.1,21.75,11.65a6.65,6.65,0,0,1-.86,12.11L238.79,93.49A6.64,6.64,0,0,1,236.51,93.89Z"/><path class="cls-1" d="M353,112.85l-.48,0L306,109.52A6.65,6.65,0,1,1,307,96.25l29.32,2.09L319.71,80.92a6.65,6.65,0,0,1,5.1-11.23l29,1.25L336,49.8a6.65,6.65,0,0,1,6-10.86l43.61,6.16a6.65,6.65,0,1,1-1.86,13.17l-26.42-3.73L373.7,74a6.65,6.65,0,0,1-5.38,10.92L340.7,83.69l17.07,17.93A6.65,6.65,0,0,1,353,112.85Z"/><path class="cls-1" d="M398.87,168.89a6.64,6.64,0,0,1-2.42-.46L353.06,151.5a6.65,6.65,0,1,1,4.84-12.39l27.38,10.69L374.6,128.24a6.65,6.65,0,0,1,8.2-9.21l27.31,9.78-10.7-25.46a6.65,6.65,0,0,1,9-8.59l39.83,18.81a6.65,6.65,0,1,1-5.68,12l-24.13-11.4,9.83,23.38a6.65,6.65,0,0,1-8.37,8.84l-26-9.32,11,22.18a6.65,6.65,0,0,1-6,9.6Z"/><path class="cls-1" d="M366.12,371.4h-104c-9.6,0-17.39-6.85-17.39-15.3s7.79-15.3,17.39-15.3h104c9.6,0,17.39,6.85,17.39,15.3S375.72,371.4,366.12,371.4Z"/><path class="cls-1" d="M292.9,165.65H231.36c-9.6,0-17.39-6.38-17.39-14.26s7.79-14.26,17.39-14.26H292.9c9.6,0,17.39,6.38,17.39,14.26S302.5,165.65,292.9,165.65Z"/><path class="cls-1" d="M260.41,369.94c-8.66,0-15.68-7.79-15.68-17.39v-104c0-9.6,7-17.39,15.68-17.39s15.68,7.79,15.68,17.39v104C276.09,362.16,269.07,369.94,260.41,369.94Z"/><path class="cls-1" d="M262.13,512c-92,0-166.91-74.88-166.91-166.91s74.88-166.91,166.91-166.91S429,253.05,429,345.09,354.16,512,262.13,512Zm0-308.35c-78,0-141.44,63.45-141.44,141.44s63.45,141.44,141.44,141.44,141.44-63.45,141.44-141.44S340.12,203.65,262.13,203.65Z"/></svg>