<svg id="Layer_1" data-name="Layer 1" xmlns="http://www.w3.org/2000/svg" viewBox="0 0 512 512"><defs><style>.cls-1{fill:#fff;}</style></defs><title>icons</title><path class="cls-1" d="M329.28,512c-13,0-24.11-3.51-34.21-7.32C230.88,480.5,165.59,456,102.46,432.28l-42-15.77c-2.94-1.1-6.13-2.25-9.77-3.51l-.16-.05c-5.8-1.94-9.78-5.51-11.83-10.63a19.68,19.68,0,0,1-1-10.79c-1.87-6.73-.33-14.6,6.94-20.64a19.65,19.65,0,0,1,6.9-9q-.43-.46-.84-.94c-7.42-8.91-7.5-17.15-5.59-23.29a19.09,19.09,0,0,1-1.57-15.47A17.52,17.52,0,0,1,47,308.07,18.42,18.42,0,0,1,56,301.95,18.3,18.3,0,0,1,58,288.78c-2.38-11.42-.48-21.2,5.66-29.16,1-5.12,4-10.9,11.78-15.18-6.06-5.14-7.56-12.07-8.22-15.17l-.13-.61-.16-.31a27,27,0,0,1-3.18-9A55.07,55.07,0,0,1,58,211.82c-.7-1.06-1.36-2.06-1.92-2.77C50,201.27,49.6,193.46,49.3,188.3c0-.53-.06-1.07-.1-1.61a25.71,25.71,0,0,1,.09-4.47A17.56,17.56,0,0,1,49.45,168a18.45,18.45,0,0,1,2.73-4.28c-.69-3.38-1.46-6.26-2.82-8.27-3.35-5-4.22-10.83-2.59-17.49a28.16,28.16,0,0,0-.61-4.16c-.23-1.21-.49-2.58-.7-4-.07-.51-.16-1-.25-1.57-.57-3.39-1.45-8.71-.16-14.52A39.51,39.51,0,0,1,43,105.51c-.13-.74-.25-1.43-.37-1.95-1.68-7.39-.81-13.83,2.61-19.16s8.74-8.67,16-10.24l.95-.37c3.06-1.23,10.26-4.12,18.31-1a22.41,22.41,0,0,1,10.2,1.07q0-4,0-8.1c0-15.06.1-30.63,0-45.92,0-2.28,0-9.22,5.53-14.64,3.7-3.6,8.58-5.34,14.5-5.16,6.26.19,12.48.15,19.06.12,2.65,0,5.3,0,8,0H452l1.06,0c7.74-.65,12.71,2.2,15.54,4.75C472.86,8.72,475,14.15,475,21c-.2,63.66-.28,128.4-.35,191l0,28.83h.27v15.53q0,17.51-.06,35c-.06,26-.13,53,.14,79.39.21,20.51.09,41.29,0,61.39-.11,19.23-.23,39.11-.05,58.61,0,4.19.09,10.52-5.15,15.81s-11.55,5.29-15.68,5.27c-11,0-22,0-32.91,0-29.9-.05-60.81-.11-91.17.18ZM74.52,388.62l38.85,14.59c63.15,23.71,128.44,48.23,192.64,72.41,8.62,3.25,15.93,5.39,23.66,5.32,30.54-.29,61.54-.24,91.53-.19l22.56,0c-.07-16.37,0-32.82.12-48.81.12-20,.24-40.63,0-60.89-.27-26.63-.21-53.65-.14-79.79q0-9.71,0-19.42h-.27l0-59.92c.07-59.26.14-120.44.32-180.82H137.79c-2.59,0-5.18,0-7.77,0l-8.19,0c0,11.62,0,23.26-.06,34.62q0,7.39,0,14.79V81a21.06,21.06,0,0,1-4.78,14.4,10.3,10.3,0,0,0-.29,1.19c-2.31,11.75-11.16,15.05-14.86,15.92a22.45,22.45,0,0,1-23.38-8.14,20.25,20.25,0,0,1-2.85-.25,16.32,16.32,0,0,1-.07,16.7c.09.69.24,1.58.35,2.25s.25,1.49.35,2.22.29,1.74.48,2.73a42.55,42.55,0,0,1,.86,14.15c3.44,6.63,4.71,13.32,5.76,18.88.29,1.54.57,3,.87,4.37.51,2.29,2,9.12-2.68,15.4-.28.38-.6.77-.95,1.16-.07,1.1-.19,2-.28,2.74l0,.36c0,.49.06,1,.09,1.45a27.55,27.55,0,0,0,.32,3.47c1.31,1.69,2.38,3.3,3.32,4.73a25.12,25.12,0,0,0,2.74,3.72,23.84,23.84,0,0,1,7.81,15.72A27.59,27.59,0,0,1,97,220.52l.16.66a31.56,31.56,0,0,1,6.34,5l.82.77a20.35,20.35,0,0,1,10.91,12.67,18,18,0,0,1-2.77,15.13,47.13,47.13,0,0,1-18.82,15.52,18.2,18.2,0,0,1-5,7.86c-.56.55-1.16,1.15,0,5.49,1.93,7.44.91,13.08-1.2,17.27.58,6.89-1.23,15.13-9.23,23a24.58,24.58,0,0,1-2.63,3,21.1,21.1,0,0,1,1.8,9.94h0a17.3,17.3,0,0,1,10.42,9.37l.24.53a35.64,35.64,0,0,1,3.38,10.76,30.55,30.55,0,0,1-4.63,20.33C84.23,382,80.32,386.45,74.52,388.62ZM63,338.43h0Zm14.67-14.09h0ZM56.49,303.58Zm47.1-77h0Zm-9.08-10v0ZM63.5,215h0Zm16.68-29.62h0Zm0-.9h0ZM65.85,156.77h0Zm7-60.47h0ZM86,75.84h0ZM61.52,74.1h0ZM452.45.17h0Z"/></svg>