<?xml version="1.0" encoding="utf-8"?>
<!-- Generator: Adobe Illustrator 21.0.0, SVG Export Plug-In . SVG Version: 6.00 Build 0)  -->
<svg version="1.1" id="Layer_1" xmlns="http://www.w3.org/2000/svg" xmlns:xlink="http://www.w3.org/1999/xlink" x="0px" y="0px"
	 viewBox="0 0 512 512" style="enable-background:new 0 0 512 512;" xml:space="preserve">
<style type="text/css">
	.st0{fill:#CCCCCC;}
</style>
<title>icons</title>
<path class="st0" d="M370.7,132.1c-9.6,0-17.4-7.8-17.5-17.4c0,0,0,0,0,0V17.4c0-9.6,7.8-17.5,17.5-17.5c9.6,0,17.5,7.8,17.5,17.5
	v97.3C388.2,124.3,380.4,132.1,370.7,132.1C370.8,132.1,370.8,132.1,370.7,132.1z"/>
<path class="st0" d="M141.3,132.1c-9.6,0-17.4-7.8-17.4-17.4c0,0,0,0,0,0V17.4c0-9.6,7.8-17.5,17.5-17.5s17.5,7.8,17.5,17.5v97.3
	C158.7,124.3,150.9,132.1,141.3,132.1C141.3,132.1,141.3,132.1,141.3,132.1z"/>
<path class="st0" d="M480.6,205.2H31.4c-9.6,0-17.4-7.8-17.4-17.4c0-9.6,7.8-17.4,17.4-17.4h449.2c9.6,0,17.4,7.8,17.4,17.4
	C498,197.4,490.2,205.2,480.6,205.2L480.6,205.2z"/>
<path class="st0" d="M446.1,512H65.9c-28.6-0.1-51.8-23.2-51.9-51.9V100.5c0.1-28.6,23.3-51.8,51.9-51.9h380.2
	c28.6,0.1,51.8,23.3,51.9,51.9v359.6C498,488.8,474.8,511.9,446.1,512z M65.9,83.5c-9.4,0-17,7.6-17,17l0,0v359.6
	c0,9.4,7.6,17,17,17h380.3c9.4,0,17-7.6,17-17V100.5c0-9.4-7.6-17-17-17L65.9,83.5z"/>
</svg>
