<?xml version="1.0" encoding="utf-8"?>
<!-- Generator: Adobe Illustrator 21.0.0, SVG Export Plug-In . SVG Version: 6.00 Build 0)  -->
<svg version="1.1" id="Layer_1" xmlns="http://www.w3.org/2000/svg" xmlns:xlink="http://www.w3.org/1999/xlink" x="0px" y="0px"
	 viewBox="0 0 512 512" style="enable-background:new 0 0 512 512;" xml:space="preserve">
<style type="text/css">
	.st0{fill:#84BA64;}
</style>
<title>icons</title>
<g>
	<path class="st0" d="M398.1,320H256c-13.1,0-23.8-9.4-23.8-20.9c0-11.5,10.6-20.9,23.8-20.9h142c13.1,0,23.8,9.4,23.8,20.9
		C421.8,310.6,411.2,320,398.1,320z"/>
	<path class="st0" d="M298.1,39H214c-13.1,0-23.8-8.7-23.8-19.5S200.9,0,214,0h84.1c13.1,0,23.8,8.7,23.8,19.5S311.2,39,298.1,39z"
		/>
	<path class="st0" d="M253.7,318c-11.8,0-21.4-10.6-21.4-23.8v-142c0-13.1,9.6-23.8,21.4-23.8s21.4,10.6,21.4,23.8v142
		C275.1,307.3,265.5,318,253.7,318z"/>
	<path class="st0" d="M256,512c-125.7,0-228-102.3-228-228s102.3-228,228-228s227.9,102.3,227.9,228S381.7,512,256,512z M256,90.9
		C149.5,90.9,62.8,177.5,62.8,284S149.5,477.2,256,477.2S449.2,390.6,449.2,284S362.5,90.9,256,90.9z"/>
</g>
</svg>
