<svg id="Layer_1" data-name="Layer 1" xmlns="http://www.w3.org/2000/svg" viewBox="0 0 40 47.12"><defs><style>.cls-1{fill:#65a2bd;}</style></defs><title>icons</title><path class="cls-1" d="M37,47.12H3c-1.9,0-3-1.06-3-2.82V6.56A2.65,2.65,0,0,1,2.36,3.72L19.22.07a3,3,0,0,1,2.42.49,2.68,2.68,0,0,1,1,2.15q0,2.66,0,5.33v7.74h2.86c3.79,0,7.58,0,11.37,0h0a3.19,3.19,0,0,1,2.23.83A2.77,2.77,0,0,1,40,18.67q0,9.61,0,19.22V44.3C40,46.07,38.85,47.12,37,47.12ZM3.14,44.44Zm0-.32H36.85V37.89q0-9.56,0-19.12c-3.78,0-7.55,0-11.33,0H21.11a1.53,1.53,0,0,1-1.57-1.5V8q0-2.48,0-5L3.13,6.63Z"/><path class="cls-1" d="M16.8,12.15H14.63a.51.51,0,0,1-.52-.5V9.54a.51.51,0,0,1,.52-.5H16.8a.51.51,0,0,1,.52.5v2.1A.51.51,0,0,1,16.8,12.15Zm-1.65-1h1.13V10H15.15Z"/><path class="cls-1" d="M16.81,35.4H14.62a.51.51,0,0,1-.52-.5V32.82a.51.51,0,0,1,.52-.5h2.19a.51.51,0,0,1,.52.5V34.9A.51.51,0,0,1,16.81,35.4Zm-1.67-1h1.14V33.32H15.15Z"/><path class="cls-1" d="M16.81,23.78H14.64a.51.51,0,0,1-.52-.5v-2.1a.51.51,0,0,1,.52-.5h2.17a.51.51,0,0,1,.52.5v2.1A.51.51,0,0,1,16.81,23.78Zm-1.65-1h1.13v-1.1H15.16Z"/><path class="cls-1" d="M16.8,19.9H14.64a.51.51,0,0,1-.52-.5V17.3a.51.51,0,0,1,.52-.5H16.8a.51.51,0,0,1,.52.5V19.4A.51.51,0,0,1,16.8,19.9Zm-1.64-1h1.12V17.8H15.16Z"/><path class="cls-1" d="M16.81,27.66H14.64a.51.51,0,0,1-.52-.5V25.07a.51.51,0,0,1,.52-.5h2.16a.51.51,0,0,1,.52.5v2.09A.51.51,0,0,1,16.81,27.66Zm-1.64-1h1.12V25.57H15.17Z"/><path class="cls-1" d="M16.81,16H14.64a.51.51,0,0,1-.52-.5v-2.1a.51.51,0,0,1,.52-.5h2.17a.51.51,0,0,1,.52.5v2.1A.51.51,0,0,1,16.81,16Zm-1.65-1h1.12v-1.1H15.16Z"/><path class="cls-1" d="M16.81,31.61H14.64a.51.51,0,0,1-.52-.5V29a.51.51,0,0,1,.52-.5h2.17a.51.51,0,0,1,.52.5v2.1A.51.51,0,0,1,16.81,31.61Zm-1.64-1h1.12v-1.1H15.16Z"/><path class="cls-1" d="M16.8,39.37H14.64a.51.51,0,0,1-.52-.5V36.76a.51.51,0,0,1,.52-.5H16.8a.51.51,0,0,1,.52.5v2.11A.51.51,0,0,1,16.8,39.37Zm-1.64-1h1.12V37.26H15.16Z"/><path class="cls-1" d="M12.41,16H10.28a.51.51,0,0,1-.52-.5v-2.1a.51.51,0,0,1,.52-.5h2.13a.51.51,0,0,1,.52.5v2.1A.51.51,0,0,1,12.41,16ZM10.8,15h1.08v-1.1H10.8Z"/><path class="cls-1" d="M8,19.91H5.95a.51.51,0,0,1-.52-.5V17.3a.51.51,0,0,1,.52-.5H8a.51.51,0,0,1,.52.5v2.11A.51.51,0,0,1,8,19.91Zm-1.58-1H7.53V17.8H6.47Z"/><path class="cls-1" d="M12.41,19.9H10.26a.51.51,0,0,1-.52-.5V17.3a.51.51,0,0,1,.52-.5h2.14a.51.51,0,0,1,.52.5v2.1A.51.51,0,0,1,12.41,19.9Zm-1.62-1h1.1V17.8h-1.1Z"/><path class="cls-1" d="M8,23.78H5.93a.51.51,0,0,1-.52-.5v-2.1a.51.51,0,0,1,.52-.5H8a.51.51,0,0,1,.52.5v2.1A.51.51,0,0,1,8,23.78Zm-1.59-1H7.52v-1.1H6.45Z"/><path class="cls-1" d="M12.41,23.78H10.27a.51.51,0,0,1-.52-.5v-2.1a.51.51,0,0,1,.52-.5h2.13a.51.51,0,0,1,.52.5v2.1A.51.51,0,0,1,12.41,23.78Zm-1.61-1h1.09v-1.1H10.79Z"/><path class="cls-1" d="M8.06,27.66H5.95a.51.51,0,0,1-.52-.5v-2.1a.51.51,0,0,1,.52-.5H8.06a.51.51,0,0,1,.52.5v2.1A.51.51,0,0,1,8.06,27.66Zm-1.59-1H7.54v-1.1H6.47Z"/><path class="cls-1" d="M12.42,27.65H10.27a.51.51,0,0,1-.52-.5V25.05a.51.51,0,0,1,.52-.5h2.15a.51.51,0,0,1,.52.5v2.09A.51.51,0,0,1,12.42,27.65Zm-1.63-1h1.1V25.55h-1.1Z"/><path class="cls-1" d="M8,31.6H5.94a.51.51,0,0,1-.52-.5V29a.51.51,0,0,1,.52-.5H8a.51.51,0,0,1,.52.5v2.1A.51.51,0,0,1,8,31.6Zm-1.58-1H7.52V29.5H6.47Z"/><path class="cls-1" d="M12.39,31.61H10.27a.51.51,0,0,1-.52-.5V29a.51.51,0,0,1,.52-.5h2.12a.51.51,0,0,1,.52.5v2.1A.51.51,0,0,1,12.39,31.61Zm-1.6-1h1.08V29.5H10.79Z"/><path class="cls-1" d="M8.06,35.41H5.94a.51.51,0,0,1-.52-.5v-2.1a.51.51,0,0,1,.52-.5H8.06a.51.51,0,0,1,.52.5v2.1A.51.51,0,0,1,8.06,35.41Zm-1.59-1H7.53v-1.1H6.46Z"/><path class="cls-1" d="M12.42,35.4H10.27a.51.51,0,0,1-.52-.5V32.81a.51.51,0,0,1,.52-.5h2.15a.51.51,0,0,1,.52.5V34.9A.51.51,0,0,1,12.42,35.4Zm-1.63-1h1.1V33.31h-1.1Z"/><path class="cls-1" d="M8.05,12.14H5.94a.51.51,0,0,1-.52-.5V9.54A.51.51,0,0,1,5.94,9H8.05a.51.51,0,0,1,.52.5v2.1A.51.51,0,0,1,8.05,12.14Zm-1.59-1H7.53V10H6.46Z"/><path class="cls-1" d="M8,39.37H5.94a.51.51,0,0,1-.52-.5V36.78a.51.51,0,0,1,.52-.5H8a.51.51,0,0,1,.52.5v2.09A.51.51,0,0,1,8,39.37Zm-1.58-1H7.52V37.28H6.46Z"/><path class="cls-1" d="M12.4,39.36H10.25a.51.51,0,0,1-.52-.5V36.78a.51.51,0,0,1,.52-.5H12.4a.51.51,0,0,1,.52.5v2.08A.51.51,0,0,1,12.4,39.36Zm-1.63-1h1.1V37.28h-1.1Z"/><path class="cls-1" d="M12.41,12.14H10.25a.51.51,0,0,1-.52-.5V9.54a.51.51,0,0,1,.52-.5h2.15a.51.51,0,0,1,.52.5v2.1A.51.51,0,0,1,12.41,12.14Zm-1.63-1h1.11V10H10.78Z"/><path class="cls-1" d="M8,16H5.95a.51.51,0,0,1-.52-.5V13.4a.51.51,0,0,1,.52-.5H8a.51.51,0,0,1,.52.5v2.11A.51.51,0,0,1,8,16ZM6.47,15h1V13.9h-1Z"/><path class="cls-1" d="M25.35,23.78H23.23a.51.51,0,0,1-.52-.5V21.19a.51.51,0,0,1,.52-.5h2.12a.51.51,0,0,1,.52.5v2.09A.51.51,0,0,1,25.35,23.78Zm-1.6-1h1.08V21.69H23.75Z"/><path class="cls-1" d="M34.12,23.77H32a.51.51,0,0,1-.52-.5V21.18a.51.51,0,0,1,.52-.5h2.1a.51.51,0,0,1,.52.5v2.09A.51.51,0,0,1,34.12,23.77Zm-1.58-1H33.6V21.68H32.54Z"/><path class="cls-1" d="M25.36,27.65H23.23a.51.51,0,0,1-.52-.5V25.07a.51.51,0,0,1,.52-.5h2.12a.51.51,0,0,1,.52.5v2.08A.51.51,0,0,1,25.36,27.65Zm-1.6-1h1.08V25.57H23.75Z"/><path class="cls-1" d="M25.35,31.61H23.25a.51.51,0,0,1-.52-.5V29a.51.51,0,0,1,.52-.5h2.11a.51.51,0,0,1,.52.5v2.09A.51.51,0,0,1,25.35,31.61Zm-1.59-1h1.06V29.51H23.77Z"/><path class="cls-1" d="M34.14,27.66H32a.51.51,0,0,1-.52-.5V25.07a.51.51,0,0,1,.52-.5h2.11a.51.51,0,0,1,.52.5v2.09A.51.51,0,0,1,34.14,27.66Zm-1.58-1h1.06V25.57H32.55Z"/><path class="cls-1" d="M34.13,31.6H32a.51.51,0,0,1-.52-.5V29a.51.51,0,0,1,.52-.5h2.1a.51.51,0,0,1,.52.5V31.1A.51.51,0,0,1,34.13,31.6Zm-1.58-1h1.06V29.51H32.55Z"/><path class="cls-1" d="M25.35,35.41H23.24a.51.51,0,0,1-.52-.5V32.81a.51.51,0,0,1,.52-.5h2.11a.51.51,0,0,1,.52.5v2.11A.51.51,0,0,1,25.35,35.41Zm-1.59-1h1.07V33.31H23.76Z"/><path class="cls-1" d="M25.35,39.38H23.25a.51.51,0,0,1-.52-.5V36.77a.51.51,0,0,1,.52-.5h2.09a.51.51,0,0,1,.52.5v2.11A.51.51,0,0,1,25.35,39.38Zm-1.57-1h1V37.27h-1Z"/><path class="cls-1" d="M34.12,35.42H32a.51.51,0,0,1-.52-.5v-2.1a.51.51,0,0,1,.52-.5h2.09a.51.51,0,0,1,.52.5v2.1A.51.51,0,0,1,34.12,35.42Zm-1.57-1h1v-1.1h-1Z"/><path class="cls-1" d="M34.13,39.36H32a.51.51,0,0,1-.52-.5v-2.1a.51.51,0,0,1,.52-.5h2.09a.51.51,0,0,1,.52.5v2.1A.51.51,0,0,1,34.13,39.36Zm-1.57-1h1v-1.1h-1Z"/><path class="cls-1" d="M29.71,23.78H27.64a.51.51,0,0,1-.52-.5v-2.1a.51.51,0,0,1,.52-.5h2.07a.51.51,0,0,1,.52.5v2.1A.51.51,0,0,1,29.71,23.78Zm-1.55-1h1v-1.1h-1Z"/><path class="cls-1" d="M29.71,35.41H27.64a.51.51,0,0,1-.52-.5v-2.1a.51.51,0,0,1,.52-.5h2.07a.51.51,0,0,1,.52.5v2.1A.51.51,0,0,1,29.71,35.41Zm-1.55-1h1v-1.1h-1Z"/><path class="cls-1" d="M29.73,39.37H27.66a.51.51,0,0,1-.52-.5V36.77a.51.51,0,0,1,.52-.5h2.07a.51.51,0,0,1,.52.5v2.09A.51.51,0,0,1,29.73,39.37Zm-1.55-1h1V37.27h-1Z"/><path class="cls-1" d="M29.71,27.66H27.66a.51.51,0,0,1-.52-.5v-2.1a.51.51,0,0,1,.52-.5h2.06a.51.51,0,0,1,.52.5v2.1A.51.51,0,0,1,29.71,27.66Zm-1.53-1h1v-1.1h-1Z"/><path class="cls-1" d="M29.72,31.62H27.66a.51.51,0,0,1-.52-.5V29a.51.51,0,0,1,.52-.5h2.06a.51.51,0,0,1,.52.5v2.11A.51.51,0,0,1,29.72,31.62Zm-1.53-1h1V29.51h-1Z"/><path class="cls-1" d="M12.65,43H10a.51.51,0,0,1-.52-.5v-1.3a.51.51,0,0,1,.52-.5h2.64a.51.51,0,0,1,.52.5v1.3A.51.51,0,0,1,12.65,43Zm-2.12-1h1.6v-.3h-1.6Z"/><path class="cls-1" d="M30,43H27.4a.51.51,0,0,1-.52-.5V41.23a.51.51,0,0,1,.52-.5H30a.51.51,0,0,1,.52.5v1.31A.51.51,0,0,1,30,43Zm-2.05-1h1.53v-.31H27.92Z"/></svg>