<svg id="Layer_1" data-name="Layer 1" xmlns="http://www.w3.org/2000/svg" viewBox="0 0 512 512"><defs><style>.cls-1{fill:#e9567b;}</style></defs><title>icons</title><path class="cls-1" d="M320.06,341.89a21.85,21.85,0,0,1-15.48-6.41L176.49,207.42a21.87,21.87,0,0,1,31-30.9L335.54,304.58a21.86,21.86,0,0,1-15.48,37.31Z"/><path class="cls-1" d="M192,341.89a21.86,21.86,0,0,1-15.48-37.31L304.58,176.52a21.87,21.87,0,0,1,31,30.9L207.45,335.48A21.85,21.85,0,0,1,192,341.89Z"/><path class="cls-1" d="M256,512C114.84,512,0,397.16,0,256S114.84,0,256,0,512,114.84,512,256,397.16,512,256,512Zm0-468.21C139,43.76,43.79,139,43.79,256S139,468.24,256,468.24,468.21,373,468.21,256,373,43.76,256,43.76Z"/></svg>