<svg id="Layer_1" data-name="Layer 1" xmlns="http://www.w3.org/2000/svg" viewBox="0 0 48 44"><defs><style>.cls-1{fill:#fff;}</style></defs><title>icons</title><path class="cls-1" d="M46.33,44H0V1.75A1.71,1.71,0,0,1,1.67,0,1.71,1.71,0,0,1,3.33,1.75V40.5h43a1.75,1.75,0,0,1,0,3.5Z"/><path class="cls-1" d="M8.52,36.24a1.59,1.59,0,0,1-1-.39,1.81,1.81,0,0,1-.25-2.46L19.94,16.78l9.45,7.7L40,12.21a1.6,1.6,0,0,1,2.35-.12,1.81,1.81,0,0,1,.11,2.47L29.79,29.23l-9.3-7.58L9.82,35.59A1.63,1.63,0,0,1,8.52,36.24Z"/></svg>