<svg id="Layer_1" data-name="Layer 1" xmlns="http://www.w3.org/2000/svg" viewBox="0 0 512 512"><defs><style>.cls-1{fill:#8aca09;}.cls-2{fill:#419b18;}.cls-3{fill:#fafdf4;}</style></defs><title>icons</title><rect class="cls-1" y="129.16" width="512" height="253.67"/><rect class="cls-2" x="24.33" y="153.4" width="463.35" height="205.2"/><rect class="cls-1" x="50.42" y="178.61" width="411.17" height="154.78"/><path class="cls-2" d="M424.14,334.36a22.61,22.61,0,0,1-.37-4.06c0-15.6,16-28.24,35.75-28.24q1.53,0,3,.1V334.3Z"/><path class="cls-2" d="M86,334.36a23.37,23.37,0,0,0,.35-4.06c0-15.6-15.47-28.24-34.55-28.24q-1.48,0-2.93.1V334.3Z"/><path class="cls-2" d="M424.14,177.64a21.13,21.13,0,0,0-.37,3.92c0,15.07,16,27.29,35.75,27.29q1.53,0,3-.1V177.7Z"/><path class="cls-2" d="M86,177.64a21.85,21.85,0,0,1,.35,3.92c0,15.07-15.47,27.29-34.55,27.29q-1.48,0-2.93-.1V177.7Z"/><ellipse class="cls-2" cx="252.97" cy="258.09" rx="73.85" ry="89.36"/><circle class="cls-3" cx="114.61" cy="256" r="19.55"/><circle class="cls-3" cx="397.39" cy="256" r="19.55"/></svg>