<svg id="Layer_1" data-name="Layer 1" xmlns="http://www.w3.org/2000/svg" viewBox="0 0 512 512"><defs><style>.cls-1{fill:#fff;}</style></defs><title>icons</title><path class="cls-1" d="M256,512a22.25,22.25,0,0,1-15.83-6.56L6.55,271.83a22.42,22.42,0,0,1,0-31.67L240.17,6.54a22.42,22.42,0,0,1,31.67,0L505.45,240.16a22.42,22.42,0,0,1,0,31.67h0L271.83,505.45A22.25,22.25,0,0,1,256,512ZM31.63,264.51,247.48,480.36a12,12,0,0,0,17,0L480.37,264.51a12,12,0,0,0,0-17L264.52,31.63a12,12,0,0,0-17,0L31.63,247.48A12,12,0,0,0,31.63,264.51Z"/><path class="cls-1" d="M236.11,156.24V295.78h39.57V156.24Zm39.78,160.32H236.22v39.2h39.67Z"/><path class="cls-1" d="M236.11,156.24h39.57V295.78H236.11Z"/><path class="cls-1" d="M275.89,316.56v39.2H236.22v-39.2Z"/></svg>