<svg id="Layer_1" data-name="Layer 1" xmlns="http://www.w3.org/2000/svg" viewBox="0 0 512 512"><defs><style>.cls-1{fill:#65a2bd;}</style></defs><title>icons</title><path class="cls-1" d="M256,0C397.14,0,512,114.82,512,256S397.14,512,256,512,0,397.18,0,256,114.83,0,256,0Zm0,468.27c117,0,212.23-95.22,212.23-212.24S373,43.73,256,43.73,43.78,139,43.78,256,139,468.27,256,468.27Z"/><path class="cls-1" d="M256,157.15,363.37,264.58a21.87,21.87,0,1,1-31,30.9L256,219.08l-76.39,76.41a21.87,21.87,0,0,1-31-30.9Z"/></svg>