<svg id="Layer_1" data-name="Layer 1" xmlns="http://www.w3.org/2000/svg" viewBox="0 0 512 512"><defs><style>.cls-1{fill:#fff;}</style></defs><title>icons</title><path class="cls-1" d="M494.22,490.67H0V40C0,29.67,8,21.33,17.78,21.33S35.56,29.67,35.56,40V453.34H494.22C504,453.34,512,461.68,512,472S504,490.67,494.22,490.67Z"/><path class="cls-1" d="M90.86,407.94a16.93,16.93,0,0,1-11.13-4.12A19.3,19.3,0,0,1,77,377.54L212.73,200.3l100.78,82.16,113.18-130.9a17.06,17.06,0,0,1,25.1-1.25A19.32,19.32,0,0,1,453,176.68L317.72,333.13l-99.2-80.8L104.7,401A17.34,17.34,0,0,1,90.86,407.94Z"/></svg>