<svg id="Layer_1" data-name="Layer 1" xmlns="http://www.w3.org/2000/svg" viewBox="0 0 512 512"><defs><style>.cls-1{fill:#65a2bd;}</style></defs><title>icons</title><path class="cls-1" d="M256,257.78c-70.26,0-127.42-57.79-127.42-128.89S185.77,0,256,0,383.39,57.79,383.39,128.89,326.28,257.78,256,257.78Zm0-221.29c-50.36,0-91.36,41.49-91.36,92.4s41,92.4,91.36,92.4,91.31-41.49,91.31-92.4S306.34,36.49,256,36.49Z"/><path class="cls-1" d="M419.3,512a18.12,18.12,0,0,1-18-18.25V410.94c0-81.09-65.17-147-145.25-147s-145.3,65.95-145.3,147v82.82a18,18,0,1,1-36.06,0V410.94C74.67,309.72,156,227.41,256,227.41s181.31,82.31,181.31,183.53v82.82A18.12,18.12,0,0,1,419.3,512Z"/></svg>