<svg id="Layer_1" data-name="Layer 1" xmlns="http://www.w3.org/2000/svg" viewBox="0 0 512 512"><defs><style>.cls-1{fill:#65a2bd;}</style></defs><title>icons</title><path class="cls-1" d="M484.66,48.3H27.34a24.15,24.15,0,1,1,0-48.3H484.66a24.15,24.15,0,1,1,0,48.3Z"/><path class="cls-1" d="M307.76,201.83H27.34a24.15,24.15,0,1,1,0-48.3H307.76a24.15,24.15,0,1,1,0,48.3Z"/><path class="cls-1" d="M484.66,355.36H27.34a24.15,24.15,0,1,1,0-48.3H484.66a24.15,24.15,0,1,1,0,48.3Z"/><path class="cls-1" d="M307.76,512H27.34a24.15,24.15,0,1,1,0-48.3H307.76a24.15,24.15,0,1,1,0,48.3Z"/></svg>