<svg id="Layer_1" data-name="Layer 1" xmlns="http://www.w3.org/2000/svg" viewBox="0 0 512 512"><defs><style>.cls-1{fill:#fff;}</style></defs><title>icons</title><path class="cls-1" d="M104.61,364.66h-38a2.84,2.84,0,0,1-.61-.07c-.33-.07-.66-.16-1-.25a5.63,5.63,0,0,0-1.06-.23c-11.56-.08-26.78-.18-42.07-.18h0a11.71,11.71,0,0,0-2.37.38c-.49.11-1,.22-1.52.32a2.81,2.81,0,0,1-.49,0H13A2.84,2.84,0,0,1,10.24,361c.23-.8.45-1.61.67-2.42.58-2.1,1.17-4.27,1.91-6.41.48-1.39,1.91-3.84,4.23-4.24,2.05-.36,4,.94,5.28,2.09a8.23,8.23,0,0,1,1.54,2c.12.2.3.49.41.64l.19-.38.11-.21A10.24,10.24,0,0,0,25,350.9a10.53,10.53,0,0,1,1.38-3c.12-.17.2-.29.25-.38l-.21-.25a6.86,6.86,0,0,1-1.14-6.11,3.75,3.75,0,0,1,2.23-2.33,5.42,5.42,0,0,1-1.24-2.4c-.39-1.88.91-3.16,1.69-3.92.16-.15.39-.39.46-.48l.22-.31a11.07,11.07,0,0,0,1.23-2,11.49,11.49,0,0,0,.46-1.6A17.7,17.7,0,0,1,31,326c.05-.14.1-.26.13-.36l-.19-.08a7.38,7.38,0,0,1-4.7-4.83,8.13,8.13,0,0,1,1.62-7.13c1.88-2.48,3.75-5,5.33-7.21,4.41-6.08,9.8-7.59,16.46-4.61,2.48,1.11,4.85,2.41,7.15,3.68,1,.55,2,1.11,3,1.64.21.11.39.23.54.32a22.63,22.63,0,0,1,12.35,5.93c.44.4.76.53.89.52s.66-.26,1.3-1.07c1.63-2.06,2-3.71-.55-6.51-1.55-1.68-6.25-6.77-1.78-13.36a7.63,7.63,0,0,0,.21-1.15c0-.2.05-.4.08-.59a7.38,7.38,0,0,1,3.9-5.5,7.49,7.49,0,0,1,6.22-.3c.26-.1.6-.26.81-.36l.09,0c.54-.25,1.1-.59,1.7-.94a15.12,15.12,0,0,1,4.08-1.88,41.5,41.5,0,0,1,5.37-.85c1.3-.15,2.53-.28,3.72-.51l.45-.11-.16-.3-.37-.69-.06-.05a5.44,5.44,0,0,1-1.11-1.26c-2.15-3.51-4-7.27-3-11,.71-2.66,2.74-4.86,6.18-6.74a3.55,3.55,0,0,0,1.35-1.47c1-2.3,1.76-4,3.7-4.51,1.57-.44,2.9.16,4.41,1.13l.11-.12c-.21-.47-.65-1.25-1.08-2-1.6-2.86.42-6.81,3.3-8.43a4.77,4.77,0,0,1,3.78-.54,5.5,5.5,0,0,1,3.16,2.91c.58,1.12,1,1.06,1.26,1,1-.17,2-.44,3.07-.73.9-.25,1.84-.5,2.81-.7a9,9,0,0,1,2.5-.09l.57,0a4.46,4.46,0,0,1,.12-.83,9.06,9.06,0,0,1,1.78-3.26c.27-.36.55-.74.82-1.15a2.84,2.84,0,0,1,4.8.1c.17.28.33.53.48.77a15.11,15.11,0,0,1,1,1.79,1.66,1.66,0,0,0,1,1,1.32,1.32,0,0,0,1.07-.34c3.33-2.61,6.59-2.72,10.25-.37,1.43.92,2.86,1.88,4.24,2.8,1.56,1,3.17,2.12,4.77,3.13a3.37,3.37,0,0,0,1.33.62,6.18,6.18,0,0,1,5.73,3.67,15,15,0,0,0,1.06-3.33c.92-4.61,3.89-7.38,8.15-7.59a4,4,0,0,0,3.6-2c1.58-2.26,3.79-3.41,6.05-3.14s4.37,2,5.46,4.82a20.5,20.5,0,0,0,1.21,2.62l.19.32a5.08,5.08,0,0,1,3.75-.66c.23,0,.48.05.62.05a2.91,2.91,0,0,1,1.72.56l.28-.3a5.27,5.27,0,0,1,3.86-1.28,14.27,14.27,0,0,1,.23-6.73c.57-2,2.56-2.48,3.88-2.78l.78-.19,0,0a16.31,16.31,0,0,1-.51-1.91c0-.21-.09-.43-.15-.64a2.84,2.84,0,0,1,2.67-3.51l.63,0a11.13,11.13,0,0,1,2.29,0,3.41,3.41,0,0,1,.46.1,4,4,0,0,1-.52-1.73,4.73,4.73,0,0,1,2.6-4.36,4.8,4.8,0,0,1,4.37.74l.37.23a10.64,10.64,0,0,1,3.13,2.64c.95,1.31,2.2,3.3,2.09,5.45a6.19,6.19,0,0,0,1.78,4.44,2.67,2.67,0,0,0,2,.87c3.39-.3,6,.41,8.13,2.21a7.43,7.43,0,0,1,2.83-.9,5.66,5.66,0,0,0,.81-.15l.39-.18a13.11,13.11,0,0,0,1.79-.9,19.73,19.73,0,0,0,.75-6.4,10.61,10.61,0,0,1,3.07-8.18,9.29,9.29,0,0,0,1.77-3.18,6.67,6.67,0,0,1,4.52-4.15,5.27,5.27,0,0,1,4.71,1l.19-.1a6.43,6.43,0,0,0,3.78-5.54c.54-5.65,4-9.07,9.09-8.9.6,0,1.11-.06,1.62-1.22a7.73,7.73,0,0,1,3.56-3.38l.38-.23c-.81-3.42-1.55-6.43-2.26-9.2a6.79,6.79,0,0,1,1-5.87,6.32,6.32,0,0,1,5-2.39c.84,0,1.71-.09,2.63-.18a27.46,27.46,0,0,1,4.19-.18c1.94.11,4.59.59,6.16,2.29a11.17,11.17,0,0,0,2,1.87,11.69,11.69,0,0,0,2.38-1.48l.73-.53c2.77-2,5.9-4.28,9.48-4.83a22.06,22.06,0,0,0,2.63-.65,18.31,18.31,0,0,1,5.74-1,11.08,11.08,0,0,1,.38-1.9q.07-.23.15-.44l-.09,0-.47-.16a4.83,4.83,0,0,1-3.29-2.48,5.23,5.23,0,0,1,1.66-5.75,2.67,2.67,0,0,0,.5-.44,4.22,4.22,0,0,0-.66-1.07l-1.08-1.37-.63-.8a5,5,0,0,1-1.21-4.08,4.8,4.8,0,0,1,2.51-3.26l1-.6c1.56-.9,3-1.76,4.42-2.73a6.8,6.8,0,0,0,.45-.7c.18-.3.37-.63.61-1a2.84,2.84,0,0,1,2.32-1.2h2.53a2.84,2.84,0,0,1,2.16,1c.21.25.41.51.6.77a5.42,5.42,0,0,0,.55.67c.57.41,1.12.85,1.64,1.29a8.61,8.61,0,0,0,2.78,1.81,11.44,11.44,0,0,0,4.22-1c.56-.19,1.13-.39,1.71-.58a3.2,3.2,0,0,1,.91-.59l.53-.27a4.82,4.82,0,0,1,4.22-.64,5.67,5.67,0,0,1,3.16,5.21c0,.1,0,.18,0,.25a8.07,8.07,0,0,0,.9.12c6,.51,7.47,3.89,7.85,5.87a14.75,14.75,0,0,0,3.13,6.16c.61.8,1.87,2.48,1.56,4.41a3.83,3.83,0,0,0,.26,2.61c.74,1,3.3,1.31,4.14,1.42a4.93,4.93,0,0,1,1.14.3l0,0c.61.1,1.2.26,1.76.4a8.42,8.42,0,0,0,1.84.35c4.05-1.46,8.35-1,13.13,1.45,2.56,1.31,4.95,3.7,7.29,7.31l.32.51a9.21,9.21,0,0,0,.61.89H392a5.52,5.52,0,0,1,3.07,1l.12.07a6.41,6.41,0,0,1,1.39-2.61c3-3.16,10.44-3.24,13.63-1a5,5,0,0,0,2,.89h.07c2.83.35,6.81.84,9,4.2a6.54,6.54,0,0,1,6.16-.26,3.47,3.47,0,0,0,1.16-.09,16.33,16.33,0,0,1,4.7-4.66c.48-.35.93-.68,1.36-1,.27-.22.52-.44.76-.65,1.29-1.13,3.16-2.78,6.08-2.36a5.05,5.05,0,0,1,.72-.4c.26-.12.52-.25.78-.38a9.09,9.09,0,0,1,3.71-1.21c2-.09,4.74,1.56,5.24,3.77a48.61,48.61,0,0,1,1,7.75c.2,3.38.81,4,4.07,3.9,3.66-.07,5.7,2,7.08,3.82a15.51,15.51,0,0,0,1.73,1.8c.58.54,1.17,1.1,1.75,1.74l.07.08a7.86,7.86,0,0,1,2.26,4c.32,2.23.56,4.49.79,6.67s.47,4.48.79,6.68c.19,1.35.49,3.39-.86,5a4.31,4.31,0,0,1-.55.56,5.4,5.4,0,0,1-1.65,5.31l9.4,12.45a2.84,2.84,0,0,1,.38,2.73l-.52,1.36a12.48,12.48,0,0,1,1,.77l.56.45c1.24,1,2.93,2.31,2.89,4.42,0,1.71.78,2.44,3.11,4.1a8.35,8.35,0,0,1,3.11,4.83l0,.13c.52,2.44.88,3.87,2.14,4.75.7.49,1.43,1,2.2,1.43a2.84,2.84,0,0,1,4.49.65l3.55,6.5c.75.18,1.46.42,2.17.66,2.18.73,3.49,1.11,4.92.34a2.84,2.84,0,0,1,4.19,2.5v1.52a2.84,2.84,0,0,1-1.37,2.43l-.78.44a7.25,7.25,0,0,0-1,.61l-3.59,2.95c-3.81,3.13-7.75,6.36-11.5,9.65-3.94,3.45-9.39,7.73-16.63,10.23a59.18,59.18,0,0,0-11.1,5.74c-1.28.78-2.61,1.58-3.94,2.35.54,7-5.26,9.24-8.11,10.33l-.4.15a9.36,9.36,0,0,0-1,.43,2.7,2.7,0,0,0,.08.3,6.47,6.47,0,0,1-.64,5,8.91,8.91,0,0,1-5.12,4.39c-.65.18-1.32.43-2,.7-2.19.81-4.65,1.72-7.63,1.23l-.08,0a21.75,21.75,0,0,0-2.36,4.72,5.7,5.7,0,0,1-4.47,4c-3.25.82-6.55,1.85-9.75,2.84-1.59.5-3.24,1-4.87,1.49-.44.13-.88.28-1.33.43A17,17,0,0,1,409.2,351c-3.9.05-7.49,1.47-11.65,4.59a8.71,8.71,0,0,1-5.75,2.12q-9.22-.2-18.43-.37c-9.37-.18-19.07-.37-28.6-.62s-19.24-.69-28.61-1.12l-2.26-.1c-2.87-.13-5.77-.34-8.57-.53-5.26-.37-10.7-.76-16-.64-3,.07-6.06.2-9,.33a198.78,198.78,0,0,1-22.28.11c-11.71-.81-23.64-1.36-35.19-1.88l-3.37-.15c-1.29-.06-2.58-.17-3.82-.29-3.89-.35-7.56-.67-11,.68a4.4,4.4,0,0,1-2.82,0l-.2-.05c-.57-.12-1.11-.27-1.62-.42a8.76,8.76,0,0,0-2.06-.42c-8.16.12-16.46.31-24.48.48l-12.17.26h-.72c-7.39.15-15,.31-22.57.38-4.73,0-9.55,0-14.2,0h-6.32a2.84,2.84,0,0,1-2.76-2.17l-.06-.26-1.47-.12c-2.21-.18-4.32-.36-6.44-.56,1.18,3.78,2.33,8,.42,12.64A2.84,2.84,0,0,1,104.61,364.66ZM67,359h35.51c.37-2.4-.4-4.86-1.27-7.62l-.3-1c-.3-1-.93-3,.41-4.64s3.46-1.4,4.26-1.32c2.68.28,5.34.5,8.15.73l3.52.3a2.84,2.84,0,0,1,2.51,2.16l0,.08h4.1c4.64,0,9.44,0,14.13,0,7.5-.07,15.13-.23,22.51-.38h.72L173.4,347c8-.18,16.34-.36,24.52-.48a12.35,12.35,0,0,1,3.69.64c.44.13.86.24,1.24.32l.35.08c4.46-1.6,8.79-1.21,13-.84,1.24.11,2.41.21,3.57.27l3.37.15c11.58.53,23.55,1.08,35.32,1.89a194.83,194.83,0,0,0,21.65-.12c3-.13,6.07-.26,9.13-.33,5.54-.13,11.11.27,16.51.65,2.77.2,5.63.4,8.43.53l2.26.1c9.34.42,19,.86,28.5,1.11s19.2.44,28.56.62q9.22.18,18.45.37c.65,0,1.07-.13,2.21-1,5.11-3.83,9.87-5.65,15-5.72a12.5,12.5,0,0,0,3.42-.82c.5-.17,1-.33,1.5-.48,1.6-.47,3.23-1,4.8-1.47,3.26-1,6.64-2.07,10-2.93l.39-.12c0-.06.07-.16.12-.3a27.48,27.48,0,0,1,3.08-6.11,5.87,5.87,0,0,1,5.47-2.41c1.56.32,3.11-.25,4.91-.92.78-.29,1.59-.59,2.45-.83a3.46,3.46,0,0,0,1.89-2.26,5.54,5.54,0,0,1,1-5.8,8.32,8.32,0,0,1,3.39-2l.34-.13c4.2-1.61,4.78-2.7,4.42-5.14a4.8,4.8,0,0,1,2.31-4.48c1.47-.83,3-1.73,4.41-2.61a64.29,64.29,0,0,1,12.2-6.25c5-1.72,9.4-4.45,14.74-9.13,3.82-3.35,7.79-6.61,11.64-9.77l.72-.59-1.31-.42a11.14,11.14,0,0,0-2.38-.63,2.84,2.84,0,0,1-2.3-1.47L494.08,274a2.85,2.85,0,0,1-1.82-.42l-1.54-1c-1.15-.71-2.34-1.44-3.49-2.24-3.16-2.2-3.87-5.54-4.44-8.21l0-.13a2.78,2.78,0,0,0-.85-1.39c-2.24-1.59-5.26-3.73-5.49-8.08-.22-.2-.53-.44-.74-.61l-.73-.59a12.85,12.85,0,0,0-1.53-1l-.83-.53a2.84,2.84,0,0,1-1.08-3.38l.79-2-10.23-13.56a2.84,2.84,0,0,1,1-4.23,6.62,6.62,0,0,0,1.48-.93,6.9,6.9,0,0,0-.57-1.74,2.84,2.84,0,0,1,1.94-3.86c0-.16,0-.3-.05-.39-.33-2.31-.58-4.64-.82-6.89s-.45-4.28-.75-6.38a7.86,7.86,0,0,0-.89-1.12l-.08-.09c-.4-.45-.88-.9-1.39-1.37a20,20,0,0,1-2.37-2.51c-1.09-1.44-1.6-1.59-2.45-1.57-6.34.12-9.47-2.82-9.85-9.25a47.28,47.28,0,0,0-.66-6.05c-.31.13-.7.32-1,.47s-.64.33-1,.47l-.19.13a3.73,3.73,0,0,1-3.42.82c-.53-.17-.58-.18-1.85.93-.3.27-.62.54-.95.81-.53.43-1.05.81-1.56,1.18a10.39,10.39,0,0,0-3.39,3.34c-1.33,2.5-5.71,3-7.9,2.12-1-.42-1.13-.4-1.8.54a3.74,3.74,0,0,1-1.93,1.35l-.06,0a2.84,2.84,0,0,1-2.83-.29l-.07,0A3.3,3.3,0,0,1,417,194c-.43-2.13-1.47-2.48-5.37-3h-.07a10.49,10.49,0,0,1-4.61-1.88c-1.23-.87-5.26-.59-6.18.2a4.94,4.94,0,0,0-.22.66c-.26.91-.87,3-2.82,3.89s-4-.14-4.81-.56c-.23-.12-.47-.25-.71-.39l-.31-.18c-3.23,0-4.57-2.13-5.46-3.55l-.28-.44c-1.76-2.72-3.48-4.52-5.11-5.35-3.41-1.74-6.07-2.1-8.65-1.16a8.58,8.58,0,0,1-5.17-.2c-.5-.13-1-.25-1.35-.31a5,5,0,0,1-1-.29h0c-2.82-.37-5.92-1.11-7.81-3.62a8.58,8.58,0,0,1-1.39-6.41c-.08-.12-.2-.31-.41-.59a20.18,20.18,0,0,1-4.17-8.52c-.17-.88-1.59-1.18-2.75-1.28a7.55,7.55,0,0,1-4.2-1.38,5,5,0,0,1-1.86-3.54,3.08,3.08,0,0,1-.93.43c-.66.18-1.35.42-2.08.68a15.68,15.68,0,0,1-6.64,1.26c-2.36-.23-4.21-1.74-5.84-3.07-.48-.39-.93-.76-1.36-1.07a6.51,6.51,0,0,1-1.15-1.07,5.87,5.87,0,0,1-1.44,1.5c-1.6,1.13-3.28,2.1-4.9,3l-.23.13.13.16,1.12,1.43a7.2,7.2,0,0,1,1.82,5.38,5.62,5.62,0,0,1-1.4,2.93l1.54.55,1,.34a2.84,2.84,0,0,1,1.52,4.08c-.19.33-.39.65-.6,1a6.21,6.21,0,0,0-.68,1.21,5.46,5.46,0,0,0-.07,2.82,2.84,2.84,0,0,1-.59,2.45l0,0a2.9,2.9,0,0,1-3.68,1.08c-1.58-.76-3.17-.36-5.64.35a26.55,26.55,0,0,1-3.34.8c-2.22.34-4.65,2.1-7,3.81l-.75.54c-5.14,3.7-7.58,3.48-11.81-1.12a5.34,5.34,0,0,0-2.31-.5,22.81,22.81,0,0,0-3.34.17c-1,.1-2,.2-3.12.21a.77.77,0,0,0-.58.17,1.28,1.28,0,0,0,0,1c.73,2.84,1.49,5.94,2.32,9.46.44,1.85.24,4.45-3.2,6.35a4.55,4.55,0,0,0-1.15.79,7.09,7.09,0,0,1-7,4.52c-.79,0-2.89-.09-3.26,3.77a12.06,12.06,0,0,1-6.7,10c-1.17.64-3.58,2-6.36-.34a1.14,1.14,0,0,0-.46.56,14.57,14.57,0,0,1-3,5.14,5,5,0,0,0-1.51,4.06,25.18,25.18,0,0,1-1.13,8.69c-.73,2.21-3.07,3.25-4.78,4l-.37.16a8.34,8.34,0,0,1-2.33.59l-.14,0a2.84,2.84,0,0,1-2.82,2.54h-.2a3,3,0,0,1-2.95-1.42c-1.06-1.81-2.15-2.69-5.16-2.42a8.23,8.23,0,0,1-6.46-2.44,11.84,11.84,0,0,1-3.5-7.53,4,4,0,0,1-1,.54c-1,.35-2,.64-3.18,1l-1.32.38h0a3,3,0,0,1-.31,2.44,7.59,7.59,0,0,1-3.25,2.77,10.09,10.09,0,0,1-2.1.65,7.92,7.92,0,0,0,.13,3c.42,1.61,1,3.8-.45,5.47s-3.51,1.43-4.77,1.29a5.67,5.67,0,0,1-1.44,4.09,7.83,7.83,0,0,1-2.85,1.62c-.26.1-.5.19-.7.28a2.84,2.84,0,0,1-4-2.56v-1.85a4.6,4.6,0,0,1-2.63.32c-2.31-.41-3.51-2.52-4.08-3.53a26.86,26.86,0,0,1-1.55-3.33,2.58,2.58,0,0,0-.83-1.25,2.19,2.19,0,0,0-.74.74,9.56,9.56,0,0,1-8,4.45c-1.1.05-2.32.34-2.86,3a19.8,19.8,0,0,1-2.37,6.3,5.08,5.08,0,0,1-4.8,2.77,5.26,5.26,0,0,1-4.32-3.77c-.39-1.05-.49-1.06-1-1.07a8.34,8.34,0,0,1-4.24-1.5c-1.65-1-3.3-2.15-4.88-3.21-1.36-.91-2.77-1.85-4.16-2.74-1.73-1.11-2.34-1-3.68.06a6.94,6.94,0,0,1-5.9,1.39,6.51,6.51,0,0,1-1.18-.41,5.68,5.68,0,0,1-4,7.3,6.22,6.22,0,0,1-5.34-.95,4.37,4.37,0,0,1-1.3-4l-1.28.34c-1.16.31-2.35.64-3.61.85a6.57,6.57,0,0,1-7-3.49,2.27,2.27,0,0,0-.32.54c2.66,4.83,2.35,6.24-1.86,10.21a2.84,2.84,0,0,1-3.35.4l-.18-.1a8.52,8.52,0,0,1-.83-.49l-.61-.41-.28.62a9.2,9.2,0,0,1-3.83,4.15c-2,1.08-3.13,2.16-3.41,3.22-.35,1.31.33,3.24,2.27,6.44l.11.09a5,5,0,0,1,1.29,1.58c.11.23.24.47.37.71.67,1.23,1.59,2.92,1.18,4.79-.61,2.78-4.27,3.69-5.38,3.91-1.41.27-2.81.43-4.16.58a36.73,36.73,0,0,0-4.65.72,10.65,10.65,0,0,0-2.54,1.25,24.52,24.52,0,0,1-2.21,1.21l-.09,0c-1.28.6-3.23,1.5-5.07.59a1.92,1.92,0,0,0-1.75,0,1.7,1.7,0,0,0-.9,1.33c0,.16,0,.32-.07.48a8,8,0,0,1-1.13,3.58c-1.32,1.94-1.46,3.38,1.25,6.32,5.27,5.7,3.36,10.7.83,13.89a7.58,7.58,0,0,1-5.28,3.2,6.75,6.75,0,0,1-5.17-2A16.89,16.89,0,0,0,59.27,313a4.43,4.43,0,0,1-2-.81l-.14-.09c-1-.54-2.06-1.11-3.09-1.68-2.3-1.26-4.46-2.46-6.73-3.47-4.2-1.88-6.7-1.16-9.55,2.76-1.6,2.2-3.49,4.79-5.4,7.31a2.65,2.65,0,0,0-.68,2.13A1.93,1.93,0,0,0,33,320.24c2.06.78,5.23,2.82,3.36,7.75a13.07,13.07,0,0,0-.41,1.48,16.08,16.08,0,0,1-.73,2.43A15.57,15.57,0,0,1,33.31,335l-.21.3a6.49,6.49,0,0,1-.49.6c.2.2.41.42.61.66s.66.74,1,1.1l.49.53a2.84,2.84,0,0,1,.17,3.61l-.49.65a2.84,2.84,0,0,1-2.27,1.13c-.22,0-.44,0-.67,0h-.11l-.45.13c2,2.39,2.07,4.85.14,7.52a6.53,6.53,0,0,0-.6,1.46,14.82,14.82,0,0,1-.77,2l-.1.2a7,7,0,0,1-2.77,3.39c13.63,0,26.89.11,37.23.18a9.56,9.56,0,0,1,2.54.44ZM16.7,359h.56l1-.22a16.28,16.28,0,0,1,3.62-.52c.22,0,.46,0,.69,0a7.13,7.13,0,0,1-1.85-1.07A7.7,7.7,0,0,1,19,355a5.44,5.44,0,0,0-.47-.71l-.32-.27,0,.06C17.63,355.67,17.16,357.29,16.7,359Zm10.1-11.27h0Zm5-12.66Zm415.4-8.46h0Zm-415.71-.78h0Zm430-11.78h0ZM192.17,247.15h0Zm272.1-40.77h0Zm-42.63-9.83h0Zm-29.41-3.75h0Zm35.25-3.39h0Zm-26.71-.07h0Zm-9-2.22Zm-102.59-1.3h0Zm153.54-4.94h0ZM370.49,177h0Zm-14.78-5.3h0ZM315.12,164ZM342.19,156h0Zm5.67-.35Z"/><path class="cls-1" d="M8.91,364.66H2.84A2.84,2.84,0,0,1,0,361.82v-6.08a2.84,2.84,0,0,1,1.4-2.44c3.37-2,6.82-1.82,9.22.45,1.49,1.41,1.57,3.45,1.64,5.09,0,.3,0,.59,0,.86a5.46,5.46,0,0,1-.53,2.61c0,.12-.1.24-.14.36A2.84,2.84,0,0,1,8.91,364.66ZM5.68,359h.9c0-.39,0-.93-.09-1.27a1.33,1.33,0,0,0-.8-.09Zm.75-1.48Z"/></svg>