<svg id="Layer_1" data-name="Layer 1" xmlns="http://www.w3.org/2000/svg" viewBox="0 0 512 512"><defs><style>.cls-1{fill:#ccc;}</style></defs><title>icons</title><path class="cls-1" d="M441.79,326.25A70.25,70.25,0,1,1,512,256,70.31,70.31,0,0,1,441.79,326.25Zm0-104.3A34.06,34.06,0,1,0,475.86,256,34.1,34.1,0,0,0,441.79,221.94Z"/><path class="cls-1" d="M256,326.25A70.25,70.25,0,1,1,326.21,256,70.31,70.31,0,0,1,256,326.25Zm0-104.3A34.06,34.06,0,1,0,290.07,256,34.1,34.1,0,0,0,256,221.94Z"/><path class="cls-1" d="M70.21,326.25A70.25,70.25,0,1,1,140.42,256,70.31,70.31,0,0,1,70.21,326.25Zm0-104.3A34.06,34.06,0,1,0,104.28,256,34.1,34.1,0,0,0,70.21,221.94Z"/></svg>