<svg id="Layer_1" data-name="Layer 1" xmlns="http://www.w3.org/2000/svg" viewBox="0 0 512 512"><defs><style>.cls-1{fill:#fff;}</style></defs><title>icons</title><path class="cls-1" d="M256,0C397.18,0,512,114.82,512,256S397.18,512,256,512,0,397.18,0,256,114.82,0,256,0Zm0,470.2C374.06,470.2,470.2,374.06,470.2,256S374.06,41.8,256,41.8,41.8,137.88,41.8,256,137.88,470.2,256,470.2Z"/><path class="cls-1" d="M417.9,73.2a20.9,20.9,0,0,1,14.77,35.67l-323.8,323.8a20.89,20.89,0,1,1-29.54-29.54l323.8-323.8A20.77,20.77,0,0,1,417.9,73.2Z"/></svg>