<svg id="Layer_1" data-name="Layer 1" xmlns="http://www.w3.org/2000/svg" viewBox="0 0 512 512"><defs><style>.cls-1{fill:#ccc;}</style></defs><title>icons</title><path class="cls-1" d="M217.26,447.34C97.46,447.34,0,347,0,223.67S97.46,0,217.26,0,434.53,100.31,434.53,223.67,337.07,447.34,217.26,447.34Zm0-410.82c-100.21,0-181.75,84-181.75,187.16s81.54,187.16,181.75,187.16S399,326.83,399,223.67,317.47,36.51,217.26,36.51Z"/><path class="cls-1" d="M494.24,512a17.47,17.47,0,0,1-12.56-5.35L363.44,384.92a18.6,18.6,0,0,1,0-25.8,17.4,17.4,0,0,1,25.11,0L506.8,480.84a18.6,18.6,0,0,1,0,25.8A17.47,17.47,0,0,1,494.24,512Z"/></svg>