<svg id="Layer_1" data-name="Layer 1" xmlns="http://www.w3.org/2000/svg" viewBox="0 0 512 512"><defs><style>.cls-1{fill:#fff;}</style></defs><title>icons</title><path class="cls-1" d="M218.15,351,150.8,283.63a21.87,21.87,0,0,1,31-30.9l36.33,36.33L330.21,176.52a21.89,21.89,0,0,1,31,30.9Z"/><path class="cls-1" d="M256,512C114.86,512,0,397.15,0,256S114.86,0,256,0,512,114.85,512,256,397.17,512,256,512Zm0-468.19C139,43.77,43.78,139,43.78,256S139,468.23,256,468.23,468.22,373,468.22,256,373,43.77,256,43.77Z"/></svg>