<svg id="Layer_1" data-name="Layer 1" xmlns="http://www.w3.org/2000/svg" viewBox="0 0 40 46"><defs><style>.cls-1{fill:#e9547c;}</style></defs><title>icons</title><path class="cls-1" d="M20,22.46a1.75,1.75,0,0,1-1.71-1.8V1.8a1.71,1.71,0,1,1,3.42,0V20.66A1.75,1.75,0,0,1,20,22.46Z"/><path class="cls-1" d="M20,46C9,46,0,36.56,0,25a21.26,21.26,0,0,1,11.42-19,1.68,1.68,0,0,1,2.28.85,1.84,1.84,0,0,1-.81,2.4A17.62,17.62,0,0,0,3.42,25c0,9.62,7.44,17.45,16.58,17.45S36.58,34.58,36.58,25A17.56,17.56,0,0,0,26.86,9.07,1.84,1.84,0,0,1,26,6.7a1.67,1.67,0,0,1,2.27-.89A21.18,21.18,0,0,1,40,25C40,36.56,31,46,20,46Z"/></svg>