<svg id="Layer_1" data-name="Layer 1" xmlns="http://www.w3.org/2000/svg" viewBox="0 0 100 100"><defs><style>.cls-1{fill:#963cbd;}.cls-2{fill:#fff;}</style></defs><title>Waiver</title><circle class="cls-1" cx="50" cy="50" r="50"/><path class="cls-2" d="M59.51,45.72h0v.06a8.26,8.26,0,0,0-2.65-2h0V43.7a8.18,8.18,0,0,0-10.94,3.9h0a8.15,8.15,0,0,0-.71,2.21h0a8.15,8.15,0,0,0-.11,1.13c0,.1,0,.19,0,.29a8.27,8.27,0,0,0,.06.87c0,.13,0,.27.05.4s0,.24.08.37a8.21,8.21,0,1,0,14.2-7.13ZM47.07,47.59h4.6a1.11,1.11,0,0,1,0,2.21H46.24A7.15,7.15,0,0,1,47.07,47.59Zm-1,3.58h5.55a1.11,1.11,0,0,1,0,2.22H46.46A7.18,7.18,0,0,1,46.11,51.17Zm5.55,6.19H49.61a7.27,7.27,0,0,1-2.31-2.22h4.36A1.11,1.11,0,0,1,51.66,57.36Z"/><path class="cls-2" d="M56.86,61.47h0a10.9,10.9,0,0,1-3.75.59l-.42,0s0,0,0,.06a10.87,10.87,0,0,1-4.35-1.19h.13a11,11,0,0,1-4.12-3.55h0a11,11,0,0,1-1.18-2.22h0a10.93,10.93,0,0,1-.52-1.76h0c0-.06,0-.12,0-.19s-.06-.35-.08-.53,0-.32-.06-.48,0-.61,0-.92c0,0,0-.06,0-.09h0c0-.1,0-.2,0-.3a11,11,0,0,1,17.14-8.82V35.39L53.8,29.86h-25v39.9H59.51V60.21a10.83,10.83,0,0,1-2.65,1.33ZM41.47,49.81H35.31a1.11,1.11,0,0,1,0-2.21h6.63A11.75,11.75,0,0,0,41.47,49.81Zm.13,3.58H35.31a1.11,1.11,0,0,1,0-2.22h6.08A11.92,11.92,0,0,0,41.59,53.39Zm-.26-9.27H35.61a1.11,1.11,0,0,1,0-2.21h5.73A1.11,1.11,0,0,1,41.33,44.12Zm0-3.58H35.61a1.11,1.11,0,0,1,0-2.21h5.73A1.11,1.11,0,0,1,41.33,40.54Zm4.6,20.37h.49A11.81,11.81,0,0,0,52.05,63a1,1,0,0,1-.39.08H45.94A1.11,1.11,0,0,1,45.94,60.92Zm-2.82-3.56H35.31a1.11,1.11,0,0,1,0-2.21h6.76A11.61,11.61,0,0,0,43.12,57.36Z"/><rect class="cls-2" x="64.14" y="58.7" width="3.43" height="11.91" transform="translate(-26.43 63.57) rotate(-43.8)"/></svg>