<svg id="Layer_1" data-name="Layer 1" xmlns="http://www.w3.org/2000/svg" viewBox="0 0 150 150"><defs><style>.cls-1{fill:#00b1a8;}.cls-2{fill:#fff;}</style></defs><title>Waiver</title><circle class="cls-1" cx="75" cy="75" r="75"/><path class="cls-2" d="M100.24,62.53a1.59,1.59,0,0,0-.42-1q-9-9.06-18.09-18.07a1.5,1.5,0,0,0-1-.4q-12.2,0-24.4,0A6.18,6.18,0,0,0,50,47.8,8.5,8.5,0,0,0,49.76,50q0,12.3,0,24.6t0,24.6a6.72,6.72,0,0,0,1.65,4.76,6.14,6.14,0,0,0,4.06,2c.39,0,.79,0,1.18,0q18.38,0,36.75,0a6.42,6.42,0,0,0,6.87-6.73Q100.26,80.93,100.24,62.53Zm-41,12h6.24v6.21H59.27Zm0,9.43h6.22v6.23H59.27ZM65.51,99.7H59.27V93.49h6.24Zm6.4-25.11H90.75v6.2H71.91ZM90.75,99.7H71.91V93.5H90.75Zm0-9.46H71.91V84H90.75ZM78.21,65V48l17,17Z"/></svg>