<svg id="Layer_1" data-name="Layer 1" xmlns="http://www.w3.org/2000/svg" viewBox="0 0 101 101"><defs><style>.cls-1{fill:#ffb40f;}.cls-2{fill:#fff;}</style></defs><title>Waiver</title><circle class="cls-1" cx="50.5" cy="50.5" r="50.5"/><path class="cls-2" d="M35.34,50.47q0-8.56,0-17.11a4.76,4.76,0,0,1,.11-1.21,2.45,2.45,0,0,1,2.36-1.8H56.71A1.25,1.25,0,0,1,58,31.67c0,1.6,0,3.2,0,4.8a1.28,1.28,0,0,0,1.43,1.43c1.57,0,3.15,0,4.72,0a1.55,1.55,0,0,1,1.49,1.52c0,9.51,0,19,0,28.52a2.66,2.66,0,0,1-2.69,2.73q-12.49,0-25,0A2.51,2.51,0,0,1,35.35,68Q35.34,59.24,35.34,50.47Zm25.8,13.87c0-.21-.07-.34-.1-.46-.38-1.51-.75-3-1.14-4.53a.53.53,0,0,1,.26-.69,3.76,3.76,0,0,0-3.08-6.74,3.77,3.77,0,0,0-1.16,6.78.46.46,0,0,1,.22.6c-.2.69-.36,1.39-.53,2.09l-.73,2.94.41-.22c.81-.49,1.62-1,2.42-1.46a.51.51,0,0,1,.63,0c.64.41,1.3.79,2,1.18ZM50.42,41.7H60.84a3.24,3.24,0,0,0,.39,0,.58.58,0,0,0,.55-.57.57.57,0,0,0-.46-.64,2.21,2.21,0,0,0-.55,0H40a1.6,1.6,0,0,0-.43,0,.62.62,0,0,0,.09,1.21,2.75,2.75,0,0,0,.35,0Zm0,3.78H60.89a2.83,2.83,0,0,0,.35,0,.58.58,0,0,0,.54-.54.57.57,0,0,0-.39-.65,1.36,1.36,0,0,0-.46-.06H40a1.51,1.51,0,0,0-.43,0,.57.57,0,0,0-.45.65.58.58,0,0,0,.56.56H50.43Zm0,3.78H61c.47,0,.75-.24.75-.61s-.28-.63-.74-.64H39.86a.65.65,0,0,0-.73.65c0,.37.28.6.72.61H50.46ZM46.64,37.92h6.84c.46,0,.75-.25.75-.62s-.29-.62-.75-.63H40.1a1.94,1.94,0,0,0-.54.05.57.57,0,0,0-.43.66.57.57,0,0,0,.54.53,3,3,0,0,0,.35,0ZM45.09,53h4.4c.33,0,.66,0,1,0a.57.57,0,0,0,.59-.57.59.59,0,0,0-.5-.66,1.87,1.87,0,0,0-.43,0H39.8a.65.65,0,0,0-.67.62.62.62,0,0,0,.7.63Zm0,3.78h4.32c.35,0,.71,0,1.06,0a.57.57,0,0,0,.59-.57.59.59,0,0,0-.5-.66,1.45,1.45,0,0,0-.35,0H39.8a.64.64,0,0,0-.67.66.62.62,0,0,0,.7.59Zm0,3.78h5.23c.47,0,.75-.24.75-.62s-.3-.64-.78-.64H39.8a.64.64,0,0,0-.67.63.62.62,0,0,0,.7.63Zm0,3.78h3.5c.63,0,1.26,0,1.89,0a.57.57,0,0,0,.59-.57.59.59,0,0,0-.5-.66,1.62,1.62,0,0,0-.39,0H39.88c-.43,0-.7.21-.75.55s.24.71.73.71Z"/><path class="cls-2" d="M62,36.65H60c-.54,0-.76-.23-.76-.77,0-1.28,0-2.57,0-3.85a1.75,1.75,0,0,1,.13-.46,1.93,1.93,0,0,1,.42.24q2.15,2.13,4.28,4.28a1.84,1.84,0,0,1,.24.42,1.87,1.87,0,0,1-.46.13c-.64,0-1.28,0-1.93,0Z"/></svg>