<svg id="Layer_1" data-name="Layer 1" xmlns="http://www.w3.org/2000/svg" viewBox="0 0 100 100"><defs><style>.cls-1{fill:#ed8b00;}.cls-2{fill:#fff;}</style></defs><title>Waiver</title><circle class="cls-1" cx="50" cy="50" r="50"/><path class="cls-2" d="M26.49,70.56A3.81,3.81,0,0,1,23,68.15c-.73-2-1.46-4-2.2-6-.87-2.35-1.75-4.7-2.6-7.06a12.05,12.05,0,0,1-.68-2.31,3.69,3.69,0,0,1,2.41-3.93c2.79-1,5.6-2.06,8.39-3.09l8.3-3,5.45-2,6.48-2.4,5.23-1.89,5.48-2,5.22-1.92c2.18-.8,4.36-1.61,6.55-2.4a12.46,12.46,0,0,1,2.15-.62,3.66,3.66,0,0,1,3.8,2.19c.73,1.88,1.4,3.78,2.1,5.67s1.4,3.81,2.09,5.71c.46,1.27,1,2.52,1.32,3.81A3.47,3.47,0,0,1,81.71,50a5.05,5.05,0,0,1-2.56,1.54l-5.28,1.95-5.23,1.9L63,57.43,56.9,59.67l-5.58,2.06-5.26,1.91L39.65,66,34.4,67.93c-1.88.69-3.75,1.39-5.64,2.07A5.57,5.57,0,0,1,26.49,70.56ZM17.89,52.45a4.94,4.94,0,0,0,.13.71c.31.92.62,1.83.95,2.74.69,1.89,1.4,3.78,2.09,5.67.78,2.12,1.54,4.24,2.33,6.35a3.3,3.3,0,0,0,4.36,1.93c1.52-.57,3-1.13,4.57-1.69L38,66.09l7-2.58L55.15,59.8l7.94-2.93,6.29-2.3,5.44-2c1.73-.64,3.46-1.25,5.19-1.91a3.19,3.19,0,0,0,2-3.36A13.2,13.2,0,0,0,81.33,45c-.94-2.61-1.91-5.21-2.86-7.82-.65-1.76-1.27-3.53-2-5.28a3.27,3.27,0,0,0-4.24-1.8l-1.16.44-9.61,3.51-7.65,2.82-6.52,2.38-5.6,2.07-7.59,2.77L27,46.76c-2.29.84-4.59,1.68-6.88,2.53A3.34,3.34,0,0,0,17.89,52.45Z"/><path class="cls-2" d="M26.91,69.46a3.52,3.52,0,0,1-3.37-2.34c-1.09-3-2.21-6-3.32-9.05-.52-1.42-1.08-2.82-1.54-4.25a3.44,3.44,0,0,1,2.09-4.32c1.74-.67,3.5-1.3,5.25-1.94l8.31-3,7.13-2.61,5.6-2.07,6.68-2.43,5.6-2.07,5.23-1.9L71,31a5.87,5.87,0,0,1,2.2-.52,3.56,3.56,0,0,1,3.18,2.28c.75,2.07,1.52,4.13,2.27,6.19.81,2.22,1.59,4.45,2.43,6.65a3.78,3.78,0,0,1,0,3,3.41,3.41,0,0,1-2,1.83l-5.06,1.85-9.17,3.38L58.3,58.17l-6.81,2.5-5.44,2-6.48,2.4L34.34,67c-1.86.68-3.71,1.38-5.57,2.06A4,4,0,0,1,26.91,69.46ZM81,47.22c-.07-.32-.11-.66-.21-1-.16-.51-.35-1-.53-1.5l-1.9-5.23q-1-2.87-2.11-5.74a4.89,4.89,0,0,0-.94-1.83,3.17,3.17,0,0,0-3.58-.64c-2.34.88-4.68,1.74-7,2.6L59,36,53.79,37.9,47.3,40.27l-6.65,2.45-5.61,2-7,2.59c-2.39.88-4.78,1.75-7.16,2.64a3,3,0,0,0-1.7,3.79c.46,1.24.91,2.48,1.37,3.73q1.76,4.8,3.52,9.6a3,3,0,0,0,3.63,1.75c2.16-.76,4.31-1.56,6.46-2.35l5.54-2,6.1-2.23,5.6-2.07,5.23-1.9,6.47-2.4L69,53.73l10-3.65A3,3,0,0,0,81,47.22Z"/><path class="cls-2" d="M51.3,54.28c.27-.23.14-.43,0-.68a6.49,6.49,0,0,1-.48-1c-.27-.58-.52-1.18-.8-1.75a1.54,1.54,0,0,0-1.3-.57.58.58,0,0,0-.27,1c.21.22.42.45.12.76a.26.26,0,0,0,0,.22c.17.49.34,1,.53,1.45a1.24,1.24,0,0,0,1.16.47c.47-.12.64.27.85.5a.86.86,0,0,1,.09.77c-.1.21-.41.35-.65.46a8.25,8.25,0,0,1-1.18.44,2.14,2.14,0,0,1-.77.06c-.23,0-.43.21-.69,0a.85.85,0,0,1-.13-1.12,6.18,6.18,0,0,0,.65-.95c0-.07-.06-.2-.07-.31a5.28,5.28,0,0,0,0-.7.74.74,0,0,0-.26-.41c-.45-.32-.5-.48-.35-1a.74.74,0,0,0-.07-.42s-.17,0-.25,0l-.59-1.13s0-.08,0-.1c.28-.34,0-.54-.2-.72s-.29-.63-.29-1A.56.56,0,0,0,46,48a.78.78,0,0,1-.22-.34q-.24-.56-.45-1.13c-.1-.26-.27-.31-.54-.3a1,1,0,0,1-.61-.18.4.4,0,0,1-.08-.58c0-.06,0-.18,0-.27,0-.37.12-.38.48-.39a2.15,2.15,0,0,0,.69-.29l.83-.35c.06,0,.15,0,.2,0,.45-.36,1-.22,1.54-.42.15-.06.41.15.61.24.43.2.94.25,1.24.68a3.75,3.75,0,0,1,.86,1.59,1.22,1.22,0,0,0,.21.56c.26.33.15.72.19,1.07a3.14,3.14,0,0,1-.17,1c-.05.2-.18.39-.25.59a.28.28,0,0,0,.05.22c.2.25.41.5.61.74a.82.82,0,0,1,.13.16c.25.55.49,1.1.75,1.64.06.12.24.17.33.28.44.52,1.27.3,1.65,1,.27.47.32.62-.09,1a5.89,5.89,0,0,1-.6.48.48.48,0,0,1-.25,0,6.92,6.92,0,0,0-.75,0,.74.74,0,0,1-.91-.45C51.44,54.48,51.37,54.39,51.3,54.28Zm-4.35-7.36c.05.2.19.41.14.56a.91.91,0,0,0,.11.74.74.74,0,0,0,.43.46,2.43,2.43,0,0,0,.62.18c.57.06.76-.49,1.15-.74s.17-.59.24-.89a.78.78,0,0,0-.21-.76c-.28-.31-.54-.63-.82-.93a.61.61,0,0,0-.88-.06c-.12.08-.3.06-.43.14s-.59.27-.64.47a.86.86,0,0,0,.22,1Z"/><path class="cls-2" d="M68,37.86l.16.69a2.46,2.46,0,0,0-.44.28c-.05,0,0,.2,0,.3a4.28,4.28,0,0,1,.07.7c0,.43.07.62.44.74l0,1.1c.63-.06.82-.3.79-.84a6.79,6.79,0,0,1,.05-1.16.37.37,0,0,1,.27-.23.67.67,0,0,1,.4.17c.08.06.05.25.13.31a.82.82,0,0,0,.39.09,1.58,1.58,0,0,0,.3,0v.12l-.36.23a4,4,0,0,0,.48,1,1.12,1.12,0,0,1,.24.56s0,.08,0,.1c-.27.22-.11.44,0,.68.13.39.22.8.31,1.2a1.06,1.06,0,0,1,0,.34l-.11,0-.63-.73c-.21-.25-.41-.52-.64-.76a.31.31,0,0,0-.28,0,1,1,0,0,0-.2,1.57.58.58,0,0,1,.1.33c0,.23,0,.47.06.7a.31.31,0,0,0,.26.15c.36-.06.32.13.28.37a3.94,3.94,0,0,0,0,.73c0,.06.13.14.22.17s.43.09.67.14c.29-.17.65-.4,1-.58a1.18,1.18,0,0,0,.57-.77,9.68,9.68,0,0,0-.26-2.36c0-.21,0-.43-.06-.64l.08-.08a2.47,2.47,0,0,1,.55.49,6.67,6.67,0,0,1,.36.9c.2.47.4.94.63,1.4a3,3,0,0,1,.4,1.42c0,.26-.55.69-.86.77a6.41,6.41,0,0,0-.87.38l-.27.13c-.24.1-.47.22-.71.3s-.76.23-1.14.35a1.66,1.66,0,0,0-.46.19,1.23,1.23,0,0,1-1.36.09,1.15,1.15,0,0,1-.26-.62.86.86,0,0,1,.38-.18.91.91,0,0,0,.69-1.3c-.11-.25-.17-.52-.27-.78s-.2-.51-.31-.76a2.3,2.3,0,0,1-.12-.25,25.71,25.71,0,0,0-1.58-4c-.23-.47-.37-1-.56-1.47a4.53,4.53,0,0,0-.29-.58.4.4,0,0,0-.64-.19,1.11,1.11,0,0,1-.8,0c-.16-.05-.27-.33-.34-.53a.43.43,0,0,1,.1-.39,5.26,5.26,0,0,1,1.12-.67,3.77,3.77,0,0,0,1.41-.79.09.09,0,0,1,.06,0c.61.07,1-.48,1.5-.59a1.94,1.94,0,0,1,.48,0c.07,0,.14,0,.2,0,.7-.16,1.14.35,1.56.73a.83.83,0,0,1,.15.92,1.12,1.12,0,0,0,.27.93s.12.06.12.1c.05.41.11.81.13,1.22a.3.3,0,0,1-.18.24c-.08,0-.19-.09-.27-.15a2.16,2.16,0,0,1-.34-.29c-.11-.12-.26-.26-.26-.4,0-.63-.51-.92-.87-1.31-.05-.06-.15-.07-.21-.12-.5-.39-.49-.39-1,0-.08.07-.23.06-.35.09Z"/><path class="cls-2" d="M41.09,58.25c.09,0,.18-.12.26-.11.42.05.61-.29.83-.53a.71.71,0,0,0,.08-.56,9.11,9.11,0,0,0-.37-1.14c-.22-.59-.46-1.17-.69-1.76-.07-.18-.13-.36-.19-.54a2.31,2.31,0,0,0-.06-.23c-.34-.75-.69-1.5-1-2.26-.21-.49-.39-1-.59-1.5a5.63,5.63,0,0,0-.29-.62c-.15-.27-.32-.35-.65-.18a1,1,0,0,1-.79,0c-.17-.07-.27-.38-.35-.59a.36.36,0,0,1,.1-.33,5.27,5.27,0,0,1,1.15-.67,4.47,4.47,0,0,0,1.39-.76c.14-.11.39-.07.57-.14s.48-.27.73-.39a1,1,0,0,1,.84-.11c.28.11.63,0,.94.2a1.6,1.6,0,0,1,.93,1.18c0,.06,0,.13,0,.17-.24.3,0,.57,0,.85,0,.07.1.14.16.21s.13.07.14.12c.06.39.11.79.14,1.19,0,.08-.11.24-.17.25s-.2-.09-.3-.16a1.65,1.65,0,0,1-.32-.25c-.11-.13-.28-.28-.28-.43,0-.65-.53-.93-.9-1.32-.05-.06-.14-.08-.2-.13-.43-.39-.42-.39-.86,0a2.08,2.08,0,0,1-.39.19l-.12-.05.13.69a3,3,0,0,0-.44.29s0,.18,0,.27a4.44,4.44,0,0,1,.08.73.61.61,0,0,0,.44.74l.05,1.13c.75-.18.83-.31.78-1.13a3.78,3.78,0,0,1,0-.88.4.4,0,0,1,.3-.25.51.51,0,0,1,.39.22c.18.42.16.42.57.28a.25.25,0,0,1,.13,0,.1.1,0,0,1,.05,0,.92.92,0,0,1,.05.11l-.34.23a4.12,4.12,0,0,0,.47,1,1.2,1.2,0,0,1,.26.52s0,.12,0,.13c-.34.25-.09.51,0,.77s.21.76.29,1.14a1,1,0,0,1,0,.34l-.11,0-.66-.8a9.1,9.1,0,0,0-.61-.69.34.34,0,0,0-.3,0,.9.9,0,0,0-.12,1.58s.07.06,0,.11a6.66,6.66,0,0,0,.08.85c0,.09.19.19.3.2.29,0,.34.09.25.38s-.19.48,0,.72a.44.44,0,0,0,.23.14c.2.06.4.1.65.16a10,10,0,0,0,1.1-.63c.24-.17.52-.34.5-.75a4.51,4.51,0,0,0-.07-1.11A11.84,11.84,0,0,1,45,52.55c.73.2.77.82,1,1.32s.4.94.62,1.4A2.92,2.92,0,0,1,47,56.71c0,.25-.5.68-.79.76a8.74,8.74,0,0,0-.87.32l-.55.25a4.51,4.51,0,0,1-.5.27c-.36.13-.74.22-1.11.33a3.87,3.87,0,0,0-.49.2,1.44,1.44,0,0,1-1.22.19C41.16,58.9,41.1,58.61,41.09,58.25Z"/><path class="cls-2" d="M59.53,48.2c-.14.14-.25.33.17.44.06,0,.09.17.11.27s.06.4.1.63c0,0-.11,0-.14.1a.38.38,0,0,0-.07.24s.12.06.19.09.26.11.26.17a6.18,6.18,0,0,1-.08.84c0,.12-.12.25-.1.36.11.54-.27.74-.62,1a2.9,2.9,0,0,0-.43.37c-.23.23-.44.45-.84.36-.15,0-.34.09-.5.16s-.48.23-.71.34-.41.12-.51.26-.49.28-.73.41-.41.14-.57-.07a4.64,4.64,0,0,1-.54-.78c-.1-.22,0-.43.27-.51a2.82,2.82,0,0,0,.84-.38c.12-.08.16-.29.21-.45a.47.47,0,0,0,0-.27c-.24-.6-.49-1.2-.73-1.8a6.39,6.39,0,0,1-.18-.62,3,3,0,0,0-.08-.3c-.2-.51-.42-1-.61-1.53-.07-.19,0-.42-.11-.61-.23-.56-.48-1.12-.73-1.67,0-.09-.15-.18-.15-.27a1.76,1.76,0,0,0-.53-1.15c-.05-.06-.1-.19-.14-.18a4.44,4.44,0,0,0-1.08.19c-.2.08-.29.09-.39-.07a2,2,0,0,1-.31-.54.65.65,0,0,1,.11-.48,1.66,1.66,0,0,1,.53-.46,7.49,7.49,0,0,1,.91-.36l1-.35c.05,0,.1-.09.14-.09.58,0,1.17-.07,1.75,0,.18,0,.36.21.53.32s.3.2.44.31a1.22,1.22,0,0,1,.23.24c.21.3.38.64.76.77.05,0,.1.09.13.15.2.39.38.79.58,1.18.1.2.15.44.44.49,0,0,.08.1.09.16a2.92,2.92,0,0,0,.13.69c.19.39.46.75.64,1.14a4.41,4.41,0,0,1,.17.81A4.71,4.71,0,0,0,59.53,48.2ZM55.77,48l.15.08a1.43,1.43,0,0,1-.08.28.82.82,0,0,0,.08,1,.74.74,0,0,1,.14.37.69.69,0,0,0,.51.72c.32.09.35.29.2.59a.31.31,0,0,0,0,.27.4.4,0,0,0,.27.14c.19,0,.38,0,.57,0,.44,0,.72-.17.78-.59a11.45,11.45,0,0,1,.1-1.35,3.44,3.44,0,0,0-.06-1.12,3.57,3.57,0,0,0-.1-.82c-.18-.53-.41-1-.62-1.57a7.31,7.31,0,0,0-.35-.8c-.25-.45-.53-.89-.8-1.34,0,0,0-.1,0-.13a2,2,0,0,0-.42-.58,9.73,9.73,0,0,0-1.1-.57,1.07,1.07,0,0,1-.9.41c-.44,0-.5,0-.42.46a7,7,0,0,0,.56,1.73c.08.16.1.35.17.52a4.21,4.21,0,0,1,.37.8c.06.32.1.6.49.61-.09.63,0,1.18.37,1.17Z"/><path class="cls-2" d="M61.12,39.35a1.37,1.37,0,0,1,1-1A8.73,8.73,0,0,1,63.65,38s.06,0,.07,0a3.62,3.62,0,0,1,.5.71c.05.12-.08.34-.17.5s-.31.44-.46.66a.21.21,0,0,0,0,.17,12.77,12.77,0,0,0,1,2.71c.07.1,0,.26.09.39.22.6.44,1.2.67,1.8,0,0,.08.08.07.12-.08.56.29,1,.41,1.49s.23.83.31,1.26a4.19,4.19,0,0,1,.18,1.33,3,3,0,0,1-.56,1,1.5,1.5,0,0,1-1.11.57,1.34,1.34,0,0,1-.7-.08,7.22,7.22,0,0,1-1-.53,2.51,2.51,0,0,1-.93-1.11,1.31,1.31,0,0,1-.13-.24c-.23-1-.82-1.84-1-2.88a7.64,7.64,0,0,0-.75-1.77,4.18,4.18,0,0,1-.17-.62,2.13,2.13,0,0,0,0-.24c-.16-.43-.35-.84-.5-1.28s-.67-.57-1.13-.65c-.25,0-.51-.13-.51-.42s.11-.68.21-.69c.45-.06.66-.45,1-.59a12.18,12.18,0,0,0,1.37-.59C60.77,38.95,60.93,39,61.12,39.35Zm-.32,1.3h-.2c-.46,0-.5.13-.36.57.3.91.58,1.83.87,2.74l.61,1.93a.69.69,0,0,0,0,.09,4.77,4.77,0,0,1,.72,1.79.39.39,0,0,0,.09.18c.31.42.63.83.93,1.26a.73.73,0,0,0,1,.23c.16-.1.41-.2.44-.34a4.78,4.78,0,0,0,.2-1.4,2.48,2.48,0,0,0-.32-1.44.89.89,0,0,1-.09-.32,4,4,0,0,0-.13-.53c-.3-.78-.62-1.55-.93-2.32-.05-.13-.13-.24-.18-.37a2.64,2.64,0,0,1-.28-.82A1.76,1.76,0,0,0,62.8,41c-.09-.13-.19-.26-.28-.39s-.1-.29-.17-.31a6.48,6.48,0,0,0-1-.13c-.06,0-.19.14-.18.18C61.28,40.67,61.1,40.71,60.8,40.65Zm-.32-1.2L61,40C61,39.39,61,39.39,60.48,39.45Z"/><path class="cls-2" d="M38.88,59.81l-.72.72a.43.43,0,0,1-.69-.07A9,9,0,0,1,36,58a5,5,0,0,0-.44-.89c-.28-.5-.58-1-.87-1.49a2.59,2.59,0,0,1-.19-.44,2.69,2.69,0,0,0-.65-1.13,3.17,3.17,0,0,1-.46-.69c-.43-.73-.86-1.47-1.3-2.2a1.28,1.28,0,0,0-.28-.25c.07-.48,0-.59-.48-.82a2.53,2.53,0,0,1,.43-.54,2,2,0,0,1,1.42-.36.51.51,0,0,1,.3.18,4,4,0,0,1,.31.5c.1.17-.08.46-.37.59s-.43.37-.22.75c.5.87,1,1.75,1.49,2.62.05.09.16.16.23.25s.14.21.21.31.11.18.19.21c.28.09.48.22.42.55.39,0,.44-.09.31-.39l-.26-.55a.33.33,0,0,1,0-.16c.43-.19.14-.55.16-.81a3.3,3.3,0,0,0-.19-.87,3,3,0,0,0-.52-1.3c-.09-.12-.07-.33-.1-.5-.08-.48-.48-.7-.78-1-.53-.53-.43-1,.28-1.25a5.7,5.7,0,0,1,.7-.15.64.64,0,0,0,.21-.07,1,1,0,0,1,1.3.23c.29.38.26.6-.09.89a.3.3,0,0,0-.11.13c-.15.53-.41,1-.06,1.59a.15.15,0,0,1,0,.1A1.69,1.69,0,0,0,37,52.32,1.53,1.53,0,0,1,37,53c0,.27-.15.6.29.71,0,0,.08.17.06.24a3.59,3.59,0,0,0,.14,1.9,9,9,0,0,1,.41,1.3c0,.74.63,1.37.43,2.16a.29.29,0,0,0,.29.38C38.73,59.67,38.78,59.74,38.88,59.81Z"/><path class="cls-2" d="M26.42,55a4.56,4.56,0,0,1-.2-.84,14,14,0,0,1,0-1.5,1,1,0,0,1,.1-.43c.18-.35.3-.84.6-1a5.83,5.83,0,0,1,1.54-.39c.29.37.81.33,1.11.75.49.68,1.08,1.28,1.62,1.92a1.64,1.64,0,0,1,.13.28l.81,1.47a.4.4,0,0,1,0,.09c.12.51.25,1,.36,1.53.07.34.08.69.39.93.06,0,.07.17.08.25.06.86.1,1.72.16,2.57a2.53,2.53,0,0,0,.1.33,1.15,1.15,0,0,1,0,.34c0,.19-.06.39-.09.58s0,.16-.06.19c-.4.3-.7.76-1.26.82A5.87,5.87,0,0,1,31,63a1.33,1.33,0,0,1-.63-.21,5,5,0,0,1-.81-.67A6.35,6.35,0,0,1,29,61.4c-.26-.36-.54-.71-.78-1.09a10.44,10.44,0,0,1-.65-1.14,11.2,11.2,0,0,1-.73-1.7A5.13,5.13,0,0,1,26.42,55Zm5,6c.54.24.61.17.68-.36A1.49,1.49,0,0,0,32,59.58s0-.09,0-.13a1.1,1.1,0,0,0-.05-1s0-.1,0-.14A1.39,1.39,0,0,0,32,58c0-.14-.1-.28-.14-.42-.12-.52-.2-1-.37-1.55s-.44-.85-.59-1.3c-.28-.83-1-1.31-1.47-2,0-.06-.16-.06-.24-.09s-.18,0-.21-.07c-.17-.27-.39-.26-.68-.21s-.63.25-.66.71c0,.08,0,.21,0,.22-.28.08-.28.34-.31.53-.08.44-.4.86-.19,1.35a5.4,5.4,0,0,1,.21.68,1.56,1.56,0,0,0,.15.53,1.57,1.57,0,0,1,.35.88.45.45,0,0,0,.09.26c.38.4.17,1.14.79,1.41,0,0,0,0,0,.06.16.82.93,1.22,1.29,1.91,0,.07.15.09.23.15a1.28,1.28,0,0,1,.3.23c.21.27.44.2.67,0A1.22,1.22,0,0,0,31.38,61Z"/><path class="cls-2" d="M30.83,50.49c.34-.18.43.11.57.28,0,0-.1.15-.13.15C31,50.88,30.83,50.8,30.83,50.49Z"/></svg>