<?xml version="1.0" encoding="utf-8"?>
<!-- Generator: Adobe Illustrator 21.1.0, SVG Export Plug-In . SVG Version: 6.00 Build 0)  -->
<svg version="1.1" id="Layer_1" xmlns="http://www.w3.org/2000/svg" xmlns:xlink="http://www.w3.org/1999/xlink" x="0px" y="0px"
	 viewBox="0 0 47 47" style="enable-background:new 0 0 47 47;" xml:space="preserve">
<style type="text/css">
	.st0{fill:#A7A9AC;}
</style>
<g>
	<g>
		<g>
			<g>
				<path class="st0" d="M23.5,0C10.5,0,0,10.5,0,23.5C0,36.5,10.5,47,23.5,47C36.5,47,47,36.5,47,23.5C47,10.5,36.5,0,23.5,0z
					 M25.4,37v4.4h-4.1v-4.1c-3-0.1-5.8-0.9-7.4-1.9l1.3-5.1c1.8,1,4.4,1.9,7.2,1.9c2.5,0,4.2-1,4.2-2.7c0-1.6-1.4-2.7-4.6-3.8
					c-4.6-1.6-7.8-3.7-7.8-7.9c0-3.8,2.7-6.8,7.3-7.7V5.9h4.3v3.8c2.8,0.1,4.8,0.7,6.3,1.4l-1.3,4.9c-1.1-0.5-3.1-1.5-6.3-1.5
					c-2.8,0-3.7,1.2-3.7,2.4c0,1.4,1.5,2.3,5.2,3.7c5.2,1.8,7.2,4.2,7.2,8.1C33.2,32.8,30.4,36.1,25.4,37z"/>
			</g>
		</g>
	</g>
</g>
</svg>
