<?xml version="1.0" encoding="utf-8"?>
<!-- Generator: Adobe Illustrator 21.0.0, SVG Export Plug-In . SVG Version: 6.00 Build 0)  -->
<svg version="1.1" id="Layer_1" xmlns="http://www.w3.org/2000/svg" xmlns:xlink="http://www.w3.org/1999/xlink" x="0px" y="0px"
	 viewBox="0 0 35.4 42.8" style="enable-background:new 0 0 35.4 42.8;" xml:space="preserve">
<style type="text/css">
	.st0{fill:#00B2A9;}
	.st1{fill:#FFFFFF;}
	.st2{fill:#963CBD;}
	.st3{fill:#ED8B00;}
	.st4{fill:#2C3E50;}
	.st5{fill:none;stroke:#0373BB;stroke-miterlimit:10;}
	.st6{fill:#8E99A8;}
	.st7{fill:#00B1A8;}
	.st8{fill:#001871;}
	.st9{fill:#418FDE;}
	.st10{fill:#FFB40F;}
	.st11{opacity:0.85;}
	.st12{fill:none;stroke:#6D6E71;stroke-linecap:round;stroke-linejoin:round;}
	.st13{fill:#0373BB;}
	.st14{fill:#919396;}
	.st15{fill:#0373B9;}
	.st16{fill:#A7A9AC;}
	.st17{fill:#F4F4F4;}
	.st18{opacity:0.1;clip-path:url(#SVGID_2_);}
	.st19{fill:#606060;}
</style>
<g>
	<g>
		<g>
			<g>
				<polygon class="st16" points="35.4,25.6 35.4,25.6 35.4,25.6 				"/>
			</g>
			<g>
				<polygon class="st16" points="31.4,26.6 31.4,26.6 31.4,26.6 				"/>
			</g>
		</g>
		<g>
			<g>
				<g>
					<path class="st16" d="M19.2,28.1c0.2-0.4-0.1-0.5-0.5-0.6c-0.8-0.2-1.4-0.7-1.8-1.4c-0.1-0.2-0.2-0.2-0.4-0.1
						c-0.8,0.4-1.7,0.4-2.5,0c-0.2-0.1-0.3-0.1-0.4,0.1c-0.5,0.8-1.2,1.4-2.1,1.5c-0.2,0-0.2,0.1-0.2,0.3c0.1,1-0.1,1.8-0.8,2.5
						c-0.1,0.1-0.1,0.2,0,0.4c0.7,0.7,1,1.5,0.8,2.5c0,0.2,0,0.2,0.2,0.3c1,0.2,1.7,0.7,2.1,1.5c0.1,0.2,0.2,0.2,0.4,0.1
						c0.8-0.4,1.7-0.4,2.6,0c0.2,0.1,0.3,0.1,0.4-0.1c0.4-0.8,1.1-1.3,2-1.5c0.2,0,0.3-0.1,0.3-0.4c-0.1-0.9,0.2-1.7,0.8-2.4
						c0.2-0.2,0.2-0.3,0-0.4C19.5,29.7,19.2,29,19.2,28.1z M15.2,34.1c-1.9,0-3.4-1.6-3.4-3.5c0-1.9,1.6-3.4,3.5-3.4
						c1.9,0,3.4,1.6,3.4,3.5C18.7,32.6,17.1,34.2,15.2,34.1z"/>
				</g>
				<g>
					<path class="st16" d="M30.1,19.1c0-5.2,0-10.4,0-15.5c0-2.2-1.3-3.5-3.5-3.5c-3.4,0-6.7,0-10.1,0C12.2,0,8,0,3.7,0
						C1.9,0,0,1.3,0,3.7C0,14,0,28.7,0,39c0,2.1,1.7,3.8,3.8,3.8c2,0,4,0,6,0l10.4,0c2.1,0,4.3,0,6.4,0c0.2,0,0.4,0,0.6,0
						c1.6-0.3,2.8-1.8,2.8-3.6C30.1,33.9,30.1,24.3,30.1,19.1z M26.7,7.4c-0.2,0-0.4,0-0.5,0c-7.4,0-14.9,0-22.3,0
						c-0.2,0-0.4,0-0.5,0C3.1,7.3,2.9,7.1,3,6.9c0-0.2,0.1-0.4,0.4-0.4c0.2,0,0.4,0,0.5,0c3.7,0,7.5,0,11.2,0c3.7,0,7.4,0,11.1,0
						c0.2,0,0.3,0,0.5,0c0.3,0,0.4,0.2,0.4,0.4C27.1,7.1,26.9,7.3,26.7,7.4z M27.1,10.4c0,0.3-0.1,0.4-0.4,0.5c-0.2,0-0.3,0-0.5,0
						c-7.4,0-14.8,0-22.2,0c-0.2,0-0.3,0-0.5,0c-0.3,0-0.6-0.1-0.6-0.5C3,10.2,3.2,10,3.5,10c0.1,0,0.2,0,0.4,0c3.7,0,7.4,0,11.1,0
						s7.4,0,11.1,0c0.2,0,0.3,0,0.5,0C26.9,10,27,10.2,27.1,10.4z M3,3.3C3.1,3,3.3,3,3.6,3C5.8,3,8,3,10.2,3c1.6,0,3.2,0,4.8,0
						c3.7,0,7.4,0,11.1,0c0.2,0,0.3,0,0.5,0c0.3,0,0.4,0.2,0.4,0.4c0,0.3-0.1,0.4-0.4,0.5c-0.1,0-0.3,0-0.4,0c-7.5,0-15,0-22.5,0
						C3.5,3.9,3.2,3.9,3,3.7C2.9,3.5,2.9,3.4,3,3.3z M3.4,13.5c0.2,0,0.3,0,0.5,0c7.4,0,14.8,0,22.2,0c0.2,0,0.3,0,0.5,0
						c0.3,0,0.5,0.1,0.5,0.4c0,0.3-0.2,0.4-0.5,0.5c-0.2,0-0.4,0-0.6,0c-3.7,0-7.3,0-11,0c-3.7,0-7.4,0-11.1,0c-0.2,0-0.4,0-0.6,0
						c-0.3,0-0.4-0.2-0.4-0.5C3,13.7,3.1,13.6,3.4,13.5z M3.5,17c0.2,0,0.4,0,0.7,0c3.6,0,7.2,0,10.8,0c3.7,0,7.4,0,11.1,0
						c0.2,0,0.3,0,0.5,0c0.3,0,0.4,0.2,0.4,0.4c0,0.3-0.1,0.4-0.4,0.5c-0.2,0-0.4,0-0.5,0c-7.4,0-14.8,0-22.2,0c-0.1,0-0.3,0-0.4,0
						c-0.3,0-0.5-0.2-0.5-0.4C3,17.2,3.2,17,3.5,17z M18.7,40.7c-1-0.5-2-1.1-3-1.6c-0.2-0.1-0.4-0.1-0.6,0c-1,0.5-2.1,1.1-3.1,1.6
						c-0.1,0.1-0.2,0.2-0.4,0.1c0-1.6,0-3.3,0-5c1,1.2,0.6,2.6,0.7,3.9c0.6-0.3,1.1-0.6,1.7-0.8c0.5-0.2,1-0.7,1.5-0.7
						c0.5,0,1,0.5,1.5,0.7c0.4,0.2,0.7,0.4,1.1,0.6c0.4,0.2,0.4,0.2,0.4-0.3c0-0.6,0-1.3,0-1.9c0-0.6,0.4-1,0.6-1.6
						c0.1,0.1,0.1,0.2,0.1,0.2c0,1.5,0,3.1,0,4.6C19,40.8,18.9,40.8,18.7,40.7z M21.7,31.2c-0.2,0.2-0.3,0.3-0.5,0.4
						c-0.6,0.5-0.7,1-0.6,1.7c0.1,0.2,0.1,0.5,0.2,0.7c0.1,0.5-0.1,0.8-0.6,0.9c-0.2,0-0.5,0-0.7,0.1c-0.7,0.1-1.1,0.4-1.4,1
						c-0.1,0.2-0.2,0.4-0.3,0.6c-0.3,0.5-0.7,0.7-1.2,0.4c0,0-0.1,0-0.1-0.1c-0.9-0.7-1.7-0.6-2.6,0c-0.6,0.4-1,0.3-1.3-0.4
						c-0.1-0.2-0.1-0.3-0.2-0.5c-0.3-0.7-0.8-1-1.5-1.1c-1.3-0.1-1.4-0.3-1.1-1.5c0.2-0.8,0-1.5-0.7-2c-0.1-0.1-0.3-0.2-0.4-0.3
						c-0.4-0.4-0.4-0.8,0-1.1C8.8,30,8.9,29.9,9,29.8c0.8-0.6,1-1.3,0.8-2.3c-0.3-0.9,0-1.2,0.9-1.3c0.9,0,1.6-0.4,1.9-1.3
						c0-0.1,0.1-0.3,0.2-0.4c0.2-0.4,0.6-0.6,1.1-0.3c0.2,0.1,0.4,0.2,0.6,0.3c0.6,0.4,1.2,0.4,1.8,0c0.2-0.1,0.4-0.3,0.6-0.4
						c0.4-0.2,0.8-0.1,0.9,0.3c0.1,0.2,0.2,0.4,0.3,0.6c0.3,0.7,0.8,1.1,1.5,1.1c0.2,0,0.4,0,0.7,0c0.4,0.1,0.7,0.3,0.7,0.8
						c0,0.2-0.1,0.5-0.2,0.8c-0.2,0.7,0,1.3,0.6,1.8c0.1,0.1,0.3,0.2,0.4,0.4C22.1,30.4,22.1,30.8,21.7,31.2z M26.8,21.4
						c-0.2,0-0.4,0-0.5,0c-7.5,0-15,0-22.5,0c-0.4,0-0.8,0-0.8-0.4c0-0.5,0.4-0.5,0.8-0.5c3.8,0,7.6,0,11.3,0c3.7,0,7.4,0,11.1,0
						c0.2,0,0.4,0,0.5,0c0.2,0,0.4,0.2,0.4,0.4C27.1,21.1,27,21.3,26.8,21.4z"/>
				</g>
			</g>
		</g>
	</g>
</g>
</svg>
