<svg id="Layer_1" data-name="Layer 1" xmlns="http://www.w3.org/2000/svg" viewBox="0 0 15.22 15.24"><defs><style>.cls-1{fill:#2c3e50;}</style></defs><title>Untitled-9</title><path class="cls-1" d="M7.63,0A7.59,7.59,0,0,0,0,7.63a7.71,7.71,0,0,0,7.22,7.61A7.62,7.62,0,1,0,7.63,0Zm0,14A6.34,6.34,0,1,1,14,7.61,6.33,6.33,0,0,1,7.63,14Z"/><path class="cls-1" d="M10.27,9.65c-.58-.66-1.16-1.33-1.76-2A.9.9,0,0,1,8.26,7c0-.62,0-1.23,0-1.85h0c0-.32,0-.64,0-1s0-.74,0-1.11a.62.62,0,0,0-.64-.63A.63.63,0,0,0,7,3.09a2.24,2.24,0,0,0,0,.27C7,4.69,7,6,7,7.36a1.11,1.11,0,0,0,.31.84c.28.29.54.62.81.92.49.56,1,1.12,1.49,1.66a.65.65,0,0,0,.9.06.68.68,0,0,0,0-.88A3.31,3.31,0,0,0,10.27,9.65Z"/></svg>