<?xml version="1.0" encoding="utf-8"?>
<!-- Generator: Adobe Illustrator 21.0.0, SVG Export Plug-In . SVG Version: 6.00 Build 0)  -->
<svg version="1.1" id="Layer_1" xmlns="http://www.w3.org/2000/svg" xmlns:xlink="http://www.w3.org/1999/xlink" x="0px" y="0px"
	 viewBox="0 0 76.5 62.7" style="enable-background:new 0 0 76.5 62.7;" xml:space="preserve">
<style type="text/css">
	.st0{fill:#00B2A9;}
	.st1{fill:#FFFFFF;}
	.st2{fill:#963CBD;}
	.st3{fill:#ED8B00;}
	.st4{fill:#2C3E50;}
	.st5{fill:none;stroke:#0373BB;stroke-miterlimit:10;}
	.st6{fill:#8E99A8;}
	.st7{fill:#00B1A8;}
	.st8{fill:#001871;}
	.st9{fill:#418FDE;}
	.st10{fill:#FFB40F;}
	.st11{opacity:0.85;}
	.st12{fill:none;stroke:#6D6E71;stroke-linecap:round;stroke-linejoin:round;}
	.st13{fill:#0373BB;}
	.st14{fill:#919396;}
	.st15{fill:#0373B9;}
	.st16{fill:#A7A9AC;}
	.st17{fill:#F4F4F4;}
	.st18{opacity:0.1;clip-path:url(#SVGID_2_);}
	.st19{fill:#606060;}
</style>
<g>
	<g>
		<g>
			<g>
				<g>
					<g>
						<g>
							<path class="st14" d="M76.5,7.3c0,15.8,0,31.7,0,47.5c-10.6,0-21.2,0-31.9,0c0,1.5,0,3,0,4.4c0,0.1,0.3,0.3,0.5,0.3
								c1.2,0,2.4,0,3.7,0c0.7,0,1.4,0,2.1,0c0,1.1,0,2.1,0,3.1c-8.5,0-16.9,0-25.3,0c0-1,0-2.1,0-3.1c0.3,0,0.5,0,0.7,0
								c1.6,0,3.3,0,4.9,0c0.6,0,0.7-0.2,0.7-0.7c0-1,0-2,0-3.1c0-0.3,0-0.6,0-1c-10.7,0-21.3,0-31.9,0C0,39,0,23.1,0,7.3
								c1.3,0,2.5,0,3.8,0c0.5,0,0.6-0.2,0.6-0.6c0-2,0-3.9,0-5.9c0-0.2,0-0.5,0-0.7c0.2,0,0.3,0,0.4,0.1c3.9,0.8,7.8,1.6,11.7,2.5
								c6.1,1.3,12.2,2.6,18.3,3.9c1.8,0.4,3.6,1,5.5,0.3c0.4-0.2,0.8-0.2,1.2-0.3C46.8,5.4,51.9,4.3,57,3.2
								c4.1-0.9,8.2-1.7,12.2-2.6c0.9-0.2,1.9-0.4,2.9-0.6c0,0.3,0,0.5,0,0.7c0,2,0,3.9,0,5.9c0,0.5,0.1,0.6,0.6,0.6
								C74,7.2,75.2,7.3,76.5,7.3z M11.1,22.9c0-0.1,0.1-0.1,0.1-0.2c2,0,4.1,0,6.1,0c0.5,0,0.6-0.1,0.6-0.6c0-5.2,0-10.3,0-15.5
								c0-0.4-0.1-0.6-0.5-0.7c-2.3-0.5-4.6-1-6.9-1.5C9.5,4.3,8.6,4.1,7.5,3.9c0,0.4,0,0.7,0,1c0,13.1,0,26.1,0,39.2c0,1,0,1,1,1.2
								c4.6,1,9.2,1.9,13.8,2.9c4.6,1,9.1,2,13.7,2.9c0.2,0,0.4,0,0.6,0.1c0-0.3,0-0.6,0-0.9c0-13.1,0-26.2,0-39.3
								c0-0.2,0-0.3,0-0.5c0-0.4-0.2-0.5-0.5-0.6c-2.3-0.5-4.5-1-6.8-1.4c-1-0.2-2-0.4-3-0.6c0,5,0,9.9,0,14.9c2.3,0,4.5,0,6.9,0
								C29.5,27,25.8,31,22.1,35.1C18.4,31,14.8,27,11.1,22.9z M69,3.9C68.6,4,68.3,4,68.1,4.1c-4,0.8-8,1.7-11.9,2.5
								c-5.2,1.1-10.4,2.2-15.6,3.3c-0.5,0.1-0.7,0.3-0.7,0.8c0,13.3,0,26.5,0,39.8c0,0.2,0,0.4,0,0.7c3-0.6,6-1.3,8.9-1.9
								c6.5-1.4,13-2.8,19.5-4.2c0.5-0.1,0.7-0.3,0.7-0.8c0-13.2,0-26.4,0-39.6C69,4.5,69,4.3,69,3.9z"/>
							<path class="st14" d="M64.5,10.4c0.3,1,0.6,1.9,1,3c-6.9,2.3-13.8,4.6-20.8,6.9c-0.3-1-0.7-2-1-3
								C50.6,15,57.5,12.7,64.5,10.4z"/>
							<path class="st14" d="M44.7,28.8c-0.3-1-0.7-2-1-3c6.9-2.3,13.9-4.6,20.9-6.9c0.3,1,0.6,2,1,3C58.6,24.2,51.7,26.5,44.7,28.8
								z"/>
							<path class="st14" d="M43.7,42.8c7-2.3,13.9-4.6,20.8-6.9c0.3,1,0.6,1.9,1,3c-6.9,2.3-13.8,4.6-20.8,6.9
								C44.3,44.8,44,43.8,43.7,42.8z"/>
							<path class="st14" d="M44.7,37.3c-0.3-1-0.6-2-1-3c6.9-2.3,13.9-4.6,20.8-6.9c0.3,1,0.6,1.9,1,3C58.6,32.7,51.7,35,44.7,37.3
								z"/>
						</g>
					</g>
				</g>
			</g>
		</g>
	</g>
</g>
</svg>
