<?xml version="1.0" encoding="utf-8"?>
<!-- Generator: Adobe Illustrator 21.0.0, SVG Export Plug-In . SVG Version: 6.00 Build 0)  -->
<svg version="1.1" id="Layer_1" xmlns="http://www.w3.org/2000/svg" xmlns:xlink="http://www.w3.org/1999/xlink" x="0px" y="0px"
	 viewBox="0 0 47 42.8" style="enable-background:new 0 0 47 42.8;" xml:space="preserve">
<style type="text/css">
	.st0{fill:#00B2A9;}
	.st1{fill:#FFFFFF;}
	.st2{fill:#963CBD;}
	.st3{fill:#ED8B00;}
	.st4{fill:#2C3E50;}
	.st5{fill:none;stroke:#0373BB;stroke-miterlimit:10;}
	.st6{fill:#8E99A8;}
	.st7{fill:#00B1A8;}
	.st8{fill:#001871;}
	.st9{fill:#418FDE;}
	.st10{fill:#FFB40F;}
	.st11{opacity:0.85;}
	.st12{fill:none;stroke:#6D6E71;stroke-linecap:round;stroke-linejoin:round;}
	.st13{fill:#0373BB;}
	.st14{fill:#919396;}
	.st15{fill:#0373B9;}
	.st16{fill:#A7A9AC;}
	.st17{fill:#F4F4F4;}
	.st18{opacity:0.1;clip-path:url(#SVGID_2_);}
	.st19{fill:#606060;}
</style>
<g>
	<g>
		<g>
			<g>
				<g>
					<path class="st16" d="M39.7,28c-0.7,0.9-1.4,1.9-1.8,3.1H9c-0.4-1.2-1.1-2.2-1.9-3.1H4.3c-1.2,0-2.4-0.3-3.4-1H0v3
						c0,1.3,0.9,2.7,1.6,3.3c0.6,0.5,1.7,1,2.8,1h38.3c2.4,0,4.3-1.9,4.3-4.3v-3.7c-1.1,1-2.7,1.7-4.3,1.7L39.7,28L39.7,28z"/>
				</g>
				<g>
					<path class="st16" d="M42.7,0H4.3C2,0,0,1.9,0,4.3v17.2c0,1.3,0.9,2.8,1.6,3.4c0.6,0.5,1.7,1,2.8,1h38.3c2.4,0,4.3-1.9,4.3-4.3
						V4.3C47,1.9,45,0,42.7,0z M43.8,16.6c-2.5,0.9-4.8,3-5.8,5.9H9c-1.1-2.8-3.4-4.9-5.8-5.9V9.1C5.7,8.2,7.9,6.1,9,3.2h29
						c1,3.1,3.2,5.1,5.8,6L43.8,16.6L43.8,16.6z"/>
				</g>
				<g>
					<path class="st16" d="M23.5,5.3c-4.2,0-7.6,3.4-7.6,7.6c0,4.2,3.4,7.6,7.6,7.6c4.2,0,7.6-3.4,7.6-7.6
						C31.1,8.7,27.7,5.3,23.5,5.3z M24.1,17.2v1.4h-1.3v-1.3c-1,0-1.9-0.3-2.4-0.6l0.4-1.6c0.6,0.3,1.4,0.6,2.3,0.6
						c0.8,0,1.4-0.3,1.4-0.9c0-0.5-0.5-0.9-1.5-1.2c-1.5-0.5-2.5-1.2-2.5-2.6c0-1.2,0.9-2.2,2.4-2.5V7.2h1.4v1.2
						c0.9,0,1.6,0.2,2,0.5l-0.4,1.6c-0.4-0.2-1-0.5-2-0.5c-0.9,0-1.2,0.4-1.2,0.8c0,0.5,0.5,0.8,1.7,1.2c1.7,0.6,2.3,1.4,2.3,2.6
						C26.6,15.9,25.7,17,24.1,17.2z"/>
				</g>
				<g>
					<path class="st16" d="M39.7,36.4c-0.7,0.9-1.4,1.9-1.8,3.1H9c-0.4-1.2-1.1-2.2-1.9-3.1H4.3c-1.2,0-2.4-0.3-3.4-1H0v3
						c0,1.3,0.9,2.7,1.6,3.3c0.6,0.5,1.7,1,2.8,1h38.3c2.4,0,4.3-1.9,4.3-4.3v-3.7c-1.1,1-2.7,1.7-4.3,1.7L39.7,36.4L39.7,36.4z"/>
				</g>
			</g>
		</g>
	</g>
</g>
</svg>
