<?xml version="1.0" encoding="utf-8"?>
<!-- Generator: Adobe Illustrator 21.0.0, SVG Export Plug-In . SVG Version: 6.00 Build 0)  -->
<svg version="1.1" id="Layer_1" xmlns="http://www.w3.org/2000/svg" xmlns:xlink="http://www.w3.org/1999/xlink" x="0px" y="0px"
	 viewBox="0 0 48.3 63.3" style="enable-background:new 0 0 48.3 63.3;" xml:space="preserve">
<style type="text/css">
	.st0{fill:#00B2A9;}
	.st1{fill:#FFFFFF;}
	.st2{fill:#963CBD;}
	.st3{fill:#ED8B00;}
	.st4{fill:#2C3E50;}
	.st5{fill:none;stroke:#0373BB;stroke-miterlimit:10;}
	.st6{fill:#8E99A8;}
	.st7{fill:#00B1A8;}
	.st8{fill:#001871;}
	.st9{fill:#418FDE;}
	.st10{fill:#FFB40F;}
	.st11{opacity:0.85;}
	.st12{fill:none;stroke:#6D6E71;stroke-linecap:round;stroke-linejoin:round;}
	.st13{fill:#0373BB;}
	.st14{fill:#919396;}
	.st15{fill:#0373B9;}
	.st16{fill:#A7A9AC;}
	.st17{fill:#F4F4F4;}
	.st18{opacity:0.1;clip-path:url(#SVGID_2_);}
	.st19{fill:#606060;}
</style>
<g>
	<path class="st15" d="M48.3,0c0,27.6,0,35.6,0,63.3c-16.1,0-32.2,0-48.3,0C0,35.7,0,27.7,0,0C16,0,32.1,0,48.3,0z M3.5,3.4
		c0,25.4,0,31.1,0,56.3c13.9,0,27.6,0,41.3,0c0-25.4,0-31,0-56.3C31,3.4,17.3,3.4,3.5,3.4z"/>
	<path class="st15" d="M27,19.9c-2.5,2.2-4.8,4.4-7.4,6.7c2.3,2.1,4.3,4,6.2,5.8c-2.6,3-8.3,2.6-11.3-0.5c-3.3-3.4-3.4-8.7-0.1-12.1
		C17.6,16.3,22.9,16.2,27,19.9z"/>
	<path class="st15" d="M39.7,39.8c0,1.1,0,2.1,0,3.2c-10.3,0-20.6,0-31,0c0-1.1,0-2,0-3.2C18.9,39.8,29.1,39.8,39.7,39.8z"/>
	<path class="st15" d="M35.3,8.6c0,1.1,0,2.1,0,3.2c-8,0-16,0-24.1,0c0-1.1,0-2.1,0-3.2C19.2,8.6,27.2,8.6,35.3,8.6z"/>
	<path class="st15" d="M30.9,32.6c-1.9-1.9-3.9-3.8-5.8-5.8c2.4-2.2,4.8-4.4,7.2-6.7C35.6,22.2,35.3,30.2,30.9,32.6z"/>
	<path class="st15" d="M8.6,55c0-2.3,0-4.3,0-6.6c2.2,0,4.4,0,6.7,0c0,2.2,0,4.3,0,6.6C13.1,55,10.8,55,8.6,55z"/>
	<path class="st15" d="M27.5,48.4c0,2.2,0,4.3,0,6.7c-2.2,0-4.3,0-6.7,0c0-2.2,0-4.3,0-6.7C23,48.4,25.2,48.4,27.5,48.4z"/>
	<path class="st15" d="M32.9,48.4c2.3,0,4.4,0,6.7,0c0,2.2,0,4.4,0,6.7c-2.2,0-4.3,0-6.7,0C32.9,52.9,32.9,50.7,32.9,48.4z"/>
</g>
</svg>
