<?xml version="1.0" encoding="utf-8"?>
<!-- Generator: Adobe Illustrator 21.0.0, SVG Export Plug-In . SVG Version: 6.00 Build 0)  -->
<svg version="1.1" id="Layer_1" xmlns="http://www.w3.org/2000/svg" xmlns:xlink="http://www.w3.org/1999/xlink" x="0px" y="0px"
	 viewBox="0 0 54.9 46.6" style="enable-background:new 0 0 54.9 46.6;" xml:space="preserve">
<style type="text/css">
	.st0{fill:#00B2A9;}
	.st1{fill:#FFFFFF;}
	.st2{fill:#963CBD;}
	.st3{fill:#ED8B00;}
	.st4{fill:#2C3E50;}
	.st5{fill:none;stroke:#0373BB;stroke-miterlimit:10;}
	.st6{fill:#8E99A8;}
	.st7{fill:#00B1A8;}
	.st8{fill:#001871;}
	.st9{fill:#418FDE;}
	.st10{fill:#FFB40F;}
	.st11{opacity:0.85;}
	.st12{fill:none;stroke:#6D6E71;stroke-linecap:round;stroke-linejoin:round;}
	.st13{fill:#0373BB;}
	.st14{fill:#919396;}
	.st15{fill:#0373B9;}
	.st16{fill:#A7A9AC;}
	.st17{fill:#F4F4F4;}
	.st18{opacity:0.1;clip-path:url(#SVGID_2_);}
	.st19{fill:#606060;}
</style>
<g>
	<path class="st14" d="M27.4,0c7.5,0,15,0,22.5,0c3.2,0,5,2,5,4.9c-0.1,12.2-0.1,24.4,0,36.6c0,2.8-1.6,5.1-5,5.1
		c-10.4,0-20.7,0-31.1,0c-4.6,0-9.2,0-13.8,0c-3.3,0-5-1.6-5-4.9C0,29.3,0.1,17,0,4.7C0,2.2,1.7,0,4.7,0C12.3,0,19.9,0,27.4,0z
		 M4.1,42.3c0.6,0,1.1,0,1.5,0c14.5,0,29,0,43.5,0c1.8,0,1.8,0,1.8-1.8c0-11.6,0-23.3,0-34.9c0-0.9-0.2-1.3-1.3-1.3
		c-14.7,0-29.5,0-44.2,0c-1,0-1.3,0.3-1.3,1.3c0,10.1,0,20.2,0,30.3C4.1,37.9,4.1,40.1,4.1,42.3z"/>
	<path class="st14" d="M21.1,23.3c0-2.4,0.1-4.9,0-7.3c-0.1-2,1.3-2.7,2.9-1.8c4.1,2.5,8.3,4.9,12.5,7.3c2.1,1.2,2.1,2.3,0,3.5
		c-4.2,2.4-8.4,4.9-12.6,7.3c-1.7,1-2.8,0.3-2.8-1.6C21.1,28.3,21.1,25.8,21.1,23.3C21.1,23.3,21.1,23.3,21.1,23.3z"/>
</g>
</svg>
