<?xml version="1.0" encoding="utf-8"?>
<!-- Generator: Adobe Illustrator 21.0.0, SVG Export Plug-In . SVG Version: 6.00 Build 0)  -->
<svg version="1.1" id="Layer_1" xmlns="http://www.w3.org/2000/svg" xmlns:xlink="http://www.w3.org/1999/xlink" x="0px" y="0px"
	 viewBox="0 0 43 43" style="enable-background:new 0 0 43 43;" xml:space="preserve">
<style type="text/css">
	.st0{fill:#F6921E;}
	.st1{fill:#2478AA;}
	.st2{fill:#8E99A8;}
	.st3{fill:#FEFEFE;}
</style>
<g id="Google_x2B__8_">
	<path class="st2" d="M21.5,0C9.6,0,0,9.6,0,21.5C0,33.4,9.6,43,21.5,43C33.4,43,43,33.4,43,21.5C43,9.6,33.4,0,21.5,0z M17.3,29
		c-4,0-7.3-3.3-7.3-7.4c0-4,3.3-7.3,7.3-7.3c1.9,0,3.6,0.7,4.9,1.9c-1.5,1.4-1.5,1.5-2.1,2.1c-0.7-0.6-1.6-1.1-2.8-1.1
		c-2.4,0-4.2,1.9-4.2,4.3c0,2.4,1.9,4.5,4.2,4.5c2.4,0,3.3-1,3.9-2.7c-1.1,0-3.8,0-3.8,0v-2.8h6.9C24.8,23.9,23.3,29,17.3,29z
		 M32.7,22.2h-2.3V25h-1.7v-2.8h-2.8v-1.7h2.8v-2.3h1.7v2.3h2.3V22.2z"/>
</g>
</svg>
