<?xml version="1.0" encoding="utf-8"?>
<!-- Generator: Adobe Illustrator 21.0.0, SVG Export Plug-In . SVG Version: 6.00 Build 0)  -->
<svg version="1.1" id="Layer_1" xmlns="http://www.w3.org/2000/svg" xmlns:xlink="http://www.w3.org/1999/xlink" x="0px" y="0px"
	 viewBox="0 0 43 43" style="enable-background:new 0 0 43 43;" xml:space="preserve">
<style type="text/css">
	.st0{fill:#F6921E;}
	.st1{fill:#2478AA;}
	.st2{fill:#8E99A8;}
	.st3{fill:#FEFEFE;}
</style>
<g>
	<g>
		<path class="st0" d="M-102.7-219.2c2.4,1.7,3.9,4.1,4.5,7.1l-5.5,1.1c-0.3-1.8-1.2-3.3-2.6-4.4c-1.4-1.1-3.2-1.7-5.2-1.7
			c-2,0-3.6,0.5-4.9,1.5s-1.8,2.2-1.8,3.8c0,1.2,0.3,2.1,1,2.8c0.7,0.7,1.8,1.2,3.3,1.5l7.4,1.6c5.9,1.3,8.8,4.4,8.8,9.4
			c0,3.2-1.2,5.8-3.6,7.6c-2.4,1.9-5.6,2.8-9.5,2.8c-3.8,0-7-0.9-9.6-2.7c-2.6-1.8-4.1-4.3-4.6-7.5l5.8-1.2c0.4,2.1,1.4,3.8,3,4.9
			c1.6,1.1,3.5,1.7,5.9,1.7c2.3,0,4-0.5,5.3-1.5s1.9-2.3,1.9-3.9c0-1.3-0.4-2.3-1.1-3c-0.7-0.7-2-1.2-3.7-1.6l-7.5-1.5
			c-5.8-1.3-8.6-4.4-8.6-9.3c0-3,1.2-5.5,3.5-7.3c2.3-1.9,5.3-2.8,9.1-2.8C-108-221.8-105.1-220.9-102.7-219.2z"/>
		<path class="st0" d="M-67.9-186.8h-5.3v-3.1c-2.1,2.6-5.1,3.8-8.7,3.8c-3.1,0-5.5-1-7.4-3c-1.9-2-2.8-4.6-2.8-7.8v-15.3h5.3v14.2
			c0,2.1,0.6,3.8,1.7,5c1.1,1.3,2.6,1.9,4.4,1.9c2.4,0,4.2-0.8,5.5-2.4c1.3-1.6,2-4,2-7.1v-11.7h5.3V-186.8z"/>
		<path class="st0" d="M-38.3-209.9c1.9,2,2.8,4.6,2.8,7.8v15.4h-5.4v-14.3c0-2.1-0.6-3.8-1.7-5c-1.1-1.3-2.6-1.9-4.4-1.9
			c-2.4,0-4.2,0.8-5.6,2.4c-1.3,1.6-2,4-2,7.1v11.7h-5.3v-25.4h5.3v3.1c2.1-2.6,5.1-3.8,8.8-3.8C-42.7-212.9-40.2-211.9-38.3-209.9z
			"/>
		<path class="st0" d="M-5.4-186.8l-12.2-13.7h-5v13.7h-5.5v-34.3H-12c3.5,0,6.4,0.9,8.5,2.8c2.2,1.9,3.2,4.4,3.2,7.5
			c0,2.9-1,5.3-2.9,7.2c-2,1.9-4.6,2.9-7.9,3l12.4,13.7H-5.4z M-12-205.4c1.9,0,3.4-0.5,4.6-1.5c1.2-1,1.7-2.3,1.7-3.9
			c0-1.6-0.6-2.9-1.7-3.9c-1.2-1-2.7-1.5-4.6-1.5h-10.6v10.7H-12z"/>
		<path class="st0" d="M30.3-186.8H25v-2.9c-2.3,2.4-5.4,3.6-9.2,3.6c-3.4,0-6.4-1.3-8.9-3.8c-2.5-2.5-3.7-5.7-3.7-9.6
			c0-3.9,1.2-7.1,3.7-9.6s5.4-3.8,8.9-3.8c3.8,0,6.9,1.2,9.2,3.6v-2.9h5.3V-186.8z M22.5-193.2c1.7-1.6,2.5-3.7,2.5-6.3
			c0-2.6-0.8-4.6-2.5-6.3c-1.7-1.6-3.6-2.4-5.8-2.4c-2.4,0-4.4,0.8-5.9,2.4c-1.6,1.6-2.4,3.7-2.4,6.3s0.8,4.7,2.4,6.3
			c1.6,1.6,3.5,2.4,5.9,2.4C18.8-190.8,20.8-191.6,22.5-193.2z"/>
		<path class="st0" d="M47.8-178.1h-5.9l4.1-9.3L35-212.2H41l7.9,18.3l8.1-18.3H63L47.8-178.1z"/>
	</g>
	<g>
		<path class="st1" d="M-115.1-171.7v2.6c-0.5-0.5-0.9-0.9-1.2-1.1c-0.4-0.2-0.8-0.3-1.3-0.3c-0.8,0-1.4,0.3-1.9,0.8
			c-0.5,0.5-0.7,1.2-0.7,1.9c0,0.8,0.2,1.5,0.7,2c0.5,0.5,1.1,0.8,1.9,0.8c0.5,0,0.9-0.1,1.3-0.3c0.4-0.2,0.8-0.6,1.3-1.2v2.6
			c-0.8,0.4-1.6,0.6-2.4,0.6c-1.3,0-2.5-0.4-3.4-1.3c-0.9-0.9-1.4-1.9-1.4-3.2c0-1.3,0.5-2.3,1.4-3.2c0.9-0.9,2-1.3,3.4-1.3
			C-116.6-172.3-115.8-172.1-115.1-171.7z"/>
		<path class="st1" d="M-113.5-167.8c0-1.2,0.4-2.3,1.3-3.1c0.9-0.9,2-1.3,3.3-1.3c1.3,0,2.4,0.4,3.3,1.3c0.9,0.9,1.3,1.9,1.3,3.2
			c0,1.3-0.4,2.3-1.3,3.2c-0.9,0.9-2,1.3-3.3,1.3c-1.3,0-2.4-0.4-3.3-1.3C-113.1-165.5-113.5-166.5-113.5-167.8z M-111.5-167.8
			c0,0.8,0.2,1.5,0.7,2c0.5,0.5,1.1,0.7,1.9,0.7c0.8,0,1.4-0.2,1.9-0.7c0.5-0.5,0.7-1.2,0.7-2c0-0.8-0.2-1.5-0.7-2
			c-0.5-0.5-1.1-0.7-1.9-0.7c-0.8,0-1.4,0.3-1.9,0.7C-111.2-169.2-111.5-168.6-111.5-167.8z"/>
		<path class="st1" d="M-102.2-172h2v0.8c0.7-0.7,1.5-1,2.4-1c1,0,1.8,0.3,2.4,0.9c0.5,0.5,0.7,1.4,0.7,2.6v5.2h-2v-4.7
			c0-0.8-0.1-1.4-0.4-1.7c-0.2-0.3-0.7-0.5-1.3-0.5c-0.7,0-1.1,0.2-1.4,0.6c-0.3,0.4-0.4,1.2-0.4,2.2v4.1h-2V-172z"/>
		<path class="st1" d="M-87.1-170.6l-1.7,0.9c-0.3-0.5-0.6-0.8-1-0.8c-0.2,0-0.3,0.1-0.5,0.2c-0.1,0.1-0.2,0.3-0.2,0.5
			c0,0.3,0.4,0.6,1.2,1c1.1,0.4,1.8,0.9,2.1,1.2c0.4,0.4,0.6,0.9,0.6,1.5c0,0.8-0.3,1.5-0.9,2.1c-0.6,0.5-1.3,0.8-2.2,0.8
			c-1.5,0-2.5-0.7-3.1-2.1l1.7-0.8c0.2,0.4,0.4,0.7,0.5,0.8c0.2,0.2,0.5,0.3,0.9,0.3c0.7,0,1-0.3,1-0.9c0-0.3-0.3-0.7-0.8-1
			c-0.2-0.1-0.4-0.2-0.6-0.3c-0.2-0.1-0.4-0.2-0.6-0.3c-0.6-0.3-1-0.6-1.2-0.8c-0.3-0.4-0.5-0.8-0.5-1.4c0-0.7,0.3-1.3,0.8-1.8
			c0.5-0.5,1.2-0.7,1.9-0.7C-88.5-172.3-87.7-171.7-87.1-170.6z"/>
		<path class="st1" d="M-82.7-170.2v6.7h-2v-6.7h-0.9v-1.8h0.9v-3.1h2v3.1h1.6v1.8H-82.7z"/>
		<path class="st1" d="M-79.8-172h2v0.8c0.4-0.4,0.7-0.6,1-0.8c0.3-0.1,0.6-0.2,1-0.2c0.5,0,1.1,0.2,1.7,0.5l-0.9,1.8
			c-0.4-0.3-0.8-0.4-1.1-0.4c-1.1,0-1.6,0.8-1.6,2.4v4.4h-2V-172z"/>
		<path class="st1" d="M-70.7-172v4.9c0,1.4,0.6,2.1,1.7,2.1c1.1,0,1.7-0.7,1.7-2.1v-4.9h2v4.9c0,0.7-0.1,1.3-0.3,1.8
			c-0.2,0.4-0.5,0.8-0.9,1.2c-0.7,0.6-1.5,0.9-2.6,0.9c-1,0-1.9-0.3-2.6-0.9c-0.4-0.4-0.7-0.8-0.9-1.2c-0.2-0.4-0.2-1-0.2-1.8v-4.9
			H-70.7z"/>
		<path class="st1" d="M-56.1-171.7v2.6c-0.5-0.5-0.9-0.9-1.2-1.1c-0.4-0.2-0.8-0.3-1.3-0.3c-0.8,0-1.4,0.3-1.9,0.8
			c-0.5,0.5-0.7,1.2-0.7,1.9c0,0.8,0.2,1.5,0.7,2c0.5,0.5,1.1,0.8,1.9,0.8c0.5,0,0.9-0.1,1.3-0.3c0.4-0.2,0.8-0.6,1.3-1.2v2.6
			c-0.8,0.4-1.6,0.6-2.4,0.6c-1.3,0-2.5-0.4-3.4-1.3c-0.9-0.9-1.4-1.9-1.4-3.2c0-1.3,0.5-2.3,1.4-3.2c0.9-0.9,2-1.3,3.4-1.3
			C-57.6-172.3-56.8-172.1-56.1-171.7z"/>
		<path class="st1" d="M-52-170.2v6.7h-2v-6.7h-0.9v-1.8h0.9v-3.1h2v3.1h1.6v1.8H-52z"/>
		<path class="st1" d="M-49.4-175.6c0-0.3,0.1-0.6,0.4-0.9c0.3-0.2,0.6-0.4,0.9-0.4c0.4,0,0.7,0.1,0.9,0.4c0.3,0.2,0.4,0.5,0.4,0.9
			c0,0.4-0.1,0.7-0.4,0.9c-0.2,0.3-0.6,0.4-0.9,0.4s-0.7-0.1-0.9-0.4C-49.3-174.9-49.4-175.2-49.4-175.6z M-47.1-172v8.5h-2v-8.5
			H-47.1z"/>
		<path class="st1" d="M-45-167.8c0-1.2,0.4-2.3,1.3-3.1s2-1.3,3.3-1.3c1.3,0,2.4,0.4,3.3,1.3c0.9,0.9,1.3,1.9,1.3,3.2
			c0,1.3-0.4,2.3-1.3,3.2c-0.9,0.9-2,1.3-3.3,1.3c-1.3,0-2.4-0.4-3.3-1.3C-44.6-165.5-45-166.5-45-167.8z M-43-167.8
			c0,0.8,0.2,1.5,0.7,2c0.5,0.5,1.1,0.7,1.9,0.7c0.8,0,1.4-0.2,1.9-0.7c0.5-0.5,0.7-1.2,0.7-2c0-0.8-0.2-1.5-0.7-2
			c-0.5-0.5-1.1-0.7-1.9-0.7c-0.8,0-1.4,0.3-1.9,0.7C-42.7-169.2-43-168.6-43-167.8z"/>
		<path class="st1" d="M-33.6-172h2v0.8c0.7-0.7,1.5-1,2.4-1c1,0,1.8,0.3,2.4,0.9c0.5,0.5,0.7,1.4,0.7,2.6v5.2h-2v-4.7
			c0-0.8-0.1-1.4-0.4-1.7c-0.2-0.3-0.7-0.5-1.3-0.5c-0.7,0-1.1,0.2-1.4,0.6c-0.3,0.4-0.4,1.2-0.4,2.2v4.1h-2V-172z"/>
		<path class="st1" d="M-13-170.6l-1.7,0.9c-0.3-0.5-0.6-0.8-1-0.8c-0.2,0-0.3,0.1-0.5,0.2c-0.1,0.1-0.2,0.3-0.2,0.5
			c0,0.3,0.4,0.6,1.2,1c1.1,0.4,1.8,0.9,2.1,1.2c0.4,0.4,0.6,0.9,0.6,1.5c0,0.8-0.3,1.5-0.9,2.1c-0.6,0.5-1.3,0.8-2.2,0.8
			c-1.5,0-2.5-0.7-3.1-2.1l1.7-0.8c0.2,0.4,0.4,0.7,0.5,0.8c0.2,0.2,0.5,0.3,0.9,0.3c0.7,0,1-0.3,1-0.9c0-0.3-0.3-0.7-0.8-1
			c-0.2-0.1-0.4-0.2-0.6-0.3c-0.2-0.1-0.4-0.2-0.6-0.3c-0.6-0.3-1-0.6-1.2-0.8c-0.3-0.4-0.5-0.8-0.5-1.4c0-0.7,0.3-1.3,0.8-1.8
			c0.5-0.5,1.2-0.7,1.9-0.7C-14.4-172.3-13.5-171.7-13-170.6z"/>
		<path class="st1" d="M-11.1-167.8c0-1.2,0.4-2.3,1.3-3.1s2-1.3,3.3-1.3c1.3,0,2.4,0.4,3.3,1.3c0.9,0.9,1.3,1.9,1.3,3.2
			c0,1.3-0.4,2.3-1.3,3.2c-0.9,0.9-2,1.3-3.3,1.3c-1.3,0-2.4-0.4-3.3-1.3C-10.6-165.5-11.1-166.5-11.1-167.8z M-9-167.8
			c0,0.8,0.2,1.5,0.7,2c0.5,0.5,1.1,0.7,1.9,0.7c0.8,0,1.4-0.2,1.9-0.7c0.5-0.5,0.7-1.2,0.7-2c0-0.8-0.2-1.5-0.7-2
			c-0.5-0.5-1.1-0.7-1.9-0.7c-0.8,0-1.4,0.3-1.9,0.7C-8.8-169.2-9-168.6-9-167.8z"/>
		<path class="st1" d="M2.3-178.3v14.7h-2v-14.7H2.3z"/>
		<path class="st1" d="M6.8-172v4.9c0,1.4,0.6,2.1,1.7,2.1s1.7-0.7,1.7-2.1v-4.9h2v4.9c0,0.7-0.1,1.3-0.3,1.8
			c-0.2,0.4-0.5,0.8-0.9,1.2c-0.7,0.6-1.5,0.9-2.6,0.9c-1,0-1.9-0.3-2.6-0.9c-0.4-0.4-0.7-0.8-0.9-1.2c-0.2-0.4-0.2-1-0.2-1.8v-4.9
			H6.8z"/>
		<path class="st1" d="M16.8-170.2v6.7h-2v-6.7H14v-1.8h0.9v-3.1h2v3.1h1.6v1.8H16.8z"/>
		<path class="st1" d="M19.4-175.6c0-0.3,0.1-0.6,0.4-0.9c0.3-0.2,0.6-0.4,0.9-0.4c0.4,0,0.7,0.1,0.9,0.4c0.3,0.2,0.4,0.5,0.4,0.9
			c0,0.4-0.1,0.7-0.4,0.9c-0.2,0.3-0.6,0.4-0.9,0.4s-0.7-0.1-0.9-0.4C19.6-174.9,19.4-175.2,19.4-175.6z M21.7-172v8.5h-2v-8.5H21.7
			z"/>
		<path class="st1" d="M23.9-167.8c0-1.2,0.4-2.3,1.3-3.1s2-1.3,3.3-1.3c1.3,0,2.4,0.4,3.3,1.3c0.9,0.9,1.3,1.9,1.3,3.2
			c0,1.3-0.4,2.3-1.3,3.2c-0.9,0.9-2,1.3-3.3,1.3c-1.3,0-2.4-0.4-3.3-1.3C24.3-165.5,23.9-166.5,23.9-167.8z M25.9-167.8
			c0,0.8,0.2,1.5,0.7,2c0.5,0.5,1.1,0.7,1.9,0.7c0.8,0,1.4-0.2,1.9-0.7c0.5-0.5,0.7-1.2,0.7-2c0-0.8-0.2-1.5-0.7-2
			c-0.5-0.5-1.1-0.7-1.9-0.7c-0.8,0-1.4,0.3-1.9,0.7S25.9-168.6,25.9-167.8z"/>
		<path class="st1" d="M35.2-172h2v0.8c0.7-0.7,1.5-1,2.4-1c1,0,1.8,0.3,2.4,0.9c0.5,0.5,0.7,1.4,0.7,2.6v5.2h-2v-4.7
			c0-0.8-0.1-1.4-0.4-1.7c-0.2-0.3-0.7-0.5-1.3-0.5c-0.7,0-1.1,0.2-1.4,0.6c-0.3,0.4-0.4,1.2-0.4,2.2v4.1h-2V-172z"/>
		<path class="st1" d="M50.2-170.6l-1.7,0.9c-0.3-0.5-0.6-0.8-1-0.8c-0.2,0-0.3,0.1-0.5,0.2c-0.1,0.1-0.2,0.3-0.2,0.5
			c0,0.3,0.4,0.6,1.2,1c1.1,0.4,1.8,0.9,2.1,1.2c0.4,0.4,0.6,0.9,0.6,1.5c0,0.8-0.3,1.5-0.9,2.1c-0.6,0.5-1.3,0.8-2.2,0.8
			c-1.5,0-2.5-0.7-3.1-2.1l1.7-0.8c0.2,0.4,0.4,0.7,0.5,0.8c0.2,0.2,0.5,0.3,0.9,0.3c0.7,0,1-0.3,1-0.9c0-0.3-0.3-0.7-0.8-1
			c-0.2-0.1-0.4-0.2-0.6-0.3c-0.2-0.1-0.4-0.2-0.6-0.3c-0.6-0.3-1-0.6-1.2-0.8c-0.3-0.4-0.5-0.8-0.5-1.4c0-0.7,0.3-1.3,0.8-1.8
			c0.5-0.5,1.2-0.7,1.9-0.7C48.9-172.3,49.7-171.7,50.2-170.6z"/>
	</g>
	<g>
		<path class="st0" d="M-36.1-122.4c-22.9,0-42.3-6.8-55-12.9c-15.2-7.3-24.4-15.1-24.5-15.2c-0.4-0.3-0.4-0.9-0.1-1.2
			c0.3-0.4,0.9-0.4,1.2-0.1c0.1,0.1,9.1,7.8,24.2,15c13.9,6.6,35.8,14.2,61.7,12.4c0.1,0,10.3-0.4,24.8-3.9
			c13.3-3.3,33-10,51.2-23.5c0.4-0.3,0.9-0.2,1.2,0.2c0.3,0.4,0.2,0.9-0.2,1.2C29.9-136.8,10-130-3.5-126.7c-14.6,3.6-24.9,4-25,4
			C-31.1-122.5-33.6-122.4-36.1-122.4z"/>
	</g>
</g>
<g id="Twitter_3_">
	<path class="st2" d="M95.8,0C83.9,0,74.3,9.6,74.3,21.5c0,11.9,9.6,21.5,21.5,21.5c11.9,0,21.5-9.6,21.5-21.5
		C117.3,9.6,107.6,0,95.8,0z M103.9,16.9c0,0.2,0,0.4,0,0.6c0,5.9-4.4,12.7-12.4,12.7c-2.5,0-4.7-0.7-6.7-2c0.3,0,0.7,0.1,1,0.1
		c2,0,3.9-0.7,5.4-1.9c-1.9,0-3.5-1.3-4.1-3.1c0.3,0.1,0.5,0.1,0.8,0.1c0.4,0,0.8-0.1,1.2-0.2c-2-0.4-3.4-2.2-3.4-4.4v-0.1
		c0.6,0.3,1.2,0.5,1.9,0.6c-1.2-0.8-2-2.2-2-3.7c0-0.8,0.2-1.6,0.6-2.2c2.1,2.7,5.3,4.5,9,4.7c-0.1-0.3-0.1-0.7-0.1-1
		c0-2.5,1.9-4.5,4.3-4.5c1.3,0,2.4,0.5,3.2,1.4c1-0.2,1.9-0.6,2.8-1.1c-0.3,1-1,1.9-1.9,2.5c0.9-0.1,1.7-0.3,2.5-0.7
		C105.5,15.5,104.8,16.3,103.9,16.9z"/>
</g>
<g id="LinKeDin_3_">
	<path class="st2" d="M21.5,0C9.6,0,0,9.6,0,21.5C0,33.4,9.6,43,21.5,43C33.4,43,43,33.4,43,21.5C43,9.6,33.4,0,21.5,0z M16.1,31.1
		h-4V18h4V31.1z M13.9,16.9L13.9,16.9c-1.5,0-2.5-1.1-2.5-2.4c0-1.3,1-2.3,2.5-2.3c1.5,0,2.4,1.1,2.5,2.3
		C16.4,15.8,15.4,16.9,13.9,16.9z M32.5,31.1h-5.1v-6.6c0-1.7-0.6-2.9-2.2-2.9c-1.2,0-1.9,0.8-2.2,1.6c-0.1,0.3-0.1,0.7-0.1,1.1v6.9
		h-4.4c0,0,0.1-11.9,0-13h4.4v2.2c0.6-0.9,1.9-2.1,4.3-2.1c2.9,0,5.4,1.9,5.4,5.8V31.1z"/>
</g>
<g id="Facebook_3_">
	<path class="st2" d="M-52.8-0.8c-11.9,0-21.5,9.6-21.5,21.5c0,11.9,9.6,21.5,21.5,21.5c11.9,0,21.5-9.6,21.5-21.5
		C-31.3,8.8-40.9-0.8-52.8-0.8z M-42.3,29.8c0,0.6-0.3,1.3-0.9,1.3h-5.3v-7.9h2.7l0.4-3.4h-3.1v-2c0-0.9,0.2-1.4,1.5-1.4h1.9v-3
		c-0.6,0-1.4-0.1-2.6-0.1c-2.4,0-4.2,1.5-4.2,4.1v2.3h-2.8v3.4h2.8v7.9h-9.8c-0.6,0-1-0.7-1-1.3V11.3c0-0.6,0.3-1.1,1-1.1h18.5
		c0.6,0,0.9,0.5,0.9,1.1V29.8z"/>
</g>
<g id="Google_x2B__8_">
	<path class="st2" d="M170-0.8c-11.9,0-21.5,9.6-21.5,21.5c0,11.9,9.6,21.5,21.5,21.5c11.9,0,21.5-9.6,21.5-21.5
		C191.5,8.9,181.9-0.8,170-0.8z M165.8,28.3c-4,0-7.3-3.3-7.3-7.4c0-4,3.3-7.3,7.3-7.3c1.9,0,3.6,0.7,4.9,1.9
		c-1.5,1.4-1.5,1.5-2.1,2.1c-0.7-0.6-1.6-1.1-2.8-1.1c-2.4,0-4.2,1.9-4.2,4.3c0,2.4,1.9,4.5,4.2,4.5c2.4,0,3.3-1,3.9-2.7
		c-1.1,0-3.8,0-3.8,0v-2.8h6.9C173.3,23.2,171.8,28.3,165.8,28.3z M181.2,21.5h-2.3v2.8h-1.7v-2.8h-2.8v-1.7h2.8v-2.3h1.7v2.3h2.3
		V21.5z"/>
</g>
<g id="Google_x2B__7_">
	<g>
		<circle class="st2" cx="244.3" cy="21" r="21.5"/>
		<path class="st3" d="M236.8,29.8c0-5.9,0-11.7,0-17.6c5.7,2.9,11.3,5.8,17,8.8C248.1,23.9,242.5,26.8,236.8,29.8z"/>
	</g>
</g>
</svg>
