<?xml version="1.0" encoding="utf-8"?>
<!-- Generator: Adobe Illustrator 21.0.0, SVG Export Plug-In . SVG Version: 6.00 Build 0)  -->
<svg version="1.1" id="Layer_1" xmlns="http://www.w3.org/2000/svg" xmlns:xlink="http://www.w3.org/1999/xlink" x="0px" y="0px"
	 viewBox="0 0 43 43" style="enable-background:new 0 0 43 43;" xml:space="preserve">
<style type="text/css">
	.st0{fill:#F6921E;}
	.st1{fill:#2478AA;}
	.st2{fill:#8E99A8;}
	.st3{fill:#FEFEFE;}
</style>
<g id="Twitter_3_">
	<path class="st2" d="M21.5,0C9.6,0,0,9.6,0,21.5C0,33.4,9.6,43,21.5,43C33.4,43,43,33.4,43,21.5C43,9.6,33.4,0,21.5,0z M29.7,16.9
		c0,0.2,0,0.4,0,0.6c0,5.9-4.4,12.7-12.4,12.7c-2.5,0-4.7-0.7-6.7-2c0.3,0,0.7,0.1,1,0.1c2,0,3.9-0.7,5.4-1.9
		c-1.9,0-3.5-1.3-4.1-3.1c0.3,0.1,0.5,0.1,0.8,0.1c0.4,0,0.8-0.1,1.2-0.2c-2-0.4-3.4-2.2-3.4-4.4v-0.1c0.6,0.3,1.2,0.5,1.9,0.6
		c-1.2-0.8-2-2.2-2-3.7c0-0.8,0.2-1.6,0.6-2.2c2.1,2.7,5.3,4.5,9,4.7C21,17.7,21,17.4,21,17c0-2.5,1.9-4.5,4.3-4.5
		c1.3,0,2.4,0.5,3.2,1.4c1-0.2,1.9-0.6,2.8-1.1c-0.3,1-1,1.9-1.9,2.5c0.9-0.1,1.7-0.3,2.5-0.7C31.3,15.5,30.5,16.3,29.7,16.9z"/>
</g>
</svg>
