<?xml version="1.0" encoding="utf-8"?>
<!-- Generator: Adobe Illustrator 21.0.0, SVG Export Plug-In . SVG Version: 6.00 Build 0)  -->
<svg version="1.1" id="Layer_1" xmlns="http://www.w3.org/2000/svg" xmlns:xlink="http://www.w3.org/1999/xlink" x="0px" y="0px"
	 viewBox="0 0 80.7 80.7" style="enable-background:new 0 0 80.7 80.7;" xml:space="preserve">
<style type="text/css">
	.st0{fill:#0373B9;}
</style>
<title>API - Copy</title>
<path class="st0" d="M80.7,38.5c-0.1-0.5-0.1-1-0.1-1.5c0-1.5-0.2-3-0.5-4.5c-0.9-4.4-2.6-8.7-4.9-12.6C71.1,13,65.1,7.4,57.9,3.9
	c-2-1-4.1-1.8-6.2-2.4c-2.6-0.8-5.3-1.3-8.1-1.4c-0.5,0-1,0-1.5-0.1h-3.6c-0.5,0.1-1,0.1-1.5,0.1c-2,0-4,0.3-6,0.8
	c-5.1,1.2-9.9,3.5-14.2,6.6c-5.4,3.9-9.7,9-12.7,14.8C3,24.6,2,26.9,1.3,29.4c-0.8,2.5-1.2,5.1-1.2,7.7c0,0.5,0,0.9-0.1,1.4v3.6
	c0.1,0.6,0,1.2,0.1,1.9c0,0.8,0,1.6,0.2,2.3c0.4,2.6,1.1,5.2,2,7.7c1.1,3.1,2.6,6,4.5,8.8c2.1,3.1,4.6,5.8,7.4,8.3
	c2.6,2.2,5.4,4.1,8.4,5.6c2.1,1.1,4.3,1.9,6.5,2.6c2.6,0.8,5.3,1.3,8,1.4c0.5,0,1,0,1.5,0.1H42c0.6-0.1,1.2,0,1.9-0.1
	s1.5-0.1,2.3-0.2c2.4-0.4,4.8-0.9,7.1-1.8c2.6-0.9,5-2,7.4-3.4c2.5-1.5,4.8-3.2,6.9-5.2c1.7-1.6,3.3-3.3,4.8-5.2
	c1.8-2.3,3.3-4.8,4.6-7.4c0.9-1.9,1.7-3.9,2.3-6c0.8-2.6,1.3-5.3,1.4-8c0-0.5,0-1,0.1-1.6V38.5z M73.2,41.7c0,0.4,0,0.8,0,1.3
	c-0.1,2.2-0.5,4.4-1.2,6.5c-0.5,1.7-1.1,3.3-1.9,4.9c-1,2.1-2.3,4.1-3.7,6c-1.2,1.5-2.5,2.9-3.9,4.2c-1.7,1.6-3.6,3-5.7,4.2
	c-1.9,1.1-3.9,2.1-6,2.8c-1.9,0.7-3.8,1.1-5.7,1.4c-0.6,0.1-1.2,0.1-1.8,0.1s-1,0-1.5,0.1h-2.9c-0.4-0.1-0.8-0.1-1.2-0.1
	c-2.2-0.1-4.4-0.4-6.5-1.1c-4.5-1.3-8.6-3.6-12.1-6.6c-2.3-2-4.3-4.2-6-6.7c-1.5-2.2-2.8-4.6-3.7-7.2c-0.8-2-1.3-4.1-1.6-6.3
	c-0.1-0.6-0.1-1.3-0.1-1.9s0-1-0.1-1.5v-3c0.1-0.4,0.1-0.8,0.1-1.1c0-2.1,0.4-4.2,1-6.3c0.6-2,1.3-3.9,2.3-5.8
	c2.5-4.8,6-8.9,10.4-12c3.5-2.5,7.4-4.3,11.5-5.3c1.6-0.4,3.2-0.6,4.9-0.7c0.4,0,0.8,0,1.3-0.1h2.9c0.4,0.1,0.8,0.1,1.2,0.1
	c2.2,0.1,4.4,0.4,6.6,1.1c1.7,0.5,3.4,1.2,5.1,2c5.9,2.9,10.8,7.4,14.1,13c1.9,3.2,3.3,6.6,4,10.3c0.2,1.2,0.4,2.5,0.4,3.7
	c0,0.4,0,0.8,0,1.3L73.2,41.7z"/>
<path class="st0" d="M60.3,36h-26c-0.1,0-0.3,0-0.3-0.1s0.1-0.2,0.2-0.3l6.8-6.9l4.9-5c0.1-0.1,0.3-0.2,0.2-0.3s-0.2-0.1-0.3-0.1
	h-0.4c-3.3,0-6.6,0-9.9,0c-0.6,0-1.3,0.2-1.7,0.7c-2.9,3.1-5.9,6.2-8.8,9.2c-1.5,1.5-3,3.1-4.5,4.6c-0.7,0.7-1.4,1.4-2.1,2.2
	c-0.2,0.1-0.2,0.4-0.1,0.6c0,0,0.1,0.1,0.1,0.1c1.4,1.5,2.9,3,4.3,4.5l3.8,3.9c2.5,2.6,5,5.2,7.5,7.8c0.3,0.3,0.6,0.4,1,0.4h10.3
	c0.2,0,0.5,0.1,0.6-0.1s-0.2-0.3-0.3-0.5c-1.2-1.2-2.3-2.4-3.5-3.6c-2.6-2.6-5.1-5.3-7.7-7.9c-0.1-0.1-0.4-0.3-0.3-0.5
	s0.4-0.1,0.6-0.1h25.7c0.3,0,0.5-0.2,0.5-0.5c0-2.6,0-5.2,0-7.8C60.8,36.2,60.6,36,60.3,36z"/>
</svg>
