<?xml version="1.0" encoding="utf-8"?>
<!-- Generator: Adobe Illustrator 21.0.0, SVG Export Plug-In . SVG Version: 6.00 Build 0)  -->
<svg version="1.1" id="Layer_1" xmlns="http://www.w3.org/2000/svg" xmlns:xlink="http://www.w3.org/1999/xlink" x="0px" y="0px"
	 viewBox="0 0 61 62.9" style="enable-background:new 0 0 61 62.9;" xml:space="preserve">
<style type="text/css">
	.st0{fill:#0373B9;}
</style>
<title>API - Copy</title>
<path class="st0" d="M27.6,50.5c0-2.3,1-4.3,0.4-6.6c-0.2-1-0.3-2-0.3-3c-0.1-0.5,0.3-1,0.8-1.1c0.1,0,0.1,0,0.2,0
	c1.3,0,2.5,0,3.7,0c0.6,0,1,0.4,1,1c0,0.1,0,0.2,0,0.3c-0.1,1.1-0.2,2.2-0.4,3.3c-0.4,1.4,0.2,2.9,0.4,4.3c0,0.6,0.1,1.1,0.3,1.7
	c0.5-0.2,0.6-0.6,0.8-1c2.2-4,4.3-8,6.5-12c0.2-0.8,1-1.2,1.8-0.9c0.1,0,0.1,0.1,0.2,0.1c2.9,0.8,5.8,1.5,8.7,2.4
	c4.3,1.3,7.2,3.8,7.7,8.5c0.5,4,1.2,7.9,1.8,11.8c0.3,2.3-0.8,3.6-3.1,3.6H3.2c-2.3,0-3.5-1.3-3.1-3.7c0.6-4.1,1.2-8.3,1.9-12.5
	c0.6-4,3.2-6.3,6.8-7.5c3.2-1.1,6.5-1.8,9.8-2.7c0.8-0.2,1.2,0.2,1.5,0.8c2.1,4,4.3,8,6.5,11.9C26.7,49.8,27.1,50.2,27.6,50.5z"/>
<path class="st0" d="M45.7,14.8c-0.5-0.5-0.8-1.1-1-1.7c-1-3.3-2.8-6.3-5.3-8.7c-0.9-0.8-1-0.8-1.4,0.3c-0.7,2.2-1.5,4.5-2.2,6.7
	c-0.2,0.7-0.5,1.5-0.8,2.2c-0.2-0.1-0.2-0.4-0.1-0.6c0.5-3.3,1-6.7,1.5-10c0.3-0.8-0.2-1.7-1.1-2c0,0,0,0,0,0
	c-3.5-1.5-7.5-1.4-11,0.3c-0.8,0.3-1.3,1.2-1.1,2c0.3,1.6,0.5,3.2,0.7,4.9s0.5,3.5,0.8,5.2l-0.2,0.1c-0.1-0.3-0.3-0.6-0.4-1
	c-0.8-2.4-1.6-4.7-2.4-7.1c-0.4-1.2-0.6-1.2-1.5-0.4c-2.4,2.3-4,5.2-4.7,8.4C15.5,14,15.3,14.5,15,15c-0.9,1.5-1.4,3.2-1.3,5
	c-0.1,0.8,0.3,1.5,1,1.8c0.3,0.1,0.6,0.4,0.6,0.8c0.5,2.8,1.9,5.3,3,8c0.4,0.8,0.8,1.6,1.4,2.3c4.5,6.2,11.9,7.5,17.8,3.3
	c2.7-2.1,4.8-4.9,5.8-8.2c0.1-0.5,0.3-1,0.7-1.4c0.9-0.8,1.4-1.9,1.5-3.1c0.1-0.8,0.3-1.6,1.2-2c0.3-0.2,0.5-0.5,0.6-0.9
	C47.3,18.6,47.2,16.5,45.7,14.8z M43.7,22.7c-0.1,0.9-0.2,1.8-1.2,2.2c-0.5,0.2-0.5,0.7-0.6,1.1c-0.7,2.7-2.1,5.2-4,7.2
	c-4,4.2-10.6,4.4-14.9,0.4c-0.4-0.3-0.7-0.7-1-1.1c-1.3-1.5-2.2-3.2-2.9-5c-0.3-1.2-0.8-2.4-1.4-3.4c0,0,0-0.1,0-0.1
	c-0.7-1.7-0.4-2.1,1.5-2.1c0.7-0.1,1.5,0.1,1.9,0.7c0.3,0.3,0.8,0.5,1.3,0.4h16.1c0.4,0.1,0.9-0.1,1.2-0.3c0.9-1.2,2.2-0.7,3.4-0.8
	c0.3,0,0.6,0.2,0.6,0.5C43.7,22.5,43.7,22.6,43.7,22.7L43.7,22.7z"/>
</svg>
