<?xml version="1.0" encoding="utf-8"?>
<!-- Generator: Adobe Illustrator 21.0.0, SVG Export Plug-In . SVG Version: 6.00 Build 0)  -->
<svg version="1.1" id="Layer_1" xmlns="http://www.w3.org/2000/svg" xmlns:xlink="http://www.w3.org/1999/xlink" x="0px" y="0px"
	 viewBox="0 0 59 63" style="enable-background:new 0 0 59 63;" xml:space="preserve">
<style type="text/css">
	.st0{fill:#0373B9;}
</style>
<title>API - Copy</title>
<path class="st0" d="M29.8,0l4.9,2.8L42.3,7l8.4,4.6l7.8,4.3c0.4,0.2,0.6,0.6,0.5,1c0,0.4-0.4,0.8-0.8,0.8c-0.2,0-0.4,0-0.6,0H1.5
	c-0.9,0-1.3-0.2-1.4-0.7s0.1-0.9,0.9-1.4l9.6-5.3L20.2,5l8.9-4.9L29.2,0H29.8z M29.5,14.3c2.2,0,4-1.8,4-4s-1.8-4-4-4
	c-2.2,0-4,1.8-4,3.9C25.4,12.4,27.2,14.3,29.5,14.3C29.4,14.3,29.4,14.3,29.5,14.3z"/>
<path class="st0" d="M2.7,63c-0.5-0.3-0.7-0.9-0.7-1.5c0-0.5,0-1.1,0-1.6c0-1,0.3-1.4,1.4-1.4h52.2c1.2,0,1.5,0.3,1.5,1.5
	c0,0.5,0,1.1,0,1.6c0.1,0.6-0.2,1.1-0.7,1.4H2.7z"/>
<path class="st0" d="M29.5,19.8h26c1.2,0,1.5,0.3,1.5,1.5c0,0.6,0,1.2,0,1.8c0.1,0.6-0.4,1.1-0.9,1.1c-0.1,0-0.1,0-0.2,0H3.5
	c-1.2,0-1.5-0.3-1.5-1.5c0-0.5,0-1,0-1.6c0-1.1,0.3-1.4,1.4-1.4H29.5z"/>
<path class="st0" d="M29.5,57.5H5.7c-1.2,0-1.5-0.3-1.5-1.5c0-0.6,0-1.2,0-1.8c-0.1-0.5,0.3-1.1,0.8-1.1c0.1,0,0.2,0,0.3,0h48.3
	c0.5-0.1,1.1,0.3,1.1,0.8c0,0.1,0,0.2,0,0.3c0,0.7,0,1.5,0,2.2c0.1,0.5-0.4,1-0.9,1.1c-0.1,0-0.1,0-0.2,0c-0.2,0-0.3,0-0.5,0H29.5z"
	/>
<path class="st0" d="M29.5,25.3h23.8c1.2,0,1.5,0.3,1.5,1.5c0,0.6,0,1.2,0,1.8c0.1,0.6-0.3,1.1-0.9,1.2c-0.1,0-0.2,0-0.3,0H5.8
	c-1.3,0-1.5-0.3-1.5-1.5c0-0.6,0-1.2,0-1.8c0-0.8,0.4-1.1,1.1-1.1L29.5,25.3L29.5,25.3z"/>
<path class="st0" d="M6.7,41.4c0-3.1,0-6.2,0-9.3c0-1,0.3-1.3,1.3-1.3h4.2c0.9,0,1.3,0.4,1.3,1.3c0,6.3,0,12.5,0,18.8
	c0,1-0.3,1.3-1.3,1.3H7.9c-0.9,0-1.3-0.3-1.3-1.3C6.7,47.7,6.7,44.5,6.7,41.4z"/>
<path class="st0" d="M45.5,41.4c0-3.1,0-6.2,0-9.4c0-1,0.3-1.4,1.3-1.4h4.2c1,0,1.3,0.3,1.3,1.3c0,6.3,0,12.6,0,18.9
	c0,1-0.3,1.3-1.3,1.3h-4.3c-1,0-1.3-0.3-1.3-1.3C45.5,47.6,45.5,44.5,45.5,41.4z"/>
<path class="st0" d="M26.1,41.4c0-3.1,0-6.2,0-9.3c0-1.1,0.3-1.4,1.4-1.4h4.2c1,0,1.3,0.3,1.3,1.3c0,6.3,0,12.5,0,18.8
	c0,1-0.3,1.3-1.3,1.3h-4.2c-1,0-1.3-0.3-1.3-1.4C26.1,47.6,26.1,44.5,26.1,41.4z"/>
<path class="st0" d="M29.5,8.3c1.1,0,2,0.9,2,2c0,1.1-0.9,2-2,2c-1.1,0-2-0.9-2-2C27.6,9.1,28.5,8.3,29.5,8.3z"/>
</svg>
