<?xml version="1.0" encoding="utf-8"?>
<!-- Generator: Adobe Illustrator 21.0.0, SVG Export Plug-In . SVG Version: 6.00 Build 0)  -->
<svg version="1.1" id="Layer_1" xmlns="http://www.w3.org/2000/svg" xmlns:xlink="http://www.w3.org/1999/xlink" x="0px" y="0px"
	 viewBox="0 0 69.4 56.3" style="enable-background:new 0 0 69.4 56.3;" xml:space="preserve">
<style type="text/css">
	.st0{fill:#0373B9;}
</style>
<title>API - Copy</title>
<path class="st0" d="M13.1,29.3h-11C1,29.3,0.1,28.5,0,27.4c0-0.4,0.1-0.9,0.3-1.2C3.6,20.6,6.8,15,10.1,9.5C11.7,6.6,13.4,3.8,15,1
	c0.4-0.8,1.4-1.2,2.2-1c0.5,0.2,0.9,0.5,1.2,1c1.6,2.7,3.1,5.3,4.7,8c3.3,5.7,6.7,11.4,10,17.1c0.7,0.9,0.6,2.1-0.3,2.8
	c-0.4,0.3-1,0.5-1.5,0.4c-3.4,0-6.8,0-10.2,0h-0.6c0-0.2,0-0.4,0-0.6c0-1.1,0-2.2,0-3.3c0-1.9-1.5-3.4-3.4-3.5c-0.1,0-0.3,0-0.4,0
	c-1.9,0-3.4,1.4-3.4,3.3c0,0.1,0,0.2,0,0.2c0,0.6,0,1.3,0,1.9S13.1,28.5,13.1,29.3z"/>
<path class="st0" d="M20.8,39.6c0,4.5,0,9,0,13.5c0.1,1.3-0.7,2.5-1.9,3c-0.3,0.1-0.7,0.2-1,0.2c-0.8,0-1.6,0-2.4,0
	c-1.6,0-2.8-1.3-2.8-2.8c0-5.7,0-11.4,0-17.1c-0.1-0.7,0.4-1.3,1.1-1.4c0.1,0,0.1,0,0.2,0c1.8,0,3.6,0,5.4,0c0.7,0,1.4,0.5,1.4,1.2
	c0,0.1,0,0.2,0,0.3C20.8,37.5,20.8,38.5,20.8,39.6L20.8,39.6z"/>
<path class="st0" d="M58,37.8V46H38.6v-8.2H58z"/>
<path class="st0" d="M50,35.8v-8.2h19.4c0,0.1,0,0.2,0,0.4c0,2.5,0,4.9,0,7.4c0,0.4-0.1,0.5-0.5,0.5H50.4
	C50.3,35.8,50.2,35.8,50,35.8z"/>
<path class="st0" d="M50,7.1h19.4v8.2H50V7.1z"/>
<path class="st0" d="M47.9,7.1v8.2H30.4c-0.3,0-0.6-0.2-0.8-0.4c-0.9-1.2-1.3-2.7-1.1-4.2c0.1-1,0.1-2,0-3c0-0.5,0.1-0.6,0.6-0.6
	c2.6,0,5.3,0,7.9,0h10.3L47.9,7.1z"/>
<path class="st0" d="M38.6,25.5v-8.2H58v8.2H38.6z"/>
<path class="st0" d="M47.9,56.3H28.5v-8.1h19.4V56.3z"/>
<path class="st0" d="M69.4,48.1v8.2h-0.5H50.5c-0.3,0-0.6,0-0.5-0.5c0-2.4,0-4.8,0-7.2c0-0.4,0.1-0.5,0.5-0.5c4.9,0,9.8,0,14.6,0
	L69.4,48.1z"/>
<path class="st0" d="M28.5,35.8v-3.9c0.9,0,1.8,0,2.7,0c0.7,0,1.4-0.2,2.1-0.4c1.5-0.5,2.5-1.9,2.7-3.4c0-0.2,0.1-0.3,0.1-0.5h11.8
	v8.2L28.5,35.8z"/>
<path class="st0" d="M36.6,46h-13v-8.2h0.6c3.9,0,7.9,0,11.8,0c0.5,0,0.7,0.1,0.7,0.6c0,2.4,0,4.7,0,7.1
	C36.6,45.7,36.6,45.8,36.6,46z"/>
<path class="st0" d="M14.5,33.6c0-1,0-2,0-2.9c0-1.8,0-3.5,0-5.3c-0.1-0.9,0.5-1.7,1.3-2c1.1-0.5,2.4-0.1,2.9,0.9
	c0.1,0.3,0.2,0.6,0.2,0.9c0,2.7,0,5.3,0,8c0,0.1-0.2,0.4-0.3,0.4C17.3,33.6,15.9,33.6,14.5,33.6z"/>
<path class="st0" d="M36.5,25.5c-0.4,0.2-0.8,0-1-0.4c0,0,0,0,0,0c-1.3-2.4-2.8-4.7-4.1-7.1c-0.1-0.2-0.2-0.3-0.3-0.6h5.5L36.5,25.5
	z"/>
</svg>
