<?xml version="1.0" encoding="utf-8"?>
<!-- Generator: Adobe Illustrator 21.0.0, SVG Export Plug-In . SVG Version: 6.00 Build 0)  -->
<svg version="1.1" id="Layer_1" xmlns="http://www.w3.org/2000/svg" xmlns:xlink="http://www.w3.org/1999/xlink" x="0px" y="0px"
	 viewBox="0 0 105.8 62.4" style="enable-background:new 0 0 105.8 62.4;" xml:space="preserve">
<style type="text/css">
	.st0{fill:#0373B9;}
</style>
<title>API - Copy</title>
<path class="st0" d="M30.2,30.5L30.2,30.5z"/>
<path class="st0" d="M104.2,45.1c0-0.3,0-0.6,0-0.9c0-5.3,0-10.6,0-15.8c0-0.4-0.1-0.7-0.4-1c-5.7-6.5-11.5-13-17.2-19.6
	c-0.2-0.3-0.5-0.4-0.9-0.4h-15l-5.8,29.6H15.1v8h-1.6c-0.1,1.4-0.1,2.7,0,4.1h6.6c0.7,0,1.5,0,2.2,0C21.9,56,27.1,61.9,34,62.3
	c0,0,0.1,0,0.1,0c3,0.2,6-0.7,8.4-2.7c3.2-2.5,5-6.4,4.8-10.5c0.6-0.1,20.2-0.1,20.5,0c-0.3,6.9,5,12.8,11.9,13.1c0.1,0,0.1,0,0.2,0
	c3.2,0.1,6.3-1,8.7-3.2c2.9-2.5,4.4-6.2,4.2-10h8.8c1.4,0,2.9,0,4.3,0v-4.1H104.2z M34.7,56.9c-3.9-0.1-6.9-3.3-6.9-7.1
	c0.1-3.9,3.3-6.9,7.1-6.9c3.8,0.1,6.9,3.2,6.9,7c0,3.9-3.1,7-7,7C34.8,56.9,34.8,56.9,34.7,56.9z M80.4,56.9c-3.9,0-7-3.1-7.1-6.9
	s3.1-7,6.9-7.1c3.9,0,7,3.1,7.1,6.9c0,0,0,0,0,0.1C87.3,53.7,84.2,56.8,80.4,56.9L80.4,56.9z M99.6,32.3H70.5L74.6,12h0.5
	c2.9,0,5.8,0,8.7,0c0.3,0,0.6,0.1,0.8,0.4L98.2,28c0.4,0.5,0.8,0.9,1.2,1.4c0.2,0.2,0.3,0.4,0.3,0.6C99.6,30.8,99.6,31.5,99.6,32.3z
	"/>
<path class="st0" d="M14.8,34.9h46.5h0.5C64,24.7,66,14.6,68.2,4.4h8.6V0H60.1c0,0.1-0.1,0.3-0.1,0.4l-0.8,2.7
	C59,3.6,59,3.6,58.5,3.6l-0.8,0.1l-5.6,0.6l-5.7,0.7l-6.5,0.8l-6.6,0.8l-6.5,0.8l-6.6,0.8l-6.5,0.8c-2.2,0.3-4.4,0.5-6.5,0.8
	c-0.4,0-0.7,0.2-0.8,0.5c-1.8,2.9-3.7,5.8-5.5,8.7L0,20.1c0.1,0.1,0.2,0.2,0.3,0.4l13.6,14.1C14.1,34.8,14.5,34.9,14.8,34.9z
	 M48.7,12.6h3.1v17.9h-3.1C48.6,30.2,48.6,13.1,48.7,12.6z M39.4,13.9h3.2c0.1,0.4,0.1,16,0,16.7h-3.2V13.9z M30.1,18.8
	c0-0.5,0-1,0-1.4v-0.3c0-0.2,0-0.3,0-0.5c0-0.8,0-1.3,0-1.5h3.2v15.4h-3.1C30.1,30.3,30,23.2,30.1,18.8z M20.8,16.4H24v14
	c-1.1,0.1-2.2,0.1-3.2,0L20.8,16.4z"/>
<path class="st0" d="M30.1,18.8c0-0.5,0-1,0-1.4C30.1,17.8,30.1,18.3,30.1,18.8z"/>
<path class="st0" d="M30.1,17.1c0-0.2,0-0.3,0-0.5C30.1,16.8,30.1,17,30.1,17.1z"/>
<path class="st0" d="M30.2,30.5c-0.1-0.3-0.1-7.3-0.1-11.8C30,23.2,30,30.3,30.2,30.5z"/>
</svg>
