<svg id="Layer_1" data-name="Layer 1" xmlns="http://www.w3.org/2000/svg" viewBox="0 0 34.33 41"><defs><style>.cls-1{fill:#0373b9;}.cls-2{fill:#f4f4f4;}</style></defs><title>Deadline Calculator</title><path class="cls-1" d="M33.33,1H1V40H33.33ZM30.52,13.33V37.19H3.81V3.81H30.52Z"/><path class="cls-2" d="M0,0V41H34.33V0ZM33.83,40.5H.5V.5H33.83Z"/><path class="cls-2" d="M.5,40.5H33.83V.5H.5ZM1,1H33.33V40H1Z"/><rect class="cls-1" x="4.81" y="29.57" width="7.57" height="6.62"/><polygon class="cls-2" points="4.31 36.69 4.31 29.57 3.81 29.57 3.81 37.19 12.38 37.19 12.38 36.69 4.31 36.69"/><polygon class="cls-2" points="4.81 36.19 4.81 29.57 4.31 29.57 4.31 36.69 12.38 36.69 12.38 36.19 4.81 36.19"/><rect class="cls-1" x="4.81" y="21.95" width="7.57" height="6.62"/><rect class="cls-2" x="3.81" y="21.95" width="0.5" height="6.62"/><polygon class="cls-2" points="4.31 29.07 4.31 28.57 3.81 28.57 3.81 29.57 4.31 29.57 4.31 29.07"/><rect class="cls-2" x="4.81" y="29.07" width="7.57" height="0.5"/><rect class="cls-2" x="4.31" y="29.07" width="0.5" height="0.5"/><rect class="cls-2" x="4.31" y="21.95" width="0.5" height="6.62"/><rect class="cls-2" x="4.81" y="28.57" width="7.57" height="0.5"/><rect class="cls-2" x="4.31" y="28.57" width="0.5" height="0.5"/><rect class="cls-1" x="4.81" y="14.33" width="7.57" height="6.62"/><rect class="cls-2" x="3.81" y="14.33" width="0.5" height="6.62"/><polygon class="cls-2" points="4.31 21.45 4.31 20.95 3.81 20.95 3.81 21.95 4.31 21.95 4.31 21.45"/><rect class="cls-2" x="4.81" y="21.45" width="7.57" height="0.5"/><rect class="cls-2" x="4.31" y="21.45" width="0.5" height="0.5"/><rect class="cls-2" x="4.31" y="14.33" width="0.5" height="6.62"/><rect class="cls-2" x="4.81" y="20.95" width="7.57" height="0.5"/><rect class="cls-2" x="4.31" y="20.95" width="0.5" height="0.5"/><rect class="cls-1" x="13.38" y="21.95" width="7.57" height="6.62"/><rect class="cls-2" x="12.38" y="21.95" width="0.5" height="6.62"/><rect class="cls-2" x="12.88" y="21.95" width="0.5" height="6.62"/><rect class="cls-1" x="13.38" y="14.33" width="7.57" height="6.62"/><rect class="cls-2" x="12.38" y="14.33" width="0.5" height="6.62"/><rect class="cls-2" x="12.38" y="21.45" width="0.5" height="0.5"/><rect class="cls-2" x="12.38" y="20.95" width="0.5" height="0.5"/><rect class="cls-2" x="13.38" y="21.45" width="7.57" height="0.5"/><rect class="cls-2" x="12.88" y="21.45" width="0.5" height="0.5"/><rect class="cls-2" x="12.88" y="14.33" width="0.5" height="6.62"/><rect class="cls-2" x="13.38" y="20.95" width="7.57" height="0.5"/><rect class="cls-2" x="12.88" y="20.95" width="0.5" height="0.5"/><rect class="cls-1" x="21.95" y="14.33" width="7.57" height="6.62"/><rect class="cls-2" x="30.02" y="14.33" width="0.5" height="6.62"/><rect class="cls-2" x="20.95" y="14.33" width="0.5" height="6.62"/><rect class="cls-2" x="29.52" y="14.33" width="0.5" height="6.62"/><rect class="cls-2" x="21.45" y="14.33" width="0.5" height="6.62"/><polygon class="cls-1" points="21.95 28.57 21.95 29.57 21.95 36.19 29.52 36.19 29.52 21.95 21.95 21.95 21.95 28.57"/><polygon class="cls-2" points="30.02 36.69 21.95 36.69 21.95 37.19 30.52 37.19 30.52 21.95 30.02 21.95 30.02 36.69"/><rect class="cls-2" x="20.95" y="21.95" width="0.5" height="6.62"/><polygon class="cls-2" points="30.02 21.45 30.02 21.95 30.52 21.95 30.52 20.95 30.02 20.95 30.02 21.45"/><rect class="cls-2" x="20.95" y="21.45" width="0.5" height="0.5"/><rect class="cls-2" x="20.95" y="20.95" width="0.5" height="0.5"/><rect class="cls-2" x="21.95" y="20.95" width="7.57" height="0.5"/><rect class="cls-2" x="29.52" y="20.95" width="0.5" height="0.5"/><rect class="cls-2" x="21.45" y="20.95" width="0.5" height="0.5"/><polygon class="cls-2" points="29.52 36.19 21.95 36.19 21.95 36.69 30.02 36.69 30.02 21.95 29.52 21.95 29.52 36.19"/><rect class="cls-2" x="21.45" y="21.95" width="0.5" height="6.62"/><rect class="cls-2" x="21.95" y="21.45" width="7.57" height="0.5"/><rect class="cls-2" x="29.52" y="21.45" width="0.5" height="0.5"/><rect class="cls-2" x="21.45" y="21.45" width="0.5" height="0.5"/><rect class="cls-1" x="13.38" y="29.57" width="7.57" height="6.62"/><rect class="cls-2" x="13.38" y="36.69" width="7.57" height="0.5"/><polygon class="cls-2" points="12.88 36.69 12.38 36.69 12.38 37.19 13.38 37.19 13.38 36.69 12.88 36.69"/><rect class="cls-2" x="12.38" y="29.57" width="0.5" height="6.62"/><rect class="cls-2" x="12.38" y="36.19" width="0.5" height="0.5"/><rect class="cls-2" x="12.38" y="29.07" width="0.5" height="0.5"/><rect class="cls-2" x="12.38" y="28.57" width="0.5" height="0.5"/><rect class="cls-2" x="13.38" y="28.57" width="7.57" height="0.5"/><rect class="cls-2" x="12.88" y="28.57" width="0.5" height="0.5"/><polygon class="cls-2" points="21.45 36.69 20.95 36.69 20.95 37.19 21.95 37.19 21.95 36.69 21.45 36.69"/><rect class="cls-2" x="20.95" y="28.57" width="0.5" height="0.5"/><rect class="cls-2" x="21.45" y="29.57" width="0.5" height="6.62"/><rect class="cls-2" x="21.45" y="36.19" width="0.5" height="0.5"/><polygon class="cls-2" points="21.45 29.07 21.45 29.57 21.95 29.57 21.95 28.57 21.45 28.57 21.45 29.07"/><rect class="cls-2" x="13.38" y="36.19" width="7.57" height="0.5"/><rect class="cls-2" x="12.88" y="29.57" width="0.5" height="6.62"/><rect class="cls-2" x="12.88" y="36.19" width="0.5" height="0.5"/><rect class="cls-2" x="13.38" y="29.07" width="7.57" height="0.5"/><rect class="cls-2" x="12.88" y="29.07" width="0.5" height="0.5"/><rect class="cls-2" x="20.95" y="29.57" width="0.5" height="6.62"/><rect class="cls-2" x="20.95" y="36.19" width="0.5" height="0.5"/><rect class="cls-2" x="20.95" y="29.07" width="0.5" height="0.5"/><polygon class="cls-1" points="13.38 13.33 20.95 13.33 21.95 13.33 29.52 13.33 29.52 4.81 4.81 4.81 4.81 13.33 12.38 13.33 13.38 13.33"/><polygon class="cls-2" points="3.81 13.33 4.31 13.33 4.31 4.31 30.02 4.31 30.02 13.33 30.52 13.33 30.52 3.81 3.81 3.81 3.81 13.33"/><polygon class="cls-2" points="4.31 13.83 4.31 13.33 3.81 13.33 3.81 14.33 4.31 14.33 4.31 13.83"/><rect class="cls-2" x="4.81" y="13.83" width="7.57" height="0.5"/><rect class="cls-2" x="4.31" y="13.83" width="0.5" height="0.5"/><rect class="cls-2" x="12.38" y="13.83" width="0.5" height="0.5"/><rect class="cls-2" x="13.38" y="13.83" width="7.57" height="0.5"/><rect class="cls-2" x="12.88" y="13.83" width="0.5" height="0.5"/><polygon class="cls-2" points="30.02 13.83 30.02 14.33 30.52 14.33 30.52 13.33 30.02 13.33 30.02 13.83"/><rect class="cls-2" x="20.95" y="13.83" width="0.5" height="0.5"/><rect class="cls-2" x="21.95" y="13.83" width="7.57" height="0.5"/><rect class="cls-2" x="29.52" y="13.83" width="0.5" height="0.5"/><rect class="cls-2" x="21.45" y="13.83" width="0.5" height="0.5"/><polygon class="cls-2" points="4.81 4.81 29.52 4.81 29.52 13.33 30.02 13.33 30.02 4.31 4.31 4.31 4.31 13.33 4.81 13.33 4.81 4.81"/><rect class="cls-2" x="4.81" y="13.33" width="7.57" height="0.5"/><rect class="cls-2" x="4.31" y="13.33" width="0.5" height="0.5"/><rect class="cls-2" x="13.38" y="13.33" width="7.57" height="0.5"/><polygon class="cls-2" points="13.38 13.83 13.38 13.33 12.38 13.33 12.38 13.83 12.88 13.83 13.38 13.83"/><rect class="cls-2" x="21.95" y="13.33" width="7.57" height="0.5"/><rect class="cls-2" x="29.52" y="13.33" width="0.5" height="0.5"/><polygon class="cls-2" points="21.45 13.83 21.95 13.83 21.95 13.33 20.95 13.33 20.95 13.83 21.45 13.83"/></svg>