<?xml version="1.0" encoding="utf-8"?>
<!-- Generator: Adobe Illustrator 21.0.0, SVG Export Plug-In . SVG Version: 6.00 Build 0)  -->
<svg version="1.1" id="Layer_1" xmlns="http://www.w3.org/2000/svg" xmlns:xlink="http://www.w3.org/1999/xlink" x="0px" y="0px"
	 viewBox="0 0 22.1 26.6" style="enable-background:new 0 0 22.1 26.6;" xml:space="preserve">
<style type="text/css">
	.st0{fill:#0373BB;}
</style>
<g>
	<g>
		<path class="st0" d="M20.6,15.2c0,3.2,0,6.4,0,9.5c0,0.5-0.1,0.7-0.6,0.6c-0.2,0-0.3,0-0.5,0c-0.2,0-0.4-0.1-0.3-0.3
			c0-0.3,0-0.6,0-0.9c0-5.9,0-11.7,0-17.6c0-0.4-0.1-0.7-0.4-0.9c-1.1-1-2.1-2.1-3.2-3.2C15.4,2.1,15.2,2,14.8,2C10.7,2,6.5,2,2.4,2
			C2.1,2,1.8,2.1,1.8,1.6c0-0.3,0.1-0.4,0.4-0.3c1,0,2,0,3,0c3.7,0,7.5,0,11.2,0c0.4,0,0.6,0.1,0.6,0.5c0.2,0.7,0.4,1.4,0.5,2.1
			c0.1,0.3,0.2,0.4,0.5,0.5c0.7,0.2,1.4,0.4,2.1,0.5c0.4,0.1,0.5,0.2,0.5,0.6C20.6,8.7,20.6,11.9,20.6,15.2z"/>
		<path class="st0" d="M19.5,2.9c0.8,0.2,1.6,0.4,2.5,0.6c0.1,0,0.2,0.1,0.2,0.3c0,0.1,0,0.2,0,0.3c0,6.5,0,13,0,19.5
			c0,0.5-0.4,0.7-0.9,0.5c-0.2-0.1-0.1-0.2-0.1-0.4c0-0.6,0-1.3,0-1.9c0-5.5,0-11,0-16.5c0-0.4-0.1-0.7-0.4-1
			c-0.5-0.4-0.9-0.8-1.4-1.3C19.4,3,19.4,2.9,19.5,2.9z"/>
		<path class="st0" d="M19.1,2.7c-0.5-0.5-1-1-1.5-1.5c-0.3-0.3-0.6-0.4-1-0.4c-4.3,0-8.5,0-12.8,0c-0.2,0-0.6,0.1-0.5-0.4
			C3.4,0.1,3.4,0,3.7,0C4.9,0,6,0,7.2,0c3.6,0,7.3,0,10.9,0c0.4,0,0.6,0.1,0.7,0.5c0.1,0.7,0.3,1.4,0.5,2.2
			C19.2,2.7,19.2,2.7,19.1,2.7z"/>
		<path class="st0" d="M15.7,3.3c0.8,0.8,1.5,1.5,2.3,2.3c-0.5-0.1-1.1-0.3-1.6-0.4c-0.2,0-0.3-0.1-0.3-0.3
			C16,4.3,15.9,3.8,15.7,3.3z"/>
		<path class="st0" d="M20.1,4.2c-0.2,0-0.2,0.1-0.2,0c-0.6-0.2-1.3-0.1-1.7-0.5c-0.4-0.4-0.4-1.2-0.5-1.8c0,0,0.1-0.1,0.1-0.1
			c0.4,0.4,0.7,0.8,1.1,1.2C19.2,3.5,19.6,3.8,20.1,4.2z"/>
		<path class="st0" d="M21.3,2.8c-0.4-0.1-0.9-0.2-1.4-0.3c-0.2,0-0.2-0.1-0.3-0.3c-0.1-0.5-0.2-0.9-0.3-1.3
			C20,1.5,20.6,2.1,21.3,2.8z"/>
		<g>
			<path class="st0" d="M18.8,6.8c0-0.4-0.1-0.6-0.5-0.6c-0.7-0.1-1.3-0.3-2-0.5c-0.3-0.1-0.5-0.2-0.6-0.6c-0.1-0.7-0.4-1.3-0.5-2
				c-0.1-0.4-0.2-0.5-0.6-0.5c-4.7,0-9.3,0-14,0C0.1,2.5,0,2.7,0,3.1c0,3.8,0,7.6,0,11.4c0,3.8,0,7.6,0,11.4c0,0.5,0.1,0.6,0.6,0.6
				c5.9,0,11.8,0,17.7,0c0.4,0,0.5-0.1,0.5-0.5c0-3.7,0-7.4,0-11.1C18.7,12.2,18.7,9.5,18.8,6.8z M1.8,6.6c1.2,0,9.3,0,10.5,0
				c1.2,0,2.4,0,3.6,0c0.3,0,0.5,0.1,0.5,0.4c0,0.3,0,0.5-0.4,0.5c-2.5,0-11.7,0-14.2,0c-0.3,0-0.5-0.1-0.5-0.4
				C1.4,6.8,1.4,6.6,1.8,6.6z M16.5,11.4c0,0.4-0.1,0.5-0.5,0.5c-2.3,0-4.6,0-7,0c-2.3,0-4.6,0-6.9,0c-0.3,0-0.6,0-0.6-0.5
				c0-0.4,0.2-0.5,0.5-0.5c4.6,0,9.3,0,13.9,0C16.3,10.9,16.5,11,16.5,11.4z M1.9,8.8c1.2,0,9.3,0,10.5,0c1.2,0,2.4,0,3.6,0
				c0.4,0,0.5,0.1,0.5,0.5c0,0.3-0.1,0.5-0.5,0.5c-2.4,0-11.7,0-14.1,0c-0.4,0-0.5-0.1-0.5-0.5C1.4,8.9,1.5,8.8,1.9,8.8z M2,13.1
				c4.7,0,9.4,0,14,0c0.4,0,0.5,0.1,0.5,0.5c0,0.4-0.1,0.4-0.5,0.4c-2.4,0-4.7,0-7.1,0c-2.3,0-4.6,0-7,0c-0.4,0-0.5-0.1-0.5-0.5
				C1.5,13.2,1.6,13.1,2,13.1z M2,15.3c2.3,0,4.7,0,7,0c2.3,0,4.7,0,7,0c0.4,0,0.5,0.1,0.5,0.5c0,0.4-0.1,0.5-0.5,0.5
				c-4.7,0-9.4,0-14,0c-0.4,0-0.4-0.2-0.5-0.5C1.5,15.4,1.6,15.3,2,15.3z M2,17.6c2.4,0,4.7,0,7.1,0c2.3,0,4.6,0,7,0
				c0.4,0,0.5,0.1,0.5,0.5c0,0.4-0.1,0.4-0.5,0.4c-4.7,0-9.4,0-14.1,0c-0.4,0-0.4-0.1-0.4-0.5C1.5,17.6,1.6,17.6,2,17.6z M16.1,25.1
				c-4.7,0-9.3,0-14,0c-0.4,0-0.5-0.1-0.5-0.5c0-0.4,0.2-0.5,0.5-0.5c2.3,0,4.6,0,7,0c2.3,0,4.7,0,7,0c0.4,0,0.5,0.1,0.5,0.5
				C16.6,25,16.4,25.1,16.1,25.1z M16,22.8c-2.3,0-4.6,0-7,0c-2.3,0-4.6,0-6.9,0c-0.3,0-0.5,0-0.5-0.4C1.6,22,1.8,22,2.1,22
				c4.6,0,9.3,0,13.9,0c0.3,0,0.6-0.1,0.6,0.4C16.6,22.9,16.3,22.8,16,22.8z M16.6,20.5c-0.1,0.3-0.3,0.2-0.5,0.2c-2.3,0-4.7,0-7,0
				c-2.3,0-4.6,0-7,0c-0.4,0-0.5,0-0.5-0.5c0-0.5,0.2-0.5,0.6-0.5c4.6,0,9.3,0,13.9,0C16.5,19.7,16.7,20,16.6,20.5z"/>
		</g>
	</g>
</g>
</svg>
