<svg id="Layer_1" data-name="Layer 1" xmlns="http://www.w3.org/2000/svg" viewBox="0 0 100 100"><defs><style>.cls-1{fill:#943cbb;}.cls-2{fill:#fff;}</style></defs><title>01</title><circle class="cls-1" cx="50" cy="50" r="50"/><path class="cls-2" d="M71.15,36.69V63H53.5c0,.84,0,1.64,0,2.44,0,.07.18.18.27.18.68,0,1.35,0,2,0H57v1.73H43V65.6h.38c.91,0,1.82,0,2.74,0,.33,0,.4-.11.39-.4,0-.56,0-1.13,0-1.69V63H28.85V36.69c.7,0,1.4,0,2.09,0,.28,0,.34-.09.34-.35,0-1.08,0-2.16,0-3.24,0-.13,0-.26,0-.4l.24,0L38,34.08l10.13,2.17a5,5,0,0,0,3,.15,4.31,4.31,0,0,1,.69-.16l8.48-1.81L67.13,33l1.59-.32c0,.17,0,.29,0,.41,0,1.08,0,2.16,0,3.24,0,.26.07.35.34.35C69.75,36.66,70.45,36.68,71.15,36.69ZM35,45.35l.05-.09c1.12,0,2.25,0,3.37,0,.27,0,.34-.08.34-.35q0-4.29,0-8.58c0-.23-.06-.34-.3-.39l-3.83-.81L33,34.81c0,.22,0,.37,0,.53Q33,46.18,33,57c0,.56,0,.55.54.67l7.62,1.62,7.59,1.63c.1,0,.21,0,.36,0V60.5q0-10.86,0-21.72a2.27,2.27,0,0,1,0-.27c0-.22-.08-.29-.28-.33l-3.76-.8L43.41,37v8.25h3.81l-6.15,6.82ZM67,34.83l-.5.09-6.6,1.41-8.65,1.84c-.28.06-.38.15-.38.45q0,11,0,22c0,.12,0,.23,0,.37l4.93-1,10.79-2.3c.29-.06.38-.17.38-.46q0-10.94,0-21.88Z"/><path class="cls-2" d="M64.54,38.43l.54,1.66L53.56,43.9,53,42.25Z"/><path class="cls-2" d="M53.56,48.6,53,46.95l11.54-3.81.55,1.66Z"/><path class="cls-2" d="M53,56.34l11.52-3.81.55,1.66L53.56,58Z"/><path class="cls-2" d="M53.56,53.3,53,51.65l11.52-3.81.55,1.65Z"/></svg>