<svg id="Layer_1" data-name="Layer 1" xmlns="http://www.w3.org/2000/svg" viewBox="0 0 100 100"><defs><style>.cls-1{fill:#ffb40f;}.cls-2{fill:#fff;}</style></defs><title>API - Copy</title><circle class="cls-1" cx="50" cy="50" r="50"/><path class="cls-2" d="M66.94,44.73c.24-.15.37.1.52.22.68.54,1.3,1.15,1.95,1.73.44.39.95.67,1.5.14a12.48,12.48,0,0,0,3-3.71v-.36c-.28-.4-.32-.94-.73-1.27-.94-.74-1.74-1.64-2.64-2.43-3.05-2.68-6-5.46-9-8.19-2.32-2.11-4.61-4.25-7-6.32-1.09-1-1.94-2.27-3.49-2.65h-.36A8.5,8.5,0,0,0,48.84,23c-2.2,2-4.44,4-6.68,6-.19.17-.38.45-.68.3s-.19-.42-.2-.65c0-.9,0-1.8,0-2.69s-.19-1-1.07-1.06c-1.47,0-2.93,0-4.4,0-1,0-1.17.15-1.18,1.21,0,2.63,0,5.27,0,7.9a3.38,3.38,0,0,1-1.36,3c-1,.75-1.82,1.64-2.74,2.46a10.24,10.24,0,0,0-2.85,3v.54c.65,1.58,2,2.63,3,3.89.33.39.65.24,1,0,.75-.51,1.31-1.23,2-1.77.5-.38.76-.26.82.36a14.74,14.74,0,0,1,0,1.8c0,1.36-.4,1.62-1.66,1.16s-2.58-1-3.89-1.4c-.78-.25-1-.11-1,.74-.06,3.57-.08,7.13,0,10.7a1,1,0,0,0,.72,1c.74.33,1.51.59,2.27.87s1.79.6,2.81,1.08c-1.43.57-2.73,1-4,1.5-2,.74-1.82.47-1.81,2.68,0,.05,0,.11,0,.16,0,3,0,6.06,0,9.09,0,.63.14,1,.9.77.28-.08.6-.11.9-.18a32.26,32.26,0,0,0,3.57-1.21c1-.33,1.23-.19,1.39.82a1.2,1.2,0,0,0,.45.83H66.36a1.21,1.21,0,0,0,.46-1c.07-1.14.3-1.27,1.41-.91s2.4.88,3.61,1.29a3.1,3.1,0,0,0,2.08.26V63.79c-2.28-.58-4.41-1.58-6.88-2.42,2.46-.87,4.61-1.83,6.88-2.44V47.25c-.25-.36-.57-.3-.93-.17-1.63.59-3.25,1.22-4.89,1.79-.91.32-1.23.1-1.27-.86s0-1.86,0-2.79C66.81,45.05,66.78,44.83,66.94,44.73Zm-13-2c1.71,0,3.41,0,5.12,0,.47,0,.64.18.63.63,0,.9,0,1.8,0,2.69s0,1.74,0,2.6c0,.51-.2.69-.69.68q-2.51,0-5,0c-.54,0-.74-.22-.74-.75q0-2.56,0-5.12C53.25,43,53.4,42.74,54,42.75ZM42.05,46c0-.87,0-1.73,0-2.6,0-.49.17-.69.68-.69,1.67,0,3.35,0,5,0,.57,0,.71.25.71.76q0,2.55,0,5.11c0,.53-.19.76-.74.75q-2.46,0-4.93,0c-.53,0-.76-.19-.74-.73C42.07,47.77,42.05,46.9,42.05,46Zm3.77,21.14-14.4,5.28c-1.11.41-1.16.39-1.17-.76,0-1.92,0-3.84,0-5.75a.88.88,0,0,1,.7-1c2.17-.77,4.33-1.58,6.49-2.37a1.49,1.49,0,0,1,1.12-.09C41.68,63.68,44.83,64.82,48,66c.07,0,.13.1.3.24C47.4,66.56,46.62,66.88,45.82,67.17ZM71.2,64.86a1.22,1.22,0,0,1,1,1.42c-.06.89,0,1.8,0,2.7s0,1.8,0,2.7c0,1.19,0,1.19-1.09.8L52.29,65.58c-7.07-2.59-14.14-5.2-21.23-7.77a1.08,1.08,0,0,1-.84-1.24c0-1.95,0-3.89,0-5.84,0-.66.19-.81.85-.57Q47.06,56,63,61.89C65.74,62.89,68.46,63.91,71.2,64.86Zm0-14.64c1-.35,1-.35,1,.7,0,1.92,0,3.83,0,5.75a1,1,0,0,1-.76,1.12c-2.17.76-4.33,1.57-6.49,2.36a1.38,1.38,0,0,1-1,.09c-3.05-1.14-6.11-2.25-9.17-3.37a.58.58,0,0,1-.47-.43l7.09-2.6Z"/><path class="cls-2" d="M35.35,54.38a1.14,1.14,0,0,0-1.19,1.18,1.18,1.18,0,0,0,1.19,1.2,1.19,1.19,0,0,0,1.2-1.2A1.14,1.14,0,0,0,35.35,54.38Z"/><path class="cls-2" d="M66.3,68.3a1.05,1.05,0,0,0,1.17-1.15A1,1,0,0,0,66.35,66a1.07,1.07,0,0,0-1.22,1.19A1,1,0,0,0,66.3,68.3Z"/><path class="cls-2" d="M35.38,66a1.14,1.14,0,0,0-1.23,1.21A1.2,1.2,0,1,0,35.38,66Z"/><path class="cls-2" d="M66.34,56.77a1.11,1.11,0,0,0,1.13-1.21,1.06,1.06,0,0,0-1.15-1.17,1.09,1.09,0,0,0-1.19,1.14A1.16,1.16,0,0,0,66.34,56.77Z"/></svg>