<?xml version="1.0" encoding="utf-8"?>
<!-- Generator: Adobe Illustrator 21.0.0, SVG Export Plug-In . SVG Version: 6.00 Build 0)  -->
<svg version="1.1" id="Layer_1" xmlns="http://www.w3.org/2000/svg" xmlns:xlink="http://www.w3.org/1999/xlink" x="0px" y="0px"
	 viewBox="0 0 100 100" style="enable-background:new 0 0 100 100;" xml:space="preserve">
<style type="text/css">
	.st0{fill:#438DDF;}
	.st1{fill:#FFFFFF;}
</style>
<g>
	<g>
		<circle class="st0" cx="50" cy="50" r="50"/>
		<g>
			<path class="st1" d="M68,31.4H32c-2.2,0-4.1,1.8-4.1,4v16.2c0,1.2,0.8,2.6,1.5,3.2c0.5,0.5,1.6,0.9,2.6,0.9h36
				c2.2,0,4.1-1.8,4.1-4.1V35.5C72.1,33.2,70.2,31.4,68,31.4 M69.1,47.1c-2.4,0.9-4.5,2.8-5.5,5.6H36.4c-1-2.7-3.2-4.6-5.4-5.5V40
				c2.3-0.9,4.4-2.8,5.4-5.5h27.2c1,2.9,3,4.8,5.5,5.6L69.1,47.1L69.1,47.1z"/>
			<path class="st1" d="M68,31.4H32c-2.2,0-4.1,1.8-4.1,4v16.2c0,1.2,0.8,2.6,1.5,3.2c0.5,0.5,1.6,0.9,2.6,0.9h36
				c2.2,0,4.1-1.8,4.1-4.1V35.5C72.1,33.2,70.2,31.4,68,31.4 M69.1,47.1c-2.4,0.9-4.5,2.8-5.5,5.6H36.4c-1-2.7-3.2-4.6-5.4-5.5V40
				c2.3-0.9,4.4-2.8,5.4-5.5h27.2c1,2.9,3,4.8,5.5,5.6L69.1,47.1L69.1,47.1z"/>
			<path class="st1" d="M50,36.4c-4,0-7.2,3.2-7.2,7.2c0,4,3.2,7.2,7.2,7.2c4,0,7.2-3.2,7.2-7.2C57.1,39.6,53.9,36.4,50,36.4
				 M50.6,47.7V49h-1.3v-1.2c-0.9,0-1.8-0.3-2.3-0.6l0.4-1.5c0.6,0.3,1.3,0.6,2.2,0.6c0.8,0,1.3-0.3,1.3-0.8c0-0.5-0.4-0.8-1.4-1.2
				c-1.4-0.5-2.4-1.1-2.4-2.4c0-1.2,0.8-2.1,2.2-2.4v-1.3h1.3v1.2c0.9,0,1.5,0.2,1.9,0.4l-0.4,1.5c-0.3-0.1-1-0.5-1.9-0.5
				c-0.9,0-1.1,0.4-1.1,0.7c0,0.4,0.5,0.7,1.6,1.1c1.6,0.6,2.2,1.3,2.2,2.5C52.9,46.4,52.1,47.4,50.6,47.7"/>
			<path class="st1" d="M50,36.4c-4,0-7.2,3.2-7.2,7.2c0,4,3.2,7.2,7.2,7.2c4,0,7.2-3.2,7.2-7.2C57.1,39.6,53.9,36.4,50,36.4
				 M50.6,47.7V49h-1.3v-1.2c-0.9,0-1.8-0.3-2.3-0.6l0.4-1.5c0.6,0.3,1.3,0.6,2.2,0.6c0.8,0,1.3-0.3,1.3-0.8c0-0.5-0.4-0.8-1.4-1.2
				c-1.4-0.5-2.4-1.1-2.4-2.4c0-1.2,0.8-2.1,2.2-2.4v-1.3h1.3v1.2c0.9,0,1.5,0.2,1.9,0.4l-0.4,1.5c-0.3-0.1-1-0.5-1.9-0.5
				c-0.9,0-1.1,0.4-1.1,0.7c0,0.4,0.5,0.7,1.6,1.1c1.6,0.6,2.2,1.3,2.2,2.5C52.9,46.4,52.1,47.4,50.6,47.7"/>
			<path class="st1" d="M71.6,56.8c-1.1,0.6-2.6,0.9-3.7,0.9h-2.3c-0.4,0-0.6,0.3-0.6,0.3c-0.6,0.8-1.2,1.7-1.5,2.6h-5.4H42.5h-6.1
				c-0.4-1-0.9-1.9-1.5-2.6c0,0-0.2-0.3-0.6-0.3H32c-1.1,0-2.6-0.3-3.7-0.9c0,0-0.3-0.2-0.4,0v2.8c0,1.2,0.8,2.6,1.5,3.1
				c0.5,0.5,1.6,0.9,2.6,0.9l10.6,0v0H68c1,0,2.1-0.5,2.6-0.9c0.7-0.6,1.5-1.9,1.5-3.1v-2.8C71.9,56.6,71.6,56.8,71.6,56.8"/>
			<path class="st1" d="M71.6,56.8c-1.1,0.6-2.6,0.9-3.7,0.9h-2.3c-0.4,0-0.6,0.3-0.6,0.3c-0.6,0.8-1.2,1.7-1.5,2.6h-5.4H42.5h-6.1
				c-0.4-1-0.9-1.9-1.5-2.6c0,0-0.2-0.3-0.6-0.3H32c-1.1,0-2.6-0.3-3.7-0.9c0,0-0.3-0.2-0.4,0v2.8c0,1.2,0.8,2.6,1.5,3.1
				c0.5,0.5,1.6,0.9,2.6,0.9l10.6,0v0H68c1,0,2.1-0.5,2.6-0.9c0.7-0.6,1.5-1.9,1.5-3.1v-2.8C71.9,56.6,71.6,56.8,71.6,56.8z"/>
			<path class="st1" d="M71.6,64.8c-1.1,0.6-2.6,0.9-3.7,0.9h-2.3c-0.4,0-0.6,0.3-0.6,0.3c-0.6,0.8-1.2,1.7-1.5,2.6h-5.4H42.5h-6.1
				c-0.4-1-0.9-1.9-1.5-2.6c0,0-0.2-0.3-0.6-0.3H32c-1.1,0-2.6-0.3-3.7-0.9c0,0-0.3-0.2-0.4,0v2.8c0,1.2,0.8,2.6,1.5,3.1
				c0.5,0.5,1.6,0.9,2.6,0.9l10.6,0v0H68c1,0,2.1-0.5,2.6-0.9c0.7-0.6,1.5-1.9,1.5-3.1v-2.8C71.9,64.6,71.6,64.8,71.6,64.8"/>
			<path class="st1" d="M71.6,64.8c-1.1,0.6-2.6,0.9-3.7,0.9h-2.3c-0.4,0-0.6,0.3-0.6,0.3c-0.6,0.8-1.2,1.7-1.5,2.6h-5.4H42.5h-6.1
				c-0.4-1-0.9-1.9-1.5-2.6c0,0-0.2-0.3-0.6-0.3H32c-1.1,0-2.6-0.3-3.7-0.9c0,0-0.3-0.2-0.4,0v2.8c0,1.2,0.8,2.6,1.5,3.1
				c0.5,0.5,1.6,0.9,2.6,0.9l10.6,0v0H68c1,0,2.1-0.5,2.6-0.9c0.7-0.6,1.5-1.9,1.5-3.1v-2.8C71.9,64.6,71.6,64.8,71.6,64.8z"/>
		</g>
	</g>
</g>
</svg>
