<svg id="Layer_1" data-name="Layer 1" xmlns="http://www.w3.org/2000/svg" viewBox="0 0 44.44 41.6"><defs><style>.cls-1{fill:none;}.cls-2{fill:#0373b9;}</style></defs><title>Florida Learning Center </title><polygon class="cls-1" points="30.07 31.77 30.12 31.77 30.12 30.68 28.92 30.68 30.07 31.77"/><polygon class="cls-2" points="41.49 7.41 41.49 28.73 42.34 29.35 42.34 6.56 38.84 6.56 38.84 7.41 41.49 7.41"/><polygon class="cls-2" points="30.12 31.82 30.12 31.77 30.07 31.77 30.12 31.82"/><polygon class="cls-2" points="25.37 32.63 23.97 34.03 18.37 34.03 16.97 32.63 0.85 32.63 0.85 7.41 3.5 7.41 3.5 6.56 0 6.56 0 33.48 16.62 33.48 18.01 34.88 24.33 34.88 25.73 33.48 30.12 33.48 30.12 32.63 25.37 32.63"/><polygon class="cls-2" points="30.07 31.77 25.02 31.77 23.62 33.18 18.72 33.18 17.32 31.77 1.71 31.77 1.71 8.27 3.5 8.27 3.5 7.41 0.85 7.41 0.85 32.63 16.97 32.63 18.37 34.03 23.97 34.03 25.37 32.63 30.12 32.63 30.12 31.82 30.07 31.77"/><path class="cls-2" d="M27.12,29h3V20.44l7,5.11V6.16H25.37A3.11,3.11,0,0,0,22,9.51V24.15Zm-1.87-3-.43-.74h0l-.43-.74,2.15-1.24L27,24h0l.43.74Zm7.44-9.78.74.43h0l.74.43-1.24,2.15-.74-.43h0l-.74-.43Zm-3.27-.42h1.71v2.8H29.42Zm-2.3.84h0l.74-.43,1.24,2.15-.74.43h0l-.74.43-1.24-2.15.74-.43ZM24.82,19h0l.43-.74,2.15,1.24-.85,1.48-2.15-1.24.43-.74ZM24,21.27h2.8v.85h0V23H24v-.85h0Z"/><path class="cls-2" d="M22.09,30.37A3.75,3.75,0,0,1,25.37,29h1.74L22,24.15v6.23Z"/><polygon class="cls-2" points="28.02 29.83 28.92 30.68 30.12 30.68 30.12 29.83 28.02 29.83"/><polygon class="cls-2" points="38.84 12.87 38.12 8.27 37.98 8.27 37.98 26.17 38.84 26.8 38.84 12.87"/><path class="cls-2" d="M25.37,5.31H38V6.56h.85V4.45H25.37a4.91,4.91,0,0,0-4,1.84,6.82,6.82,0,0,1,.36,1A3.9,3.9,0,0,1,25.37,5.31Z"/><polygon class="cls-2" points="38.84 8.27 38.12 8.27 38.84 12.87 38.84 8.27"/><polygon class="cls-2" points="38.12 8.27 37.98 7.41 37.98 8.27 38.12 8.27"/><rect class="cls-2" x="37.98" y="6.56" width="0.85" height="0.85"/><polygon class="cls-2" points="38.84 8.27 38.84 7.41 37.98 7.41 38.12 8.27 38.84 8.27"/><path class="cls-2" d="M22.57,31.23H22v.85h1.07l.24-.46c.25-.49.67-.94,2-.94h3.55l-.9-.85H25.37A2.78,2.78,0,0,0,22.57,31.23Z"/><polygon class="cls-2" points="28.02 29.83 30.12 29.83 30.12 28.97 27.12 28.97 28.02 29.83"/><polygon class="cls-2" points="37.98 8.27 37.98 8.27 37.98 7.41 37.98 6.56 37.98 6.56 37.98 8.27"/><path class="cls-2" d="M25.37,29a3.75,3.75,0,0,0-3.28,1.4H22v.85h.55a2.78,2.78,0,0,1,2.8-1.4H28l-.9-.85Z"/><polygon class="cls-2" points="7 6.16 5.21 6.16 5.21 8.22 7 9.92 7 6.16"/><polygon class="cls-2" points="7 9.92 5.21 8.22 5.21 28.97 15.94 28.97 7 26.3 7 9.92"/><polygon class="cls-2" points="4.36 7.41 4.36 7.41 4.36 5.31 7 5.31 7 4.45 3.5 4.45 3.5 6.56 4.36 6.56 4.36 7.41"/><path class="cls-2" d="M3.5,8.27V30.68H17c1.29,0,1.74.4,2,.86l0-.12a3.67,3.67,0,0,0-.5-1.36A4.3,4.3,0,0,0,17,29.83H4.36V7.41h0v.85Z"/><rect class="cls-2" x="3.5" y="6.56" width="0.85" height="0.85"/><rect class="cls-2" x="3.5" y="7.41" width="0.85" height="0.85"/><path class="cls-2" d="M31.83,36.46,35.4,33l3.91,6.9h0a.46.46,0,0,0,.25-.07L41,38.94a.33.33,0,0,0,.18-.28l-4-6.88h5.48l0,0L37,27.59l-5.19,1.92Z"/><polygon class="cls-2" points="31.83 29.51 37.02 27.59 31.83 23.8 31.83 29.51"/><polygon class="cls-2" points="30.98 29.83 30.98 30.68 30.12 30.68 30.12 31.77 30.98 31.77 30.98 32.63 30.98 32.63 30.98 29.83 30.98 29.83"/><polygon class="cls-2" points="38.84 27.23 37.98 27.23 40.63 29.16 40.63 28.1 38.84 26.8 38.84 27.23"/><path class="cls-2" d="M43.91,30.49l-1.57-1.14v.43h-.85l1.93,1.41c.41.27,0,1.36-.5,1.44H38.68l3.24,5.6a1.1,1.1,0,0,1-.47,1.43L40,40.54a1.06,1.06,0,0,1-1.48-.23L35.2,34.38l-3.48,3.37c-.37.36-.74.2-.74-.26V32.63h0v.85h-.85v4a1.29,1.29,0,0,0,.76,1.21,1.32,1.32,0,0,0,1.44-.35L35,35.77l2.83,5a1.74,1.74,0,0,0,1.1.78,1.91,1.91,0,0,0,.44.05,2.13,2.13,0,0,0,1.13-.33l1.41-.89a1.94,1.94,0,0,0,.75-2.58l-2.5-4.32H43A1.8,1.8,0,0,0,44.39,32,1.41,1.41,0,0,0,43.91,30.49Z"/><polygon class="cls-2" points="41.49 29.78 41.3 28.59 40.63 28.1 40.63 29.16 41.49 29.78 42.34 29.78 42.34 29.35 41.49 28.73 41.49 29.78"/><polygon class="cls-2" points="41.49 29.78 41.49 28.73 41.3 28.59 41.49 29.78"/><polygon class="cls-2" points="30.98 32.63 30.98 32.63 30.98 32.63 30.98 32.63"/><rect class="cls-2" x="30.12" y="32.63" width="0.85" height="0.85"/><polygon class="cls-2" points="30.98 32.63 30.98 31.77 30.12 31.77 30.12 31.82 30.98 32.63"/><polygon class="cls-2" points="30.12 31.82 30.12 32.63 30.98 32.63 30.98 32.63 30.12 31.82"/><polygon class="cls-2" points="37.13 26.61 37.13 25.55 30.12 20.44 30.12 28.97 30.98 28.97 30.98 29.83 30.98 29.83 30.98 22.12 37.13 26.61"/><rect class="cls-2" x="30.12" y="29.83" width="0.85" height="0.85"/><polygon class="cls-2" points="38.84 26.8 37.98 26.17 37.98 27.23 37.98 27.23 38.84 27.23 38.84 26.8"/><polygon class="cls-2" points="37.98 27.23 37.98 26.17 37.13 25.55 37.13 26.61 37.98 27.23"/><rect class="cls-2" x="30.12" y="28.97" width="0.85" height="0.85"/><polygon class="cls-2" points="30.28 15.82 30.28 18.62 30.28 18.62 30.28 15.82 29.42 15.82 29.42 18.62 30.28 18.62 30.28 15.82"/><rect class="cls-2" x="26.95" y="16.71" width="0.85" height="2.48" transform="translate(-5.31 16.09) rotate(-29.99)"/><polygon class="cls-2" points="28.48 19 27.24 16.86 27.12 16.66 28.36 18.81 28.48 19"/><polygon class="cls-2" points="26.54 20.95 26.96 20.21 24.82 18.97 24.82 18.97 26.96 20.21 24.82 18.97 24.39 19.71 26.54 20.95"/><rect class="cls-2" x="23.97" y="21.27" width="2.8" height="0.85"/><rect class="cls-2" x="31.2" y="17.09" width="2.48" height="0.85" transform="translate(1.04 36.85) rotate(-59.99)"/><rect class="cls-2" x="24.44" y="23.86" width="2.48" height="0.85" transform="translate(-8.7 16.09) rotate(-30)"/><path class="cls-2" d="M17.7,5l-9-2.69V5.58L20.31,9.24C20.26,8.17,19.91,5.74,17.7,5Z"/><path class="cls-2" d="M20.32,22.53v-13c0-.07,0-.17,0-.27L8.71,5.58v6Z"/><path class="cls-2" d="M18.22,27.87A3.38,3.38,0,0,1,20.32,30V22.53l-11.6-11V25Z"/><path class="cls-2" d="M7.86,1.15,18,4.17a4.57,4.57,0,0,1,2.83,3,4.59,4.59,0,0,1,.55-.92,5.36,5.36,0,0,0-3.13-2.93L7,0V4.45h.85Z"/><path class="cls-2" d="M19.25,32.08,19,31.62l0-.08.12.54Z"/><path class="cls-2" d="M21.17,9.51a4.65,4.65,0,0,1,.55-2.25,6.82,6.82,0,0,0-.36-1,4.59,4.59,0,0,0-.55.92A7.31,7.31,0,0,1,21.17,9.51Z"/><polygon class="cls-2" points="7.86 10.73 7.86 6.16 7 6.16 7 9.92 7.86 10.73"/><path class="cls-2" d="M19,29.34a2.56,2.56,0,0,0-1-.65l-10.12-3V10.73L7,9.92V26.3L15.94,29h1A4.88,4.88,0,0,1,19,29.34Z"/><rect class="cls-2" x="7.01" y="4.45" width="0.85" height="0.85"/><path class="cls-2" d="M19.25,32.08h1.07v-.85h-.55A2.33,2.33,0,0,0,18.43,30a3.67,3.67,0,0,1,.5,1.36l0,.12,0,.08Z"/><polygon class="cls-2" points="21.17 31.23 20.32 31.23 20.32 32.08 22.02 32.08 22.02 31.23 21.17 31.23"/><polygon class="cls-2" points="22.02 24.15 22.02 9.51 21.17 9.51 21.17 23.34 22.02 24.15"/><polygon class="cls-2" points="22.02 31.23 22.02 30.37 22.02 24.15 21.17 23.34 21.17 31.23 22.02 31.23"/><rect class="cls-2" x="7.01" y="5.31" width="0.85" height="0.85"/><path class="cls-2" d="M19.77,31.23A3.91,3.91,0,0,0,19,29.34,4.88,4.88,0,0,0,17,29h-1l1.73.52a1.61,1.61,0,0,1,.77.56A2.33,2.33,0,0,1,19.77,31.23Z"/><path class="cls-2" d="M20.34,9.25h0c0,.1,0,.2,0,.27C20.32,9.42,20.33,9.34,20.34,9.25Z"/><path class="cls-2" d="M20.32,9.51h.85l-.83-.26C20.33,9.34,20.32,9.42,20.32,9.51Z"/><rect class="cls-2" x="7.86" y="4.45" height="0.85"/><rect class="cls-2" x="7.86" y="5.31" height="0.85"/><path class="cls-2" d="M20.25,30.37a3.1,3.1,0,0,0-1.29-1,3.91,3.91,0,0,1,.81,1.88h.55v-.85Z"/><polygon class="cls-2" points="21.17 23.34 21.17 9.51 20.32 9.51 20.32 22.53 21.17 23.34"/><polygon class="cls-2" points="21.17 23.34 20.32 22.53 20.32 30.01 20.32 30.37 20.32 31.23 21.17 31.23 21.17 23.34"/></svg>