<svg id="Layer_1" data-name="Layer 1" xmlns="http://www.w3.org/2000/svg" viewBox="0 0 100 100"><defs><style>.cls-1{fill:#943cbb;}.cls-2{fill:#001871;}.cls-3{fill:#fff;}</style></defs><title>API - Copy</title><circle class="cls-1" cx="50" cy="50" r="50"/><circle class="cls-2" cx="50" cy="50" r="50"/><path class="cls-3" d="M64,25.05l5.13,5.13c-1.16-.3-2.36-.62-3.56-.91a.79.79,0,0,1-.71-.65C64.62,27.37,64.3,26.13,64,25.05Z"/><path class="cls-3" d="M70.71,32.78c0-.89-.29-1.24-1.11-1.42-1.46-.31-2.9-.71-4.36-1A1.53,1.53,0,0,1,63.88,29c-.28-1.5-.79-3-1.09-4.47-.17-.84-.54-1-1.35-1q-15.47,0-30.93,0c-1,0-1.23.27-1.22,1.24,0,8.41,0,16.83,0,25.24s0,16.83,0,25.25c0,1,.2,1.33,1.28,1.32q19.5-.06,39,0c1,0,1.15-.28,1.15-1.19,0-8.18,0-16.36,0-24.53C70.69,44.79,70.66,38.79,70.71,32.78Zm-37.38-.37c2.76.06,20.51,0,23.27,0s5.37,0,8,0c.73,0,1,.13,1,1s-.06,1.13-1,1.12c-5.44,0-25.87,0-31.32,0-.74,0-1.05-.15-1-1S32.4,32.39,33.34,32.42ZM65.68,43c0,.93-.32,1.1-1.16,1.09-5.14,0-10.27,0-15.41,0s-10.19,0-15.29,0c-.74,0-1.25,0-1.25-1S32.92,42,33.74,42q15.41,0,30.82,0C65.32,42,65.67,42.11,65.68,43ZM33.44,37.28c2.73,0,20.44,0,23.16,0s5.29,0,7.94,0c.78,0,1.13.13,1.1,1s-.15,1.11-1,1.1c-5.41,0-25.81,0-31.22,0-.86,0-1-.29-1.06-1.09S32.65,37.27,33.44,37.28Zm.2,9.61q15.51,0,31,0c.87,0,1,.31,1,1.09s-.27,1-1,1c-5.21,0-10.42,0-15.63,0s-10.26,0-15.39,0c-.78,0-1.11-.14-1.11-1S32.83,46.89,33.64,46.89Zm0,4.84c5.17,0,10.34,0,15.52,0s10.34,0,15.52,0c.8,0,1.1.19,1.09,1s-.27,1.06-1.09,1.06q-15.52,0-31,0c-.91,0-1-.38-1-1.12S32.84,51.73,33.61,51.73Zm0,4.91c5.21,0,10.42,0,15.62,0s10.26,0,15.39,0c.8,0,1.1.17,1.09,1s-.32,1-1,1q-15.57,0-31.13,0c-.85,0-.92-.33-.95-1S32.89,56.64,33.63,56.65ZM64.78,73.29q-15.45,0-30.9,0c-.85,0-1.19-.18-1.18-1.1s.41-1,1.15-1c5.13,0,10.26,0,15.39,0s10.34,0,15.51,0c.86,0,1.15.19,1.14,1.1S65.56,73.29,64.78,73.29Zm-.13-5c-5.13,0-10.26,0-15.4,0s-10.19,0-15.28,0c-.71,0-1.14,0-1.15-1s.5-.93,1.17-.93H64.67c.6,0,1.23-.21,1.22.87S65.38,68.32,64.65,68.32Zm1.21-5.15c-.2.62-.73.36-1.1.36-5.17,0-10.34,0-15.5,0s-10.26,0-15.39,0c-.8,0-1.2-.11-1.21-1.07s.5-1,1.24-1q15.39,0,30.77,0C65.78,61.47,66.21,62.08,65.85,63.16Z"/></svg>