<?xml version="1.0" encoding="utf-8"?>
<!-- Generator: Adobe Illustrator 21.0.0, SVG Export Plug-In . SVG Version: 6.00 Build 0)  -->
<svg version="1.1" id="Layer_1" xmlns="http://www.w3.org/2000/svg" xmlns:xlink="http://www.w3.org/1999/xlink" x="0px" y="0px"
	 viewBox="0 0 20.9 18.2" style="enable-background:new 0 0 20.9 18.2;" xml:space="preserve">
<style type="text/css">
	.st0{fill:#7F7E84;}
</style>
<g>
	<g>
		<path class="st0" d="M11.8,18.2c-3,0-5.9-1.5-7.6-4c-0.1-0.2-0.1-0.4,0.1-0.5c0.2-0.1,0.4-0.1,0.5,0.1c1.6,2.3,4.2,3.7,7,3.7
			c4.6,0,8.4-3.8,8.4-8.4c0-4.6-3.8-8.4-8.4-8.4c-2.8,0-5.4,1.4-7,3.7C4.7,4.6,4.4,4.6,4.3,4.5C4.1,4.4,4.1,4.2,4.2,4
			c1.7-2.5,4.5-4,7.6-4c5,0,9.1,4.1,9.1,9.1S16.8,18.2,11.8,18.2z"/>
	</g>
	<g>
		<path class="st0" d="M10.3,4.6c0.3,0,0.6,0.1,0.8,0.3l3.4,3.4c0,0,0.1,0.1,0.1,0.1c0,0,0,0,0,0c0,0,0,0,0,0.1c0,0,0,0,0,0
			c0,0,0,0,0,0.1c0,0,0,0,0,0c0,0,0,0.1,0,0.1c0,0,0,0,0,0c0,0,0,0.1,0,0.1c0,0,0,0,0,0c0,0,0,0.1,0,0.1c0,0,0,0,0,0
			c0,0,0,0.1,0,0.1c0,0,0,0.1,0,0.1c0,0,0,0.1,0,0.1c0,0,0,0.1,0,0.1c0,0,0,0,0,0c0,0,0,0.1,0,0.1c0,0,0,0,0,0c0,0,0,0.1,0,0.1
			c0,0,0,0,0,0c0,0,0,0.1,0,0.1c0,0,0,0,0,0c0,0,0,0.1,0,0.1c0,0,0,0,0,0c0,0,0,0-0.1,0.1c0,0,0,0,0,0c0,0,0,0.1-0.1,0.1l-3.4,3.4
			c-0.2,0.2-0.5,0.3-0.8,0.3c-0.3,0-0.6-0.1-0.8-0.3c-0.4-0.4-0.4-1.2,0-1.6l1.5-1.5H1.8c-0.6,0-1.1-0.5-1.1-1.1
			C0.7,8.5,1.2,8,1.8,8H11L9.5,6.5c-0.4-0.4-0.4-1.2,0-1.6C9.7,4.7,10,4.6,10.3,4.6 M10.3,3.9C9.8,3.9,9.4,4,9,4.4
			C8.7,4.7,8.5,5.2,8.5,5.7c0,0.5,0.2,1,0.5,1.3l0.3,0.3H1.8c-0.5,0-1,0.2-1.3,0.5C0.2,8.2,0,8.6,0,9.1c0,1,0.8,1.8,1.8,1.8h7.5
			L9,11.2c-0.3,0.3-0.5,0.8-0.5,1.3c0,0.5,0.2,1,0.5,1.3c0.3,0.3,0.8,0.5,1.3,0.5s1-0.2,1.3-0.5l3.4-3.4c0,0,0.1-0.1,0.1-0.1l0,0
			l0,0c0,0,0-0.1,0.1-0.1l0,0l0,0c0,0,0-0.1,0.1-0.1l0,0l0,0c0,0,0-0.1,0.1-0.1l0,0l0,0c0,0,0-0.1,0-0.1l0,0l0,0c0,0,0-0.1,0-0.1
			l0,0l0,0c0,0,0-0.1,0-0.1c0-0.1,0-0.1,0-0.2c0-0.1,0-0.1,0-0.2c0,0,0-0.1,0-0.1l0,0c0,0,0,0,0-0.1c0,0,0-0.1,0-0.1l0,0l0,0
			c0,0,0-0.1,0-0.1l0,0l0,0c0,0,0-0.1-0.1-0.1c0,0,0,0,0,0c0,0,0-0.1-0.1-0.1c0,0,0,0,0,0c0,0-0.1-0.1-0.1-0.1c0,0,0,0,0,0
			c0-0.1-0.1-0.1-0.1-0.1l-3.4-3.4C11.3,4,10.8,3.9,10.3,3.9L10.3,3.9z"/>
	</g>
</g>
</svg>
