<?xml version="1.0" encoding="utf-8"?>
<!-- Generator: Adobe Illustrator 21.0.0, SVG Export Plug-In . SVG Version: 6.00 Build 0)  -->
<svg version="1.1" id="Layer_1" xmlns="http://www.w3.org/2000/svg" xmlns:xlink="http://www.w3.org/1999/xlink" x="0px" y="0px"
	 viewBox="0 0 40.3 37.1" style="enable-background:new 0 0 40.3 37.1;" xml:space="preserve">
<style type="text/css">
	.st0{fill:#F92614;}
</style>
<path class="st0" d="M40.3,11.9c-0.1,0.7-0.2,1.4-0.4,2.1c-0.4,1.6-1.2,3-2.4,4.3c-5.5,6.2-11.1,12.3-16.6,18.5
	c-0.4,0.5-0.9,0.5-1.4-0.1c-3.3-3.6-6.6-7.3-9.9-10.9c-2.1-2.4-4.2-4.7-6.4-7.1c-1.7-1.9-2.8-4-3.1-6.5c0-0.1,0-0.2-0.1-0.3v-1.8
	c0-0.3,0.1-0.5,0.1-0.8C1,5,3.4,2,7.5,0.6c4.1-1.4,7.9-0.4,11,2.6c0.6,0.5,1.1,1.2,1.6,1.8c0.1-0.1,0.1-0.1,0.2-0.2
	c2.6-3.5,6.1-5.2,10.4-4.6c4.5,0.6,7.5,3.3,9,7.6c0.2,0.7,0.3,1.5,0.5,2.3V11.9z"/>
</svg>
