<svg id="Layer_1" data-name="Layer 1" xmlns="http://www.w3.org/2000/svg" viewBox="0 0 100 100"><defs><style>.cls-1{fill:#00b1a8;}.cls-2{fill:#fff;}</style></defs><title>01</title><circle class="cls-1" cx="50" cy="50" r="50"/><path class="cls-2" d="M63.89,55.62a8.49,8.49,0,0,0-1.53,2.66H37.6A8.64,8.64,0,0,0,36,55.62h-2.4a5.61,5.61,0,0,1-2.91-.83h-.79v2.55a4.28,4.28,0,0,0,1.33,2.86,4.08,4.08,0,0,0,2.37.83H66.41a3.71,3.71,0,0,0,3.7-3.69V54.2a5.52,5.52,0,0,1-3.7,1.42H63.89Z"/><path class="cls-2" d="M66.41,31.7H33.59a3.67,3.67,0,0,0-3.7,3.65V50.09A4.32,4.32,0,0,0,31.22,53a4.08,4.08,0,0,0,2.37.83H66.41a3.72,3.72,0,0,0,3.7-3.7V35.35A3.67,3.67,0,0,0,66.41,31.7Zm.95,14.25a8.34,8.34,0,0,0-5,5.08H37.6a8.86,8.86,0,0,0-5-5V39.46a8.39,8.39,0,0,0,4.95-5h24.8a7.82,7.82,0,0,0,5,5.1v6.44Z"/><path class="cls-2" d="M50,36.21a6.52,6.52,0,1,0,6.52,6.52A6.52,6.52,0,0,0,50,36.21Zm.54,10.26v1.22H49.36V46.55A4.81,4.81,0,0,1,47.3,46l.36-1.41a4.25,4.25,0,0,0,2,.53c.69,0,1.16-.27,1.16-.75s-.39-.75-1.28-1c-1.29-.43-2.17-1-2.17-2.21a2.23,2.23,0,0,1,2-2.15V37.86H50.6v1.06a4.38,4.38,0,0,1,1.74.4L52,40.68a4,4,0,0,0-1.74-.41c-.78,0-1,.34-1,.67s.42.65,1.44,1c1.44.51,2,1.17,2,2.25A2.32,2.32,0,0,1,50.51,46.46Z"/><path class="cls-2" d="M63.89,62.88a8.47,8.47,0,0,0-1.53,2.66H37.6A8.64,8.64,0,0,0,36,62.88h-2.4a5.6,5.6,0,0,1-2.91-.83h-.79v2.55a4.28,4.28,0,0,0,1.33,2.86,4.08,4.08,0,0,0,2.37.83H66.41a3.71,3.71,0,0,0,3.7-3.69V61.46a5.52,5.52,0,0,1-3.7,1.42H63.89Z"/></svg>