<?xml version="1.0" encoding="utf-8"?>
<!-- Generator: Adobe Illustrator 21.0.0, SVG Export Plug-In . SVG Version: 6.00 Build 0)  -->
<svg version="1.1" id="Layer_1" xmlns="http://www.w3.org/2000/svg" xmlns:xlink="http://www.w3.org/1999/xlink" x="0px" y="0px"
	 viewBox="0 0 1274 302.2" style="enable-background:new 0 0 1274 302.2;" xml:space="preserve">
<style type="text/css">
	.st0{clip-path:url(#SVGID_2_);}
	.st1{clip-path:url(#SVGID_4_);}
	.st2{filter:url(#Adobe_OpacityMaskFilter);}
	.st3{clip-path:url(#SVGID_6_);}
	.st4{clip-path:url(#SVGID_9_);}
	.st5{clip-path:url(#SVGID_11_);}
	.st6{enable-background:new    ;}
	.st7{clip-path:url(#SVGID_13_);}
	.st8{clip-path:url(#SVGID_15_);fill:url(#SVGID_16_);}
	.st9{clip-path:url(#SVGID_6_);mask:url(#SVGID_7_);}
	.st10{filter:url(#Adobe_OpacityMaskFilter_1_);}
	.st11{clip-path:url(#SVGID_21_);}
	.st12{clip-path:url(#SVGID_23_);}
	.st13{clip-path:url(#SVGID_25_);}
	.st14{clip-path:url(#SVGID_27_);fill:url(#SVGID_28_);}
	.st15{clip-path:url(#SVGID_6_);mask:url(#SVGID_19_);}
	.st16{filter:url(#Adobe_OpacityMaskFilter_2_);}
	.st17{clip-path:url(#SVGID_33_);}
	.st18{clip-path:url(#SVGID_35_);}
	.st19{clip-path:url(#SVGID_37_);}
	.st20{clip-path:url(#SVGID_39_);fill:url(#SVGID_40_);}
	.st21{clip-path:url(#SVGID_6_);mask:url(#SVGID_31_);}
	.st22{clip-path:url(#SVGID_6_);fill:#0373BB;}
	.st23{opacity:0.1;clip-path:url(#SVGID_6_);}
	.st24{clip-path:url(#SVGID_44_);}
	.st25{clip-path:url(#SVGID_46_);fill:#E01E6D;}
	.st26{clip-path:url(#SVGID_46_);fill:#FFC93D;}
	.st27{clip-path:url(#SVGID_46_);fill:#4ABDC6;}
	.st28{clip-path:url(#SVGID_46_);fill:#96919B;}
	.st29{opacity:0.63;clip-path:url(#SVGID_6_);}
	.st30{clip-path:url(#SVGID_48_);}
	.st31{clip-path:url(#SVGID_50_);fill:#E01E6D;}
	.st32{opacity:0.65;clip-path:url(#SVGID_6_);}
	.st33{clip-path:url(#SVGID_52_);}
	.st34{clip-path:url(#SVGID_54_);fill:#FFC93D;}
	.st35{clip-path:url(#SVGID_56_);fill:#E01E6D;}
	.st36{clip-path:url(#SVGID_58_);}
	.st37{clip-path:url(#SVGID_60_);fill:#FFC93D;}
	.st38{clip-path:url(#SVGID_62_);}
	.st39{clip-path:url(#SVGID_64_);fill:#FFC93D;}
	.st40{clip-path:url(#SVGID_66_);}
	.st41{clip-path:url(#SVGID_68_);fill:#FFC93D;}
</style>
<g>
	<g>
		<defs>
			<rect id="SVGID_1_" x="0" width="1274" height="302.2"/>
		</defs>
		<clipPath id="SVGID_2_">
			<use xlink:href="#SVGID_1_"  style="overflow:visible;"/>
		</clipPath>
		<g class="st0">
			<defs>
				<rect id="SVGID_3_" x="0" width="1274" height="302.2"/>
			</defs>
			<clipPath id="SVGID_4_">
				<use xlink:href="#SVGID_3_"  style="overflow:visible;"/>
			</clipPath>
			<g class="st1">
				<defs>
					<rect id="SVGID_5_" x="0" width="1274" height="302.2"/>
				</defs>
				<clipPath id="SVGID_6_">
					<use xlink:href="#SVGID_5_"  style="overflow:visible;"/>
				</clipPath>
				<defs>
					<filter id="Adobe_OpacityMaskFilter" filterUnits="userSpaceOnUse" x="93.7" y="98.3" width="0" height="0">
						<feColorMatrix  type="matrix" values="1 0 0 0 0  0 1 0 0 0  0 0 1 0 0  0 0 0 1 0"/>
					</filter>
				</defs>
				<mask maskUnits="userSpaceOnUse" x="93.7" y="98.3" width="0" height="0" id="SVGID_7_">
					<g class="st2">
						<g>
							<defs>
								<path id="SVGID_8_" d="M93.7,98.3L93.7,98.3z"/>
							</defs>
							<clipPath id="SVGID_9_" class="st3">
								<use xlink:href="#SVGID_8_"  style="overflow:visible;"/>
							</clipPath>
							<g>
								<defs>
									<path id="SVGID_10_" d="M93.7,98.3L93.7,98.3z"/>
								</defs>
								<clipPath id="SVGID_11_" class="st4">
									<use xlink:href="#SVGID_10_"  style="overflow:visible;"/>
								</clipPath>
								<path class="st5" d="M93.7,98.3"/>
								<g class="st6">
									<g>
										<defs>
											<path id="SVGID_12_" d="M93.7,98.3L93.7,98.3z"/>
										</defs>
										<clipPath id="SVGID_13_" class="st5">
											<use xlink:href="#SVGID_12_"  style="overflow:visible;"/>
										</clipPath>
										<g>
											<defs>
												
													<rect id="SVGID_14_" x="-287.6" y="-869.7" transform="matrix(0.7314 -0.682 0.682 0.7314 346.0935 -52.7401)" width="787.4" height="808"/>
											</defs>
											<clipPath id="SVGID_15_" class="st7">
												<use xlink:href="#SVGID_14_"  style="overflow:visible;"/>
											</clipPath>
											
												<linearGradient id="SVGID_16_" gradientUnits="userSpaceOnUse" x1="736.5452" y1="566.3295" x2="737.5452" y2="566.3295" gradientTransform="matrix(575.8727 -537.01 537.01 575.8727 -728462.75 69201.2969)">
												<stop  offset="0" style="stop-color:#231F20"/>
												<stop  offset="1" style="stop-color:#231F20"/>
											</linearGradient>
											<polygon class="st8" points="66.8,660.4 1232.2,-426.3 145.4,-1591.7 -1020,-505 											"/>
										</g>
									</g>
								</g>
							</g>
						</g>
					</g>
				</mask>
				<g class="st9">
					<g>
						<defs>
							<path id="SVGID_17_" d="M93.7,98.3L93.7,98.3z"/>
						</defs>
						<clipPath id="SVGID_18_">
							<use xlink:href="#SVGID_17_"  style="overflow:visible;"/>
						</clipPath>
					</g>
				</g>
				<defs>
					<filter id="Adobe_OpacityMaskFilter_1_" filterUnits="userSpaceOnUse" x="794.2" y="98.3" width="0" height="0">
						<feColorMatrix  type="matrix" values="1 0 0 0 0  0 1 0 0 0  0 0 1 0 0  0 0 0 1 0"/>
					</filter>
				</defs>
				<mask maskUnits="userSpaceOnUse" x="794.2" y="98.3" width="0" height="0" id="SVGID_19_">
					<g class="st10">
						<g>
							<defs>
								<path id="SVGID_20_" d="M794.2,98.3L794.2,98.3z"/>
							</defs>
							<clipPath id="SVGID_21_" class="st3">
								<use xlink:href="#SVGID_20_"  style="overflow:visible;"/>
							</clipPath>
							<g>
								<defs>
									<path id="SVGID_22_" d="M794.2,98.3L794.2,98.3z"/>
								</defs>
								<clipPath id="SVGID_23_" class="st11">
									<use xlink:href="#SVGID_22_"  style="overflow:visible;"/>
								</clipPath>
								<path class="st12" d="M794.2,98.3"/>
								<g class="st6">
									<g>
										<defs>
											<path id="SVGID_24_" d="M794.2,98.3L794.2,98.3z"/>
										</defs>
										<clipPath id="SVGID_25_" class="st12">
											<use xlink:href="#SVGID_24_"  style="overflow:visible;"/>
										</clipPath>
										<g>
											<defs>
												
													<rect id="SVGID_26_" x="412.9" y="-869.7" transform="matrix(0.7314 -0.682 0.682 0.7314 534.288 425.0207)" width="787.4" height="808"/>
											</defs>
											<clipPath id="SVGID_27_" class="st13">
												<use xlink:href="#SVGID_26_"  style="overflow:visible;"/>
											</clipPath>
											
												<linearGradient id="SVGID_28_" gradientUnits="userSpaceOnUse" x1="736.5452" y1="566.3295" x2="737.5452" y2="566.3295" gradientTransform="matrix(575.8727 -537.01 537.01 575.8727 -727762.1875 69201.2969)">
												<stop  offset="0" style="stop-color:#231F20"/>
												<stop  offset="1" style="stop-color:#231F20"/>
											</linearGradient>
											<polygon class="st14" points="767.3,660.4 1932.7,-426.3 845.9,-1591.7 -319.4,-505 											"/>
										</g>
									</g>
								</g>
							</g>
						</g>
					</g>
				</mask>
				<g class="st15">
					<g>
						<defs>
							<path id="SVGID_29_" d="M794.2,98.3L794.2,98.3z"/>
						</defs>
						<clipPath id="SVGID_30_">
							<use xlink:href="#SVGID_29_"  style="overflow:visible;"/>
						</clipPath>
					</g>
				</g>
				<defs>
					<filter id="Adobe_OpacityMaskFilter_2_" filterUnits="userSpaceOnUse" x="1150.5" y="98.3" width="0" height="0">
						<feColorMatrix  type="matrix" values="1 0 0 0 0  0 1 0 0 0  0 0 1 0 0  0 0 0 1 0"/>
					</filter>
				</defs>
				<mask maskUnits="userSpaceOnUse" x="1150.5" y="98.3" width="0" height="0" id="SVGID_31_">
					<g class="st16">
						<g>
							<defs>
								<path id="SVGID_32_" d="M1150.5,98.3L1150.5,98.3z"/>
							</defs>
							<clipPath id="SVGID_33_" class="st3">
								<use xlink:href="#SVGID_32_"  style="overflow:visible;"/>
							</clipPath>
							<g>
								<defs>
									<path id="SVGID_34_" d="M1150.5,98.3L1150.5,98.3z"/>
								</defs>
								<clipPath id="SVGID_35_" class="st17">
									<use xlink:href="#SVGID_34_"  style="overflow:visible;"/>
								</clipPath>
								<path class="st18" d="M1150.5,98.3"/>
								<g class="st6">
									<g>
										<defs>
											<path id="SVGID_36_" d="M1150.5,98.3L1150.5,98.3z"/>
										</defs>
										<clipPath id="SVGID_37_" class="st18">
											<use xlink:href="#SVGID_36_"  style="overflow:visible;"/>
										</clipPath>
										<g>
											<defs>
												
													<rect id="SVGID_38_" x="769.2" y="-869.7" transform="matrix(0.7314 -0.682 0.682 0.7314 629.9971 667.9924)" width="787.4" height="808"/>
											</defs>
											<clipPath id="SVGID_39_" class="st19">
												<use xlink:href="#SVGID_38_"  style="overflow:visible;"/>
											</clipPath>
											
												<linearGradient id="SVGID_40_" gradientUnits="userSpaceOnUse" x1="736.5452" y1="566.3295" x2="737.5452" y2="566.3295" gradientTransform="matrix(575.8727 -537.0101 537.0101 575.8727 -727406 69201.3125)">
												<stop  offset="0" style="stop-color:#231F20"/>
												<stop  offset="1" style="stop-color:#231F20"/>
											</linearGradient>
											<polygon class="st20" points="1123.6,660.4 2289,-426.3 1202.2,-1591.7 36.8,-505 											"/>
										</g>
									</g>
								</g>
							</g>
						</g>
					</g>
				</mask>
				<g class="st21">
					<g>
						<defs>
							<path id="SVGID_41_" d="M1150.5,98.3L1150.5,98.3z"/>
						</defs>
						<clipPath id="SVGID_42_">
							<use xlink:href="#SVGID_41_"  style="overflow:visible;"/>
						</clipPath>
					</g>
				</g>
				<path class="st22" d="M1263,302.2H11c-6.1,0-11-4.9-11-11V11C0,4.9,4.9,0,11,0h1252c6.1,0,11,4.9,11,11v280.2
					C1274,297.3,1269.1,302.2,1263,302.2"/>
				<g class="st23">
					<g>
						<defs>
							<rect id="SVGID_43_" x="7.6" y="2.6" width="1258.8" height="297.6"/>
						</defs>
						<clipPath id="SVGID_44_">
							<use xlink:href="#SVGID_43_"  style="overflow:visible;"/>
						</clipPath>
						<g class="st24">
							<defs>
								<rect id="SVGID_45_" x="7.6" y="2.6" width="1258.8" height="297.6"/>
							</defs>
							<clipPath id="SVGID_46_">
								<use xlink:href="#SVGID_45_"  style="overflow:visible;"/>
							</clipPath>
							<path class="st25" d="M77.4,146.4l-0.6,0.6c-2.1,2.1-2.2,5.9,0,7.9c2.2,2.1,5.7,2.2,7.9,0c0.2-0.2,0.4-0.4,0.6-0.6
								c2.1-2.1,2.2-5.9,0-7.9C83.1,144.4,79.6,144.2,77.4,146.4"/>
							<path class="st26" d="M39.1,140c-1.4,4.6-3.2,9.1-5.2,13.4c-1.5,3.2,3.3,6.1,4.8,2.8c2.2-4.8,4.2-9.7,5.8-14.8
								C45.6,138.1,40.2,136.6,39.1,140"/>
							<path class="st26" d="M92.8,95.1v0.4c0,2.9,2.6,5.7,5.6,5.6c3-0.1,5.6-2.5,5.6-5.6v-0.4c0-2.9-2.6-5.7-5.6-5.6
								C95.4,89.6,92.8,92,92.8,95.1"/>
							<path class="st27" d="M20.4,44.9c11.1,5.5,25.7,3.3,29.7-9.9c1-3.5-4.4-4.9-5.4-1.5C41.8,43,31,43.9,23.2,40.1
								C20,38.5,17.1,43.3,20.4,44.9"/>
							<path class="st25" d="M32,23.6c6.8-9.5,17.8-13.2,29-10.2c3.5,0.9,5-4.5,1.5-5.4C48.7,4.3,35.4,9.2,27.2,20.8
								C25.1,23.8,30,26.6,32,23.6"/>
							<path class="st28" d="M28.8,68.3C24.9,73.9,21,79.5,17.1,85c-2.1,3,2.8,5.8,4.8,2.8l11.7-16.7C35.7,68.2,30.9,65.4,28.8,68.3
								"/>
							<path class="st26" d="M119.6,23.4c-2.6,13.7,9.9,25.7,22.5,28.1c3.5,0.6,5-4.8,1.5-5.4c-9.3-1.7-20.6-10.4-18.6-21.2
								C125.6,21.3,120.2,19.8,119.6,23.4"/>
							<path class="st27" d="M158.9,44c12.1-14.9,23.6,1.8,36.9,3.6c8.9,1.2,17.2-2.3,23.4-8.6c2.5-2.6-1.4-6.6-4-4
								c-6.5,6.7-15.3,8.9-24.1,5.3c-5.1-2.1-9.3-6.3-14.7-7.8c-8.3-2.2-16.2,1-21.5,7.5C152.7,42.8,156.6,46.8,158.9,44"/>
							<polygon class="st27" points="346.7,29.9 328,50.9 309.2,71.9 300.4,45.2 291.6,18.5 319.1,24.2 							"/>
							<path class="st25" d="M158.2,176.4c3.2,5.8,5.6,11.9,7.3,18.4c0.9,3.5,6.3,2,5.4-1.5c-1.8-6.9-4.4-13.5-7.8-19.7
								C161.3,170.4,156.4,173.2,158.2,176.4"/>
							<path class="st26" d="M250,151.3c1.1,4.9,2.1,9.7,3.2,14.6c0.8,3.5,6.2,2,5.4-1.5c-1.1-4.9-2.1-9.7-3.2-14.6
								C254.6,146.2,249.2,147.7,250,151.3"/>
							<path class="st27" d="M292.2,145.5c7.2,0,7.2-11.2,0-11.2C285,134.3,285,145.5,292.2,145.5"/>
							<path class="st26" d="M316,124.2c11.6-4.4,23.1,0.3,28.3,11.6c1.5,3.3,6.3,0.4,4.8-2.8c-6.1-13.4-20.9-19.4-34.6-14.1
								C311.1,120,312.6,125.4,316,124.2"/>
							<path class="st26" d="M250.6,25.2c3.5,3,6.9,6.2,10,9.6c2.4,2.7,6.4-1.3,4-4c-3.1-3.4-6.4-6.7-10-9.6
								C251.8,19,247.8,22.9,250.6,25.2"/>
							<path class="st28" d="M148.5,73.5c6.6,9,18.9,11.9,28.6,6.1c3.1-1.8,0.3-6.7-2.8-4.8c-6.9,4.1-16.2,2.5-20.9-4.1
								C151.3,67.8,146.4,70.6,148.5,73.5"/>
							<path class="st27" d="M205.6,284.2c4.5,3.3,9.1,6.6,13.6,9.8c2.9,2.1,5.7-2.7,2.8-4.8c-4.5-3.3-9.1-6.6-13.6-9.8
								C205.5,277.3,202.7,282.1,205.6,284.2"/>
							<path class="st25" d="M151.2,244.1c-0.4,4.7-1.1,9.3-2.3,13.8c-0.9,3.5,4.5,5,5.4,1.5c1.3-5,2.1-10.1,2.5-15.3
								C157.1,240.5,151.5,240.5,151.2,244.1"/>
							<path class="st25" d="M202.6,230.8c8.4,5.5,16.3,11.7,23.8,18.4c5.3,4.8,13.3-3.1,7.9-7.9c-8.2-7.4-16.8-14.1-26-20.2
								C202.2,217.1,196.6,226.8,202.6,230.8"/>
							<path class="st27" d="M63.7,251.4c7.2,0,7.2-11.2,0-11.2C56.4,240.2,56.4,251.4,63.7,251.4"/>
							<path class="st27" d="M187.5,202.7v0.6c0,2.9,2.6,5.7,5.6,5.6c3-0.1,5.6-2.5,5.6-5.6v-0.6c0-2.9-2.6-5.7-5.6-5.6
								C190,197.2,187.5,199.5,187.5,202.7"/>
							<path class="st26" d="M16.9,262.1c0,9.1,7.9,16.9,17.1,16.7c3.6-0.1,3.6-5.7,0-5.6c-6.1,0.1-11.5-4.9-11.5-11.1
								C22.5,258.5,16.9,258.5,16.9,262.1"/>
							<path class="st26" d="M89.9,202.3c-3.3,7-4.2,14.4-1.3,21.7c1.2,3,3,5.6,5.1,7.9c3.1,3.2,13.5,8.9,9.6,14.6
								c-4.1,5.9,5.6,11.6,9.7,5.7c4-5.8,3-12.9-1.1-18.5c-6.2-8.5-18.5-12.8-12.4-25.7C102.6,201.5,93,195.8,89.9,202.3"/>
							<path class="st27" d="M134.8,167.9h-0.6c-2.9,0-5.7,2.6-5.6,5.6c0.1,3,2.5,5.6,5.6,5.6h0.6c2.9,0,5.7-2.6,5.6-5.6
								C140.3,170.5,137.9,167.9,134.8,167.9"/>
							<path class="st26" d="M169,110.8v0.6c0,2.9,2.6,5.7,5.6,5.6c3-0.1,5.6-2.5,5.6-5.6v-0.6c0-2.9-2.6-5.7-5.6-5.6
								C171.5,105.3,169,107.6,169,110.8"/>
							<path class="st26" d="M140.4,8.3v0.6c0,2.9,2.6,5.7,5.6,5.6c3-0.1,5.6-2.5,5.6-5.6V8.3c0-2.9-2.6-5.7-5.6-5.6
								C143,2.8,140.4,5.1,140.4,8.3"/>
							<path class="st26" d="M92.5,9.6c3.8,2.5,6.2,6.2,7.1,10.6c0.7,3.5,6.1,2,5.4-1.5c-1.2-5.8-4.7-10.8-9.7-14
								C92.3,2.8,89.5,7.6,92.5,9.6"/>
							<path class="st26" d="M139.8,216.7c7.2,0,7.2-11.2,0-11.2C132.6,205.5,132.6,216.7,139.8,216.7"/>
							<path class="st26" d="M15.1,176.8c-2,3.4-4.2,6.7-6.7,9.8c-0.9,1.2-1.1,2.8,0,4c1,1,3,1.2,4,0c2.8-3.5,5.3-7.1,7.6-11
								C21.8,176.5,16.9,173.7,15.1,176.8"/>
							<path class="st27" d="M356.5,240.6c4.7-4.4,10.6-6.4,17-6c3.6,0.2,3.6-5.4,0-5.6c-7.8-0.5-15.2,2.3-21,7.7
								C349.9,239.1,353.8,243,356.5,240.6"/>
							<path class="st28" d="M376.4,186.6c0.7,3.4,0.5,6.9-0.9,10.2c-1.4,3.3,3.4,6.1,4.8,2.8c2-4.7,2.5-9.5,1.4-14.5
								C381,181.6,375.6,183.1,376.4,186.6"/>
							<path class="st27" d="M419.9,139.5c-6.1,4.4-9,11.8-7.1,19.1c0.9,3.5,6.3,2,5.4-1.5c-1.2-4.8,0.5-9.9,4.5-12.8
								C425.6,142.2,422.8,137.3,419.9,139.5"/>
							<path class="st26" d="M467.3,164.6c2.5,7.9,9.5,8.5,16.6,6.9c3.5-0.8,2-6.2-1.5-5.4c-3.9,0.9-8.3,1.7-9.7-2.9
								C471.6,159.7,466.2,161.2,467.3,164.6"/>
							<path class="st26" d="M460.9,251.4c4.9,0.2,9.7,0.4,14.6,0.6c3.6,0.1,3.6-5.5,0-5.6c-4.9-0.2-9.7-0.4-14.6-0.6
								C457.3,245.7,457.3,251.3,460.9,251.4"/>
							<path class="st26" d="M459.2,275.5c5.5,0,11-0.6,16.4-1.8c3.5-0.8,2-6.2-1.5-5.4c-4.9,1.1-9.9,1.6-14.9,1.6
								C455.6,269.9,455.6,275.5,459.2,275.5"/>
							<path class="st26" d="M460.9,299.5c4.5-0.2,9-0.3,13.4-0.5c3.6-0.1,3.6-5.7,0-5.6c-4.5,0.2-9,0.3-13.4,0.5
								C457.3,294,457.3,299.6,460.9,299.5"/>
							<path class="st26" d="M497.9,218.4c7.2,0,7.2-11.2,0-11.2C490.7,207.2,490.6,218.4,497.9,218.4"/>
							<path class="st28" d="M454.2,228.4h0.6c2.9,0,5.7-2.6,5.6-5.6c-0.1-3-2.5-5.6-5.6-5.6h-0.6c-2.9,0-5.7,2.6-5.6,5.6
								C448.7,225.9,451,228.4,454.2,228.4"/>
							<path class="st25" d="M437.4,287.8c7.2,0,7.2-11.2,0-11.2C430.1,276.6,430.1,287.8,437.4,287.8"/>
							<path class="st28" d="M537.6,255.5c8.3,11.2,5.1,24.6-3.1,34.9c-4.4,5.6,3.4,13.6,7.9,7.9c11.1-14,16.3-33,4.8-48.5
								C543,244.1,533.3,249.7,537.6,255.5"/>
							<path class="st26" d="M568.9,240.1c-2.6-6.1,4.8-9.4,9.4-11c3.4-1.2,1.9-6.6-1.5-5.4c-4.2,1.5-8.6,3.2-11.4,6.9
								c-2.4,3.1-3.5,7.3-1.9,11C564.9,244.8,570.3,243.4,568.9,240.1"/>
							<path class="st27" d="M600.2,68.2c-4.2-11.6,0-22.6,6.1-32.6c1.9-3.1-3-5.9-4.8-2.8c-6.9,11.2-11.4,24-6.7,37
								C596,73,601.4,71.6,600.2,68.2"/>
							<path class="st25" d="M561.7,44.2c11.4,4.4,16.3,16.3,12.4,27.7c-1.2,3.4,4.2,4.9,5.4,1.5c5-14.5-2.1-29.1-16.3-34.6
								C559.8,37.5,558.3,42.9,561.7,44.2"/>
							<path class="st25" d="M616.6,49.7v0.6c0,2.9,2.6,5.7,5.6,5.6c3-0.1,5.6-2.5,5.6-5.6v-0.6c0-2.9-2.6-5.7-5.6-5.6
								C619.2,44.3,616.6,46.6,616.6,49.7"/>
							<path class="st26" d="M340.6,94.2c7-8.5,14-17,21-25.5c-2.3,0.3-4.5,0.6-6.8,0.9c4.2,2.9,8.4,5.8,12.6,8.7
								c1.9,1.3,5.3,0.9,6.8-0.9l29.3-33.9c4.7-5.4-3.2-13.4-7.9-7.9l-29.3,33.9l6.8-0.9l-12.6-8.7c-1.9-1.3-5.3-0.9-6.8,0.9
								c-7,8.5-14,17-21,25.5C328.2,91.8,336,99.8,340.6,94.2"/>
							<path class="st27" d="M363.1,99.8c0.1-0.1,0.2-0.2,0.4-0.4c2.1-2.1,2.2-5.9,0-7.9c-2.2-2.1-5.7-2.2-7.9,0
								c-0.1,0.1-0.2,0.2-0.4,0.4c-2.1,2.1-2.2,5.9,0,7.9C357.4,101.9,360.8,102,363.1,99.8"/>
							<path class="st26" d="M383.9,100c-0.5,3.7-1.5,7.4-2.9,10.8c-1.3,3.4,4.1,4.8,5.4,1.5c1.6-4,2.5-8.1,3.1-12.3
								C390,96.4,384.3,96.4,383.9,100"/>
							<path class="st26" d="M405.4,74.2c7.2,0,7.2-11.2,0-11.2C398.2,63,398.2,74.2,405.4,74.2"/>
							<path class="st26" d="M439.4,56.6h0.4c2.9,0,5.7-2.6,5.6-5.6c-0.1-3-2.5-5.6-5.6-5.6h-0.4c-2.9,0-5.7,2.6-5.6,5.6
								C433.9,54.1,436.3,56.6,439.4,56.6"/>
							<path class="st27" d="M432.9,79.1c4.9-2.3,9.9-4.1,15.1-5.5c3.5-0.9,2-6.3-1.5-5.4c-5.7,1.5-11.1,3.5-16.4,6.1
								C426.8,75.8,429.7,80.6,432.9,79.1"/>
							<path class="st28" d="M529.4,35.3c7.2,0,7.2-11.2,0-11.2C522.2,24.1,522.2,35.3,529.4,35.3"/>
							<path class="st26" d="M583.7,21.6c2-2.3,4.2-4.4,6.6-6.3c1.2-0.9,1.8-2.4,1-3.8c-0.7-1.2-2.6-1.9-3.8-1
								c-2.8,2.1-5.4,4.5-7.7,7.1C577.4,20.4,581.3,24.3,583.7,21.6"/>
							<path class="st28" d="M638,11.5c3.7,3.6,6.4,8,7.8,13c1,3.4,6.4,2,5.4-1.5c-1.8-5.9-4.9-11.1-9.3-15.4
								C639.4,5.1,635.4,9,638,11.5"/>
							<path class="st26" d="M549.7,63c-6.9,6.8-7.5,16.2-7.6,25.4c0,3.6,5.6,3.6,5.6,0c0-7.6,0.1-15.8,5.9-21.5
								C556.2,64.4,552.3,60.4,549.7,63"/>
							<path class="st26" d="M525.7,105.9c7.2,0,7.2-11.2,0-11.2C518.5,94.7,518.5,105.9,525.7,105.9"/>
							<path class="st26" d="M553.7,192.6h0.4c2.9,0,5.7-2.6,5.6-5.6c-0.1-3-2.5-5.6-5.6-5.6h-0.4c-2.9,0-5.7,2.6-5.6,5.6
								C548.2,190,550.6,192.6,553.7,192.6"/>
							<path class="st25" d="M1196.6,156.5l0.6-0.6c2.1-2.1,2.2-5.9,0-7.9c-2.2-2.1-5.7-2.2-7.9,0c-0.2,0.2-0.4,0.4-0.6,0.6
								c-2.1,2.1-2.2,5.9,0,7.9C1190.9,158.5,1194.4,158.7,1196.6,156.5"/>
							<path class="st25" d="M1217.2,220.7c-6.8-5.7-12.9-7.9-20.5-2.3c-6.5,4.8-10,9.6-18.4,11.7c-9.7,2.4-19.9,0.6-29.5-1.1
								c-3.5-0.6-5,4.8-1.5,5.4c11.2,2,22.9,4,34.1,0.7c4.5-1.3,8.5-3.4,12.2-6.3c6.6-5.3,10.8-11.7,19.6-4.2
								C1216,227,1220,223,1217.2,220.7"/>
							<path class="st26" d="M1234.9,162.9c1.4-4.6,3.2-9.1,5.2-13.4c1.5-3.2-3.3-6.1-4.8-2.8c-2.2,4.8-4.2,9.7-5.8,14.8
								C1228.4,164.9,1233.8,166.3,1234.9,162.9"/>
							<path class="st26" d="M1181.2,207.8v-0.4c0-2.9-2.6-5.7-5.6-5.6c-3,0.1-5.6,2.5-5.6,5.6v0.4c0,2.9,2.6,5.7,5.6,5.6
								C1178.6,213.3,1181.2,211,1181.2,207.8"/>
							<path class="st27" d="M1253.6,258c-11.1-5.5-25.7-3.3-29.7,9.9c-1,3.5,4.4,4.9,5.4,1.5c2.9-9.5,13.7-10.4,21.5-6.6
								C1254,264.5,1256.9,259.6,1253.6,258"/>
							<path class="st25" d="M1242,279.3c-6.8,9.5-17.8,13.2-29,10.2c-3.5-0.9-5,4.5-1.5,5.4c13.8,3.7,27.1-1.2,35.3-12.8
								C1248.9,279.2,1244.1,276.4,1242,279.3"/>
							<path class="st28" d="M1245.2,234.6c3.9-5.6,7.8-11.1,11.7-16.7c2.1-3-2.8-5.8-4.8-2.8c-3.9,5.6-7.8,11.1-11.7,16.7
								C1238.3,234.7,1243.1,237.5,1245.2,234.6"/>
							<path class="st27" d="M1115.1,258.9c-12.1,14.9-23.6-1.8-36.9-3.6c-8.9-1.2-17.2,2.3-23.4,8.6c-2.5,2.6,1.4,6.6,4,4
								c6.5-6.7,15.3-8.9,24.1-5.3c5.1,2.1,9.3,6.3,14.7,7.8c8.3,2.2,16.2-1,21.5-7.5C1121.3,260.1,1117.4,256.1,1115.1,258.9"/>
							<polygon class="st27" points="927.3,273 946.1,252 964.8,231 973.6,257.7 982.4,284.4 954.9,278.7 							"/>
							<path class="st25" d="M1115.8,126.5c-3.2-5.8-5.6-11.9-7.3-18.4c-0.9-3.5-6.3-2-5.4,1.5c1.8,6.9,4.4,13.5,7.8,19.7
								C1112.7,132.5,1117.6,129.7,1115.8,126.5"/>
							<path class="st26" d="M1024,151.7c-1.1-4.9-2.1-9.7-3.2-14.6c-0.8-3.5-6.2-2-5.4,1.5c1.1,4.9,2.1,9.7,3.2,14.6
								C1019.4,156.7,1024.8,155.2,1024,151.7"/>
							<path class="st27" d="M981.8,157.4c-7.2,0-7.2,11.2,0,11.2C989,168.6,989,157.4,981.8,157.4"/>
							<path class="st26" d="M1023.4,277.7c-3.5-3-6.9-6.2-10-9.6c-2.4-2.7-6.4,1.3-4,4c3.1,3.4,6.4,6.7,10,9.6
								C1022.2,283.9,1026.2,280,1023.4,277.7"/>
							<path class="st28" d="M1125.5,229.4c-6.6-9-18.9-11.9-28.6-6.1c-3.1,1.8-0.3,6.7,2.8,4.8c6.9-4.1,16.2-2.5,20.9,4.1
								C1122.7,235.1,1127.6,232.3,1125.5,229.4"/>
							<path class="st27" d="M1068.4,18.7c-4.5-3.3-9.1-6.6-13.6-9.8c-2.9-2.1-5.7,2.7-2.8,4.8c4.5,3.3,9.1,6.6,13.6,9.8
								C1068.5,25.7,1071.3,20.8,1068.4,18.7"/>
							<path class="st25" d="M1122.8,58.8c0.4-4.7,1.1-9.3,2.3-13.8c0.9-3.5-4.5-5-5.4-1.5c-1.3,5-2.1,10.1-2.5,15.3
								C1116.9,62.4,1122.5,62.4,1122.8,58.8"/>
							<path class="st25" d="M1071.4,72.1c-8.4-5.5-16.3-11.7-23.8-18.4c-5.3-4.8-13.3,3.1-7.9,7.9c8.1,7.4,16.8,14.1,26,20.2
								C1071.8,85.8,1077.4,76.1,1071.4,72.1"/>
							<path class="st27" d="M1210.3,51.5c-7.2,0-7.2,11.2,0,11.2C1217.6,62.7,1217.6,51.5,1210.3,51.5"/>
							<path class="st26" d="M990.7,33.1c-15-5.7-31.6-2-42.9,9.3c-2.6,2.5,1.4,6.5,4,4c10.1-10,24.3-12.8,37.5-7.8
								C992.5,39.8,994,34.4,990.7,33.1"/>
							<path class="st27" d="M1086.5,100.2v-0.6c0-2.9-2.6-5.7-5.6-5.6c-3,0.1-5.6,2.5-5.6,5.6v0.6c0,2.9,2.6,5.7,5.6,5.6
								C1084,105.7,1086.5,103.4,1086.5,100.2"/>
							<path class="st27" d="M1139.2,135h0.6c2.9,0,5.7-2.6,5.6-5.6c-0.1-3-2.5-5.6-5.6-5.6h-0.6c-2.9,0-5.7,2.6-5.6,5.6
								C1133.7,132.4,1136.1,135,1139.2,135"/>
							<path class="st26" d="M1105,192.1v-0.6c0-2.9-2.6-5.7-5.6-5.6c-3,0.1-5.6,2.5-5.6,5.6v0.6c0,2.9,2.6,5.7,5.6,5.6
								C1102.5,197.6,1105,195.3,1105,192.1"/>
							<path class="st26" d="M1133.6,294.7v-0.6c0-2.9-2.6-5.7-5.6-5.6c-3,0.1-5.6,2.5-5.6,5.6v0.6c0,2.9,2.6,5.7,5.6,5.6
								C1131,300.1,1133.6,297.8,1133.6,294.7"/>
							<path class="st26" d="M1181.5,293.3c-3.8-2.5-6.2-6.2-7.1-10.6c-0.7-3.5-6.1-2-5.4,1.5c1.2,5.8,4.7,10.8,9.7,14
								C1181.7,300.1,1184.5,295.3,1181.5,293.3"/>
							<path class="st26" d="M1134.2,86.2c-7.2,0-7.2,11.2,0,11.2C1141.4,97.4,1141.4,86.2,1134.2,86.2"/>
							<path class="st26" d="M1258.9,126.1c2-3.4,4.2-6.7,6.7-9.8c0.9-1.2,1.1-2.8,0-4c-1-1-3-1.2-4,0c-2.8,3.5-5.3,7.1-7.6,11
								C1252.2,126.4,1257.1,129.2,1258.9,126.1"/>
							<path class="st27" d="M917.5,62.3c-4.7,4.4-10.6,6.4-17,6c-3.6-0.2-3.6,5.4,0,5.6c7.8,0.5,15.2-2.3,21-7.7
								C924.1,63.8,920.2,59.9,917.5,62.3"/>
							<path class="st28" d="M897.6,116.3c-0.7-3.4-0.5-6.9,0.9-10.2c1.4-3.3-3.4-6.1-4.8-2.8c-2,4.7-2.5,9.5-1.4,14.5
								C893,121.3,898.4,119.8,897.6,116.3"/>
							<path class="st27" d="M854.1,163.5c6.1-4.4,9-11.8,7.1-19.1c-0.9-3.5-6.3-2-5.4,1.5c1.2,4.8-0.5,9.9-4.5,12.8
								C848.4,160.7,851.2,165.6,854.1,163.5"/>
							<path class="st26" d="M806.7,138.3c-2.5-7.9-9.5-8.5-16.6-6.9c-3.5,0.8-2,6.2,1.5,5.4c3.9-0.9,8.3-1.7,9.7,2.9
								C802.4,143.2,807.8,141.7,806.7,138.3"/>
							<path class="st26" d="M813.1,51.5L798.6,51c-3.6-0.1-3.6,5.5,0,5.6l14.6,0.6C816.7,57.3,816.7,51.7,813.1,51.5"/>
							<path class="st26" d="M814.8,27.4c-5.5,0-11,0.6-16.4,1.8c-3.5,0.8-2,6.2,1.5,5.4c4.9-1.1,9.9-1.6,14.9-1.6
								C818.4,33,818.4,27.4,814.8,27.4"/>
							<path class="st26" d="M813.1,3.5c-4.5,0.2-9,0.3-13.4,0.5c-3.6,0.1-3.6,5.7,0,5.6c4.5-0.2,9-0.3,13.4-0.5
								C816.7,8.9,816.7,3.3,813.1,3.5"/>
							<path class="st26" d="M776.1,84.6c-7.2,0-7.2,11.2,0,11.2C783.3,95.8,783.4,84.6,776.1,84.6"/>
							<path class="st28" d="M819.8,74.5h-0.6c-2.9,0-5.7,2.6-5.6,5.6c0.1,3,2.5,5.6,5.6,5.6h0.6c2.9,0,5.7-2.6,5.6-5.6
								C825.3,77,823,74.5,819.8,74.5"/>
							<path class="st25" d="M836.6,15.1c-7.2,0-7.2,11.2,0,11.2C843.9,26.3,843.9,15.1,836.6,15.1"/>
							<path class="st26" d="M705.1,62.9c2.6,6.1-4.8,9.4-9.4,11c-3.4,1.2-1.9,6.6,1.5,5.4c4.2-1.5,8.6-3.2,11.4-6.9
								c2.4-3.1,3.5-7.3,1.9-11C709.1,58.1,703.7,59.5,705.1,62.9"/>
							<path class="st27" d="M673.8,234.8c4.2,11.6,0,22.6-6.1,32.6c-1.9,3.1,3,5.9,4.8,2.8c6.9-11.2,11.4-24,6.7-37
								C678,229.9,672.6,231.4,673.8,234.8"/>
							<path class="st25" d="M712.3,258.7c-11.4-4.4-16.3-16.3-12.4-27.7c1.2-3.4-4.2-4.9-5.4-1.5c-5,14.5,2.1,29.1,16.3,34.6
								C714.2,265.4,715.7,260,712.3,258.7"/>
							<path class="st25" d="M657.4,253.2v-0.6c0-2.9-2.6-5.7-5.6-5.6c-3,0.1-5.6,2.5-5.6,5.6v0.6c0,2.9,2.6,5.7,5.6,5.6
								C654.8,258.7,657.4,256.3,657.4,253.2"/>
							<path class="st27" d="M910.9,203.1c-0.1,0.1-0.2,0.2-0.4,0.4c-2.1,2.1-2.2,5.9,0,7.9c2.2,2.1,5.7,2.2,7.9,0l0.4-0.4
								c2.1-2.1,2.2-5.9,0-7.9C916.6,201.1,913.2,200.9,910.9,203.1"/>
							<path class="st26" d="M890.1,203c0.5-3.7,1.5-7.4,2.9-10.8c1.3-3.4-4.1-4.8-5.4-1.5c-1.6,4-2.5,8.1-3.1,12.3
								C884,206.5,889.7,206.5,890.1,203"/>
							<path class="st26" d="M868.6,228.7c-7.2,0-7.2,11.2,0,11.2C875.8,239.9,875.8,228.7,868.6,228.7"/>
							<path class="st26" d="M834.6,246.3h-0.4c-2.9,0-5.7,2.6-5.6,5.6c0.1,3,2.5,5.6,5.6,5.6h0.4c2.9,0,5.7-2.6,5.6-5.6
								C840.1,248.9,837.7,246.3,834.6,246.3"/>
							<path class="st27" d="M841.1,223.8c-4.9,2.3-9.9,4.1-15.1,5.5c-3.5,0.9-2,6.3,1.5,5.4c5.7-1.5,11.1-3.5,16.4-6.1
								C847.2,227.1,844.3,222.3,841.1,223.8"/>
							<path class="st28" d="M744.6,267.6c-7.2,0-7.2,11.2,0,11.2C751.8,278.8,751.8,267.6,744.6,267.6"/>
							<path class="st26" d="M690.3,281.3c-2,2.3-4.2,4.4-6.6,6.3c-1.2,0.9-1.8,2.4-1,3.8c0.7,1.2,2.6,1.9,3.8,1
								c2.8-2.1,5.4-4.5,7.7-7.1C696.6,282.6,692.7,278.6,690.3,281.3"/>
							<path class="st28" d="M636,291.4c-3.7-3.6-6.4-8-7.9-13c-1-3.4-6.4-2-5.4,1.5c1.8,5.9,4.9,11.1,9.3,15.4
								C634.6,297.9,638.6,293.9,636,291.4"/>
							<path class="st26" d="M724.3,240c6.9-6.8,7.5-16.2,7.6-25.4c0-3.6-5.6-3.6-5.6,0c0,7.6-0.1,15.8-5.9,21.5
								C717.8,238.5,721.7,242.5,724.3,240"/>
							<path class="st26" d="M748.3,197c-7.2,0-7.2,11.2,0,11.2C755.5,208.2,755.5,197,748.3,197"/>
							<path class="st26" d="M720.3,110.3h-0.4c-2.9,0-5.7,2.6-5.6,5.6c0.1,3,2.5,5.6,5.6,5.6h0.4c2.9,0,5.7-2.6,5.6-5.6
								C725.8,112.9,723.4,110.3,720.3,110.3"/>
						</g>
					</g>
				</g>
				<g class="st29">
					<g>
						<defs>
							<rect id="SVGID_47_" x="55.9" y="51.6" width="72.8" height="21.7"/>
						</defs>
						<clipPath id="SVGID_48_">
							<use xlink:href="#SVGID_47_"  style="overflow:visible;"/>
						</clipPath>
						<g class="st30">
							<defs>
								<rect id="SVGID_49_" x="55.9" y="51.6" width="72.8" height="21.7"/>
							</defs>
							<clipPath id="SVGID_50_">
								<use xlink:href="#SVGID_49_"  style="overflow:visible;"/>
							</clipPath>
							<path class="st31" d="M56.8,67.7c6.8,5.7,12.8,7.9,20.5,2.3c6.5-4.8,10-9.6,18.4-11.7c9.7-2.4,19.9-0.6,29.5,1.1
								c3.5,0.6,5-4.8,1.5-5.4c-11.2-2-22.9-4-34.1-0.7c-4.5,1.3-8.5,3.4-12.2,6.3c-6.6,5.3-10.8,11.7-19.6,4.2
								C58,61.5,54.1,65.4,56.8,67.7"/>
						</g>
					</g>
				</g>
				<g class="st32">
					<g>
						<defs>
							<rect id="SVGID_51_" x="933.1" y="168.3" width="73.5" height="62.4"/>
						</defs>
						<clipPath id="SVGID_52_">
							<use xlink:href="#SVGID_51_"  style="overflow:visible;"/>
						</clipPath>
						<g class="st33">
							<defs>
								<rect id="SVGID_53_" x="933.1" y="168.3" width="73.5" height="62.4"/>
							</defs>
							<clipPath id="SVGID_54_">
								<use xlink:href="#SVGID_53_"  style="overflow:visible;"/>
							</clipPath>
							<path class="st34" d="M997.4,170.2c-7,8.5-14,17-21,25.5c2.3-0.3,4.5-0.6,6.8-0.9c-4.2-2.9-8.4-5.8-12.6-8.7
								c-1.9-1.3-5.3-0.9-6.8,0.9c-9.8,11.3-19.5,22.6-29.3,33.9c-4.7,5.4,3.2,13.4,7.9,7.9c9.8-11.3,19.5-22.6,29.3-33.9
								c-2.3,0.3-4.5,0.6-6.8,0.9c4.2,2.9,8.4,5.8,12.6,8.7c1.9,1.3,5.3,0.9,6.8-0.9c7-8.5,14-17,21-25.5
								C1009.8,172.6,1002,164.7,997.4,170.2"/>
						</g>
					</g>
				</g>
				<g class="st32">
					<g>
						<defs>
							<rect id="SVGID_55_" x="17.4" y="100.7" width="44.4" height="43.6"/>
						</defs>
						<clipPath id="SVGID_56_">
							<use xlink:href="#SVGID_55_"  style="overflow:visible;"/>
						</clipPath>
						<polygon class="st35" points="30.7,100.7 24,122.5 17.4,144.3 39.6,139.2 61.8,134 46.2,117.4 						"/>
					</g>
				</g>
				<g class="st32">
					<g>
						<defs>
							<rect id="SVGID_57_" x="1237.3" y="49.6" width="19.8" height="19.4"/>
						</defs>
						<clipPath id="SVGID_58_">
							<use xlink:href="#SVGID_57_"  style="overflow:visible;"/>
						</clipPath>
						<g class="st36">
							<defs>
								<rect id="SVGID_59_" x="1237.3" y="49.6" width="19.8" height="19.4"/>
							</defs>
							<clipPath id="SVGID_60_">
								<use xlink:href="#SVGID_59_"  style="overflow:visible;"/>
							</clipPath>
							<path class="st37" d="M1257.1,66.4c0-9.1-7.9-16.9-17.1-16.7c-3.6,0.1-3.6,5.7,0,5.6c6.1-0.1,11.5,4.9,11.5,11.1
								C1251.5,70,1257.1,70,1257.1,66.4"/>
						</g>
					</g>
				</g>
				<g class="st32">
					<g>
						<defs>
							<rect id="SVGID_61_" x="281.4" y="252.3" width="45.6" height="16.7"/>
						</defs>
						<clipPath id="SVGID_62_">
							<use xlink:href="#SVGID_61_"  style="overflow:visible;"/>
						</clipPath>
						<g class="st38">
							<defs>
								<rect id="SVGID_63_" x="281.4" y="252.3" width="45.6" height="16.6"/>
							</defs>
							<clipPath id="SVGID_64_">
								<use xlink:href="#SVGID_63_"  style="overflow:visible;"/>
							</clipPath>
							<path class="st39" d="M283.3,266.3c15,5.7,31.6,2,42.9-9.3c2.6-2.5-1.4-6.5-4-4c-10.1,10-24.3,12.8-37.5,7.8
								C281.5,259.6,280,265,283.3,266.3"/>
						</g>
					</g>
				</g>
				<g class="st32">
					<g>
						<defs>
							<rect id="SVGID_65_" x="1128.4" y="247.9" width="26.4" height="30.1"/>
						</defs>
						<clipPath id="SVGID_66_">
							<use xlink:href="#SVGID_65_"  style="overflow:visible;"/>
						</clipPath>
						<g class="st40">
							<defs>
								<rect id="SVGID_67_" x="1128.4" y="247.9" width="26.4" height="30.1"/>
							</defs>
							<clipPath id="SVGID_68_">
								<use xlink:href="#SVGID_67_"  style="overflow:visible;"/>
							</clipPath>
							<path class="st41" d="M1154.4,276c2.6-13.7-9.9-25.7-22.5-28.1c-3.5-0.6-5,4.8-1.5,5.4c9.3,1.7,20.6,10.4,18.6,21.2
								C1148.4,278.1,1153.8,279.6,1154.4,276"/>
						</g>
					</g>
				</g>
			</g>
		</g>
	</g>
</g>
</svg>
