<?xml version="1.0" encoding="utf-8"?>
<!-- Generator: Adobe Illustrator 21.0.0, SVG Export Plug-In . SVG Version: 6.00 Build 0)  -->
<svg version="1.1" id="Layer_1" xmlns="http://www.w3.org/2000/svg" xmlns:xlink="http://www.w3.org/1999/xlink" x="0px" y="0px"
	 viewBox="0 0 64.4 49.6" style="enable-background:new 0 0 64.4 49.6;" xml:space="preserve">
<style type="text/css">
	.st0{fill:#0874BB;}
</style>
<g>
	<path class="st0" d="M24.5,8.8c-8.2,2.3-11.7,7-14,12.3c1.2-0.6,2.3-0.6,3.5-0.6c8.2,0,15.2,6.4,15.2,14c0,8.2-7,15.2-15.2,15.2
		c-6.4,0-11.7-4.1-13.4-10.5C0,39.1,0,38.5,0,37.9v-3.5v-1.8v-0.6C0,22.8,2.3,5.3,22.2,0h1.8c1.8,0,3.5,1.8,3.5,3.5
		C28.6,5.8,26.8,7.6,24.5,8.8z M59.8,8.8c-8.2,2.3-11.7,7-14,12.3c1.2-0.6,2.3-0.6,3.5-0.6c8.2,0,15.2,6.4,15.2,14
		c0,8.2-7,15.2-15.2,15.2c-6.4,0-11.7-4.1-13.4-10.5c-0.6,0-0.6-0.6-0.6-1.2v-1.2v-2.3v-2.3c0-9.3,2.3-26.8,22.2-32.1h1.8
		c1.8,0,3.5,1.8,3.5,3.5C63.9,5.8,62.1,7.6,59.8,8.8z"/>
</g>
</svg>
