<?xml version="1.0" encoding="utf-8"?>
<!-- Generator: Adobe Illustrator 21.0.0, SVG Export Plug-In . SVG Version: 6.00 Build 0)  -->
<svg version="1.1" id="Layer_1" xmlns="http://www.w3.org/2000/svg" xmlns:xlink="http://www.w3.org/1999/xlink" x="0px" y="0px"
	 viewBox="0 0 19.7 19.7" style="enable-background:new 0 0 19.7 19.7;" xml:space="preserve">
<style type="text/css">
	.st0{fill:#7F7E84;}
	.st1{clip-path:url(#SVGID_10_);}
</style>
<g>
	<g>
		<g>
			<g>
				<defs>
					<path id="SVGID_6_" d="M9.9,19c-5,0-9.2-4.1-9.2-9.2s4.1-9.2,9.2-9.2S19,4.8,19,9.9S14.9,19,9.9,19z"/>
				</defs>
				<clipPath id="SVGID_7_">
					<use xlink:href="#SVGID_6_"  style="overflow:visible;"/>
				</clipPath>
			</g>
		</g>
		<g>
			<g>
				<defs>
					<path id="SVGID_5_" d="M9.9,19c-5,0-9.2-4.1-9.2-9.2s4.1-9.2,9.2-9.2S19,4.8,19,9.9S14.9,19,9.9,19z"/>
				</defs>
				<clipPath id="SVGID_8_">
					<use xlink:href="#SVGID_5_"  style="overflow:visible;"/>
				</clipPath>
			</g>
		</g>
	</g>
	<g>
		<g>
			<g>
				<defs>
					<path id="SVGID_4_" d="M9.9,19c-5,0-9.2-4.1-9.2-9.2s4.1-9.2,9.2-9.2S19,4.8,19,9.9S14.9,19,9.9,19z"/>
				</defs>
				<clipPath id="SVGID_9_">
					<use xlink:href="#SVGID_4_"  style="overflow:visible;"/>
				</clipPath>
			</g>
		</g>
		<g>
			<g>
				<path class="st0" d="M9.9,0.7c5,0,9.2,4.1,9.2,9.2S14.9,19,9.9,19c-5,0-9.2-4.1-9.2-9.2S4.8,0.7,9.9,0.7 M9.9,0
					C4.4,0,0,4.4,0,9.9c0,5.4,4.4,9.9,9.9,9.9s9.9-4.4,9.9-9.9C19.7,4.4,15.3,0,9.9,0L9.9,0z"/>
			</g>
			<g>
				<defs>
					<path id="SVGID_3_" d="M9.9,19c-5,0-9.2-4.1-9.2-9.2s4.1-9.2,9.2-9.2S19,4.8,19,9.9S14.9,19,9.9,19z"/>
				</defs>
				<clipPath id="SVGID_10_">
					<use xlink:href="#SVGID_3_"  style="overflow:visible;"/>
				</clipPath>
				<g class="st1">
					<g>
						<path class="st0" d="M9.9,4.2c1.8,0,3.3,1.5,3.3,3.3c0,1.8-1.5,3.3-3.3,3.3c-1.8,0-3.3-1.5-3.3-3.3C6.6,5.7,8.1,4.2,9.9,4.2
							 M9.9,3.5c-2.2,0-4,1.8-4,4s1.8,4,4,4c2.2,0,4-1.8,4-4S12.1,3.5,9.9,3.5L9.9,3.5z"/>
					</g>
					<g>
						<path class="st0" d="M13.7,11.5c1.3,0,2.4,1.1,2.4,2.4v3.5c-1.7,1.3-3.8,2.1-6.2,2.1c-2.3,0-4.5-0.8-6.2-2.1v-3.5
							c0-1.3,1.1-2.4,2.4-2.4H13.7 M13.7,10.8H6.1c-1.7,0-3.1,1.4-3.1,3.1v3.5v0.3l0.3,0.2c1.9,1.5,4.2,2.2,6.6,2.2
							c2.5,0,4.7-0.8,6.6-2.2l0.3-0.2v-0.3v-3.5C16.7,12.1,15.4,10.8,13.7,10.8L13.7,10.8z"/>
					</g>
				</g>
			</g>
		</g>
	</g>
	<g>
		<g>
			<g>
				<defs>
					<path id="SVGID_2_" d="M9.9,19c-5,0-9.2-4.1-9.2-9.2s4.1-9.2,9.2-9.2S19,4.8,19,9.9S14.9,19,9.9,19z"/>
				</defs>
				<clipPath id="SVGID_11_">
					<use xlink:href="#SVGID_2_"  style="overflow:visible;"/>
				</clipPath>
			</g>
		</g>
		<g>
			<g>
				<defs>
					<path id="SVGID_1_" d="M9.9,19c-5,0-9.2-4.1-9.2-9.2s4.1-9.2,9.2-9.2S19,4.8,19,9.9S14.9,19,9.9,19z"/>
				</defs>
				<clipPath id="SVGID_12_">
					<use xlink:href="#SVGID_1_"  style="overflow:visible;"/>
				</clipPath>
			</g>
		</g>
	</g>
</g>
</svg>
