<?xml version="1.0" encoding="utf-8"?>
<!-- Generator: Adobe Illustrator 21.0.0, SVG Export Plug-In . SVG Version: 6.00 Build 0)  -->
<svg version="1.1" id="Layer_1" xmlns="http://www.w3.org/2000/svg" xmlns:xlink="http://www.w3.org/1999/xlink" x="0px" y="0px"
	 viewBox="0 0 23.4 30.2" style="enable-background:new 0 0 23.4 30.2;" xml:space="preserve">
<style type="text/css">
	.software-path-0{fill:#963CBD;}
	.software-path-1{fill:#0373BB;}
</style>
<g>
	<g>
		<path class="software-path-0" d="M23.4,5.3c0-0.4-0.1-0.5-0.5-0.5c-1.5,0-3,0-4.5,0c-0.4,0-0.5-0.1-0.5-0.5c0-1.3,0-2.6,0-3.9
			c0-0.5,0-0.5-0.5-0.4C11.7,1.4,6.1,2.8,0.5,4.1C0.1,4.2,0,4.4,0,4.8c0,3.4,0,6.9,0,10.3c0,3.5,0,6.9,0,10.4c0,0.4,0.1,0.5,0.5,0.6
			c5.6,1.4,11.3,2.7,16.9,4.1c0.4,0.1,0.5,0,0.5-0.4c0-1.3,0-2.6,0-4c0-0.4,0.1-0.5,0.5-0.5c1.5,0,3,0,4.5,0c0.4,0,0.5-0.1,0.5-0.5
			C23.4,18.4,23.4,11.9,23.4,5.3z M16.4,27.9c0,0.3,0,0.5-0.4,0.4c-3.8-0.9-7.6-1.8-11.3-2.7c-0.1,0-0.2-0.1-0.3-0.1
			c0.2-0.1,0.4-0.1,0.6-0.1c3.1,0,6.3,0,9.4,0c0.4,0,0.6-0.1,0.5-0.5c0-0.4,0-0.8,0-1.2c0-0.4-0.1-0.4-0.5-0.3
			c-1.9,0.6-3.8,0.5-5.6-0.2c-3.7-1.5-5.9-5.1-5.5-9.2c0.4-3.7,3.5-6.9,7.3-7.5c1.3-0.2,2.6-0.1,3.8,0.3c0.3,0.1,0.4,0.1,0.4-0.3
			c0-0.4,0-0.8,0-1.2c0-0.4-0.1-0.5-0.5-0.5c-2,0-4,0-6,0c-1.2,0-2.4,0-3.6,0c-0.1,0-0.2,0-0.3,0c0,0,0-0.1,0-0.1
			C5.2,4.6,6,4.4,6.8,4.2c3-0.7,6.1-1.5,9.1-2.2c0.4-0.1,0.5,0,0.5,0.4C16.4,10.9,16.4,19.4,16.4,27.9z M17.9,21.3
			c0-4.1,0-8.2,0-12.3c1.6,1.4,2.4,3.2,2.7,5.3C20.8,16.9,19.6,20.2,17.9,21.3z"/>
		<path class="software-path-0" d="M11.9,12.4c-1.5,0-2.7,1.2-2.7,2.7c0,1.5,1.2,2.7,2.7,2.8c1.5,0,2.7-1.2,2.7-2.7
			C14.6,13.6,13.4,12.4,11.9,12.4z M11.9,16c-0.5,0-0.9-0.4-0.9-0.9c0-0.5,0.4-0.9,0.9-0.9c0.5,0,0.9,0.4,0.9,0.9
			C12.8,15.6,12.4,16,11.9,16z"/>
	</g>
</g>
<g>
	<g>
		<path class="software-path-1" d="M-283.7,16c0,3.2,0,6.4,0,9.5c0,0.5-0.1,0.7-0.6,0.6c-0.2,0-0.3,0-0.5,0c-0.2,0-0.4-0.1-0.3-0.3
			c0-0.3,0-0.6,0-0.9c0-5.9,0-11.7,0-17.6c0-0.4-0.1-0.7-0.4-0.9c-1.1-1-2.1-2.1-3.2-3.2c-0.2-0.3-0.5-0.3-0.8-0.3
			c-4.1,0-8.3,0-12.4,0c-0.3,0-0.6,0.1-0.5-0.4c0-0.3,0.1-0.4,0.4-0.3c1,0,2,0,3,0c3.7,0,7.5,0,11.2,0c0.4,0,0.6,0.1,0.6,0.5
			c0.2,0.7,0.4,1.4,0.5,2.1c0.1,0.3,0.2,0.4,0.5,0.5c0.7,0.2,1.4,0.4,2.1,0.5c0.4,0.1,0.5,0.2,0.5,0.6
			C-283.7,9.5-283.7,12.8-283.7,16z"/>
		<path class="software-path-1" d="M-284.9,3.7c0.8,0.2,1.6,0.4,2.5,0.6c0.1,0,0.2,0.1,0.2,0.3c0,0.1,0,0.2,0,0.3c0,6.5,0,13,0,19.5
			c0,0.5-0.4,0.7-0.9,0.5c-0.2-0.1-0.1-0.2-0.1-0.4c0-0.6,0-1.3,0-1.9c0-5.5,0-11,0-16.5c0-0.4-0.1-0.7-0.4-1
			c-0.5-0.4-0.9-0.8-1.4-1.3C-284.9,3.8-284.9,3.8-284.9,3.7z"/>
		<path class="software-path-1" d="M-285.2,3.6c-0.5-0.5-1-1-1.5-1.5c-0.3-0.3-0.6-0.4-1-0.4c-4.3,0-8.5,0-12.8,0c-0.2,0-0.6,0.1-0.5-0.4
			c0-0.3,0.1-0.4,0.4-0.4c1.1,0,2.3,0,3.4,0c3.6,0,7.3,0,10.9,0c0.4,0,0.6,0.1,0.7,0.5c0.1,0.7,0.3,1.4,0.5,2.2
			C-285.1,3.5-285.2,3.6-285.2,3.6z"/>
		<path class="software-path-1" d="M-288.6,4.1c0.8,0.8,1.5,1.5,2.3,2.3c-0.5-0.1-1.1-0.3-1.6-0.4c-0.2,0-0.3-0.1-0.3-0.3
			C-288.4,5.2-288.5,4.6-288.6,4.1z"/>
		<path class="software-path-1" d="M-284.3,5.1c-0.2,0-0.2,0.1-0.2,0c-0.6-0.2-1.3-0.1-1.7-0.5c-0.4-0.4-0.4-1.2-0.5-1.8c0,0,0.1-0.1,0.1-0.1
			c0.4,0.4,0.7,0.8,1.1,1.2C-285.1,4.3-284.7,4.7-284.3,5.1z"/>
		<path class="software-path-1" d="M-283.1,3.7c-0.4-0.1-0.9-0.2-1.4-0.3c-0.2,0-0.2-0.1-0.3-0.3c-0.1-0.5-0.2-0.9-0.3-1.3
			C-284.4,2.4-283.7,3-283.1,3.7z"/>
		<g>
			<path class="software-path-1" d="M-285.6,7.6c0-0.4-0.1-0.6-0.5-0.6c-0.7-0.1-1.3-0.3-2-0.5c-0.3-0.1-0.5-0.2-0.6-0.6c-0.1-0.7-0.4-1.3-0.5-2
				c-0.1-0.4-0.2-0.5-0.6-0.5c-4.7,0-9.3,0-14,0c-0.5,0-0.6,0.1-0.6,0.6c0,3.8,0,7.6,0,11.4c0,3.8,0,7.6,0,11.4
				c0,0.5,0.1,0.6,0.6,0.6c5.9,0,11.8,0,17.7,0c0.4,0,0.5-0.1,0.5-0.5c0-3.7,0-7.4,0-11.1C-285.6,13.1-285.6,10.3-285.6,7.6z
				 M-302.5,7.5c1.2,0,9.3,0,10.5,0c1.2,0,2.4,0,3.6,0c0.3,0,0.5,0.1,0.5,0.4c0,0.3,0,0.5-0.4,0.5c-2.5,0-11.7,0-14.2,0
				c-0.3,0-0.5-0.1-0.5-0.4C-303,7.6-302.9,7.4-302.5,7.5z M-287.9,12.3c0,0.4-0.1,0.5-0.5,0.5c-2.3,0-4.6,0-7,0c-2.3,0-4.6,0-6.9,0
				c-0.3,0-0.6,0-0.6-0.5c0-0.4,0.2-0.5,0.5-0.5c4.6,0,9.3,0,13.9,0C-288,11.8-287.9,11.8-287.9,12.3z M-302.5,9.7
				c1.2,0,9.3,0,10.5,0c1.2,0,2.4,0,3.6,0c0.4,0,0.5,0.1,0.5,0.5c0,0.3-0.1,0.5-0.5,0.5c-2.4,0-11.7,0-14.1,0
				c-0.4,0-0.5-0.1-0.5-0.5C-303,9.7-302.8,9.7-302.5,9.7z M-302.4,14c4.7,0,9.4,0,14,0c0.4,0,0.5,0.1,0.5,0.5
				c0,0.4-0.1,0.4-0.5,0.4c-2.4,0-4.7,0-7.1,0c-2.3,0-4.6,0-7,0c-0.4,0-0.5-0.1-0.5-0.5C-302.9,14.1-302.7,14-302.4,14z
				 M-302.4,16.2c2.3,0,4.7,0,7,0c2.3,0,4.7,0,7,0c0.4,0,0.5,0.1,0.5,0.5c0,0.4-0.1,0.5-0.5,0.5c-4.7,0-9.4,0-14,0
				c-0.4,0-0.4-0.2-0.5-0.5C-302.9,16.3-302.7,16.2-302.4,16.2z M-302.4,18.4c2.4,0,4.7,0,7.1,0c2.3,0,4.6,0,7,0
				c0.4,0,0.5,0.1,0.5,0.5c0,0.4-0.1,0.4-0.5,0.4c-4.7,0-9.4,0-14.1,0c-0.4,0-0.4-0.1-0.4-0.5C-302.9,18.5-302.7,18.4-302.4,18.4z
				 M-288.3,26c-4.7,0-9.3,0-14,0c-0.4,0-0.5-0.1-0.5-0.5c0-0.4,0.2-0.5,0.5-0.5c2.3,0,4.6,0,7,0c2.3,0,4.7,0,7,0
				c0.4,0,0.5,0.1,0.5,0.5C-287.8,25.9-287.9,26-288.3,26z M-288.3,23.7c-2.3,0-4.6,0-7,0c-2.3,0-4.6,0-6.9,0c-0.3,0-0.5,0-0.5-0.4
				c0-0.4,0.2-0.4,0.5-0.4c4.6,0,9.3,0,13.9,0c0.3,0,0.6-0.1,0.6,0.4C-287.8,23.7-288,23.7-288.3,23.7z M-287.8,21.4
				c-0.1,0.3-0.3,0.2-0.5,0.2c-2.3,0-4.7,0-7,0c-2.3,0-4.6,0-7,0c-0.4,0-0.5,0-0.5-0.5c0-0.5,0.2-0.5,0.6-0.5c4.6,0,9.3,0,13.9,0
				C-287.8,20.6-287.6,20.9-287.8,21.4z"/>
		</g>
	</g>
</g>
</svg>
