<svg id="Layer_1" data-name="Layer 1" xmlns="http://www.w3.org/2000/svg" viewBox="0 0 105.83 62.36"><defs><style>.cls-1{fill:#919396;}</style></defs><title>API - Copy</title><path class="cls-1" d="M30.16,30.55h0Z"/><path class="cls-1" d="M104.18,45.09c0-.32,0-.59,0-.86q0-7.92,0-15.84a1.4,1.4,0,0,0-.38-1Q95.19,17.61,86.59,7.82a1,1,0,0,0-.88-.39h-15L64.93,37.07H15.13v8H13.51a23.11,23.11,0,0,0,0,4.06h6.56c.73,0,1.46,0,2.18,0A12.5,12.5,0,0,0,34.09,62.33a12,12,0,0,0,8.38-2.65,12.32,12.32,0,0,0,4.78-10.46c.64-.1,20.16-.08,20.52,0a12.5,12.5,0,0,0,12.09,13.1,12,12,0,0,0,8.67-3.15,12.38,12.38,0,0,0,4.2-10h8.75c1.45,0,2.9,0,4.35,0V45.09ZM34.71,56.91a7,7,0,1,1,7.12-7A7,7,0,0,1,34.71,56.91Zm45.66,0a7,7,0,1,1,6.94-7A7.07,7.07,0,0,1,80.37,56.92ZM99.58,32.29H70.51L74.58,12h.54c2.91,0,5.82,0,8.74,0a.93.93,0,0,1,.78.37L98.16,28.05c.39.45.78.91,1.18,1.36a.87.87,0,0,1,.25.64C99.57,30.79,99.58,31.52,99.58,32.29Z"/><path class="cls-1" d="M14.83,34.92H61.35l.54,0C64,24.72,66,14.57,68.19,4.42h8.56V0H60.09c0,.13-.1.26-.14.39l-.81,2.71c-.15.5-.15.5-.64.55l-.82.1-5.56.65-5.71.68-6.53.76-6.58.78-6.53.76-6.58.78-6.53.76c-2.18.26-4.35.53-6.53.77a1,1,0,0,0-.85.53Q3.53,14.55.75,18.87L0,20.06c.11.13.21.24.31.35L13.89,34.52A1.17,1.17,0,0,0,14.83,34.92ZM48.68,12.63h3.14V30.54H48.69C48.58,30.17,48.56,13.15,48.68,12.63Zm-9.32,1.25h3.15c.11.38.14,16,0,16.66H39.36Zm-9.3,4.87c0-.5,0-1,0-1.38v-.25c0-.16,0-.31,0-.46,0-.79,0-1.33,0-1.48h3.18V30.55H30.16C30.08,30.3,30,23.23,30.06,18.75ZM20.8,16.44H24v14a15.72,15.72,0,0,1-3.23,0Z"/><path class="cls-1" d="M30.06,18.75c0-.5,0-1,0-1.38C30.06,17.79,30.06,18.26,30.06,18.75Z"/><path class="cls-1" d="M30.07,17.13c0-.16,0-.31,0-.46C30.07,16.81,30.07,17,30.07,17.13Z"/><path class="cls-1" d="M30.16,30.55c-.08-.25-.13-7.32-.11-11.79,0,4.47,0,11.55.11,11.79Z"/></svg>