<?xml version="1.0" encoding="utf-8"?>
<!-- Generator: Adobe Illustrator 21.0.0, SVG Export Plug-In . SVG Version: 6.00 Build 0)  -->
<svg version="1.1" id="Layer_1" xmlns="http://www.w3.org/2000/svg" xmlns:xlink="http://www.w3.org/1999/xlink" x="0px" y="0px"
	 viewBox="0 0 44.9 42.7" style="enable-background:new 0 0 44.9 42.7;" xml:space="preserve">
<style type="text/css">
	.st0{fill:#FFFFFF;}
</style>
<g>
	<g>
		<g>
			<path class="st0" d="M26.6,28c0.2-0.4-0.1-0.5-0.5-0.6c-0.8-0.2-1.4-0.7-1.8-1.4c-0.1-0.2-0.2-0.2-0.4-0.1
				c-0.8,0.4-1.7,0.4-2.5,0c-0.2-0.1-0.3-0.1-0.4,0.1c-0.5,0.8-1.2,1.4-2.1,1.5c-0.2,0-0.2,0.1-0.2,0.3c0.1,1-0.1,1.8-0.8,2.5
				c-0.1,0.1-0.1,0.2,0,0.4c0.7,0.7,1,1.5,0.8,2.5c0,0.2,0,0.2,0.2,0.3c1,0.2,1.6,0.7,2.1,1.5c0.1,0.2,0.2,0.2,0.4,0.1
				c0.8-0.4,1.7-0.4,2.6,0c0.2,0.1,0.3,0.1,0.4-0.1c0.4-0.8,1.1-1.3,2-1.5c0.2,0,0.3-0.1,0.3-0.4c-0.1-0.9,0.1-1.7,0.8-2.4
				c0.2-0.2,0.2-0.3,0-0.4C26.9,29.7,26.6,28.9,26.6,28z M22.7,34c-1.9,0-3.4-1.5-3.4-3.5c0-1.9,1.5-3.4,3.5-3.4
				c1.9,0,3.4,1.5,3.4,3.5C26.1,32.5,24.5,34.1,22.7,34z"/>
		</g>
		<g>
			<path class="st0" d="M37.4,19c0-5.2,0-10.3,0-15.5c0-2.2-1.3-3.5-3.5-3.5c-3.4,0-6.7,0-10.1,0c-4.2,0-8.5,0-12.7,0
				C9.4,0,7.4,1.3,7.5,3.7c0,10.3,0,24.9,0,35.2c0,2.1,1.7,3.8,3.8,3.8c2,0,4,0,6,0l10.4,0c2.1,0,4.2,0,6.4,0c0.2,0,0.4,0,0.6,0
				c1.6-0.3,2.8-1.8,2.8-3.6C37.4,33.8,37.4,24.2,37.4,19z M34.1,7.3c-0.2,0-0.4,0-0.5,0c-7.4,0-14.8,0-22.2,0c-0.2,0-0.4,0-0.5,0
				c-0.2,0-0.4-0.2-0.4-0.4c0-0.2,0.1-0.4,0.4-0.4c0.2,0,0.4,0,0.5,0c3.7,0,7.5,0,11.2,0c3.7,0,7.4,0,11.1,0c0.2,0,0.3,0,0.5,0
				c0.3,0,0.4,0.2,0.4,0.4C34.5,7.1,34.3,7.3,34.1,7.3z M34.4,10.4c0,0.3-0.1,0.4-0.4,0.5c-0.2,0-0.3,0-0.5,0c-7.4,0-14.7,0-22.1,0
				c-0.2,0-0.3,0-0.5,0c-0.3,0-0.6-0.1-0.6-0.5c0-0.3,0.2-0.4,0.5-0.4c0.1,0,0.2,0,0.4,0c3.7,0,7.4,0,11.1,0c3.7,0,7.4,0,11.1,0
				c0.2,0,0.3,0,0.5,0C34.3,10,34.4,10.2,34.4,10.4z M10.4,3.3C10.6,3,10.8,3,11.1,3c2.2,0,4.4,0,6.5,0c1.6,0,3.2,0,4.8,0
				c3.7,0,7.4,0,11.1,0c0.2,0,0.3,0,0.5,0c0.3,0,0.4,0.2,0.4,0.4c0,0.3-0.1,0.4-0.4,0.5c-0.1,0-0.3,0-0.4,0c-7.5,0-14.9,0-22.4,0
				c-0.3,0-0.5,0.1-0.7-0.2C10.4,3.5,10.4,3.4,10.4,3.3z M10.8,13.5c0.2,0,0.3,0,0.5,0c7.4,0,14.8,0,22.2,0c0.2,0,0.3,0,0.5,0
				c0.3,0,0.5,0.1,0.5,0.4c0,0.3-0.2,0.4-0.5,0.5c-0.2,0-0.4,0-0.6,0c-3.6,0-7.3,0-10.9,0c-3.7,0-7.4,0-11.1,0c-0.2,0-0.4,0-0.5,0
				c-0.3,0-0.4-0.2-0.4-0.5C10.4,13.7,10.6,13.5,10.8,13.5z M10.9,17c0.2,0,0.4,0,0.7,0c3.6,0,7.2,0,10.8,0c3.7,0,7.4,0,11.1,0
				c0.2,0,0.3,0,0.5,0c0.3,0,0.4,0.2,0.4,0.4c0,0.3-0.1,0.4-0.4,0.5c-0.2,0-0.4,0-0.5,0c-7.4,0-14.8,0-22.2,0c-0.1,0-0.3,0-0.4,0
				c-0.3,0-0.5-0.2-0.5-0.4C10.4,17.1,10.6,17,10.9,17z M26.1,40.6c-1-0.5-2-1.1-3-1.6c-0.2-0.1-0.4-0.1-0.6,0c-1,0.5-2.1,1-3.1,1.6
				c-0.1,0.1-0.2,0.2-0.4,0.1c0-1.6,0-3.3,0-5c1,1.2,0.6,2.6,0.7,3.9c0.6-0.3,1.1-0.6,1.7-0.8c0.5-0.2,1-0.7,1.5-0.7
				c0.5,0,1,0.5,1.5,0.7c0.4,0.2,0.7,0.4,1.1,0.6c0.4,0.2,0.4,0.2,0.4-0.3c0-0.6,0-1.2,0-1.9c0-0.6,0.4-1,0.6-1.6
				c0.1,0.1,0.1,0.2,0.1,0.2c0,1.5,0,3,0,4.6C26.4,40.7,26.3,40.7,26.1,40.6z M29.1,31.1c-0.2,0.2-0.3,0.3-0.5,0.4
				c-0.6,0.4-0.7,1-0.6,1.7c0.1,0.2,0.1,0.5,0.2,0.7c0.1,0.5-0.1,0.8-0.6,0.9c-0.2,0-0.5,0-0.7,0.1c-0.6,0.1-1.1,0.4-1.4,1
				c-0.1,0.2-0.2,0.4-0.3,0.6c-0.3,0.5-0.6,0.7-1.2,0.4c0,0-0.1,0-0.1-0.1c-0.8-0.7-1.7-0.6-2.5,0c-0.6,0.4-1,0.3-1.3-0.4
				c-0.1-0.2-0.1-0.3-0.2-0.5c-0.3-0.7-0.8-1-1.5-1.1c-1.3-0.1-1.4-0.3-1.1-1.5c0.2-0.8,0-1.5-0.7-2c-0.1-0.1-0.3-0.2-0.4-0.3
				c-0.4-0.4-0.4-0.8,0-1.1c0.1-0.1,0.1-0.1,0.2-0.2c0.8-0.6,1-1.3,0.7-2.3c-0.3-0.9,0-1.2,0.9-1.3c0.9,0,1.6-0.4,1.9-1.3
				c0-0.1,0.1-0.3,0.2-0.4c0.2-0.4,0.6-0.6,1.1-0.3c0.2,0.1,0.4,0.2,0.6,0.3c0.6,0.4,1.2,0.4,1.8,0c0.2-0.1,0.4-0.3,0.6-0.4
				c0.4-0.2,0.8-0.1,0.9,0.3c0.1,0.2,0.2,0.4,0.3,0.6c0.3,0.7,0.8,1.1,1.5,1.1c0.2,0,0.4,0,0.7,0c0.4,0.1,0.7,0.3,0.7,0.8
				c0,0.2-0.1,0.5-0.2,0.8c-0.2,0.7,0,1.3,0.6,1.8c0.1,0.1,0.3,0.2,0.4,0.4C29.5,30.3,29.5,30.7,29.1,31.1z M34.1,21.3
				c-0.2,0-0.4,0-0.5,0c-7.5,0-14.9,0-22.4,0c-0.4,0-0.8,0-0.8-0.4c0-0.5,0.4-0.5,0.8-0.5c3.8,0,7.5,0,11.3,0c3.7,0,7.4,0,11.1,0
				c0.2,0,0.4,0,0.5,0c0.2,0,0.4,0.2,0.4,0.4C34.5,21.1,34.3,21.2,34.1,21.3z"/>
		</g>
	</g>
</g>
</svg>
