<?xml version="1.0" encoding="utf-8"?>
<!-- Generator: Adobe Illustrator 21.0.0, SVG Export Plug-In . SVG Version: 6.00 Build 0)  -->
<svg version="1.1" id="Layer_1" xmlns="http://www.w3.org/2000/svg" xmlns:xlink="http://www.w3.org/1999/xlink" x="0px" y="0px"
	 viewBox="0 0 43 43" style="enable-background:new 0 0 43 43;" xml:space="preserve">
<style type="text/css">
	.st0{fill:#F6921E;}
	.st1{fill:#2478AA;}
	.st2{fill:#8E99A8;}
	.st3{fill:#FEFEFE;}
</style>
<g>
	<g>
		<path class="st0" d="M-28.5-218.4c2.4,1.7,3.9,4.1,4.5,7.1l-5.5,1.1c-0.3-1.8-1.2-3.3-2.6-4.4c-1.4-1.1-3.2-1.7-5.2-1.7
			c-2,0-3.6,0.5-4.9,1.5s-1.8,2.2-1.8,3.8c0,1.2,0.3,2.1,1,2.8c0.7,0.7,1.8,1.2,3.3,1.5l7.4,1.6c5.9,1.3,8.8,4.4,8.8,9.4
			c0,3.2-1.2,5.8-3.6,7.6c-2.4,1.9-5.6,2.8-9.5,2.8c-3.8,0-7-0.9-9.6-2.7c-2.6-1.8-4.1-4.3-4.6-7.5l5.8-1.2c0.4,2.1,1.4,3.8,3,4.9
			c1.6,1.1,3.5,1.7,5.9,1.7c2.3,0,4-0.5,5.3-1.5s1.9-2.3,1.9-3.9c0-1.3-0.4-2.3-1.1-3c-0.7-0.7-2-1.2-3.7-1.6l-7.5-1.5
			c-5.8-1.3-8.6-4.4-8.6-9.3c0-3,1.2-5.5,3.5-7.3c2.3-1.9,5.3-2.8,9.1-2.8C-33.8-221-30.9-220.1-28.5-218.4z"/>
		<path class="st0" d="M6.3-186H1v-3.1c-2.1,2.6-5.1,3.8-8.7,3.8c-3.1,0-5.5-1-7.4-3c-1.9-2-2.8-4.6-2.8-7.8v-15.3h5.3v14.2
			c0,2.1,0.6,3.8,1.7,5c1.1,1.3,2.6,1.9,4.4,1.9c2.4,0,4.2-0.8,5.5-2.4c1.3-1.6,2-4,2-7.1v-11.7h5.3V-186z"/>
		<path class="st0" d="M35.9-209.1c1.9,2,2.8,4.6,2.8,7.8v15.4h-5.4v-14.3c0-2.1-0.6-3.8-1.7-5c-1.1-1.3-2.6-1.9-4.4-1.9
			c-2.4,0-4.2,0.8-5.6,2.4c-1.3,1.6-2,4-2,7.1v11.7h-5.3v-25.4h5.3v3.1c2.1-2.6,5.1-3.8,8.8-3.8C31.6-212.1,34-211.1,35.9-209.1z"/>
		<path class="st0" d="M68.8-186l-12.2-13.7h-5v13.7h-5.5v-34.3h16.1c3.5,0,6.4,0.9,8.5,2.8c2.2,1.9,3.2,4.4,3.2,7.5
			c0,2.9-1,5.3-2.9,7.2c-2,1.9-4.6,2.9-7.9,3L75.6-186H68.8z M62.3-204.6c1.9,0,3.4-0.5,4.6-1.5c1.2-1,1.7-2.3,1.7-3.9
			c0-1.6-0.6-2.9-1.7-3.9c-1.2-1-2.7-1.5-4.6-1.5H51.6v10.7H62.3z"/>
		<path class="st0" d="M104.5-186h-5.3v-2.9c-2.3,2.4-5.4,3.6-9.2,3.6c-3.4,0-6.4-1.3-8.9-3.8c-2.5-2.5-3.7-5.7-3.7-9.6
			c0-3.9,1.2-7.1,3.7-9.6c2.5-2.5,5.4-3.8,8.9-3.8c3.8,0,6.9,1.2,9.2,3.6v-2.9h5.3V-186z M96.7-192.4c1.7-1.6,2.5-3.7,2.5-6.3
			c0-2.6-0.8-4.6-2.5-6.3c-1.7-1.6-3.6-2.4-5.8-2.4c-2.4,0-4.4,0.8-5.9,2.4c-1.6,1.6-2.4,3.7-2.4,6.3c0,2.6,0.8,4.7,2.4,6.3
			c1.6,1.6,3.5,2.4,5.9,2.4C93.1-190,95-190.8,96.7-192.4z"/>
		<path class="st0" d="M122-177.3h-5.9l4.1-9.3l-10.9-24.8h5.9l7.9,18.3l8.1-18.3h5.9L122-177.3z"/>
	</g>
	<g>
		<path class="st1" d="M-40.8-170.9v2.6c-0.5-0.5-0.9-0.9-1.2-1.1c-0.4-0.2-0.8-0.3-1.3-0.3c-0.8,0-1.4,0.3-1.9,0.8
			c-0.5,0.5-0.7,1.2-0.7,1.9c0,0.8,0.2,1.5,0.7,2c0.5,0.5,1.1,0.8,1.9,0.8c0.5,0,0.9-0.1,1.3-0.3c0.4-0.2,0.8-0.6,1.3-1.2v2.6
			c-0.8,0.4-1.6,0.6-2.4,0.6c-1.3,0-2.5-0.4-3.4-1.3c-0.9-0.9-1.4-1.9-1.4-3.2c0-1.3,0.5-2.3,1.4-3.2c0.9-0.9,2-1.3,3.4-1.3
			C-42.4-171.5-41.6-171.3-40.8-170.9z"/>
		<path class="st1" d="M-39.3-167c0-1.2,0.4-2.3,1.3-3.1s2-1.3,3.3-1.3c1.3,0,2.4,0.4,3.3,1.3c0.9,0.9,1.3,1.9,1.3,3.2
			c0,1.3-0.4,2.3-1.3,3.2c-0.9,0.9-2,1.3-3.3,1.3c-1.3,0-2.4-0.4-3.3-1.3C-38.8-164.6-39.3-165.7-39.3-167z M-37.2-167
			c0,0.8,0.2,1.5,0.7,2c0.5,0.5,1.1,0.7,1.9,0.7c0.8,0,1.4-0.2,1.9-0.7c0.5-0.5,0.7-1.2,0.7-2c0-0.8-0.2-1.5-0.7-2
			c-0.5-0.5-1.1-0.7-1.9-0.7c-0.8,0-1.4,0.3-1.9,0.7C-37-168.4-37.2-167.8-37.2-167z"/>
		<path class="st1" d="M-27.9-171.2h2v0.8c0.7-0.7,1.5-1,2.4-1c1,0,1.8,0.3,2.4,0.9c0.5,0.5,0.7,1.4,0.7,2.6v5.2h-2v-4.7
			c0-0.8-0.1-1.4-0.4-1.7c-0.2-0.3-0.7-0.5-1.3-0.5c-0.7,0-1.1,0.2-1.4,0.6c-0.3,0.4-0.4,1.2-0.4,2.2v4.1h-2V-171.2z"/>
		<path class="st1" d="M-12.9-169.8l-1.7,0.9c-0.3-0.5-0.6-0.8-1-0.8c-0.2,0-0.3,0.1-0.5,0.2c-0.1,0.1-0.2,0.3-0.2,0.5
			c0,0.3,0.4,0.6,1.2,1c1.1,0.4,1.8,0.9,2.1,1.2s0.6,0.9,0.6,1.5c0,0.8-0.3,1.5-0.9,2.1c-0.6,0.5-1.3,0.8-2.2,0.8
			c-1.5,0-2.5-0.7-3.1-2.1l1.7-0.8c0.2,0.4,0.4,0.7,0.5,0.8c0.2,0.2,0.5,0.3,0.9,0.3c0.7,0,1-0.3,1-0.9c0-0.3-0.3-0.7-0.8-1
			c-0.2-0.1-0.4-0.2-0.6-0.3c-0.2-0.1-0.4-0.2-0.6-0.3c-0.6-0.3-1-0.6-1.2-0.8c-0.3-0.4-0.5-0.8-0.5-1.4c0-0.7,0.3-1.3,0.8-1.8
			c0.5-0.5,1.2-0.7,1.9-0.7C-14.3-171.5-13.4-170.9-12.9-169.8z"/>
		<path class="st1" d="M-8.5-169.4v6.7h-2v-6.7h-0.9v-1.8h0.9v-3.1h2v3.1h1.6v1.8H-8.5z"/>
		<path class="st1" d="M-5.6-171.2h2v0.8c0.4-0.4,0.7-0.6,1-0.8c0.3-0.1,0.6-0.2,1-0.2c0.5,0,1.1,0.2,1.7,0.5l-0.9,1.8
			c-0.4-0.3-0.8-0.4-1.1-0.4c-1.1,0-1.6,0.8-1.6,2.4v4.4h-2V-171.2z"/>
		<path class="st1" d="M3.5-171.2v4.9c0,1.4,0.6,2.1,1.7,2.1c1.1,0,1.7-0.7,1.7-2.1v-4.9h2v4.9c0,0.7-0.1,1.3-0.3,1.8
			c-0.2,0.4-0.5,0.8-0.9,1.2c-0.7,0.6-1.5,0.9-2.6,0.9c-1,0-1.9-0.3-2.6-0.9c-0.4-0.4-0.7-0.8-0.9-1.2c-0.2-0.4-0.2-1-0.2-1.8v-4.9
			H3.5z"/>
		<path class="st1" d="M18.2-170.9v2.6c-0.5-0.5-0.9-0.9-1.2-1.1c-0.4-0.2-0.8-0.3-1.3-0.3c-0.8,0-1.4,0.3-1.9,0.8
			c-0.5,0.5-0.7,1.2-0.7,1.9c0,0.8,0.2,1.5,0.7,2c0.5,0.5,1.1,0.8,1.9,0.8c0.5,0,0.9-0.1,1.3-0.3c0.4-0.2,0.8-0.6,1.3-1.2v2.6
			c-0.8,0.4-1.6,0.6-2.4,0.6c-1.3,0-2.5-0.4-3.4-1.3c-0.9-0.9-1.4-1.9-1.4-3.2c0-1.3,0.5-2.3,1.4-3.2c0.9-0.9,2-1.3,3.4-1.3
			C16.6-171.5,17.4-171.3,18.2-170.9z"/>
		<path class="st1" d="M22.2-169.4v6.7h-2v-6.7h-0.9v-1.8h0.9v-3.1h2v3.1h1.6v1.8H22.2z"/>
		<path class="st1" d="M24.8-174.7c0-0.3,0.1-0.6,0.4-0.9c0.3-0.2,0.6-0.4,0.9-0.4c0.4,0,0.7,0.1,0.9,0.4c0.3,0.2,0.4,0.5,0.4,0.9
			c0,0.4-0.1,0.7-0.4,0.9c-0.2,0.3-0.6,0.4-0.9,0.4s-0.7-0.1-0.9-0.4C24.9-174.1,24.8-174.4,24.8-174.7z M27.1-171.2v8.5h-2v-8.5
			H27.1z"/>
		<path class="st1" d="M29.2-167c0-1.2,0.4-2.3,1.3-3.1s2-1.3,3.3-1.3c1.3,0,2.4,0.4,3.3,1.3c0.9,0.9,1.3,1.9,1.3,3.2
			c0,1.3-0.4,2.3-1.3,3.2c-0.9,0.9-2,1.3-3.3,1.3c-1.3,0-2.4-0.4-3.3-1.3C29.7-164.6,29.2-165.7,29.2-167z M31.3-167
			c0,0.8,0.2,1.5,0.7,2c0.5,0.5,1.1,0.7,1.9,0.7c0.8,0,1.4-0.2,1.9-0.7c0.5-0.5,0.7-1.2,0.7-2c0-0.8-0.2-1.5-0.7-2
			c-0.5-0.5-1.1-0.7-1.9-0.7c-0.8,0-1.4,0.3-1.9,0.7C31.5-168.4,31.3-167.8,31.3-167z"/>
		<path class="st1" d="M40.6-171.2h2v0.8c0.7-0.7,1.5-1,2.4-1c1,0,1.8,0.3,2.4,0.9c0.5,0.5,0.7,1.4,0.7,2.6v5.2h-2v-4.7
			c0-0.8-0.1-1.4-0.4-1.7c-0.2-0.3-0.7-0.5-1.3-0.5c-0.7,0-1.1,0.2-1.4,0.6c-0.3,0.4-0.4,1.2-0.4,2.2v4.1h-2V-171.2z"/>
		<path class="st1" d="M61.2-169.8l-1.7,0.9c-0.3-0.5-0.6-0.8-1-0.8c-0.2,0-0.3,0.1-0.5,0.2c-0.1,0.1-0.2,0.3-0.2,0.5
			c0,0.3,0.4,0.6,1.2,1c1.1,0.4,1.8,0.9,2.1,1.2c0.4,0.4,0.6,0.9,0.6,1.5c0,0.8-0.3,1.5-0.9,2.1c-0.6,0.5-1.3,0.8-2.2,0.8
			c-1.5,0-2.5-0.7-3.1-2.1l1.7-0.8c0.2,0.4,0.4,0.7,0.5,0.8c0.2,0.2,0.5,0.3,0.9,0.3c0.7,0,1-0.3,1-0.9c0-0.3-0.3-0.7-0.8-1
			c-0.2-0.1-0.4-0.2-0.6-0.3c-0.2-0.1-0.4-0.2-0.6-0.3c-0.6-0.3-1-0.6-1.2-0.8c-0.3-0.4-0.5-0.8-0.5-1.4c0-0.7,0.3-1.3,0.8-1.8
			c0.5-0.5,1.2-0.7,1.9-0.7C59.9-171.5,60.7-170.9,61.2-169.8z"/>
		<path class="st1" d="M63.2-167c0-1.2,0.4-2.3,1.3-3.1c0.9-0.9,2-1.3,3.3-1.3c1.3,0,2.4,0.4,3.3,1.3c0.9,0.9,1.3,1.9,1.3,3.2
			c0,1.3-0.4,2.3-1.3,3.2c-0.9,0.9-2,1.3-3.3,1.3c-1.3,0-2.4-0.4-3.3-1.3C63.6-164.6,63.2-165.7,63.2-167z M65.2-167
			c0,0.8,0.2,1.5,0.7,2c0.5,0.5,1.1,0.7,1.9,0.7c0.8,0,1.4-0.2,1.9-0.7c0.5-0.5,0.7-1.2,0.7-2c0-0.8-0.2-1.5-0.7-2
			c-0.5-0.5-1.1-0.7-1.9-0.7c-0.8,0-1.4,0.3-1.9,0.7S65.2-167.8,65.2-167z"/>
		<path class="st1" d="M76.6-177.4v14.7h-2v-14.7H76.6z"/>
		<path class="st1" d="M81.1-171.2v4.9c0,1.4,0.6,2.1,1.7,2.1c1.1,0,1.7-0.7,1.7-2.1v-4.9h2v4.9c0,0.7-0.1,1.3-0.3,1.8
			c-0.2,0.4-0.5,0.8-0.9,1.2c-0.7,0.6-1.5,0.9-2.6,0.9c-1,0-1.9-0.3-2.6-0.9c-0.4-0.4-0.7-0.8-0.9-1.2c-0.2-0.4-0.2-1-0.2-1.8v-4.9
			H81.1z"/>
		<path class="st1" d="M91.1-169.4v6.7h-2v-6.7h-0.9v-1.8h0.9v-3.1h2v3.1h1.6v1.8H91.1z"/>
		<path class="st1" d="M93.7-174.7c0-0.3,0.1-0.6,0.4-0.9c0.3-0.2,0.6-0.4,0.9-0.4c0.4,0,0.7,0.1,0.9,0.4c0.3,0.2,0.4,0.5,0.4,0.9
			c0,0.4-0.1,0.7-0.4,0.9c-0.2,0.3-0.6,0.4-0.9,0.4s-0.7-0.1-0.9-0.4C93.8-174.1,93.7-174.4,93.7-174.7z M96-171.2v8.5h-2v-8.5H96z"
			/>
		<path class="st1" d="M98.1-167c0-1.2,0.4-2.3,1.3-3.1c0.9-0.9,2-1.3,3.3-1.3c1.3,0,2.4,0.4,3.3,1.3c0.9,0.9,1.3,1.9,1.3,3.2
			c0,1.3-0.4,2.3-1.3,3.2c-0.9,0.9-2,1.3-3.3,1.3c-1.3,0-2.4-0.4-3.3-1.3C98.6-164.6,98.1-165.7,98.1-167z M100.2-167
			c0,0.8,0.2,1.5,0.7,2c0.5,0.5,1.1,0.7,1.9,0.7c0.8,0,1.4-0.2,1.9-0.7c0.5-0.5,0.7-1.2,0.7-2c0-0.8-0.2-1.5-0.7-2
			c-0.5-0.5-1.1-0.7-1.9-0.7c-0.8,0-1.4,0.3-1.9,0.7C100.4-168.4,100.2-167.8,100.2-167z"/>
		<path class="st1" d="M109.5-171.2h2v0.8c0.7-0.7,1.5-1,2.4-1c1,0,1.8,0.3,2.4,0.9c0.5,0.5,0.7,1.4,0.7,2.6v5.2h-2v-4.7
			c0-0.8-0.1-1.4-0.4-1.7c-0.2-0.3-0.7-0.5-1.3-0.5c-0.7,0-1.1,0.2-1.4,0.6c-0.3,0.4-0.4,1.2-0.4,2.2v4.1h-2V-171.2z"/>
		<path class="st1" d="M124.5-169.8l-1.7,0.9c-0.3-0.5-0.6-0.8-1-0.8c-0.2,0-0.3,0.1-0.5,0.2c-0.1,0.1-0.2,0.3-0.2,0.5
			c0,0.3,0.4,0.6,1.2,1c1.1,0.4,1.8,0.9,2.1,1.2c0.4,0.4,0.6,0.9,0.6,1.5c0,0.8-0.3,1.5-0.9,2.1c-0.6,0.5-1.3,0.8-2.2,0.8
			c-1.5,0-2.5-0.7-3.1-2.1l1.7-0.8c0.2,0.4,0.4,0.7,0.5,0.8c0.2,0.2,0.5,0.3,0.9,0.3c0.7,0,1-0.3,1-0.9c0-0.3-0.3-0.7-0.8-1
			c-0.2-0.1-0.4-0.2-0.6-0.3c-0.2-0.1-0.4-0.2-0.6-0.3c-0.6-0.3-1-0.6-1.2-0.8c-0.3-0.4-0.5-0.8-0.5-1.4c0-0.7,0.3-1.3,0.8-1.8
			c0.5-0.5,1.2-0.7,1.9-0.7C123.1-171.5,124-170.9,124.5-169.8z"/>
	</g>
	<g>
		<path class="st0" d="M38.1-121.6c-22.9,0-42.3-6.8-55-12.9c-15.2-7.3-24.4-15.1-24.5-15.2c-0.4-0.3-0.4-0.9-0.1-1.2
			c0.3-0.4,0.9-0.4,1.2-0.1c0.1,0.1,9.1,7.8,24.2,15c13.9,6.6,35.8,14.2,61.7,12.4c0.1,0,10.3-0.4,24.8-3.9
			c13.3-3.3,33-10,51.2-23.5c0.4-0.3,0.9-0.2,1.2,0.2c0.3,0.4,0.2,0.9-0.2,1.2c-18.5,13.7-38.4,20.5-51.9,23.8
			c-14.6,3.6-24.9,4-25,4C43.2-121.7,40.6-121.6,38.1-121.6z"/>
	</g>
</g>
<g id="Twitter_3_">
	<path class="st2" d="M170,0.8c-11.9,0-21.5,9.6-21.5,21.5c0,11.9,9.6,21.5,21.5,21.5c11.9,0,21.5-9.6,21.5-21.5
		C191.5,10.4,181.9,0.8,170,0.8z M178.2,17.8c0,0.2,0,0.4,0,0.6c0,5.9-4.4,12.7-12.4,12.7c-2.5,0-4.7-0.7-6.7-2c0.3,0,0.7,0.1,1,0.1
		c2,0,3.9-0.7,5.4-1.9c-1.9,0-3.5-1.3-4.1-3.1c0.3,0.1,0.5,0.1,0.8,0.1c0.4,0,0.8-0.1,1.2-0.2c-2-0.4-3.4-2.2-3.4-4.4v-0.1
		c0.6,0.3,1.2,0.5,1.9,0.6c-1.2-0.8-2-2.2-2-3.7c0-0.8,0.2-1.6,0.6-2.2c2.1,2.7,5.3,4.5,9,4.7c-0.1-0.3-0.1-0.7-0.1-1
		c0-2.5,1.9-4.5,4.3-4.5c1.3,0,2.4,0.5,3.2,1.4c1-0.2,1.9-0.6,2.8-1.1c-0.3,1-1,1.9-1.9,2.5c0.9-0.1,1.7-0.3,2.5-0.7
		C179.8,16.3,179,17.1,178.2,17.8z"/>
</g>
<g id="LinKeDin_3_">
	<path class="st2" d="M95.8,0.8c-11.9,0-21.5,9.6-21.5,21.5c0,11.9,9.6,21.5,21.5,21.5c11.9,0,21.5-9.6,21.5-21.5
		C117.3,10.4,107.6,0.8,95.8,0.8z M90.4,31.9h-4v-13h4V31.9z M88.1,17.7L88.1,17.7c-1.5,0-2.5-1.1-2.5-2.4c0-1.3,1-2.3,2.5-2.3
		c1.5,0,2.4,1.1,2.5,2.3C90.6,16.6,89.7,17.7,88.1,17.7z M106.8,31.9h-5.1v-6.6c0-1.7-0.6-2.9-2.2-2.9c-1.2,0-1.9,0.8-2.2,1.6
		c-0.1,0.3-0.1,0.7-0.1,1.1v6.9h-4.4c0,0,0.1-11.9,0-13h4.4v2.2c0.6-0.9,1.9-2.1,4.3-2.1c2.9,0,5.4,1.9,5.4,5.8V31.9z"/>
</g>
<g id="Facebook_3_">
	<path class="st2" d="M21.5,0C9.6,0,0,9.6,0,21.5C0,33.4,9.6,43,21.5,43C33.4,43,43,33.4,43,21.5C43,9.6,33.4,0,21.5,0z M32,30.6
		c0,0.6-0.3,1.3-0.9,1.3h-5.3V24h2.7l0.4-3.4h-3.1v-2c0-0.9,0.2-1.4,1.5-1.4h1.9v-3c-0.6,0-1.4-0.1-2.6-0.1c-2.4,0-4.2,1.5-4.2,4.1
		v2.3h-2.8V24h2.8v7.9h-9.8c-0.6,0-1-0.7-1-1.3V12.1c0-0.6,0.3-1.1,1-1.1H31c0.6,0,0.9,0.5,0.9,1.1V30.6z"/>
</g>
<g id="Google_x2B__8_">
	<path class="st2" d="M244.3,0.1c-11.9,0-21.5,9.6-21.5,21.5c0,11.9,9.6,21.5,21.5,21.5c11.9,0,21.5-9.6,21.5-21.5
		C265.8,9.7,256.1,0.1,244.3,0.1z M240.1,29.1c-4,0-7.3-3.3-7.3-7.4c0-4,3.3-7.3,7.3-7.3c1.9,0,3.6,0.7,4.9,1.9
		c-1.5,1.4-1.5,1.5-2.1,2.1c-0.7-0.6-1.6-1.1-2.8-1.1c-2.4,0-4.2,1.9-4.2,4.3c0,2.4,1.9,4.5,4.2,4.5c2.4,0,3.3-1,3.9-2.7
		c-1.1,0-3.8,0-3.8,0v-2.8h6.9C247.5,24,246.1,29.1,240.1,29.1z M255.5,22.3h-2.3v2.8h-1.7v-2.8h-2.8v-1.7h2.8v-2.3h1.7v2.3h2.3
		V22.3z"/>
</g>
<g id="Google_x2B__7_">
	<g>
		<circle class="st2" cx="318.5" cy="21.8" r="21.5"/>
		<path class="st3" d="M311,30.6c0-5.9,0-11.7,0-17.6c5.7,2.9,11.3,5.8,17,8.8C322.4,24.7,316.7,27.6,311,30.6z"/>
	</g>
</g>
</svg>
