<?xml version="1.0" encoding="utf-8"?>
<!-- Generator: Adobe Illustrator 21.0.0, SVG Export Plug-In . SVG Version: 6.00 Build 0)  -->
<svg version="1.1" id="Layer_1" xmlns="http://www.w3.org/2000/svg" xmlns:xlink="http://www.w3.org/1999/xlink" x="0px" y="0px"
	 viewBox="0 0 1920 289.2" style="enable-background:new 0 0 1920 289.2;" xml:space="preserve">
<style type="text/css">
	.st0{clip-path:url(#SVGID_2_);fill:#2C3E50;}
	.st1{opacity:0.15;clip-path:url(#SVGID_2_);}
	.st2{fill:#FFFFFF;}
</style>
<g>
	<defs>
		<rect id="SVGID_1_" width="1920" height="289.2"/>
	</defs>
	<clipPath id="SVGID_2_">
		<use xlink:href="#SVGID_1_"  style="overflow:visible;"/>
	</clipPath>
	<polyline class="st0" points="2014,0 2014,530.2 -94,530.2 -94,0 	"/>
	<g class="st1">
		<g>
			<g>
				<g>
					<path class="st2" d="M995.5,505.4h-68.7c-0.5,0-0.9-0.4-0.9-0.9V248.7c0-0.5,0.4-0.9,0.9-0.9h68.7c0.5,0,0.9,0.4,0.9,0.9v255.8
						C996.4,504.9,996,505.4,995.5,505.4z M927.7,503.5h66.9V249.6h-66.9V503.5z"/>
				</g>
				<g>
					<g>
						<g>
							<g>
								<g>
									<path class="st2" d="M939,277.3h-4.9c-0.5,0-0.9-0.4-0.9-0.9v-4.9c0-0.5,0.4-0.9,0.9-0.9h4.9c0.5,0,0.9,0.4,0.9,0.9v4.9
										C939.9,276.9,939.5,277.3,939,277.3z M935,275.5h3.1v-3H935V275.5z"/>
								</g>
								<g>
									<path class="st2" d="M944.6,277.3h-4.9c-0.5,0-0.9-0.4-0.9-0.9v-4.9c0-0.5,0.4-0.9,0.9-0.9h4.9c0.5,0,0.9,0.4,0.9,0.9v4.9
										C945.5,276.9,945.1,277.3,944.6,277.3z M940.6,275.5h3.1v-3h-3.1V275.5z"/>
								</g>
							</g>
						</g>
						<g>
							<g>
								<g>
									<path class="st2" d="M953.5,277.3h-4.9c-0.5,0-0.9-0.4-0.9-0.9v-4.9c0-0.5,0.4-0.9,0.9-0.9h4.9c0.5,0,0.9,0.4,0.9,0.9v4.9
										C954.4,276.9,954,277.3,953.5,277.3z M949.6,275.5h3v-3h-3V275.5z"/>
								</g>
								<g>
									<path class="st2" d="M959.1,277.3h-4.9c-0.5,0-0.9-0.4-0.9-0.9v-4.9c0-0.5,0.4-0.9,0.9-0.9h4.9c0.5,0,0.9,0.4,0.9,0.9v4.9
										C960,276.9,959.6,277.3,959.1,277.3z M955.1,275.5h3v-3h-3V275.5z"/>
								</g>
							</g>
						</g>
						<g>
							<g>
								<g>
									<path class="st2" d="M968,277.3h-4.9c-0.5,0-0.9-0.4-0.9-0.9v-4.9c0-0.5,0.4-0.9,0.9-0.9h4.9c0.5,0,0.9,0.4,0.9,0.9v4.9
										C968.9,276.9,968.5,277.3,968,277.3z M964.1,275.5h3.1v-3h-3.1V275.5z"/>
								</g>
								<g>
									<path class="st2" d="M973.6,277.3h-4.9c-0.5,0-0.9-0.4-0.9-0.9v-4.9c0-0.5,0.4-0.9,0.9-0.9h4.9c0.5,0,0.9,0.4,0.9,0.9v4.9
										C974.5,276.9,974.1,277.3,973.6,277.3z M969.6,275.5h3.1v-3h-3.1V275.5z"/>
								</g>
							</g>
						</g>
						<g>
							<g>
								<g>
									<path class="st2" d="M982.5,277.3h-4.9c-0.5,0-0.9-0.4-0.9-0.9v-4.9c0-0.5,0.4-0.9,0.9-0.9h4.9c0.5,0,0.9,0.4,0.9,0.9v4.9
										C983.5,276.9,983.1,277.3,982.5,277.3z M978.6,275.5h3.1v-3h-3.1V275.5z"/>
								</g>
								<g>
									<path class="st2" d="M988.1,277.3h-4.9c-0.5,0-0.9-0.4-0.9-0.9v-4.9c0-0.5,0.4-0.9,0.9-0.9h4.9c0.5,0,0.9,0.4,0.9,0.9v4.9
										C989,276.9,988.6,277.3,988.1,277.3z M984.1,275.5h3.1v-3h-3.1V275.5z"/>
								</g>
							</g>
						</g>
					</g>
					<g>
						<g>
							<g>
								<g>
									<path class="st2" d="M939,286.5h-4.9c-0.5,0-0.9-0.4-0.9-0.9v-4.9c0-0.5,0.4-0.9,0.9-0.9h4.9c0.5,0,0.9,0.4,0.9,0.9v4.9
										C939.9,286.1,939.5,286.5,939,286.5z M935,284.7h3.1v-3H935V284.7z"/>
								</g>
								<g>
									<path class="st2" d="M944.6,286.5h-4.9c-0.5,0-0.9-0.4-0.9-0.9v-4.9c0-0.5,0.4-0.9,0.9-0.9h4.9c0.5,0,0.9,0.4,0.9,0.9v4.9
										C945.5,286.1,945.1,286.5,944.6,286.5z M940.6,284.7h3.1v-3h-3.1V284.7z"/>
								</g>
							</g>
						</g>
						<g>
							<g>
								<g>
									<path class="st2" d="M953.5,286.5h-4.9c-0.5,0-0.9-0.4-0.9-0.9v-4.9c0-0.5,0.4-0.9,0.9-0.9h4.9c0.5,0,0.9,0.4,0.9,0.9v4.9
										C954.4,286.1,954,286.5,953.5,286.5z M949.6,284.7h3v-3h-3V284.7z"/>
								</g>
								<g>
									<path class="st2" d="M959.1,286.5h-4.9c-0.5,0-0.9-0.4-0.9-0.9v-4.9c0-0.5,0.4-0.9,0.9-0.9h4.9c0.5,0,0.9,0.4,0.9,0.9v4.9
										C960,286.1,959.6,286.5,959.1,286.5z M955.1,284.7h3v-3h-3V284.7z"/>
								</g>
							</g>
						</g>
						<g>
							<g>
								<g>
									<path class="st2" d="M968,286.5h-4.9c-0.5,0-0.9-0.4-0.9-0.9v-4.9c0-0.5,0.4-0.9,0.9-0.9h4.9c0.5,0,0.9,0.4,0.9,0.9v4.9
										C968.9,286.1,968.5,286.5,968,286.5z M964.1,284.7h3.1v-3h-3.1V284.7z"/>
								</g>
								<g>
									<path class="st2" d="M973.6,286.5h-4.9c-0.5,0-0.9-0.4-0.9-0.9v-4.9c0-0.5,0.4-0.9,0.9-0.9h4.9c0.5,0,0.9,0.4,0.9,0.9v4.9
										C974.5,286.1,974.1,286.5,973.6,286.5z M969.6,284.7h3.1v-3h-3.1V284.7z"/>
								</g>
							</g>
						</g>
						<g>
							<g>
								<g>
									<path class="st2" d="M982.5,286.5h-4.9c-0.5,0-0.9-0.4-0.9-0.9v-4.9c0-0.5,0.4-0.9,0.9-0.9h4.9c0.5,0,0.9,0.4,0.9,0.9v4.9
										C983.5,286.1,983.1,286.5,982.5,286.5z M978.6,284.7h3.1v-3h-3.1V284.7z"/>
								</g>
								<g>
									<path class="st2" d="M988.1,286.5h-4.9c-0.5,0-0.9-0.4-0.9-0.9v-4.9c0-0.5,0.4-0.9,0.9-0.9h4.9c0.5,0,0.9,0.4,0.9,0.9v4.9
										C989,286.1,988.6,286.5,988.1,286.5z M984.1,284.7h3.1v-3h-3.1V284.7z"/>
								</g>
							</g>
						</g>
					</g>
					<g>
						<g>
							<g>
								<g>
									<path class="st2" d="M939,295.6h-4.9c-0.5,0-0.9-0.4-0.9-0.9v-4.9c0-0.5,0.4-0.9,0.9-0.9h4.9c0.5,0,0.9,0.4,0.9,0.9v4.9
										C939.9,295.2,939.5,295.6,939,295.6z M935,293.8h3.1v-3H935V293.8z"/>
								</g>
								<g>
									<path class="st2" d="M944.6,295.6h-4.9c-0.5,0-0.9-0.4-0.9-0.9v-4.9c0-0.5,0.4-0.9,0.9-0.9h4.9c0.5,0,0.9,0.4,0.9,0.9v4.9
										C945.5,295.2,945.1,295.6,944.6,295.6z M940.6,293.8h3.1v-3h-3.1V293.8z"/>
								</g>
							</g>
						</g>
						<g>
							<g>
								<g>
									<path class="st2" d="M953.5,295.6h-4.9c-0.5,0-0.9-0.4-0.9-0.9v-4.9c0-0.5,0.4-0.9,0.9-0.9h4.9c0.5,0,0.9,0.4,0.9,0.9v4.9
										C954.4,295.2,954,295.6,953.5,295.6z M949.6,293.8h3v-3h-3V293.8z"/>
								</g>
								<g>
									<path class="st2" d="M959.1,295.6h-4.9c-0.5,0-0.9-0.4-0.9-0.9v-4.9c0-0.5,0.4-0.9,0.9-0.9h4.9c0.5,0,0.9,0.4,0.9,0.9v4.9
										C960,295.2,959.6,295.6,959.1,295.6z M955.1,293.8h3v-3h-3V293.8z"/>
								</g>
							</g>
						</g>
						<g>
							<g>
								<g>
									<path class="st2" d="M968,295.6h-4.9c-0.5,0-0.9-0.4-0.9-0.9v-4.9c0-0.5,0.4-0.9,0.9-0.9h4.9c0.5,0,0.9,0.4,0.9,0.9v4.9
										C968.9,295.2,968.5,295.6,968,295.6z M964.1,293.8h3.1v-3h-3.1V293.8z"/>
								</g>
								<g>
									<path class="st2" d="M973.6,295.6h-4.9c-0.5,0-0.9-0.4-0.9-0.9v-4.9c0-0.5,0.4-0.9,0.9-0.9h4.9c0.5,0,0.9,0.4,0.9,0.9v4.9
										C974.5,295.2,974.1,295.6,973.6,295.6z M969.6,293.8h3.1v-3h-3.1V293.8z"/>
								</g>
							</g>
						</g>
						<g>
							<g>
								<g>
									<path class="st2" d="M982.5,295.6h-4.9c-0.5,0-0.9-0.4-0.9-0.9v-4.9c0-0.5,0.4-0.9,0.9-0.9h4.9c0.5,0,0.9,0.4,0.9,0.9v4.9
										C983.5,295.2,983.1,295.6,982.5,295.6z M978.6,293.8h3.1v-3h-3.1V293.8z"/>
								</g>
								<g>
									<path class="st2" d="M988.1,295.6h-4.9c-0.5,0-0.9-0.4-0.9-0.9v-4.9c0-0.5,0.4-0.9,0.9-0.9h4.9c0.5,0,0.9,0.4,0.9,0.9v4.9
										C989,295.2,988.6,295.6,988.1,295.6z M984.1,293.8h3.1v-3h-3.1V293.8z"/>
								</g>
							</g>
						</g>
					</g>
				</g>
			</g>
			<g>
				<g>
					<path class="st2" d="M127.9,486.6H59.2c-0.5,0-0.9-0.4-0.9-0.9V229.9c0-0.5,0.4-0.9,0.9-0.9h68.7c0.5,0,0.9,0.4,0.9,0.9v255.8
						C128.8,486.2,128.4,486.6,127.9,486.6z M60.1,484.7H127V230.8H60.1V484.7z"/>
				</g>
				<g>
					<g>
						<g>
							<g>
								<g>
									<path class="st2" d="M71.5,258.5h-4.9c-0.5,0-0.9-0.4-0.9-0.9v-4.9c0-0.5,0.4-0.9,0.9-0.9h4.9c0.5,0,0.9,0.4,0.9,0.9v4.9
										C72.4,258.1,72,258.5,71.5,258.5z M67.5,256.7h3.1v-3h-3.1V256.7z"/>
								</g>
								<g>
									<path class="st2" d="M77,258.5h-4.9c-0.5,0-0.9-0.4-0.9-0.9v-4.9c0-0.5,0.4-0.9,0.9-0.9H77c0.5,0,0.9,0.4,0.9,0.9v4.9
										C77.9,258.1,77.5,258.5,77,258.5z M73,256.7h3.1v-3H73V256.7z"/>
								</g>
							</g>
						</g>
						<g>
							<g>
								<g>
									<path class="st2" d="M86,258.5h-4.9c-0.5,0-0.9-0.4-0.9-0.9v-4.9c0-0.5,0.4-0.9,0.9-0.9H86c0.5,0,0.9,0.4,0.9,0.9v4.9
										C86.9,258.1,86.5,258.5,86,258.5z M82,256.7h3v-3h-3V256.7z"/>
								</g>
								<g>
									<path class="st2" d="M91.5,258.5h-4.9c-0.5,0-0.9-0.4-0.9-0.9v-4.9c0-0.5,0.4-0.9,0.9-0.9h4.9c0.5,0,0.9,0.4,0.9,0.9v4.9
										C92.4,258.1,92,258.5,91.5,258.5z M87.5,256.7h3v-3h-3V256.7z"/>
								</g>
							</g>
						</g>
						<g>
							<g>
								<g>
									<path class="st2" d="M100.5,258.5h-4.9c-0.5,0-0.9-0.4-0.9-0.9v-4.9c0-0.5,0.4-0.9,0.9-0.9h4.9c0.5,0,0.9,0.4,0.9,0.9v4.9
										C101.4,258.1,101,258.5,100.5,258.5z M96.5,256.7h3.1v-3h-3.1V256.7z"/>
								</g>
								<g>
									<path class="st2" d="M106,258.5h-4.9c-0.5,0-0.9-0.4-0.9-0.9v-4.9c0-0.5,0.4-0.9,0.9-0.9h4.9c0.5,0,0.9,0.4,0.9,0.9v4.9
										C106.9,258.1,106.5,258.5,106,258.5z M102.1,256.7h3.1v-3h-3.1V256.7z"/>
								</g>
							</g>
						</g>
						<g>
							<g>
								<g>
									<path class="st2" d="M115,258.5h-4.9c-0.5,0-0.9-0.4-0.9-0.9v-4.9c0-0.5,0.4-0.9,0.9-0.9h4.9c0.5,0,0.9,0.4,0.9,0.9v4.9
										C115.9,258.1,115.5,258.5,115,258.5z M111,256.7h3.1v-3H111V256.7z"/>
								</g>
								<g>
									<path class="st2" d="M120.5,258.5h-4.9c-0.5,0-0.9-0.4-0.9-0.9v-4.9c0-0.5,0.4-0.9,0.9-0.9h4.9c0.5,0,0.9,0.4,0.9,0.9v4.9
										C121.4,258.1,121,258.5,120.5,258.5z M116.5,256.7h3.1v-3h-3.1V256.7z"/>
								</g>
							</g>
						</g>
					</g>
					<g>
						<g>
							<g>
								<g>
									<path class="st2" d="M71.5,267.7h-4.9c-0.5,0-0.9-0.4-0.9-0.9v-4.9c0-0.5,0.4-0.9,0.9-0.9h4.9c0.5,0,0.9,0.4,0.9,0.9v4.9
										C72.4,267.3,72,267.7,71.5,267.7z M67.5,265.9h3.1v-3h-3.1V265.9z"/>
								</g>
								<g>
									<path class="st2" d="M77,267.7h-4.9c-0.5,0-0.9-0.4-0.9-0.9v-4.9c0-0.5,0.4-0.9,0.9-0.9H77c0.5,0,0.9,0.4,0.9,0.9v4.9
										C77.9,267.3,77.5,267.7,77,267.7z M73,265.9h3.1v-3H73V265.9z"/>
								</g>
							</g>
						</g>
						<g>
							<g>
								<g>
									<path class="st2" d="M86,267.7h-4.9c-0.5,0-0.9-0.4-0.9-0.9v-4.9c0-0.5,0.4-0.9,0.9-0.9H86c0.5,0,0.9,0.4,0.9,0.9v4.9
										C86.9,267.3,86.5,267.7,86,267.7z M82,265.9h3v-3h-3V265.9z"/>
								</g>
								<g>
									<path class="st2" d="M91.5,267.7h-4.9c-0.5,0-0.9-0.4-0.9-0.9v-4.9c0-0.5,0.4-0.9,0.9-0.9h4.9c0.5,0,0.9,0.4,0.9,0.9v4.9
										C92.4,267.3,92,267.7,91.5,267.7z M87.5,265.9h3v-3h-3V265.9z"/>
								</g>
							</g>
						</g>
						<g>
							<g>
								<g>
									<path class="st2" d="M100.5,267.7h-4.9c-0.5,0-0.9-0.4-0.9-0.9v-4.9c0-0.5,0.4-0.9,0.9-0.9h4.9c0.5,0,0.9,0.4,0.9,0.9v4.9
										C101.4,267.3,101,267.7,100.5,267.7z M96.5,265.9h3.1v-3h-3.1V265.9z"/>
								</g>
								<g>
									<path class="st2" d="M106,267.7h-4.9c-0.5,0-0.9-0.4-0.9-0.9v-4.9c0-0.5,0.4-0.9,0.9-0.9h4.9c0.5,0,0.9,0.4,0.9,0.9v4.9
										C106.9,267.3,106.5,267.7,106,267.7z M102.1,265.9h3.1v-3h-3.1V265.9z"/>
								</g>
							</g>
						</g>
						<g>
							<g>
								<g>
									<path class="st2" d="M115,267.7h-4.9c-0.5,0-0.9-0.4-0.9-0.9v-4.9c0-0.5,0.4-0.9,0.9-0.9h4.9c0.5,0,0.9,0.4,0.9,0.9v4.9
										C115.9,267.3,115.5,267.7,115,267.7z M111,265.9h3.1v-3H111V265.9z"/>
								</g>
								<g>
									<path class="st2" d="M120.5,267.7h-4.9c-0.5,0-0.9-0.4-0.9-0.9v-4.9c0-0.5,0.4-0.9,0.9-0.9h4.9c0.5,0,0.9,0.4,0.9,0.9v4.9
										C121.4,267.3,121,267.7,120.5,267.7z M116.5,265.9h3.1v-3h-3.1V265.9z"/>
								</g>
							</g>
						</g>
					</g>
					<g>
						<g>
							<g>
								<g>
									<path class="st2" d="M71.5,276.9h-4.9c-0.5,0-0.9-0.4-0.9-0.9v-4.9c0-0.5,0.4-0.9,0.9-0.9h4.9c0.5,0,0.9,0.4,0.9,0.9v4.9
										C72.4,276.5,72,276.9,71.5,276.9z M67.5,275h3.1v-3h-3.1V275z"/>
								</g>
								<g>
									<path class="st2" d="M77,276.9h-4.9c-0.5,0-0.9-0.4-0.9-0.9v-4.9c0-0.5,0.4-0.9,0.9-0.9H77c0.5,0,0.9,0.4,0.9,0.9v4.9
										C77.9,276.5,77.5,276.9,77,276.9z M73,275h3.1v-3H73V275z"/>
								</g>
							</g>
						</g>
						<g>
							<g>
								<g>
									<path class="st2" d="M86,276.9h-4.9c-0.5,0-0.9-0.4-0.9-0.9v-4.9c0-0.5,0.4-0.9,0.9-0.9H86c0.5,0,0.9,0.4,0.9,0.9v4.9
										C86.9,276.5,86.5,276.9,86,276.9z M82,275h3v-3h-3V275z"/>
								</g>
								<g>
									<path class="st2" d="M91.5,276.9h-4.9c-0.5,0-0.9-0.4-0.9-0.9v-4.9c0-0.5,0.4-0.9,0.9-0.9h4.9c0.5,0,0.9,0.4,0.9,0.9v4.9
										C92.4,276.5,92,276.9,91.5,276.9z M87.5,275h3v-3h-3V275z"/>
								</g>
							</g>
						</g>
						<g>
							<g>
								<g>
									<path class="st2" d="M100.5,276.9h-4.9c-0.5,0-0.9-0.4-0.9-0.9v-4.9c0-0.5,0.4-0.9,0.9-0.9h4.9c0.5,0,0.9,0.4,0.9,0.9v4.9
										C101.4,276.5,101,276.9,100.5,276.9z M96.5,275h3.1v-3h-3.1V275z"/>
								</g>
								<g>
									<path class="st2" d="M106,276.9h-4.9c-0.5,0-0.9-0.4-0.9-0.9v-4.9c0-0.5,0.4-0.9,0.9-0.9h4.9c0.5,0,0.9,0.4,0.9,0.9v4.9
										C106.9,276.5,106.5,276.9,106,276.9z M102.1,275h3.1v-3h-3.1V275z"/>
								</g>
							</g>
						</g>
						<g>
							<g>
								<g>
									<path class="st2" d="M115,276.9h-4.9c-0.5,0-0.9-0.4-0.9-0.9v-4.9c0-0.5,0.4-0.9,0.9-0.9h4.9c0.5,0,0.9,0.4,0.9,0.9v4.9
										C115.9,276.5,115.5,276.9,115,276.9z M111,275h3.1v-3H111V275z"/>
								</g>
								<g>
									<path class="st2" d="M120.5,276.9h-4.9c-0.5,0-0.9-0.4-0.9-0.9v-4.9c0-0.5,0.4-0.9,0.9-0.9h4.9c0.5,0,0.9,0.4,0.9,0.9v4.9
										C121.4,276.5,121,276.9,120.5,276.9z M116.5,275h3.1v-3h-3.1V275z"/>
								</g>
							</g>
						</g>
					</g>
					<g>
						<g>
							<g>
								<g>
									<path class="st2" d="M71.5,286h-4.9c-0.5,0-0.9-0.4-0.9-0.9v-4.9c0-0.5,0.4-0.9,0.9-0.9h4.9c0.5,0,0.9,0.4,0.9,0.9v4.9
										C72.4,285.6,72,286,71.5,286z M67.5,284.2h3.1v-3h-3.1V284.2z"/>
								</g>
								<g>
									<path class="st2" d="M77,286h-4.9c-0.5,0-0.9-0.4-0.9-0.9v-4.9c0-0.5,0.4-0.9,0.9-0.9H77c0.5,0,0.9,0.4,0.9,0.9v4.9
										C77.9,285.6,77.5,286,77,286z M73,284.2h3.1v-3H73V284.2z"/>
								</g>
							</g>
						</g>
						<g>
							<g>
								<g>
									<path class="st2" d="M86,286h-4.9c-0.5,0-0.9-0.4-0.9-0.9v-4.9c0-0.5,0.4-0.9,0.9-0.9H86c0.5,0,0.9,0.4,0.9,0.9v4.9
										C86.9,285.6,86.5,286,86,286z M82,284.2h3v-3h-3V284.2z"/>
								</g>
								<g>
									<path class="st2" d="M91.5,286h-4.9c-0.5,0-0.9-0.4-0.9-0.9v-4.9c0-0.5,0.4-0.9,0.9-0.9h4.9c0.5,0,0.9,0.4,0.9,0.9v4.9
										C92.4,285.6,92,286,91.5,286z M87.5,284.2h3v-3h-3V284.2z"/>
								</g>
							</g>
						</g>
						<g>
							<g>
								<g>
									<path class="st2" d="M100.5,286h-4.9c-0.5,0-0.9-0.4-0.9-0.9v-4.9c0-0.5,0.4-0.9,0.9-0.9h4.9c0.5,0,0.9,0.4,0.9,0.9v4.9
										C101.4,285.6,101,286,100.5,286z M96.5,284.2h3.1v-3h-3.1V284.2z"/>
								</g>
								<g>
									<path class="st2" d="M106,286h-4.9c-0.5,0-0.9-0.4-0.9-0.9v-4.9c0-0.5,0.4-0.9,0.9-0.9h4.9c0.5,0,0.9,0.4,0.9,0.9v4.9
										C106.9,285.6,106.5,286,106,286z M102.1,284.2h3.1v-3h-3.1V284.2z"/>
								</g>
							</g>
						</g>
						<g>
							<g>
								<g>
									<path class="st2" d="M115,286h-4.9c-0.5,0-0.9-0.4-0.9-0.9v-4.9c0-0.5,0.4-0.9,0.9-0.9h4.9c0.5,0,0.9,0.4,0.9,0.9v4.9
										C115.9,285.6,115.5,286,115,286z M111,284.2h3.1v-3H111V284.2z"/>
								</g>
								<g>
									<path class="st2" d="M120.5,286h-4.9c-0.5,0-0.9-0.4-0.9-0.9v-4.9c0-0.5,0.4-0.9,0.9-0.9h4.9c0.5,0,0.9,0.4,0.9,0.9v4.9
										C121.4,285.6,121,286,120.5,286z M116.5,284.2h3.1v-3h-3.1V284.2z"/>
								</g>
							</g>
						</g>
					</g>
				</g>
			</g>
			<g>
				<g>
					<path class="st2" d="M900.6,269.6H776.4c-0.5,0-0.9-0.4-0.9-0.9v-32.1c0-0.5,0.4-0.9,0.9-0.9h124.1c0.5,0,0.9,0.4,0.9,0.9v32.1
						C901.5,269.1,901.1,269.6,900.6,269.6z M777.3,267.7h122.3v-30.2H777.3V267.7z"/>
				</g>
				<g>
					<path class="st2" d="M908.5,556.6h-140c-0.5,0-0.9-0.4-0.9-0.9V267c0-0.5,0.4-0.9,0.9-0.9h140c0.5,0,0.9,0.4,0.9,0.9v288.7
						C909.4,556.2,909,556.6,908.5,556.6z M769.4,554.7h138.1V267.9H769.4V554.7z"/>
				</g>
				<g>
					<path class="st2" d="M900.6,237.5C900.6,237.5,900.6,237.5,900.6,237.5H776.4c-0.4,0-0.7-0.3-0.9-0.6c-0.1-0.4,0-0.8,0.3-1
						l62.5-45.8c0.2-0.2,0.5-0.2,0.8-0.1c0.1,0,0.2,0.1,0.3,0.2l61.5,45.7c0.3,0.1,0.6,0.5,0.6,0.8
						C901.5,237.1,901.1,237.5,900.6,237.5z M779.2,235.6h118.6l-58.8-43.8L779.2,235.6z"/>
				</g>
			</g>
			<g>
				<g>
					<path class="st2" d="M656,297.3h-47.2c-0.5,0-0.9-0.4-0.9-0.9v-36.4c0-0.5,0.4-0.9,0.9-0.9H656c0.5,0,0.9,0.4,0.9,0.9v36.4
						C657,296.9,656.5,297.3,656,297.3z M609.7,295.4h45.4v-34.6h-45.4V295.4z"/>
				</g>
				<g>
					<g>
						<path class="st2" d="M624.5,279.9H611c-0.5,0-0.9-0.4-0.9-0.9V264c0-0.5,0.4-0.9,0.9-0.9h13.6c0.5,0,0.9,0.4,0.9,0.9V279
							C625.5,279.5,625,279.9,624.5,279.9z M611.9,278.1h11.7v-13.2h-11.7V278.1z"/>
					</g>
					<g>
						<path class="st2" d="M639.2,279.9h-13.6c-0.5,0-0.9-0.4-0.9-0.9V264c0-0.5,0.4-0.9,0.9-0.9h13.6c0.5,0,0.9,0.4,0.9,0.9V279
							C640.1,279.5,639.7,279.9,639.2,279.9z M626.5,278.1h11.7v-13.2h-11.7V278.1z"/>
					</g>
					<g>
						<path class="st2" d="M653.9,280.1h-13.6c-0.5,0-0.9-0.4-0.9-0.9v-15.1c0-0.5,0.4-0.9,0.9-0.9h13.6c0.5,0,0.9,0.4,0.9,0.9v15.1
							C654.8,279.7,654.4,280.1,653.9,280.1z M641.2,278.2h11.7V265h-11.7V278.2z"/>
					</g>
				</g>
				<g>
					<g>
						<path class="st2" d="M624.5,296H611c-0.5,0-0.9-0.4-0.9-0.9V280c0-0.5,0.4-0.9,0.9-0.9h13.6c0.5,0,0.9,0.4,0.9,0.9v15.1
							C625.5,295.6,625,296,624.5,296z M611.9,294.2h11.7v-13.2h-11.7V294.2z"/>
					</g>
					<g>
						<path class="st2" d="M639.2,296h-13.6c-0.5,0-0.9-0.4-0.9-0.9V280c0-0.5,0.4-0.9,0.9-0.9h13.6c0.5,0,0.9,0.4,0.9,0.9v15.1
							C640.1,295.6,639.7,296,639.2,296z M626.5,294.2h11.7v-13.2h-11.7V294.2z"/>
					</g>
					<g>
						<path class="st2" d="M653.9,296.1h-13.6c-0.5,0-0.9-0.4-0.9-0.9v-15.1c0-0.5,0.4-0.9,0.9-0.9h13.6c0.5,0,0.9,0.4,0.9,0.9v15.1
							C654.8,295.7,654.4,296.1,653.9,296.1z M641.2,294.3h11.7V281h-11.7V294.3z"/>
					</g>
				</g>
				<g>
					<path class="st2" d="M648.2,260.7C648.2,260.7,648.2,260.7,648.2,260.7h-31.6c-0.3,0-0.6-0.2-0.8-0.5c-0.2-0.3-0.1-0.7,0-0.9
						l5-7.8c0.2-0.3,0.5-0.4,0.8-0.4h21.6c0.3,0,0.6,0.2,0.8,0.4l4.9,7.6c0.2,0.2,0.3,0.4,0.3,0.7
						C649.1,260.2,648.7,260.7,648.2,260.7z M618.3,258.8h28.2l-3.8-6h-20.6L618.3,258.8z"/>
				</g>
				<g>
					<path class="st2" d="M633.9,254.6h-3c-0.5,0-0.9-0.4-0.9-0.9v-38.1c0-0.5,0.4-0.9,0.9-0.9h3c0.5,0,0.9,0.4,0.9,0.9v38.1
						C634.8,254.2,634.4,254.6,633.9,254.6z M631.8,252.7h1.1v-36.3h-1.1V252.7z"/>
				</g>
			</g>
			<g>
				<g>
					<g>
						<path class="st2" d="M466.6,225.6H463c-0.5,0-0.9-0.4-0.9-0.9v-94.3c0-0.5,0.4-0.9,0.9-0.9h3.6c0.5,0,0.9,0.4,0.9,0.9v94.3
							C467.5,225.2,467.1,225.6,466.6,225.6z M463.9,223.8h1.7v-92.5h-1.7V223.8z"/>
					</g>
					<g>
						<path class="st2" d="M470.5,180.3h-11.3c-0.5,0-0.9-0.4-0.9-0.9v-3.5c0-0.5,0.4-0.9,0.9-0.9h11.3c0.5,0,0.9,0.4,0.9,0.9v3.5
							C471.4,179.8,471,180.3,470.5,180.3z M460,178.4h9.5v-1.7H460V178.4z"/>
					</g>
					<g>
						<path class="st2" d="M448.3,223.7c-0.1,0-0.2,0-0.3-0.1l-2.2-0.8c-0.2-0.1-0.4-0.3-0.5-0.5c-0.1-0.2-0.1-0.5,0-0.7l16.7-43.4
							c0.1-0.2,0.3-0.4,0.5-0.5c0.2-0.1,0.5-0.1,0.7,0l2.1,0.8c0.5,0.2,0.7,0.7,0.5,1.2l-16.6,43.4
							C449,223.5,448.7,223.7,448.3,223.7z M447.3,221.5l0.4,0.2l16-41.7l-0.4-0.2L447.3,221.5z"/>
					</g>
					<g>
						<path class="st2" d="M481.1,223.7c-0.1,0-0.3,0-0.4-0.1c-0.2-0.1-0.4-0.3-0.5-0.5l-16.7-43.4c-0.1-0.2-0.1-0.5,0-0.7
							c0.1-0.2,0.3-0.4,0.5-0.5l2.2-0.8c0.5-0.2,1,0.1,1.2,0.5l16.7,43.4c0.2,0.5-0.1,1-0.5,1.2l-2.2,0.8
							C481.3,223.7,481.2,223.7,481.1,223.7z M465.6,180l16,41.7l0.4-0.2l-16-41.7L465.6,180z"/>
					</g>
				</g>
				<g>
					<path class="st2" d="M485.6,240.2h-41.8c-0.5,0-0.9-0.4-0.9-0.9v-19.2c0-0.5,0.4-0.9,0.9-0.9h41.8c0.5,0,0.9,0.4,0.9,0.9v19.2
						C486.5,239.8,486.1,240.2,485.6,240.2z M444.7,238.4h40V221h-40V238.4z"/>
				</g>
				<g>
					<path class="st2" d="M502.3,556.6C502.3,556.6,502.3,556.6,502.3,556.6h-75.2c-0.2,0-0.5-0.1-0.7-0.3c-0.2-0.2-0.3-0.4-0.3-0.7
						l8.5-318.5c0-0.5,0.4-0.9,0.9-0.9h58.2c0.5,0,0.9,0.4,0.9,0.9l8.5,318.2c0,0.1,0.1,0.2,0.1,0.3
						C503.2,556.2,502.8,556.6,502.3,556.6z M428,554.7h73.3l-8.5-316.7h-56.4L428,554.7z"/>
				</g>
				<g>
					<path class="st2" d="M466.1,556.6h-1.4c-0.5,0-0.9-0.4-0.9-0.8l-29.1-318.5c0-0.3,0.1-0.5,0.2-0.7c0.2-0.2,0.4-0.3,0.7-0.3
						h58.2c0.3,0,0.5,0.1,0.7,0.3c0.2,0.2,0.3,0.4,0.2,0.7L467,555.7C467,556.2,466.6,556.6,466.1,556.6z M436.6,238.1l28.8,315.2
						l27.4-315.2H436.6z"/>
				</g>
			</g>
			<g>
				<g>
					<path class="st2" d="M404.7,237.5h-49.6c-0.5,0-0.9-0.4-0.9-0.9v-52.5c0-0.5,0.4-0.9,0.9-0.9h49.6c0.5,0,0.9,0.4,0.9,0.9v52.5
						C405.6,237.1,405.2,237.5,404.7,237.5z M356,235.7h47.7V185H356V235.7z"/>
				</g>
				<g>
					<g>
						<g>
							<g>
								<g>
									<path class="st2" d="M372.3,205.8h-4.9c-0.5,0-0.9-0.4-0.9-0.9V200c0-0.5,0.4-0.9,0.9-0.9h4.9c0.5,0,0.9,0.4,0.9,0.9v4.9
										C373.2,205.4,372.8,205.8,372.3,205.8z M368.3,204h3.1v-3h-3.1V204z"/>
								</g>
								<g>
									<path class="st2" d="M377.8,205.8H373c-0.5,0-0.9-0.4-0.9-0.9V200c0-0.5,0.4-0.9,0.9-0.9h4.9c0.5,0,0.9,0.4,0.9,0.9v4.9
										C378.8,205.4,378.4,205.8,377.8,205.8z M373.9,204h3.1v-3h-3.1V204z"/>
								</g>
							</g>
						</g>
						<g>
							<g>
								<g>
									<path class="st2" d="M386.8,205.8h-4.9c-0.5,0-0.9-0.4-0.9-0.9V200c0-0.5,0.4-0.9,0.9-0.9h4.9c0.5,0,0.9,0.4,0.9,0.9v4.9
										C387.7,205.4,387.3,205.8,386.8,205.8z M382.9,204h3v-3h-3V204z"/>
								</g>
								<g>
									<path class="st2" d="M392.4,205.8h-4.9c-0.5,0-0.9-0.4-0.9-0.9V200c0-0.5,0.4-0.9,0.9-0.9h4.9c0.5,0,0.9,0.4,0.9,0.9v4.9
										C393.3,205.4,392.9,205.8,392.4,205.8z M388.4,204h3.1v-3h-3.1V204z"/>
								</g>
							</g>
						</g>
					</g>
					<g>
						<g>
							<g>
								<g>
									<path class="st2" d="M372.3,215h-4.9c-0.5,0-0.9-0.4-0.9-0.9v-4.9c0-0.5,0.4-0.9,0.9-0.9h4.9c0.5,0,0.9,0.4,0.9,0.9v4.9
										C373.2,214.6,372.8,215,372.3,215z M368.3,213.1h3.1v-3h-3.1V213.1z"/>
								</g>
								<g>
									<path class="st2" d="M377.8,215H373c-0.5,0-0.9-0.4-0.9-0.9v-4.9c0-0.5,0.4-0.9,0.9-0.9h4.9c0.5,0,0.9,0.4,0.9,0.9v4.9
										C378.8,214.6,378.4,215,377.8,215z M373.9,213.1h3.1v-3h-3.1V213.1z"/>
								</g>
							</g>
						</g>
						<g>
							<g>
								<g>
									<path class="st2" d="M386.8,215h-4.9c-0.5,0-0.9-0.4-0.9-0.9v-4.9c0-0.5,0.4-0.9,0.9-0.9h4.9c0.5,0,0.9,0.4,0.9,0.9v4.9
										C387.7,214.6,387.3,215,386.8,215z M382.9,213.1h3v-3h-3V213.1z"/>
								</g>
								<g>
									<path class="st2" d="M392.4,215h-4.9c-0.5,0-0.9-0.4-0.9-0.9v-4.9c0-0.5,0.4-0.9,0.9-0.9h4.9c0.5,0,0.9,0.4,0.9,0.9v4.9
										C393.3,214.6,392.9,215,392.4,215z M388.4,213.1h3.1v-3h-3.1V213.1z"/>
								</g>
							</g>
						</g>
					</g>
					<g>
						<g>
							<g>
								<g>
									<path class="st2" d="M372.3,224.1h-4.9c-0.5,0-0.9-0.4-0.9-0.9v-4.9c0-0.5,0.4-0.9,0.9-0.9h4.9c0.5,0,0.9,0.4,0.9,0.9v4.9
										C373.2,223.7,372.8,224.1,372.3,224.1z M368.3,222.3h3.1v-3h-3.1V222.3z"/>
								</g>
								<g>
									<path class="st2" d="M377.8,224.1H373c-0.5,0-0.9-0.4-0.9-0.9v-4.9c0-0.5,0.4-0.9,0.9-0.9h4.9c0.5,0,0.9,0.4,0.9,0.9v4.9
										C378.8,223.7,378.4,224.1,377.8,224.1z M373.9,222.3h3.1v-3h-3.1V222.3z"/>
								</g>
							</g>
						</g>
						<g>
							<g>
								<g>
									<path class="st2" d="M386.8,224.1h-4.9c-0.5,0-0.9-0.4-0.9-0.9v-4.9c0-0.5,0.4-0.9,0.9-0.9h4.9c0.5,0,0.9,0.4,0.9,0.9v4.9
										C387.7,223.7,387.3,224.1,386.8,224.1z M382.9,222.3h3v-3h-3V222.3z"/>
								</g>
								<g>
									<path class="st2" d="M392.4,224.1h-4.9c-0.5,0-0.9-0.4-0.9-0.9v-4.9c0-0.5,0.4-0.9,0.9-0.9h4.9c0.5,0,0.9,0.4,0.9,0.9v4.9
										C393.3,223.7,392.9,224.1,392.4,224.1z M388.4,222.3h3.1v-3h-3.1V222.3z"/>
								</g>
							</g>
						</g>
					</g>
				</g>
				<g>
					<path class="st2" d="M409.3,304.1h-58.7c-0.5,0-0.9-0.4-0.9-0.9v-70c0-0.5,0.4-0.9,0.9-0.9h58.7c0.5,0,0.9,0.4,0.9,0.9v70
						C410.2,303.7,409.8,304.1,409.3,304.1z M351.4,302.3h56.9v-68.2h-56.9V302.3z"/>
				</g>
				<g>
					<g>
						<g>
							<g>
								<g>
									<path class="st2" d="M365.1,258.4h-4.9c-0.5,0-0.9-0.4-0.9-0.9v-4.9c0-0.5,0.4-0.9,0.9-0.9h4.9c0.5,0,0.9,0.4,0.9,0.9v4.9
										C366,258,365.6,258.4,365.1,258.4z M361.1,256.5h3.1v-3h-3.1V256.5z"/>
								</g>
								<g>
									<path class="st2" d="M370.6,258.4h-4.9c-0.5,0-0.9-0.4-0.9-0.9v-4.9c0-0.5,0.4-0.9,0.9-0.9h4.9c0.5,0,0.9,0.4,0.9,0.9v4.9
										C371.5,258,371.1,258.4,370.6,258.4z M366.6,256.5h3.1v-3h-3.1V256.5z"/>
								</g>
							</g>
						</g>
						<g>
							<g>
								<g>
									<path class="st2" d="M379.6,258.4h-4.9c-0.5,0-0.9-0.4-0.9-0.9v-4.9c0-0.5,0.4-0.9,0.9-0.9h4.9c0.5,0,0.9,0.4,0.9,0.9v4.9
										C380.5,258,380.1,258.4,379.6,258.4z M375.6,256.5h3v-3h-3V256.5z"/>
								</g>
								<g>
									<path class="st2" d="M385.1,258.4h-4.9c-0.5,0-0.9-0.4-0.9-0.9v-4.9c0-0.5,0.4-0.9,0.9-0.9h4.9c0.5,0,0.9,0.4,0.9,0.9v4.9
										C386,258,385.6,258.4,385.1,258.4z M381.1,256.5h3v-3h-3V256.5z"/>
								</g>
							</g>
						</g>
						<g>
							<g>
								<g>
									<path class="st2" d="M394.1,258.4h-4.9c-0.5,0-0.9-0.4-0.9-0.9v-4.9c0-0.5,0.4-0.9,0.9-0.9h4.9c0.5,0,0.9,0.4,0.9,0.9v4.9
										C395,258,394.6,258.4,394.1,258.4z M390.1,256.5h3v-3h-3V256.5z"/>
								</g>
								<g>
									<path class="st2" d="M399.6,258.4h-4.9c-0.5,0-0.9-0.4-0.9-0.9v-4.9c0-0.5,0.4-0.9,0.9-0.9h4.9c0.5,0,0.9,0.4,0.9,0.9v4.9
										C400.5,258,400.1,258.4,399.6,258.4z M395.6,256.5h3.1v-3h-3.1V256.5z"/>
								</g>
							</g>
						</g>
					</g>
					<g>
						<g>
							<g>
								<g>
									<path class="st2" d="M365.1,267.5h-4.9c-0.5,0-0.9-0.4-0.9-0.9v-4.9c0-0.5,0.4-0.9,0.9-0.9h4.9c0.5,0,0.9,0.4,0.9,0.9v4.9
										C366,267.1,365.6,267.5,365.1,267.5z M361.1,265.7h3.1v-3h-3.1V265.7z"/>
								</g>
								<g>
									<path class="st2" d="M370.6,267.5h-4.9c-0.5,0-0.9-0.4-0.9-0.9v-4.9c0-0.5,0.4-0.9,0.9-0.9h4.9c0.5,0,0.9,0.4,0.9,0.9v4.9
										C371.5,267.1,371.1,267.5,370.6,267.5z M366.6,265.7h3.1v-3h-3.1V265.7z"/>
								</g>
							</g>
						</g>
						<g>
							<g>
								<g>
									<path class="st2" d="M379.6,267.5h-4.9c-0.5,0-0.9-0.4-0.9-0.9v-4.9c0-0.5,0.4-0.9,0.9-0.9h4.9c0.5,0,0.9,0.4,0.9,0.9v4.9
										C380.5,267.1,380.1,267.5,379.6,267.5z M375.6,265.7h3v-3h-3V265.7z"/>
								</g>
								<g>
									<path class="st2" d="M385.1,267.5h-4.9c-0.5,0-0.9-0.4-0.9-0.9v-4.9c0-0.5,0.4-0.9,0.9-0.9h4.9c0.5,0,0.9,0.4,0.9,0.9v4.9
										C386,267.1,385.6,267.5,385.1,267.5z M381.1,265.7h3v-3h-3V265.7z"/>
								</g>
							</g>
						</g>
						<g>
							<g>
								<g>
									<path class="st2" d="M394.1,267.5h-4.9c-0.5,0-0.9-0.4-0.9-0.9v-4.9c0-0.5,0.4-0.9,0.9-0.9h4.9c0.5,0,0.9,0.4,0.9,0.9v4.9
										C395,267.1,394.6,267.5,394.1,267.5z M390.1,265.7h3v-3h-3V265.7z"/>
								</g>
								<g>
									<path class="st2" d="M399.6,267.5h-4.9c-0.5,0-0.9-0.4-0.9-0.9v-4.9c0-0.5,0.4-0.9,0.9-0.9h4.9c0.5,0,0.9,0.4,0.9,0.9v4.9
										C400.5,267.1,400.1,267.5,399.6,267.5z M395.6,265.7h3.1v-3h-3.1V265.7z"/>
								</g>
							</g>
						</g>
					</g>
					<g>
						<g>
							<g>
								<g>
									<path class="st2" d="M365.1,276.7h-4.9c-0.5,0-0.9-0.4-0.9-0.9v-4.9c0-0.5,0.4-0.9,0.9-0.9h4.9c0.5,0,0.9,0.4,0.9,0.9v4.9
										C366,276.3,365.6,276.7,365.1,276.7z M361.1,274.9h3.1v-3h-3.1V274.9z"/>
								</g>
								<g>
									<path class="st2" d="M370.6,276.7h-4.9c-0.5,0-0.9-0.4-0.9-0.9v-4.9c0-0.5,0.4-0.9,0.9-0.9h4.9c0.5,0,0.9,0.4,0.9,0.9v4.9
										C371.5,276.3,371.1,276.7,370.6,276.7z M366.6,274.9h3.1v-3h-3.1V274.9z"/>
								</g>
							</g>
						</g>
						<g>
							<g>
								<g>
									<path class="st2" d="M379.6,276.7h-4.9c-0.5,0-0.9-0.4-0.9-0.9v-4.9c0-0.5,0.4-0.9,0.9-0.9h4.9c0.5,0,0.9,0.4,0.9,0.9v4.9
										C380.5,276.3,380.1,276.7,379.6,276.7z M375.6,274.9h3v-3h-3V274.9z"/>
								</g>
								<g>
									<path class="st2" d="M385.1,276.7h-4.9c-0.5,0-0.9-0.4-0.9-0.9v-4.9c0-0.5,0.4-0.9,0.9-0.9h4.9c0.5,0,0.9,0.4,0.9,0.9v4.9
										C386,276.3,385.6,276.7,385.1,276.7z M381.1,274.9h3v-3h-3V274.9z"/>
								</g>
							</g>
						</g>
						<g>
							<g>
								<g>
									<path class="st2" d="M394.1,276.7h-4.9c-0.5,0-0.9-0.4-0.9-0.9v-4.9c0-0.5,0.4-0.9,0.9-0.9h4.9c0.5,0,0.9,0.4,0.9,0.9v4.9
										C395,276.3,394.6,276.7,394.1,276.7z M390.1,274.9h3v-3h-3V274.9z"/>
								</g>
								<g>
									<path class="st2" d="M399.6,276.7h-4.9c-0.5,0-0.9-0.4-0.9-0.9v-4.9c0-0.5,0.4-0.9,0.9-0.9h4.9c0.5,0,0.9,0.4,0.9,0.9v4.9
										C400.5,276.3,400.1,276.7,399.6,276.7z M395.6,274.9h3.1v-3h-3.1V274.9z"/>
								</g>
							</g>
						</g>
					</g>
					<g>
						<g>
							<g>
								<g>
									<path class="st2" d="M365.1,285.9h-4.9c-0.5,0-0.9-0.4-0.9-0.9v-4.9c0-0.5,0.4-0.9,0.9-0.9h4.9c0.5,0,0.9,0.4,0.9,0.9v4.9
										C366,285.4,365.6,285.9,365.1,285.9z M361.1,284h3.1v-3h-3.1V284z"/>
								</g>
								<g>
									<path class="st2" d="M370.6,285.9h-4.9c-0.5,0-0.9-0.4-0.9-0.9v-4.9c0-0.5,0.4-0.9,0.9-0.9h4.9c0.5,0,0.9,0.4,0.9,0.9v4.9
										C371.5,285.4,371.1,285.9,370.6,285.9z M366.6,284h3.1v-3h-3.1V284z"/>
								</g>
							</g>
						</g>
						<g>
							<g>
								<g>
									<path class="st2" d="M379.6,285.9h-4.9c-0.5,0-0.9-0.4-0.9-0.9v-4.9c0-0.5,0.4-0.9,0.9-0.9h4.9c0.5,0,0.9,0.4,0.9,0.9v4.9
										C380.5,285.4,380.1,285.9,379.6,285.9z M375.6,284h3v-3h-3V284z"/>
								</g>
								<g>
									<path class="st2" d="M385.1,285.9h-4.9c-0.5,0-0.9-0.4-0.9-0.9v-4.9c0-0.5,0.4-0.9,0.9-0.9h4.9c0.5,0,0.9,0.4,0.9,0.9v4.9
										C386,285.4,385.6,285.9,385.1,285.9z M381.1,284h3v-3h-3V284z"/>
								</g>
							</g>
						</g>
						<g>
							<g>
								<g>
									<path class="st2" d="M394.1,285.9h-4.9c-0.5,0-0.9-0.4-0.9-0.9v-4.9c0-0.5,0.4-0.9,0.9-0.9h4.9c0.5,0,0.9,0.4,0.9,0.9v4.9
										C395,285.4,394.6,285.9,394.1,285.9z M390.1,284h3v-3h-3V284z"/>
								</g>
								<g>
									<path class="st2" d="M399.6,285.9h-4.9c-0.5,0-0.9-0.4-0.9-0.9v-4.9c0-0.5,0.4-0.9,0.9-0.9h4.9c0.5,0,0.9,0.4,0.9,0.9v4.9
										C400.5,285.4,400.1,285.9,399.6,285.9z M395.6,284h3.1v-3h-3.1V284z"/>
								</g>
							</g>
						</g>
					</g>
				</g>
			</g>
			<g>
				<g>
					<path class="st2" d="M573.6,297.3h-47.2c-0.5,0-0.9-0.4-0.9-0.9v-36.4c0-0.5,0.4-0.9,0.9-0.9h47.2c0.5,0,0.9,0.4,0.9,0.9v36.4
						C574.5,296.9,574.1,297.3,573.6,297.3z M527.2,295.4h45.4v-34.6h-45.4V295.4z"/>
				</g>
				<g>
					<g>
						<path class="st2" d="M542.1,279.9h-13.6c-0.5,0-0.9-0.4-0.9-0.9V264c0-0.5,0.4-0.9,0.9-0.9h13.6c0.5,0,0.9,0.4,0.9,0.9V279
							C543,279.5,542.6,279.9,542.1,279.9z M529.4,278.1h11.7v-13.2h-11.7V278.1z"/>
					</g>
					<g>
						<path class="st2" d="M556.7,279.9h-13.6c-0.5,0-0.9-0.4-0.9-0.9V264c0-0.5,0.4-0.9,0.9-0.9h13.6c0.5,0,0.9,0.4,0.9,0.9V279
							C557.6,279.5,557.2,279.9,556.7,279.9z M544.1,278.1h11.7v-13.2h-11.7V278.1z"/>
					</g>
					<g>
						<path class="st2" d="M571.4,280.1h-13.6c-0.5,0-0.9-0.4-0.9-0.9v-15.1c0-0.5,0.4-0.9,0.9-0.9h13.6c0.5,0,0.9,0.4,0.9,0.9v15.1
							C572.3,279.7,571.9,280.1,571.4,280.1z M558.7,278.2h11.7V265h-11.7V278.2z"/>
					</g>
				</g>
				<g>
					<g>
						<path class="st2" d="M542.1,296h-13.6c-0.5,0-0.9-0.4-0.9-0.9V280c0-0.5,0.4-0.9,0.9-0.9h13.6c0.5,0,0.9,0.4,0.9,0.9v15.1
							C543,295.6,542.6,296,542.1,296z M529.4,294.2h11.7v-13.2h-11.7V294.2z"/>
					</g>
					<g>
						<path class="st2" d="M556.7,296h-13.6c-0.5,0-0.9-0.4-0.9-0.9V280c0-0.5,0.4-0.9,0.9-0.9h13.6c0.5,0,0.9,0.4,0.9,0.9v15.1
							C557.6,295.6,557.2,296,556.7,296z M544.1,294.2h11.7v-13.2h-11.7V294.2z"/>
					</g>
					<g>
						<path class="st2" d="M571.4,296.1h-13.6c-0.5,0-0.9-0.4-0.9-0.9v-15.1c0-0.5,0.4-0.9,0.9-0.9h13.6c0.5,0,0.9,0.4,0.9,0.9v15.1
							C572.3,295.7,571.9,296.1,571.4,296.1z M558.7,294.3h11.7V281h-11.7V294.3z"/>
					</g>
				</g>
			</g>
			<g>
				<g>
					<path class="st2" d="M334,486.6H138.6c-0.5,0-0.9-0.4-0.9-0.9V239.5c0-0.5,0.4-0.9,0.9-0.9H334c0.5,0,0.9,0.4,0.9,0.9v246.2
						C334.9,486.2,334.5,486.6,334,486.6z M139.5,484.7h193.5V240.4H139.5V484.7z"/>
				</g>
				<g>
					<g>
						<g>
							<g>
								<g>
									<g>
										<path class="st2" d="M156.1,275.3h-4.9c-0.5,0-0.9-0.4-0.9-0.9v-4.9c0-0.5,0.4-0.9,0.9-0.9h4.9c0.5,0,0.9,0.4,0.9,0.9v4.9
											C157,274.9,156.6,275.3,156.1,275.3z M152.1,273.5h3.1v-3h-3.1V273.5z"/>
									</g>
									<g>
										<path class="st2" d="M161.6,275.3h-4.9c-0.5,0-0.9-0.4-0.9-0.9v-4.9c0-0.5,0.4-0.9,0.9-0.9h4.9c0.5,0,0.9,0.4,0.9,0.9v4.9
											C162.5,274.9,162.1,275.3,161.6,275.3z M157.6,273.5h3.1v-3h-3.1V273.5z"/>
									</g>
								</g>
							</g>
							<g>
								<g>
									<g>
										<path class="st2" d="M170.6,275.3h-4.9c-0.5,0-0.9-0.4-0.9-0.9v-4.9c0-0.5,0.4-0.9,0.9-0.9h4.9c0.5,0,0.9,0.4,0.9,0.9v4.9
											C171.5,274.9,171.1,275.3,170.6,275.3z M166.6,273.5h3.1v-3h-3.1V273.5z"/>
									</g>
									<g>
										<path class="st2" d="M176.1,275.3h-4.9c-0.5,0-0.9-0.4-0.9-0.9v-4.9c0-0.5,0.4-0.9,0.9-0.9h4.9c0.5,0,0.9,0.4,0.9,0.9v4.9
											C177,274.9,176.6,275.3,176.1,275.3z M172.1,273.5h3v-3h-3V273.5z"/>
									</g>
								</g>
							</g>
							<g>
								<g>
									<g>
										<path class="st2" d="M185.1,275.3h-4.9c-0.5,0-0.9-0.4-0.9-0.9v-4.9c0-0.5,0.4-0.9,0.9-0.9h4.9c0.5,0,0.9,0.4,0.9,0.9v4.9
											C186,274.9,185.6,275.3,185.1,275.3z M181.1,273.5h3.1v-3h-3.1V273.5z"/>
									</g>
									<g>
										<path class="st2" d="M190.6,275.3h-4.9c-0.5,0-0.9-0.4-0.9-0.9v-4.9c0-0.5,0.4-0.9,0.9-0.9h4.9c0.5,0,0.9,0.4,0.9,0.9v4.9
											C191.5,274.9,191.1,275.3,190.6,275.3z M186.7,273.5h3.1v-3h-3.1V273.5z"/>
									</g>
								</g>
							</g>
							<g>
								<g>
									<g>
										<path class="st2" d="M199.6,275.3h-4.9c-0.5,0-0.9-0.4-0.9-0.9v-4.9c0-0.5,0.4-0.9,0.9-0.9h4.9c0.5,0,0.9,0.4,0.9,0.9v4.9
											C200.5,274.9,200.1,275.3,199.6,275.3z M195.6,273.5h3.1v-3h-3.1V273.5z"/>
									</g>
									<g>
										<path class="st2" d="M205.1,275.3h-4.9c-0.5,0-0.9-0.4-0.9-0.9v-4.9c0-0.5,0.4-0.9,0.9-0.9h4.9c0.5,0,0.9,0.4,0.9,0.9v4.9
											C206.1,274.9,205.6,275.3,205.1,275.3z M201.2,273.5h3.1v-3h-3.1V273.5z"/>
									</g>
								</g>
							</g>
						</g>
						<g>
							<g>
								<g>
									<g>
										<path class="st2" d="M156.1,284.5h-4.9c-0.5,0-0.9-0.4-0.9-0.9v-4.9c0-0.5,0.4-0.9,0.9-0.9h4.9c0.5,0,0.9,0.4,0.9,0.9v4.9
											C157,284.1,156.6,284.5,156.1,284.5z M152.1,282.6h3.1v-3h-3.1V282.6z"/>
									</g>
									<g>
										<path class="st2" d="M161.6,284.5h-4.9c-0.5,0-0.9-0.4-0.9-0.9v-4.9c0-0.5,0.4-0.9,0.9-0.9h4.9c0.5,0,0.9,0.4,0.9,0.9v4.9
											C162.5,284.1,162.1,284.5,161.6,284.5z M157.6,282.6h3.1v-3h-3.1V282.6z"/>
									</g>
								</g>
							</g>
							<g>
								<g>
									<g>
										<path class="st2" d="M170.6,284.5h-4.9c-0.5,0-0.9-0.4-0.9-0.9v-4.9c0-0.5,0.4-0.9,0.9-0.9h4.9c0.5,0,0.9,0.4,0.9,0.9v4.9
											C171.5,284.1,171.1,284.5,170.6,284.5z M166.6,282.6h3.1v-3h-3.1V282.6z"/>
									</g>
									<g>
										<path class="st2" d="M176.1,284.5h-4.9c-0.5,0-0.9-0.4-0.9-0.9v-4.9c0-0.5,0.4-0.9,0.9-0.9h4.9c0.5,0,0.9,0.4,0.9,0.9v4.9
											C177,284.1,176.6,284.5,176.1,284.5z M172.1,282.6h3v-3h-3V282.6z"/>
									</g>
								</g>
							</g>
							<g>
								<g>
									<g>
										<path class="st2" d="M185.1,284.5h-4.9c-0.5,0-0.9-0.4-0.9-0.9v-4.9c0-0.5,0.4-0.9,0.9-0.9h4.9c0.5,0,0.9,0.4,0.9,0.9v4.9
											C186,284.1,185.6,284.5,185.1,284.5z M181.1,282.6h3.1v-3h-3.1V282.6z"/>
									</g>
									<g>
										<path class="st2" d="M190.6,284.5h-4.9c-0.5,0-0.9-0.4-0.9-0.9v-4.9c0-0.5,0.4-0.9,0.9-0.9h4.9c0.5,0,0.9,0.4,0.9,0.9v4.9
											C191.5,284.1,191.1,284.5,190.6,284.5z M186.7,282.6h3.1v-3h-3.1V282.6z"/>
									</g>
								</g>
							</g>
							<g>
								<g>
									<g>
										<path class="st2" d="M199.6,284.5h-4.9c-0.5,0-0.9-0.4-0.9-0.9v-4.9c0-0.5,0.4-0.9,0.9-0.9h4.9c0.5,0,0.9,0.4,0.9,0.9v4.9
											C200.5,284.1,200.1,284.5,199.6,284.5z M195.6,282.6h3.1v-3h-3.1V282.6z"/>
									</g>
									<g>
										<path class="st2" d="M205.1,284.5h-4.9c-0.5,0-0.9-0.4-0.9-0.9v-4.9c0-0.5,0.4-0.9,0.9-0.9h4.9c0.5,0,0.9,0.4,0.9,0.9v4.9
											C206.1,284.1,205.6,284.5,205.1,284.5z M201.2,282.6h3.1v-3h-3.1V282.6z"/>
									</g>
								</g>
							</g>
						</g>
						<g>
							<g>
								<g>
									<g>
										<path class="st2" d="M156.1,293.6h-4.9c-0.5,0-0.9-0.4-0.9-0.9v-4.9c0-0.5,0.4-0.9,0.9-0.9h4.9c0.5,0,0.9,0.4,0.9,0.9v4.9
											C157,293.2,156.6,293.6,156.1,293.6z M152.1,291.8h3.1v-3h-3.1V291.8z"/>
									</g>
									<g>
										<path class="st2" d="M161.6,293.6h-4.9c-0.5,0-0.9-0.4-0.9-0.9v-4.9c0-0.5,0.4-0.9,0.9-0.9h4.9c0.5,0,0.9,0.4,0.9,0.9v4.9
											C162.5,293.2,162.1,293.6,161.6,293.6z M157.6,291.8h3.1v-3h-3.1V291.8z"/>
									</g>
								</g>
							</g>
							<g>
								<g>
									<g>
										<path class="st2" d="M170.6,293.6h-4.9c-0.5,0-0.9-0.4-0.9-0.9v-4.9c0-0.5,0.4-0.9,0.9-0.9h4.9c0.5,0,0.9,0.4,0.9,0.9v4.9
											C171.5,293.2,171.1,293.6,170.6,293.6z M166.6,291.8h3.1v-3h-3.1V291.8z"/>
									</g>
									<g>
										<path class="st2" d="M176.1,293.6h-4.9c-0.5,0-0.9-0.4-0.9-0.9v-4.9c0-0.5,0.4-0.9,0.9-0.9h4.9c0.5,0,0.9,0.4,0.9,0.9v4.9
											C177,293.2,176.6,293.6,176.1,293.6z M172.1,291.8h3v-3h-3V291.8z"/>
									</g>
								</g>
							</g>
							<g>
								<g>
									<g>
										<path class="st2" d="M185.1,293.6h-4.9c-0.5,0-0.9-0.4-0.9-0.9v-4.9c0-0.5,0.4-0.9,0.9-0.9h4.9c0.5,0,0.9,0.4,0.9,0.9v4.9
											C186,293.2,185.6,293.6,185.1,293.6z M181.1,291.8h3.1v-3h-3.1V291.8z"/>
									</g>
									<g>
										<path class="st2" d="M190.6,293.6h-4.9c-0.5,0-0.9-0.4-0.9-0.9v-4.9c0-0.5,0.4-0.9,0.9-0.9h4.9c0.5,0,0.9,0.4,0.9,0.9v4.9
											C191.5,293.2,191.1,293.6,190.6,293.6z M186.7,291.8h3.1v-3h-3.1V291.8z"/>
									</g>
								</g>
							</g>
							<g>
								<g>
									<g>
										<path class="st2" d="M199.6,293.6h-4.9c-0.5,0-0.9-0.4-0.9-0.9v-4.9c0-0.5,0.4-0.9,0.9-0.9h4.9c0.5,0,0.9,0.4,0.9,0.9v4.9
											C200.5,293.2,200.1,293.6,199.6,293.6z M195.6,291.8h3.1v-3h-3.1V291.8z"/>
									</g>
									<g>
										<path class="st2" d="M205.1,293.6h-4.9c-0.5,0-0.9-0.4-0.9-0.9v-4.9c0-0.5,0.4-0.9,0.9-0.9h4.9c0.5,0,0.9,0.4,0.9,0.9v4.9
											C206.1,293.2,205.6,293.6,205.1,293.6z M201.2,291.8h3.1v-3h-3.1V291.8z"/>
									</g>
								</g>
							</g>
						</g>
					</g>
					<g>
						<g>
							<g>
								<g>
									<g>
										<path class="st2" d="M216.1,275.3h-4.9c-0.5,0-0.9-0.4-0.9-0.9v-4.9c0-0.5,0.4-0.9,0.9-0.9h4.9c0.5,0,0.9,0.4,0.9,0.9v4.9
											C217,274.9,216.6,275.3,216.1,275.3z M212.1,273.5h3.1v-3h-3.1V273.5z"/>
									</g>
									<g>
										<path class="st2" d="M221.6,275.3h-4.9c-0.5,0-0.9-0.4-0.9-0.9v-4.9c0-0.5,0.4-0.9,0.9-0.9h4.9c0.5,0,0.9,0.4,0.9,0.9v4.9
											C222.5,274.9,222.1,275.3,221.6,275.3z M217.6,273.5h3v-3h-3V273.5z"/>
									</g>
								</g>
							</g>
							<g>
								<g>
									<g>
										<path class="st2" d="M230.5,275.3h-4.9c-0.5,0-0.9-0.4-0.9-0.9v-4.9c0-0.5,0.4-0.9,0.9-0.9h4.9c0.5,0,0.9,0.4,0.9,0.9v4.9
											C231.5,274.9,231.1,275.3,230.5,275.3z M226.6,273.5h3v-3h-3V273.5z"/>
									</g>
									<g>
										<path class="st2" d="M236.1,275.3h-4.9c-0.5,0-0.9-0.4-0.9-0.9v-4.9c0-0.5,0.4-0.9,0.9-0.9h4.9c0.5,0,0.9,0.4,0.9,0.9v4.9
											C237,274.9,236.6,275.3,236.1,275.3z M232.1,273.5h3v-3h-3V273.5z"/>
									</g>
								</g>
							</g>
							<g>
								<g>
									<g>
										<path class="st2" d="M245.1,275.3h-4.9c-0.5,0-0.9-0.4-0.9-0.9v-4.9c0-0.5,0.4-0.9,0.9-0.9h4.9c0.5,0,0.9,0.4,0.9,0.9v4.9
											C246,274.9,245.6,275.3,245.1,275.3z M241.1,273.5h3v-3h-3V273.5z"/>
									</g>
									<g>
										<path class="st2" d="M250.6,275.3h-4.9c-0.5,0-0.9-0.4-0.9-0.9v-4.9c0-0.5,0.4-0.9,0.9-0.9h4.9c0.5,0,0.9,0.4,0.9,0.9v4.9
											C251.5,274.9,251.1,275.3,250.6,275.3z M246.6,273.5h3.1v-3h-3.1V273.5z"/>
									</g>
								</g>
							</g>
							<g>
								<g>
									<g>
										<path class="st2" d="M259.6,275.3h-4.9c-0.5,0-0.9-0.4-0.9-0.9v-4.9c0-0.5,0.4-0.9,0.9-0.9h4.9c0.5,0,0.9,0.4,0.9,0.9v4.9
											C260.5,274.9,260.1,275.3,259.6,275.3z M255.6,273.5h3.1v-3h-3.1V273.5z"/>
									</g>
									<g>
										<path class="st2" d="M265.1,275.3h-4.9c-0.5,0-0.9-0.4-0.9-0.9v-4.9c0-0.5,0.4-0.9,0.9-0.9h4.9c0.5,0,0.9,0.4,0.9,0.9v4.9
											C266,274.9,265.6,275.3,265.1,275.3z M261.1,273.5h3.1v-3h-3.1V273.5z"/>
									</g>
								</g>
							</g>
						</g>
						<g>
							<g>
								<g>
									<g>
										<path class="st2" d="M216.1,284.5h-4.9c-0.5,0-0.9-0.4-0.9-0.9v-4.9c0-0.5,0.4-0.9,0.9-0.9h4.9c0.5,0,0.9,0.4,0.9,0.9v4.9
											C217,284.1,216.6,284.5,216.1,284.5z M212.1,282.6h3.1v-3h-3.1V282.6z"/>
									</g>
									<g>
										<path class="st2" d="M221.6,284.5h-4.9c-0.5,0-0.9-0.4-0.9-0.9v-4.9c0-0.5,0.4-0.9,0.9-0.9h4.9c0.5,0,0.9,0.4,0.9,0.9v4.9
											C222.5,284.1,222.1,284.5,221.6,284.5z M217.6,282.6h3v-3h-3V282.6z"/>
									</g>
								</g>
							</g>
							<g>
								<g>
									<g>
										<path class="st2" d="M230.5,284.5h-4.9c-0.5,0-0.9-0.4-0.9-0.9v-4.9c0-0.5,0.4-0.9,0.9-0.9h4.9c0.5,0,0.9,0.4,0.9,0.9v4.9
											C231.5,284.1,231.1,284.5,230.5,284.5z M226.6,282.6h3v-3h-3V282.6z"/>
									</g>
									<g>
										<path class="st2" d="M236.1,284.5h-4.9c-0.5,0-0.9-0.4-0.9-0.9v-4.9c0-0.5,0.4-0.9,0.9-0.9h4.9c0.5,0,0.9,0.4,0.9,0.9v4.9
											C237,284.1,236.6,284.5,236.1,284.5z M232.1,282.6h3v-3h-3V282.6z"/>
									</g>
								</g>
							</g>
							<g>
								<g>
									<g>
										<path class="st2" d="M245.1,284.5h-4.9c-0.5,0-0.9-0.4-0.9-0.9v-4.9c0-0.5,0.4-0.9,0.9-0.9h4.9c0.5,0,0.9,0.4,0.9,0.9v4.9
											C246,284.1,245.6,284.5,245.1,284.5z M241.1,282.6h3v-3h-3V282.6z"/>
									</g>
									<g>
										<path class="st2" d="M250.6,284.5h-4.9c-0.5,0-0.9-0.4-0.9-0.9v-4.9c0-0.5,0.4-0.9,0.9-0.9h4.9c0.5,0,0.9,0.4,0.9,0.9v4.9
											C251.5,284.1,251.1,284.5,250.6,284.5z M246.6,282.6h3.1v-3h-3.1V282.6z"/>
									</g>
								</g>
							</g>
							<g>
								<g>
									<g>
										<path class="st2" d="M259.6,284.5h-4.9c-0.5,0-0.9-0.4-0.9-0.9v-4.9c0-0.5,0.4-0.9,0.9-0.9h4.9c0.5,0,0.9,0.4,0.9,0.9v4.9
											C260.5,284.1,260.1,284.5,259.6,284.5z M255.6,282.6h3.1v-3h-3.1V282.6z"/>
									</g>
									<g>
										<path class="st2" d="M265.1,284.5h-4.9c-0.5,0-0.9-0.4-0.9-0.9v-4.9c0-0.5,0.4-0.9,0.9-0.9h4.9c0.5,0,0.9,0.4,0.9,0.9v4.9
											C266,284.1,265.6,284.5,265.1,284.5z M261.1,282.6h3.1v-3h-3.1V282.6z"/>
									</g>
								</g>
							</g>
						</g>
						<g>
							<g>
								<g>
									<g>
										<path class="st2" d="M216.1,293.6h-4.9c-0.5,0-0.9-0.4-0.9-0.9v-4.9c0-0.5,0.4-0.9,0.9-0.9h4.9c0.5,0,0.9,0.4,0.9,0.9v4.9
											C217,293.2,216.6,293.6,216.1,293.6z M212.1,291.8h3.1v-3h-3.1V291.8z"/>
									</g>
									<g>
										<path class="st2" d="M221.6,293.6h-4.9c-0.5,0-0.9-0.4-0.9-0.9v-4.9c0-0.5,0.4-0.9,0.9-0.9h4.9c0.5,0,0.9,0.4,0.9,0.9v4.9
											C222.5,293.2,222.1,293.6,221.6,293.6z M217.6,291.8h3v-3h-3V291.8z"/>
									</g>
								</g>
							</g>
							<g>
								<g>
									<g>
										<path class="st2" d="M230.5,293.6h-4.9c-0.5,0-0.9-0.4-0.9-0.9v-4.9c0-0.5,0.4-0.9,0.9-0.9h4.9c0.5,0,0.9,0.4,0.9,0.9v4.9
											C231.5,293.2,231.1,293.6,230.5,293.6z M226.6,291.8h3v-3h-3V291.8z"/>
									</g>
									<g>
										<path class="st2" d="M236.1,293.6h-4.9c-0.5,0-0.9-0.4-0.9-0.9v-4.9c0-0.5,0.4-0.9,0.9-0.9h4.9c0.5,0,0.9,0.4,0.9,0.9v4.9
											C237,293.2,236.6,293.6,236.1,293.6z M232.1,291.8h3v-3h-3V291.8z"/>
									</g>
								</g>
							</g>
							<g>
								<g>
									<g>
										<path class="st2" d="M245.1,293.6h-4.9c-0.5,0-0.9-0.4-0.9-0.9v-4.9c0-0.5,0.4-0.9,0.9-0.9h4.9c0.5,0,0.9,0.4,0.9,0.9v4.9
											C246,293.2,245.6,293.6,245.1,293.6z M241.1,291.8h3v-3h-3V291.8z"/>
									</g>
									<g>
										<path class="st2" d="M250.6,293.6h-4.9c-0.5,0-0.9-0.4-0.9-0.9v-4.9c0-0.5,0.4-0.9,0.9-0.9h4.9c0.5,0,0.9,0.4,0.9,0.9v4.9
											C251.5,293.2,251.1,293.6,250.6,293.6z M246.6,291.8h3.1v-3h-3.1V291.8z"/>
									</g>
								</g>
							</g>
							<g>
								<g>
									<g>
										<path class="st2" d="M259.6,293.6h-4.9c-0.5,0-0.9-0.4-0.9-0.9v-4.9c0-0.5,0.4-0.9,0.9-0.9h4.9c0.5,0,0.9,0.4,0.9,0.9v4.9
											C260.5,293.2,260.1,293.6,259.6,293.6z M255.6,291.8h3.1v-3h-3.1V291.8z"/>
									</g>
									<g>
										<path class="st2" d="M265.1,293.6h-4.9c-0.5,0-0.9-0.4-0.9-0.9v-4.9c0-0.5,0.4-0.9,0.9-0.9h4.9c0.5,0,0.9,0.4,0.9,0.9v4.9
											C266,293.2,265.6,293.6,265.1,293.6z M261.1,291.8h3.1v-3h-3.1V291.8z"/>
									</g>
								</g>
							</g>
						</g>
					</g>
					<g>
						<g>
							<g>
								<g>
									<g>
										<path class="st2" d="M276,275.3h-4.9c-0.5,0-0.9-0.4-0.9-0.9v-4.9c0-0.5,0.4-0.9,0.9-0.9h4.9c0.5,0,0.9,0.4,0.9,0.9v4.9
											C276.9,274.9,276.5,275.3,276,275.3z M272.1,273.5h3.1v-3h-3.1V273.5z"/>
									</g>
									<g>
										<path class="st2" d="M281.6,275.3h-4.9c-0.5,0-0.9-0.4-0.9-0.9v-4.9c0-0.5,0.4-0.9,0.9-0.9h4.9c0.5,0,0.9,0.4,0.9,0.9v4.9
											C282.5,274.9,282.1,275.3,281.6,275.3z M277.6,273.5h3.1v-3h-3.1V273.5z"/>
									</g>
								</g>
							</g>
							<g>
								<g>
									<g>
										<path class="st2" d="M290.5,275.3h-4.9c-0.5,0-0.9-0.4-0.9-0.9v-4.9c0-0.5,0.4-0.9,0.9-0.9h4.9c0.5,0,0.9,0.4,0.9,0.9v4.9
											C291.5,274.9,291,275.3,290.5,275.3z M286.6,273.5h3v-3h-3V273.5z"/>
									</g>
									<g>
										<path class="st2" d="M296.1,275.3h-4.9c-0.5,0-0.9-0.4-0.9-0.9v-4.9c0-0.5,0.4-0.9,0.9-0.9h4.9c0.5,0,0.9,0.4,0.9,0.9v4.9
											C297,274.9,296.6,275.3,296.1,275.3z M292.1,273.5h3v-3h-3V273.5z"/>
									</g>
								</g>
							</g>
							<g>
								<g>
									<g>
										<path class="st2" d="M305,275.3h-4.9c-0.5,0-0.9-0.4-0.9-0.9v-4.9c0-0.5,0.4-0.9,0.9-0.9h4.9c0.5,0,0.9,0.4,0.9,0.9v4.9
											C306,274.9,305.6,275.3,305,275.3z M301.1,273.5h3.1v-3h-3.1V273.5z"/>
									</g>
									<g>
										<path class="st2" d="M310.6,275.3h-4.9c-0.5,0-0.9-0.4-0.9-0.9v-4.9c0-0.5,0.4-0.9,0.9-0.9h4.9c0.5,0,0.9,0.4,0.9,0.9v4.9
											C311.5,274.9,311.1,275.3,310.6,275.3z M306.6,273.5h3.1v-3h-3.1V273.5z"/>
									</g>
								</g>
							</g>
							<g>
								<g>
									<g>
										<path class="st2" d="M319.6,275.3h-4.9c-0.5,0-0.9-0.4-0.9-0.9v-4.9c0-0.5,0.4-0.9,0.9-0.9h4.9c0.5,0,0.9,0.4,0.9,0.9v4.9
											C320.5,274.9,320.1,275.3,319.6,275.3z M315.6,273.5h3.1v-3h-3.1V273.5z"/>
									</g>
									<g>
										<path class="st2" d="M325.1,275.3h-4.9c-0.5,0-0.9-0.4-0.9-0.9v-4.9c0-0.5,0.4-0.9,0.9-0.9h4.9c0.5,0,0.9,0.4,0.9,0.9v4.9
											C326,274.9,325.6,275.3,325.1,275.3z M321.1,273.5h3.1v-3h-3.1V273.5z"/>
									</g>
								</g>
							</g>
						</g>
						<g>
							<g>
								<g>
									<g>
										<path class="st2" d="M276,284.5h-4.9c-0.5,0-0.9-0.4-0.9-0.9v-4.9c0-0.5,0.4-0.9,0.9-0.9h4.9c0.5,0,0.9,0.4,0.9,0.9v4.9
											C276.9,284.1,276.5,284.5,276,284.5z M272.1,282.6h3.1v-3h-3.1V282.6z"/>
									</g>
									<g>
										<path class="st2" d="M281.6,284.5h-4.9c-0.5,0-0.9-0.4-0.9-0.9v-4.9c0-0.5,0.4-0.9,0.9-0.9h4.9c0.5,0,0.9,0.4,0.9,0.9v4.9
											C282.5,284.1,282.1,284.5,281.6,284.5z M277.6,282.6h3.1v-3h-3.1V282.6z"/>
									</g>
								</g>
							</g>
							<g>
								<g>
									<g>
										<path class="st2" d="M290.5,284.5h-4.9c-0.5,0-0.9-0.4-0.9-0.9v-4.9c0-0.5,0.4-0.9,0.9-0.9h4.9c0.5,0,0.9,0.4,0.9,0.9v4.9
											C291.5,284.1,291,284.5,290.5,284.5z M286.6,282.6h3v-3h-3V282.6z"/>
									</g>
									<g>
										<path class="st2" d="M296.1,284.5h-4.9c-0.5,0-0.9-0.4-0.9-0.9v-4.9c0-0.5,0.4-0.9,0.9-0.9h4.9c0.5,0,0.9,0.4,0.9,0.9v4.9
											C297,284.1,296.6,284.5,296.1,284.5z M292.1,282.6h3v-3h-3V282.6z"/>
									</g>
								</g>
							</g>
							<g>
								<g>
									<g>
										<path class="st2" d="M305,284.5h-4.9c-0.5,0-0.9-0.4-0.9-0.9v-4.9c0-0.5,0.4-0.9,0.9-0.9h4.9c0.5,0,0.9,0.4,0.9,0.9v4.9
											C306,284.1,305.6,284.5,305,284.5z M301.1,282.6h3.1v-3h-3.1V282.6z"/>
									</g>
									<g>
										<path class="st2" d="M310.6,284.5h-4.9c-0.5,0-0.9-0.4-0.9-0.9v-4.9c0-0.5,0.4-0.9,0.9-0.9h4.9c0.5,0,0.9,0.4,0.9,0.9v4.9
											C311.5,284.1,311.1,284.5,310.6,284.5z M306.6,282.6h3.1v-3h-3.1V282.6z"/>
									</g>
								</g>
							</g>
							<g>
								<g>
									<g>
										<path class="st2" d="M319.6,284.5h-4.9c-0.5,0-0.9-0.4-0.9-0.9v-4.9c0-0.5,0.4-0.9,0.9-0.9h4.9c0.5,0,0.9,0.4,0.9,0.9v4.9
											C320.5,284.1,320.1,284.5,319.6,284.5z M315.6,282.6h3.1v-3h-3.1V282.6z"/>
									</g>
									<g>
										<path class="st2" d="M325.1,284.5h-4.9c-0.5,0-0.9-0.4-0.9-0.9v-4.9c0-0.5,0.4-0.9,0.9-0.9h4.9c0.5,0,0.9,0.4,0.9,0.9v4.9
											C326,284.1,325.6,284.5,325.1,284.5z M321.1,282.6h3.1v-3h-3.1V282.6z"/>
									</g>
								</g>
							</g>
						</g>
						<g>
							<g>
								<g>
									<g>
										<path class="st2" d="M276,293.6h-4.9c-0.5,0-0.9-0.4-0.9-0.9v-4.9c0-0.5,0.4-0.9,0.9-0.9h4.9c0.5,0,0.9,0.4,0.9,0.9v4.9
											C276.9,293.2,276.5,293.6,276,293.6z M272.1,291.8h3.1v-3h-3.1V291.8z"/>
									</g>
									<g>
										<path class="st2" d="M281.6,293.6h-4.9c-0.5,0-0.9-0.4-0.9-0.9v-4.9c0-0.5,0.4-0.9,0.9-0.9h4.9c0.5,0,0.9,0.4,0.9,0.9v4.9
											C282.5,293.2,282.1,293.6,281.6,293.6z M277.6,291.8h3.1v-3h-3.1V291.8z"/>
									</g>
								</g>
							</g>
							<g>
								<g>
									<g>
										<path class="st2" d="M290.5,293.6h-4.9c-0.5,0-0.9-0.4-0.9-0.9v-4.9c0-0.5,0.4-0.9,0.9-0.9h4.9c0.5,0,0.9,0.4,0.9,0.9v4.9
											C291.5,293.2,291,293.6,290.5,293.6z M286.6,291.8h3v-3h-3V291.8z"/>
									</g>
									<g>
										<path class="st2" d="M296.1,293.6h-4.9c-0.5,0-0.9-0.4-0.9-0.9v-4.9c0-0.5,0.4-0.9,0.9-0.9h4.9c0.5,0,0.9,0.4,0.9,0.9v4.9
											C297,293.2,296.6,293.6,296.1,293.6z M292.1,291.8h3v-3h-3V291.8z"/>
									</g>
								</g>
							</g>
							<g>
								<g>
									<g>
										<path class="st2" d="M305,293.6h-4.9c-0.5,0-0.9-0.4-0.9-0.9v-4.9c0-0.5,0.4-0.9,0.9-0.9h4.9c0.5,0,0.9,0.4,0.9,0.9v4.9
											C306,293.2,305.6,293.6,305,293.6z M301.1,291.8h3.1v-3h-3.1V291.8z"/>
									</g>
									<g>
										<path class="st2" d="M310.6,293.6h-4.9c-0.5,0-0.9-0.4-0.9-0.9v-4.9c0-0.5,0.4-0.9,0.9-0.9h4.9c0.5,0,0.9,0.4,0.9,0.9v4.9
											C311.5,293.2,311.1,293.6,310.6,293.6z M306.6,291.8h3.1v-3h-3.1V291.8z"/>
									</g>
								</g>
							</g>
							<g>
								<g>
									<g>
										<path class="st2" d="M319.6,293.6h-4.9c-0.5,0-0.9-0.4-0.9-0.9v-4.9c0-0.5,0.4-0.9,0.9-0.9h4.9c0.5,0,0.9,0.4,0.9,0.9v4.9
											C320.5,293.2,320.1,293.6,319.6,293.6z M315.6,291.8h3.1v-3h-3.1V291.8z"/>
									</g>
									<g>
										<path class="st2" d="M325.1,293.6h-4.9c-0.5,0-0.9-0.4-0.9-0.9v-4.9c0-0.5,0.4-0.9,0.9-0.9h4.9c0.5,0,0.9,0.4,0.9,0.9v4.9
											C326,293.2,325.6,293.6,325.1,293.6z M321.1,291.8h3.1v-3h-3.1V291.8z"/>
									</g>
								</g>
							</g>
						</g>
					</g>
				</g>
			</g>
			<g>
				<g>
					<path class="st2" d="M716.3,199.5h-2.5c-0.5,0-0.9-0.4-0.9-0.9v-45c0-0.5,0.4-0.9,0.9-0.9h2.5c0.5,0,0.9,0.4,0.9,0.9v45
						C717.2,199.1,716.8,199.5,716.3,199.5z M714.8,197.7h0.7v-43.2h-0.7V197.7z"/>
				</g>
				<g>
					<path class="st2" d="M727.8,205.4C727.8,205.4,727.8,205.4,727.8,205.4h-25.5c-0.3,0-0.6-0.1-0.7-0.4c-0.2-0.2-0.2-0.5-0.1-0.8
						l5.1-16.7c0.1-0.4,0.5-0.6,0.9-0.6h15.1c0.4,0,0.8,0.3,0.9,0.6l5.1,16.4c0.1,0.1,0.2,0.3,0.2,0.5
						C728.7,205,728.3,205.4,727.8,205.4z M703.6,203.6h22.9l-4.6-14.8h-13.8L703.6,203.6z"/>
				</g>
				<g>
					<path class="st2" d="M739.9,237.5C739.9,237.5,739.9,237.5,739.9,237.5h-49.6c-0.3,0-0.6-0.1-0.7-0.4c-0.2-0.2-0.2-0.5-0.1-0.8
						l10-32.5c0.1-0.4,0.5-0.6,0.9-0.6h29.6c0.4,0,0.8,0.3,0.9,0.6l9.9,32.2c0.1,0.2,0.2,0.3,0.2,0.5
						C740.8,237.1,740.4,237.5,739.9,237.5z M691.5,235.6h47.1l-9.4-30.7H701L691.5,235.6z"/>
				</g>
				<g>
					<path class="st2" d="M715.1,179.5c-3.3,0-5.9-2.7-5.9-5.9c0-3.3,2.7-5.9,5.9-5.9c3.3,0,5.9,2.6,5.9,5.9
						C721,176.9,718.3,179.5,715.1,179.5z M715.1,169.5c-2.3,0-4.1,1.8-4.1,4.1c0,2.3,1.8,4.1,4.1,4.1c2.2,0,4.1-1.8,4.1-4.1
						C719.2,171.4,717.3,169.5,715.1,169.5z"/>
				</g>
				<g>
					<path class="st2" d="M744.4,304.1h-58.7c-0.5,0-0.9-0.4-0.9-0.9v-70c0-0.5,0.4-0.9,0.9-0.9h58.7c0.5,0,0.9,0.4,0.9,0.9v70
						C745.4,303.7,745,304.1,744.4,304.1z M686.6,302.3h56.9v-68.1h-56.9V302.3z"/>
				</g>
				<g>
					<g>
						<g>
							<g>
								<g>
									<path class="st2" d="M700.2,256.2h-4.9c-0.5,0-0.9-0.4-0.9-0.9v-4.9c0-0.5,0.4-0.9,0.9-0.9h4.9c0.5,0,0.9,0.4,0.9,0.9v4.9
										C701.2,255.8,700.7,256.2,700.2,256.2z M696.3,254.4h3.1v-3h-3.1V254.4z"/>
								</g>
								<g>
									<path class="st2" d="M705.8,256.2h-4.9c-0.5,0-0.9-0.4-0.9-0.9v-4.9c0-0.5,0.4-0.9,0.9-0.9h4.9c0.5,0,0.9,0.4,0.9,0.9v4.9
										C706.7,255.8,706.3,256.2,705.8,256.2z M701.8,254.4h3.1v-3h-3.1V254.4z"/>
								</g>
							</g>
						</g>
						<g>
							<g>
								<g>
									<path class="st2" d="M714.8,256.2h-4.9c-0.5,0-0.9-0.4-0.9-0.9v-4.9c0-0.5,0.4-0.9,0.9-0.9h4.9c0.5,0,0.9,0.4,0.9,0.9v4.9
										C715.7,255.8,715.3,256.2,714.8,256.2z M710.8,254.4h3.1v-3h-3.1V254.4z"/>
								</g>
								<g>
									<path class="st2" d="M720.3,256.2h-4.9c-0.5,0-0.9-0.4-0.9-0.9v-4.9c0-0.5,0.4-0.9,0.9-0.9h4.9c0.5,0,0.9,0.4,0.9,0.9v4.9
										C721.2,255.8,720.8,256.2,720.3,256.2z M716.3,254.4h3.1v-3h-3.1V254.4z"/>
								</g>
							</g>
						</g>
						<g>
							<g>
								<g>
									<path class="st2" d="M729.3,256.2h-4.9c-0.5,0-0.9-0.4-0.9-0.9v-4.9c0-0.5,0.4-0.9,0.9-0.9h4.9c0.5,0,0.9,0.4,0.9,0.9v4.9
										C730.2,255.8,729.8,256.2,729.3,256.2z M725.3,254.4h3.1v-3h-3.1V254.4z"/>
								</g>
								<g>
									<path class="st2" d="M734.8,256.2h-4.9c-0.5,0-0.9-0.4-0.9-0.9v-4.9c0-0.5,0.4-0.9,0.9-0.9h4.9c0.5,0,0.9,0.4,0.9,0.9v4.9
										C735.7,255.8,735.3,256.2,734.8,256.2z M730.8,254.4h3.1v-3h-3.1V254.4z"/>
								</g>
							</g>
						</g>
					</g>
					<g>
						<g>
							<g>
								<g>
									<path class="st2" d="M700.2,265.3h-4.9c-0.5,0-0.9-0.4-0.9-0.9v-4.9c0-0.5,0.4-0.9,0.9-0.9h4.9c0.5,0,0.9,0.4,0.9,0.9v4.9
										C701.2,264.9,700.7,265.3,700.2,265.3z M696.3,263.5h3.1v-3h-3.1V263.5z"/>
								</g>
								<g>
									<path class="st2" d="M705.8,265.3h-4.9c-0.5,0-0.9-0.4-0.9-0.9v-4.9c0-0.5,0.4-0.9,0.9-0.9h4.9c0.5,0,0.9,0.4,0.9,0.9v4.9
										C706.7,264.9,706.3,265.3,705.8,265.3z M701.8,263.5h3.1v-3h-3.1V263.5z"/>
								</g>
							</g>
						</g>
						<g>
							<g>
								<g>
									<path class="st2" d="M714.8,265.3h-4.9c-0.5,0-0.9-0.4-0.9-0.9v-4.9c0-0.5,0.4-0.9,0.9-0.9h4.9c0.5,0,0.9,0.4,0.9,0.9v4.9
										C715.7,264.9,715.3,265.3,714.8,265.3z M710.8,263.5h3.1v-3h-3.1V263.5z"/>
								</g>
								<g>
									<path class="st2" d="M720.3,265.3h-4.9c-0.5,0-0.9-0.4-0.9-0.9v-4.9c0-0.5,0.4-0.9,0.9-0.9h4.9c0.5,0,0.9,0.4,0.9,0.9v4.9
										C721.2,264.9,720.8,265.3,720.3,265.3z M716.3,263.5h3.1v-3h-3.1V263.5z"/>
								</g>
							</g>
						</g>
						<g>
							<g>
								<g>
									<path class="st2" d="M729.3,265.3h-4.9c-0.5,0-0.9-0.4-0.9-0.9v-4.9c0-0.5,0.4-0.9,0.9-0.9h4.9c0.5,0,0.9,0.4,0.9,0.9v4.9
										C730.2,264.9,729.8,265.3,729.3,265.3z M725.3,263.5h3.1v-3h-3.1V263.5z"/>
								</g>
								<g>
									<path class="st2" d="M734.8,265.3h-4.9c-0.5,0-0.9-0.4-0.9-0.9v-4.9c0-0.5,0.4-0.9,0.9-0.9h4.9c0.5,0,0.9,0.4,0.9,0.9v4.9
										C735.7,264.9,735.3,265.3,734.8,265.3z M730.8,263.5h3.1v-3h-3.1V263.5z"/>
								</g>
							</g>
						</g>
					</g>
					<g>
						<g>
							<g>
								<g>
									<path class="st2" d="M700.2,274.5h-4.9c-0.5,0-0.9-0.4-0.9-0.9v-4.9c0-0.5,0.4-0.9,0.9-0.9h4.9c0.5,0,0.9,0.4,0.9,0.9v4.9
										C701.2,274.1,700.7,274.5,700.2,274.5z M696.3,272.7h3.1v-3h-3.1V272.7z"/>
								</g>
								<g>
									<path class="st2" d="M705.8,274.5h-4.9c-0.5,0-0.9-0.4-0.9-0.9v-4.9c0-0.5,0.4-0.9,0.9-0.9h4.9c0.5,0,0.9,0.4,0.9,0.9v4.9
										C706.7,274.1,706.3,274.5,705.8,274.5z M701.8,272.7h3.1v-3h-3.1V272.7z"/>
								</g>
							</g>
						</g>
						<g>
							<g>
								<g>
									<path class="st2" d="M714.8,274.5h-4.9c-0.5,0-0.9-0.4-0.9-0.9v-4.9c0-0.5,0.4-0.9,0.9-0.9h4.9c0.5,0,0.9,0.4,0.9,0.9v4.9
										C715.7,274.1,715.3,274.5,714.8,274.5z M710.8,272.7h3.1v-3h-3.1V272.7z"/>
								</g>
								<g>
									<path class="st2" d="M720.3,274.5h-4.9c-0.5,0-0.9-0.4-0.9-0.9v-4.9c0-0.5,0.4-0.9,0.9-0.9h4.9c0.5,0,0.9,0.4,0.9,0.9v4.9
										C721.2,274.1,720.8,274.5,720.3,274.5z M716.3,272.7h3.1v-3h-3.1V272.7z"/>
								</g>
							</g>
						</g>
						<g>
							<g>
								<g>
									<path class="st2" d="M729.3,274.5h-4.9c-0.5,0-0.9-0.4-0.9-0.9v-4.9c0-0.5,0.4-0.9,0.9-0.9h4.9c0.5,0,0.9,0.4,0.9,0.9v4.9
										C730.2,274.1,729.8,274.5,729.3,274.5z M725.3,272.7h3.1v-3h-3.1V272.7z"/>
								</g>
								<g>
									<path class="st2" d="M734.8,274.5h-4.9c-0.5,0-0.9-0.4-0.9-0.9v-4.9c0-0.5,0.4-0.9,0.9-0.9h4.9c0.5,0,0.9,0.4,0.9,0.9v4.9
										C735.7,274.1,735.3,274.5,734.8,274.5z M730.8,272.7h3.1v-3h-3.1V272.7z"/>
								</g>
							</g>
						</g>
					</g>
					<g>
						<g>
							<g>
								<g>
									<path class="st2" d="M700.2,283.7h-4.9c-0.5,0-0.9-0.4-0.9-0.9v-4.9c0-0.5,0.4-0.9,0.9-0.9h4.9c0.5,0,0.9,0.4,0.9,0.9v4.9
										C701.2,283.3,700.7,283.7,700.2,283.7z M696.3,281.8h3.1v-3h-3.1V281.8z"/>
								</g>
								<g>
									<path class="st2" d="M705.8,283.7h-4.9c-0.5,0-0.9-0.4-0.9-0.9v-4.9c0-0.5,0.4-0.9,0.9-0.9h4.9c0.5,0,0.9,0.4,0.9,0.9v4.9
										C706.7,283.3,706.3,283.7,705.8,283.7z M701.8,281.8h3.1v-3h-3.1V281.8z"/>
								</g>
							</g>
						</g>
						<g>
							<g>
								<g>
									<path class="st2" d="M714.8,283.7h-4.9c-0.5,0-0.9-0.4-0.9-0.9v-4.9c0-0.5,0.4-0.9,0.9-0.9h4.9c0.5,0,0.9,0.4,0.9,0.9v4.9
										C715.7,283.3,715.3,283.7,714.8,283.7z M710.8,281.8h3.1v-3h-3.1V281.8z"/>
								</g>
								<g>
									<path class="st2" d="M720.3,283.7h-4.9c-0.5,0-0.9-0.4-0.9-0.9v-4.9c0-0.5,0.4-0.9,0.9-0.9h4.9c0.5,0,0.9,0.4,0.9,0.9v4.9
										C721.2,283.3,720.8,283.7,720.3,283.7z M716.3,281.8h3.1v-3h-3.1V281.8z"/>
								</g>
							</g>
						</g>
						<g>
							<g>
								<g>
									<path class="st2" d="M729.3,283.7h-4.9c-0.5,0-0.9-0.4-0.9-0.9v-4.9c0-0.5,0.4-0.9,0.9-0.9h4.9c0.5,0,0.9,0.4,0.9,0.9v4.9
										C730.2,283.3,729.8,283.7,729.3,283.7z M725.3,281.8h3.1v-3h-3.1V281.8z"/>
								</g>
								<g>
									<path class="st2" d="M734.8,283.7h-4.9c-0.5,0-0.9-0.4-0.9-0.9v-4.9c0-0.5,0.4-0.9,0.9-0.9h4.9c0.5,0,0.9,0.4,0.9,0.9v4.9
										C735.7,283.3,735.3,283.7,734.8,283.7z M730.8,281.8h3.1v-3h-3.1V281.8z"/>
								</g>
							</g>
						</g>
					</g>
				</g>
			</g>
			<g>
				<g>
					<path class="st2" d="M1080.2,505.4h-68.7c-0.5,0-0.9-0.4-0.9-0.9V248.7c0-0.5,0.4-0.9,0.9-0.9h68.7c0.5,0,0.9,0.4,0.9,0.9
						v255.8C1081.2,504.9,1080.8,505.4,1080.2,505.4z M1012.4,503.5h66.9V249.6h-66.9V503.5z"/>
				</g>
				<g>
					<g>
						<g>
							<g>
								<g>
									<path class="st2" d="M1023.8,277.3h-4.9c-0.5,0-0.9-0.4-0.9-0.9v-4.9c0-0.5,0.4-0.9,0.9-0.9h4.9c0.5,0,0.9,0.4,0.9,0.9v4.9
										C1024.7,276.9,1024.3,277.3,1023.8,277.3z M1019.8,275.5h3.1v-3h-3.1V275.5z"/>
								</g>
								<g>
									<path class="st2" d="M1029.3,277.3h-4.9c-0.5,0-0.9-0.4-0.9-0.9v-4.9c0-0.5,0.4-0.9,0.9-0.9h4.9c0.5,0,0.9,0.4,0.9,0.9v4.9
										C1030.3,276.9,1029.8,277.3,1029.3,277.3z M1025.4,275.5h3.1v-3h-3.1V275.5z"/>
								</g>
							</g>
						</g>
						<g>
							<g>
								<g>
									<path class="st2" d="M1038.3,277.3h-4.9c-0.5,0-0.9-0.4-0.9-0.9v-4.9c0-0.5,0.4-0.9,0.9-0.9h4.9c0.5,0,0.9,0.4,0.9,0.9v4.9
										C1039.2,276.9,1038.8,277.3,1038.3,277.3z M1034.3,275.5h3v-3h-3V275.5z"/>
								</g>
								<g>
									<path class="st2" d="M1043.8,277.3h-4.9c-0.5,0-0.9-0.4-0.9-0.9v-4.9c0-0.5,0.4-0.9,0.9-0.9h4.9c0.5,0,0.9,0.4,0.9,0.9v4.9
										C1044.8,276.9,1044.4,277.3,1043.8,277.3z M1039.9,275.5h3v-3h-3V275.5z"/>
								</g>
							</g>
						</g>
						<g>
							<g>
								<g>
									<path class="st2" d="M1052.8,277.3h-4.9c-0.5,0-0.9-0.4-0.9-0.9v-4.9c0-0.5,0.4-0.9,0.9-0.9h4.9c0.5,0,0.9,0.4,0.9,0.9v4.9
										C1053.7,276.9,1053.3,277.3,1052.8,277.3z M1048.8,275.5h3.1v-3h-3.1V275.5z"/>
								</g>
								<g>
									<path class="st2" d="M1058.4,277.3h-4.9c-0.5,0-0.9-0.4-0.9-0.9v-4.9c0-0.5,0.4-0.9,0.9-0.9h4.9c0.5,0,0.9,0.4,0.9,0.9v4.9
										C1059.3,276.9,1058.9,277.3,1058.4,277.3z M1054.4,275.5h3.1v-3h-3.1V275.5z"/>
								</g>
							</g>
						</g>
						<g>
							<g>
								<g>
									<path class="st2" d="M1067.3,277.3h-4.9c-0.5,0-0.9-0.4-0.9-0.9v-4.9c0-0.5,0.4-0.9,0.9-0.9h4.9c0.5,0,0.9,0.4,0.9,0.9v4.9
										C1068.3,276.9,1067.8,277.3,1067.3,277.3z M1063.4,275.5h3.1v-3h-3.1V275.5z"/>
								</g>
								<g>
									<path class="st2" d="M1072.9,277.3h-4.9c-0.5,0-0.9-0.4-0.9-0.9v-4.9c0-0.5,0.4-0.9,0.9-0.9h4.9c0.5,0,0.9,0.4,0.9,0.9v4.9
										C1073.8,276.9,1073.4,277.3,1072.9,277.3z M1068.9,275.5h3.1v-3h-3.1V275.5z"/>
								</g>
							</g>
						</g>
					</g>
					<g>
						<g>
							<g>
								<g>
									<path class="st2" d="M1023.8,286.5h-4.9c-0.5,0-0.9-0.4-0.9-0.9v-4.9c0-0.5,0.4-0.9,0.9-0.9h4.9c0.5,0,0.9,0.4,0.9,0.9v4.9
										C1024.7,286.1,1024.3,286.5,1023.8,286.5z M1019.8,284.7h3.1v-3h-3.1V284.7z"/>
								</g>
								<g>
									<path class="st2" d="M1029.3,286.5h-4.9c-0.5,0-0.9-0.4-0.9-0.9v-4.9c0-0.5,0.4-0.9,0.9-0.9h4.9c0.5,0,0.9,0.4,0.9,0.9v4.9
										C1030.3,286.1,1029.8,286.5,1029.3,286.5z M1025.4,284.7h3.1v-3h-3.1V284.7z"/>
								</g>
							</g>
						</g>
						<g>
							<g>
								<g>
									<path class="st2" d="M1038.3,286.5h-4.9c-0.5,0-0.9-0.4-0.9-0.9v-4.9c0-0.5,0.4-0.9,0.9-0.9h4.9c0.5,0,0.9,0.4,0.9,0.9v4.9
										C1039.2,286.1,1038.8,286.5,1038.3,286.5z M1034.3,284.7h3v-3h-3V284.7z"/>
								</g>
								<g>
									<path class="st2" d="M1043.8,286.5h-4.9c-0.5,0-0.9-0.4-0.9-0.9v-4.9c0-0.5,0.4-0.9,0.9-0.9h4.9c0.5,0,0.9,0.4,0.9,0.9v4.9
										C1044.8,286.1,1044.4,286.5,1043.8,286.5z M1039.9,284.7h3v-3h-3V284.7z"/>
								</g>
							</g>
						</g>
						<g>
							<g>
								<g>
									<path class="st2" d="M1052.8,286.5h-4.9c-0.5,0-0.9-0.4-0.9-0.9v-4.9c0-0.5,0.4-0.9,0.9-0.9h4.9c0.5,0,0.9,0.4,0.9,0.9v4.9
										C1053.7,286.1,1053.3,286.5,1052.8,286.5z M1048.8,284.7h3.1v-3h-3.1V284.7z"/>
								</g>
								<g>
									<path class="st2" d="M1058.4,286.5h-4.9c-0.5,0-0.9-0.4-0.9-0.9v-4.9c0-0.5,0.4-0.9,0.9-0.9h4.9c0.5,0,0.9,0.4,0.9,0.9v4.9
										C1059.3,286.1,1058.9,286.5,1058.4,286.5z M1054.4,284.7h3.1v-3h-3.1V284.7z"/>
								</g>
							</g>
						</g>
						<g>
							<g>
								<g>
									<path class="st2" d="M1067.3,286.5h-4.9c-0.5,0-0.9-0.4-0.9-0.9v-4.9c0-0.5,0.4-0.9,0.9-0.9h4.9c0.5,0,0.9,0.4,0.9,0.9v4.9
										C1068.3,286.1,1067.8,286.5,1067.3,286.5z M1063.4,284.7h3.1v-3h-3.1V284.7z"/>
								</g>
								<g>
									<path class="st2" d="M1072.9,286.5h-4.9c-0.5,0-0.9-0.4-0.9-0.9v-4.9c0-0.5,0.4-0.9,0.9-0.9h4.9c0.5,0,0.9,0.4,0.9,0.9v4.9
										C1073.8,286.1,1073.4,286.5,1072.9,286.5z M1068.9,284.7h3.1v-3h-3.1V284.7z"/>
								</g>
							</g>
						</g>
					</g>
					<g>
						<g>
							<g>
								<g>
									<path class="st2" d="M1023.8,295.6h-4.9c-0.5,0-0.9-0.4-0.9-0.9v-4.9c0-0.5,0.4-0.9,0.9-0.9h4.9c0.5,0,0.9,0.4,0.9,0.9v4.9
										C1024.7,295.2,1024.3,295.6,1023.8,295.6z M1019.8,293.8h3.1v-3h-3.1V293.8z"/>
								</g>
								<g>
									<path class="st2" d="M1029.3,295.6h-4.9c-0.5,0-0.9-0.4-0.9-0.9v-4.9c0-0.5,0.4-0.9,0.9-0.9h4.9c0.5,0,0.9,0.4,0.9,0.9v4.9
										C1030.3,295.2,1029.8,295.6,1029.3,295.6z M1025.4,293.8h3.1v-3h-3.1V293.8z"/>
								</g>
							</g>
						</g>
						<g>
							<g>
								<g>
									<path class="st2" d="M1038.3,295.6h-4.9c-0.5,0-0.9-0.4-0.9-0.9v-4.9c0-0.5,0.4-0.9,0.9-0.9h4.9c0.5,0,0.9,0.4,0.9,0.9v4.9
										C1039.2,295.2,1038.8,295.6,1038.3,295.6z M1034.3,293.8h3v-3h-3V293.8z"/>
								</g>
								<g>
									<path class="st2" d="M1043.8,295.6h-4.9c-0.5,0-0.9-0.4-0.9-0.9v-4.9c0-0.5,0.4-0.9,0.9-0.9h4.9c0.5,0,0.9,0.4,0.9,0.9v4.9
										C1044.8,295.2,1044.4,295.6,1043.8,295.6z M1039.9,293.8h3v-3h-3V293.8z"/>
								</g>
							</g>
						</g>
						<g>
							<g>
								<g>
									<path class="st2" d="M1052.8,295.6h-4.9c-0.5,0-0.9-0.4-0.9-0.9v-4.9c0-0.5,0.4-0.9,0.9-0.9h4.9c0.5,0,0.9,0.4,0.9,0.9v4.9
										C1053.7,295.2,1053.3,295.6,1052.8,295.6z M1048.8,293.8h3.1v-3h-3.1V293.8z"/>
								</g>
								<g>
									<path class="st2" d="M1058.4,295.6h-4.9c-0.5,0-0.9-0.4-0.9-0.9v-4.9c0-0.5,0.4-0.9,0.9-0.9h4.9c0.5,0,0.9,0.4,0.9,0.9v4.9
										C1059.3,295.2,1058.9,295.6,1058.4,295.6z M1054.4,293.8h3.1v-3h-3.1V293.8z"/>
								</g>
							</g>
						</g>
						<g>
							<g>
								<g>
									<path class="st2" d="M1067.3,295.6h-4.9c-0.5,0-0.9-0.4-0.9-0.9v-4.9c0-0.5,0.4-0.9,0.9-0.9h4.9c0.5,0,0.9,0.4,0.9,0.9v4.9
										C1068.3,295.2,1067.8,295.6,1067.3,295.6z M1063.4,293.8h3.1v-3h-3.1V293.8z"/>
								</g>
								<g>
									<path class="st2" d="M1072.9,295.6h-4.9c-0.5,0-0.9-0.4-0.9-0.9v-4.9c0-0.5,0.4-0.9,0.9-0.9h4.9c0.5,0,0.9,0.4,0.9,0.9v4.9
										C1073.8,295.2,1073.4,295.6,1072.9,295.6z M1068.9,293.8h3.1v-3h-3.1V293.8z"/>
								</g>
							</g>
						</g>
					</g>
				</g>
			</g>
			<g>
				<g>
					<path class="st2" d="M1852.9,269.6h-124.1c-0.5,0-0.9-0.4-0.9-0.9v-32.1c0-0.5,0.4-0.9,0.9-0.9h124.1c0.5,0,0.9,0.4,0.9,0.9
						v32.1C1853.8,269.1,1853.4,269.6,1852.9,269.6z M1729.7,267.7H1852v-30.2h-122.3V267.7z"/>
				</g>
				<g>
					<path class="st2" d="M1860.8,556.6h-140c-0.5,0-0.9-0.4-0.9-0.9V267c0-0.5,0.4-0.9,0.9-0.9h140c0.5,0,0.9,0.4,0.9,0.9v288.7
						C1861.7,556.2,1861.3,556.6,1860.8,556.6z M1721.8,554.7h138.1V267.9h-138.1V554.7z"/>
				</g>
				<g>
					<path class="st2" d="M1852.9,237.5C1852.9,237.5,1852.9,237.5,1852.9,237.5h-124.2c-0.4,0-0.7-0.3-0.9-0.6
						c-0.1-0.4,0-0.8,0.3-1l62.5-45.8c0.2-0.2,0.5-0.2,0.8-0.1c0.1,0,0.2,0.1,0.3,0.2l61.5,45.7c0.3,0.1,0.6,0.5,0.6,0.8
						C1853.9,237.1,1853.4,237.5,1852.9,237.5z M1731.6,235.6h118.6l-58.8-43.8L1731.6,235.6z"/>
				</g>
			</g>
			<g>
				<g>
					<path class="st2" d="M1608.4,297.3h-47.2c-0.5,0-0.9-0.4-0.9-0.9v-36.4c0-0.5,0.4-0.9,0.9-0.9h47.2c0.5,0,0.9,0.4,0.9,0.9v36.4
						C1609.3,296.9,1608.9,297.3,1608.4,297.3z M1562,295.4h45.4v-34.6H1562V295.4z"/>
				</g>
				<g>
					<g>
						<path class="st2" d="M1576.9,279.9h-13.6c-0.5,0-0.9-0.4-0.9-0.9V264c0-0.5,0.4-0.9,0.9-0.9h13.6c0.5,0,0.9,0.4,0.9,0.9V279
							C1577.8,279.5,1577.4,279.9,1576.9,279.9z M1564.2,278.1h11.7v-13.2h-11.7V278.1z"/>
					</g>
					<g>
						<path class="st2" d="M1591.5,279.9H1578c-0.5,0-0.9-0.4-0.9-0.9V264c0-0.5,0.4-0.9,0.9-0.9h13.6c0.5,0,0.9,0.4,0.9,0.9V279
							C1592.5,279.5,1592,279.9,1591.5,279.9z M1578.9,278.1h11.7v-13.2h-11.7V278.1z"/>
					</g>
					<g>
						<path class="st2" d="M1606.2,280.1h-13.6c-0.5,0-0.9-0.4-0.9-0.9v-15.1c0-0.5,0.4-0.9,0.9-0.9h13.6c0.5,0,0.9,0.4,0.9,0.9
							v15.1C1607.1,279.7,1606.7,280.1,1606.2,280.1z M1593.5,278.2h11.7V265h-11.7V278.2z"/>
					</g>
				</g>
				<g>
					<g>
						<path class="st2" d="M1576.9,296h-13.6c-0.5,0-0.9-0.4-0.9-0.9V280c0-0.5,0.4-0.9,0.9-0.9h13.6c0.5,0,0.9,0.4,0.9,0.9v15.1
							C1577.8,295.6,1577.4,296,1576.9,296z M1564.2,294.2h11.7v-13.2h-11.7V294.2z"/>
					</g>
					<g>
						<path class="st2" d="M1591.5,296H1578c-0.5,0-0.9-0.4-0.9-0.9V280c0-0.5,0.4-0.9,0.9-0.9h13.6c0.5,0,0.9,0.4,0.9,0.9v15.1
							C1592.5,295.6,1592,296,1591.5,296z M1578.9,294.2h11.7v-13.2h-11.7V294.2z"/>
					</g>
					<g>
						<path class="st2" d="M1606.2,296.1h-13.6c-0.5,0-0.9-0.4-0.9-0.9v-15.1c0-0.5,0.4-0.9,0.9-0.9h13.6c0.5,0,0.9,0.4,0.9,0.9
							v15.1C1607.1,295.7,1606.7,296.1,1606.2,296.1z M1593.5,294.3h11.7V281h-11.7V294.3z"/>
					</g>
				</g>
				<g>
					<path class="st2" d="M1600.6,260.7C1600.5,260.7,1600.5,260.7,1600.6,260.7H1569c-0.3,0-0.6-0.2-0.8-0.5
						c-0.2-0.3-0.1-0.7,0-0.9l5-7.8c0.2-0.3,0.5-0.4,0.8-0.4h21.6c0.3,0,0.6,0.2,0.8,0.4l4.9,7.6c0.2,0.2,0.3,0.4,0.3,0.7
						C1601.5,260.2,1601.1,260.7,1600.6,260.7z M1570.6,258.8h28.2l-3.8-6h-20.6L1570.6,258.8z"/>
				</g>
				<g>
					<path class="st2" d="M1586.2,254.6h-3c-0.5,0-0.9-0.4-0.9-0.9v-38.1c0-0.5,0.4-0.9,0.9-0.9h3c0.5,0,0.9,0.4,0.9,0.9v38.1
						C1587.1,254.2,1586.7,254.6,1586.2,254.6z M1584.2,252.7h1.1v-36.3h-1.1V252.7z"/>
				</g>
			</g>
			<g>
				<g>
					<g>
						<path class="st2" d="M1418.9,225.6h-3.6c-0.5,0-0.9-0.4-0.9-0.9v-94.3c0-0.5,0.4-0.9,0.9-0.9h3.6c0.5,0,0.9,0.4,0.9,0.9v94.3
							C1419.8,225.2,1419.4,225.6,1418.9,225.6z M1416.3,223.8h1.7v-92.5h-1.7V223.8z"/>
					</g>
					<g>
						<path class="st2" d="M1422.8,180.3h-11.3c-0.5,0-0.9-0.4-0.9-0.9v-3.5c0-0.5,0.4-0.9,0.9-0.9h11.3c0.5,0,0.9,0.4,0.9,0.9v3.5
							C1423.7,179.8,1423.3,180.3,1422.8,180.3z M1412.4,178.4h9.5v-1.7h-9.5V178.4z"/>
					</g>
					<g>
						<path class="st2" d="M1400.6,223.7c-0.1,0-0.2,0-0.3-0.1l-2.2-0.8c-0.2-0.1-0.4-0.3-0.5-0.5c-0.1-0.2-0.1-0.5,0-0.7l16.7-43.4
							c0.1-0.2,0.3-0.4,0.5-0.5c0.2-0.1,0.5-0.1,0.7,0l2.1,0.8c0.5,0.2,0.7,0.7,0.5,1.2l-16.6,43.4
							C1401.4,223.5,1401,223.7,1400.6,223.7z M1399.7,221.5l0.4,0.2l16-41.7l-0.4-0.2L1399.7,221.5z"/>
					</g>
					<g>
						<path class="st2" d="M1433.4,223.7c-0.1,0-0.3,0-0.4-0.1c-0.2-0.1-0.4-0.3-0.5-0.5l-16.7-43.4c-0.1-0.2-0.1-0.5,0-0.7
							c0.1-0.2,0.3-0.4,0.5-0.5l2.2-0.8c0.5-0.2,1,0.1,1.2,0.5l16.7,43.4c0.2,0.5-0.1,1-0.5,1.2l-2.2,0.8
							C1433.6,223.7,1433.5,223.7,1433.4,223.7z M1417.9,180l16,41.7l0.4-0.2l-16-41.7L1417.9,180z"/>
					</g>
				</g>
				<g>
					<path class="st2" d="M1437.9,240.2h-41.8c-0.5,0-0.9-0.4-0.9-0.9v-19.2c0-0.5,0.4-0.9,0.9-0.9h41.8c0.5,0,0.9,0.4,0.9,0.9v19.2
						C1438.9,239.8,1438.4,240.2,1437.9,240.2z M1397,238.4h40V221h-40V238.4z"/>
				</g>
				<g>
					<path class="st2" d="M1454.7,556.6C1454.6,556.6,1454.6,556.6,1454.7,556.6h-75.2c-0.2,0-0.5-0.1-0.7-0.3
						c-0.2-0.2-0.3-0.4-0.3-0.7l8.5-318.5c0-0.5,0.4-0.9,0.9-0.9h58.2c0.5,0,0.9,0.4,0.9,0.9l8.5,318.2c0,0.1,0.1,0.2,0.1,0.3
						C1455.6,556.2,1455.2,556.6,1454.7,556.6z M1380.4,554.7h73.3l-8.5-316.7h-56.4L1380.4,554.7z"/>
				</g>
				<g>
					<path class="st2" d="M1418.4,556.6h-1.4c-0.5,0-0.9-0.4-0.9-0.8L1387,237.2c0-0.3,0.1-0.5,0.2-0.7c0.2-0.2,0.4-0.3,0.7-0.3
						h58.2c0.3,0,0.5,0.1,0.7,0.3c0.2,0.2,0.3,0.4,0.2,0.7l-27.7,318.5C1419.3,556.2,1418.9,556.6,1418.4,556.6z M1388.9,238.1
						l28.8,315.2l27.4-315.2H1388.9z"/>
				</g>
			</g>
			<g>
				<g>
					<path class="st2" d="M1357,237.5h-49.6c-0.5,0-0.9-0.4-0.9-0.9v-52.5c0-0.5,0.4-0.9,0.9-0.9h49.6c0.5,0,0.9,0.4,0.9,0.9v52.5
						C1357.9,237.1,1357.5,237.5,1357,237.5z M1308.4,235.7h47.7V185h-47.7V235.7z"/>
				</g>
				<g>
					<g>
						<g>
							<g>
								<g>
									<path class="st2" d="M1324.6,205.8h-4.9c-0.5,0-0.9-0.4-0.9-0.9V200c0-0.5,0.4-0.9,0.9-0.9h4.9c0.5,0,0.9,0.4,0.9,0.9v4.9
										C1325.6,205.4,1325.2,205.8,1324.6,205.8z M1320.7,204h3.1v-3h-3.1V204z"/>
								</g>
								<g>
									<path class="st2" d="M1330.2,205.8h-4.9c-0.5,0-0.9-0.4-0.9-0.9V200c0-0.5,0.4-0.9,0.9-0.9h4.9c0.5,0,0.9,0.4,0.9,0.9v4.9
										C1331.1,205.4,1330.7,205.8,1330.2,205.8z M1326.2,204h3.1v-3h-3.1V204z"/>
								</g>
							</g>
						</g>
						<g>
							<g>
								<g>
									<path class="st2" d="M1339.2,205.8h-4.9c-0.5,0-0.9-0.4-0.9-0.9V200c0-0.5,0.4-0.9,0.9-0.9h4.9c0.5,0,0.9,0.4,0.9,0.9v4.9
										C1340.1,205.4,1339.7,205.8,1339.2,205.8z M1335.2,204h3v-3h-3V204z"/>
								</g>
								<g>
									<path class="st2" d="M1344.7,205.8h-4.9c-0.5,0-0.9-0.4-0.9-0.9V200c0-0.5,0.4-0.9,0.9-0.9h4.9c0.5,0,0.9,0.4,0.9,0.9v4.9
										C1345.6,205.4,1345.2,205.8,1344.7,205.8z M1340.7,204h3.1v-3h-3.1V204z"/>
								</g>
							</g>
						</g>
					</g>
					<g>
						<g>
							<g>
								<g>
									<path class="st2" d="M1324.6,215h-4.9c-0.5,0-0.9-0.4-0.9-0.9v-4.9c0-0.5,0.4-0.9,0.9-0.9h4.9c0.5,0,0.9,0.4,0.9,0.9v4.9
										C1325.6,214.6,1325.2,215,1324.6,215z M1320.7,213.1h3.1v-3h-3.1V213.1z"/>
								</g>
								<g>
									<path class="st2" d="M1330.2,215h-4.9c-0.5,0-0.9-0.4-0.9-0.9v-4.9c0-0.5,0.4-0.9,0.9-0.9h4.9c0.5,0,0.9,0.4,0.9,0.9v4.9
										C1331.1,214.6,1330.7,215,1330.2,215z M1326.2,213.1h3.1v-3h-3.1V213.1z"/>
								</g>
							</g>
						</g>
						<g>
							<g>
								<g>
									<path class="st2" d="M1339.2,215h-4.9c-0.5,0-0.9-0.4-0.9-0.9v-4.9c0-0.5,0.4-0.9,0.9-0.9h4.9c0.5,0,0.9,0.4,0.9,0.9v4.9
										C1340.1,214.6,1339.7,215,1339.2,215z M1335.2,213.1h3v-3h-3V213.1z"/>
								</g>
								<g>
									<path class="st2" d="M1344.7,215h-4.9c-0.5,0-0.9-0.4-0.9-0.9v-4.9c0-0.5,0.4-0.9,0.9-0.9h4.9c0.5,0,0.9,0.4,0.9,0.9v4.9
										C1345.6,214.6,1345.2,215,1344.7,215z M1340.7,213.1h3.1v-3h-3.1V213.1z"/>
								</g>
							</g>
						</g>
					</g>
					<g>
						<g>
							<g>
								<g>
									<path class="st2" d="M1324.6,224.1h-4.9c-0.5,0-0.9-0.4-0.9-0.9v-4.9c0-0.5,0.4-0.9,0.9-0.9h4.9c0.5,0,0.9,0.4,0.9,0.9v4.9
										C1325.6,223.7,1325.2,224.1,1324.6,224.1z M1320.7,222.3h3.1v-3h-3.1V222.3z"/>
								</g>
								<g>
									<path class="st2" d="M1330.2,224.1h-4.9c-0.5,0-0.9-0.4-0.9-0.9v-4.9c0-0.5,0.4-0.9,0.9-0.9h4.9c0.5,0,0.9,0.4,0.9,0.9v4.9
										C1331.1,223.7,1330.7,224.1,1330.2,224.1z M1326.2,222.3h3.1v-3h-3.1V222.3z"/>
								</g>
							</g>
						</g>
						<g>
							<g>
								<g>
									<path class="st2" d="M1339.2,224.1h-4.9c-0.5,0-0.9-0.4-0.9-0.9v-4.9c0-0.5,0.4-0.9,0.9-0.9h4.9c0.5,0,0.9,0.4,0.9,0.9v4.9
										C1340.1,223.7,1339.7,224.1,1339.2,224.1z M1335.2,222.3h3v-3h-3V222.3z"/>
								</g>
								<g>
									<path class="st2" d="M1344.7,224.1h-4.9c-0.5,0-0.9-0.4-0.9-0.9v-4.9c0-0.5,0.4-0.9,0.9-0.9h4.9c0.5,0,0.9,0.4,0.9,0.9v4.9
										C1345.6,223.7,1345.2,224.1,1344.7,224.1z M1340.7,222.3h3.1v-3h-3.1V222.3z"/>
								</g>
							</g>
						</g>
					</g>
				</g>
				<g>
					<path class="st2" d="M1361.6,304.1h-58.7c-0.5,0-0.9-0.4-0.9-0.9v-70c0-0.5,0.4-0.9,0.9-0.9h58.7c0.5,0,0.9,0.4,0.9,0.9v70
						C1362.5,303.7,1362.1,304.1,1361.6,304.1z M1303.8,302.3h56.9v-68.2h-56.9V302.3z"/>
				</g>
				<g>
					<g>
						<g>
							<g>
								<g>
									<path class="st2" d="M1317.4,258.4h-4.9c-0.5,0-0.9-0.4-0.9-0.9v-4.9c0-0.5,0.4-0.9,0.9-0.9h4.9c0.5,0,0.9,0.4,0.9,0.9v4.9
										C1318.3,258,1317.9,258.4,1317.4,258.4z M1313.4,256.5h3.1v-3h-3.1V256.5z"/>
								</g>
								<g>
									<path class="st2" d="M1322.9,258.4h-4.9c-0.5,0-0.9-0.4-0.9-0.9v-4.9c0-0.5,0.4-0.9,0.9-0.9h4.9c0.5,0,0.9,0.4,0.9,0.9v4.9
										C1323.9,258,1323.4,258.4,1322.9,258.4z M1319,256.5h3.1v-3h-3.1V256.5z"/>
								</g>
							</g>
						</g>
						<g>
							<g>
								<g>
									<path class="st2" d="M1331.9,258.4h-4.9c-0.5,0-0.9-0.4-0.9-0.9v-4.9c0-0.5,0.4-0.9,0.9-0.9h4.9c0.5,0,0.9,0.4,0.9,0.9v4.9
										C1332.8,258,1332.4,258.4,1331.9,258.4z M1327.9,256.5h3v-3h-3V256.5z"/>
								</g>
								<g>
									<path class="st2" d="M1337.4,258.4h-4.9c-0.5,0-0.9-0.4-0.9-0.9v-4.9c0-0.5,0.4-0.9,0.9-0.9h4.9c0.5,0,0.9,0.4,0.9,0.9v4.9
										C1338.4,258,1337.9,258.4,1337.4,258.4z M1333.5,256.5h3v-3h-3V256.5z"/>
								</g>
							</g>
						</g>
						<g>
							<g>
								<g>
									<path class="st2" d="M1346.4,258.4h-4.9c-0.5,0-0.9-0.4-0.9-0.9v-4.9c0-0.5,0.4-0.9,0.9-0.9h4.9c0.5,0,0.9,0.4,0.9,0.9v4.9
										C1347.3,258,1346.9,258.4,1346.4,258.4z M1342.4,256.5h3v-3h-3V256.5z"/>
								</g>
								<g>
									<path class="st2" d="M1352,258.4h-4.9c-0.5,0-0.9-0.4-0.9-0.9v-4.9c0-0.5,0.4-0.9,0.9-0.9h4.9c0.5,0,0.9,0.4,0.9,0.9v4.9
										C1352.9,258,1352.5,258.4,1352,258.4z M1348,256.5h3.1v-3h-3.1V256.5z"/>
								</g>
							</g>
						</g>
					</g>
					<g>
						<g>
							<g>
								<g>
									<path class="st2" d="M1317.4,267.5h-4.9c-0.5,0-0.9-0.4-0.9-0.9v-4.9c0-0.5,0.4-0.9,0.9-0.9h4.9c0.5,0,0.9,0.4,0.9,0.9v4.9
										C1318.3,267.1,1317.9,267.5,1317.4,267.5z M1313.4,265.7h3.1v-3h-3.1V265.7z"/>
								</g>
								<g>
									<path class="st2" d="M1322.9,267.5h-4.9c-0.5,0-0.9-0.4-0.9-0.9v-4.9c0-0.5,0.4-0.9,0.9-0.9h4.9c0.5,0,0.9,0.4,0.9,0.9v4.9
										C1323.9,267.1,1323.4,267.5,1322.9,267.5z M1319,265.7h3.1v-3h-3.1V265.7z"/>
								</g>
							</g>
						</g>
						<g>
							<g>
								<g>
									<path class="st2" d="M1331.9,267.5h-4.9c-0.5,0-0.9-0.4-0.9-0.9v-4.9c0-0.5,0.4-0.9,0.9-0.9h4.9c0.5,0,0.9,0.4,0.9,0.9v4.9
										C1332.8,267.1,1332.4,267.5,1331.9,267.5z M1327.9,265.7h3v-3h-3V265.7z"/>
								</g>
								<g>
									<path class="st2" d="M1337.4,267.5h-4.9c-0.5,0-0.9-0.4-0.9-0.9v-4.9c0-0.5,0.4-0.9,0.9-0.9h4.9c0.5,0,0.9,0.4,0.9,0.9v4.9
										C1338.4,267.1,1337.9,267.5,1337.4,267.5z M1333.5,265.7h3v-3h-3V265.7z"/>
								</g>
							</g>
						</g>
						<g>
							<g>
								<g>
									<path class="st2" d="M1346.4,267.5h-4.9c-0.5,0-0.9-0.4-0.9-0.9v-4.9c0-0.5,0.4-0.9,0.9-0.9h4.9c0.5,0,0.9,0.4,0.9,0.9v4.9
										C1347.3,267.1,1346.9,267.5,1346.4,267.5z M1342.4,265.7h3v-3h-3V265.7z"/>
								</g>
								<g>
									<path class="st2" d="M1352,267.5h-4.9c-0.5,0-0.9-0.4-0.9-0.9v-4.9c0-0.5,0.4-0.9,0.9-0.9h4.9c0.5,0,0.9,0.4,0.9,0.9v4.9
										C1352.9,267.1,1352.5,267.5,1352,267.5z M1348,265.7h3.1v-3h-3.1V265.7z"/>
								</g>
							</g>
						</g>
					</g>
					<g>
						<g>
							<g>
								<g>
									<path class="st2" d="M1317.4,276.7h-4.9c-0.5,0-0.9-0.4-0.9-0.9v-4.9c0-0.5,0.4-0.9,0.9-0.9h4.9c0.5,0,0.9,0.4,0.9,0.9v4.9
										C1318.3,276.3,1317.9,276.7,1317.4,276.7z M1313.4,274.9h3.1v-3h-3.1V274.9z"/>
								</g>
								<g>
									<path class="st2" d="M1322.9,276.7h-4.9c-0.5,0-0.9-0.4-0.9-0.9v-4.9c0-0.5,0.4-0.9,0.9-0.9h4.9c0.5,0,0.9,0.4,0.9,0.9v4.9
										C1323.9,276.3,1323.4,276.7,1322.9,276.7z M1319,274.9h3.1v-3h-3.1V274.9z"/>
								</g>
							</g>
						</g>
						<g>
							<g>
								<g>
									<path class="st2" d="M1331.9,276.7h-4.9c-0.5,0-0.9-0.4-0.9-0.9v-4.9c0-0.5,0.4-0.9,0.9-0.9h4.9c0.5,0,0.9,0.4,0.9,0.9v4.9
										C1332.8,276.3,1332.4,276.7,1331.9,276.7z M1327.9,274.9h3v-3h-3V274.9z"/>
								</g>
								<g>
									<path class="st2" d="M1337.4,276.7h-4.9c-0.5,0-0.9-0.4-0.9-0.9v-4.9c0-0.5,0.4-0.9,0.9-0.9h4.9c0.5,0,0.9,0.4,0.9,0.9v4.9
										C1338.4,276.3,1337.9,276.7,1337.4,276.7z M1333.5,274.9h3v-3h-3V274.9z"/>
								</g>
							</g>
						</g>
						<g>
							<g>
								<g>
									<path class="st2" d="M1346.4,276.7h-4.9c-0.5,0-0.9-0.4-0.9-0.9v-4.9c0-0.5,0.4-0.9,0.9-0.9h4.9c0.5,0,0.9,0.4,0.9,0.9v4.9
										C1347.3,276.3,1346.9,276.7,1346.4,276.7z M1342.4,274.9h3v-3h-3V274.9z"/>
								</g>
								<g>
									<path class="st2" d="M1352,276.7h-4.9c-0.5,0-0.9-0.4-0.9-0.9v-4.9c0-0.5,0.4-0.9,0.9-0.9h4.9c0.5,0,0.9,0.4,0.9,0.9v4.9
										C1352.9,276.3,1352.5,276.7,1352,276.7z M1348,274.9h3.1v-3h-3.1V274.9z"/>
								</g>
							</g>
						</g>
					</g>
					<g>
						<g>
							<g>
								<g>
									<path class="st2" d="M1317.4,285.9h-4.9c-0.5,0-0.9-0.4-0.9-0.9v-4.9c0-0.5,0.4-0.9,0.9-0.9h4.9c0.5,0,0.9,0.4,0.9,0.9v4.9
										C1318.3,285.4,1317.9,285.9,1317.4,285.9z M1313.4,284h3.1v-3h-3.1V284z"/>
								</g>
								<g>
									<path class="st2" d="M1322.9,285.9h-4.9c-0.5,0-0.9-0.4-0.9-0.9v-4.9c0-0.5,0.4-0.9,0.9-0.9h4.9c0.5,0,0.9,0.4,0.9,0.9v4.9
										C1323.9,285.4,1323.4,285.9,1322.9,285.9z M1319,284h3.1v-3h-3.1V284z"/>
								</g>
							</g>
						</g>
						<g>
							<g>
								<g>
									<path class="st2" d="M1331.9,285.9h-4.9c-0.5,0-0.9-0.4-0.9-0.9v-4.9c0-0.5,0.4-0.9,0.9-0.9h4.9c0.5,0,0.9,0.4,0.9,0.9v4.9
										C1332.8,285.4,1332.4,285.9,1331.9,285.9z M1327.9,284h3v-3h-3V284z"/>
								</g>
								<g>
									<path class="st2" d="M1337.4,285.9h-4.9c-0.5,0-0.9-0.4-0.9-0.9v-4.9c0-0.5,0.4-0.9,0.9-0.9h4.9c0.5,0,0.9,0.4,0.9,0.9v4.9
										C1338.4,285.4,1337.9,285.9,1337.4,285.9z M1333.5,284h3v-3h-3V284z"/>
								</g>
							</g>
						</g>
						<g>
							<g>
								<g>
									<path class="st2" d="M1346.4,285.9h-4.9c-0.5,0-0.9-0.4-0.9-0.9v-4.9c0-0.5,0.4-0.9,0.9-0.9h4.9c0.5,0,0.9,0.4,0.9,0.9v4.9
										C1347.3,285.4,1346.9,285.9,1346.4,285.9z M1342.4,284h3v-3h-3V284z"/>
								</g>
								<g>
									<path class="st2" d="M1352,285.9h-4.9c-0.5,0-0.9-0.4-0.9-0.9v-4.9c0-0.5,0.4-0.9,0.9-0.9h4.9c0.5,0,0.9,0.4,0.9,0.9v4.9
										C1352.9,285.4,1352.5,285.9,1352,285.9z M1348,284h3.1v-3h-3.1V284z"/>
								</g>
							</g>
						</g>
					</g>
				</g>
			</g>
			<g>
				<g>
					<path class="st2" d="M1525.9,297.3h-47.2c-0.5,0-0.9-0.4-0.9-0.9v-36.4c0-0.5,0.4-0.9,0.9-0.9h47.2c0.5,0,0.9,0.4,0.9,0.9v36.4
						C1526.8,296.9,1526.4,297.3,1525.9,297.3z M1479.6,295.4h45.4v-34.6h-45.4V295.4z"/>
				</g>
				<g>
					<g>
						<path class="st2" d="M1494.4,279.9h-13.6c-0.5,0-0.9-0.4-0.9-0.9V264c0-0.5,0.4-0.9,0.9-0.9h13.6c0.5,0,0.9,0.4,0.9,0.9V279
							C1495.3,279.5,1494.9,279.9,1494.4,279.9z M1481.7,278.1h11.7v-13.2h-11.7V278.1z"/>
					</g>
					<g>
						<path class="st2" d="M1509.1,279.9h-13.6c-0.5,0-0.9-0.4-0.9-0.9V264c0-0.5,0.4-0.9,0.9-0.9h13.6c0.5,0,0.9,0.4,0.9,0.9V279
							C1510,279.5,1509.6,279.9,1509.1,279.9z M1496.4,278.1h11.7v-13.2h-11.7V278.1z"/>
					</g>
					<g>
						<path class="st2" d="M1523.7,280.1h-13.6c-0.5,0-0.9-0.4-0.9-0.9v-15.1c0-0.5,0.4-0.9,0.9-0.9h13.6c0.5,0,0.9,0.4,0.9,0.9
							v15.1C1524.6,279.7,1524.2,280.1,1523.7,280.1z M1511.1,278.2h11.7V265h-11.7V278.2z"/>
					</g>
				</g>
				<g>
					<g>
						<path class="st2" d="M1494.4,296h-13.6c-0.5,0-0.9-0.4-0.9-0.9V280c0-0.5,0.4-0.9,0.9-0.9h13.6c0.5,0,0.9,0.4,0.9,0.9v15.1
							C1495.3,295.6,1494.9,296,1494.4,296z M1481.7,294.2h11.7v-13.2h-11.7V294.2z"/>
					</g>
					<g>
						<path class="st2" d="M1509.1,296h-13.6c-0.5,0-0.9-0.4-0.9-0.9V280c0-0.5,0.4-0.9,0.9-0.9h13.6c0.5,0,0.9,0.4,0.9,0.9v15.1
							C1510,295.6,1509.6,296,1509.1,296z M1496.4,294.2h11.7v-13.2h-11.7V294.2z"/>
					</g>
					<g>
						<path class="st2" d="M1523.7,296.1h-13.6c-0.5,0-0.9-0.4-0.9-0.9v-15.1c0-0.5,0.4-0.9,0.9-0.9h13.6c0.5,0,0.9,0.4,0.9,0.9
							v15.1C1524.6,295.7,1524.2,296.1,1523.7,296.1z M1511.1,294.3h11.7V281h-11.7V294.3z"/>
					</g>
				</g>
			</g>
			<g>
				<g>
					<path class="st2" d="M1286.3,505.4h-195.4c-0.5,0-0.9-0.4-0.9-0.9V258.2c0-0.5,0.4-0.9,0.9-0.9h195.4c0.5,0,0.9,0.4,0.9,0.9
						v246.2C1287.2,504.9,1286.8,505.4,1286.3,505.4z M1091.9,503.5h193.5V259.2h-193.5V503.5z"/>
				</g>
				<g>
					<g>
						<g>
							<g>
								<g>
									<g>
										<path class="st2" d="M1108.4,294.1h-4.9c-0.5,0-0.9-0.4-0.9-0.9v-4.9c0-0.5,0.4-0.9,0.9-0.9h4.9c0.5,0,0.9,0.4,0.9,0.9
											v4.9C1109.3,293.7,1108.9,294.1,1108.4,294.1z M1104.4,292.3h3.1v-3h-3.1V292.3z"/>
									</g>
									<g>
										<path class="st2" d="M1113.9,294.1h-4.9c-0.5,0-0.9-0.4-0.9-0.9v-4.9c0-0.5,0.4-0.9,0.9-0.9h4.9c0.5,0,0.9,0.4,0.9,0.9
											v4.9C1114.9,293.7,1114.4,294.1,1113.9,294.1z M1110,292.3h3.1v-3h-3.1V292.3z"/>
									</g>
								</g>
							</g>
							<g>
								<g>
									<g>
										<path class="st2" d="M1122.9,294.1h-4.9c-0.5,0-0.9-0.4-0.9-0.9v-4.9c0-0.5,0.4-0.9,0.9-0.9h4.9c0.5,0,0.9,0.4,0.9,0.9
											v4.9C1123.8,293.7,1123.4,294.1,1122.9,294.1z M1118.9,292.3h3.1v-3h-3.1V292.3z"/>
									</g>
									<g>
										<path class="st2" d="M1128.4,294.1h-4.9c-0.5,0-0.9-0.4-0.9-0.9v-4.9c0-0.5,0.4-0.9,0.9-0.9h4.9c0.5,0,0.9,0.4,0.9,0.9
											v4.9C1129.4,293.7,1129,294.1,1128.4,294.1z M1124.5,292.3h3v-3h-3V292.3z"/>
									</g>
								</g>
							</g>
							<g>
								<g>
									<g>
										<path class="st2" d="M1137.4,294.1h-4.9c-0.5,0-0.9-0.4-0.9-0.9v-4.9c0-0.5,0.4-0.9,0.9-0.9h4.9c0.5,0,0.9,0.4,0.9,0.9
											v4.9C1138.3,293.7,1137.9,294.1,1137.4,294.1z M1133.4,292.3h3.1v-3h-3.1V292.3z"/>
									</g>
									<g>
										<path class="st2" d="M1143,294.1h-4.9c-0.5,0-0.9-0.4-0.9-0.9v-4.9c0-0.5,0.4-0.9,0.9-0.9h4.9c0.5,0,0.9,0.4,0.9,0.9v4.9
											C1143.9,293.7,1143.5,294.1,1143,294.1z M1139,292.3h3.1v-3h-3.1V292.3z"/>
									</g>
								</g>
							</g>
							<g>
								<g>
									<g>
										<path class="st2" d="M1151.9,294.1h-4.9c-0.5,0-0.9-0.4-0.9-0.9v-4.9c0-0.5,0.4-0.9,0.9-0.9h4.9c0.5,0,0.9,0.4,0.9,0.9
											v4.9C1152.8,293.7,1152.4,294.1,1151.9,294.1z M1148,292.3h3.1v-3h-3.1V292.3z"/>
									</g>
									<g>
										<path class="st2" d="M1157.5,294.1h-4.9c-0.5,0-0.9-0.4-0.9-0.9v-4.9c0-0.5,0.4-0.9,0.9-0.9h4.9c0.5,0,0.9,0.4,0.9,0.9
											v4.9C1158.4,293.7,1158,294.1,1157.5,294.1z M1153.5,292.3h3.1v-3h-3.1V292.3z"/>
									</g>
								</g>
							</g>
						</g>
					</g>
					<g>
						<g>
							<g>
								<g>
									<g>
										<path class="st2" d="M1168.4,294.1h-4.9c-0.5,0-0.9-0.4-0.9-0.9v-4.9c0-0.5,0.4-0.9,0.9-0.9h4.9c0.5,0,0.9,0.4,0.9,0.9
											v4.9C1169.3,293.7,1168.9,294.1,1168.4,294.1z M1164.4,292.3h3.1v-3h-3.1V292.3z"/>
									</g>
									<g>
										<path class="st2" d="M1173.9,294.1h-4.9c-0.5,0-0.9-0.4-0.9-0.9v-4.9c0-0.5,0.4-0.9,0.9-0.9h4.9c0.5,0,0.9,0.4,0.9,0.9
											v4.9C1174.8,293.7,1174.4,294.1,1173.9,294.1z M1170,292.3h3v-3h-3V292.3z"/>
									</g>
								</g>
							</g>
							<g>
								<g>
									<g>
										<path class="st2" d="M1182.9,294.1h-4.9c-0.5,0-0.9-0.4-0.9-0.9v-4.9c0-0.5,0.4-0.9,0.9-0.9h4.9c0.5,0,0.9,0.4,0.9,0.9
											v4.9C1183.8,293.7,1183.4,294.1,1182.9,294.1z M1178.9,292.3h3v-3h-3V292.3z"/>
									</g>
									<g>
										<path class="st2" d="M1188.4,294.1h-4.9c-0.5,0-0.9-0.4-0.9-0.9v-4.9c0-0.5,0.4-0.9,0.9-0.9h4.9c0.5,0,0.9,0.4,0.9,0.9
											v4.9C1189.3,293.7,1188.9,294.1,1188.4,294.1z M1184.5,292.3h3v-3h-3V292.3z"/>
									</g>
								</g>
							</g>
							<g>
								<g>
									<g>
										<path class="st2" d="M1197.4,294.1h-4.9c-0.5,0-0.9-0.4-0.9-0.9v-4.9c0-0.5,0.4-0.9,0.9-0.9h4.9c0.5,0,0.9,0.4,0.9,0.9
											v4.9C1198.3,293.7,1197.9,294.1,1197.4,294.1z M1193.4,292.3h3v-3h-3V292.3z"/>
									</g>
									<g>
										<path class="st2" d="M1203,294.1h-4.9c-0.5,0-0.9-0.4-0.9-0.9v-4.9c0-0.5,0.4-0.9,0.9-0.9h4.9c0.5,0,0.9,0.4,0.9,0.9v4.9
											C1203.9,293.7,1203.5,294.1,1203,294.1z M1199,292.3h3.1v-3h-3.1V292.3z"/>
									</g>
								</g>
							</g>
							<g>
								<g>
									<g>
										<path class="st2" d="M1211.9,294.1h-4.9c-0.5,0-0.9-0.4-0.9-0.9v-4.9c0-0.5,0.4-0.9,0.9-0.9h4.9c0.5,0,0.9,0.4,0.9,0.9
											v4.9C1212.8,293.7,1212.4,294.1,1211.9,294.1z M1207.9,292.3h3.1v-3h-3.1V292.3z"/>
									</g>
									<g>
										<path class="st2" d="M1217.5,294.1h-4.9c-0.5,0-0.9-0.4-0.9-0.9v-4.9c0-0.5,0.4-0.9,0.9-0.9h4.9c0.5,0,0.9,0.4,0.9,0.9
											v4.9C1218.4,293.7,1218,294.1,1217.5,294.1z M1213.5,292.3h3.1v-3h-3.1V292.3z"/>
									</g>
								</g>
							</g>
						</g>
					</g>
					<g>
						<g>
							<g>
								<g>
									<g>
										<path class="st2" d="M1228.4,294.1h-4.9c-0.5,0-0.9-0.4-0.9-0.9v-4.9c0-0.5,0.4-0.9,0.9-0.9h4.9c0.5,0,0.9,0.4,0.9,0.9
											v4.9C1229.3,293.7,1228.9,294.1,1228.4,294.1z M1224.4,292.3h3.1v-3h-3.1V292.3z"/>
									</g>
									<g>
										<path class="st2" d="M1233.9,294.1h-4.9c-0.5,0-0.9-0.4-0.9-0.9v-4.9c0-0.5,0.4-0.9,0.9-0.9h4.9c0.5,0,0.9,0.4,0.9,0.9
											v4.9C1234.8,293.7,1234.4,294.1,1233.9,294.1z M1229.9,292.3h3.1v-3h-3.1V292.3z"/>
									</g>
								</g>
							</g>
							<g>
								<g>
									<g>
										<path class="st2" d="M1242.9,294.1h-4.9c-0.5,0-0.9-0.4-0.9-0.9v-4.9c0-0.5,0.4-0.9,0.9-0.9h4.9c0.5,0,0.9,0.4,0.9,0.9
											v4.9C1243.8,293.7,1243.4,294.1,1242.9,294.1z M1238.9,292.3h3v-3h-3V292.3z"/>
									</g>
									<g>
										<path class="st2" d="M1248.4,294.1h-4.9c-0.5,0-0.9-0.4-0.9-0.9v-4.9c0-0.5,0.4-0.9,0.9-0.9h4.9c0.5,0,0.9,0.4,0.9,0.9
											v4.9C1249.3,293.7,1248.9,294.1,1248.4,294.1z M1244.5,292.3h3v-3h-3V292.3z"/>
									</g>
								</g>
							</g>
							<g>
								<g>
									<g>
										<path class="st2" d="M1257.4,294.1h-4.9c-0.5,0-0.9-0.4-0.9-0.9v-4.9c0-0.5,0.4-0.9,0.9-0.9h4.9c0.5,0,0.9,0.4,0.9,0.9
											v4.9C1258.3,293.7,1257.9,294.1,1257.4,294.1z M1253.4,292.3h3.1v-3h-3.1V292.3z"/>
									</g>
									<g>
										<path class="st2" d="M1262.9,294.1h-4.9c-0.5,0-0.9-0.4-0.9-0.9v-4.9c0-0.5,0.4-0.9,0.9-0.9h4.9c0.5,0,0.9,0.4,0.9,0.9
											v4.9C1263.9,293.7,1263.4,294.1,1262.9,294.1z M1259,292.3h3.1v-3h-3.1V292.3z"/>
									</g>
								</g>
							</g>
							<g>
								<g>
									<g>
										<path class="st2" d="M1271.9,294.1h-4.9c-0.5,0-0.9-0.4-0.9-0.9v-4.9c0-0.5,0.4-0.9,0.9-0.9h4.9c0.5,0,0.9,0.4,0.9,0.9
											v4.9C1272.8,293.7,1272.4,294.1,1271.9,294.1z M1267.9,292.3h3.1v-3h-3.1V292.3z"/>
									</g>
									<g>
										<path class="st2" d="M1277.4,294.1h-4.9c-0.5,0-0.9-0.4-0.9-0.9v-4.9c0-0.5,0.4-0.9,0.9-0.9h4.9c0.5,0,0.9,0.4,0.9,0.9
											v4.9C1278.4,293.7,1278,294.1,1277.4,294.1z M1273.5,292.3h3.1v-3h-3.1V292.3z"/>
									</g>
								</g>
							</g>
						</g>
					</g>
				</g>
			</g>
			<g>
				<g>
					<path class="st2" d="M1668.7,199.5h-2.5c-0.5,0-0.9-0.4-0.9-0.9v-45c0-0.5,0.4-0.9,0.9-0.9h2.5c0.5,0,0.9,0.4,0.9,0.9v45
						C1669.6,199.1,1669.2,199.5,1668.7,199.5z M1667.1,197.7h0.7v-43.2h-0.7V197.7z"/>
				</g>
				<g>
					<path class="st2" d="M1680.2,205.4C1680.1,205.4,1680.1,205.4,1680.2,205.4h-25.5c-0.3,0-0.6-0.1-0.7-0.4
						c-0.2-0.2-0.2-0.5-0.1-0.8l5.1-16.7c0.1-0.4,0.5-0.6,0.9-0.6h15.1c0.4,0,0.8,0.3,0.9,0.6l5.1,16.4c0.1,0.1,0.2,0.3,0.2,0.5
						C1681.1,205,1680.7,205.4,1680.2,205.4z M1656,203.6h22.9l-4.6-14.8h-13.8L1656,203.6z"/>
				</g>
				<g>
					<path class="st2" d="M1692.2,237.5C1692.2,237.5,1692.2,237.5,1692.2,237.5h-49.6c-0.3,0-0.6-0.1-0.7-0.4
						c-0.2-0.2-0.2-0.5-0.1-0.8l10-32.5c0.1-0.4,0.5-0.6,0.9-0.6h29.6c0.4,0,0.8,0.3,0.9,0.6l9.9,32.2c0.1,0.2,0.2,0.3,0.2,0.5
						C1693.2,237.1,1692.8,237.5,1692.2,237.5z M1643.9,235.6h47.1l-9.4-30.7h-28.2L1643.9,235.6z"/>
				</g>
				<g>
					<path class="st2" d="M1667.4,179.5c-3.3,0-5.9-2.7-5.9-5.9c0-3.3,2.7-5.9,5.9-5.9c3.3,0,5.9,2.6,5.9,5.9
						C1673.3,176.9,1670.7,179.5,1667.4,179.5z M1667.4,169.5c-2.3,0-4.1,1.8-4.1,4.1c0,2.3,1.8,4.1,4.1,4.1c2.2,0,4.1-1.8,4.1-4.1
						C1671.5,171.4,1669.7,169.5,1667.4,169.5z"/>
				</g>
				<g>
					<path class="st2" d="M1696.8,304.1h-58.7c-0.5,0-0.9-0.4-0.9-0.9v-70c0-0.5,0.4-0.9,0.9-0.9h58.7c0.5,0,0.9,0.4,0.9,0.9v70
						C1697.7,303.7,1697.3,304.1,1696.8,304.1z M1639,302.3h56.9v-68.1H1639V302.3z"/>
				</g>
				<g>
					<g>
						<g>
							<g>
								<g>
									<path class="st2" d="M1652.6,256.2h-4.9c-0.5,0-0.9-0.4-0.9-0.9v-4.9c0-0.5,0.4-0.9,0.9-0.9h4.9c0.5,0,0.9,0.4,0.9,0.9v4.9
										C1653.5,255.8,1653.1,256.2,1652.6,256.2z M1648.6,254.4h3.1v-3h-3.1V254.4z"/>
								</g>
								<g>
									<path class="st2" d="M1658.1,256.2h-4.9c-0.5,0-0.9-0.4-0.9-0.9v-4.9c0-0.5,0.4-0.9,0.9-0.9h4.9c0.5,0,0.9,0.4,0.9,0.9v4.9
										C1659,255.8,1658.6,256.2,1658.1,256.2z M1654.2,254.4h3.1v-3h-3.1V254.4z"/>
								</g>
							</g>
						</g>
						<g>
							<g>
								<g>
									<path class="st2" d="M1667.1,256.2h-4.9c-0.5,0-0.9-0.4-0.9-0.9v-4.9c0-0.5,0.4-0.9,0.9-0.9h4.9c0.5,0,0.9,0.4,0.9,0.9v4.9
										C1668,255.8,1667.6,256.2,1667.1,256.2z M1663.1,254.4h3.1v-3h-3.1V254.4z"/>
								</g>
								<g>
									<path class="st2" d="M1672.6,256.2h-4.9c-0.5,0-0.9-0.4-0.9-0.9v-4.9c0-0.5,0.4-0.9,0.9-0.9h4.9c0.5,0,0.9,0.4,0.9,0.9v4.9
										C1673.6,255.8,1673.1,256.2,1672.6,256.2z M1668.7,254.4h3.1v-3h-3.1V254.4z"/>
								</g>
							</g>
						</g>
						<g>
							<g>
								<g>
									<path class="st2" d="M1681.6,256.2h-4.9c-0.5,0-0.9-0.4-0.9-0.9v-4.9c0-0.5,0.4-0.9,0.9-0.9h4.9c0.5,0,0.9,0.4,0.9,0.9v4.9
										C1682.5,255.8,1682.1,256.2,1681.6,256.2z M1677.6,254.4h3.1v-3h-3.1V254.4z"/>
								</g>
								<g>
									<path class="st2" d="M1687.1,256.2h-4.9c-0.5,0-0.9-0.4-0.9-0.9v-4.9c0-0.5,0.4-0.9,0.9-0.9h4.9c0.5,0,0.9,0.4,0.9,0.9v4.9
										C1688.1,255.8,1687.6,256.2,1687.1,256.2z M1683.2,254.4h3.1v-3h-3.1V254.4z"/>
								</g>
							</g>
						</g>
					</g>
					<g>
						<g>
							<g>
								<g>
									<path class="st2" d="M1652.6,265.3h-4.9c-0.5,0-0.9-0.4-0.9-0.9v-4.9c0-0.5,0.4-0.9,0.9-0.9h4.9c0.5,0,0.9,0.4,0.9,0.9v4.9
										C1653.5,264.9,1653.1,265.3,1652.6,265.3z M1648.6,263.5h3.1v-3h-3.1V263.5z"/>
								</g>
								<g>
									<path class="st2" d="M1658.1,265.3h-4.9c-0.5,0-0.9-0.4-0.9-0.9v-4.9c0-0.5,0.4-0.9,0.9-0.9h4.9c0.5,0,0.9,0.4,0.9,0.9v4.9
										C1659,264.9,1658.6,265.3,1658.1,265.3z M1654.2,263.5h3.1v-3h-3.1V263.5z"/>
								</g>
							</g>
						</g>
						<g>
							<g>
								<g>
									<path class="st2" d="M1667.1,265.3h-4.9c-0.5,0-0.9-0.4-0.9-0.9v-4.9c0-0.5,0.4-0.9,0.9-0.9h4.9c0.5,0,0.9,0.4,0.9,0.9v4.9
										C1668,264.9,1667.6,265.3,1667.1,265.3z M1663.1,263.5h3.1v-3h-3.1V263.5z"/>
								</g>
								<g>
									<path class="st2" d="M1672.6,265.3h-4.9c-0.5,0-0.9-0.4-0.9-0.9v-4.9c0-0.5,0.4-0.9,0.9-0.9h4.9c0.5,0,0.9,0.4,0.9,0.9v4.9
										C1673.6,264.9,1673.1,265.3,1672.6,265.3z M1668.7,263.5h3.1v-3h-3.1V263.5z"/>
								</g>
							</g>
						</g>
						<g>
							<g>
								<g>
									<path class="st2" d="M1681.6,265.3h-4.9c-0.5,0-0.9-0.4-0.9-0.9v-4.9c0-0.5,0.4-0.9,0.9-0.9h4.9c0.5,0,0.9,0.4,0.9,0.9v4.9
										C1682.5,264.9,1682.1,265.3,1681.6,265.3z M1677.6,263.5h3.1v-3h-3.1V263.5z"/>
								</g>
								<g>
									<path class="st2" d="M1687.1,265.3h-4.9c-0.5,0-0.9-0.4-0.9-0.9v-4.9c0-0.5,0.4-0.9,0.9-0.9h4.9c0.5,0,0.9,0.4,0.9,0.9v4.9
										C1688.1,264.9,1687.6,265.3,1687.1,265.3z M1683.2,263.5h3.1v-3h-3.1V263.5z"/>
								</g>
							</g>
						</g>
					</g>
					<g>
						<g>
							<g>
								<g>
									<path class="st2" d="M1652.6,274.5h-4.9c-0.5,0-0.9-0.4-0.9-0.9v-4.9c0-0.5,0.4-0.9,0.9-0.9h4.9c0.5,0,0.9,0.4,0.9,0.9v4.9
										C1653.5,274.1,1653.1,274.5,1652.6,274.5z M1648.6,272.7h3.1v-3h-3.1V272.7z"/>
								</g>
								<g>
									<path class="st2" d="M1658.1,274.5h-4.9c-0.5,0-0.9-0.4-0.9-0.9v-4.9c0-0.5,0.4-0.9,0.9-0.9h4.9c0.5,0,0.9,0.4,0.9,0.9v4.9
										C1659,274.1,1658.6,274.5,1658.1,274.5z M1654.2,272.7h3.1v-3h-3.1V272.7z"/>
								</g>
							</g>
						</g>
						<g>
							<g>
								<g>
									<path class="st2" d="M1667.1,274.5h-4.9c-0.5,0-0.9-0.4-0.9-0.9v-4.9c0-0.5,0.4-0.9,0.9-0.9h4.9c0.5,0,0.9,0.4,0.9,0.9v4.9
										C1668,274.1,1667.6,274.5,1667.1,274.5z M1663.1,272.7h3.1v-3h-3.1V272.7z"/>
								</g>
								<g>
									<path class="st2" d="M1672.6,274.5h-4.9c-0.5,0-0.9-0.4-0.9-0.9v-4.9c0-0.5,0.4-0.9,0.9-0.9h4.9c0.5,0,0.9,0.4,0.9,0.9v4.9
										C1673.6,274.1,1673.1,274.5,1672.6,274.5z M1668.7,272.7h3.1v-3h-3.1V272.7z"/>
								</g>
							</g>
						</g>
						<g>
							<g>
								<g>
									<path class="st2" d="M1681.6,274.5h-4.9c-0.5,0-0.9-0.4-0.9-0.9v-4.9c0-0.5,0.4-0.9,0.9-0.9h4.9c0.5,0,0.9,0.4,0.9,0.9v4.9
										C1682.5,274.1,1682.1,274.5,1681.6,274.5z M1677.6,272.7h3.1v-3h-3.1V272.7z"/>
								</g>
								<g>
									<path class="st2" d="M1687.1,274.5h-4.9c-0.5,0-0.9-0.4-0.9-0.9v-4.9c0-0.5,0.4-0.9,0.9-0.9h4.9c0.5,0,0.9,0.4,0.9,0.9v4.9
										C1688.1,274.1,1687.6,274.5,1687.1,274.5z M1683.2,272.7h3.1v-3h-3.1V272.7z"/>
								</g>
							</g>
						</g>
					</g>
					<g>
						<g>
							<g>
								<g>
									<path class="st2" d="M1652.6,283.7h-4.9c-0.5,0-0.9-0.4-0.9-0.9v-4.9c0-0.5,0.4-0.9,0.9-0.9h4.9c0.5,0,0.9,0.4,0.9,0.9v4.9
										C1653.5,283.3,1653.1,283.7,1652.6,283.7z M1648.6,281.8h3.1v-3h-3.1V281.8z"/>
								</g>
								<g>
									<path class="st2" d="M1658.1,283.7h-4.9c-0.5,0-0.9-0.4-0.9-0.9v-4.9c0-0.5,0.4-0.9,0.9-0.9h4.9c0.5,0,0.9,0.4,0.9,0.9v4.9
										C1659,283.3,1658.6,283.7,1658.1,283.7z M1654.2,281.8h3.1v-3h-3.1V281.8z"/>
								</g>
							</g>
						</g>
						<g>
							<g>
								<g>
									<path class="st2" d="M1667.1,283.7h-4.9c-0.5,0-0.9-0.4-0.9-0.9v-4.9c0-0.5,0.4-0.9,0.9-0.9h4.9c0.5,0,0.9,0.4,0.9,0.9v4.9
										C1668,283.3,1667.6,283.7,1667.1,283.7z M1663.1,281.8h3.1v-3h-3.1V281.8z"/>
								</g>
								<g>
									<path class="st2" d="M1672.6,283.7h-4.9c-0.5,0-0.9-0.4-0.9-0.9v-4.9c0-0.5,0.4-0.9,0.9-0.9h4.9c0.5,0,0.9,0.4,0.9,0.9v4.9
										C1673.6,283.3,1673.1,283.7,1672.6,283.7z M1668.7,281.8h3.1v-3h-3.1V281.8z"/>
								</g>
							</g>
						</g>
						<g>
							<g>
								<g>
									<path class="st2" d="M1681.6,283.7h-4.9c-0.5,0-0.9-0.4-0.9-0.9v-4.9c0-0.5,0.4-0.9,0.9-0.9h4.9c0.5,0,0.9,0.4,0.9,0.9v4.9
										C1682.5,283.3,1682.1,283.7,1681.6,283.7z M1677.6,281.8h3.1v-3h-3.1V281.8z"/>
								</g>
								<g>
									<path class="st2" d="M1687.1,283.7h-4.9c-0.5,0-0.9-0.4-0.9-0.9v-4.9c0-0.5,0.4-0.9,0.9-0.9h4.9c0.5,0,0.9,0.4,0.9,0.9v4.9
										C1688.1,283.3,1687.6,283.7,1687.1,283.7z M1683.2,281.8h3.1v-3h-3.1V281.8z"/>
								</g>
							</g>
						</g>
					</g>
				</g>
			</g>
		</g>
	</g>
</g>
</svg>
