<svg id="Layer_1" data-name="Layer 1" xmlns="http://www.w3.org/2000/svg" viewBox="0 0 69.68 69.68"><defs><style>.cls-1{fill:#606060;}</style></defs><title>Untitled-3</title><path class="cls-1" d="M53,46.09a4.88,4.88,0,0,0-7.38,0c-1.73,1.71-3.45,3.42-5.15,5.16a1,1,0,0,1-1.42.26c-1.12-.61-2.31-1.1-3.38-1.77A53.5,53.5,0,0,1,22.74,38a30.58,30.58,0,0,1-4.63-7.41,1.06,1.06,0,0,1,.26-1.36c1.73-1.67,3.41-3.38,5.1-5.09,2.36-2.38,2.36-5.16,0-7.55l-4-4.06c-1.39-1.39-2.77-2.8-4.18-4.18a4.91,4.91,0,0,0-7.38,0c-1.74,1.71-3.41,3.47-5.18,5.15A8.4,8.4,0,0,0,.05,19.18,24,24,0,0,0,1.91,29.52,62.8,62.8,0,0,0,13.06,48.09,69,69,0,0,0,35.91,66a33.05,33.05,0,0,0,12.66,3.68,9.28,9.28,0,0,0,8-3C58,65,59.67,63.46,61.24,61.88c2.32-2.35,2.33-5.19,0-7.51Q57.13,50.22,53,46.09Zm0,0"/><path class="cls-1" d="M50.2,34.54l5.35-.91a24,24,0,0,0-20.31-19.7l-.75,5.38A18.56,18.56,0,0,1,50.2,34.54Zm0,0"/><path class="cls-1" d="M58.57,11.28A39.45,39.45,0,0,0,36,0L35.2,5.38A34.42,34.42,0,0,1,64.33,33.61l5.35-.91A39.74,39.74,0,0,0,58.57,11.28Zm0,0"/></svg>