<svg id="Layer_1" data-name="Layer 1" xmlns="http://www.w3.org/2000/svg" viewBox="0 0 62.54 80"><defs><style>.cls-1{fill:#fff;}</style></defs><title>Untitled-3</title><path class="cls-1" d="M41.33,20.42V.79A.79.79,0,0,0,40.53,0H.79A.79.79,0,0,0,0,.79V79.21A.79.79,0,0,0,.79,80h61a.79.79,0,0,0,.79-.79V22a.79.79,0,0,0-.79-.79H42.12A.79.79,0,0,1,41.33,20.42ZM35.54,30.81h4.93a.79.79,0,0,1,.79.79h0a.79.79,0,0,1-.79.79H35.54a.79.79,0,0,1-.79-.79h0A.79.79,0,0,1,35.54,30.81ZM33.73,42.44H48.8a.79.79,0,0,1,.79.79h0a.79.79,0,0,1-.79.79H33.73a.79.79,0,0,1-.79-.79h0A.79.79,0,0,1,33.73,42.44Zm-.8,12.43h0a.79.79,0,0,1-.79.79h-4.4a.79.79,0,0,1-.79-.79h0a.79.79,0,0,1,.79-.79h4.4A.79.79,0,0,1,32.93,54.87ZM28.47,32.4h-.52a.79.79,0,0,1-.79-.79h0a.79.79,0,0,1,.79-.79h.52a.79.79,0,0,1,.79.79h0A.79.79,0,0,1,28.47,32.4ZM13.88,19.17h13a.79.79,0,0,1,.79.79h0a.79.79,0,0,1-.79.79h-13a.79.79,0,0,1-.79-.79h0A.79.79,0,0,1,13.88,19.17Zm0,11.64h6.87a.79.79,0,0,1,.79.79h0a.79.79,0,0,1-.79.79H13.88a.79.79,0,0,1-.79-.79h0A.79.79,0,0,1,13.88,30.81Zm0,11.63H26.57a.79.79,0,0,1,.79.79h0a.79.79,0,0,1-.79.79H13.88a.79.79,0,0,1-.79-.79h0A.79.79,0,0,1,13.88,42.44Zm0,11.63h6.87a.79.79,0,0,1,.79.79h0a.79.79,0,0,1-.79.79H13.88a.79.79,0,0,1-.79-.79h0A.79.79,0,0,1,13.88,54.08ZM36.83,67.31H13.88a.79.79,0,0,1-.79-.79h0a.79.79,0,0,1,.79-.79H36.83a.79.79,0,0,1,.79.79h0A.79.79,0,0,1,36.83,67.31Zm2.5-13.23h10.1a.79.79,0,0,1,.79.79h0a.79.79,0,0,1-.79.79H39.33a.79.79,0,0,1-.79-.79h0A.79.79,0,0,1,39.33,54.08Z"/><polygon class="cls-1" points="60.53 19.2 54.63 13.31 53.34 12.02 43.34 2.02 43.34 19.2 60.53 19.2"/></svg>