<svg id="Layer_1" data-name="Layer 1" xmlns="http://www.w3.org/2000/svg" viewBox="0 0 72.86 77.08"><defs><style>.cls-1{fill:#606060;}</style></defs><title>Untitled-3</title><path class="cls-1" d="M69,34.73l.5.12a3.88,3.88,0,0,1,3.35,3.87q.07,5.29,0,10.58a3.94,3.94,0,0,1-3.91,4,1.29,1.29,0,0,0-.87.54,6.55,6.55,0,0,1-5.66,3.4A12.09,12.09,0,0,1,59.24,57a6.32,6.32,0,0,1-4.87-6c-.09-4.66-.11-9.33,0-14,.08-3.54,3-6.14,6.75-6.23.71,0,1.43,0,2.15,0-.94-11.56-11.33-25-27.76-25.54A29,29,0,0,0,5.44,32.1c.37.07.75.12,1.13.21a5.23,5.23,0,0,1,4,5.44,5.06,5.06,0,0,1-4.4,4.81c-1.76.2-3.55.1-5.32.12-.24,0-.49,0-.81,0,0-.34,0-.64,0-.94C0,38.31,0,34.91.18,31.54a32.28,32.28,0,0,1,7.68-19C15,4.09,24.13-.22,35.19,0A34.26,34.26,0,0,1,68.44,29.06C68.74,30.92,68.8,32.81,69,34.73Z"/><path class="cls-1" d="M57,59.26l5.18.84-.6,2.25c-1,3.75-2,7.49-3,11.25-.16.63-.4.83-1,.82-4.58,0-9.16,0-13.74,0a1.26,1.26,0,0,0-1.18.55,5,5,0,0,1-4.22,2.11c-1.75,0-3.5,0-5.25,0a5.26,5.26,0,1,1,0-10.52c1.72,0,3.44,0,5.16,0a5.38,5.38,0,0,1,4.39,2.14,1.5,1.5,0,0,0,1,.48c3.27,0,6.55,0,9.82,0,.64,0,.85-.23,1-.8.75-2.9,1.54-5.79,2.32-8.68C56.87,59.52,56.95,59.32,57,59.26Z"/></svg>