<svg id="Layer_1" data-name="Layer 1" xmlns="http://www.w3.org/2000/svg" viewBox="0 0 93.93 70.7"><defs><style>.cls-1{fill:#606060;}</style></defs><title>Untitled-3</title><path class="cls-1" d="M93.43,58.58a11.5,11.5,0,0,1-1.49,5.59L62.6,31.34l29-25.39a11.53,11.53,0,0,1,1.81,6.17ZM47,37.3,87.35,2A11.46,11.46,0,0,0,81.81.5H12.12A11.42,11.42,0,0,0,6.58,2Zm11.26-2.14-9.35,8.19a2.91,2.91,0,0,1-3.82,0L35.7,35.16,6,68.41a11.48,11.48,0,0,0,6.13,1.79h69.7a11.47,11.47,0,0,0,6.13-1.79ZM2.31,5.95A11.53,11.53,0,0,0,.5,12.12V58.58A11.47,11.47,0,0,0,2,64.17L31.33,31.33Zm0,0"/></svg>