<svg id="Layer_1" data-name="Layer 1" xmlns="http://www.w3.org/2000/svg" viewBox="0 0 77.08 77.08"><defs><style>.cls-1{fill:#606060;}</style></defs><title>Untitled-3</title><path class="cls-1" d="M42,74.76C53.18,70.53,59,59.35,56.65,47,68.6,35.07,76.69,18.5,77.08,1.93A1.82,1.82,0,0,0,75.15,0C58.58.39,42,8.48,30.06,20,18.11,18.11,6.55,23.51,2.31,34.68a26.84,26.84,0,0,1,16.57-.77,42.12,42.12,0,0,0-3.08,5.78A1.82,1.82,0,0,0,16.19,42L35.46,61.28a1.72,1.72,0,0,0,1.93,0,24.57,24.57,0,0,0,5.4-3.08A26.84,26.84,0,0,1,42,74.76Zm2.7-42.39A7.63,7.63,0,0,1,55.5,21.58,7.63,7.63,0,0,1,44.7,32.37Z"/><path class="cls-1" d="M21.58,75.92l8.09-8.09a3.82,3.82,0,0,0-5.4-5.4l-8.09,8.09a3.82,3.82,0,0,0,5.4,5.4Z"/><path class="cls-1" d="M6.55,60.89l8.09-8.09a3.73,3.73,0,0,0,0-5.4,3.73,3.73,0,0,0-5.4,0L1.16,55.5a3.73,3.73,0,0,0,0,5.4A3.73,3.73,0,0,0,6.55,60.89Z"/><path class="cls-1" d="M10.79,71.3,22,60.12a3.82,3.82,0,0,0-5.4-5.4L5.4,65.9a3.73,3.73,0,0,0,0,5.4A3.73,3.73,0,0,0,10.79,71.3Z"/></svg>