<svg id="Layer_1" data-name="Layer 1" xmlns="http://www.w3.org/2000/svg" viewBox="0 0 205.92 126.2"><defs><style>.cls-1{fill:#fff;stroke:#fff;stroke-miterlimit:10;}.cls-2{fill:#f6921e;}</style></defs><title>Untitled-3</title><polygon class="cls-1" points="28.86 7.42 28.86 36.35 20.86 36.35 20.86 7.42 10.71 7.42 10.71 0.5 39.02 0.5 39.02 7.42 28.86 7.42 28.86 7.42"/><polygon class="cls-1" points="67.13 0.5 75.13 0.5 75.13 36.35 67.13 36.35 67.13 22.25 52.87 22.25 52.87 36.35 44.87 36.35 44.87 0.5 52.87 0.5 52.87 15.48 67.13 15.48 67.13 0.5 67.13 0.5"/><path class="cls-1" d="M98.67,11.17,94.15,21.58h9L98.67,11.17Zm10.82,25.18-3.33-7.74h-15l-3.33,7.74H79.28L94.77.5h7.74L118,36.35Z"/><polygon class="cls-1" points="147.24 0.5 155.24 0.5 155.24 36.35 147.24 36.35 130.16 13.89 130.16 36.35 122.16 36.35 122.16 0.5 129.65 0.5 147.24 23.58 147.24 0.5 147.24 0.5"/><path class="cls-1" d="M164.06.5h8V15.22L185.6.5h9.9L181.24,16.35q1.85,2.57,6.82,9.57t7.44,10.44h-9.33L175.65,22.2l-3.59,4V36.35h-8V.5Z"/><polygon class="cls-1" points="60.94 87.88 52.94 87.88 52.94 73.73 40.53 52.03 49.2 52.03 56.94 65.37 64.69 52.03 73.36 52.03 60.94 73.73 60.94 87.88 60.94 87.88"/><path class="cls-1" d="M103.36,69.75a11.73,11.73,0,0,0-3.08-8.18,10.15,10.15,0,0,0-15.13,0,12.38,12.38,0,0,0,0,16.34,10.2,10.2,0,0,0,15.13,0,11.64,11.64,0,0,0,3.08-8.16Zm2.72,13.18a19.53,19.53,0,0,1-26.77,0,17.71,17.71,0,0,1-5.44-13.21A17.71,17.71,0,0,1,79.3,56.52a19.53,19.53,0,0,1,26.77,0,17.71,17.71,0,0,1,5.44,13.21,17.71,17.71,0,0,1-5.44,13.21Z"/><path class="cls-1" d="M126.74,78.62a6.55,6.55,0,0,0,5.39,2.49,6.48,6.48,0,0,0,5.36-2.49,10.65,10.65,0,0,0,2-6.8V52h8V72.08q0,7.8-4.31,12a16.63,16.63,0,0,1-22.08,0q-4.33-4.2-4.33-12V52h8v19.8a10.55,10.55,0,0,0,2,6.8Z"/><path class="cls-1" d="M158.15,84.25a3.78,3.78,0,0,1,3.74-3.77,3.75,3.75,0,1,1,0,7.49A3.77,3.77,0,0,1,158.15,84.25Zm1.3-7.82-1-25h6.94l-1,25Z"/><path class="cls-2" d="M99.75,126.2c-28.68,0-52.89-8.52-68.75-16.1C12,101,.49,91.21.38,91.11a1.08,1.08,0,0,1,1.41-1.64c.11.1,11.4,9.72,30.22,18.7,17.34,8.28,44.8,17.69,77.16,15.55a166.76,166.76,0,0,0,31-4.9c16.61-4.1,41.21-12.52,64.07-29.39a1.08,1.08,0,0,1,1.28,1.74c-23.16,17.1-48.07,25.63-64.89,29.77a168.84,168.84,0,0,1-31.32,4.95Q104.44,126.2,99.75,126.2Z"/></svg>