<?xml version="1.0" encoding="utf-8"?>
<!-- Generator: Adobe Illustrator 21.0.0, SVG Export Plug-In . SVG Version: 6.00 Build 0)  -->
<svg version="1.1" id="Layer_1" xmlns="http://www.w3.org/2000/svg" xmlns:xlink="http://www.w3.org/1999/xlink" x="0px" y="0px"
	 viewBox="0 0 100 100" style="enable-background:new 0 0 100 100;" xml:space="preserve">
<style type="text/css">
	.st0{fill:#FFFFFF;}
	.st1{fill:#6D6E71;}
</style>
<g>
	<g>
		<g>
			<path class="st0" d="M50,100L50,100C22.5,100,0,77.5,0,50v0C0,22.5,22.5,0,50,0h0c27.5,0,50,22.5,50,50v0
				C100,77.5,77.5,100,50,100z"/>
		</g>
		<g>
			<path class="st1" d="M60.2,33c1.2,1.2,2.5,2.5,3.7,3.7c-0.8-0.2-1.7-0.5-2.6-0.7c-0.3-0.1-0.4-0.2-0.5-0.5
				C60.6,34.7,60.4,33.8,60.2,33z"/>
			<g>
				<path class="st1" d="M65.1,38.7c0-0.7-0.2-0.9-0.8-1c-1.1-0.2-2.1-0.5-3.2-0.8c-0.6-0.1-0.9-0.4-1-1c-0.2-1.1-0.6-2.2-0.8-3.3
					c-0.1-0.6-0.4-0.8-1-0.7c-7.5,0-15,0-22.5,0c-0.7,0-0.9,0.2-0.9,0.9c0,6.1,0,12.3,0,18.4c0,6.1,0,12.3,0,18.4c0,0.7,0.1,1,0.9,1
					c9.5,0,18.9,0,28.4,0c0.7,0,0.8-0.2,0.8-0.9c0-6,0-11.9,0-17.9C65.1,47.4,65,43,65.1,38.7z M37.9,38.4c2,0,14.9,0,16.9,0
					c2,0,3.9,0,5.9,0c0.5,0,0.8,0.1,0.7,0.7c0,0.5,0,0.8-0.7,0.8c-4,0-18.8,0-22.8,0c-0.5,0-0.8-0.1-0.7-0.7
					C37.2,38.7,37.2,38.4,37.9,38.4z M61.4,46.1c0,0.7-0.2,0.8-0.8,0.8c-3.7,0-7.5,0-11.2,0c-3.7,0-7.4,0-11.1,0
					c-0.5,0-0.9,0-0.9-0.7c0-0.7,0.3-0.8,0.9-0.8c7.5,0,15,0,22.4,0C61.2,45.4,61.4,45.5,61.4,46.1z M37.9,41.9c2,0,14.9,0,16.9,0
					c1.9,0,3.9,0,5.8,0c0.6,0,0.8,0.1,0.8,0.7c0,0.6-0.1,0.8-0.8,0.8c-3.9,0-18.8,0-22.7,0c-0.6,0-0.8-0.2-0.8-0.8
					C37.1,42,37.4,41.9,37.9,41.9z M38.1,48.9c7.5,0,15.1,0,22.6,0c0.6,0,0.8,0.2,0.8,0.8c0,0.6-0.2,0.7-0.7,0.7
					c-3.8,0-7.6,0-11.4,0c-3.7,0-7.5,0-11.2,0c-0.6,0-0.8-0.1-0.8-0.7C37.3,49.1,37.5,48.9,38.1,48.9z M38.1,52.5
					c3.8,0,7.5,0,11.3,0c3.8,0,7.5,0,11.3,0c0.6,0,0.8,0.1,0.8,0.8c0,0.6-0.2,0.8-0.8,0.8c-7.5,0-15.1,0-22.6,0
					c-0.7,0-0.7-0.3-0.7-0.8C37.3,52.6,37.5,52.5,38.1,52.5z M38.1,56c3.8,0,7.6,0,11.4,0c3.7,0,7.5,0,11.2,0c0.6,0,0.8,0.1,0.8,0.8
					c0,0.6-0.2,0.7-0.8,0.7c-7.6,0-15.1,0-22.7,0c-0.6,0-0.7-0.2-0.7-0.7C37.3,56.2,37.5,56,38.1,56z M60.8,68.2c-7.5,0-15,0-22.5,0
					c-0.6,0-0.9-0.1-0.9-0.8c0-0.7,0.3-0.7,0.8-0.7c3.7,0,7.5,0,11.2,0c3.8,0,7.5,0,11.3,0c0.6,0,0.8,0.1,0.8,0.8
					C61.6,68.1,61.3,68.2,60.8,68.2z M60.7,64.5c-3.7,0-7.5,0-11.2,0c-3.7,0-7.4,0-11.1,0c-0.5,0-0.8,0-0.8-0.7
					c0-0.7,0.4-0.7,0.9-0.7c7.4,0,14.9,0,22.3,0c0.4,0,0.9-0.2,0.9,0.6C61.6,64.6,61.2,64.5,60.7,64.5z M61.5,60.8
					C61.4,61.2,61,61,60.7,61c-3.8,0-7.5,0-11.3,0c-3.7,0-7.5,0-11.2,0c-0.6,0-0.9-0.1-0.9-0.8c0-0.8,0.4-0.7,0.9-0.7
					c7.5,0,14.9,0,22.4,0C61.5,59.6,61.8,60,61.5,60.8z"/>
			</g>
		</g>
	</g>
</g>
</svg>
