<?xml version="1.0" encoding="utf-8"?>
<!-- Generator: Adobe Illustrator 21.1.0, SVG Export Plug-In . SVG Version: 6.00 Build 0)  -->
<svg version="1.1" id="Layer_1" xmlns="http://www.w3.org/2000/svg" xmlns:xlink="http://www.w3.org/1999/xlink" x="0px" y="0px"
	 viewBox="0 0 47 47.2" style="enable-background:new 0 0 47 47.2;" xml:space="preserve">
<style type="text/css">
	.st0{fill:#919396;}
</style>
<g>
	<path class="st0" d="M47,0c0,20.6,0,26.6,0,47.2c-12,0-34.9,0-47,0C0,26.6,0,20.7,0,0C12,0,34.9,0,47,0z M2.6,2.5
		c0,19,0,23.2,0,42.1c10.4,0,31.5,0,41.7,0c0-18.9,0-23.2,0-42.1C34.1,2.5,12.9,2.5,2.6,2.5z"/>
	<path class="st0" d="M39.8,29.7c0,0.8,0,1.6,0,2.4c-10.9,0-21.6,0-32.5,0c0-0.8,0-1.5,0-2.4C18,29.7,28.7,29.7,39.8,29.7z"/>
	<path class="st0" d="M36.1,6.4c0,0.9,0,1.6,0,2.4c-8.4,0-16.8,0-25.2,0c0-0.8,0-1.6,0-2.4C19.2,6.4,27.6,6.4,36.1,6.4z"/>
	<g>
		<path class="st0" d="M26.3,14.8c-1.8,1.7-3.6,3.3-5.6,5c1.7,1.6,3.2,3,4.7,4.3c-2,2.2-6.2,2-8.4-0.4c-2.5-2.5-2.5-6.5-0.1-9.1
			C19.3,12.2,23.2,12.1,26.3,14.8z"/>
		<path class="st0" d="M29.2,24.3c-1.4-1.4-2.9-2.9-4.4-4.3c1.8-1.7,3.6-3.3,5.4-5C32.7,16.6,32.5,22.5,29.2,24.3z"/>
	</g>
	<g>
		<path class="st0" d="M11.9,41.1c0-1.7,0-3.2,0-4.9c1.7,0,3.3,0,5,0c0,1.6,0,3.2,0,4.9C15.3,41.1,13.6,41.1,11.9,41.1z"/>
		<path class="st0" d="M26,36.1c0,1.7,0,3.2,0,5c-1.6,0-3.2,0-5,0c0-1.6,0-3.2,0-5C22.7,36.1,24.3,36.1,26,36.1z"/>
		<path class="st0" d="M30.1,36.1c1.7,0,3.3,0,5,0c0,1.7,0,3.3,0,5c-1.6,0-3.2,0-5,0C30.1,39.5,30.1,37.9,30.1,36.1z"/>
	</g>
</g>
</svg>
