<?xml version="1.0" encoding="utf-8"?>
<!-- Generator: Adobe Illustrator 21.1.0, SVG Export Plug-In . SVG Version: 6.00 Build 0)  -->
<svg version="1.1" id="Layer_1" xmlns="http://www.w3.org/2000/svg" xmlns:xlink="http://www.w3.org/1999/xlink" x="0px" y="0px"
	 viewBox="0 0 47 38.3" style="enable-background:new 0 0 47 38.3;" xml:space="preserve">
<style type="text/css">
	.st0{fill:#919396;}
</style>
<g>
	<g>
		<g>
			<g>
				<g>
					<g>
						<path class="st0" d="M29.8,38.2c0-0.7-0.7-1.3-0.7-2.1c-8.9,0-17.6,0-26.5,0c0-8.1,0-19.1,0-27.1c13.8,0,27.5,0,41.4,0
							c0,8,0,27.1,0,27.1l-14.9,0v2.1c0,0,14.9,0.1,16.9,0c0.9-0.1,1-1,1-1.9c0-3.8,0-10.6,0-14.3c0-6.6,0-13.1,0-19.7
							c0-2-0.3-2.3-2.2-2.3C30.6,0,16.4,0,2.2,0C0.3,0,0,0.3,0,2.3c0,10.3,0,23.5,0,33.8c0,1.7,0.5,2.2,2.1,2.2c8.8,0,17.6,0,26.4,0
							C28.7,38.3,29.6,38.3,29.8,38.2z M2.6,4.7c13.9,0,27.7,0,41.4,0c0,0.9,0,1.7,0,2.5c-13.9,0-27.6,0-41.4,0
							C2.6,6.3,2.6,5.5,2.6,4.7z M4.6,2.3c0,0.6-0.5,1-1,1s-1-0.5-1-1s0.5-1,1-1S4.6,1.7,4.6,2.3z M7.5,2.3c0,0.6-0.5,1-1,1
							s-1-0.5-1-1s0.5-1,1-1S7.5,1.7,7.5,2.3z M10.3,2.3c0,0.6-0.5,1-1,1c-0.6,0-1-0.5-1-1s0.5-1,1-1C9.9,1.2,10.3,1.7,10.3,2.3z"/>
						<path class="st0" d="M18.1,23.2c0,1.6,0,3.3,0,4.9c0,1.3,0.5,1.6,1.6,0.9c3-1.7,6-3.4,8.9-5.1c1.1-0.7,1.1-1.2,0-1.8
							c-2.9-1.7-5.9-3.4-8.8-5c-1.2-0.7-1.7-0.4-1.7,1C18.1,19.8,18.1,21.5,18.1,23.2z"/>
					</g>
				</g>
			</g>
		</g>
	</g>
</g>
</svg>
