<?xml version="1.0" encoding="utf-8"?>
<!-- Generator: Adobe Illustrator 21.0.0, SVG Export Plug-In . SVG Version: 6.00 Build 0)  -->
<svg version="1.1" id="Layer_1" xmlns="http://www.w3.org/2000/svg" xmlns:xlink="http://www.w3.org/1999/xlink" x="0px" y="0px"
	 viewBox="0 0 100 100" style="enable-background:new 0 0 100 100;" xml:space="preserve">
<style type="text/css">
	.st0{fill:#ED8B00;}
	.st1{fill:none;}
	.st2{fill:#FFFFFF;}
</style>
<g>
	<circle class="st0" cx="50" cy="50" r="49.5"/>
	<g>
		<g>
			<path class="st1" d="M56.7,42c3.8,0,7.5,0,11.3,0c-3.8-3.8-7.5-7.5-11.3-11.2C56.7,34.5,56.7,38.2,56.7,42z"/>
			<path class="st1" d="M37.3,53.1c-0.1,0.2,0.1,0.3,0.3,0.4c0.2,0.2,0.4,0.3,0.6,0.4c0-0.2,0-0.4,0-0.6c-0.1-0.1-0.3-0.1-0.4-0.2
				C37.7,53.1,37.5,52.9,37.3,53.1z"/>
			<path class="st1" d="M36.8,57.4c-0.4,0.3-0.7,0.3-1.1-0.1c-0.5-0.5-1-1-1.6-1.3c-0.2-0.1-0.4-0.2-0.5,0c-0.1,0.2,0.2,0.3,0.3,0.4
				c0.5,0.2,0.9,0.6,1.2,1c0.1,0.2,0.3,0.3,0.2,0.6c-0.1,0.2-0.3,0.3-0.6,0.3c-0.4,0-0.8,0.1-1.2,0.2c-0.7,0.1-1.4,0.3-2,0.7
				c-0.2,0.1-0.4,0.2-0.4,0.5c0.2,0.1,0.4,0,0.6-0.2c0.7-0.5,1.5-0.7,2.4-0.7c1.8-0.1,3.3-0.8,4.1-2.3c0-0.3,0-0.6,0-0.9
				c-0.1,0.3-0.3,0.6-0.5,0.8C37.4,56.8,37.1,57.1,36.8,57.4z"/>
			<path class="st2" d="M38.5,54.5c0-0.2-0.1-0.4-0.3-0.5c0,0.6,0,1.1,0,1.7C38.3,55.3,38.4,54.9,38.5,54.5z"/>
			<g>
				<path class="st1" d="M56.7,42c3.8,0,7.5,0,11.3,0c-3.8-3.8-7.5-7.5-11.3-11.2C56.7,34.5,56.7,38.2,56.7,42z"/>
				<path class="st2" d="M70.9,39.6c-2-2-4.1-4-6.1-6c-1.9-1.9-3.8-3.8-5.8-5.7c-0.1-0.1-0.4-0.3-0.6-0.3c-5.3,0-10.6,0-15.9,0
					c-0.4,0-0.8,0-1.2,0.1c-1.9,0.5-3.1,2.1-3.1,4.1c0,5,0,10,0,15c0.8-0.2,1.6-0.3,2.4-0.2c0,0,0.2,0,0.4,0.1
					c0.8,0.3,1.5,0.2,2.6-0.1c1.6-0.5,3.3-0.2,4.9,0.8c0.3,0.2,0.6,0.3,0.9,0.3c2.3-0.1,4.3,0.9,5.7,2.9c0.2,0.2,0.4,0.4,0.7,0.6
					c2.4,1.3,3.6,3.4,3.5,6c0,0.4,0.1,0.8,0.2,1.2c0.1,0.4,0.2,0.7,0.2,1.1l0,0.2c0,0.2,0.1,0.4,0.1,0.6v2c0,1.2-0.3,2-0.8,2.8
					c-0.1,0.2-0.2,0.4-0.3,0.8c-0.2,1.1-0.8,2.1-1.5,2.9c3.2,0,6.4,0,9.6,0c2.6,0,4.3-1.7,4.3-4.3c0-8,0-16,0-24.1
					C71.1,40,71.1,39.8,70.9,39.6z M56.7,42c0-3.7,0-7.4,0-11.2c3.8,3.7,7.5,7.5,11.3,11.2C64.2,42,60.5,42,56.7,42z"/>
				<path class="st2" d="M31.2,53.2c-0.4,0.9-1,1.6-1.9,2.2c-0.9,0.7-1.3,1.4-1.4,2.3c0,0.3,0,0.6-0.1,0.9v0.8
					c0.1,0.3,0.1,0.5,0.1,0.8l0,0.2c0.1,0.5,0.2,0.9,0.5,1.3c1.2,1.7,3.5,2.4,5.5,1.6c0.5-0.2,1.2-0.4,2.1,0
					c0.7,0.3,1.4,0.4,2.1,0.4c0.6,0,1.1-0.1,1.7-0.4c0.7-0.3,1.4-0.2,1.9,0.2c0.3,0.2,0.7,0.4,1.1,0.7c0.3,0.2,0.6,0.3,0.9,0.5
					c1.5,0.9,2.4,2.3,2.6,4.1c0,0.2,0,0.4,0.1,0.7c0,1,0,2,0,3.1c0,0.4,0,0.9,0,1.3c0,0.2,0,0.4,0,0.6c0.2,0,0.4,0,0.6,0
					c0-0.9,0-1.8,0-2.8v-1.8c0-0.4,0-0.7,0.1-1.1c0.2-2.3,1.2-3.9,3-4.9c0.4-0.3,0.8-0.7,1-1.2c-0.3,0-0.7,0-1.1,0
					c-0.3,0.1-0.7,0.2-1.1-0.1c-0.2-0.2-0.4-0.4-0.5-0.7c-0.1-0.3,0-0.6,0.2-0.9c0.3-0.4,0.8-0.5,1-0.5l0.2,0c0.5-0.1,1-0.1,1.6-0.1
					c-0.4-1.5-1.5-2.5-3-2.7c-0.8-0.1-1.6-0.2-2.4-0.4c-0.6,1-0.7,2-0.4,3.1c0.1,0.2,0.2,0.5,0.4,0.7l0.1,0.2c0.5,0.9,0,1.4-0.3,1.7
					c-0.2,0.1-0.9,0.4-1.6-0.4c-0.4-0.5-0.7-1-0.9-1.7l-0.1-0.2c0-0.1-0.1-0.2-0.1-0.3c-0.1,0-0.3,0-0.5,0h-0.1
					c-0.2,0-0.3,0-0.6,0.1l-0.2,0c-0.2,0-0.3,0.1-0.5,0.1c-0.8,0.1-1.1-0.5-1.2-0.7c-0.1-0.1-0.3-0.8,0.5-1.4
					c0.3-0.2,0.7-0.3,0.9-0.4c0.5-0.1,1.1-0.2,1.8-0.2c0.1-0.7,0.4-1.3,0.8-1.9c0-0.1,0-0.1,0-0.1c-0.3-0.3-0.6-0.6-0.9-1.1
					c-1,0.5-2.1,0.8-3.3,0.7c-0.1,0-0.1,0-0.1,0c0,0,0,0.1,0,0.1c-0.2,0.5-0.4,1-0.7,1.5c-1,1.6-2.8,2.6-4.9,2.7
					c-0.7,0-1.4,0.2-2,0.6c-0.5,0.4-1,0.4-1.5,0.2l-0.4-0.2l-0.1-0.5c-0.1-0.8,0.5-1.2,0.7-1.4c0.8-0.5,1.6-0.8,2.5-0.9
					c0.1,0,0.3,0,0.4-0.1c-0.1-0.1-0.2-0.2-0.4-0.2c-1.2-0.6-0.9-1.4-0.8-1.6c0.1-0.3,0.4-0.5,0.7-0.6c0.5-0.2,0.9,0.1,1.1,0.2
					c0.7,0.4,1.3,0.8,1.8,1.4c0.3-0.2,0.5-0.4,0.7-0.7c0.1-0.2,0.2-0.3,0.3-0.5v-1c-0.1-0.1-0.2-0.2-0.3-0.3
					c-0.9-0.7-0.5-1.4-0.4-1.6c0.2-0.3,0.4-0.5,0.7-0.5c0.5-0.1,0.9,0.2,1,0.3c0.1,0.1,0.1,0.1,0.2,0.1l0.1,0.1
					c0.6,0.3,1.4,0.5,2.2,0.4c0.5,0,0.9-0.2,1.4-0.5c0.1,0,0.1-0.1,0.2-0.4c0-0.6,0.4-1,1-1.1c0.2,0,0.9,0,1.2,0.8
					c0.1,0.2,0.1,0.3,0.1,0.4c0.4,1.4,1.1,2.3,2.4,2.7c0,0,0,0,0,0c0,0,0,0,0,0c0.3-0.9,0.6-1.6,1.1-2.2c0.1-0.1,0.4-0.5,0.9-0.5
					c0.3,0,0.6,0.1,0.8,0.3c0.1,0.1,0.7,0.7,0.2,1.5l-0.1,0.2c-0.2,0.4-0.4,0.7-0.5,1c0,0,0,0,0,0c0,0,0,0,0,0c1.3,0.4,2.3,1,3.2,2
					c0.2,0.2,0.3,0.4,0.4,0.5c0.2,0,0.5-0.2,0.6-0.3c0.2-0.1,0.3-0.2,0.4-0.3l0.1-0.1c0.2-0.1,0.3-0.2,0.4-0.3
					c0.8-0.4,1.3,0,1.5,0.2c0.1,0.1,0.7,0.8-0.1,1.6c-0.2,0.3-0.5,0.5-0.9,0.7c-0.4,0.2-0.8,0.4-1.3,0.6c0.2,1.4,0,2.5-0.4,3.5
					l0.2,0.1c0.1,0.1,0.3,0.2,0.4,0.3c0.4,0.3,0.8,0.7,1.1,1.2c0.6,0.9-0.1,1.5-0.2,1.6c-0.2,0.1-0.8,0.5-1.5-0.1
					c-0.3-0.2-0.5-0.5-0.8-0.8c-0.2-0.2-0.4-0.3-0.7-0.4c-0.1,0.1-0.3,0.2-0.4,0.3c-0.5,0.3-1,0.7-1.3,1.1c-0.4,0.5-0.6,1.1-0.6,2.1
					l0,0.1c0,0.1,0,0.1,0,0.2c0,1.2,0,2.4,0,3.6l0,0.9l0,0.4c0,0.1,0,0.2,0,0.3c0.1,0,0.3,0,0.4,0l0.4,0c0,0,0,0,0.1,0c0,0,0,0,0,0
					c0.6-2.6,2-4.6,4.3-5.9c0.2-0.1,0.4-0.2,0.5-0.3c0.9-0.6,1.4-1.5,1.7-2.5c0.1-0.4,0.2-1,0.6-1.5c0.3-0.4,0.5-0.9,0.5-1.7v-2
					c0-0.1,0-0.2,0-0.3l0-0.2c0,0,0,0,0,0c0-0.3-0.1-0.6-0.2-0.9c-0.1-0.5-0.3-1.1-0.3-1.8c0.1-1.9-0.7-3.3-2.5-4.3
					c-0.5-0.3-1-0.7-1.3-1.1c-1.1-1.5-2.4-2.2-4.1-2.1c-0.7,0-1.3-0.1-2-0.5c-1.2-0.7-2.4-0.9-3.4-0.6c-1.1,0.4-2.4,0.6-3.7,0.1
					l-0.1,0c-0.7-0.1-1.3,0-1.9,0.2c-0.7,0.2-1.4,0.6-2,1.2c-0.5,0.5-1.1,0.8-1.7,0.8C33.1,50.9,31.9,51.7,31.2,53.2z"/>
				<path class="st2" d="M34.7,49.8c-1.9,0.2-3.4,1.2-4.3,2.9c-0.4,0.8-0.9,1.4-1.6,1.9c-1,0.7-1.7,1.7-1.7,3c0,0.2,0,0.5-0.1,0.7
					c0,0.4,0,0.7,0,1.1c0.1,0.3,0.1,0.6,0.1,1c0.1,0.6,0.3,1.2,0.6,1.7c1.5,2.1,4.2,2.9,6.6,1.9c0.5-0.2,0.9-0.2,1.4,0
					c0.8,0.3,1.6,0.5,2.4,0.5c0.7,0,1.4-0.2,2-0.5c0.3-0.2,0.7-0.2,1,0.1c0.6,0.5,1.4,0.8,2,1.2c1.3,0.8,2,2,2.2,3.4
					c0,0.2,0,0.4,0,0.6c0,1.5,0,2.9,0,4.4c0,1.6,0,1.6,1.6,1.5c0.8,0,0.9-0.1,0.9-0.9c0-1.5,0-3,0-4.6c0-0.3,0-0.7,0.1-1
					c0.2-1.7,0.8-3.2,2.6-4.2c0.7-0.4,1.2-1,1.5-1.7c0.3-0.7,0.1-1.1-0.7-1.2c-0.5,0-1-0.1-1.5,0.1c-0.2,0-0.4,0.1-0.5-0.1
					c-0.1-0.3,0.3-0.3,0.4-0.3c0.6-0.1,1.1-0.2,1.7-0.1c0.7,0.1,1-0.1,0.8-0.9c-0.4-2-1.9-3.4-3.9-3.7c-0.8-0.1-1.5-0.2-2.3-0.4
					c-0.5-0.2-0.8,0-1.1,0.4c-0.8,1.2-0.9,2.5-0.4,3.9c0.1,0.4,0.4,0.7,0.6,1.1c0.1,0.1,0.2,0.3,0,0.4c-0.2,0.1-0.3-0.1-0.4-0.2
					c-0.3-0.4-0.5-0.9-0.7-1.4c-0.4-1.3-0.3-1.2-1.7-1.2c-0.3,0-0.6,0.1-0.9,0.1c-0.1,0-0.3,0.1-0.4,0.1c-0.1,0-0.2,0-0.3-0.1
					c0-0.1,0.1-0.2,0.1-0.3c0.2-0.1,0.4-0.2,0.6-0.2c0.5-0.1,1.1-0.2,1.6-0.2c0.5,0,0.7-0.2,0.8-0.7c0.1-0.6,0.3-1.2,0.7-1.7
					c0.3-0.4,0.2-0.9-0.1-1.2c-0.3-0.3-0.6-0.7-0.8-1c-0.3-0.5-0.6-0.5-1-0.3c-0.9,0.5-1.9,0.7-2.9,0.7c-0.8,0-0.9,0-1.1,0.8
					c-0.1,0.5-0.4,0.9-0.6,1.3c-0.9,1.4-2.4,2.2-4.1,2.3c-0.9,0-1.7,0.3-2.4,0.7c-0.2,0.1-0.3,0.3-0.6,0.2c0-0.3,0.2-0.4,0.4-0.5
					c0.6-0.4,1.3-0.7,2-0.7c0.4,0,0.8-0.1,1.2-0.2c0.2,0,0.5-0.1,0.6-0.3c0.1-0.3-0.1-0.4-0.2-0.6c-0.3-0.4-0.7-0.7-1.2-1
					c-0.2-0.1-0.4-0.2-0.3-0.4c0.1-0.3,0.4-0.1,0.5,0c0.6,0.3,1.2,0.8,1.6,1.3c0.4,0.4,0.7,0.4,1.1,0.1c0.3-0.3,0.7-0.6,0.9-0.9
					c0.2-0.3,0.4-0.5,0.5-0.8c0-0.6,0-1.1,0-1.7c-0.2-0.2-0.4-0.3-0.6-0.4c-0.1-0.1-0.4-0.3-0.3-0.4c0.1-0.2,0.3,0,0.5,0.1
					c0.1,0.1,0.3,0.1,0.4,0.2c0.8,0.4,1.7,0.6,2.7,0.5c0.7,0,1.3-0.3,1.9-0.7c0.4-0.3,0.5-0.7,0.6-1.1c0-0.1,0.1-0.2,0.2-0.2
					c0.2,0,0.2,0.1,0.2,0.2c0,0.1,0,0.2,0.1,0.4c0.4,1.6,1.4,2.8,3,3.3c0.9,0.3,1,0.2,1.2-0.7c0.2-0.7,0.5-1.3,0.9-1.8
					c0.1-0.1,0.2-0.3,0.4-0.1c0.1,0.1,0,0.2,0,0.3C49,54,48.7,54.5,48.5,55c-0.2,0.8-0.1,1,0.7,1.2c1.1,0.3,2,0.9,2.7,1.7
					c0.8,1,1,1,2.2,0.4c0.2-0.1,0.4-0.3,0.6-0.4c0.1-0.1,0.2-0.2,0.3-0.2c0.1-0.1,0.2-0.1,0.3,0c0.1,0.1,0,0.2-0.1,0.3
					c-0.2,0.2-0.4,0.4-0.6,0.5c-0.4,0.2-0.8,0.4-1.2,0.6c-0.4,0.2-0.6,0.4-0.6,1c0.1,1.1,0.1,2.2-0.4,3.2c-0.2,0.4-0.1,0.6,0.2,0.9
					c0.3,0.2,0.5,0.4,0.8,0.5c0.3,0.2,0.6,0.6,0.8,0.9c0.1,0.1,0.1,0.2,0,0.3c-0.1,0.1-0.2,0-0.3-0.1c-0.3-0.2-0.5-0.5-0.7-0.7
					c-0.3-0.3-0.7-0.5-1-0.7c-0.2-0.1-0.5-0.2-0.7,0c-0.7,0.6-1.5,1-2.1,1.7c-0.6,0.8-0.8,1.6-0.8,2.6c0,0.1,0,0.3,0,0.4
					c0,1.5,0,3,0,4.4c0,1.8-0.2,1.6,1.7,1.7c0.6,0,0.9-0.2,1-0.8c0.5-2.3,1.8-4.1,3.9-5.3c0.2-0.1,0.4-0.3,0.6-0.4
					c1-0.7,1.7-1.8,2-3.1c0.1-0.4,0.2-0.8,0.5-1.1c0.5-0.7,0.6-1.4,0.7-2.2c0-0.7,0-1.3,0-2c0-0.2,0-0.5-0.1-0.7
					c-0.1-0.8-0.5-1.6-0.5-2.5c0.1-2.3-1-4-3-5.1c-0.4-0.2-0.7-0.5-1-0.9c-1.2-1.7-2.8-2.6-4.9-2.5c-0.5,0-1-0.1-1.5-0.4
					c-1.3-0.8-2.7-1.1-4.2-0.7c-1.1,0.3-2.1,0.5-3.2,0.1c-0.1,0-0.1,0-0.2,0c-0.8-0.1-1.6,0-2.3,0.2c-0.8,0.3-1.6,0.7-2.3,1.4
					C35.5,49.5,35.2,49.7,34.7,49.8z M44.2,52.2L44.2,52.2L44.2,52.2z M38.5,48.7c0.6-0.2,1.2-0.3,1.9-0.2l0.1,0
					c1.3,0.5,2.5,0.2,3.7-0.1c1.1-0.3,2.2-0.1,3.4,0.6c0.7,0.4,1.3,0.6,2,0.5c1.7-0.1,3,0.6,4.1,2.1c0.3,0.5,0.7,0.8,1.3,1.1
					c1.8,1,2.6,2.4,2.5,4.3c0,0.7,0.1,1.3,0.3,1.8c0.1,0.3,0.2,0.6,0.2,0.9c0,0,0,0,0,0l0,0.2c0,0.1,0,0.2,0,0.3v2
					c0,0.7-0.2,1.3-0.5,1.7c-0.4,0.5-0.6,1.1-0.6,1.5c-0.2,1-0.8,1.9-1.7,2.5c-0.2,0.1-0.3,0.2-0.5,0.3c-2.3,1.3-3.8,3.3-4.3,5.9
					c0,0,0,0,0,0c0,0,0,0-0.1,0l-0.4,0c-0.1,0-0.3,0-0.4,0c0-0.1,0-0.2,0-0.3l0-0.4l0-0.9c0-1.2,0-2.4,0-3.6c0-0.1,0-0.1,0-0.2
					l0-0.1c0.1-0.9,0.3-1.5,0.6-2.1c0.3-0.4,0.8-0.7,1.3-1.1c0.1-0.1,0.3-0.2,0.4-0.3c0.3,0.1,0.5,0.3,0.7,0.4
					c0.3,0.3,0.5,0.5,0.8,0.8c0.7,0.6,1.3,0.2,1.5,0.1c0.1-0.1,0.8-0.6,0.2-1.6c-0.3-0.5-0.7-0.9-1.1-1.2c-0.1-0.1-0.3-0.2-0.4-0.3
					l-0.2-0.1c0.5-1,0.6-2.1,0.4-3.5c0.4-0.2,0.8-0.4,1.3-0.6c0.4-0.2,0.7-0.4,0.9-0.7c0.7-0.8,0.2-1.5,0.1-1.6
					c-0.1-0.2-0.6-0.6-1.5-0.2c-0.1,0.1-0.2,0.1-0.4,0.3l-0.1,0.1c-0.1,0.1-0.3,0.2-0.4,0.3c-0.1,0.1-0.4,0.2-0.6,0.3
					c-0.1-0.1-0.2-0.2-0.4-0.5c-0.8-1-1.9-1.7-3.2-2c0,0,0,0,0,0c0,0,0,0,0,0c0.1-0.3,0.3-0.7,0.5-1l0.1-0.2c0.5-0.9,0-1.4-0.2-1.5
					c-0.2-0.2-0.5-0.3-0.8-0.3c-0.5,0-0.8,0.4-0.9,0.5c-0.5,0.6-0.8,1.3-1.1,2.2c0,0,0,0,0,0c0,0,0,0,0,0c-1.2-0.4-2-1.3-2.4-2.7
					c0-0.1,0-0.2-0.1-0.4c-0.3-0.9-1-0.9-1.2-0.8c-0.5,0.1-1,0.5-1,1.1c0,0.3-0.1,0.4-0.2,0.4c-0.5,0.3-0.9,0.5-1.4,0.5
					c-0.8,0.1-1.6-0.1-2.2-0.4l-0.1-0.1c-0.1,0-0.1-0.1-0.2-0.1c-0.2-0.1-0.5-0.4-1-0.3c-0.3,0.1-0.6,0.2-0.7,0.5
					c-0.1,0.2-0.5,0.9,0.4,1.6c0.1,0.1,0.2,0.2,0.3,0.3v1c-0.1,0.2-0.2,0.3-0.3,0.5c-0.2,0.2-0.4,0.4-0.7,0.7
					c-0.5-0.6-1.1-1-1.8-1.4c-0.2-0.1-0.6-0.3-1.1-0.2c-0.3,0.1-0.5,0.3-0.7,0.6c-0.1,0.2-0.4,1,0.8,1.6c0.1,0.1,0.2,0.1,0.4,0.2
					c-0.1,0-0.3,0-0.4,0.1c-0.9,0.1-1.8,0.4-2.5,0.9c-0.2,0.1-0.8,0.5-0.7,1.4l0.1,0.5l0.4,0.2c0.5,0.2,1,0.2,1.5-0.2
					c0.6-0.4,1.2-0.6,2-0.6c2.1-0.1,3.9-1.1,4.9-2.7c0.3-0.5,0.5-1,0.7-1.5c0,0,0-0.1,0-0.1c0,0,0.1,0,0.1,0c1.2,0,2.3-0.2,3.3-0.7
					c0.3,0.4,0.6,0.8,0.9,1.1c0,0,0,0,0,0.1c-0.4,0.6-0.6,1.2-0.8,1.9c-0.6,0-1.2,0.1-1.8,0.2c-0.2,0.1-0.6,0.1-0.9,0.4
					c-0.8,0.5-0.5,1.2-0.5,1.4c0.1,0.2,0.4,0.7,1.2,0.7c0.2,0,0.3,0,0.5-0.1l0.2,0c0.2,0,0.4-0.1,0.6-0.1h0.1c0.2,0,0.4,0,0.5,0
					c0,0.1,0.1,0.2,0.1,0.3l0.1,0.2c0.2,0.7,0.5,1.3,0.9,1.7c0.7,0.8,1.4,0.5,1.6,0.4c0.4-0.2,0.8-0.8,0.3-1.7L46,60.8
					c-0.1-0.2-0.3-0.5-0.4-0.7c-0.4-1.1-0.3-2.1,0.4-3.1c0.8,0.3,1.6,0.4,2.4,0.4c1.5,0.2,2.7,1.2,3,2.7c-0.6,0-1.1,0-1.6,0.1
					l-0.2,0c-0.2,0-0.7,0.1-1,0.5c-0.2,0.3-0.2,0.6-0.2,0.9c0.1,0.3,0.2,0.6,0.5,0.7c0.4,0.3,0.9,0.2,1.1,0.1c0.4-0.1,0.7-0.1,1.1,0
					c-0.2,0.5-0.6,0.9-1,1.2c-1.8,1.1-2.8,2.7-3,4.9c0,0.4-0.1,0.7-0.1,1.1v1.8c0,0.9,0,1.9,0,2.8c-0.2,0-0.4,0-0.6,0
					c0-0.2,0-0.4,0-0.6c0-0.4,0-0.9,0-1.3c0-1,0-2,0-3.1c0-0.2,0-0.4-0.1-0.7c-0.2-1.7-1.1-3.1-2.6-4.1c-0.3-0.2-0.6-0.3-0.9-0.5
					c-0.4-0.2-0.8-0.4-1.1-0.7c-0.6-0.4-1.3-0.5-1.9-0.2c-0.6,0.2-1.1,0.4-1.7,0.4c-0.7,0-1.4-0.1-2.1-0.4c-0.9-0.4-1.6-0.2-2.1,0
					c-2,0.8-4.3,0.1-5.5-1.6c-0.3-0.4-0.4-0.8-0.5-1.3l0-0.2c0-0.2,0-0.5-0.1-0.8v-0.8c0.1-0.3,0.1-0.6,0.1-0.9
					c0-0.9,0.5-1.7,1.4-2.3c0.8-0.6,1.4-1.3,1.9-2.2c0.7-1.4,1.9-2.2,3.5-2.4c0.7-0.1,1.2-0.4,1.7-0.8
					C37.1,49.3,37.8,48.9,38.5,48.7z"/>
			</g>
		</g>
	</g>
</g>
</svg>
