<?xml version="1.0" encoding="utf-8"?>
<!-- Generator: Adobe Illustrator 21.0.0, SVG Export Plug-In . SVG Version: 6.00 Build 0)  -->
<svg version="1.1" id="Layer_1" xmlns="http://www.w3.org/2000/svg" xmlns:xlink="http://www.w3.org/1999/xlink" x="0px" y="0px"
	 viewBox="0 0 100 100" style="enable-background:new 0 0 100 100;" xml:space="preserve">
<style type="text/css">
	.st0{fill:#418FDE;}
	.st1{fill:#FFFFFF;}
</style>
<g>
	<g>
		<path class="st0" d="M50,100L50,100C22.5,100,0,77.5,0,50v0C0,22.5,22.5,0,50,0h0c27.5,0,50,22.5,50,50v0
			C100,77.5,77.5,100,50,100z"/>
	</g>
	<g>
		<g>
			<path class="st1" d="M56.8,60c-3.4,0-4.3,0-7.7,0c-0.7,0-1-0.2-0.9-0.9c0.1-0.8,0.1-1.7,0-2.5c-0.1-0.8,0.2-1,1-0.9
				c5.2,0,7.9,0,13.1,0c1.7,0,3.3,0,5,0c0.6,0,0.8,0.2,0.8,0.8c0,0.9-0.1,1.8,0,2.7c0,0.7-0.2,0.8-0.9,0.8C63.7,60,60.2,60,56.8,60z
				"/>
			<path class="st1" d="M57.6,42.7c-2.8,0-5.7,0-8.5,0c-0.7,0-1-0.1-0.9-0.9c0.1-0.9,0-1.9,0-2.8c0-0.5,0.2-0.7,0.7-0.7
				c5.9,0,9.2,0,15.1,0c0.6,0,0.7,0.2,0.7,0.7c0,0.9,0,1.9,0,2.8c0,0.7-0.2,0.9-0.9,0.8C60.9,42.6,60.6,42.7,57.6,42.7z"/>
			<path class="st1" d="M55.5,51.4c-2.2,0-4.3,0-6.5,0c-0.6,0-0.8-0.2-0.8-0.8c0-0.9,0-1.9,0-2.8c0-0.7,0.2-0.8,0.8-0.8
				c4.3,0,6,0,10.3,0c0.7,0,0.9,0.2,0.9,0.9c-0.1,0.9-0.1,1.8,0,2.7c0,0.7-0.3,0.8-0.9,0.8C57.2,51.3,57.6,51.4,55.5,51.4z"/>
			<path class="st1" d="M67,46.9c1.6,0,3.2,0,4.8,0c0.6,0,0.9,0.1,0.8,0.8c-0.1,1,0,2,0,2.9c0,0.5-0.1,0.7-0.7,0.7
				c-3.3,0-6.6,0-9.9,0c-0.5,0-0.7-0.2-0.7-0.7c0-0.9,0-1.9,0-2.8c0-0.7,0.2-0.9,0.8-0.9C63.8,47,65.4,46.9,67,46.9z"/>
			<path class="st1" d="M72.6,57.9c0,2.1,0,2.1-2.2,2.2c-1,0-1.4-0.2-1.3-1.2c0.1-0.8,0.1-1.6,0-2.3c-0.1-0.7,0.2-0.9,0.9-0.8
				c0.6,0,1.1,0,1.7,0c0.6-0.1,0.9,0.1,0.9,0.8C72.6,56.9,72.6,57.4,72.6,57.9z"/>
			<g>
				<path class="st1" d="M35.5,36.7c-4.8,0-8.8,3.9-8.9,8.7c0,4.9,3.9,8.9,8.8,8.9c4.8,0,8.8-3.9,8.9-8.7
					C44.3,40.7,40.4,36.7,35.5,36.7z M34.7,52.8c-3.8-0.4-6.8-3.7-6.7-7.5c0.1-3.8,3.1-7,6.9-7.2c0.8-0.1,1.1,0.2,1.1,1
					c-0.1,1,0,2,0,2.9c0,1.1,0,2.2,0,3.2c0,0.6,0.2,0.8,0.7,0.8c1.8,0,3.6,0,5.4,0c0.6,0,0.7,0.1,0.6,0.7
					C42.1,50.5,38.6,53.2,34.7,52.8z"/>
			</g>
			<g>
				<path class="st1" d="M42.8,59c-0.9,0-1.6,0.8-1.6,1.7c0,0.9,0.7,1.6,1.6,1.6c0.9,0,1.7-0.7,1.7-1.7C44.5,59.7,43.7,59,42.8,59z
					 M42.9,61.6c-0.6,0-0.9-0.3-0.9-0.9c0-0.6,0.3-0.9,0.9-0.9c0.6,0,0.8,0.3,0.9,0.9C43.7,61.2,43.4,61.6,42.9,61.6z"/>
				<path class="st1" d="M28,59c-0.9,0-1.7,0.7-1.7,1.6c0,0.9,0.7,1.6,1.6,1.6c0.9,0,1.7-0.7,1.7-1.6C29.6,59.8,28.9,59.1,28,59z
					 M28,61.6c-0.6,0-0.9-0.3-0.9-0.9c0-0.6,0.4-0.8,0.8-0.9c0.7,0,1,0.4,1,0.9C28.9,61.2,28.5,61.6,28,61.6z"/>
				<path class="st1" d="M35.4,59c-0.9,0-1.7,0.8-1.6,1.7c0,0.9,0.8,1.6,1.7,1.6c0.9,0,1.7-0.8,1.6-1.7C37.1,59.7,36.3,59,35.4,59z
					 M35.5,61.6c-0.6,0-1-0.3-1-0.8c0-0.5,0.3-0.9,0.8-0.9c0.6,0,0.9,0.3,0.9,0.8C36.4,61.2,36,61.5,35.5,61.6z"/>
			</g>
		</g>
	</g>
</g>
</svg>
