<?xml version="1.0" encoding="utf-8"?>
<!-- Generator: Adobe Illustrator 21.0.0, SVG Export Plug-In . SVG Version: 6.00 Build 0)  -->
<svg version="1.1" id="Layer_1" xmlns="http://www.w3.org/2000/svg" xmlns:xlink="http://www.w3.org/1999/xlink" x="0px" y="0px"
	 viewBox="0 0 100 100" style="enable-background:new 0 0 100 100;" xml:space="preserve">
<style type="text/css">
	.st0{fill:#001871;}
	.st1{fill:#FFFFFF;}
</style>
<g>
	<g>
		<path class="st0" d="M50,100L50,100C22.5,100,0,77.5,0,50v0C0,22.5,22.5,0,50,0h0c27.5,0,50,22.5,50,50v0
			C100,77.5,77.5,100,50,100z"/>
	</g>
	<g>
		<g>
			<g>
				<path class="st1" d="M68.2,57.6c0-2.6,0-5.3,0-7.9c0-5.3,0-10.6,0-15.9c0-0.4,0.2-0.9-0.5-1c-1.4-0.3-2.7-0.5-4.1-0.8
					c-4.5-0.8-9-1.5-13.4-2.7c-0.3-0.1-0.6-0.1-0.9,0c-2.4,0.7-4.8,0.9-7.2,1.4c-3.4,0.8-6.8,1.3-10.2,2c-0.7,0.1-0.5,0.6-0.5,1
					c0,8,0,16,0,24c0,0.3-0.1,0.6,0.1,0.8c0,0.2,0,0.5,0.1,0.7c0.7,2.6,2.1,4.9,3.9,6.8c3.9,4.2,8.7,7.1,13.8,9.4
					c0.4,0.2,0.6,0.1,0.9-0.1c3-1.3,5.9-2.8,8.5-4.7c4.3-3.1,8.2-6.6,9.3-12.2C68.3,58.2,68.2,57.9,68.2,57.6z M64.9,44.8
					c-5.5,5.5-11,11-16.5,16.6c-1,1-2,2-2.9,3c-0.4,0.4-0.6,0.5-1,0.1c-3.4-3.1-6.8-6.3-10.2-9.4c-0.4-0.3-0.4-0.6-0.1-1
					c1-1,2-2.1,3-3.1c0.4-0.5,0.7-0.6,1.2-0.1c1.9,1.8,3.9,3.6,5.8,5.4c0.6,0.5,0.9,0.5,1.4-0.1c5.1-5.1,10.1-10.2,15.2-15.4
					c0.5-0.5,0.8-0.6,1.4,0c0.9,1,1.9,1.9,2.9,2.9c0.1,0.1,0.2,0.3,0.3,0.4C65.4,44.4,65.2,44.6,64.9,44.8z"/>
			</g>
		</g>
	</g>
</g>
</svg>
