<?xml version="1.0" encoding="utf-8"?>
<!-- Generator: Adobe Illustrator 21.0.0, SVG Export Plug-In . SVG Version: 6.00 Build 0)  -->
<svg version="1.1" id="Layer_1" xmlns="http://www.w3.org/2000/svg" xmlns:xlink="http://www.w3.org/1999/xlink" x="0px" y="0px"
	 viewBox="0 0 100 100" style="enable-background:new 0 0 100 100;" xml:space="preserve">
<style type="text/css">
	.st0{fill:#00B2A9;}
	.st1{fill:#FFFFFF;}
</style>
<g>
	<g>
		<path class="st0" d="M50,100L50,100C22.5,100,0,77.5,0,50v0C0,22.5,22.5,0,50,0h0c27.5,0,50,22.5,50,50v0
			C100,77.5,77.5,100,50,100z"/>
	</g>
	<g>
		<g>
			<path class="st1" d="M71.4,64.4c-6.1,6.5-13.6,9.5-22.5,8.8c-6.3-0.5-11.7-3-16.3-7.3c-0.5-0.5-1-1-1.6-1.6
				c0.1-1.7,1.3-2.4,2.6-2.9c1.5-0.6,3.1-1.1,4.6-1.8c2.9-1.3,5.6-3.1,7.9-5.3c1.2-1.2,1.1-2.9-0.2-4c-1.6-1.4-2.5-3.1-2.8-5.2
				C43,44.7,43,44.2,42.4,44c-1-0.4-1.3-1.2-1.3-2.2c0-0.7,0-1.3,0-2c0-0.5,0.2-1.1,0.6-1.3c1-0.6,0.9-1.4,0.9-2.3
				c-0.1-3.2,1.1-5.8,3.7-7.7c2.7-1.9,5.7-2,8.7-0.6c3,1.5,4.4,4.1,4.7,7.3c0,0.4,0,0.9,0,1.3c0,0.7,0.1,1.4,0.8,1.8
				c0.5,0.3,0.6,0.9,0.7,1.4c0.1,0.7,0,1.3,0,2c0,1-0.3,1.8-1.3,2.2c-0.5,0.2-0.6,0.6-0.7,1c-0.3,2.2-1.2,4-3,5.4
				c-1.1,0.9-1.1,2.7-0.1,3.7c2.2,2.3,4.9,4,7.8,5.3c1.4,0.7,2.9,1.3,4.4,1.7c1.2,0.3,2,1.1,2.7,2C71.4,63.6,71.6,64,71.4,64.4z"/>
		</g>
	</g>
</g>
</svg>
