<svg id="Layer_1" data-name="Layer 1" xmlns="http://www.w3.org/2000/svg" viewBox="0 0 45.84 33.86"><defs><style>.cls-1{fill:#0373b9;}</style></defs><title>Untitled-3</title><path class="cls-1" d="M44.63,0a1.11,1.11,0,0,1,1,1.78c-1,1.7-2,3.4-3,5.1L27.33,33.2c-.47.8-.8.85-1.54.26l-11.2-9c-.66-.53-.67-.61,0-1.1l18-13.43.08-.06c.46-.35.61-.67.39-.93s-.68-.17-1,0q-9.9,6.27-19.8,12.53a1.28,1.28,0,0,0-.64,1c-.28,2.12-.61,4.23-.92,6.35,0,.19,0,.47-.27.49s-.27-.26-.31-.45c-.63-3.07-1.25-6.14-1.86-9.22a1.65,1.65,0,0,0-.62-1L.95,13.31c-.18-.15-.36-.31-.55-.45A.81.81,0,0,1,0,12c.07-.37.37-.48.69-.57L6.77,9.82q15-4,30-8c2.51-.67,5-1.22,7.58-1.79A3,3,0,0,1,44.63,0Z"/><path class="cls-1" d="M12.57,30.21c.21-1.41.4-2.82.62-4.23.07-.44.21-.48.56-.19,1,.78,1.91,1.57,2.87,2.34.3.24.25.39-.05.55-1.14.63-2.26,1.27-3.4,1.89C12.73,30.82,12.54,30.69,12.57,30.21Z"/></svg>