<svg id="Layer_1" data-name="Layer 1" xmlns="http://www.w3.org/2000/svg" viewBox="0 0 100 100"><defs><style>.cls-1{fill:#418fde;}.cls-2{fill:#fff;}</style></defs><title>Waiver</title><circle class="cls-1" cx="50" cy="50" r="50"/><path class="cls-2" d="M75.54,56.78c0,3.25,0,6.5,0,9.75,0,.48-.1.68-.6.6a2.24,2.24,0,0,0-.49,0c-.25,0-.37-.08-.35-.35s0-.58,0-.88q0-9,0-18a1.2,1.2,0,0,0-.39-1q-1.65-1.6-3.25-3.25a1.1,1.1,0,0,0-.87-.35H56.91c-.3,0-.58.05-.55-.42,0-.3.13-.36.39-.36h3.07c3.82,0,7.63,0,11.45,0,.41,0,.57.13.65.5.16.71.37,1.4.51,2.12a.59.59,0,0,0,.53.52c.71.16,1.41.36,2.12.51.36.08.48.23.47.62C75.53,50.17,75.54,53.48,75.54,56.78Z"/><path class="cls-2" d="M74.37,44.24l2.51.63a.24.24,0,0,1,.19.28c0,.09,0,.18,0,.27q0,9.94,0,19.88a.59.59,0,0,1-.89.54c-.18-.09-.11-.25-.12-.38,0-.66,0-1.31,0-2q0-8.41,0-16.81a1.19,1.19,0,0,0-.42-1c-.48-.41-.94-.85-1.4-1.28Z"/><path class="cls-2" d="M74,44.09c-.5-.52-1-1-1.5-1.57a1.29,1.29,0,0,0-1.05-.45c-4.35,0-8.7,0-13,0-.25,0-.57.11-.54-.37,0-.29.07-.42.4-.41,1.17,0,2.34,0,3.51,0,3.73,0,7.45,0,11.18,0,.39,0,.59.07.66.5.14.74.35,1.47.53,2.2Z"/><path class="cls-2" d="M70.54,44.63,72.91,47c-.53-.14-1.09-.29-1.65-.42a.37.37,0,0,1-.33-.3C70.81,45.71,70.66,45.13,70.54,44.63Z"/><path class="cls-2" d="M75,45.62c-.16,0-.2.05-.23,0-.59-.19-1.37-.11-1.73-.53a4.78,4.78,0,0,1-.54-1.79l.13-.11c.37.41.73.84,1.12,1.23S74.52,45.2,75,45.62Z"/><path class="cls-2" d="M76.22,44.17c-.44-.11-.91-.24-1.38-.34a.33.33,0,0,1-.28-.29l-.32-1.33Z"/><path class="cls-2" d="M73.62,48.21c0-.41-.13-.58-.51-.66-.68-.14-1.34-.33-2-.48a.71.71,0,0,1-.63-.63c-.13-.7-.36-1.37-.5-2.06-.08-.39-.25-.48-.63-.48q-7.15,0-14.3,0c-.46,0-.57.12-.57.57,0,3.89,0,7.78,0,11.67s0,7.78,0,11.67c0,.47.09.61.59.61q9,0,18,0c.45,0,.53-.13.53-.55,0-3.78,0-7.56,0-11.34C73.61,53.76,73.6,51,73.62,48.21ZM56.35,48c1.28,0,9.48,0,10.76,0s2.48,0,3.72,0c.34,0,.48.06.47.45s0,.52-.45.52c-2.52,0-12,0-14.48,0-.34,0-.49-.07-.47-.45S55.91,48,56.35,48Zm15,4.9c0,.43-.15.51-.54.51-2.37,0-4.75,0-7.12,0H56.57c-.34,0-.58,0-.58-.47s.16-.5.54-.5q7.12,0,14.25,0C71.13,52.47,71.29,52.52,71.3,52.94Zm-14.9-2.65c1.26,0,9.45,0,10.71,0s2.45,0,3.67,0c.36,0,.52.06.51.47s-.07.51-.48.51c-2.5,0-11.93,0-14.43,0-.4,0-.48-.13-.49-.5S56,50.28,56.39,50.29Zm.09,4.44q7.17,0,14.34,0c.4,0,.48.14.48.51s-.12.45-.47.45c-2.41,0-4.82,0-7.22,0s-4.74,0-7.11,0c-.36,0-.52-.06-.51-.47S56.11,54.73,56.49,54.73Zm0,2.24c2.39,0,4.78,0,7.17,0s4.78,0,7.17,0c.37,0,.51.09.51.48s-.12.49-.5.49q-7.17,0-14.35,0c-.42,0-.46-.17-.47-.52S56.12,57,56.47,57Zm0,2.27c2.41,0,4.82,0,7.22,0s4.74,0,7.11,0c.37,0,.51.08.5.48s-.15.44-.48.44q-7.2,0-14.39,0c-.39,0-.43-.15-.44-.48S56.14,59.24,56.48,59.24Zm14.4,7.69q-7.14,0-14.29,0c-.39,0-.55-.08-.55-.51s.19-.46.53-.46H63.7c2.39,0,4.78,0,7.17,0,.4,0,.53.09.53.51S71.24,66.93,70.88,66.93Zm-.06-2.3H56.64c-.33,0-.53,0-.53-.45s.23-.43.54-.43H70.83c.28,0,.57-.1.57.4S71.16,64.64,70.82,64.63Zm.56-2.38c-.09.29-.34.17-.51.17H63.7c-2.37,0-4.74,0-7.11,0-.37,0-.55,0-.56-.5s.23-.47.57-.47H70.83C71.35,61.47,71.54,61.75,71.38,62.25Z"/><path class="cls-2" d="M42.36,70.12H24.83c-1.51,0-1.93-.38-1.91-1.88a19.68,19.68,0,0,1,13-18.54l.6-.21c.56-.19.5-.43.08-.73A11,11,0,0,1,34,46.21a10.34,10.34,0,1,1,14.54,2.37c-.23.18-.67.25-.59.6s.5.29.78.39c7.28,2.73,11.66,7.9,13,15.56A13.46,13.46,0,0,1,62,68.51c-.09,1.24-.49,1.61-1.82,1.61Z"/></svg>