<svg id="Layer_1" data-name="Layer 1" xmlns="http://www.w3.org/2000/svg" viewBox="0 0 150 150"><defs><style>.cls-1{fill:#418fde;}.cls-2{fill:#fff;}</style></defs><title>Waiver</title><circle class="cls-1" cx="75" cy="75" r="75"/><path class="cls-2" d="M82.54,55.2l1.59-4.27c.69,1.76,2,3,.89,4.91a4.75,4.75,0,0,0,.17,5.29,8.46,8.46,0,0,1,1,3.15,2.55,2.55,0,0,1-2.18,2.89,6.45,6.45,0,0,1-1.46.17q-6.52,0-13,0c-1.47,0-3-.11-3.73-1.62s.15-2.77,1.09-3.9q4.18-5.08,8.39-10.13c2.09-2.5,4.48-2.19,5.93.75C81.65,53.31,82.06,54.19,82.54,55.2Z"/><path class="cls-2" d="M54.95,93.89V85.17H74.71v8.72Z"/><path class="cls-2" d="M97.3,85.17v8.72H77.54V85.17Z"/><path class="cls-2" d="M86,82.34H66.29V73.61H86Z"/><path class="cls-2" d="M43.74,96.71H63.43v8.76H43.74Z"/><path class="cls-2" d="M86,105.47H66.27V96.75H86Z"/><path class="cls-2" d="M108.52,105.48H88.82V96.75h19.7Z"/><path class="cls-2" d="M95.52,43.59a3.41,3.41,0,0,1,3.34,2.3,3,3,0,0,1-1.28,3.6c-3,1.53-6.13,2.94-9.23,4.33a1.35,1.35,0,0,1-1.83-.8c-.49-1-1-2-1.41-3.06a1.45,1.45,0,0,1,.75-2.11q4.28-2,8.59-4A5.42,5.42,0,0,1,95.52,43.59Z"/></svg>