<svg id="Layer_1" data-name="Layer 1" xmlns="http://www.w3.org/2000/svg" viewBox="0 0 150 150"><defs><style>.cls-1{fill:#001871;}.cls-2{fill:#fff;}</style></defs><title>Waiver</title><circle class="cls-1" cx="75" cy="75" r="75"/><path class="cls-2" d="M114.3,70.15l-.51,1.13-.09,0c.09-.37.18-.73.28-1.1,0-.18.12-.34.2-.56l.11.25a42.42,42.42,0,0,0-2.64-10.13l-.36.66a.48.48,0,0,1,.34-.71A39.15,39.15,0,0,0,98.39,42.8a3.73,3.73,0,0,1-.19.46.83.83,0,0,1-.21.18.81.81,0,0,1,0-.25c.21-.46.22-.46-.19-.75l-.44-.29a6.84,6.84,0,0,1-.71-.43c-.11-.09-.16-.13-.29-.06a.69.69,0,0,1-.27,0l0-.1.33-.1c-.49-.26-.94-.51-1.4-.74-.16-.08-.28,0-.33.19l-.11.37-.12,0c0-.18.09-.37.15-.55s.11-.21-.07-.31a37.32,37.32,0,0,0-4.48-2.14,1.27,1.27,0,0,0-.36,0c-.16-.1-.3-.27-.44-.26a1.56,1.56,0,0,0-.53.24c0-.07-.1-.15-.09-.22s.09-.13.16-.21L88,37.48c.1.21.14.36-.17.43-.09-.15-.18-.31-.28-.46a.56.56,0,0,0-.24-.21c-.5-.16-1-.3-1.52-.45s-.44-.13-.6.32c-.08.22-.18.44-.27.66-.07-.06-.1-.11-.09-.15a7.26,7.26,0,0,1,.17-.76c.07-.22,0-.31-.22-.35s-.66-.15-1-.22c-.82-.16-1.63-.34-2.45-.47s-1.94-.25-2.92-.34a9.35,9.35,0,0,0-1.18,0,.42.42,0,0,1-.16,0,1.07,1.07,0,0,0-1,0c-.13-.22-.23-.2-.32,0a1.36,1.36,0,0,1-.19.29l-.08,0,.07-.44a.46.46,0,0,1-.69.18.44.44,0,0,0-.68,0,1.29,1.29,0,0,0-1,0,.44.44,0,0,0-.12.16c-.08.16-.19.15-.25,0s-.18-.16-.33-.11-.56.16-.84.25a.8.8,0,0,0-.29.12c-.3.26-.6.23-.77-.1a1.37,1.37,0,0,1-.06-.16l-.38.05,0,.37c-.12-.08-.21-.11-.26-.18s-.25-.15-.41-.1-.19,0-.28.06c-.28.13-.74-.12-.82.43-.12,0-.23-.08-.34-.11a1,1,0,0,0-.39-.05c-1,.23-2,.45-3,.74s-2.06.67-3.08,1c-.37.12-.71.26-.81.7a1.7,1.7,0,0,1-.19.39l-.06,0,.2-.73-.83.37c.06.16.17.29.14.38-.11.34-.26.67-.42,1.06-.26-.48-.35-.88.09-1.31a1.88,1.88,0,0,0-.3.07c-.54.26-1.08.53-1.63.79a1,1,0,0,0-.61.54l-.05,0L57,40l-.17.07A39.25,39.25,0,0,0,52.18,43a2.15,2.15,0,0,0-.31.38c-.22-.06-.34.15-.52.31s-.71.52-1.06.79c-.08.06-.1.19-.15.28S50,45,50,45a.68.68,0,0,0-.53.32,3.17,3.17,0,0,1-.46.43c-.31.23-.69.39-.74.86a.62.62,0,0,1-.25.34c-.29.22-.61.4-.89.63s-.51.5-.76.75c0,0,0,.06,0,.08a8.12,8.12,0,0,1-.48.66c-.17.19-.41.33-.56.54-.46.6-.88,1.22-1.33,1.82-.1.14-.28.23-.37.37-.79,1.23-1.6,2.44-2.34,3.7a30.89,30.89,0,0,0-2.38,5.09c-.45,1.25-.84,2.52-1.24,3.78a.37.37,0,0,0,0,.07l-.38,1.88a1.08,1.08,0,0,0-.06.23s0,0,0,0l-.32,1.39a.26.26,0,0,0-.06.29l-.15.84a12.17,12.17,0,0,0-.16,1.22c-.08,1.48-.15,3-.21,4.43,0,.38,0,.75,0,1.06.21.07.46.1.46.15,0,.3-.24.22-.45.25a39.62,39.62,0,0,0,5.83,19l.14-.06a6,6,0,0,0,.39.87A37,37,0,0,0,47,101.49a1.54,1.54,0,0,0,.37.21c-.08.22,0,.35.38.32v.23l.26-.15.3.32c.06.07.18.13.18.19s-.11.13-.18.21c.15.14.27.36.53.08s.42,0,.48.21a6.12,6.12,0,0,1,.11.62l.24-.21.06.26c.22-.13.4-.09.48.15s-.1.3-.33.32l.62.5.34-.39.12.05a1.37,1.37,0,0,1,0,.37.32.32,0,0,0,.15.44c1,.72,2,1.48,3,2.17a34.8,34.8,0,0,0,5.38,2.93c.2.09.4.29.6-.07-.13.46.21.4.42.5l.11-.37c.23.27.22.75.78.63-.09-.11-.15-.24-.24-.27-.3-.11-.32-.16-.1-.44a1,1,0,0,0,.26.18c.1,0,.22,0,.32,0a1,1,0,0,1,.24.12,1.86,1.86,0,0,1-.11.2l-.26.36c.28.11.54.21.8.29s.34.08.4,0,0-.27,0-.35c-.18-.07-.35-.09-.37-.15a.43.43,0,0,1,.08-.35c.07-.08.25-.15.32-.11.33.17.73.28.81.73,0,.21.12.37.38.31l.07.39c.11-.07.19-.16.25-.16a3,3,0,0,1,.87.19c.21.1.34.14.47-.1l.15.27a.26.26,0,0,0,.07-.2c0-.11,0-.27,0-.3a.47.47,0,0,1,.37-.05c.23.11.48.24.4.58a2.22,2.22,0,0,0,0,.35c0,.16,0,.24.22.27.67.12,1.34.29,2,.38,1.21.18,2.42.39,3.64.45,1.62.08,3.25,0,4.88,0a1.8,1.8,0,0,0,.46-.13l.44-.1c.11,0,.3-.05.31,0,.12.29.32.13.44.09a1.08,1.08,0,0,1,.18-.53c.14-.14.78,0,.94.13s.23.37.53.22a3,3,0,0,1,.61-.1,3.56,3.56,0,0,1,.52-.18c.22,0,.39,0,.39-.31l.27.12,0-.06a1,1,0,0,0-.16-.17c-.23-.15-.14-.29,0-.42a.55.55,0,0,1,.67.08,2.22,2.22,0,0,1,.27.38c.1.21.24.21.43.16.94-.25,1.9-.45,2.83-.75,1.25-.4,2.51-.81,3.72-1.31s2.43-1.12,3.63-1.7c.5-.25,1-.54,1.48-.82l-.2-.32c.17,0,.34-.16.44-.11a.6.6,0,0,0,.67-.13,4.4,4.4,0,0,1,.57-.36c.14-.07.21-.14.14-.31a.26.26,0,0,1,.08-.22s.14,0,.21.06a.63.63,0,0,1,.13.11.31.31,0,0,0,.21-.4.84.84,0,0,1,0-.37s.09-.12.13-.12a.19.19,0,0,1,.14.12,2.51,2.51,0,0,1,0,.39l.06,0c0-.08.08-.17.12-.25s0-.24.11-.28c.25-.16.47-.43.84-.33.06,0,.16-.06.22-.11l1.44-1.15a.58.58,0,0,0,.27-.63c0-.1.19-.36.28-.35.29,0,.39-.15.53-.33a4.85,4.85,0,0,1,1.34-1.52s0-.08,0-.13a1.2,1.2,0,0,1,.82-.88c.28-.07.36,0,.39.28l.68-.78-.29-.14,0-.1c.12-.06.25-.18.37-.17.39,0,.46-.31.65-.51l-.05-.07-.28.23-.06-.06.49-.83.19.24-.2.27.07.05.75-1s.06-.08,0-.1c-.16-.26.09-.3.21-.42a2.22,2.22,0,0,0,.4-.38q1.19-1.89,2.36-3.8a3.45,3.45,0,0,0,.22-.61c.29,0,.24-.37.41-.55l-.16-.25,0,0,.19.12.06-.11c.5-1.12,1-2.24,1.47-3.38.13-.32.38-.7.12-1.09l.07-.06.18.19a2.56,2.56,0,0,0,.29-1.52h.2a36.49,36.49,0,0,0,1.25-5.2,38.83,38.83,0,0,0,.49-5.38A32.75,32.75,0,0,0,114.3,70.15ZM80,35.8c.1.45,0,.69-.31.71Zm-6.29.7.09,0a.52.52,0,0,1-.18.53l-.1,0Zm-2.56,0s.1,0,.15,0l0,.43h-.16A3.92,3.92,0,0,1,71.13,36.45Zm.4.72a1,1,0,0,1-.9-.29ZM69.1,36.1a1.38,1.38,0,0,1,.46-.08s.05.08,0,.09a.56.56,0,0,1-.17.17,3.26,3.26,0,0,1-.42.13C69,36.3,69,36.14,69.1,36.1ZM65,37.43l-.58.85C64.37,37.77,64.67,37.36,65,37.43ZM50.8,44.35l.6.17.32-.43.1.06c-.08.2-.16.39-.25.59,0,0-.09,0-.13,0l-.69-.27Zm-5.34,6.2.12,0a7.05,7.05,0,0,1-.2.85c0,.07-.22.09-.34.13L45,51.51ZM37.18,70.88l-.08,0,.24-.59C37.5,70.54,37.35,70.71,37.18,70.88Zm.23,4.3h-.09a3.66,3.66,0,0,1,0-.48s.1-.1.15-.14.1.12.09.18A3.73,3.73,0,0,1,37.41,75.17Zm4,18.18c.15-.27.44-.2.68.21Zm2.12,2.13,0,.74C43.29,95.91,43.28,95.6,43.54,95.48Zm5.11,7-.25-.89.17,0,.18.91ZM64,111.26a.14.14,0,0,1-.07.05l-.05,0,0,0,0-.16v-.06l0-.12,0-.13C64,111,64,111.09,64,111.26Zm.37.27c-.07,0-.21-.22-.23-.35s.14-.18.26-.33l.53.46A2.06,2.06,0,0,1,64.33,111.53Zm3.38,1.2-.16-.52c-.23,0-.46-.06-.68-.12a.18.18,0,0,1-.09-.08l-.08-.12.12-.05a.32.32,0,0,1,.12,0c.1,0,.21.07.31.07a2.84,2.84,0,0,0,.45-.08l.1.9Zm12.77.48-.28-.33c.28-.11.36,0,.38.18S80.52,113.16,80.48,113.21Zm.42-.09s-.28-.21-.29-.33.21-.27.4-.27a1.22,1.22,0,0,1,.34.1l0,.12A2.5,2.5,0,0,1,80.9,113.12Zm8.22-2.53c-.05,0-.12-.09-.21-.17l.22-.28a1.31,1.31,0,0,1,.18.3S89.2,110.58,89.12,110.59ZM110,90.48l-.09,0c0-.23,0-.47.3-.58Zm1.84-4.33.55.62C111.82,86.55,111.73,86.44,111.83,86.15Zm-.19-1.66h.16l.11-.35.1,0V85l0,0Zm.76-4.46c-.23,1.28-.45,2.56-.76,3.82a28.55,28.55,0,0,1-1.52,4.58.59.59,0,0,0,.14.74l-.05,0-.34-.07c-.34.71-.67,1.43-1,2.13a35.59,35.59,0,0,1-2.91,4.86,43.66,43.66,0,0,1-4.2,5c-.37.39-.81.69-1.19,1.07a16,16,0,0,1-1.25,1.1c-.43.35-.87.69-1.3,1l-.1.09.14.22c-.06,0-.1,0-.13,0-.19-.09-.33,0-.5.09q-2.09,1.34-4.19,2.65c-.18.11-.27.18-.18.4s0,.18,0,.27h-.09l-.14-.42c-.94.43-1.87.89-2.83,1.29s-1.94.75-2.93,1.13a.62.62,0,0,1,0,.1c0,.08,0,.17,0,.25s-.18,0-.21-.1-.24-.16-.4-.11c-.37.12-.75.21-1.12.32a3.71,3.71,0,0,1,0,.42.47.47,0,0,1-.63.43c-.05,0-.12-.09-.11-.13s.07-.16.11-.16c.34,0,.33-.2.27-.47a35.19,35.19,0,0,1-10.26,1.23l.17.25a8.06,8.06,0,0,0-1-.25,7.35,7.35,0,0,0-.93,0l.07.79-.13,0a1.4,1.4,0,0,1-.06-.28c0-.58,0-.56-.59-.63-1.38-.18-2.76-.35-4.12-.61a34.77,34.77,0,0,1-9.29-3.13l-1.25-.64-.07.3a1.64,1.64,0,0,1-1.1-.71l.66.17v0l-2.34-1.43c-.08,0-.18.1-.25.08s-.09-.15-.13-.22a.8.8,0,0,0-.18-.25,37.58,37.58,0,0,1-6.6-5.79,11.12,11.12,0,0,1-.78-.9,2.52,2.52,0,0,0-1.16-.88,2.85,2.85,0,0,1-.52-.35l0-.08.75.28c-.58-.82-1.17-1.56-1.66-2.36-.77-1.24-1.53-2.49-2.2-3.79a32.8,32.8,0,0,1-1.51-3.39c-.45-1.15-.81-2.34-1.16-3.53-.25-.84-.46-1.7-.63-2.56-.21-1.08-.35-2.16-.53-3.24a6.71,6.71,0,0,0-.22-.75l.15,0a36.77,36.77,0,0,1,1.21-13.48l.19-.62,0,0,0-.06L40,62.66l0-.14h0l.1-.32h0a.48.48,0,0,0,0-.15l.2-.66h0l2.47-5.32-.26-.17c.06,0,.1-.06.13-.05.31.12.43-.09.55-.3a35.09,35.09,0,0,1,3.6-5.07,1,1,0,0,0,.23-.6c0-.15,0-.32.31-.28l-.19.38c.52-.3.66-.88,1-1.29v.17L50,47.07l-.77-.31a.87.87,0,0,1-.22-.09l0,0,0,0,0-.07,0,0h0a.25.25,0,0,1,.14,0c.32.13.63.28.95.39a.39.39,0,0,0,.33,0,37.44,37.44,0,0,1,5.14-3.89,32.65,32.65,0,0,1,5.23-2.72c1.19-.47,2.39-.9,3.59-1.33.29-.11.6-.16.89-.27a.4.4,0,0,0,.18-.25c0-.17,0-.37.32-.46l-.17.6c.73-.17,1.43-.38,2.15-.5,1.36-.23,2.72-.43,4.09-.62A29,29,0,0,1,77,37.23c1.19,0,2.38.17,3.57.33s2.27.39,3.41.61c.54.11,1.06.28,1.59.41l.51.11a40.54,40.54,0,0,1,8.77,3.92,37.7,37.7,0,0,1,7.48,6c.23-.09.13-.55.54-.39l-.28.62c.71.83,1.42,1.63,2.1,2.47a36.24,36.24,0,0,1,4.21,6.59,33.19,33.19,0,0,1,2,5c.44,1.41.79,2.84,1.12,4.28a33.12,33.12,0,0,1,.78,7.64A29.79,29.79,0,0,1,112.39,80Zm.78-.39-.4-.52.11-.08.38.54Z"/><path class="cls-2" d="M55.35,61.22c-.22-.11-.29,0-.39.17a24.73,24.73,0,0,0-2.41,5.54c-.1.33-.17.67-.26,1,.28-.06.55,0,.61-.31a3.77,3.77,0,0,0,.68-.06c.73-.2,1.46-.43,2.19-.64l2.48-.69,2.79-.8,2.73-.78,2.79-.81,2.73-.78,2.81-.81,2.7-.77,2.81-.81,3.3-.94c.95-.27,1.88-.6,2.85-.8.49-.1.78-.47,1.21-.61,0,0,0-.1.06-.16s.1-.21.14-.32a.63.63,0,0,0,0-.18l-.22.13-.08,0,.1-.44c.22.05.42-.38.64,0l-.32,1.19,7-2L92,56.27a23.94,23.94,0,0,0-7.65-4.9,18.85,18.85,0,0,0-3.81-1.14c-1.07-.18-2.14-.36-3.22-.47-.82-.08-1.64,0-2.47-.06-.24,0-.47-.06-.6.28l-.1-.32c-1.11.16-2.24.26-3.34.48A23.49,23.49,0,0,0,66,51.66,23.88,23.88,0,0,0,59.37,56a.55.55,0,0,0-.1.15l0,0a1.57,1.57,0,0,0-.29.19c-.38.39-.78.76-1.13,1.17-.59.69-1.15,1.4-1.7,2.11-.32.41-.59.86-.9,1.32l.26.11.19.12A.41.41,0,0,1,55.35,61.22Zm-2.07,6.05-.62-.19a.4.4,0,0,1,.64.1ZM88,55a1.11,1.11,0,0,1-.88-.39C87.73,54.62,88,54.73,88,55Zm-2.31,0,.72.25.88-1.88.12,0a9,9,0,0,1-.72,1.94l.66.31,0,.1a2.52,2.52,0,0,0-1.46-.08l.41.56c-.31.07-.55-.06-.59-.23s.23-.27,0-.46S85.68,55.24,85.68,55Zm-.22-2.91.1,0-.17.63-.11,0C85.36,52.52,85.27,52.27,85.46,52.1Zm-.63,5.27,0,0s-.08.1-.12.1-.26.08-.27.26-.11.14-.16.21l-.16-.16c0-.46.2-.66.56-.62a.24.24,0,0,1,.12.08Zm-.28-3,.09.2-.35.62-.07,0,.09-.54L84,54.48Zm-3.94,3.84c-.08.07-.25,0-.38.07l-.05-.09.47-.66C80.75,57.79,80.8,58,80.61,58.21ZM82,57.07c0-.05.15-.07.32-.13l-.17.43-.12,0A.8.8,0,0,1,82,57.07Zm-.78.94c-.1.2-.19.39-.29.59,0,0-.09.06-.13.08s-.07-.14-.05-.17c.12-.19.25-.38.38-.56Zm-1.14-1.2.75.41-.07.12c-.26-.12-.58-.14-.74-.44Zm-.39-3.63a.45.45,0,0,1-.2.66Zm-1.58-1.51c.13.21.09.37-.14.65l-.08,0Zm-.6-.31c.41.08.44.18.2.62C77.38,51.73,77.37,51.68,77.53,51.35Zm-1.17,3.18c.06-.16-.06-.48.3-.54.16,0,.36.29.35.51a.43.43,0,0,1-.4.44C76.42,54.94,76.35,54.84,76.36,54.53Zm-6,3.48c0-.51.33-.82.48-1.26A1.19,1.19,0,0,1,70.33,58Zm3.85-2.39a.13.13,0,0,1,.12,0,.13.13,0,0,1,0,.12c-.13.34-.26.67-.4,1,0,.06-.14.09-.21.14l-.12-.1C73.81,56.38,74,56,74.19,55.62Zm-.33.17-1-.25C73.17,55.31,73.5,55.38,73.86,55.79Zm-.38,1.46,0,.08c-.37.1-.6,0-.62-.35Zm-.91,1.5c-.27.22-.47.19-.7-.09C72,58.43,72.13,58.44,72.57,58.74Zm-1.8-8.33s.12.09.11.12a4.11,4.11,0,0,1-.2.77c0,.05-.27,0-.41,0l0-.09Zm-.86.36.14.09-.18.3a.94.94,0,0,1-.14-.11A3.06,3.06,0,0,1,69.9,50.77Zm-1,2.7c-.24.14-.5.06-.86-.27Zm-1.17,4.88v.11a.43.43,0,0,1-.7-.06Zm-.06,2.4v.1L67,60.69C67.06,60.5,67.25,60.52,67.65,60.75Zm-1.1,1c.07,0,.19,0,.28,0a.54.54,0,0,1,.17.05l.67.32v.13a3.45,3.45,0,0,1-.4,0c-.23,0-.45-.06-.67-.11a1.26,1.26,0,0,1-.26-.12A1,1,0,0,1,66.56,61.72ZM64.9,53.93l.5.18v.06l-.23,0,.47.27a1.1,1.1,0,0,1-1-.27C64.62,54,65,54.31,64.9,53.93Zm.61,8.85a1.11,1.11,0,0,1-1.17-.28C65.33,62.36,65.35,62.37,65.51,62.78Zm-3.06.49h-.1a1.3,1.3,0,0,1,0-.47c.23-.54.48-1.07.74-1.59.06-.11.19-.19.29-.29l.1.1Zm.28-8.21c.33.06.67.08.87.46l-.9-.37Zm.74,4.52,0,.1-.82-.32A.85.85,0,0,1,63.47,59.57Zm-1-4.56-1-.41A.94.94,0,0,1,62.44,55Zm-2.27,4.33.4.25,0,.08c-.15-.06-.29-.11-.43-.18s0-.09-.05-.13S60.13,59.33,60.16,59.34ZM60,56.44a.62.62,0,0,1-.5-.05l-.1-.06-.08-.07-.06-.07v0Zm-.75-.28h0Zm-.44,1,.28-.14c.14-.08.63.07.67.22s-.06.14-.09.14l-.86-.15Zm-.5,3.49-.51-.26C58.23,60.28,58.36,60.35,58.31,60.7ZM58,59.5c-.4.08-.65,0-.72-.32ZM56.38,64l.15,0-.06.32-.18,0Zm-.54,2.12,0,.09a1.76,1.76,0,0,1-1.15-.41l0-.1Z"/><path class="cls-2" d="M98.49,83.12l.73-2.48-.69.22.27.39a.48.48,0,0,1-.36-.1c-.21-.26-.45-.15-.69-.08l-2.22.65-2.7.77L90,83.3l-2.7.77-2.9.83-1.13.34c-.1.19.15.45-.21.5l0-.44L66.7,90c-.13.42.22.82-.09,1.16h-.12V90.06l-7.26,2.09a23.87,23.87,0,0,0,5.41,4c0-.28,0-.5,0-.72,0,0,0-.1.09-.15l0,0,.05.07a.24.24,0,0,1,.06.12,3,3,0,0,1,0,.53.37.37,0,0,0,.28.44c1.06.44,2.11.91,3.18,1.33a12.49,12.49,0,0,0,1.46.44c.3.08.62.11.93.18.13,0,.25.13.38.15.92.14,1.83.33,2.76.39,1.15.08,2.31.05,3.46.07.08,0,.21,0,.22,0,.06-.31.21-.14.34-.08s.15.08.22.07c1-.15,2-.25,3-.47a28.32,28.32,0,0,0,2.87-.82c.77-.25,1.51-.59,2.31-.9l-.74-.79.09-.08c.43.06.47.53.72.79a1.79,1.79,0,0,0,.22-.08A24.63,24.63,0,0,0,91,93.65,23.8,23.8,0,0,0,96.07,88a22.25,22.25,0,0,0,2.2-4.37.87.87,0,0,0,0-.39c0-.11-.05-.22-.08-.33l.08,0ZM65,92.59c-.19,0-.25.11-.28.28s0,.2-.3.18c-.08-.55.12-.82.55-.76.06,0,.12.09.18.14S65,92.59,65,92.59Zm1.27-1.19a.44.44,0,0,1-.25-.53l.12,0,.24.53Zm2.32,0a.88.88,0,0,1,.07-.77C68.78,91,68.76,91.2,68.55,91.4Zm.27-1.06.89.37,0,.07C69.35,90.73,69,90.73,68.82,90.34Zm1.05,4.84L69.24,95l0-.14.63.18Zm4.21-.11-.23-1.19A.79.79,0,0,1,74.08,95.07Zm.15.18,0,.12c-.29,0-.59.13-.83-.14l0-.1Zm-.46-2.87v-.44h.07v.44ZM73.83,89l.1,0-.5,1.07-.08,0A2.12,2.12,0,0,1,73.83,89Zm-2.32,7.69-.12,0,.06-.48.15,0Zm2.38.75c-.16,0-.33-.06-.56-.11,0-.06.05-.17.11-.19.37-.15.7,0,1,.49C74.21,97.58,74.06,97.52,73.9,97.47ZM75,94.38c.27.27.17.62.3.91C75,95.32,74.91,95,75,94.38Zm.77-4.88-.7-.71.11-.1.68.72Zm1.1.09-.48-.47C76.76,89.15,76.93,89.32,76.86,89.6Zm.21,7.11c-.16-.06-.32-.12-.47-.19s0-.09-.07-.13.13-.07.16,0,.29.19.44.29ZM78,87l.11,1-.17,0-.07-1Zm-.71,9.85.05-.09a.93.93,0,0,1,.79.44Zm1-5.86-.1,0L78,90.35C78.31,90.46,78.35,90.57,78.29,91Zm.52,4.23c-.13,0-.26-.12-.39-.18l0-.1c.15,0,.29,0,.44.09s0,.09.07.14S78.84,95.21,78.81,95.19ZM79.13,89c.27-.18.81,0,1.06.4Zm1.53,4.3a.89.89,0,0,1,1,.45Zm1.86,4.62,0-.92h.08A.8.8,0,0,1,82.52,97.93Zm.75-10.62L83,86.9l.05-.07c.09,0,.23,0,.25,0a1.6,1.6,0,0,1,.08.39Zm.39,2.91H83.6V88.74h.06Zm5-4h-.09l-.12-.86.1,0A1.07,1.07,0,0,1,88.62,86.24Zm.6-1.68.26-1,.48.2C89.57,84,89.71,84.48,89.22,84.56Zm2.12,5.77.72.33C91.75,90.79,91.49,90.69,91.34,90.33Zm.4-4c-.06-.49,0-.64.35-.75Zm4.18-.07c-.23-.2-.25-.26-.11-.48C96.13,86,96.14,86,95.92,86.23Zm.2-2.77.72.76A.91.91,0,0,1,96.11,83.47Z"/><path class="cls-2" d="M52.24,87l1.18,2.46c.73-.21,1.43-.43,2.14-.62.2-.05.24-.15.21-.33-.13-.89-.24-1.79-.36-2.68-.08-.56-.15-1.12-.24-1.68,0-.12-.12-.22-.13-.34s0-.4,0-.6c-.1-.79-.21-1.57-.32-2.36a2,2,0,0,1,0-.26c.55,1,1,2.08,1.51,3.12.14.3.21.66.57.81,0,0,0,0,0,.05l-.17.08c.51,1.1,1,2.2,1.52,3.29a.24.24,0,0,0,.21.09c.69-.19,1.37-.39,2-.61a.31.31,0,0,0,.16-.24c0-.25-.06-.5-.09-.76-.13-1-.26-2.1-.4-3.15-.05-.4-.16-.8-.2-1.2a2.43,2.43,0,0,0-.07-.89l-.09-.8a.52.52,0,0,0,0-.21l-.06-.5a.52.52,0,0,0,0-.14l-.09-.72c-.07-.58-.13-1.16-.2-1.74-.2-1.57-.41-3.15-.61-4.72-.06-.49-.12-1-.19-1.52-.84.24-1.65.47-2.45.72-.06,0-.13.18-.12.26,0,.36.1.72.15,1.08.15,1.1.3,2.19.46,3.29s.33,2.17.49,3.25a.68.68,0,0,1,0,.16c-.21-.32-.35-.65-.52-1s-.26-.91-.61-1.13a3.07,3.07,0,0,0-.12-.52c-.64-1.42-1.29-2.84-1.93-4.26-.16-.35-.35-.44-.74-.32L52,72.73l-.92.29,1.16,8a.73.73,0,0,1-.24-.31c-.69-1.52-1.37-3-2.07-4.55-.15-.32-.36-.62-.51-.95a7.3,7.3,0,0,1-.28-.81.37.37,0,0,0-.33-.28,4.08,4.08,0,0,1-.65-.25l-.87.26,1.3.9a3,3,0,0,1-1.51-.59.87.87,0,0,0-.93,0l.61.91a.5.5,0,0,0,0,.22c.26.57.51,1.15.81,1.7s.32,1.13,1,1.35c0,0,0,0,0,.07l-.29,0a.54.54,0,0,0,0,.13l1.45,3L52,86.55c.08.17.17.32.4.31a1.09,1.09,0,0,1,.31.08V87Zm5.43-8.63c.08,0,.09.21.14.33l-.08.07-.61-.29A.44.44,0,0,1,57.67,78.38ZM54.28,85h.12l.08.65h-.09A.76.76,0,0,1,54.28,85Zm-1.05-9.37a.16.16,0,0,1,.15.05.17.17,0,0,1,0,.15c-.13.21-.31.22-.59.09C53,75.78,53.09,75.69,53.22,75.61Zm-1.47,9a1,1,0,0,1,1,.44Z"/><path class="cls-2" d="M104.93,74.65l-.3-.49c-1.08-1.85-2.16-3.7-3.25-5.54a.64.64,0,0,1,0-.7,1.69,1.69,0,0,0,.09-.22c.07-.23.11-.47.17-.71h0l-.52-.34-.34.62c-.21-.34-.11-.61.27-.7l-.27-.41.32.16.39-.68h0c-.09.24-.27.5-.25.73s.25.42.4.63l0,0a2.06,2.06,0,0,0,.15-.83c0-.06,0-.13,0-.19s0-.08,0-.12a.88.88,0,0,0-.1-.42h0l-.11,0a2.14,2.14,0,0,0,0-.54c-.09-.41-.21-.81-.34-1.2,0-.15-.1-.29-.15-.44l0,0-.21-.51a.43.43,0,0,0-.13-.4l0,0-.42-1h0l0-.07a3.11,3.11,0,0,0-3.18-1.36c-.41.05-1-.06-1.16.55h-.1c0-.4-.22-.22-.42-.16l-2.2.62-.91.28,1.52,5.26.42,1.45L96.82,77c.42-.12.81-.25,1.21-.34a.48.48,0,0,0,.43-.42.92.92,0,0,1,.62-.77l-.46,1,.68-.19a.61.61,0,0,0,0-.14c-.31-1.08-.63-2.16-.94-3.24-.22-.78-.43-1.56-.66-2.34-.05-.17,0-.23.16-.27.36-.1.71-.21,1.07-.3a.29.29,0,0,1,.24.12c.24.38.46.77.68,1.16.76,1.34,1.53,2.67,2.3,4a.26.26,0,0,0,.22.1c.28-.06.56-.15.85-.23l-.19-.29,0-.09C103.71,75.2,104.29,74.84,104.93,74.65ZM93.45,64.1c.18-.2.55-.21.65,0s.2.17.34.17l.32,0,.13,0,0,.12c-.11,0-.25.15-.34.12C94.2,64.45,93.83,64.27,93.45,64.1Zm3.33,10.83-.13-.05L97,74l.13,0Zm1-6.17-.09,0c-.08-.39,0-.62.33-.57Zm.63-1.32c-.07,0-.13.11-.16.18A1.47,1.47,0,0,1,98,68l0-.44c-.3.08-.61.14-.9.24s-.26,0-.3-.18-.13-.51-.21-.76l-.3-1.13-.17-.56v-.06h0L96,64.56h0a1.41,1.41,0,0,0,0-.16c-.13-.45-.27-.9-.42-1.4.43-.13.83-.26,1.24-.36a2.65,2.65,0,0,1,.86-.1.85.85,0,0,1,.54.27l.42.85.35,1.28a4.79,4.79,0,0,0,.24.86A1.35,1.35,0,0,1,98.39,67.44Zm2.46,2.42a1.14,1.14,0,0,1,.3-.94C101.28,69.3,101,69.55,100.85,69.86Z"/><path class="cls-2" d="M65,82.25c.71-.22,1.42-.42,2.16-.63l1.6,3.45,2.6-.75a1.75,1.75,0,0,0-.06-.18L70.09,81.6l-1.86-3.9c-.37-.78-.74-1.55-1.11-2.32,0-.09-.14-.21-.21-.2-.26,0-.24-.08-.14-.26a.29.29,0,0,0-.24-.44c-.48,0-.64-.33-.41-.76a.44.44,0,0,0,0-.34c-.31-.69-.64-1.38-1-2.07s-.55-1.18-.84-1.76c-.06-.12-.08-.32-.32-.25l-1,.29-1.72.5c-.15,0-.29.11-.47.17.42.31.42.31.08.49q.21,1.88.42,3.76c.1.92.2,1.84.32,2.77v0l.17,1.48.9,8,2.4-.7a.28.28,0,0,0,.17-.19,6.8,6.8,0,0,0-.07-.73c-.11-.9-.22-1.81-.31-2.71A.28.28,0,0,1,65,82.25Zm1.93-2.39.08,0c0,.45,0,.49-.32.6Zm-4.5,2.54v-.68C62.57,82,62.67,82.18,62.42,82.4Zm2.09-2.68c-.05-.31-.11-.58-.15-.86-.07-.49-.13-1-.2-1.48,0,0,0,0,0-.06l-.25-1.76-.18-1.37.07,0,.45,1,.21.48a.52.52,0,0,0,.07.15l.39.88L66,79.14l-.56.9,0,0,.21-.61Z"/><path class="cls-2" d="M83.51,80.82c.19,0,.26-.12.23-.32q-.22-2-.42-3.91-.28-2.69-.54-5.38l-.55-5.53-.16-1.59-2.15.62c-.34.1-.43.24-.39.6.09.81.19,1.61.28,2.42.15,1.31.29,2.63.45,3.94.21,1.77.44,3.53.66,5.3l0,0a.56.56,0,0,1-.11-.12C79.87,75,79,73.07,78.09,71.17a2,2,0,0,0-.62-1,.37.37,0,0,1-.11-.21c.21-.15,0-.28,0-.4-.26-.59-.54-1.17-.82-1.75l-.9-1.9-.78.24.49.28a.81.81,0,0,0-.16.1.51.51,0,0,1-.75.1c-.5-.36-.94-.11-1.41.05l.23.49L75.11,71l2.2,4.49,1.88,3.84q.55,1.11,1.1,2.22c0,.06.13.16.18.14.2-.06.46-.06.54-.34a1.06,1.06,0,0,1,.14-.23l0,0v.32a3.22,3.22,0,0,0,.47-.12c.41-.17.9-.12,1.23-.49a.17.17,0,0,1,.11,0Zm-5.6-7.93-.1,0,.21-.59.1,0A.57.57,0,0,1,77.92,72.89Zm1.14,4.81a.91.91,0,0,1,.26-.91l.08,0Z"/><path class="cls-2" d="M89.23,71.95a1.66,1.66,0,0,1,.33-.18l.45-.05,0,0v0l2.19-.63c-.07-.26-.12-.5-.2-.73l-.13-.49c-.11-.34-.22-.69-.34-1a.29.29,0,0,0-.4-.18c-.85.25-1.71.49-2.56.75-.23.07-.32,0-.38-.2s-.2-.71-.3-1.07c-.25-.87-.51-1.74-.75-2.62a.26.26,0,0,1,.11-.23c.43-.14.86-.25,1.29-.37.68-.19,1.35-.38,2-.59a.54.54,0,0,0,.25-.26c.1-.19.17-.4.26-.6l.05,0v.69l.32-.11-.72-2.53-.35.25c-.15-.16-.33,0-.49,0l-2.81.82-3.22.92,1.68,5.86h0l.23.81a3.35,3.35,0,0,0,.18.61l.38,1.32h0l0,.13c.3,1.11.63,2.22.94,3.32s.55,2,.84,2.93c.08.29.18.58.27.87l2.3-.67,4.39-1.26a.24.24,0,0,0,.11-.2,1.36,1.36,0,0,0-.46-.89,1.11,1.11,0,0,1-.16-.28l.08,0,.21.19,0,0-.38-1.31-1.82.52c-.78.22-1.56.43-2.34.67-.2.06-.24,0-.29-.17l-.28-1c-.26-.91-.53-1.82-.78-2.73C89.08,72.13,89.16,72,89.23,71.95Zm3.18,4.2a.37.37,0,0,1,.13-.23s.16,0,.22.1a4,4,0,0,1,.29.35l-.06.05-.35-.28-.18.28h-.06A1.19,1.19,0,0,1,92.41,76.15Zm-1.13,1.32.13.06-.31.69L91,78.15Zm-1.34-1.7.11.07c-.11.15,0,.41-.42.38ZM86.17,63.43l.08,0c0,.21,0,.44-.28.54Zm1.7,10.84.45.32C88.1,74.71,88.06,74.69,87.88,74.27Z"/><path class="cls-2" d="M69,68.94l.56,1.94.13.45a.88.88,0,0,0,.06.22c0,.07,0,.16.07.23l.21.74,3.23,11.23.23,0c.7-.2,1.4-.39,2.1-.6a.25.25,0,0,0,.12-.22c-.19-.73-.4-1.45-.6-2.17l-.83-2.9c-.08-.28-.17-.55-.26-.83h0l-.2-.74q-.31-1.13-.63-2.25c-.31-1.09-.63-2.17-.95-3.26-.19-.67-.38-1.33-.58-2,0-.06-.09-.1-.15-.18.13-.45-.21-.85-.25-1.35l-2.52.73c.07.23.13.42.17.62s.13.24.31.28a5.39,5.39,0,0,1,.93.34c.1,0,.15.19.22.28l-.07.09Z"/><path class="cls-2" d="M54.22,103.56a36.72,36.72,0,0,1-4.77-4.19,34.81,34.81,0,0,1-5.16-6.9,27.73,27.73,0,0,1-1.45-2.83c-.63-1.49-1.16-3-1.75-4.53-.05-.13-.19-.23-.29-.35l-.07.07A36.12,36.12,0,0,0,54.31,104l.12-.07C54.36,103.78,54.32,103.63,54.22,103.56Z"/><path class="cls-2" d="M104.91,86.18a.31.31,0,0,1,.35.27c.1.41.23.82.37,1.31.16-.45.31-.82.43-1.2a.4.4,0,0,1,.49-.33c.39,0,.79,0,1.19.06a8.16,8.16,0,0,0-1-.88.26.26,0,0,1-.1-.37c.16-.4.3-.81.48-1.31-.41.27-.75.49-1.07.73a.37.37,0,0,1-.55,0c-.31-.27-.65-.51-1-.8a12.92,12.92,0,0,0,.35,1.26c.1.27,0,.36-.19.49s-.65.44-1,.66l0,.11Z"/><path class="cls-2" d="M102.69,93.09l-.74.21c-.8.25-.8.25-1.27-.44-.14-.21-.3-.41-.44-.61a6.74,6.74,0,0,0-.06,1.26c0,.25-.1.34-.33.39-.4.1-.79.23-1.18.34a1.62,1.62,0,0,0,.42.19l.44.16c.59.18.59.18.58.8,0,.32,0,.63,0,1l.8-1a.29.29,0,0,1,.4-.11c.39.17.8.29,1.2.43a7.73,7.73,0,0,0-.67-1.08.31.31,0,0,1,0-.44C102.13,93.83,102.38,93.49,102.69,93.09Z"/><path class="cls-2" d="M66.34,103.58l-1.11.32c-.46.14-.45.14-.72-.26s-.41-.59-.62-.89l-.07,0c0,.28,0,.56,0,.84,0,.71,0,.7-.72.88-.26.06-.52.16-.85.27.46.16.82.31,1.19.42a.37.37,0,0,1,.31.44c0,.4,0,.81,0,1.26.27-.34.53-.64.76-1a.37.37,0,0,1,.52-.15c.36.14.73.27,1.09.4l.06-.05c-.24-.35-.47-.71-.71-1.06a.28.28,0,0,1,0-.39C65.76,104.34,66,104,66.34,103.58Z"/><path class="cls-2" d="M94,49.18a7.27,7.27,0,0,0-.85.53l0,.11c.44,0,.87,0,1.31,0,.16,0,.21,0,.25.2.11.44.25.87.4,1.38.17-.45.34-.82.45-1.21s.2-.3.44-.29c.4,0,.81,0,1.25,0-.36-.29-.68-.57-1-.81a.28.28,0,0,1-.12-.39c.15-.4.29-.8.43-1.2l0,0c-.3.21-.62.39-.91.62a.45.45,0,0,1-.7,0,10.81,10.81,0,0,0-.85-.67l-.06,0c.11.35.2.71.33,1.05S94.38,49,94,49.18Z"/><path class="cls-2" d="M73.34,106.6c-.35.22-.69.46-1,.69v.1H73.6a.27.27,0,0,1,.3.24c.11.43.25.84.39,1.33a10.17,10.17,0,0,0,.41-1.13c.08-.35.27-.38.57-.36s.73,0,1.17,0c-.36-.27-.63-.51-.93-.7a.47.47,0,0,1-.19-.68c.15-.34.26-.7.42-1.13-.38.26-.7.45-1,.68a.45.45,0,0,1-.7,0c-.27-.25-.58-.46-.87-.68a7.37,7.37,0,0,0,.31,1.25A.3.3,0,0,1,73.34,106.6Zm.91-.55h.11l-.05.9h-.05Z"/><path class="cls-2" d="M56.6,48.57c.21,0,.29.09.33.28.1.41.23.8.37,1.29.18-.47.35-.87.47-1.28.07-.23.19-.26.39-.24l1.24.07a2.43,2.43,0,0,0-.49-.48c-.22-.18-.55-.32-.62-.54s.13-.52.22-.79l.2-.64-.06,0L57.41,47a1.74,1.74,0,0,0-1.14-.51l.31,1.07-1.31.91C55.77,48.53,56.19,48.56,56.6,48.57Z"/><path class="cls-2" d="M76.57,40.22c-.17.4-.32.79-.45,1.18a.31.31,0,0,1-.36.25c-.39,0-.77,0-1.16,0l0,.06c.31.26.6.53.93.77a.27.27,0,0,1,.1.39c-.16.4-.3.81-.47,1.29l.5-.33c.28-.18.56-.51.83-.5s.55.36.82.55l.47.33c-.13-.46-.21-.88-.35-1.27-.08-.22,0-.31.16-.42.35-.22.69-.46,1-.7l0-.07h-.92l-.3.63-.11,0,.17-.68-.43.2A4.75,4.75,0,0,0,76.57,40.22Z"/><path class="cls-2" d="M43.79,65.37c.4-.27.74-.47,1-.72a.39.39,0,0,1,.58,0c.3.26.62.49,1,.79-.14-.48-.23-.88-.37-1.26a.35.35,0,0,1,.19-.49c.33-.2.65-.43,1-.65A8,8,0,0,0,46,62.95c-.2,0-.31-.06-.36-.29-.09-.41-.24-.81-.38-1.28-.17.47-.34.87-.47,1.29a.27.27,0,0,1-.32.22l-.73,0,0,.14-.52-.17,0,.08c.34.27.68.54,1,.8a.25.25,0,0,1,.11.36C44.09,64.46,44,64.88,43.79,65.37ZM46,63.25c0-.05.12-.09.19-.13s.1.14.08.18,0,.35-.28.44A2.77,2.77,0,0,1,46,63.25Z"/><path class="cls-2" d="M85.45,105.9c.36-.08.71-.2,1.15-.32-.45-.16-.8-.3-1.16-.41a.44.44,0,0,1-.37-.54c0-.37,0-.75,0-1.18-.28.37-.54.69-.79,1a.31.31,0,0,1-.44.12c-.38-.17-.79-.29-1.18-.44a8.57,8.57,0,0,0,.67,1.08.33.33,0,0,1,0,.47c-.27.32-.52.66-.83,1a11,11,0,0,0,1.19-.33c.34-.14.48,0,.64.27s.42.61.63.91a4.78,4.78,0,0,0,.06-1.17C85,106.07,85.16,106,85.45,105.9Zm-.94-.25v-.73A.44.44,0,0,1,84.51,105.65Z"/><path class="cls-2" d="M64.33,43.57l1.46.55V45.7c.28-.36.53-.67.76-1a.34.34,0,0,1,.5-.14c.37.17.76.28,1.14.42l0,0L67.61,44c-.25-.37-.25-.36,0-.71l.66-.85a6,6,0,0,0-1.22.28.31.31,0,0,1-.43-.16c-.23-.36-.47-.7-.71-1.05l-.08,0c0,.42,0,.84,0,1.26a.32.32,0,0,1-.29.37l-.5.14.69.33C65.24,43.81,64.86,43.2,64.33,43.57Z"/><path class="cls-2" d="M55.9,101l.15.12.86.7a12.75,12.75,0,0,0-.35-1.25c-.11-.29,0-.4.22-.53s.63-.43.94-.64a7.94,7.94,0,0,0-1.26-.1.31.31,0,0,1-.35-.27c-.11-.41-.23-.82-.37-1.31-.17.47-.32.87-.46,1.27a.33.33,0,0,1-.39.25c-.41,0-.83,0-1.28,0,.37.29.73.56,1.07.85a.33.33,0,0,1,.09.28c-.14.43-.3.84-.49,1.34.37-.24.7-.44,1-.66S55.68,100.81,55.9,101Zm-.45-1.49c.46.07.62.2.69.54C55.7,100.08,55.39,99.85,55.44,99.53Z"/><path class="cls-2" d="M49.5,55.66a.27.27,0,0,1,.36.13c.24.36.48.72.73,1.08l.09,0c0-.36,0-.72,0-1.07,0-.07-.1-.15-.17-.19-.27-.13-.54-.25-.81-.37l0-.11a1.49,1.49,0,0,1,.47.05,1.11,1.11,0,0,0,.87.07c.37-.13.75-.23,1.19-.36-.49-.19-.9-.35-1.32-.49a.23.23,0,0,1-.19-.27c0-.44,0-.88,0-1.37-.29.37-.56.71-.82,1.06a.24.24,0,0,1-.35.1c-.19-.08-.38-.15-.57-.22l-.74-.24.9,1.33L48.23,56A8.48,8.48,0,0,0,49.5,55.66Z"/><path class="cls-2" d="M85.34,44.51a1,1,0,0,0-.11.13l-.63.83a8.38,8.38,0,0,0,1.16-.29.39.39,0,0,1,.53.19c.19.35.45.66.67,1l.08,0c0-.28,0-.57,0-.85,0-.71,0-.7.72-.87.26-.06.52-.16.84-.26A11.61,11.61,0,0,0,87.47,44a.41.41,0,0,1-.36-.51c0-.37,0-.75,0-1.21-.28.36-.49.66-.73.94a2.86,2.86,0,0,1-.44.34l0,.08a1.92,1.92,0,0,1-1.08-.42L84.76,43,84.69,43a9.81,9.81,0,0,0,.67,1C85.51,44.21,85.52,44.35,85.34,44.51Zm.66-.92a.64.64,0,0,1,.64.2c-.29.17-.63.06-.64-.2h0Z"/><path class="cls-2" d="M94.53,101.33c.35-.21.69-.43,1-.65l0-.09c-.28,0-.57,0-.85,0-.7,0-.69,0-.86-.72-.07-.27-.17-.53-.27-.85-.18.5-.31.91-.49,1.32a.4.4,0,0,1-.3.18c-.3,0-.6,0-.89,0a.42.42,0,0,0,0,.07c-.07.35.23.44.42.6.42.33.42.32.23.81-.12.32-.22.64-.36,1l1.11-.76a.31.31,0,0,1,.46,0,5,5,0,0,0,.46.35c-.42-.47-.86-.92-1.29-1.37-.09-.09-.29-.19-.06-.43l1.77,1.69c-.08-.29-.13-.54-.21-.77A.31.31,0,0,1,94.53,101.33Z"/><path class="cls-2" d="M96.83,45.65c.1.07.33.11.33.14,0,.32.25.34.4.46a36.19,36.19,0,0,1,5.34,5.15c.51.61,1,1.24,1.5,1.86l.08,0a1.93,1.93,0,0,0-.18-.51,31.28,31.28,0,0,0-3-3.54,35.28,35.28,0,0,0-7.15-5.61c-.49-.29-1-.52-1.52-.79-.3-.17-.59-.37-.89-.55a1.11,1.11,0,0,0-.79-.14c1.14.64,2.3,1.26,3.44,1.94C95.19,44.54,96,45.11,96.83,45.65Z"/><path class="cls-2" d="M50.06,48.88h0c.12,0,.27,0,.34-.09a37.39,37.39,0,0,1,4.8-3.9c.6-.41,1.21-.79,1.83-1.15a14.25,14.25,0,0,1,1.86-1.05c.33-.13.64-.35,1-.49l4.52-1.88-.09-.19c-.79.29-1.59.53-2.34.87-1.38.61-2.76,1.22-4.08,1.94a35.22,35.22,0,0,0-7.61,5.63l0,0a2,2,0,0,0-.16.28h0Z"/><path class="cls-2" d="M41.8,61.93c.25-.57.46-1.16.71-1.73a36.14,36.14,0,0,1,2.43-4.62,35.3,35.3,0,0,1,5-6.34.29.29,0,0,0,.09-.36h0a2.81,2.81,0,0,0-.32.21l0,0c-.74.81-1.5,1.61-2.2,2.45a29.52,29.52,0,0,0-3.29,4.74c-.73,1.32-1.38,2.68-2,4-.26.54-.45,1.11-.67,1.67l.09.09C41.65,62,41.76,62,41.8,61.93Z"/><path class="cls-2" d="M110.09,65.14A36.06,36.06,0,0,1,111,79.82l.24.08a35.91,35.91,0,0,0-.91-15Z"/><path class="cls-2" d="M111,80.07c-.13.67-.22,1.35-.39,2-.31,1.22-.61,2.45-1,3.64A35.75,35.75,0,0,1,108,89.58c-.65,1.39-1.45,2.71-2.18,4.06a1.29,1.29,0,0,0-.07.4l.11,0L106,94a36.42,36.42,0,0,0,2.84-5.43,33.86,33.86,0,0,0,1.83-5.65c.19-.84.34-1.69.49-2.53,0-.1-.06-.21-.1-.32Z"/><path class="cls-2" d="M40.89,84.52c-.2-.85-.41-1.67-.57-2.5-.22-1.18-.43-2.36-.59-3.55-.11-.78-.15-1.58-.19-2.37a36.41,36.41,0,0,1,.29-6.39c0-.17,0-.28-.23-.34-.1,1-.25,1.89-.29,2.82a38.6,38.6,0,0,0,.23,7,43.52,43.52,0,0,0,1,5C40.58,84.35,40.61,84.56,40.89,84.52Z"/><path class="cls-2" d="M69.45,110c-1.22-.26-2.45-.48-3.66-.81A29.35,29.35,0,0,1,62.42,108c-1.39-.57-2.74-1.23-4.09-1.88-.59-.28-1.15-.64-1.73-1-.1.17-.07.27.11.37.71.38,1.41.79,2.12,1.17a33.13,33.13,0,0,0,4.57,2,33.76,33.76,0,0,0,4.71,1.3l1.82.35C69.88,110.05,69.85,110.06,69.45,110Z"/><path class="cls-2" d="M85,39.92c0-.33-.24-.35-.4-.38-.91-.21-1.81-.43-2.72-.58-1.13-.19-2.26-.37-3.4-.47a37.68,37.68,0,0,0-6,0c-.71.05-1.42.17-2.13.26-.17,0-.27.08-.19.29A35.65,35.65,0,0,1,85,39.92Z"/><path class="cls-2" d="M105.58,94.15c-.59.82-1.16,1.63-1.76,2.42a35.17,35.17,0,0,1-6.75,6.68c-.18.14-.17.22,0,.34a33.11,33.11,0,0,0,3.9-3.36c.66-.66,1.29-1.35,1.9-2.06s1.21-1.49,1.8-2.26c.35-.46.66-.94,1-1.41C105.74,94.37,105.78,94.24,105.58,94.15Z"/><path class="cls-2" d="M110,64.77h.09a1.25,1.25,0,0,0,0-.47c-.49-1.4-1-2.81-1.51-4.18a27.07,27.07,0,0,0-2.24-4.32c-.49-.78-1.06-1.51-1.59-2.26a.52.52,0,0,0-.14-.1l-.09.07A36.14,36.14,0,0,1,110,64.77Z"/><path class="cls-2" d="M96.53,103.63c-.07,0-.12.1-.18.14a33.32,33.32,0,0,1-5.24,3.11c-1,.48-2.09.91-3.15,1.33-.65.26-1.32.48-2,.71.09.26.29.19.44.13,1.26-.47,2.53-.92,3.77-1.45a30.66,30.66,0,0,0,4.53-2.41c.72-.46,1.42-.95,2.12-1.41C96.79,103.53,96.66,103.55,96.53,103.63Z"/><path class="cls-2" d="M75.66,61.75l-22.5,6.47,0,.11,22.49-6.47Z"/><path class="cls-2" d="M78,110.41c-1.66,0-3.33,0-5,0-.88,0-1.75-.18-2.63-.26-.08,0-.17.06-.26.09.07.05.14.14.22.15.69.1,1.38.21,2.07.26a38.81,38.81,0,0,0,5.73,0c.08,0,.16-.11.24-.16l0-.08Z"/><path class="cls-2" d="M92.58,56.88,76.07,61.63c.17.1,15.19-4.14,16.53-4.66Z"/><path class="cls-2" d="M83,84.79l0-.11L66.66,89.36l0,.11Z"/><path class="cls-2" d="M66.47,89.53l0-.11-12,3.47s0,.05,0,.1Z"/><path class="cls-2" d="M40.26,67.19c0-.07.05-.14.07-.21.22-.87.43-1.74.67-2.6.16-.58.37-1.15.55-1.73,0-.08,0-.19,0-.28-.07.07-.22.15-.21.2.06.29-.18.47-.24.7-.35,1.2-.66,2.41-1,3.61C40,67.05,40,67.14,40.26,67.19Z"/><path class="cls-2" d="M85.57,109l-2.41.6-1.08.25,0,.12c.09,0,.19.12.27.1.63-.13,1.26-.26,1.88-.42s1.14-.31,1.71-.47C85.79,109,85.79,109,85.57,109Z"/><path class="cls-2" d="M103,78.91,94.6,81.33l0,.11L103,79Z"/><path class="cls-2" d="M47.83,69.87,53,68.38l0-.11-5.18,1.49Z"/><path class="cls-2" d="M69.1,39.19c.09,0,.16-.14.24-.21l-.05-.09-2.3.47.14.24C67.79,39.47,68.44,39.34,69.1,39.19Z"/><path class="cls-2" d="M66.93,39.65v-.06a2.25,2.25,0,0,0-.64,0c-.49.11-1,.27-1.44.4-.17,0-.22.14-.13.33Z"/><path class="cls-2" d="M90,41.44c-.63-.26-1.21-.72-2-.55h0l2.41,1C90.23,41.7,90.13,41.51,90,41.44Z"/><path class="cls-2" d="M80.13,110.17c-.28,0-.56.1-.84.13s-.59,0-.91.07l.12.28,2.09-.25C80.49,110.09,80.3,110.14,80.13,110.17Z"/><path class="cls-2" d="M87.44,40.42l-2-.63,0,.11c.63.51,1.47.51,2.13.86Z"/><path class="cls-2" d="M90.12,82.73A22.49,22.49,0,0,0,85.7,84Z"/><path class="cls-2" d="M39.87,69.28a3,3,0,0,0,.12-2c-.1.57-.19,1.1-.3,1.62C39.64,69,39.62,69.2,39.87,69.28Z"/><path class="cls-2" d="M90.39,82.65l4-1.14,0-.11-4,1.13Z"/><path class="cls-2" d="M54.79,104.28a2.61,2.61,0,0,0,1.54.72L54.7,103.9C54.74,104.09,54.73,104.24,54.79,104.28Z"/><path class="cls-2" d="M92.81,56.93l3.55-1,0-.11-3.54,1Z"/><path class="cls-2" d="M85.62,84l0-.1-2.43.7,0,.11Z"/><path class="cls-2" d="M80.86,110.08c0,.35.27.23.41.21.58-.07.6-.09.58-.38Z"/></svg>